<svg width="32" height="32" viewBox="0 0 32 32" fill="none" xmlns="http://www.w3.org/2000/svg">
<rect width="32" height="32" rx="6.66667" fill="#16A048"/>
<path d="M8.5 7H23.5C25.1545 7 26.5 8.3455 26.5 10V19C26.5 20.6545 25.1545 22 23.5 22H13.93C14.5778 21.4424 15.0979 20.7519 15.4551 19.9754C15.8123 19.199 15.9981 18.3547 16 17.5C15.9981 16.6453 15.8123 15.801 15.4551 15.0246C15.0979 14.2481 14.5778 13.5576 13.93 13H21.25C21.4489 13 21.6397 12.921 21.7803 12.7803C21.921 12.6397 22 12.4489 22 12.25C22 12.0511 21.921 11.8603 21.7803 11.7197C21.6397 11.579 21.4489 11.5 21.25 11.5H10C9.14531 11.5019 8.30104 11.6877 7.52457 12.0449C6.74809 12.4021 6.05759 12.9222 5.5 13.57V10C5.5 8.3455 6.8455 7 8.5 7ZM18.25 17.5H21.25C21.4489 17.5 21.6397 17.421 21.7803 17.2803C21.921 17.1397 22 16.9489 22 16.75C22 16.5511 21.921 16.3603 21.7803 16.2197C21.6397 16.079 21.4489 16 21.25 16H18.25C18.0511 16 17.8603 16.079 17.7197 16.2197C17.579 16.3603 17.5 16.5511 17.5 16.75C17.5 16.9489 17.579 17.1397 17.7197 17.2803C17.8603 17.421 18.0511 17.5 18.25 17.5ZM10 22C11.1935 22 12.3381 21.5259 13.182 20.682C14.0259 19.8381 14.5 18.6935 14.5 17.5C14.5 16.3065 14.0259 15.1619 13.182 14.318C12.3381 13.4741 11.1935 13 10 13C8.80653 13 7.66193 13.4741 6.81802 14.318C5.97411 15.1619 5.5 16.3065 5.5 17.5C5.5 18.6935 5.97411 19.8381 6.81802 20.682C7.66193 21.5259 8.80653 22 10 22ZM7 25.75V22.6645C7.90805 23.2043 8.94363 23.4922 10 23.4985C11.098 23.4985 12.1135 23.1805 13 22.6645V25.7485C13.0001 25.8843 12.9632 26.0175 12.8935 26.134C12.8238 26.2505 12.7237 26.3459 12.604 26.41C12.4845 26.4742 12.3498 26.5047 12.2143 26.4983C12.0788 26.492 11.9475 26.449 11.8345 26.374L10 25.15L8.1655 26.3725C8.05301 26.4492 7.92166 26.4937 7.78569 26.501C7.64973 26.5084 7.51435 26.4783 7.39425 26.4142C7.27415 26.35 7.17391 26.2542 7.10441 26.1371C7.0349 26.02 6.9988 25.8862 7 25.75Z" fill="white"/>
</svg>
