<svg width="32" height="32" viewBox="0 0 32 32" fill="none" xmlns="http://www.w3.org/2000/svg">
<rect width="32" height="32" rx="6.66667" fill="#CE13E4"/>
<path d="M7.36513 20.2476H24.6348C24.9515 20.2474 25.2552 20.1215 25.4791 19.8975C25.703 19.6735 25.8289 19.3699 25.8291 19.0532V8.47061C25.8291 8.15387 25.7032 7.85012 25.4793 7.62615C25.2553 7.40219 24.9515 7.27637 24.6348 7.27637H7.36513C7.0484 7.27637 6.74464 7.40219 6.52067 7.62615C6.29671 7.85012 6.17089 8.15387 6.17089 8.47061V19.0532C6.17086 19.21 6.20172 19.3653 6.26173 19.5103C6.32173 19.6552 6.40969 19.7869 6.52059 19.8978C6.63149 20.0087 6.76315 20.0967 6.90806 20.1567C7.05297 20.2167 7.20828 20.2476 7.36513 20.2476ZM8.55937 9.66485H23.4406V17.8589H8.55937V9.66485ZM26.8778 21.4445H5.12185C4.97583 21.4445 4.83579 21.5025 4.73254 21.6058C4.62929 21.709 4.57129 21.8491 4.57129 21.9951V23.3283C4.57129 23.4675 4.62361 23.6007 4.71745 23.7024L5.49745 24.5468C5.54908 24.6024 5.61161 24.6467 5.68115 24.6771C5.75069 24.7074 5.82574 24.7231 5.90161 24.7232H26.0412C26.1881 24.7232 26.3287 24.6644 26.4326 24.5597L27.2691 23.7152C27.3709 23.6121 27.4282 23.473 27.4284 23.328V21.9951C27.4283 21.8491 27.3703 21.7091 27.2671 21.6059C27.1638 21.5026 27.0238 21.4446 26.8778 21.4445ZM18.0804 23.3571C18.0804 23.4243 18.036 23.4788 17.9808 23.4788H14.0189C13.9637 23.4788 13.9193 23.4243 13.9193 23.3571V22.8137C13.9193 22.7465 13.9637 22.6928 14.0189 22.6928H17.9808C18.036 22.6928 18.0804 22.7465 18.0804 22.8137V23.3571Z" fill="white"/>
</svg>
