<svg width="32" height="32" viewBox="0 0 32 32" fill="none" xmlns="http://www.w3.org/2000/svg">
<rect width="32" height="32" rx="6.66667" fill="#AD51E2"/>
<path fill-rule="evenodd" clip-rule="evenodd" d="M12 11C12 9.93913 12.4214 8.92172 13.1716 8.17157C13.9217 7.42143 14.9391 7 16 7C17.0609 7 18.0783 7.42143 18.8284 8.17157C19.5786 8.92172 20 9.93913 20 11C20 12.0609 19.5786 13.0783 18.8284 13.8284C18.0783 14.5786 17.0609 15 16 15C14.9391 15 13.9217 14.5786 13.1716 13.8284C12.4214 13.0783 12 12.0609 12 11ZM12 17C10.6739 17 9.40215 17.5268 8.46447 18.4645C7.52678 19.4021 7 20.6739 7 22C7 22.7956 7.31607 23.5587 7.87868 24.1213C8.44129 24.6839 9.20435 25 10 25H22C22.7956 25 23.5587 24.6839 24.1213 24.1213C24.6839 23.5587 25 22.7956 25 22C25 20.6739 24.4732 19.4021 23.5355 18.4645C22.5979 17.5268 21.3261 17 20 17H12Z" fill="white"/>
</svg>
