<?xml version="1.0" encoding="UTF-8"?>
<svg id="Layer_1" xmlns="http://www.w3.org/2000/svg" version="1.1" viewBox="0 0 199.6 100">
  <!-- Generator: Adobe Illustrator 29.7.0, SVG Export Plug-In . SVG Version: 2.1.1 Build 23)  -->
  <defs>
    <style>
      .st0 {
        fill: #f38020;
      }

      .st0, .st1, .st2, .st3 {
        fill-rule: evenodd;
      }

      .st1, .st4 {
        fill: #fff;
      }

      .st2 {
        fill: #ea1f27;
      }

      .st3 {
        fill: #035ba6;
      }
    </style>
  </defs>
  <path class="st4" d="M147.1,36.6v-5.5h4.2c2.1,0,3.5.9,3.5,2.7h0c0,1.7-1.2,2.8-3.4,2.8h-4.2ZM140.7,48.4h6.4v-6.9h2.8l4.6,6.9h7.4l-5.5-7.9c2.9-1.2,4.8-3.5,4.8-7h0c0-2.3-.7-4.1-2-5.4-1.6-1.6-4-2.5-7.5-2.5h-10.9v22.7h0ZM114.8,48.4h6.3v-12.5l9.9,12.5h5.6v-22.7h-6.3v12l-9.5-12h-6v22.7h0ZM86.2,48.4h6.3v-13l5.9,8.8h.1l5.9-8.9v13h6.4v-22.7h-6.8l-5.5,8.8-5.5-8.8h-6.8v22.7h0Z"/>
  <path class="st4" d="M179.6,65.7h3.1v-4.2l4.2-6.8h-3.5l-2.3,4-2.3-4h-3.5l4.2,6.9v4.1h0ZM168.6,65.7h3.1v-8.3h3.3v-2.7h-9.8v2.7h3.3v8.3h0ZM160.7,65.7h3.1v-11h-3.1v11ZM154.7,65.9c2.7,0,4.5-1.3,4.5-3.6h0c0-2.1-1.6-2.9-4.2-3.4-1.5-.3-1.9-.6-1.9-1.1h0c0-.4.4-.7,1.1-.7s2.1.4,3.1,1.1l1.5-2.2c-1.2-1-2.7-1.5-4.6-1.5s-4.3,1.5-4.3,3.5h0c0,2.3,1.8,2.9,4.2,3.5,1.5.3,1.9.6,1.9,1h0c0,.5-.4.8-1.3.8-1.3,0-2.5-.5-3.6-1.3l-1.7,2c1.4,1.2,3.2,1.8,5.2,1.8M141.9,60v-2.6h2c1,0,1.7.4,1.7,1.3h0c0,.8-.6,1.3-1.7,1.3h-2,0ZM138.8,65.7h3.1v-3.3h1.4l2.2,3.3h3.6l-2.7-3.8c1.4-.6,2.3-1.7,2.3-3.4h0c0-1.1-.3-2-1-2.6-.8-.8-1.9-1.2-3.6-1.2h-5.3v11h0ZM128.2,65.7h9v-2.6h-6v-1.7h5.4v-2.4h-5.4v-1.7h5.9v-2.6h-9v11h0ZM119.8,65.8h2.9l4.5-11h-3.4l-2.5,6.9-2.5-6.9h-3.4l4.5,11h0ZM111,65.7h3.1v-11h-3.1v11ZM98.4,65.7h3.1v-6l4.8,6h2.7v-11h-3.1v5.8l-4.6-5.8h-2.9s0,11,0,11ZM91.4,65.9c3.2,0,5.2-1.6,5.2-5.1v-6.1h-3.1v6.2c0,1.5-.8,2.3-2.1,2.3s-2.1-.8-2.1-2.3v-6.1h-3.1v6.2c0,3.4,2,5,5.2,5"/>
  <path class="st0" d="M64.9,70.6c-4.7,3.5-10.6,5.6-16.9,5.6h-.6l2.5-4.7c1.6-3.4,4-8.6,4.8-10.3.8-1.7,1.5-4.1,5.6-3.3,4.1.9,6.7,1.2,6.7,1.4,0,.1.5,0,.4.8-.9,3.5-1.7,7-2.6,10.4M65,26.7c6.7,5.1,11,13,11,21.9s-3.8,15.8-9.7,20.9c2.4-4.2,5-8.8,5.6-9.9.8-1.4,1.2-4.3-2.5-5.3-3.7-1.1-7.2-2-8.6-2.6-.9-.4-3.6-2.3-4.7-5.4-.6-1.6-1-3.4,0-5.8,2.5-5.8,6.4-10.2,9-13.8M47.9,21c6,0,11.5,1.9,16.1,5-3.3,3.3-8.4,7.9-14.5,10.7-5.3,2.5-11.1,3-15.8,3.3-6.8.4-9.1-.1-8.7,0,1.6.5,3.9.9,5.6,1.2,2.3.4,4.6.7,6.8,1.1,1.4.2,2.7.6,4.1.8,2,.4,9.6,3,8.7,13-.5,6-3,14.2-4.9,20-14.3-1.3-25.5-13.1-25.5-27.5s12.6-27.6,28.1-27.6M46,27.8c1.4-.5,3.2.9,3.9,3.2s.1,4.5-1.3,5-3.2-.9-3.9-3.2c-.7-2.3-.1-4.5,1.3-5"/>
  <path class="st3" d="M64.9,70.6c-4.7,3.5-10.6,5.6-16.9,5.6s1.4-3.7,2-4.7c1.6-3.4,4-8.6,4.8-10.3.8-1.7,1.5-4.1,5.6-3.3,4.1.9,6.7,1.2,6.7,1.4,0,.1.5,0,.4.8-.9,3.5-1.7,7-2.6,10.4M65,26.7c6.7,5.1,11,13,11,21.9s-3.8,15.8-9.7,20.9c2.4-4.2,5-8.8,5.6-9.9.8-1.4,1.2-4.3-2.5-5.3-3.7-1.1-7.2-2-8.6-2.6-.9-.4-3.6-2.3-4.7-5.4-.6-1.6-1-3.4,0-5.8,2.5-5.8,6.4-10.2,9-13.8"/>
  <path class="st3" d="M66.8,23c.3-.6-7.5,9.9-18.4,15-5.3,2.5-11.1,3-15.8,3.3-6.8.4-9.1-.1-8.7,0,1.6.5,3.9.9,5.6,1.2,2.3.4,4.6.7,6.8,1.1,1.4.2,2.7.6,4.1.8,2,.4,9.6,3,8.7,13s-7.2,26.2-7.3,26.8-.6,2.1-.9,3.2c2.6-4.9,5.2-9.7,7.8-14.6,1.6-3.4,4-8.6,4.8-10.3.8-1.7,1.5-4.1,5.6-3.3,4.1.9,6.7,1.2,6.7,1.4s.5,0,.4.8c-1.1,4.3-2.1,8.6-3.2,12.9,2.7-4.8,6.8-12.2,7.6-13.5.8-1.4,1.2-4.3-2.5-5.3s-7.2-2-8.6-2.6c-.9-.4-3.6-2.3-4.7-5.4-.6-1.6-1-3.4,0-5.8,3-7,8.2-12,10.4-16.1.7-.9,1.1-1.8,1.5-2.7M44.8,29.1c1.4-.5,3.2.9,3.9,3.2.7,2.3.1,4.5-1.3,5s-3.2-.9-3.9-3.2c-.7-2.3-.1-4.5,1.3-5"/>
  <path class="st1" d="M67.9,21.7c.3-.6-7.5,9.9-18.4,15-5.3,2.5-11.1,3-15.8,3.3-6.8.4-9.1-.1-8.7,0,1.6.5,3.9.9,5.6,1.2,2.3.4,4.6.7,6.8,1.1,1.4.2,2.7.6,4.1.8,2,.4,9.6,3,8.7,13-.8,10-7.2,26.2-7.3,26.8s-.6,2.1-.9,3.2c2.6-4.9,5.2-9.7,7.8-14.6,1.6-3.4,4-8.6,4.8-10.3s1.5-4.1,5.6-3.3c4.1.9,6.7,1.2,6.7,1.4s.5,0,.4.8c-1.1,4.3-2.1,8.6-3.2,12.9,2.7-4.8,6.8-12.2,7.6-13.5.8-1.4,1.2-4.3-2.5-5.3s-7.2-2-8.6-2.6c-.9-.4-3.6-2.3-4.7-5.4-.6-1.6-1-3.4,0-5.8,3-7,8.3-12,10.4-16.1.7-.9,1.1-1.8,1.5-2.7M46,27.8c1.4-.5,3.2.9,3.9,3.2s.1,4.5-1.3,5-3.2-.9-3.9-3.2c-.7-2.3-.1-4.5,1.3-5"/>
  <path class="st2" d="M37.2,14.4c-6.1,5.6-16.8,16.2-24.7,5.1.7.8,1.4,4.1,5.6,6,4.5,1.4,10.1-.7,15.7-4.7,6.7-4.8,7.9-9.2,18-8.8,7.3.3,14.2,4.5,15,11.6l3.7-6.8c1.3-2.4-6-9-15.7-9.4-5.4-.2-11.6,1.5-17.5,6.9"/>
  <g>
    <path class="st4" d="M88.8,77.7v1.9h3.4v1.4h-3.4v2.7h-1.7v-7.3h5.6v1.4h-3.9Z"/>
    <path class="st4" d="M98.8,78v5.6h-1.6v-.7c-.4.5-1.1.8-1.8.8-1.4,0-2.4-.8-2.4-2.5v-3.2h1.7v2.9c0,.9.4,1.4,1.2,1.4s1.3-.5,1.3-1.5v-2.8h1.7,0Z"/>
    <path class="st4" d="M103.4,83.4c-.3.2-.8.4-1.3.4-1.3,0-2.1-.7-2.1-2v-2.3h-.9v-1.3h.9v-1.4h1.7v1.4h1.4v1.3h-1.4v2.3c0,.5.3.7.7.7s.5,0,.7-.2l.4,1.2h0Z"/>
    <path class="st4" d="M109.5,78v5.6h-1.6v-.7c-.4.5-1.1.8-1.8.8-1.4,0-2.4-.8-2.4-2.5v-3.2h1.7v2.9c0,.9.4,1.4,1.2,1.4s1.3-.5,1.3-1.5v-2.8h1.7,0Z"/>
    <path class="st4" d="M113.9,77.9v1.5c-.1,0-.2,0-.4,0-.9,0-1.5.5-1.5,1.6v2.7h-1.7v-5.6h1.6v.7c.4-.5,1.1-.8,1.9-.8h0Z"/>
    <path class="st4" d="M114.2,76.3c0-.5.4-.9,1-.9s1,.4,1,.9-.4.9-1,.9-1-.4-1-.9ZM114.4,78h1.7v5.6h-1.7v-5.6Z"/>
    <path class="st4" d="M116.4,83.1l.6-1.2c.5.3,1.3.5,2,.5s1.1-.2,1.1-.5c0-.9-3.4,0-3.4-2.2s1-1.8,2.6-1.8,1.7.2,2.2.5l-.6,1.2c-.6-.3-1.1-.4-1.6-.4-.7,0-1.1.2-1.1.5,0,1,3.4,0,3.4,2.2s-1,1.8-2.7,1.8-1.9-.3-2.5-.6h0Z"/>
    <path class="st4" d="M125.6,83.4c-.3.2-.8.4-1.3.4-1.3,0-2.1-.7-2.1-2v-2.3h-.9v-1.3h.9v-1.4h1.7v1.4h1.4v1.3h-1.4v2.3c0,.5.3.7.7.7s.5,0,.7-.2l.4,1.2h0Z"/>
    <path class="st4" d="M125.7,76.3c0-.5.4-.9,1-.9s1,.4,1,.9-.4.9-1,.9-1-.4-1-.9ZM125.9,78h1.7v5.6h-1.7v-5.6Z"/>
    <path class="st4" d="M128.1,80.8c0-1.7,1.3-2.9,3.2-2.9s2.1.5,2.5,1.4l-1.3.7c-.3-.5-.8-.8-1.3-.8-.8,0-1.5.6-1.5,1.6s.6,1.6,1.5,1.6,1-.2,1.3-.8l1.3.7c-.4.9-1.4,1.4-2.5,1.4-1.9,0-3.2-1.2-3.2-2.9Z"/>
    <path class="st4" d="M142.4,82.3v1.4h-5.7v-7.3h5.6v1.4h-3.9v1.6h3.4v1.3h-3.4v1.7s4,0,4,0Z"/>
    <path class="st4" d="M148.9,75.9v7.8h-1.6v-.7c-.4.5-1,.7-1.8.7-1.6,0-2.8-1.1-2.8-2.9s1.2-2.9,2.8-2.9,1.3.2,1.7.7v-2.7h1.6,0ZM147.3,80.8c0-1-.6-1.6-1.4-1.6s-1.5.6-1.5,1.6.6,1.6,1.5,1.6,1.4-.6,1.4-1.6Z"/>
    <path class="st4" d="M155.8,78v5.6h-1.6v-.7c-.4.5-1.1.8-1.8.8-1.4,0-2.4-.8-2.4-2.5v-3.2h1.6v2.9c0,.9.4,1.4,1.1,1.4s1.3-.5,1.3-1.5v-2.8h1.6,0Z"/>
    <path class="st4" d="M156.4,80.8c0-1.7,1.3-2.9,3.2-2.9s2.1.5,2.5,1.4l-1.3.7c-.3-.5-.8-.8-1.3-.8-.8,0-1.5.6-1.5,1.6s.6,1.6,1.5,1.6,1-.2,1.3-.8l1.3.7c-.4.9-1.4,1.4-2.5,1.4-1.9,0-3.2-1.2-3.2-2.9Z"/>
    <path class="st4" d="M167.7,80.4v3.2h-1.5v-.7c-.3.5-.9.8-1.7.8-1.3,0-2.1-.7-2.1-1.7s.7-1.7,2.4-1.7h1.3c0-.7-.4-1.1-1.3-1.1s-1.2.2-1.6.5l-.6-1.1c.6-.4,1.5-.7,2.4-.7,1.7,0,2.7.8,2.7,2.5h0ZM166.1,81.9v-.6h-1.1c-.8,0-1,.3-1,.7s.4.7.9.7,1-.2,1.2-.8Z"/>
    <path class="st4" d="M172.5,83.4c-.3.2-.8.4-1.3.4-1.3,0-2.1-.7-2.1-2v-2.3h-.9v-1.3h.9v-1.4h1.6v1.4h1.4v1.3h-1.4v2.3c0,.5.3.7.7.7s.5,0,.7-.2l.4,1.2h0Z"/>
    <path class="st4" d="M172.8,76.3c0-.5.4-.9,1-.9s1,.4,1,.9-.4.9-1,.9-1-.4-1-.9ZM173,78h1.6v5.6h-1.6v-5.6Z"/>
    <path class="st4" d="M175.3,80.8c0-1.7,1.3-2.9,3.1-2.9s3.1,1.2,3.1,2.9-1.3,2.9-3.1,2.9-3.1-1.2-3.1-2.9ZM179.9,80.8c0-1-.6-1.6-1.4-1.6s-1.5.6-1.5,1.6.6,1.6,1.5,1.6,1.4-.6,1.4-1.6Z"/>
    <path class="st4" d="M188.1,80.4v3.2h-1.6v-3c0-.9-.4-1.3-1.1-1.3s-1.4.5-1.4,1.5v2.8h-1.6v-5.6h1.6v.7c.4-.5,1.1-.7,1.9-.7,1.3,0,2.4.8,2.4,2.5h0Z"/>
  </g>
  <rect class="st4" x="86.2" y="71.7" width="99.6" height="1"/>
</svg>