<svg width="237" height="40" viewBox="0 0 237 40" fill="none" xmlns="http://www.w3.org/2000/svg">
<g clip-path="url(#clip0_6774_36695)">
<path fill-rule="evenodd" clip-rule="evenodd" d="M8.63925 5.03906L0.0878906 13.5355L5.01541 18.665L13.3822 10.6855C10.7011 10.5423 8.84188 7.61955 8.63925 5.03906Z" fill="#0076BE"/>
<path fill-rule="evenodd" clip-rule="evenodd" d="M11.5625 25.4008L19.7299 33.5685C19.9856 30.4946 21.8596 29.8861 24.1395 28.6234L16.3867 20.5762L11.5625 25.4008Z" fill="#009035"/>
<path fill-rule="evenodd" clip-rule="evenodd" d="M5.23438 19.861C7.98818 20.2091 9.59271 22.0486 10.3181 24.4088L18.1171 16.3521L13.2747 11.8203L5.23438 19.861Z" fill="#009035"/>
<path fill-rule="evenodd" clip-rule="evenodd" d="M15.1562 11.309L22.7877 19.4767L27.6147 14.3956L19.4445 6.48438C19.202 9.39798 17.7056 10.7148 15.1562 11.309Z" fill="#009035"/>
<path fill-rule="evenodd" clip-rule="evenodd" d="M5.29297 31.724L13.7068 39.3175L18.6349 34.2692L10.2936 26.5859C10.0511 29.4995 7.84236 31.1299 5.29297 31.724Z" fill="#0076BE"/>
<path fill-rule="evenodd" clip-rule="evenodd" d="M33.7892 8.30055L25.3754 0.707031L20.4473 5.7553L28.7885 13.4386C29.0311 10.525 31.2398 8.89463 33.7892 8.30055Z" fill="#0076BE"/>
<path fill-rule="evenodd" clip-rule="evenodd" d="M30.8683 34.6647L38.4615 26.2506L33.4134 21.3223L25.7305 29.6638C28.6439 29.9064 30.2742 32.1153 30.8683 34.6647Z" fill="#0076BE"/>
<path fill-rule="evenodd" clip-rule="evenodd" d="M20.8477 23.2553L25.6811 28.088L33.5918 19.9176C30.6784 19.6751 29.3615 18.1787 28.6469 15.5078L20.8477 23.2553Z" fill="#009035"/>
<path fill-rule="evenodd" clip-rule="evenodd" d="M4.72784 20.5566C5.34871 20.5566 5.96351 20.6855 6.53713 20.936C7.11074 21.1864 7.63195 21.5534 8.07097 22.0162C8.51 22.4789 8.85825 23.0282 9.09585 23.6328C9.33345 24.2374 9.45575 24.8854 9.45575 25.5398C9.45575 26.5254 9.17846 27.4888 8.65896 28.3083C8.13945 29.1277 7.40106 29.7664 6.53716 30.1436C5.67326 30.5208 4.72264 30.6195 3.80552 30.4272C2.88841 30.2349 2.04598 29.7603 1.38478 29.0634C0.723569 28.3665 0.273281 27.4786 0.0908514 26.512C-0.0915785 25.5453 0.00204305 24.5434 0.359879 23.6328C0.717715 22.7223 1.3237 21.944 2.10119 21.3965C2.87868 20.8489 3.79275 20.5566 4.72784 20.5566Z" fill="#009035"/>
<path fill-rule="evenodd" clip-rule="evenodd" d="M24.8822 30.0332C26.1361 30.0332 27.3386 30.5582 28.2253 31.4927C29.1119 32.4273 29.6101 33.6947 29.6101 35.0163C29.6101 36.0019 29.3328 36.9654 28.8133 37.7848C28.2937 38.6043 27.5554 39.243 26.6915 39.6202C25.8276 39.9973 24.8769 40.096 23.9598 39.9037C23.0427 39.7115 22.2003 39.2369 21.5391 38.54C20.8779 37.8431 20.4276 36.9551 20.2451 35.9885C20.0627 35.0219 20.1563 34.0199 20.5142 33.1094C20.872 32.1988 21.478 31.4206 22.2555 30.873C23.033 30.3255 23.9471 30.0332 24.8822 30.0332Z" fill="#009035"/>
<path fill-rule="evenodd" clip-rule="evenodd" d="M34.4036 9.36914C35.0245 9.36914 35.6393 9.49803 36.2129 9.74845C36.7865 9.99888 37.3077 10.3659 37.7468 10.8287C38.1858 11.2914 38.534 11.8407 38.7716 12.4453C39.0092 13.0499 39.1315 13.6979 39.1315 14.3523C39.1315 15.3379 38.8542 16.3013 38.3347 17.1208C37.8152 17.9402 37.0768 18.5789 36.2129 18.9561C35.349 19.3333 34.3984 19.432 33.4813 19.2397C32.5642 19.0474 31.7218 18.5728 31.0606 17.8759C30.3993 17.179 29.9491 16.2911 29.7666 15.3245C29.5842 14.3578 29.6778 13.3559 30.0357 12.4454C30.3935 11.5348 30.9995 10.7565 31.777 10.209C32.5545 9.66142 33.4685 9.36915 34.4036 9.36914Z" fill="#009035"/>
<path fill-rule="evenodd" clip-rule="evenodd" d="M14.3958 0C15.0167 0 15.6315 0.128896 16.2051 0.379322C16.7787 0.629749 17.2999 0.996805 17.7389 1.45953C18.178 1.92226 18.5262 2.4716 18.7638 3.07618C19.0014 3.68076 19.1237 4.32875 19.1237 4.98315C19.1237 5.96872 18.8464 6.93215 18.3269 7.75163C17.8074 8.5711 17.069 9.20981 16.2051 9.58697C15.3412 9.96413 14.3906 10.0628 13.4735 9.87054C12.5564 9.67826 11.7139 9.20366 11.0527 8.50676C10.3915 7.80985 9.94124 6.92194 9.75882 5.95531C9.57639 4.98867 9.67001 3.98673 10.0279 3.07618C10.3857 2.16563 10.9917 1.38737 11.7692 0.839814C12.5467 0.292259 13.4608 0 14.3958 0Z" fill="#009035"/>
<path fill-rule="evenodd" clip-rule="evenodd" d="M14.4017 2.23633C15.0381 2.23633 15.6485 2.50281 16.0986 2.97714C16.5486 3.45148 16.8014 4.09481 16.8014 4.76562C16.8014 5.26587 16.6607 5.75488 16.397 6.17082C16.1333 6.58676 15.7585 6.91095 15.32 7.10239C14.8815 7.29382 14.399 7.34391 13.9335 7.24632C13.468 7.14873 13.0404 6.90783 12.7048 6.5541C12.3692 6.20037 12.1407 5.7497 12.0481 5.25906C11.9555 4.76843 12.003 4.25987 12.1846 3.7977C12.3663 3.33554 12.6738 2.94051 13.0685 2.66259C13.4631 2.38467 13.9271 2.23633 14.4017 2.23633Z" fill="white"/>
<path fill-rule="evenodd" clip-rule="evenodd" d="M4.72395 23.0703C5.3604 23.0703 5.97079 23.3368 6.42083 23.8111C6.87086 24.2855 7.12369 24.9288 7.12369 25.5996C7.12369 26.0999 6.98295 26.5889 6.71926 27.0048C6.45558 27.4207 6.08079 27.7449 5.64229 27.9364C5.2038 28.1278 4.7213 28.1779 4.25579 28.0803C3.79029 27.9827 3.3627 27.7418 3.02709 27.3881C2.69148 27.0344 2.46292 26.5837 2.37033 26.093C2.27774 25.6024 2.32526 25.0939 2.50689 24.6317C2.68852 24.1695 2.9961 23.7745 3.39073 23.4966C3.78537 23.2187 4.24933 23.0703 4.72395 23.0703Z" fill="white"/>
<path fill-rule="evenodd" clip-rule="evenodd" d="M34.3997 11.8398C34.7149 11.8398 35.0269 11.9053 35.3181 12.0324C35.6092 12.1595 35.8738 12.3458 36.0966 12.5807C36.3195 12.8155 36.4962 13.0944 36.6168 13.4012C36.7374 13.7081 36.7995 14.037 36.7995 14.3692C36.7995 14.8694 36.6587 15.3584 36.395 15.7744C36.1313 16.1903 35.7565 16.5145 35.3181 16.7059C34.8796 16.8973 34.3971 16.9474 33.9316 16.8498C33.466 16.7522 33.0385 16.5113 32.7029 16.1576C32.3672 15.8039 32.1387 15.3532 32.0461 14.8626C31.9535 14.3719 32.001 13.8634 32.1827 13.4012C32.3643 12.939 32.6719 12.544 33.0665 12.2661C33.4612 11.9882 33.9251 11.8398 34.3997 11.8398Z" fill="white"/>
<path fill-rule="evenodd" clip-rule="evenodd" d="M24.888 32.6172C25.5245 32.6172 26.1349 32.8837 26.5849 33.358C27.0349 33.8323 27.2878 34.4757 27.2878 35.1465C27.2878 35.6467 27.147 36.1357 26.8833 36.5517C26.6196 36.9676 26.2449 37.2918 25.8064 37.4833C25.3679 37.6747 24.8854 37.7248 24.4199 37.6272C23.9544 37.5296 23.5268 37.2887 23.1912 36.935C22.8555 36.5812 22.627 36.1306 22.5344 35.6399C22.4418 35.1493 22.4893 34.6407 22.6709 34.1786C22.8526 33.7164 23.1602 33.3214 23.5548 33.0435C23.9494 32.7655 24.4134 32.6172 24.888 32.6172Z" fill="white"/>
<path d="M58.0429 9.024V24.448C58.0429 26.368 58.5869 27.008 59.9629 27.008H60.4429V28H51.8669V27.008H52.3149C53.6909 27.008 54.2349 26.368 54.2349 24.448V9.024C53.2429 8.992 51.6749 9.184 50.3949 10.176C49.6269 10.816 49.0189 12.064 49.0189 13.728H47.6429V7.328H48.6349C48.6349 7.552 48.6989 7.712 48.7949 7.872C48.9549 7.968 49.0829 8.032 49.2429 8.032H62.9389C63.4189 8.032 63.6749 7.808 63.6749 7.328H64.6349V13.728H63.2589C63.2589 10.592 61.5309 9.024 58.0429 9.024ZM78.1736 19.68H68.1576C68.5096 23.04 69.9816 24.576 71.3576 25.216C72.3496 25.728 72.8936 25.76 73.5016 25.76C75.0696 25.76 76.7976 24.992 78.7176 23.488V24.768C77.8536 25.504 77.1176 26.08 76.5736 26.496C75.9976 26.912 75.2296 27.36 74.2376 27.776C73.2456 28.224 72.2856 28.448 71.3576 28.448C69.5976 28.448 68.1256 27.776 66.9416 26.432C65.7576 25.12 65.1496 23.488 65.1496 21.6C65.1496 19.328 65.9176 17.376 67.4856 15.712C69.0216 14.08 70.7816 13.248 72.7336 13.248C75.8056 13.248 78.1736 15.584 78.1736 19.68ZM68.1896 18.688H74.7176C74.6216 15.52 73.3096 14.336 71.8056 14.336C70.2376 14.336 68.4776 15.712 68.1896 18.688ZM92.3819 14.24V18.432H90.9739C90.6859 16.544 89.8859 15.296 88.9899 14.848C88.0619 14.4 87.6779 14.336 87.1979 14.336C86.0139 14.336 85.0539 14.848 84.3179 15.904C83.5819 16.96 83.1979 18.24 83.1979 19.808C83.1979 21.504 83.6459 22.912 84.5419 24.032C85.4059 25.152 86.5579 25.728 87.9659 25.728C89.4699 25.728 90.6539 25.088 92.8619 23.552V24.768C90.2699 27.232 87.9979 28.448 86.0139 28.448C84.3179 28.448 82.8779 27.776 81.7259 26.4C80.5739 25.024 79.9979 23.392 79.9979 21.504C79.9979 19.264 80.7979 17.312 82.4299 15.68C84.0299 14.048 85.9499 13.248 88.1579 13.248C89.4699 13.248 90.8779 13.568 92.3819 14.24ZM94.2761 8.704L100.58 6.112V7.04C100.164 7.264 99.9721 7.648 99.9721 8.192V17.536C101.572 15.84 102.788 14.72 103.652 14.112C104.516 13.536 105.412 13.248 106.372 13.248C107.908 13.248 109.092 14.4 109.092 16.32V24.736C109.092 26.496 109.732 27.008 111.012 27.008H111.492V28H105.092V27.008C105.636 26.912 105.764 26.816 105.764 26.176V17.824C105.764 16.448 105.22 15.776 104.164 15.776C103.044 15.776 102.02 16.544 101.06 18.112C100.132 19.648 99.6521 21.44 99.6521 23.456C99.6521 25.824 100.388 27.008 101.86 27.008H102.372V28H94.2761V27.008H94.7241C96.0041 27.008 96.6441 26.432 96.6441 24.736V10.976C96.6441 9.92 96.2921 9.408 95.5561 9.408C95.2681 9.408 94.8521 9.504 94.2761 9.728V8.704ZM134.484 28H122.388V27.008H122.836C124.244 27.008 124.756 26.336 124.756 24.448V11.584C124.756 9.664 124.212 9.024 122.836 9.024H122.388V8.032H130.932V9.024H130.452C129.076 9.024 128.564 9.632 128.564 11.584V27.008H129.716C133.652 27.008 135.636 24.704 136.052 21.856H137.428L136.052 28.768H135.06C135.124 28.48 135.092 28.256 134.932 28.16C134.836 28.064 134.708 28 134.484 28ZM151.067 19.68H141.051C141.403 23.04 142.875 24.576 144.251 25.216C145.243 25.728 145.787 25.76 146.395 25.76C147.963 25.76 149.691 24.992 151.611 23.488V24.768C150.747 25.504 150.011 26.08 149.467 26.496C148.891 26.912 148.123 27.36 147.131 27.776C146.139 28.224 145.179 28.448 144.251 28.448C142.491 28.448 141.019 27.776 139.835 26.432C138.651 25.12 138.043 23.488 138.043 21.6C138.043 19.328 138.811 17.376 140.379 15.712C141.915 14.08 143.675 13.248 145.627 13.248C148.699 13.248 151.067 15.584 151.067 19.68ZM141.083 18.688H147.611C147.515 15.52 146.203 14.336 144.699 14.336C143.131 14.336 141.371 15.712 141.083 18.688ZM164.444 17.696V24.576C164.444 25.312 164.7 25.696 165.212 25.696C165.66 25.696 166.364 25.28 167.356 24.48V25.696C165.468 27.52 163.996 28.448 162.908 28.448C161.884 28.448 161.404 27.968 161.244 27.008C161.116 26.272 161.116 25.76 161.116 24.608L159.356 26.368C159.132 26.592 158.844 26.848 158.492 27.136C157.5 27.968 156.7 28.448 155.644 28.448C154.78 28.448 154.14 28.128 153.692 27.456C153.244 26.816 153.02 26.144 153.02 25.472C153.02 23.296 155.708 20.896 161.116 18.304V16.48C161.116 15.232 160.508 14.464 159.612 14.464C157.692 14.464 156.156 16.48 155.772 19.424H154.396V15.68C157.116 14.048 159.452 13.248 161.372 13.248C162.588 13.248 163.452 13.632 163.996 14.432C164.284 14.848 164.444 15.936 164.444 17.696ZM161.404 19.68C157.948 20.672 156.22 22.048 156.22 23.744C156.22 24.8 156.892 25.472 157.916 25.472C159.068 25.472 159.964 24.736 160.604 23.296C161.084 22.208 161.372 20.992 161.404 19.68ZM176.812 8.704L183.116 6.112V7.04C182.7 7.232 182.508 7.584 182.508 8.064V24.448C182.508 25.408 182.892 25.888 183.66 25.888C183.916 25.888 184.268 25.792 184.684 25.632C184.78 25.632 184.844 25.568 184.94 25.568V26.56L180.268 28.416H179.18V24.096C177.676 25.696 176.492 26.816 175.596 27.456C174.7 28.128 173.772 28.448 172.844 28.448C171.468 28.448 170.38 27.84 169.548 26.624C168.684 25.408 168.268 23.968 168.268 22.336C168.268 19.968 169.1 17.856 170.764 16C172.428 14.176 174.252 13.248 176.236 13.248C177.132 13.248 178.124 13.472 179.18 13.92V10.56C179.18 9.888 178.764 9.376 178.156 9.376C177.836 9.376 177.388 9.504 176.812 9.728V8.704ZM179.18 16.032C178.06 14.912 176.844 14.336 175.596 14.336C174.284 14.336 173.26 14.976 172.524 16.224C171.884 17.312 171.564 18.72 171.564 20.48C171.564 23.776 173.004 25.792 174.956 25.792C176.236 25.792 177.324 24.992 178.22 23.392C179.084 21.856 179.5 20.128 179.5 18.208C179.5 17.088 179.404 16.416 179.244 16.256C179.244 16.16 179.212 16.064 179.18 16.032ZM195.876 13.856V18.016H194.404C194.276 15.456 192.772 14.336 191.588 14.336C190.692 14.336 189.924 14.944 189.924 16C189.924 16.672 190.148 17.152 190.948 17.76C191.332 18.048 191.684 18.304 192.004 18.464C192.292 18.656 192.836 18.944 193.572 19.36C195.524 20.384 196.836 21.472 196.836 23.264C196.836 24.576 196.26 25.76 195.14 26.816C194.02 27.904 192.452 28.448 190.5 28.448C189.348 28.448 187.972 28.128 186.34 27.488V22.912H187.716C187.908 24.224 188.26 25.248 188.804 25.984C189.476 26.912 190.34 27.36 191.332 27.36C192.644 27.36 193.7 26.304 193.7 25.056C193.7 24 192.868 23.008 192.164 22.56C191.812 22.336 191.332 22.08 190.724 21.792C189.284 21.056 188.772 20.768 187.94 20.064C187.108 19.36 186.788 18.624 186.788 17.6C186.788 16.416 187.332 15.392 188.388 14.528C189.444 13.664 190.852 13.248 192.58 13.248C193.668 13.248 194.756 13.44 195.876 13.856ZM208.317 28V27.008H208.829C210.205 27.008 210.749 26.368 210.749 24.448V11.616C210.749 9.664 210.205 9.024 208.829 9.024H208.317V8.032H216.925V9.024H216.477C215.101 9.024 214.557 9.696 214.557 11.616V24.448C214.557 26.368 215.101 27.008 216.477 27.008H216.925V28H208.317ZM228.869 9.024V24.448C228.869 26.368 229.413 27.008 230.789 27.008H231.269V28H222.693V27.008H223.141C224.517 27.008 225.061 26.368 225.061 24.448V9.024C224.069 8.992 222.501 9.184 221.221 10.176C220.453 10.816 219.845 12.064 219.845 13.728H218.469V7.328H219.461C219.461 7.552 219.525 7.712 219.621 7.872C219.781 7.968 219.909 8.032 220.069 8.032H233.765C234.245 8.032 234.501 7.808 234.501 7.328H235.461V13.728H234.085C234.085 10.592 232.357 9.024 228.869 9.024Z" fill="white"/>
</g>
<defs>
<clipPath id="clip0_6774_36695">
<rect width="236.132" height="40" fill="white"/>
</clipPath>
</defs>
</svg>
