<svg width="107" height="14" viewBox="0 0 107 14" fill="none" xmlns="http://www.w3.org/2000/svg">
<g clip-path="url(#clip0_1815_6996)">
<path d="M46.1927 9.04836H53.263L49.5245 3.03444L42.663 13.9079H39.5402L47.8861 0.846561C48.2489 0.31883 48.8537 0 49.5245 0C50.1732 0 50.778 0.307841 51.1299 0.824573L59.5087 13.9079H56.3859L54.9125 11.4781H47.7541L46.1927 9.04836ZM78.6306 11.4781V0.131932H75.9806V12.5885C75.9806 12.9294 76.1126 13.2592 76.3655 13.5121C76.6183 13.7649 76.9592 13.9079 77.3331 13.9079H89.4176L90.979 11.4781H78.6306ZM34.79 9.44416C37.363 9.44416 39.4523 7.36623 39.4523 4.79354C39.4523 2.22086 37.363 0.131932 34.79 0.131932H23.1969V13.9079H25.8459V2.56169H34.614C35.8456 2.56169 36.8352 3.56217 36.8352 4.79354C36.8352 6.02491 35.8456 7.0254 34.614 7.0254L27.1434 7.0144L35.0538 13.9079H38.9025L33.5804 9.44416H34.79ZM6.89009 13.9079C3.08657 13.9079 0 10.8294 0 7.0254C0 3.22134 3.08657 0.131932 6.89009 0.131932H14.8983C18.7029 0.131932 21.7873 3.22134 21.7873 7.0254C21.7873 10.8294 18.7029 13.9079 14.8983 13.9079H6.89009ZM14.7202 11.4781C17.1844 11.4781 19.1802 9.48813 19.1802 7.0254C19.1802 4.56266 17.1844 2.56169 14.7202 2.56169H7.06709C4.60401 2.56169 2.60711 4.56266 2.60711 7.0254C2.60711 9.48813 4.60401 11.4781 7.06709 11.4781H14.7202ZM65.0397 13.9079C61.2351 13.9079 58.1453 10.8294 58.1453 7.0254C58.1453 3.22134 61.2351 0.131932 65.0397 0.131932H74.5511L73.0007 2.56169H65.2156C62.7525 2.56169 60.7513 4.56266 60.7513 7.0254C60.7513 9.48813 62.7525 11.4781 65.2156 11.4781H74.771L73.2096 13.9079H65.0397ZM97.4446 11.4781C95.4103 11.4781 93.684 10.1148 93.1562 8.23477H104.482L106.043 5.80502H93.1562C93.684 3.93598 95.4103 2.56169 97.4446 2.56169H105.219L106.791 0.131932H97.2687C93.4641 0.131932 90.3743 3.22134 90.3743 7.0254C90.3743 10.8294 93.4641 13.9079 97.2687 13.9079H105.439L107 11.4781H97.4446Z" fill="#EA1B22"/>
</g>
<defs>
<clipPath id="clip0_1815_6996">
<rect width="107" height="14" fill="white"/>
</clipPath>
</defs>
</svg>
