<svg width="29" height="20" viewBox="0 0 29 20" fill="none" xmlns="http://www.w3.org/2000/svg">
<path fill-rule="evenodd" clip-rule="evenodd" d="M5.42542 4.54504C5.8909 4.43264 6.36672 4.37605 6.844 4.37633C10.6237 4.37633 13.6868 7.8743 13.6868 12.1875C13.6868 16.502 10.6237 20 6.844 20C3.06433 20 0 16.5033 0 12.1875C0 12.0613 0.00241667 11.9338 0.00845833 11.8076H0C0 5.29719 4.64 0 10.3433 0V2.62219C8.49338 2.62219 6.78721 3.34085 5.42542 4.54504ZM20.7398 4.54504C21.1966 4.43428 21.6703 4.37633 22.156 4.37633C25.9357 4.37633 29 7.8743 29 12.1875C29 16.502 25.9357 20 22.156 20C18.3763 20 15.3132 16.5033 15.3132 12.1875C15.3132 12.0613 15.3156 11.9338 15.3217 11.8076H15.3132C15.3132 5.29719 19.9532 0 25.6565 0V2.62219C23.8054 2.62219 22.1016 3.34085 20.7398 4.54504Z" fill="#154675"/>
</svg>
