<svg width="24" height="24" viewBox="0 0 24 24" fill="none" xmlns="http://www.w3.org/2000/svg">
<g clip-path="url(#clip0_1815_7000)">
<path fill-rule="evenodd" clip-rule="evenodd" d="M9.76371 1.06971L8.74821 1.81521C8.56929 1.95795 8.37974 2.08682 8.18121 2.20071C8.04751 2.27179 7.90739 2.33005 7.76271 2.37471C7.59921 2.42421 7.42971 2.44971 7.08921 2.50221L5.84421 2.69271C4.86171 2.84271 4.36971 2.91921 3.98421 3.14871C3.63921 3.35121 3.35271 3.63921 3.14871 3.98421C2.91921 4.37421 2.84421 4.86621 2.69271 5.84421L2.50221 7.08922C2.44971 7.42972 2.42421 7.60071 2.37471 7.76421C2.32971 7.90921 2.27171 8.04821 2.20071 8.18121C2.11971 8.33121 2.01921 8.47071 1.81521 8.74821L1.06971 9.76371C0.481714 10.5647 0.187714 10.9652 0.0737143 11.3987C-0.0245714 11.7861 -0.0245714 12.1919 0.0737143 12.5792C0.186214 13.0172 0.481714 13.4192 1.06971 14.2142L1.81521 15.2297C2.01921 15.5072 2.12121 15.6467 2.20071 15.7967C2.27071 15.9307 2.32871 16.0707 2.37471 16.2167C2.42421 16.3787 2.44971 16.5482 2.50221 16.8887L2.69271 18.1337C2.84271 19.1162 2.91921 19.6067 3.14871 19.9937C3.35121 20.3387 3.63921 20.6252 3.98421 20.8292C4.37421 21.0587 4.86621 21.1337 5.84421 21.2852L7.08921 21.4757C7.42971 21.5282 7.60071 21.5552 7.76271 21.6047C7.90771 21.6487 8.04721 21.7067 8.18121 21.7787C8.33121 21.8582 8.47071 21.9587 8.74821 22.1642L9.76371 22.9097C10.5647 23.4977 10.9652 23.7917 11.3987 23.9057C11.7857 24.0062 12.1922 24.0062 12.5792 23.9057C13.0172 23.7917 13.4192 23.4977 14.2142 22.9097L15.2297 22.1642C15.5072 21.9602 15.6467 21.8582 15.7967 21.7787C15.9307 21.7067 16.0702 21.6487 16.2152 21.6047C16.3787 21.5552 16.5482 21.5297 16.8887 21.4757L18.1337 21.2852C19.1162 21.1352 19.6067 21.0602 19.9937 20.8292C20.3387 20.6267 20.6267 20.3387 20.8292 19.9937C21.0587 19.6037 21.1337 19.1117 21.2852 18.1337L21.4757 16.8887C21.5282 16.5482 21.5537 16.3787 21.6032 16.2152C21.6482 16.0702 21.7062 15.9307 21.7772 15.7967C21.8582 15.6467 21.9587 15.5072 22.1627 15.2297L22.9082 14.2142C23.4962 13.4132 23.7902 13.0142 23.9042 12.5792C24.0025 12.1919 24.0025 11.7861 23.9042 11.3987C23.7917 10.9607 23.4962 10.5587 22.9082 9.76371L22.1627 8.74821C22.02 8.56929 21.8911 8.37974 21.7772 8.18121C21.7061 8.04752 21.6479 7.90739 21.6032 7.76271C21.5436 7.54178 21.501 7.31663 21.4757 7.08922L21.2852 5.84421C21.1352 4.86171 21.0587 4.36971 20.8292 3.98421C20.6247 3.64044 20.3375 3.35324 19.9937 3.14871C19.6037 2.91921 19.1117 2.84421 18.1337 2.69271L16.8887 2.50221C16.6613 2.4769 16.4361 2.43428 16.2152 2.37471C16.0702 2.33095 15.93 2.27265 15.7967 2.20071C15.5982 2.08682 15.4086 1.95795 15.2297 1.81521L14.2142 1.06971C13.4132 0.481714 13.0127 0.187714 12.5792 0.0737143C12.1919 -0.0245714 11.7861 -0.0245714 11.3987 0.0737143C10.9607 0.187714 10.5587 0.481714 9.76371 1.06971ZM17.7587 9.18472C17.8455 9.07882 17.9102 8.9566 17.949 8.82527C17.9878 8.69395 17.9998 8.55618 17.9844 8.42012C17.969 8.28406 17.9265 8.15246 17.8594 8.0331C17.7923 7.91375 17.702 7.80906 17.5937 7.72521C17.3735 7.55294 17.0947 7.47346 16.8168 7.50372C16.5388 7.53398 16.2837 7.67159 16.1057 7.88721L11.1407 13.9772L8.48571 11.9372C8.26883 11.7607 7.99159 11.6759 7.71307 11.7008C7.43455 11.7257 7.17679 11.8585 6.99471 12.0707C6.90576 12.1748 6.83858 12.2957 6.79713 12.4262C6.75568 12.5567 6.74081 12.6941 6.75339 12.8305C6.76598 12.9668 6.80576 13.0992 6.8704 13.2199C6.93504 13.3406 7.02321 13.4472 7.12971 13.5332L10.6097 16.2482C10.8295 16.427 11.111 16.5115 11.3929 16.4834C11.6748 16.4553 11.9341 16.3168 12.1142 16.0982L17.7542 9.16821L17.7587 9.18472Z" fill="white"/>
</g>
<defs>
<clipPath id="clip0_1815_7000">
<rect width="24" height="24" fill="white"/>
</clipPath>
</defs>
</svg>
