<svg width="17" height="17" viewBox="0 0 17 17" fill="none" xmlns="http://www.w3.org/2000/svg">
<path d="M15.4062 13.8125C15.4062 13.9534 15.3503 14.0885 15.2507 14.1882C15.151 14.2878 15.0159 14.3438 14.875 14.3438H2.125C1.9841 14.3438 1.84898 14.2878 1.74935 14.1882C1.64972 14.0885 1.59375 13.9534 1.59375 13.8125C1.59375 13.6716 1.64972 13.5365 1.74935 13.4368C1.84898 13.3372 1.9841 13.2812 2.125 13.2812H14.875C15.0159 13.2812 15.151 13.3372 15.2507 13.4368C15.3503 13.5365 15.4062 13.6716 15.4062 13.8125ZM15.4062 3.71875V11.1562C15.4062 11.438 15.2943 11.7083 15.0951 11.9076C14.8958 12.1068 14.6255 12.2188 14.3438 12.2188H2.65625C2.37446 12.2188 2.10421 12.1068 1.90495 11.9076C1.70569 11.7083 1.59375 11.438 1.59375 11.1562V3.71875C1.59375 3.43696 1.70569 3.16671 1.90495 2.96745C2.10421 2.76819 2.37446 2.65625 2.65625 2.65625H14.3438C14.6255 2.65625 14.8958 2.76819 15.0951 2.96745C15.2943 3.16671 15.4062 3.43696 15.4062 3.71875ZM10.8906 7.4375C10.8906 7.35214 10.87 7.26804 10.8306 7.19233C10.7912 7.11662 10.7341 7.05151 10.6642 7.00254L8.00793 5.14316C7.92833 5.0874 7.83497 5.05455 7.73799 5.04817C7.64102 5.04179 7.54415 5.06214 7.45794 5.10699C7.37172 5.15184 7.29946 5.21949 7.24903 5.30256C7.19859 5.38563 7.1719 5.48094 7.17188 5.57812V9.29688C7.1719 9.39406 7.19859 9.48937 7.24903 9.57244C7.29946 9.65551 7.37172 9.72316 7.45794 9.76801C7.54415 9.81286 7.64102 9.83321 7.73799 9.82683C7.83497 9.82045 7.92833 9.7876 8.00793 9.73184L10.6642 7.87246C10.7341 7.82349 10.7912 7.75838 10.8306 7.68267C10.87 7.60696 10.8906 7.52286 10.8906 7.4375Z" fill="#5A9CFF"/>
</svg>
