<svg width="24" height="24" viewBox="0 0 24 24" fill="none" xmlns="http://www.w3.org/2000/svg">
<path d="M10.67 13.02C10.45 13.01 10.23 13 10 13C7.58 13 5.32 13.67 3.39 14.82C2.51 15.34 2 16.32 2 17.35V20H11.26C10.5534 18.9926 10.1265 17.8158 10.0229 16.5896C9.91924 15.3635 10.1425 14.1318 10.67 13.02Z" fill="white"/>
<path d="M10 12C12.2091 12 14 10.2091 14 8C14 5.79086 12.2091 4 10 4C7.79086 4 6 5.79086 6 8C6 10.2091 7.79086 12 10 12Z" fill="white"/>
<path d="M20.7519 16C20.7519 15.78 20.7219 15.58 20.6919 15.37L21.8319 14.36L20.8319 12.63L19.3819 13.12C19.0619 12.85 18.7019 12.64 18.3019 12.49L18.0019 11H16.0019L15.7019 12.49C15.3019 12.64 14.9419 12.85 14.6219 13.12L13.1719 12.63L12.1719 14.36L13.3119 15.37C13.2819 15.58 13.2519 15.78 13.2519 16C13.2519 16.22 13.2819 16.42 13.3119 16.63L12.1719 17.64L13.1719 19.37L14.6219 18.88C14.9419 19.15 15.3019 19.36 15.7019 19.51L16.0019 21H18.0019L18.3019 19.51C18.7019 19.36 19.0619 19.15 19.3819 18.88L20.8319 19.37L21.8319 17.64L20.6919 16.63C20.7219 16.42 20.7519 16.22 20.7519 16ZM17.0019 18C15.9019 18 15.0019 17.1 15.0019 16C15.0019 14.9 15.9019 14 17.0019 14C18.1019 14 19.0019 14.9 19.0019 16C19.0019 17.1 18.1019 18 17.0019 18Z" fill="white"/>
</svg>
