<svg width="17" height="17" viewBox="0 0 17 17" fill="none" xmlns="http://www.w3.org/2000/svg">
<path d="M8.50016 8.5C9.82687 8.5 11.0289 8.93917 11.9108 9.55329C12.7487 10.1377 13.4585 11.0061 13.4585 11.9404C13.4585 12.4532 13.2396 12.8782 12.8947 13.1941C12.5702 13.4923 12.1467 13.6857 11.7103 13.8175C10.8384 14.0817 9.69016 14.1667 8.50016 14.1667C7.31016 14.1667 6.16195 14.0817 5.29 13.8175C4.85366 13.6857 4.43008 13.4923 4.10495 13.1941C3.76141 12.8789 3.54183 12.4539 3.54183 11.9411C3.54183 11.0068 4.25158 10.1384 5.08954 9.554C5.97141 8.93917 7.17345 8.5 8.50016 8.5ZM13.4585 9.20833C14.198 9.20833 14.8695 9.45271 15.366 9.79838C15.8194 10.115 16.2918 10.6413 16.2918 11.283C16.2918 11.6493 16.1325 11.9531 15.8952 12.1706C15.6784 12.3696 15.4107 12.4865 15.1663 12.5602C14.8334 12.6608 14.4402 12.7125 14.0322 12.7351C14.1187 12.4908 14.1668 12.2251 14.1668 11.9404C14.1668 10.8531 13.4875 9.92942 12.7275 9.28838C12.9676 9.23534 13.2127 9.20851 13.4585 9.20833ZM3.54183 9.20833C3.79541 9.20928 4.03908 9.23596 4.27283 9.28838C3.5135 9.92942 2.8335 10.8531 2.8335 11.9404C2.8335 12.2251 2.88166 12.4908 2.96808 12.7351C2.56008 12.7125 2.16766 12.6608 1.83404 12.5602C1.58966 12.4865 1.32191 12.3696 1.10445 12.1706C0.979807 12.0589 0.880114 11.9222 0.811885 11.7694C0.743657 11.6166 0.708427 11.4511 0.708496 11.2838C0.708496 10.6427 1.18025 10.1157 1.63429 9.79908C2.1959 9.41407 2.86092 9.20812 3.54183 9.20833ZM13.1043 4.95833C13.574 4.95833 14.0244 5.1449 14.3565 5.477C14.6886 5.80909 14.8752 6.25951 14.8752 6.72917C14.8752 7.19882 14.6886 7.64924 14.3565 7.98134C14.0244 8.31343 13.574 8.5 13.1043 8.5C12.6347 8.5 12.1843 8.31343 11.8522 7.98134C11.5201 7.64924 11.3335 7.19882 11.3335 6.72917C11.3335 6.25951 11.5201 5.80909 11.8522 5.477C12.1843 5.1449 12.6347 4.95833 13.1043 4.95833ZM3.896 4.95833C4.36565 4.95833 4.81607 5.1449 5.14816 5.477C5.48026 5.80909 5.66683 6.25951 5.66683 6.72917C5.66683 7.19882 5.48026 7.64924 5.14816 7.98134C4.81607 8.31343 4.36565 8.5 3.896 8.5C3.42634 8.5 2.97592 8.31343 2.64383 7.98134C2.31173 7.64924 2.12516 7.19882 2.12516 6.72917C2.12516 6.25951 2.31173 5.80909 2.64383 5.477C2.97592 5.1449 3.42634 4.95833 3.896 4.95833ZM8.50016 2.125C9.25161 2.125 9.97228 2.42351 10.5036 2.95486C11.035 3.48622 11.3335 4.20689 11.3335 4.95833C11.3335 5.70978 11.035 6.43045 10.5036 6.9618C9.97228 7.49316 9.25161 7.79167 8.50016 7.79167C7.74872 7.79167 7.02805 7.49316 6.49669 6.9618C5.96534 6.43045 5.66683 5.70978 5.66683 4.95833C5.66683 4.20689 5.96534 3.48622 6.49669 2.95486C7.02805 2.42351 7.74872 2.125 8.50016 2.125Z" fill="#00F259"/>
</svg>
