<svg width="36" height="36" viewBox="0 0 36 36" fill="none" xmlns="http://www.w3.org/2000/svg">
<rect width="36" height="36" rx="6" fill="#0076BE"/>
<path d="M10.9266 15.4971C11.2875 14.4752 11.8734 13.5143 12.6984 12.6939C15.6281 9.76426 20.3766 9.76426 23.3063 12.6939L24.1078 13.5002H22.5C21.6703 13.5002 21 14.1705 21 15.0002C21 15.8299 21.6703 16.5002 22.5 16.5002H27.7453C28.575 16.5002 29.2453 15.8299 29.2453 15.0002V9.7502C29.2453 8.92051 28.575 8.2502 27.7453 8.2502C26.9156 8.2502 26.2453 8.92051 26.2453 9.7502V11.4002L25.425 10.5752C21.3234 6.47363 14.6766 6.47363 10.575 10.5752C9.43125 11.7189 8.60625 13.0643 8.1 14.5033C7.82344 15.2861 8.23594 16.1393 9.01406 16.4158C9.79219 16.6924 10.65 16.2799 10.9266 15.5018V15.4971ZM7.82812 19.5611C7.59375 19.6314 7.36875 19.758 7.18594 19.9455C6.99844 20.133 6.87188 20.358 6.80625 20.6018C6.79219 20.658 6.77812 20.7189 6.76875 20.7799C6.75469 20.8596 6.75 20.9393 6.75 21.0189V26.2502C6.75 27.0799 7.42031 27.7502 8.25 27.7502C9.07969 27.7502 9.75 27.0799 9.75 26.2502V24.6049L10.575 25.4252C14.6766 29.5221 21.3234 29.5221 25.4203 25.4252C26.5641 24.2814 27.3938 22.9361 27.9 21.4971C28.1766 20.7143 27.7641 19.8611 26.9859 19.5846C26.2078 19.308 25.35 19.7205 25.0734 20.4986C24.7125 21.5205 24.1266 22.4814 23.3016 23.3018C20.3719 26.2314 15.6234 26.2314 12.6938 23.3018L12.6891 23.2971L11.8875 22.5002H13.5C14.3297 22.5002 15 21.8299 15 21.0002C15 20.1705 14.3297 19.5002 13.5 19.5002H8.26875C8.19375 19.5002 8.11875 19.5049 8.04375 19.5143C7.93125 19.5283 7.89844 19.5377 7.82812 19.5611Z" fill="white"/>
</svg>
