<svg width="36" height="36" viewBox="0 0 36 36" fill="none" xmlns="http://www.w3.org/2000/svg">
<rect width="36" height="36" rx="6" fill="#0076BE"/>
<path fill-rule="evenodd" clip-rule="evenodd" d="M9.75 18.6406V21.9116C9.74999 22.4318 9.8975 22.9412 10.1754 23.3809C10.4533 23.8206 10.8502 24.1724 11.32 24.3956L16.32 26.7696C16.6887 26.9448 17.0918 27.0357 17.5 27.0357C17.9082 27.0357 18.3113 26.9448 18.68 26.7696L23.68 24.3956C24.1498 24.1724 24.5467 23.8206 24.8246 23.3809C25.1025 22.9412 25.25 22.4318 25.25 21.9116V18.6416L18.775 21.8786C18.3791 22.0766 17.9426 22.1797 17.5 22.1797C17.0574 22.1797 16.6209 22.0766 16.225 21.8786L9.75 18.6406Z" fill="white"/>
<path fill-rule="evenodd" clip-rule="evenodd" d="M16.8959 9.46379C17.2759 9.27379 17.7239 9.27379 18.1039 9.46379L26.7619 13.7928C27.7569 14.2898 27.7569 15.7098 26.7619 16.2078L18.1039 20.5378C17.7239 20.7278 17.2759 20.7278 16.8959 20.5378L8.23795 16.2078C7.24295 15.7098 7.24295 14.2898 8.23795 13.7928L16.8959 9.46379Z" fill="white"/>
<path fill-rule="evenodd" clip-rule="evenodd" d="M25.83 14.165C25.9188 13.987 26.0747 13.8516 26.2634 13.7886C26.452 13.7256 26.658 13.7401 26.836 13.829L28.836 14.829C28.9605 14.8914 29.0651 14.9872 29.1383 15.1057C29.2114 15.2242 29.2501 15.3607 29.25 15.5V19C29.25 19.1989 29.171 19.3896 29.0303 19.5303C28.8896 19.671 28.6989 19.75 28.5 19.75C28.3011 19.75 28.1103 19.671 27.9696 19.5303C27.829 19.3896 27.75 19.1989 27.75 19V15.964L26.165 15.171C25.987 15.0821 25.8516 14.9262 25.7886 14.7376C25.7256 14.5489 25.7411 14.3429 25.83 14.165Z" fill="white"/>
</svg>
