<svg width="36" height="36" viewBox="0 0 36 36" fill="none" xmlns="http://www.w3.org/2000/svg">
<rect width="36" height="36" rx="6" fill="#0076BE"/>
<path d="M18.306 20.0162C19.0447 20.0919 19.7291 20.439 20.2268 20.9902C20.7244 21.5414 20.9999 22.2576 21 23.0002C21 24.5422 20.06 25.8182 18.796 26.6602C17.526 27.5082 15.826 28.0002 14 28.0002C12.174 28.0002 10.474 27.5082 9.204 26.6602C7.938 25.8202 7 24.5422 7 23.0002C7 22.2045 7.31607 21.4415 7.87868 20.8788C8.44129 20.3162 9.20435 20.0002 10 20.0002H18L18.306 20.0162ZM26.006 20.0002C26.8016 20.0002 27.5647 20.3162 28.1273 20.8788C28.6899 21.4415 29.006 22.2045 29.006 23.0002C29.006 24.3902 28.142 25.4222 27.04 26.0562C25.944 26.6862 24.51 27.0002 23.006 27.0002C22.4993 26.9988 22.0053 26.9615 21.524 26.8882C22.39 25.8642 23.002 24.5562 23.002 23.0002C22.9997 21.9174 22.646 20.8646 21.994 20.0002H26.006ZM14.004 8.99217C14.6036 8.9798 15.1996 9.08726 15.7572 9.30823C16.3147 9.5292 16.8225 9.85924 17.2508 10.279C17.6791 10.6988 18.0194 11.1998 18.2515 11.7528C18.4837 12.3057 18.6032 12.8995 18.6029 13.4992C18.6026 14.0989 18.4827 14.6926 18.25 15.2453C18.0173 15.7981 17.6767 16.2988 17.248 16.7182C16.8193 17.1376 16.3112 17.4672 15.7534 17.6877C15.1957 17.9081 14.5996 18.0151 14 18.0022C12.8216 17.9773 11.6999 17.4918 10.8753 16.6497C10.0507 15.8075 9.58893 14.6758 9.58893 13.4972C9.58893 12.3185 10.0507 11.1868 10.8753 10.3447C11.6999 9.50254 12.8216 9.017 14 8.99217M23.5 10.9942C23.9596 10.9942 24.4148 11.0847 24.8394 11.2606C25.264 11.4365 25.6499 11.6943 25.9749 12.0193C26.2999 12.3443 26.5577 12.7301 26.7336 13.1548C26.9095 13.5794 27 14.0345 27 14.4942C27 14.9538 26.9095 15.4089 26.7336 15.8336C26.5577 16.2582 26.2999 16.644 25.9749 16.969C25.6499 17.294 25.264 17.5519 24.8394 17.7277C24.4148 17.9036 23.9596 17.9942 23.5 17.9942C22.5717 17.9942 21.6815 17.6254 21.0251 16.969C20.3687 16.3127 20 15.4224 20 14.4942C20 13.5659 20.3687 12.6757 21.0251 12.0193C21.6815 11.3629 22.5717 10.9942 23.5 10.9942Z" fill="white"/>
</svg>
