<svg width="36" height="36" viewBox="0 0 36 36" fill="none" xmlns="http://www.w3.org/2000/svg">
<rect width="36" height="36" rx="6" fill="#0076BE"/>
<path d="M27.78 12.78C27.8848 12.6751 27.9561 12.5415 27.985 12.3961C28.0138 12.2507 27.999 12.1 27.9423 11.9631C27.8856 11.8261 27.7895 11.709 27.6663 11.6266C27.5431 11.5442 27.3982 11.5001 27.25 11.5H24.5V8.75C24.4999 8.60176 24.4558 8.45689 24.3734 8.33367C24.291 8.21046 24.1739 8.11443 24.0369 8.05772C23.9 8.00101 23.7493 7.98615 23.6039 8.01504C23.4585 8.04392 23.3249 8.11525 23.22 8.22L20.72 10.72C20.5793 10.8605 20.5002 11.0512 20.5 11.25V14.086L18.518 16.068C18.2217 15.9892 17.9112 15.9794 17.6105 16.0395C17.3098 16.0996 17.027 16.2279 16.7837 16.4145C16.5404 16.6012 16.3433 16.8412 16.2074 17.1161C16.0715 17.391 16.0006 17.6934 16 18C16.0001 18.2846 16.061 18.566 16.1786 18.8252C16.2961 19.0844 16.4677 19.3155 16.6817 19.5031C16.8958 19.6907 17.1474 19.8305 17.4198 19.9131C17.6922 19.9956 17.979 20.0191 18.2612 19.982C18.5434 19.9448 18.8144 19.8478 19.0561 19.6975C19.2978 19.5472 19.5047 19.347 19.6628 19.1104C19.821 18.8738 19.9268 18.6061 19.9732 18.3253C20.0196 18.0444 20.0056 17.757 19.932 17.482L21.914 15.5H24.75C24.9488 15.4998 25.1395 15.4207 25.28 15.28L27.78 12.78ZM18 8C19.1677 7.9989 20.3265 8.2023 21.424 8.601L20.012 10.013C19.9493 10.0757 19.8923 10.1423 19.841 10.213C18.147 9.81292 16.3687 9.97625 14.7759 10.6782C13.1831 11.3802 11.8627 12.5825 11.015 14.1027C10.1673 15.623 9.83858 17.3782 10.0787 19.1022C10.3187 20.8262 11.1145 22.4249 12.3453 23.6557C13.5761 24.8865 15.1748 25.6823 16.8988 25.9223C18.6228 26.1624 20.378 25.8337 21.8983 24.986C23.4185 24.1383 24.6208 22.8179 25.3228 21.2251C26.0248 19.6323 26.1881 17.854 25.788 16.16C25.858 16.108 25.9247 16.0507 25.988 15.988L27.398 14.576C27.797 15.6734 28.0008 16.8323 28 18C28 23.523 23.523 28 18 28C12.477 28 8 23.523 8 18C8 12.477 12.477 8 18 8ZM18 12C18.5193 12.0013 19.0193 12.0647 19.5 12.19V13.672L19.086 14.086L19.037 14.136C18.4443 13.9779 17.8232 13.9581 17.2216 14.0781C16.62 14.1981 16.054 14.4547 15.5673 14.8281C15.0806 15.2014 14.6862 15.6816 14.4144 16.2316C14.1427 16.7815 14.0009 17.3866 14 18C14.0004 18.5692 14.1223 19.1318 14.3575 19.6501C14.5927 20.1685 14.9359 20.6306 15.364 21.0057C15.7921 21.3809 16.2954 21.6603 16.8401 21.8253C17.3849 21.9904 17.9586 22.0373 18.5229 21.9628C19.0873 21.8884 19.6292 21.6944 20.1126 21.3938C20.5959 21.0932 21.0095 20.6928 21.3258 20.2196C21.642 19.7463 21.8537 19.211 21.9465 18.6494C22.0393 18.0878 22.0112 17.5129 21.864 16.963L21.914 16.914L22.328 16.5H23.811C24.1238 17.7115 24.05 18.9905 23.6 20.1581C23.1499 21.3256 22.3461 22.3232 21.3011 23.0113C20.256 23.6994 19.0219 24.0435 17.7716 23.9956C16.5213 23.9476 15.3172 23.51 14.3279 22.7439C13.3386 21.9778 12.6135 20.9215 12.2542 19.723C11.8949 18.5244 11.9193 17.2435 12.324 16.0595C12.7287 14.8755 13.4934 13.8476 14.5111 13.1197C15.5289 12.3918 16.7487 12.0003 18 12Z" fill="white"/>
</svg>
