<svg width="15" height="15" viewBox="0 0 15 15" fill="none" xmlns="http://www.w3.org/2000/svg">
<g clip-path="url(#clip0_1742_4133)">
<path d="M7.5 0.9375C6.20206 0.9375 4.93327 1.32238 3.85407 2.04348C2.77488 2.76458 1.93374 3.7895 1.43704 4.98864C0.940343 6.18778 0.810384 7.50728 1.0636 8.78028C1.31682 10.0533 1.94183 11.2226 2.85961 12.1404C3.7774 13.0582 4.94672 13.6832 6.21972 13.9364C7.49272 14.1896 8.81222 14.0597 10.0114 13.563C11.2105 13.0663 12.2354 12.2251 12.9565 11.1459C13.6776 10.0667 14.0625 8.79794 14.0625 7.5C14.0625 5.75952 13.3711 4.09032 12.1404 2.85961C10.9097 1.6289 9.24049 0.9375 7.5 0.9375ZM6.5625 10.1203L4.21875 7.77656L4.96407 7.03125L6.5625 8.62969L10.0359 5.15625L10.7841 5.89969L6.5625 10.1203Z" fill="white"/>
</g>
<defs>
<clipPath id="clip0_1742_4133">
<rect width="15" height="15" fill="white"/>
</clipPath>
</defs>
</svg>
