<svg width="40" height="40" viewBox="0 0 40 40" fill="none" xmlns="http://www.w3.org/2000/svg">
<rect width="40" height="40" rx="6" fill="url(#paint0_linear_1742_4082)"/>
<path d="M11.3651 24.2476H28.6348C28.9515 24.2474 29.2552 24.1215 29.4791 23.8975C29.703 23.6735 29.8289 23.3699 29.8291 23.0532V12.4706C29.8291 12.1539 29.7032 11.8501 29.4793 11.6262C29.2553 11.4022 28.9515 11.2764 28.6348 11.2764H11.3651C11.0484 11.2764 10.7446 11.4022 10.5207 11.6262C10.2967 11.8501 10.1709 12.1539 10.1709 12.4706V23.0532C10.1709 23.21 10.2017 23.3653 10.2617 23.5103C10.3217 23.6552 10.4097 23.7869 10.5206 23.8978C10.6315 24.0087 10.7632 24.0967 10.9081 24.1567C11.053 24.2167 11.2083 24.2476 11.3651 24.2476ZM12.5594 13.6648H27.4406V21.8589H12.5594V13.6648ZM30.8778 25.4445H9.12185C8.97583 25.4445 8.83579 25.5025 8.73254 25.6058C8.62929 25.709 8.57129 25.8491 8.57129 25.9951V27.3283C8.57129 27.4675 8.62361 27.6007 8.71745 27.7024L9.49745 28.5468C9.54908 28.6024 9.61161 28.6467 9.68115 28.6771C9.75069 28.7074 9.82574 28.7231 9.90161 28.7232H30.0412C30.1881 28.7232 30.3287 28.6644 30.4327 28.5597L31.2691 27.7152C31.3709 27.6121 31.4282 27.473 31.4284 27.328V25.9951C31.4283 25.8491 31.3703 25.7091 31.2671 25.6059C31.1638 25.5026 31.0238 25.4446 30.8778 25.4445ZM22.0804 27.3571C22.0804 27.4243 22.036 27.4788 21.9808 27.4788H18.0189C17.9637 27.4788 17.9193 27.4243 17.9193 27.3571V26.8137C17.9193 26.7465 17.9637 26.6928 18.0189 26.6928H21.9808C22.036 26.6928 22.0804 26.7465 22.0804 26.8137V27.3571Z" fill="white"/>
<defs>
<linearGradient id="paint0_linear_1742_4082" x1="7.08333" y1="7.08333" x2="29.5833" y2="37.0833" gradientUnits="userSpaceOnUse">
<stop offset="0.0384615" stop-color="#51A1E2"/>
<stop offset="1" stop-color="#226399"/>
</linearGradient>
</defs>
</svg>
