<svg width="40" height="40" viewBox="0 0 40 40" fill="none" xmlns="http://www.w3.org/2000/svg">
<rect width="40" height="40" rx="6" fill="url(#paint0_linear_1742_4102)"/>
<path d="M28.68 15.0135C28.4579 14.5495 28.1451 14.1346 27.76 13.7935L24.76 11.0735C24.0997 10.4683 23.2613 10.0929 22.37 10.0035H16.21C15.5476 9.97542 14.8861 10.0794 14.2643 10.3093C13.6424 10.5392 13.0724 10.8905 12.5876 11.3428C12.1027 11.7951 11.7127 12.3393 11.4401 12.9437C11.1676 13.5481 11.018 14.2007 11 14.8635V25.1635C11.0354 26.163 11.3697 27.129 11.9598 27.9365C12.5498 28.7441 13.3685 29.3561 14.31 29.6935C14.9221 29.9262 15.5761 30.0284 16.23 29.9935H23.79C24.4524 30.0216 25.1139 29.9177 25.7357 29.6877C26.3576 29.4578 26.9276 29.1065 27.4124 28.6542C27.8973 28.2019 28.2873 27.6578 28.5599 27.0533C28.8324 26.4489 28.982 25.7963 29 25.1335V16.5635C29.0048 16.03 28.8957 15.5015 28.68 15.0135ZM15.68 14.6135H18.94C19.2052 14.6135 19.4596 14.7189 19.6471 14.9064C19.8346 15.0939 19.94 15.3483 19.94 15.6135C19.94 15.8787 19.8346 16.1331 19.6471 16.3206C19.4596 16.5082 19.2052 16.6135 18.94 16.6135H15.68C15.4148 16.6135 15.1604 16.5082 14.9729 16.3206C14.7854 16.1331 14.68 15.8787 14.68 15.6135C14.68 15.3483 14.7854 15.0939 14.9729 14.9064C15.1604 14.7189 15.4148 14.6135 15.68 14.6135ZM24.38 25.3235H15.68C15.4148 25.3235 15.1604 25.2182 14.9729 25.0306C14.7854 24.8431 14.68 24.5887 14.68 24.3235C14.68 24.0583 14.7854 23.8039 14.9729 23.6164C15.1604 23.4289 15.4148 23.3235 15.68 23.3235H24.38C24.6184 23.3575 24.8365 23.4763 24.9943 23.6582C25.1521 23.84 25.2389 24.0727 25.2389 24.3135C25.2389 24.5543 25.1521 24.787 24.9943 24.9689C24.8365 25.1507 24.6184 25.2695 24.38 25.3035V25.3235ZM24.38 20.9735H15.68C15.4148 20.9735 15.1604 20.8682 14.9729 20.6806C14.7854 20.4931 14.68 20.2387 14.68 19.9735C14.68 19.7083 14.7854 19.4539 14.9729 19.2664C15.1604 19.0789 15.4148 18.9735 15.68 18.9735H24.38C24.6452 18.9735 24.8996 19.0789 25.0871 19.2664C25.2746 19.4539 25.38 19.7083 25.38 19.9735C25.38 20.2387 25.2746 20.4931 25.0871 20.6806C24.8996 20.8682 24.6452 20.9735 24.38 20.9735ZM24.06 15.4035C23.9173 15.4048 23.7758 15.3779 23.6436 15.3242C23.5114 15.2705 23.3912 15.1912 23.2899 15.0907C23.1885 14.9903 23.1081 14.8708 23.0532 14.7391C22.9983 14.6074 22.97 14.4662 22.97 14.3235V11.6735C23.63 11.8335 26.2 14.4735 26.76 14.9135C26.9256 15.053 27.0674 15.2185 27.18 15.4035H24.06Z" fill="white"/>
<defs>
<linearGradient id="paint0_linear_1742_4102" x1="-3.75" y1="-5.83334" x2="42.5" y2="45" gradientUnits="userSpaceOnUse">
<stop offset="0.15024" stop-color="#F78D02"/>
<stop offset="1" stop-color="#915301"/>
</linearGradient>
</defs>
</svg>
