<svg width="40" height="40" viewBox="0 0 40 40" fill="none" xmlns="http://www.w3.org/2000/svg">
<rect width="40" height="40" rx="6" fill="url(#paint0_linear_1742_4088)"/>
<path d="M29.9199 14.62C29.8185 14.3757 29.6243 14.1815 29.3799 14.08C29.2597 14.0288 29.1306 14.0016 28.9999 14H23.9999C23.7347 14 23.4804 14.1054 23.2928 14.2929C23.1053 14.4804 22.9999 14.7348 22.9999 15C22.9999 15.2652 23.1053 15.5196 23.2928 15.7071C23.4804 15.8946 23.7347 16 23.9999 16H26.5899L20.9999 21.59L17.7099 18.29C17.617 18.1963 17.5064 18.1219 17.3845 18.0711C17.2627 18.0203 17.132 17.9942 16.9999 17.9942C16.8679 17.9942 16.7372 18.0203 16.6154 18.0711C16.4935 18.1219 16.3829 18.1963 16.2899 18.29L10.2899 24.29C10.1962 24.383 10.1218 24.4936 10.071 24.6154C10.0203 24.7373 9.99414 24.868 9.99414 25C9.99414 25.132 10.0203 25.2627 10.071 25.3846C10.1218 25.5064 10.1962 25.617 10.2899 25.71C10.3829 25.8037 10.4935 25.8781 10.6154 25.9289C10.7372 25.9797 10.8679 26.0058 10.9999 26.0058C11.132 26.0058 11.2627 25.9797 11.3845 25.9289C11.5064 25.8781 11.617 25.8037 11.7099 25.71L16.9999 20.41L20.2899 23.71C20.3829 23.8037 20.4935 23.8781 20.6154 23.9289C20.7372 23.9797 20.8679 24.0058 20.9999 24.0058C21.132 24.0058 21.2627 23.9797 21.3845 23.9289C21.5064 23.8781 21.617 23.8037 21.7099 23.71L27.9999 17.41V20C27.9999 20.2652 28.1053 20.5196 28.2928 20.7071C28.4804 20.8946 28.7347 21 28.9999 21C29.2652 21 29.5195 20.8946 29.707 20.7071C29.8946 20.5196 29.9999 20.2652 29.9999 20V15C29.9984 14.8693 29.9712 14.7402 29.9199 14.62Z" fill="white"/>
<defs>
<linearGradient id="paint0_linear_1742_4088" x1="1.16933e-07" y1="2.91667" x2="31.6667" y2="34.1667" gradientUnits="userSpaceOnUse">
<stop stop-color="#23C75F"/>
<stop offset="0.8949" stop-color="#11612F"/>
</linearGradient>
</defs>
</svg>
