<svg width="40" height="40" viewBox="0 0 40 40" fill="none" xmlns="http://www.w3.org/2000/svg">
<rect width="40" height="40" rx="6" fill="url(#paint0_linear_1742_4114)"/>
<path d="M18.997 25.499C18.997 24.209 19.372 23.009 20.019 21.998H14.25C13.6533 21.998 13.081 22.2351 12.659 22.657C12.2371 23.079 12 23.6513 12 24.248V25.168C12 25.74 12.178 26.298 12.51 26.764C13.913 28.732 16.127 29.798 19.09 29.974L19.612 28.261C19.2067 27.3967 18.9967 26.4537 18.997 25.499ZM19.998 10C21.3243 10 22.5964 10.5269 23.5342 11.4648C24.4721 12.4026 24.999 13.6747 24.999 15.001C24.999 16.3273 24.4721 17.5994 23.5342 18.5372C22.5964 19.4751 21.3243 20.002 19.998 20.002C18.6717 20.002 17.3996 19.4751 16.4618 18.5372C15.5239 17.5994 14.997 16.3273 14.997 15.001C14.997 13.6747 15.5239 12.4026 16.4618 11.4648C17.3996 10.5269 18.6717 10 19.998 10ZM31 25.499C31.0006 26.4568 30.7511 27.3981 30.2762 28.2298C29.8012 29.0615 29.1173 29.7548 28.2922 30.241C27.467 30.7272 26.5292 30.9895 25.5715 31.002C24.6139 31.0144 23.6695 30.7766 22.832 30.312L20.645 30.977C20.5583 31.0034 20.466 31.0058 20.3781 30.9838C20.2902 30.9618 20.2098 30.9163 20.1457 30.8523C20.0817 30.7882 20.0362 30.7078 20.0142 30.6199C19.9922 30.532 19.9946 30.4397 20.021 30.353L20.687 28.166C20.2802 27.4316 20.0468 26.6138 20.0049 25.7753C19.9629 24.9368 20.1134 24.0998 20.4449 23.3284C20.7764 22.557 21.2801 21.8718 21.9173 21.3251C22.5545 20.7785 23.3084 20.385 24.1212 20.1747C24.934 19.9644 25.7842 19.943 26.6066 20.112C27.429 20.2811 28.2017 20.6361 28.8657 21.1499C29.5297 21.6637 30.0672 22.3227 30.4372 23.0764C30.8071 23.8301 30.9996 24.6584 31 25.498M23.499 23.998C23.3664 23.998 23.2392 24.0507 23.1454 24.1444C23.0517 24.2382 22.999 24.3654 22.999 24.498C22.999 24.6306 23.0517 24.7578 23.1454 24.8516C23.2392 24.9453 23.3664 24.998 23.499 24.998H27.499C27.6316 24.998 27.7588 24.9453 27.8526 24.8516C27.9463 24.7578 27.999 24.6306 27.999 24.498C27.999 24.3654 27.9463 24.2382 27.8526 24.1444C27.7588 24.0507 27.6316 23.998 27.499 23.998H23.499ZM22.999 26.498C22.999 26.6306 23.0517 26.7578 23.1454 26.8516C23.2392 26.9453 23.3664 26.998 23.499 26.998H25.499C25.6316 26.998 25.7588 26.9453 25.8526 26.8516C25.9463 26.7578 25.999 26.6306 25.999 26.498C25.999 26.3654 25.9463 26.2382 25.8526 26.1444C25.7588 26.0507 25.6316 25.998 25.499 25.998H23.499C23.3664 25.998 23.2392 26.0507 23.1454 26.1444C23.0517 26.2382 22.999 26.3654 22.999 26.498Z" fill="white"/>
<defs>
<linearGradient id="paint0_linear_1742_4114" x1="2.08333" y1="3.75" x2="35.8333" y2="40" gradientUnits="userSpaceOnUse">
<stop stop-color="#C42F2F"/>
<stop offset="1" stop-color="#C04545"/>
</linearGradient>
</defs>
</svg>
