<svg width="40" height="40" viewBox="0 0 40 40" fill="none" xmlns="http://www.w3.org/2000/svg">
<rect width="40" height="40" rx="6" fill="url(#paint0_linear_1742_4094)"/>
<path fill-rule="evenodd" clip-rule="evenodd" d="M18 12C17.2044 12 16.4413 12.3161 15.8787 12.8787C15.3161 13.4413 15 14.2044 15 15H12C11.4696 15 10.9609 15.2107 10.5858 15.5858C10.2107 15.9609 10 16.4696 10 17V27C10 27.5304 10.2107 28.0391 10.5858 28.4142C10.9609 28.7893 11.4696 29 12 29H28C28.5304 29 29.0391 28.7893 29.4142 28.4142C29.7893 28.0391 30 27.5304 30 27V17C30 16.4696 29.7893 15.9609 29.4142 15.5858C29.0391 15.2107 28.5304 15 28 15H25C25 14.2044 24.6839 13.4413 24.1213 12.8787C23.5587 12.3161 22.7956 12 22 12H18ZM18 14C17.7348 14 17.4804 14.1054 17.2929 14.2929C17.1054 14.4804 17 14.7348 17 15H23C23 14.7348 22.8946 14.4804 22.7071 14.2929C22.5196 14.1054 22.2652 14 22 14H18ZM12 21C11.7348 21 11.4804 21.1054 11.2929 21.2929C11.1054 21.4804 11 21.7348 11 22C11 22.2652 11.1054 22.5196 11.2929 22.7071C11.4804 22.8946 11.7348 23 12 23H28C28.2652 23 28.5196 22.8946 28.7071 22.7071C28.8946 22.5196 29 22.2652 29 22C29 21.7348 28.8946 21.4804 28.7071 21.2929C28.5196 21.1054 28.2652 21 28 21H12Z" fill="white"/>
<defs>
<linearGradient id="paint0_linear_1742_4094" x1="3.75" y1="4.16667" x2="46.6667" y2="49.1667" gradientUnits="userSpaceOnUse">
<stop stop-color="#7059D7"/>
<stop offset="1" stop-color="#3B2F71"/>
</linearGradient>
</defs>
</svg>
