<svg width="40" height="40" viewBox="0 0 40 40" fill="none" xmlns="http://www.w3.org/2000/svg">
<rect width="40" height="40" rx="6" fill="url(#paint0_linear_1742_4108)"/>
<path fill-rule="evenodd" clip-rule="evenodd" d="M24.165 10.199C24.3185 10.2695 24.4595 10.3605 24.583 10.4675C23.9661 10.7685 23.3444 11.0593 22.718 11.34C22.1572 11.593 21.588 11.8272 21.0115 12.042C20.752 12.136 20.524 12.2105 20.3375 12.26C20.1375 12.313 20.0325 12.325 20 12.325C19.9675 12.325 19.8625 12.313 19.663 12.26C19.476 12.21 19.248 12.136 18.9885 12.042C18.4121 11.8271 17.8432 11.593 17.2825 11.34C16.6558 11.0601 16.034 10.7693 15.4175 10.4675C15.541 10.3605 15.6815 10.2695 15.8355 10.199C16.9435 9.6895 18.8895 8.875 20 8.875C21.11 8.875 23.0565 9.69 24.165 10.199ZM20.75 19.287V13.702C21.0111 13.6292 21.2692 13.5458 21.5235 13.452C22.133 13.2251 22.7347 12.9778 23.3275 12.7105C23.9448 12.4349 24.5574 12.1488 25.165 11.8525C25.2115 12.4075 25.25 13.1585 25.25 14.125C25.25 15.304 25.193 16.1615 25.1335 16.735C25.0725 17.32 24.6985 17.8055 24.1645 18.051C23.277 18.459 21.8525 19.0625 20.75 19.287ZM15.835 18.051C15.3015 17.806 14.9275 17.3195 14.8665 16.735C14.807 16.1615 14.75 15.304 14.75 14.125C14.75 13.158 14.7885 12.408 14.835 11.8525C15.4427 12.1484 16.0553 12.4343 16.6725 12.71C17.2653 12.9775 17.867 13.225 18.4765 13.452C18.7485 13.5505 19.0115 13.6375 19.25 13.702V19.287C18.1475 19.0625 16.723 18.459 15.835 18.051ZM18.165 20.824C18.3185 20.8945 18.4595 20.9855 18.583 21.093C17.9662 21.3939 17.3444 21.6846 16.718 21.965C16.1572 22.218 15.588 22.4522 15.0115 22.667C14.752 22.761 14.524 22.8355 14.3375 22.885C14.1375 22.938 14.0325 22.95 14 22.95C13.9675 22.95 13.8625 22.938 13.663 22.885C13.476 22.835 13.248 22.761 12.9885 22.667C12.4121 22.4521 11.8432 22.218 11.2825 21.965C10.6558 21.6853 10.034 21.3946 9.4175 21.093C9.5415 20.985 9.68083 20.8953 9.8355 20.824C10.9435 20.3145 12.8895 19.5 14 19.5C15.11 19.5 17.0565 20.315 18.165 20.824ZM14.75 29.912V24.327C15.0111 24.2542 15.2692 24.1708 15.5235 24.077C16.133 23.85 16.7347 23.6025 17.3275 23.335C17.9448 23.0595 18.5574 22.7737 19.165 22.4775C19.2115 23.0325 19.25 23.783 19.25 24.75C19.25 25.929 19.193 26.7865 19.1335 27.36C19.0725 27.945 18.6985 28.4305 18.165 28.676C17.277 29.084 15.8525 29.6875 14.75 29.912ZM9.835 28.676C9.3015 28.431 8.9275 27.9445 8.8665 27.36C8.807 26.7865 8.75 25.929 8.75 24.75C8.75 23.7835 8.7885 23.033 8.835 22.4775C9.4427 22.7737 10.0553 23.0597 10.6725 23.3355C11.2653 23.6028 11.867 23.8501 12.4765 24.077C12.7485 24.1755 13.0115 24.2625 13.25 24.327V29.912C12.1475 29.6875 10.723 29.084 9.835 28.676ZM30.583 21.093C30.4572 20.9839 30.3164 20.8933 30.165 20.824C29.0565 20.3145 27.11 19.5 26 19.5C24.89 19.5 22.9435 20.315 21.835 20.824C21.6836 20.8933 21.5428 20.9839 21.417 21.093C22.0338 21.3939 22.6556 21.6846 23.282 21.965C23.8428 22.218 24.412 22.4522 24.9885 22.667C25.248 22.761 25.476 22.8355 25.6625 22.885C25.8625 22.938 25.9675 22.95 26 22.95C26.0325 22.95 26.1375 22.938 26.3375 22.885C26.524 22.835 26.7525 22.761 27.0115 22.667C27.5879 22.4521 28.1568 22.218 28.7175 21.965C29.3442 21.6853 29.9665 21.3946 30.583 21.093ZM26.75 24.3265V29.9115C27.8525 29.687 29.277 29.0835 30.165 28.6755C30.6985 28.4305 31.0725 27.944 31.1335 27.3595C31.193 26.786 31.25 25.9285 31.25 24.7495C31.253 23.9912 31.2247 23.233 31.165 22.477C30.5574 22.7734 29.9448 23.0595 29.3275 23.335C28.7347 23.6023 28.133 23.8496 27.5235 24.0765C27.2515 24.175 26.9885 24.2625 26.75 24.3265ZM20.8665 27.36C20.9275 27.945 21.3015 28.4305 21.835 28.676C22.723 29.084 24.1475 29.6875 25.25 29.912V24.327C24.9889 24.2542 24.7308 24.1708 24.4765 24.077C23.867 23.85 23.2653 23.6025 22.6725 23.335C22.0552 23.0595 21.4426 22.7737 20.835 22.4775C20.7753 23.2335 20.747 23.9917 20.75 24.75C20.75 25.929 20.807 26.7865 20.8665 27.36Z" fill="white"/>
<defs>
<linearGradient id="paint0_linear_1742_4108" x1="2.08333" y1="2.5" x2="35" y2="37.5" gradientUnits="userSpaceOnUse">
<stop stop-color="#E750E5"/>
<stop offset="1" stop-color="#812C80"/>
</linearGradient>
</defs>
</svg>
