<svg width="104" height="42" viewBox="0 0 104 42" fill="none" xmlns="http://www.w3.org/2000/svg">
<path fill-rule="evenodd" clip-rule="evenodd" d="M0.899245 4.83375L0.898438 4.78497V0.880306H4.79485V29.5192L4.79646 29.6085V33.4727H0.898438V29.568L0.899245 29.5192V4.83375Z" fill="#005CA9"/>
<path fill-rule="evenodd" clip-rule="evenodd" d="M40.517 21.6027C40.617 27.5263 44.2819 32.2635 48.7033 32.1841C53.1238 32.1047 56.6258 27.2386 56.5258 21.315C56.4249 15.3906 52.7601 10.6535 48.3387 10.7336C43.9181 10.813 40.4161 15.6792 40.517 21.6027ZM72.7786 14.4407C72.8803 14.6664 72.6389 14.1034 72.6389 14.1034L72.7786 14.4407ZM75.4341 38.9642C75.6127 38.6583 75.8615 38.1903 76.1575 37.6058L75.4341 38.9642ZM75.6631 12.397C75.7102 12.5285 75.7648 12.6657 75.826 12.8104L77.138 16.0421L75.6631 12.397ZM59.3367 28.6655C61.745 30.8646 63.9135 32.0014 66.6864 32.0014C69.5246 32.0229 72.0478 30.6265 72.0478 27.9388C72.0478 25.6959 70.071 24.3839 66.5392 22.8817C63.5464 21.5788 61.3192 20.6652 60.1552 18.7794C60.2974 19.5987 60.3718 20.4453 60.3718 21.3117C60.3718 28.5862 55.127 34.4841 48.6569 34.4841C42.1869 34.4841 36.9421 28.5862 36.9421 21.3117C36.9421 16.9259 38.8486 13.0411 41.7794 10.6468H33.8518V29.5187L33.8526 29.5939V33.4722H30.3316V29.7204C30.3341 29.6543 30.3349 29.5873 30.3349 29.5187V10.6468H27.2305V8.27163H30.3803C30.7871 3.47988 33.7377 0.76984 37.8226 0.76984C40.4715 0.76984 41.9257 1.04763 42.7657 1.43867V4.68692C42.7524 4.92915 42.7524 5.07713 42.7524 5.07713C42.7161 5.073 42.6293 5.07134 42.6293 5.07134C41.3544 3.88829 40.0969 3.00781 37.1596 3.01112C34.8199 3.01112 33.2723 4.92336 33.813 8.27163H46.9911C47.5359 8.18483 48.0915 8.13935 48.6569 8.13935C53.3503 8.13935 57.3997 11.2429 59.269 15.7255C59.2516 15.4766 59.2433 15.217 59.2433 14.9459C59.2433 10.269 63.7432 8.2799 68.4176 8.28983C68.5962 8.289 68.7714 8.28982 68.9434 8.29395C70.5886 8.26749 72.9324 8.80736 74.3635 9.18601L77.138 16.0421L81.103 25.7711L81.5684 27.3336L82.0868 25.7711L87.101 13.2833C88.0261 9.84491 91.6877 8.35678 95.7321 8.36505C97.7427 8.35595 99.2275 8.59985 101.008 9.22982V13.0063C98.8158 11.4033 97.2458 10.4716 94.7581 10.4716C92.5714 10.4716 89.9433 11.4455 89.9433 14.683C89.9011 17.116 91.352 17.5608 95.6097 19.6864C99.1093 21.215 102.338 22.9024 102.357 26.8103C102.357 33.3258 95.9759 34.4543 92.8699 34.4642C90.097 34.4642 87.5556 33.7756 86.1419 32.5925V28.291L86.3693 28.4803C88.8917 30.8498 91.1206 32.0775 94.0009 32.0775C96.8399 32.099 99.3623 30.7018 99.3623 28.0141C99.3623 25.7711 97.3855 24.4591 93.8537 22.9569C90.4781 21.487 88.2633 20.5131 87.3581 18.0784C85.9815 21.4556 79.5785 37.1429 78.0714 40.4961H74.6189L76.1814 37.5612C77.047 35.8465 78.3061 33.1563 79.4247 30.5827L72.7786 14.4407C72.7339 14.3424 72.6248 14.0943 72.4025 13.5859C71.8924 12.4169 71.4178 11.3372 69.9826 10.7932C69.2137 10.5328 68.3953 10.3963 67.4437 10.3963C65.257 10.3963 62.4601 11.3702 62.4601 14.6077C62.418 17.0408 64.0367 17.4856 68.2952 19.6103C71.7948 21.1398 75.0232 22.8271 75.0422 26.7351C75.0422 33.2506 68.6606 34.3783 65.5546 34.389C63.0893 34.389 60.8058 33.8442 59.3367 32.8918V28.6655Z" fill="#005CA9"/>
<path fill-rule="evenodd" clip-rule="evenodd" d="M12.065 8.5158L12.108 11.3664L12.1055 11.5582L12.1435 11.5573C12.189 11.4383 12.2502 11.3374 12.308 11.2622C13.7391 9.71869 15.5431 8.1851 19.8305 8.1851C23.9344 8.1851 26.5907 11.6929 26.6973 13.9011L26.7015 29.5198V29.5975V33.4733H23.1846V28.8163L23.1837 15.5199C23.1837 12.7669 20.7821 10.7761 17.8422 10.7761C15.3984 10.7761 12.2617 12.9884 12.1576 15.2281V29.524L12.1592 29.6289V33.4766H8.64062V11.7979L8.64148 8.5158H12.065Z" fill="#005CA9"/>
</svg>
