<svg width="74" height="61" viewBox="0 0 74 61" fill="none" xmlns="http://www.w3.org/2000/svg">
<path d="M43.3663 9.4376H43.2808V6.77222C43.2808 5.60997 42.338 4.66797 41.1765 4.66797H40.8258C39.6628 4.66797 38.7215 5.60997 38.7215 6.77222V9.4376H32.4963V6.77222C32.4963 5.60997 31.5536 4.66797 30.3921 4.66797H30.0413C28.8784 4.66797 27.9371 5.60997 27.9371 6.77222V9.4376H21.7119V6.77222C21.7119 5.60997 20.7692 4.66797 19.6076 4.66797H19.2569C18.0939 4.66797 17.1526 5.60997 17.1526 6.77222V9.4376H10.9275V6.77222C10.9275 5.60997 9.98476 4.66797 8.8232 4.66797H8.47248C7.30952 4.66797 6.3682 5.60997 6.3682 6.77222V9.4376H6.27492C2.86599 9.4376 0.109375 12.1949 0.109375 15.6031V24.483V52.694C0.109375 56.1029 2.86599 58.8665 6.27492 58.8665H43.3663C46.7753 58.8665 49.5389 56.1036 49.5389 52.694V24.483V15.6031C49.5389 12.1942 46.7753 9.4376 43.3663 9.4376Z" fill="#F29B30"/>
<path d="M67.7962 29.4355H62.3005H44.4008H38.9107C38.1721 29.4355 37.5703 30.0374 37.5703 30.7753V59.661C37.5703 60.3989 38.1721 61.0007 38.9107 61.0007H67.7962C68.5341 61.0007 69.1366 60.3989 69.1366 59.661V30.7753C69.1366 30.0374 68.5341 29.4355 67.7962 29.4355Z" fill="#F29B30"/>
<path d="M54.9373 20.8164V49.0274C54.9373 52.4363 52.1744 55.1999 48.7648 55.1999H11.6734C8.26442 55.1999 5.50781 52.437 5.50781 49.0274V20.8164H54.9373Z" fill="white"/>
<path d="M54.9373 11.937V20.8169H5.50781V11.937C5.50781 8.52876 8.26442 5.77148 11.6734 5.77148H48.7648C52.1744 5.77148 54.9373 8.52876 54.9373 11.937Z" fill="#CF386A"/>
<path d="M54.9373 20.8169V49.0279C54.9373 52.4368 52.1744 55.2004 48.7648 55.2004H11.6734C8.26442 55.2004 5.50781 52.4375 5.50781 49.0279V20.8169V11.937C5.50781 8.52876 8.26442 5.77148 11.6734 5.77148H48.7648C52.1737 5.77148 54.9373 8.52876 54.9373 11.937V20.8169Z" stroke="#402318" stroke-width="2" stroke-miterlimit="10" strokeLinecap="round" strokeLinejoin="round"/>
<path d="M5.50781 20.8164H54.9366" stroke="#402318" stroke-width="2" stroke-miterlimit="10" strokeLinecap="round" strokeLinejoin="round"/>
<path d="M16.3171 8.01418C16.3171 9.17643 15.3744 10.1184 14.2128 10.1184H13.8621C12.6991 10.1184 11.7578 9.17643 11.7578 8.01418V3.10425C11.7578 1.942 12.6991 1 13.8621 1H14.2128C15.3744 1 16.3171 1.942 16.3171 3.10425V8.01418Z" fill="#45484D" stroke="#402318" stroke-width="2" stroke-miterlimit="10" strokeLinecap="round" strokeLinejoin="round"/>
<path d="M27.0983 8.01418C27.0983 9.17643 26.1556 10.1184 24.9941 10.1184H24.6433C23.4804 10.1184 22.5391 9.17643 22.5391 8.01418V3.10425C22.5391 1.942 23.4804 1 24.6433 1H24.9941C26.1556 1 27.0983 1.942 27.0983 3.10425V8.01418Z" fill="#45484D" stroke="#402318" stroke-width="2" stroke-miterlimit="10" strokeLinecap="round" strokeLinejoin="round"/>
<path d="M37.8874 8.01418C37.8874 9.17643 36.9447 10.1184 35.7831 10.1184H35.4324C34.2694 10.1184 33.3281 9.17643 33.3281 8.01418V3.10425C33.3281 1.942 34.2694 1 35.4324 1H35.7831C36.9447 1 37.8874 1.942 37.8874 3.10425V8.01418Z" fill="#45484D" stroke="#402318" stroke-width="2" stroke-miterlimit="10" strokeLinecap="round" strokeLinejoin="round"/>
<path d="M48.6686 8.01418C48.6686 9.17643 47.7259 10.1184 46.5644 10.1184H46.2137C45.0507 10.1184 44.1094 9.17643 44.1094 8.01418V3.10425C44.1094 1.942 45.0507 1 46.2137 1H46.5644C47.7259 1 48.6686 1.942 48.6686 3.10425V8.01418Z" fill="#45484D" stroke="#402318" stroke-width="2" stroke-miterlimit="10" strokeLinecap="round" strokeLinejoin="round"/>
<path d="M12.4375 27.6895H16.712" stroke="#402318" stroke-width="2" stroke-miterlimit="10" strokeLinecap="round" strokeLinejoin="round"/>
<path d="M12.4375 34.5684H16.712" stroke="#402318" stroke-width="2" stroke-miterlimit="10" strokeLinecap="round" strokeLinejoin="round"/>
<path d="M12.4375 41.4453H16.712" stroke="#402318" stroke-width="2" stroke-miterlimit="10" strokeLinecap="round" strokeLinejoin="round"/>
<path d="M12.4375 48.3223H16.712" stroke="#402318" stroke-width="2" stroke-miterlimit="10" strokeLinecap="round" strokeLinejoin="round"/>
<path d="M22.8672 27.6895H27.1417" stroke="#402318" stroke-width="2" stroke-miterlimit="10" strokeLinecap="round" strokeLinejoin="round"/>
<path d="M22.8672 34.5684H27.1417" stroke="#402318" stroke-width="2" stroke-miterlimit="10" strokeLinecap="round" strokeLinejoin="round"/>
<path d="M22.8672 41.4453H27.1417" stroke="#402318" stroke-width="2" stroke-miterlimit="10" strokeLinecap="round" strokeLinejoin="round"/>
<path d="M22.8672 48.3223H27.1417" stroke="#402318" stroke-width="2" stroke-miterlimit="10" strokeLinecap="round" strokeLinejoin="round"/>
<path d="M33.2969 27.6895H37.5714" stroke="#402318" stroke-width="2" stroke-miterlimit="10" strokeLinecap="round" strokeLinejoin="round"/>
<path d="M33.2969 34.5684H37.5714" stroke="#402318" stroke-width="2" stroke-miterlimit="10" strokeLinecap="round" strokeLinejoin="round"/>
<path d="M33.2969 41.4453H37.5714" stroke="#402318" stroke-width="2" stroke-miterlimit="10" strokeLinecap="round" strokeLinejoin="round"/>
<path d="M33.2969 48.3223H37.5714" stroke="#402318" stroke-width="2" stroke-miterlimit="10" strokeLinecap="round" strokeLinejoin="round"/>
<path d="M43.7266 27.6895H48.0018" stroke="#402318" stroke-width="2" stroke-miterlimit="10" strokeLinecap="round" strokeLinejoin="round"/>
<path d="M43.7266 34.5684H48.0018" stroke="#402318" stroke-width="2" stroke-miterlimit="10" strokeLinecap="round" strokeLinejoin="round"/>
<path d="M43.7266 41.4453H48.0018" stroke="#402318" stroke-width="2" stroke-miterlimit="10" strokeLinecap="round" strokeLinejoin="round"/>
<path d="M43.7266 48.3223H48.0018" stroke="#402318" stroke-width="2" stroke-miterlimit="10" strokeLinecap="round" strokeLinejoin="round"/>
<path d="M66.0481 23.3711V25.3428H48.1484V23.3711C48.1484 21.9592 49.2995 20.8145 50.71 20.8145H63.4914C64.902 20.8145 66.0481 21.9592 66.0481 23.3711Z" fill="#45484D"/>
<path d="M57.104 28.4707C64.0937 28.4707 69.7606 34.1318 69.7606 41.1208C69.7606 48.1111 64.0937 53.7779 57.104 53.7779C50.1143 53.7779 44.4531 48.1111 44.4531 41.1208C44.4531 34.1325 50.1143 28.4707 57.104 28.4707Z" fill="white"/>
<path d="M72.8866 26.6815V55.5673C72.8866 56.3052 72.2841 56.907 71.5462 56.907H42.6607C41.9221 56.907 41.3203 56.3052 41.3203 55.5673V26.6815C41.3203 25.9436 41.9221 25.3418 42.6607 25.3418H48.1508H66.0505H71.5462C72.2841 25.3411 72.8866 25.9436 72.8866 26.6815ZM69.7568 41.1209C69.7568 34.132 64.09 28.4708 57.1003 28.4708C50.1106 28.4708 44.4494 34.132 44.4494 41.1209C44.4494 48.1112 50.1106 53.778 57.1003 53.778C64.09 53.7773 69.7568 48.1105 69.7568 41.1209Z" fill="#64C753"/>
<path d="M66.0505 25.3398H71.5462C72.2841 25.3398 72.8866 25.9417 72.8866 26.6796V55.5653C72.8866 56.3032 72.2841 56.905 71.5462 56.905H42.6607C41.9221 56.905 41.3203 56.3032 41.3203 55.5653V26.6796C41.3203 25.9417 41.9221 25.3398 42.6607 25.3398H48.1508H66.0505Z" stroke="#402318" stroke-width="2" stroke-miterlimit="10" strokeLinecap="round" strokeLinejoin="round"/>
<path d="M69.7606 41.1208C69.7606 48.1111 64.0937 53.7779 57.104 53.7779C50.1143 53.7779 44.4531 48.1111 44.4531 41.1208C44.4531 34.1318 50.1143 28.4707 57.104 28.4707C64.0937 28.47 69.7606 34.1318 69.7606 41.1208Z" stroke="#402318" stroke-width="2" stroke-miterlimit="10" strokeLinecap="round" strokeLinejoin="round"/>
<path d="M57.1016 30.6426V31.7649" stroke="#402318" stroke-width="2" stroke-miterlimit="10" strokeLinecap="round" strokeLinejoin="round"/>
<path d="M46.625 41.1211H47.7459" stroke="#402318" stroke-width="2" stroke-miterlimit="10" strokeLinecap="round" strokeLinejoin="round"/>
<path d="M57.1016 51.5984V50.4824" stroke="#402318" stroke-width="2" stroke-miterlimit="10" strokeLinecap="round" strokeLinejoin="round"/>
<path d="M67.5769 41.1211H66.4609" stroke="#402318" stroke-width="2" stroke-miterlimit="10" strokeLinecap="round" strokeLinejoin="round"/>
<path d="M57.1016 34.8281V41.1205L59.5215 43.5411" stroke="#402318" stroke-width="2" stroke-miterlimit="10" strokeLinecap="round" strokeLinejoin="round"/>
<path d="M48.1484 25.3408V23.3692C48.1484 21.9572 49.2995 20.8125 50.71 20.8125H63.4914C64.902 20.8125 66.0481 21.9572 66.0481 23.3692V25.3408" stroke="#402318" stroke-width="2" stroke-miterlimit="10" strokeLinecap="round" strokeLinejoin="round"/>
</svg>
