<svg width="68" height="60" viewBox="0 0 68 60" fill="none" xmlns="http://www.w3.org/2000/svg">
<path d="M12.7969 14.2542C12.7969 22.1136 19.1918 28.5082 27.049 28.5082C34.9084 28.5082 41.3033 22.1135 41.3033 14.2542C41.3033 6.39271 34.9084 1.20765e-09 27.049 1.20765e-09C19.1918 -0.000101458 12.7969 6.39271 12.7969 14.2542ZM38.1611 14.2542C38.1611 20.3065 33.2537 25.2138 27.2016 25.2138C21.1487 25.2138 16.2434 20.3065 16.2434 14.2542C16.2434 8.20172 21.1487 3.29436 27.2016 3.29436C33.2537 3.29426 38.1611 8.20172 38.1611 14.2542Z" fill="white"/>
<path d="M26.8123 22.6142H28.0685C28.4467 22.6142 28.7504 22.3094 28.7504 21.9315V20.7657C29.7549 20.6154 30.6306 20.3014 31.374 19.8143C32.5433 19.0416 33.1428 17.9775 33.1689 16.618C33.1863 15.7701 32.9513 15.048 32.4623 14.4576C31.6704 13.512 30.4317 12.9198 28.7504 12.6847V10.3229C29.0483 10.462 29.3332 10.6483 29.6067 10.8851C29.7759 11.0261 29.9711 11.0976 30.1932 11.0976C30.3732 11.0994 30.6221 10.9736 30.6221 10.9736L30.6257 10.9714L32.0322 10.0899C32.2239 9.96778 32.3215 9.81336 32.3252 9.62536C32.3273 9.47307 32.2651 9.34148 32.1408 9.22693C31.265 8.2304 30.1332 7.61171 28.7506 7.37084V6.04173C28.7506 5.6639 28.4469 5.35547 28.0687 5.35547H26.8125C26.4351 5.35547 26.1285 5.6639 26.1285 6.04173V7.33554C25.4791 7.42563 24.8933 7.59121 24.3697 7.82984C22.6833 8.59707 21.8559 9.74944 21.885 11.2746C21.898 12.0245 22.1236 12.6901 22.5597 13.2676C23.2929 14.2509 24.4826 14.8676 26.1285 15.1215V18.0695C25.4177 17.8178 24.7458 17.3513 24.1123 16.6651C23.9735 16.4847 23.7889 16.3943 23.5583 16.3943C23.4318 16.3943 23.1837 16.5035 23.1837 16.5035L23.1801 16.5054L21.8994 17.2557C21.681 17.3815 21.5739 17.5507 21.5783 17.7575C21.5819 17.893 21.6303 18.0132 21.7286 18.1223C22.0613 18.5866 22.5081 19.0324 23.0672 19.4572C23.9733 20.1529 24.9945 20.5872 26.1284 20.7677V21.9315C26.1283 22.3094 26.4349 22.6142 26.8123 22.6142ZM28.7505 15.4372C29.4295 15.6498 29.7715 16.0447 29.768 16.6257C29.7629 17.1652 29.5163 17.5829 29.0274 17.8797C28.9407 17.9343 28.8466 17.9813 28.7505 18.0247V15.4372ZM25.301 11.2819C25.2988 10.8588 25.5411 10.5298 26.0321 10.2969L26.1283 10.2593V12.3518C25.5809 12.1413 25.3046 11.7859 25.301 11.2819Z" fill="white"/>
<path d="M25.2969 11.2804C25.3005 11.7844 25.5768 12.1399 26.1242 12.3503V10.2578L26.028 10.2955C25.537 10.5283 25.2948 10.8573 25.2969 11.2804Z" fill="#FF9200"/>
<path d="M28.75 18.025C28.8462 17.9816 28.9402 17.9346 29.027 17.88C29.5158 17.5831 29.7624 17.1654 29.7675 16.626C29.7711 16.0449 29.4291 15.6501 28.75 15.4375V18.025Z" fill="#FF9200"/>
<path d="M16.2422 14.2548C16.2422 20.307 21.1475 25.2144 27.2003 25.2144C33.2524 25.2144 38.1599 20.307 38.1599 14.2548C38.1599 8.20228 33.2524 3.29492 27.2003 3.29492C21.1475 3.29482 16.2422 8.20228 16.2422 14.2548ZM28.7508 6.04182V7.37092C30.1335 7.61179 31.2653 8.23048 32.1411 9.22701C32.2653 9.34166 32.3276 9.47325 32.3254 9.62544C32.3218 9.81344 32.2242 9.96786 32.0325 10.09L30.626 10.9715L30.6223 10.9737C30.6223 10.9737 30.3736 11.0995 30.1935 11.0977C29.9715 11.0977 29.7762 11.0262 29.6069 10.8851C29.3335 10.6483 29.0486 10.4621 28.7506 10.323V12.6848C30.432 12.9199 31.6708 13.5121 32.4626 14.4577C32.9515 15.0481 33.1865 15.7702 33.1691 16.6181C33.1432 17.9776 32.5436 19.0418 31.3742 19.8144C30.6308 20.3015 29.7551 20.6153 28.7506 20.7658V21.9316C28.7506 22.3095 28.447 22.6143 28.0687 22.6143H26.8126C26.4351 22.6143 26.1285 22.3095 26.1285 21.9316V20.7677C24.9946 20.5872 23.9735 20.153 23.0673 19.4573C22.5083 19.0325 22.0613 18.5866 21.7288 18.1224C21.6305 18.0131 21.582 17.8931 21.5784 17.7576C21.574 17.5507 21.6811 17.3816 21.8995 17.2557L23.1802 16.5055L23.1839 16.5036C23.1839 16.5036 23.4318 16.3944 23.5585 16.3944C23.7891 16.3944 23.9736 16.4848 24.1124 16.6651C24.7458 17.3514 25.4178 17.8179 26.1286 18.0695V15.1216C24.4828 14.8678 23.2931 14.2509 22.5598 13.2677C22.1237 12.6902 21.8981 12.0246 21.8851 11.2747C21.8562 9.74942 22.6835 8.59715 24.3698 7.82992C24.8935 7.59129 25.4792 7.42571 26.1286 7.33562V6.04182C26.1286 5.66398 26.4352 5.35555 26.8127 5.35555H28.0688C28.4472 5.35555 28.7508 5.66398 28.7508 6.04182Z" fill="#FF9200"/>
<path d="M46.498 29.9844C50.282 29.9844 52.9836 31.3046 55.4082 32.9355L55.8896 33.2656C59.2455 35.6079 62.2885 38.583 67.0371 38.7871V48.1475L67.0498 49.1904L67.0371 49.1924V50.2559C65.3422 50.3495 62.9922 50.871 61.2676 51.3037L61.2412 51.3105L61.2148 51.3203C61.0415 51.3847 60.8763 51.445 60.7012 51.5088C56.9555 52.4328 51.0967 53.9089 45.2061 55.3994L29.4941 59.3877L29.4902 59.3887L29.3945 59.4131C29.1114 59.4684 28.8203 59.5 28.5225 59.5C28.016 59.4999 27.5315 59.3975 27.0547 59.2324H27.0537C26.9803 59.2032 26.9079 59.1744 26.8369 59.1475L4.04688 42.627H4.04785L3.04297 41.8955L3.01074 41.8721L2.97559 41.8545L2.73047 41.7168C2.50174 41.5755 2.28933 41.4061 2.09277 41.2178L2.04883 41.1748C1.36837 40.5047 0.945312 39.5885 0.945312 38.5654C0.945472 36.6296 2.43686 35.0539 4.33887 34.8896L4.36914 34.8867L4.39844 34.8809C4.60875 34.837 4.82868 34.8145 5.05664 34.8145C5.13687 34.8145 5.21784 34.8181 5.2998 34.8252L5.55078 34.8555H5.55176C5.63123 34.8673 5.70801 34.8815 5.78223 34.8975L5.99805 34.9531C6.08516 34.9793 6.17195 35.0113 6.25879 35.0479L6.52148 35.1709L6.5293 35.1748C6.65715 35.2378 6.76789 35.2985 6.86719 35.3652L6.93164 35.4082L9.49609 37.2617L9.50586 37.2695L9.5166 37.2764L24.0957 46.7275L24.166 46.7734L24.2471 46.7939C24.7382 46.9155 25.272 46.9369 25.8252 46.9072L25.8691 46.9053L25.9121 46.8945C26.3139 46.8004 27.6118 46.4652 29.3164 46.0186L35.1621 44.4775L35.1631 44.4766L35.3965 44.415L35.4053 44.4121C36.484 44.1019 37.6339 43.7933 38.8438 43.502V43.5029L38.8545 43.5C40.7461 43 42.1606 42.6235 42.457 42.5439L42.5156 42.5283L42.5684 42.499C43.93 41.7487 44.8643 40.3111 44.8643 38.6367C44.8641 36.4333 43.2562 34.6141 41.1514 34.2686L41.1104 34.2617H31.8135C30.6471 34.2617 29.7013 33.3178 29.7012 32.1523C29.7012 30.9867 30.6474 30.041 31.8135 30.041H41.6875C43.033 30.0014 44.6217 29.9844 46.498 29.9844Z" fill="#0076BE" stroke="white"/>
</svg>
