<svg width="52" height="60" viewBox="0 0 52 60" fill="none" xmlns="http://www.w3.org/2000/svg">
<path d="M21.4072 0.729492C21.7181 0.499923 22.122 0.439829 22.4814 0.561523L22.6328 0.625V0.625977C23.0266 0.824601 23.2783 1.23181 23.2783 1.67383V8.2207H50.0439C50.353 8.2207 50.6566 8.34611 50.875 8.56445C51.093 8.78244 51.2187 9.0861 51.2188 9.39453V23.627C51.2187 23.8973 51.1222 24.1637 50.9521 24.3721L50.875 24.457C50.6563 24.6751 50.3529 24.8017 50.0439 24.8018H44.25L44.3496 25.3857C44.5144 26.3521 44.6045 27.3417 44.6045 28.3516C44.6045 31.5094 43.7643 34.4724 42.3027 37.0381L42.083 37.4229L42.4395 37.6875L48.8135 42.4199C49.098 42.6313 49.2786 42.9467 49.3184 43.292L49.3262 43.4414V43.4434C49.326 43.8456 49.1355 44.2221 48.8115 44.4619L28.7656 59.2529C28.4286 59.5007 27.9918 59.5644 27.6035 59.4326L27.4404 59.3643L27.4385 59.3633L27.2861 59.2734C26.9492 59.039 26.7412 58.648 26.7412 58.2305V51.7793H2.05859C1.7672 51.7793 1.47889 51.6751 1.25293 51.4912L1.16016 51.4072C0.924487 51.1705 0.789062 50.8424 0.789062 50.5078V36.2773C0.789062 35.9846 0.893058 35.6959 1.07715 35.4707L1.16016 35.3789C1.39661 35.1427 1.72549 35.0068 2.05859 35.0068H10.6777L10.4346 34.3359C9.75663 32.467 9.38478 30.4523 9.38477 28.3516C9.38477 26.8972 9.56634 25.4845 9.90039 24.1309L9.97949 23.8076L9.71289 23.6094L1.36035 17.4072H1.35938C1.05976 17.1851 0.884766 16.8356 0.884766 16.4619C0.884843 16.1364 1.02006 15.8286 1.25488 15.6084L1.36133 15.5195L21.4072 0.729492ZM26.9951 11.6572C17.7909 11.6572 10.3027 19.1443 10.3027 28.3516C10.3029 37.5558 17.7909 45.0439 26.9951 45.0439C36.1996 45.0437 43.6864 37.5557 43.6865 28.3516C43.6865 19.1444 36.1997 11.6575 26.9951 11.6572Z" fill="#0076BE" stroke="white"/>
<path d="M10.8047 28.352C10.8047 37.2803 18.0683 44.5449 26.9964 44.5449C35.925 44.5449 43.1886 37.2803 43.1886 28.352C43.1886 19.4209 35.925 12.1582 26.9964 12.1582C18.0683 12.1583 10.8047 19.4209 10.8047 28.352ZM39.6181 28.352C39.6181 35.2273 34.0464 40.8026 27.1694 40.8026C20.2948 40.8026 14.7207 35.2272 14.7207 28.352C14.7207 21.4758 20.2948 15.9012 27.1694 15.9012C34.0464 15.9012 39.6181 21.4759 39.6181 28.352Z" fill="white"/>
<path d="M26.7282 37.8479H28.1543C28.5834 37.8479 28.9305 37.5008 28.9305 37.0718V35.7476C30.0716 35.5774 31.0651 35.22 31.9084 34.6676C33.2366 33.7887 33.9199 32.5805 33.9507 31.0352C33.9692 30.072 33.7026 29.253 33.1474 28.5812C32.2463 27.5065 30.8411 26.834 28.9306 26.567V23.8833C29.2667 24.0415 29.5917 24.2532 29.9032 24.5235C30.094 24.6831 30.3168 24.7644 30.5692 24.7647C30.7723 24.7659 31.0542 24.6228 31.0542 24.6228L31.0591 24.6213L32.6557 23.6189C32.8735 23.4811 32.9856 23.3051 32.9893 23.0911C32.9917 22.9188 32.9215 22.7689 32.7813 22.6396C31.7854 21.5061 30.5002 20.8036 28.9306 20.5305V19.0201C28.9306 18.5908 28.5834 18.2422 28.1544 18.2422H26.7283C26.2999 18.2422 25.9503 18.5908 25.9503 19.0201V20.4905C25.2129 20.5927 24.5469 20.7799 23.9536 21.0513C22.0357 21.9241 21.097 23.2321 21.129 24.9647C21.1431 25.8181 21.4011 26.5728 21.8972 27.2298C22.7311 28.3467 24.0816 29.0468 25.9503 29.3348V32.6844C25.144 32.3991 24.3795 31.8676 23.6606 31.0884C23.5036 30.8831 23.2925 30.7806 23.0303 30.7806C22.8875 30.7806 22.6044 30.9043 22.6044 30.9043L22.5995 30.907L21.1469 31.7592C20.8981 31.9033 20.7788 32.0947 20.7813 32.3294C20.785 32.4833 20.841 32.6203 20.9511 32.744C21.3291 33.2715 21.8375 33.7778 22.4733 34.2607C23.5018 35.0516 24.6627 35.544 25.9503 35.749V37.0717C25.9502 37.5008 26.2998 37.8479 26.7282 37.8479ZM28.9305 29.6937C29.6999 29.9363 30.0908 30.3837 30.0859 31.0432C30.0791 31.6569 29.7997 32.1323 29.2445 32.469C29.1466 32.5312 29.0389 32.5835 28.9306 32.6327L28.9305 29.6937ZM25.0109 24.9736C25.0078 24.4936 25.283 24.1193 25.8418 23.8537L25.9501 23.8106V26.1899C25.3297 25.9498 25.0158 25.5455 25.0109 24.9736Z" fill="white"/>
<path d="M25.0078 24.9755C25.0127 25.5473 25.3267 25.9517 25.9472 26.1917V23.8125L25.8389 23.8556C25.2799 24.1212 25.0048 24.4954 25.0078 24.9755Z" fill="#FF9200"/>
<path d="M28.9298 32.6343C29.0381 32.5851 29.1459 32.5328 29.2436 32.4706C29.7988 32.1338 30.0782 31.6585 30.085 31.0448C30.0899 30.3853 29.6991 29.9379 28.9297 29.6953L28.9298 32.6343Z" fill="#FF9200"/>
<path d="M14.7188 28.3512C14.7188 35.2266 20.2929 40.8018 27.1675 40.8018C34.0445 40.8018 39.6162 35.2265 39.6162 28.3512C39.6162 21.475 34.0445 15.9004 27.1675 15.9004C20.2928 15.9004 14.7188 21.4751 14.7188 28.3512ZM28.9297 19.021V20.5315C30.4993 20.8045 31.7845 21.5072 32.7803 22.6406C32.9207 22.7699 32.9908 22.9198 32.9883 23.0921C32.9847 23.306 32.8726 23.482 32.6547 23.6199L31.0581 24.6223L31.0532 24.6238C31.0532 24.6238 30.7714 24.7669 30.5682 24.7657C30.3159 24.7654 30.0931 24.6842 29.9023 24.5245C29.5908 24.2543 29.2658 24.0425 28.9297 23.8844V26.568C30.8402 26.8351 32.2454 27.5075 33.1465 28.5822C33.7017 29.2541 33.9681 30.073 33.9497 31.0362C33.919 32.5815 33.2358 33.7897 31.9074 34.6686C31.0642 35.2211 30.0707 35.5784 28.9296 35.7486V37.0729C28.9296 37.5019 28.5824 37.849 28.1534 37.849H26.7272C26.2988 37.849 25.9493 37.5019 25.9493 37.0729V35.7501C24.6616 35.5452 23.5008 35.0528 22.4723 34.2618C21.8364 33.7789 21.328 33.2727 20.9501 32.7451C20.8399 32.6214 20.7839 32.4845 20.7802 32.3306C20.7778 32.0958 20.8972 31.9043 21.1459 31.7603L22.5985 30.9082L22.6034 30.9054C22.6034 30.9054 22.8865 30.7817 23.0293 30.7817C23.2915 30.7817 23.5026 30.8843 23.6595 31.0895C24.3785 31.8687 25.1429 32.4002 25.9493 32.6855V29.3359C24.0806 29.0478 22.7301 28.3477 21.8961 27.2309C21.4 26.5738 21.1421 25.8193 21.128 24.9659C21.0959 23.2333 22.0345 21.9253 23.9525 21.0524C24.5459 20.781 25.2118 20.5939 25.9493 20.4917V19.021C25.9493 18.5918 26.2989 18.2431 26.7272 18.2431H28.1534C28.5825 18.243 28.9297 18.5918 28.9297 19.021Z" fill="#FF9200"/>
</svg>
