<svg width="67" height="62" viewBox="0 0 67 62" fill="none" xmlns="http://www.w3.org/2000/svg">
<path d="M7.30469 15.9938L33.5734 1L59.6917 16.2518" stroke="white" stroke-width="1.5" stroke-miterlimit="10" strokeLinecap="round" strokeLinejoin="round"/>
<path d="M65.9169 58.381C65.9169 59.8276 64.744 61.0005 63.2975 61.0005H3.7054C2.25881 61.0005 1.08594 59.8281 1.08594 58.381V18.8714C1.08594 17.4244 2.25838 16.252 3.7054 16.252H63.2975C64.7436 16.252 65.9169 17.4244 65.9169 18.8714V58.381Z" fill="#F1FBFD" stroke="white" stroke-width="1.5" stroke-miterlimit="10" strokeLinecap="round" strokeLinejoin="round"/>
<path d="M34.694 5.1747C34.694 5.83415 34.1584 6.36893 33.4989 6.36893C32.839 6.36893 32.3047 5.83415 32.3047 5.1747C32.3047 4.51482 32.8395 3.98047 33.4989 3.98047C34.1584 3.98047 34.694 4.51482 34.694 5.1747Z" stroke="white" stroke-width="1.5" stroke-miterlimit="10" strokeLinecap="round" strokeLinejoin="round"/>
<path d="M17.7291 47.5764C17.7291 49.2605 16.3614 50.6273 14.6768 50.6273C12.9905 50.6273 11.625 49.2605 11.625 47.5764C11.625 45.8909 12.9905 44.5254 14.6768 44.5254C16.3614 44.5254 17.7291 45.8909 17.7291 47.5764Z" fill="#35C89E" stroke="#004964" stroke-width="1.5" stroke-miterlimit="10" strokeLinecap="round" strokeLinejoin="round"/>
<path d="M29.3697 33.258C29.3697 34.9421 28.002 36.3085 26.3175 36.3085C24.6316 36.3085 23.2656 34.9421 23.2656 33.258C23.2656 31.5721 24.6316 30.207 26.3175 30.207C28.0024 30.207 29.3697 31.5721 29.3697 33.258Z" fill="#35C89E" stroke="#004964" stroke-width="1.5" stroke-miterlimit="10" strokeLinecap="round" strokeLinejoin="round"/>
<path d="M44.3931 38.6267C44.3931 40.3113 43.0254 41.6768 41.3404 41.6768C39.6546 41.6768 38.2891 40.3113 38.2891 38.6267C38.2891 36.9413 39.6546 35.5762 41.3404 35.5762C43.0254 35.5762 44.3931 36.9413 44.3931 38.6267Z" fill="#FCBF0F" stroke="#004964" stroke-width="1.5" stroke-miterlimit="10" strokeLinecap="round" strokeLinejoin="round"/>
<path d="M59.6974 27.156C59.6974 28.841 58.3301 30.207 56.6451 30.207C54.9593 30.207 53.5938 28.8406 53.5938 27.156C53.5938 25.471 54.9593 24.1055 56.6451 24.1055C58.3306 24.1055 59.6974 25.471 59.6974 27.156Z" fill="#FCBF0F" stroke="#004964" stroke-width="1.5" stroke-miterlimit="10" strokeLinecap="round" strokeLinejoin="round"/>
<path d="M6.15625 52.9213L12.2446 49.3848" stroke="#004964" stroke-width="1.5" stroke-miterlimit="10" strokeLinecap="round" strokeLinejoin="round"/>
<path d="M16.4844 45.1475L24.5045 35.5762" stroke="#004964" stroke-width="1.5" stroke-miterlimit="10" strokeLinecap="round" strokeLinejoin="round"/>
<path d="M29.3672 34.4824L38.2864 37.5901" stroke="#004964" stroke-width="1.5" stroke-miterlimit="10" strokeLinecap="round" strokeLinejoin="round"/>
<path d="M44.5625 36.9311L54.1647 28.9336" stroke="#004964" stroke-width="1.5" stroke-miterlimit="10" strokeLinecap="round" strokeLinejoin="round"/>
</svg>
