<svg width="61" height="60" viewBox="0 0 61 60" fill="none" xmlns="http://www.w3.org/2000/svg">
<path d="M53.2807 55.8707H7.70722C6.00471 55.8707 4.625 54.4903 4.625 52.7885V7.21504C4.625 5.51253 6.00543 4.13281 7.70722 4.13281H53.2807C54.9832 4.13281 56.3629 5.51253 56.3629 7.21504V52.7885C56.3629 54.491 54.9825 55.8707 53.2807 55.8707Z" fill="#00A7FF"/>
<path d="M18.3204 13.8005C17.3063 13.8005 16.4844 12.9786 16.4844 11.9645V1.838C16.4844 0.823926 17.3063 0.00195312 18.3204 0.00195312C19.3345 0.00195312 20.1565 0.823926 20.1565 1.838V11.9645C20.1565 12.9786 19.3345 13.8005 18.3204 13.8005Z" fill="#F9D22F"/>
<path d="M26.4376 13.8005C25.4235 13.8005 24.6016 12.9786 24.6016 11.9645V1.838C24.6016 0.823926 25.4235 0.00195312 26.4376 0.00195312C27.4517 0.00195312 28.2737 0.823926 28.2737 1.838V11.9645C28.2737 12.9786 27.4517 13.8005 26.4376 13.8005Z" fill="#F9D22F"/>
<path d="M34.5548 13.8005C33.5407 13.8005 32.7188 12.9786 32.7188 11.9645V1.838C32.7188 0.823926 33.5407 0.00195312 34.5548 0.00195312C35.5689 0.00195312 36.3908 0.823926 36.3908 1.838V11.9645C36.3908 12.9786 35.5689 13.8005 34.5548 13.8005Z" fill="#F9D22F"/>
<path d="M42.672 13.8005C41.6579 13.8005 40.8359 12.9786 40.8359 11.9645V1.838C40.8359 0.823926 41.6579 0.00195312 42.672 0.00195312C43.6861 0.00195312 44.508 0.823926 44.508 1.838V11.9645C44.508 12.9786 43.6861 13.8005 42.672 13.8005Z" fill="#F9D22F"/>
<path d="M14.2986 42.1818C14.2986 43.1958 13.4766 44.0178 12.4625 44.0178H2.33605C1.32197 44.0178 0.5 43.1958 0.5 42.1818C0.5 41.1677 1.32197 40.3457 2.33605 40.3457H12.4625C13.4766 40.3464 14.2986 41.1684 14.2986 42.1818Z" fill="#F9D22F"/>
<path d="M14.2986 34.0646C14.2986 35.0786 13.4766 35.9006 12.4625 35.9006H2.33605C1.32197 35.9006 0.5 35.0786 0.5 34.0646C0.5 33.0505 1.32197 32.2285 2.33605 32.2285H12.4625C13.4766 32.2285 14.2986 33.0505 14.2986 34.0646Z" fill="#F9D22F"/>
<path d="M14.2986 25.9474C14.2986 26.9615 13.4766 27.7834 12.4625 27.7834H2.33605C1.32197 27.7834 0.5 26.9615 0.5 25.9474C0.5 24.9333 1.32197 24.1113 2.33605 24.1113H12.4625C13.4766 24.1113 14.2986 24.9333 14.2986 25.9474Z" fill="#F9D22F"/>
<path d="M14.2986 17.8321C14.2986 18.8462 13.4766 19.6682 12.4625 19.6682H2.33605C1.32197 19.6682 0.5 18.8462 0.5 17.8321C0.5 16.8181 1.32197 15.9961 2.33605 15.9961H12.4625C13.4766 15.9961 14.2986 16.8181 14.2986 17.8321Z" fill="#F9D22F"/>
<path d="M42.672 46.1992C43.6861 46.1992 44.508 47.0212 44.508 48.0353V58.1618C44.508 59.1758 43.6861 59.9978 42.672 59.9978C41.6579 59.9978 40.8359 59.1758 40.8359 58.1618V48.0353C40.8359 47.0212 41.6579 46.1992 42.672 46.1992Z" fill="#F9D22F"/>
<path d="M34.5548 46.1992C35.5689 46.1992 36.3908 47.0212 36.3908 48.0353V58.1618C36.3908 59.1758 35.5689 59.9978 34.5548 59.9978C33.5407 59.9978 32.7188 59.1758 32.7188 58.1618V48.0353C32.7195 47.0212 33.5414 46.1992 34.5548 46.1992Z" fill="#F9D22F"/>
<path d="M26.4376 46.1992C27.4517 46.1992 28.2737 47.0212 28.2737 48.0353V58.1618C28.2737 59.1758 27.4517 59.9978 26.4376 59.9978C25.4235 59.9978 24.6016 59.1758 24.6016 58.1618V48.0353C24.6016 47.0212 25.4235 46.1992 26.4376 46.1992Z" fill="#F9D22F"/>
<path d="M18.3204 46.1992C19.3345 46.1992 20.1565 47.0212 20.1565 48.0353V58.1618C20.1565 59.1758 19.3345 59.9978 18.3204 59.9978C17.3063 59.9978 16.4844 59.1758 16.4844 58.1618V48.0353C16.4851 47.0212 17.3071 46.1992 18.3204 46.1992Z" fill="#F9D22F"/>
<path d="M46.6953 17.8321C46.6953 16.8181 47.5173 15.9961 48.5314 15.9961H58.6579C59.6719 15.9961 60.4939 16.8181 60.4939 17.8321C60.4939 18.8462 59.6719 19.6682 58.6579 19.6682H48.5314C47.5173 19.6675 46.6953 18.8455 46.6953 17.8321Z" fill="#F9D22F"/>
<path d="M46.6953 25.9474C46.6953 24.9333 47.5173 24.1113 48.5314 24.1113H58.6579C59.6719 24.1113 60.4939 24.9333 60.4939 25.9474C60.4939 26.9615 59.6719 27.7834 58.6579 27.7834H48.5314C47.5173 27.7834 46.6953 26.9615 46.6953 25.9474Z" fill="#F9D22F"/>
<path d="M46.6953 34.0646C46.6953 33.0505 47.5173 32.2285 48.5314 32.2285H58.6579C59.6719 32.2285 60.4939 33.0505 60.4939 34.0646C60.4939 35.0786 59.6719 35.9006 58.6579 35.9006H48.5314C47.5173 35.9006 46.6953 35.0786 46.6953 34.0646Z" fill="#F9D22F"/>
<path d="M46.6953 42.1818C46.6953 41.1677 47.5173 40.3457 48.5314 40.3457H58.6579C59.6719 40.3457 60.4939 41.1677 60.4939 42.1818C60.4939 43.1958 59.6719 44.0178 58.6579 44.0178H48.5314C47.5173 44.0178 46.6953 43.1958 46.6953 42.1818Z" fill="#F9D22F"/>
<path d="M50.7452 9.75781H10.2578V50.2452H50.7452V9.75781Z" fill="#0076BE"/>
</svg>
