<svg width="83" height="60" viewBox="0 0 83 60" fill="none" xmlns="http://www.w3.org/2000/svg">
<path d="M72.9878 7.86719H4.96875V53.8975H72.9878V7.86719Z" fill="#BCBCBC"/>
<path d="M4.19195 60.0003H19.4185H73.7696C75.7641 60.0003 77.381 58.3813 77.381 56.3902V53.8965H19.4196H0.585938V56.3902C0.584859 58.3802 2.19964 60.0003 4.19195 60.0003Z" fill="#BCBCBC"/>
<path d="M69.211 11.2441H8.75781V50.5148H69.211V11.2441Z" fill="white"/>
<path d="M20.1544 35.2485L13.2541 28.3477L10.7969 30.8047L18.5126 38.5188C18.5579 37.1954 19.1857 36.0208 20.1544 35.2485Z" fill="#51A2FB"/>
<path d="M43.2829 32.3525L39.5032 28.5742C39.0761 29.7024 38.2002 30.6095 37.0859 31.0679L41.1579 35.1396C41.447 33.9413 42.2323 32.9371 43.2829 32.3525Z" fill="#51A2FB"/>
<path d="M31.3808 28.6543L25.1094 34.9263C26.1438 35.5465 26.9021 36.582 27.1459 37.8019L33.851 31.0984C32.7248 30.6605 31.8295 29.7717 31.3808 28.6543Z" fill="#51A2FB"/>
<path d="M24.3165 35.7091C23.8753 35.4912 23.3845 35.3672 22.8592 35.3672C22.1322 35.3672 21.4602 35.6088 20.91 36.0111C20.0978 36.6119 19.5703 37.574 19.5703 38.6591C19.5703 39.0538 19.6415 39.4313 19.771 39.7819C20.0989 40.6825 20.8097 41.3976 21.7039 41.7352C22.0642 41.8711 22.4536 41.9499 22.8592 41.9499C22.9121 41.9499 22.966 41.9445 23.0167 41.9423C24.7134 41.8625 26.078 40.4916 26.1448 38.7885C26.1481 38.7464 26.1502 38.7022 26.1502 38.658C26.1513 37.3648 25.4016 36.2473 24.3165 35.7091Z" fill="#51A2FB"/>
<path d="M35.4249 23.7461C33.6074 23.7461 32.1328 25.2238 32.1328 27.038C32.1328 27.3022 32.1673 27.5568 32.2277 27.8038C32.5168 29.0161 33.4779 29.9696 34.6957 30.2468C34.932 30.2997 35.1736 30.3299 35.4249 30.3299C35.7065 30.3299 35.9772 30.291 36.2382 30.2242C37.442 29.9157 38.3859 28.9449 38.6458 27.7197C38.6911 27.4996 38.717 27.272 38.717 27.038C38.7181 25.2227 37.2414 23.7461 35.4249 23.7461Z" fill="#51A2FB"/>
<path d="M48.675 35.9546C48.5941 34.6614 47.7624 33.5698 46.6115 33.1093C46.2329 32.9572 45.8241 32.873 45.3937 32.873C44.9266 32.873 44.4822 32.9723 44.0809 33.1481C42.9408 33.6453 42.1382 34.7692 42.1059 36.0851C42.1048 36.1121 42.1016 36.138 42.1016 36.166C42.1016 37.9802 43.5783 39.4568 45.3937 39.4568C47.2091 39.4568 48.689 37.9802 48.689 36.166C48.6879 36.0937 48.6815 36.0247 48.675 35.9546Z" fill="#51A2FB"/>
<path d="M47.4141 32.3078C48.4798 32.8676 49.2802 33.8513 49.5995 35.0334L77.5317 7.10636L75.0756 4.65039L47.4141 32.3078Z" fill="#51A2FB"/>
<path d="M74.4922 2.12268L76.0465 3.67695L78.5027 6.13399L80.2933 7.92554L82.4183 0L74.4922 2.12268Z" fill="#51A2FB"/>
</svg>
