<svg width="52" height="60" viewBox="0 0 52 60" fill="none" xmlns="http://www.w3.org/2000/svg">
<path d="M40.1085 37.862C40.1351 37.8613 40.1607 37.8653 40.1873 37.8653V0H0.742188V52.6956H29.7929C29.3733 51.5421 29.1293 50.3041 29.1199 49.0081C29.0767 42.9063 34.0056 37.9055 40.1085 37.862ZM7.3923 7.4792H36.8745V11.0046H7.3923V7.4792ZM4.056 15.4565H36.8745V18.9819H4.056V15.4565ZM4.056 23.4344H36.8745V26.9598H4.056V23.4344ZM28.7178 42.9134H4.056V39.3889H28.7178V42.9134ZM4.056 34.9361V31.4116H36.8745V34.9361H4.056Z" fill="white"/>
<path d="M36.8728 7.47852H7.39062V11.004H36.8728V7.47852Z" fill="#00A7FF"/>
<path d="M36.8732 15.457H4.05469V18.9825H36.8732V15.457Z" fill="#00A7FF"/>
<path d="M36.8732 23.4336H4.05469V26.959H36.8732V23.4336Z" fill="#00A7FF"/>
<path d="M36.8732 31.4121H4.05469V34.9366H36.8732V31.4121Z" fill="#00A7FF"/>
<path d="M28.7165 39.3887H4.05469V42.9132H28.7165V39.3887Z" fill="#00A7FF"/>
<path d="M40.106 37.8614C34.0031 37.905 29.0742 42.9057 29.1175 49.0076C29.1267 50.3035 29.3708 51.5416 29.7904 52.6951C31.3458 56.976 35.4581 60.0327 40.2653 59.9993C46.3671 59.9554 51.2959 54.955 51.2532 48.8515C51.2105 42.7749 46.2528 37.8648 40.185 37.8648C40.1584 37.8648 40.1326 37.8607 40.106 37.8614ZM48.4261 48.87C48.4582 53.4162 44.7856 57.1381 40.2447 57.1705C35.6984 57.203 31.9779 53.5328 31.9447 48.9881C31.912 44.4437 35.5827 40.7225 40.1261 40.6897C44.6699 40.657 48.393 44.3275 48.4261 48.87Z" fill="white"/>
<path d="M42.3183 46.1074V50.0525H44.4296L40.0859 55.5777L35.7422 50.0525H37.8535V46.1074H42.3183Z" fill="#00A7FF"/>
<path d="M42.3164 44.9316H37.8516V45.8371H42.3164V44.9316Z" fill="#00A7FF"/>
<path opacity="0.8" d="M42.3164 43.7578H37.8516V44.6633H42.3164V43.7578Z" fill="#00A7FF"/>
<path opacity="0.5" d="M42.3164 42.5781H37.8516V43.4836H42.3164V42.5781Z" fill="#00A7FF"/>
</svg>
