<svg width="61" height="60" viewBox="0 0 61 60" fill="none" xmlns="http://www.w3.org/2000/svg">
<path d="M34.25 13.75C34.25 14.0815 34.1183 14.3995 33.8839 14.6339C33.6495 14.8683 33.3315 15 33 15C32.6685 15 32.3505 14.8683 32.1161 14.6339C31.8817 14.3995 31.75 14.0815 31.75 13.75H30.5V21.25H35.5V13.75H34.25Z" fill="#FF9800"/>
<path d="M8.62438 32.5C8.29798 32.4999 7.97726 32.4146 7.69395 32.2525C7.41063 32.0904 7.17453 31.8572 7.009 31.5759C6.84347 31.2946 6.75425 30.9749 6.75015 30.6486C6.74605 30.3222 6.82722 30.0004 6.98563 29.715L12.9806 20.665C13.9969 19.4688 15.3894 17.9038 16.2906 18.4063C17.1969 18.9088 17.7581 20.345 17.2556 21.25L10.2644 31.5363C10.1018 31.8286 9.86404 32.0721 9.57567 32.2415C9.2873 32.411 8.95886 32.5002 8.62438 32.5ZM27.3744 27.5C26.8919 27.5 26.4119 27.315 26.0481 26.9513L21.0481 21.9513C20.8691 21.7783 20.7262 21.5714 20.6279 21.3426C20.5297 21.1139 20.478 20.8678 20.4758 20.6189C20.4736 20.3699 20.5211 20.123 20.6153 19.8926C20.7096 19.6622 20.8488 19.4528 21.0249 19.2768C21.2009 19.1007 21.4103 18.9615 21.6407 18.8672C21.8711 18.7729 22.118 18.7255 22.367 18.7277C22.616 18.7298 22.862 18.7815 23.0908 18.8798C23.3195 18.9781 23.5264 19.1209 23.6994 19.3L27.5494 23.15L31.2494 20.375C32.0806 19.7575 33.2544 19.9213 33.8756 20.75C34.4969 21.5788 34.3281 22.755 33.5006 23.3763L28.5006 27.1263C28.1644 27.3763 27.7681 27.5 27.3744 27.5ZM19.8744 15C17.4594 15 15.4994 13.0375 15.4994 10.625C15.4994 8.2125 17.4594 6.25 19.8744 6.25C22.2894 6.25 24.2494 8.2125 24.2494 10.625C24.2494 13.0375 22.2894 15 19.8744 15ZM46.1244 15C43.7094 15 41.7494 13.0375 41.7494 10.625C41.7494 8.2125 43.7094 6.25 46.1244 6.25C48.5394 6.25 50.4994 8.2125 50.4994 10.625C50.4994 13.0375 48.5394 15 46.1244 15Z" fill="#FFB74D"/>
<path d="M36.75 52.5H8V32.5H36.75V52.5Z" fill="#FFA000"/>
<path d="M46.7508 17.5538V17.5287C46.5683 17.5175 46.3883 17.5 46.2045 17.5C46.1733 17.5 46.1433 17.505 46.112 17.505C46.0895 17.505 46.072 17.5 46.0483 17.5C45.8645 17.5 45.6833 17.5175 45.5008 17.5287V17.5375C43.9073 17.6872 42.3973 18.319 41.172 19.3488C40.9399 19.4827 40.7398 19.6657 40.5858 19.885C40.1595 20.3104 39.7795 20.7796 39.452 21.285L36.0083 25.5075L30.1608 29.0175C29.9496 29.1441 29.7654 29.3111 29.6188 29.509C29.4721 29.7068 29.3659 29.9315 29.3061 30.1704C29.1854 30.6529 29.2612 31.1635 29.517 31.59C29.7728 32.0165 30.1875 32.3239 30.6699 32.4447C31.1524 32.5654 31.663 32.4895 32.0895 32.2338L38.3395 28.4838C38.6034 28.3249 38.8244 28.1039 38.9833 27.84L40.5408 25.8938L41.7508 52.5H49.2508L50.3583 39.2063C50.5933 39.3125 50.852 39.375 51.1258 39.375C51.623 39.375 52.0999 39.1775 52.4516 38.8258C52.8032 38.4742 53.0008 37.9973 53.0008 37.5V25C53.0008 20.4338 50.8133 17.83 46.7508 17.5538Z" fill="#607D8B"/>
<path d="M50.3591 39.2062C50.0292 39.0593 49.749 38.8199 49.5523 38.5171C49.3555 38.2144 49.2507 37.8611 49.2503 37.5V23.75C49.2503 23.75 46.7503 33.75 46.7503 37.5C46.7385 38.4926 47.07 39.4587 47.6886 40.235C48.3073 41.0113 49.1751 41.55 50.1453 41.76L50.3591 39.2062Z" fill="#455A64"/>
<path d="M27.5512 23.1511L24.5238 19.4161C23.9125 18.6786 22.3187 17.5273 19.875 17.5273C15.6175 17.5273 14.11 18.9311 13.4425 19.9448L10.875 23.8461L14.145 25.8623C13.605 28.7348 12.9725 32.1511 12.4437 35.0011H26.3662L24.96 25.8611L27.5512 23.1511Z" fill="#E91E63"/>
<path d="M6.75 32.5H38V37.5H6.75V32.5Z" fill="#EF6C00"/>
</svg>
