<svg width="64" height="61" viewBox="0 0 64 61" fill="none" xmlns="http://www.w3.org/2000/svg">
<path d="M44.4706 29C44.2855 33.5196 43.2602 37.9108 41.4141 42.0921C43.8248 43.1815 46.0857 44.5588 48.16 46.2092C52.6124 41.48 55.1927 35.4585 55.5384 29.0004H44.4706V29Z" fill="#00A7FF"/>
<path d="M37.2863 43.6898C34.8203 42.8756 32.289 42.3956 29.7266 42.2617V52.9215C32.7698 50.3279 35.3385 47.1919 37.2863 43.6898Z" fill="#00A7FF"/>
<path d="M32.4453 54.514C37.4352 53.7413 42.1017 51.6002 45.9669 48.2966C44.1533 46.8955 42.1911 45.7156 40.1012 44.7793C38.1211 48.4357 35.5226 51.7352 32.4453 54.514Z" fill="#00A7FF"/>
<path d="M44.791 5.77343C41.174 3.01547 36.9312 1.20489 32.4609 0.501953C35.1343 2.91086 37.4501 5.70666 39.2955 8.76175C41.2434 7.96125 43.0806 6.95859 44.791 5.77343Z" fill="#00A7FF"/>
<path d="M29.7266 29V39.264C32.7523 39.4068 35.7388 39.9851 38.6377 40.9855C40.3425 37.1563 41.2958 33.1364 41.4809 29H29.7266Z" fill="#00A7FF"/>
<path d="M29.7269 26.0068H41.4802C41.2669 21.2917 40.0499 16.6524 37.9177 12.4414C35.2291 13.2998 32.4841 13.7987 29.7266 13.9315L29.7269 26.0068Z" fill="#00A7FF"/>
<path d="M55.5412 26.0067C55.1603 19.1075 52.1545 12.5912 47.1353 7.7793C45.1571 9.22412 43.0116 10.4319 40.7344 11.3953C42.9838 15.9426 44.2617 20.9363 44.4723 26.0067H55.5412Z" fill="#00A7FF"/>
<path d="M29.7266 2.08203V10.9342C31.9708 10.8148 34.2064 10.4242 36.4068 9.77206C34.5981 6.90318 32.3317 4.29731 29.7266 2.08203Z" fill="#00A7FF"/>
<path d="M15.0384 42.0921C13.1922 37.9108 12.1669 33.5199 11.9818 29H0.914062C1.25978 35.4574 3.84005 41.4789 8.29357 46.2088C10.366 44.5592 12.6265 43.1819 15.0384 42.0921Z" fill="#00A7FF"/>
<path d="M11.9833 26.0067C12.194 20.9363 13.4723 15.9426 15.7213 11.3953C13.4437 10.4319 11.2986 9.22412 9.31996 7.7793C4.30076 12.5908 1.29502 19.1072 0.914062 26.0067H11.9833Z" fill="#00A7FF"/>
<path d="M20.0547 9.77206C22.2551 10.4242 24.4911 10.8148 26.7353 10.9342V2.08203C24.1313 4.29656 21.8645 6.90281 20.0547 9.77206Z" fill="#00A7FF"/>
<path d="M26.7328 52.9223V42.2617C24.1696 42.3956 21.6379 42.8756 19.1719 43.6898C21.1201 47.1927 23.6888 50.329 26.7328 52.9223Z" fill="#00A7FF"/>
<path d="M26.7324 29H14.9766C15.1617 33.1368 16.115 37.1563 17.8198 40.9855C20.7191 39.9851 23.7056 39.4064 26.7321 39.264V29H26.7324Z" fill="#00A7FF"/>
<path d="M10.4922 48.2966C14.357 51.6002 19.0235 53.7417 24.0137 54.514C20.9357 51.7352 18.3376 48.4361 16.3571 44.7793C14.2665 45.7163 12.3042 46.8959 10.4922 48.2966Z" fill="#00A7FF"/>
<path d="M26.7313 13.9315C23.973 13.7987 21.228 13.2998 18.5391 12.4414C16.4069 16.652 15.1902 21.2917 14.9766 26.0068H26.731V13.9315H26.7313Z" fill="#00A7FF"/>
<path d="M24.0027 0.5C19.5321 1.20257 15.2889 3.01351 11.6719 5.77148C13.3823 6.95664 15.2196 7.95967 17.1677 8.7598C19.0139 5.70434 21.3301 2.90854 24.0027 0.5Z" fill="#00A7FF"/>
<path d="M57.6062 60.5003C56.9522 60.5003 56.3183 60.1538 55.9804 59.541L53.149 54.4094L50.7805 55.7162C50.243 56.013 49.5928 56.0241 49.0441 55.7455C48.4963 55.4673 48.122 54.9354 48.0448 54.3256L45.8351 36.9064C45.7394 36.1527 46.1133 35.4164 46.7792 35.0491C47.4443 34.6823 48.2667 34.7576 48.8539 35.2413L62.411 46.3996C62.8855 46.7902 63.1355 47.3904 63.0791 48.0021C63.0227 48.6141 62.6666 49.1583 62.1284 49.4554L59.7595 50.7623L62.5905 55.8939C63.0854 56.7909 62.7593 57.9189 61.8624 58.4137L58.5002 60.2688C58.2164 60.4261 57.9093 60.5003 57.6062 60.5003ZM53.8771 50.0349C54.05 50.0349 54.2232 50.0586 54.392 50.1076C54.8646 50.2441 55.2637 50.5631 55.5011 50.9937L58.3325 56.1254L58.4468 56.062L55.6157 50.9307C55.1209 50.0341 55.447 48.9057 56.3435 48.4109L57.9441 47.5277L50.1024 41.0736L51.3803 51.1484L52.9806 50.2656C53.258 50.1128 53.5667 50.0349 53.8771 50.0349Z" fill="black"/>
<path d="M61.2287 47.8325L47.6719 36.6738L49.8816 54.0933L53.8736 51.8903L57.6009 58.6459L60.9634 56.7908L57.2362 50.0356L61.2287 47.8325Z" fill="#00A7FF"/>
</svg>
