<svg width="87" height="62" viewBox="0 0 87 62" fill="none" xmlns="http://www.w3.org/2000/svg">
<path d="M78.2606 25.748H71.5065H22.7386H16.0454C14.7969 25.748 13.7891 26.7559 13.7891 28.0044V34.6977V53.0497V59.7437C13.7891 60.9915 14.7969 62.0001 16.0454 62.0001H22.7386H71.5065H78.2606C79.5009 62.0001 80.517 60.9915 80.517 59.7437V53.0497V34.6977V28.0044C80.517 26.7559 79.5009 25.748 78.2606 25.748Z" fill="#F29B30"/>
<path d="M59.6964 3.9077L53.4612 6.50557L8.44343 25.2592L2.2647 27.833C1.11244 28.3137 0.569414 29.6314 1.05002 30.7836L3.6238 36.9624L10.681 53.9042L13.2555 60.083C13.7354 61.2352 15.0531 61.779 16.2061 61.2984L22.3848 58.7246L67.4026 39.971L73.6385 37.3731C74.7833 36.8962 75.3331 35.5747 74.8532 34.4225L72.2787 28.2429L65.2215 11.3019L62.6469 5.12317C62.1663 3.9709 60.8418 3.43085 59.6964 3.9077Z" fill="#F29B30"/>
<path d="M27.3402 56.2511H20.647C19.3985 56.2511 18.3906 55.2425 18.3906 53.9948V47.3008C23.3313 47.3 27.3402 51.3096 27.3402 56.2511Z" fill="#B1E35F"/>
<path d="M85.1199 47.2988V53.9928C85.1199 55.2406 84.1037 56.2492 82.8635 56.2492H76.1094C76.1094 51.3077 80.1107 47.2988 85.0597 47.2988H85.1199Z" fill="#B1E35F"/>
<path d="M85.1199 22.2544V28.9477H85.0597C80.1107 28.9477 76.1094 24.9388 76.1094 19.998H82.8635C84.1037 19.998 85.1199 21.0052 85.1199 22.2544Z" fill="#B1E35F"/>
<path d="M51.7589 25.2383C58.8741 25.2383 64.6353 31.0071 64.6353 38.1223C64.6353 45.2375 58.8741 50.9988 51.7589 50.9988C44.6438 50.9988 38.875 45.2375 38.875 38.1223C38.875 31.0071 44.6438 25.2383 51.7589 25.2383Z" fill="#B1E35F"/>
<path d="M51.9459 29.6641C52.4145 29.6641 52.7861 30.0349 52.7861 30.5042V30.9337C53.9383 31.0706 54.9146 31.4413 55.8134 32.0077C56.1255 32.1837 56.3985 32.4763 56.3985 32.9456C56.3985 33.5511 55.9112 34.0197 55.3049 34.0197C55.1094 34.0197 54.9138 33.9618 54.719 33.8444C54.0361 33.4345 53.3712 33.1419 52.7071 32.9847V36.7349C55.6765 37.4765 56.9461 38.6686 56.9461 40.7588C56.9461 42.9076 55.2666 44.3336 52.7861 44.5676V45.7402C52.7861 46.2087 52.4145 46.5795 51.9459 46.5795C51.4774 46.5795 51.0863 46.2087 51.0863 45.7402V44.5292C49.6211 44.3728 48.2733 43.8455 47.0819 43.0061C46.7502 42.791 46.5547 42.4781 46.5547 42.0682C46.5547 41.4628 47.0233 40.9934 47.6295 40.9934C47.8641 40.9934 48.0981 41.0716 48.2733 41.2085C49.1917 41.8727 50.0904 42.3217 51.1645 42.5173V38.6694C48.3132 37.927 46.9842 36.8522 46.9842 34.6447C46.9842 32.5553 48.6449 31.1097 51.0863 30.9141V30.5042C51.087 30.0349 51.4774 29.6641 51.9459 29.6641ZM51.1645 36.325V32.8674C49.9144 32.9847 49.2894 33.6489 49.2894 34.5086C49.2894 35.3291 49.661 35.8368 51.1645 36.325ZM52.7078 39.0401V42.5955C53.9579 42.4586 54.6416 41.8336 54.6416 40.8957C54.6416 40.036 54.2121 39.5087 52.7078 39.0401Z" fill="#402318"/>
<path d="M20.647 19.998H27.3402C27.3402 24.9388 23.3313 28.9477 18.3906 28.9477V22.2544C18.3906 21.0052 19.3985 19.998 20.647 19.998Z" fill="#B1E35F"/>
<path d="M85.1186 28.9477V47.2997H85.0584C80.1094 47.2997 76.1081 51.3086 76.1081 56.2501H27.3402C27.3402 51.3086 23.3313 47.2997 18.3906 47.2997V28.9477C23.3313 28.9477 27.3402 24.9388 27.3402 19.998H76.1081C76.1081 24.9388 80.1094 28.9477 85.0584 28.9477H85.1186ZM64.6306 38.1237C64.6306 31.0085 58.8693 25.2397 51.7542 25.2397C44.6391 25.2397 38.8703 31.0085 38.8703 38.1237C38.8703 45.2388 44.6391 51.0002 51.7542 51.0002C58.8686 51.0002 64.6306 45.2388 64.6306 38.1237Z" fill="#64C753"/>
<path d="M85.1186 47.2977V53.9917C85.1186 55.2395 84.1024 56.2481 82.8622 56.2481H76.1081H27.3402H20.647C19.3985 56.2481 18.3906 55.2395 18.3906 53.9917V47.2977V28.9457V22.2525C18.3906 21.004 19.3985 19.9961 20.647 19.9961H27.3402H76.1081H82.8622C84.1024 19.9961 85.1186 21.004 85.1186 22.2525V28.9457V47.2977Z" stroke="#402318" stroke-width="3" stroke-miterlimit="10" strokeLinecap="round" strokeLinejoin="round"/>
<path d="M64.6353 38.1223C64.6353 45.2375 58.8741 50.9988 51.7589 50.9988C44.6438 50.9988 38.875 45.2375 38.875 38.1223C38.875 31.0071 44.6438 25.2383 51.7589 25.2383C58.8733 25.2383 64.6353 31.0071 64.6353 38.1223Z" stroke="#402318" stroke-width="3" stroke-miterlimit="10" strokeLinecap="round" strokeLinejoin="round"/>
<path d="M85.0597 28.9457C80.1107 28.9457 76.1094 24.9368 76.1094 19.9961" stroke="#402318" stroke-width="3" stroke-miterlimit="10" strokeLinecap="round" strokeLinejoin="round"/>
<path d="M18.3906 28.9457C23.3313 28.9457 27.3402 24.9368 27.3402 19.9961" stroke="#402318" stroke-width="3" stroke-miterlimit="10" strokeLinecap="round" strokeLinejoin="round"/>
<path d="M18.3906 47.2969C23.3313 47.2969 27.3402 51.3057 27.3402 56.2472" stroke="#402318" stroke-width="3" stroke-miterlimit="10" strokeLinecap="round" strokeLinejoin="round"/>
<path d="M85.0597 47.2969C80.1107 47.2969 76.1094 51.3057 76.1094 56.2472" stroke="#402318" stroke-width="3" stroke-miterlimit="10" strokeLinecap="round" strokeLinejoin="round"/>
<path d="M24.9852 54.9398L18.6809 57.1902C17.5053 57.6106 16.2169 56.9991 15.7972 55.8243L13.5469 49.5192C18.2003 47.8577 23.3238 50.2856 24.9852 54.9398Z" fill="#B1E35F"/>
<path d="M76.3914 27.082L78.6418 33.3872C79.0622 34.5627 78.4432 35.8534 77.2752 36.2708L70.9144 38.5423C69.253 33.8881 71.6741 28.7661 76.3343 27.1031L76.3914 27.082Z" fill="#B1E35F"/>
<path d="M67.9717 3.49593L70.2221 9.80029L70.1649 9.81984C65.5047 11.4843 60.388 9.05418 58.7266 4.40074L65.0873 2.12929C66.2561 1.71261 67.5513 2.32034 67.9717 3.49593Z" fill="#B1E35F"/>
<path d="M37.5561 17.5247C44.2568 15.1322 51.6217 18.6288 54.0142 25.3296C56.4067 32.0303 52.9176 39.393 46.2169 41.7855C39.5162 44.178 32.1461 40.6919 29.7536 33.9904C27.361 27.2904 30.8547 19.9172 37.5561 17.5247Z" fill="#B1E35F"/>
<path d="M39.2214 21.625C39.6621 21.4663 40.1375 21.6912 40.2954 22.1335L40.4391 22.5389C41.571 22.2794 42.615 22.3012 43.6514 22.5314C44.0041 22.593 44.3599 22.7751 44.5179 23.2173C44.7217 23.7874 44.4193 24.3929 43.8477 24.5967C43.6642 24.6629 43.4604 24.6749 43.237 24.6291C42.4563 24.4719 41.732 24.4207 41.0536 24.4952L42.3141 28.0279C45.361 27.7286 46.957 28.4243 47.6587 30.3919C48.3815 32.4159 47.2789 34.324 45.0218 35.3778L45.4151 36.4827C45.5731 36.9234 45.3474 37.398 44.9067 37.5567C44.4652 37.7139 43.9726 37.495 43.8146 37.0543L43.4077 35.9125C41.9749 36.2593 40.5286 36.2149 39.1243 35.8245C38.7385 35.7335 38.4504 35.5049 38.312 35.1183C38.109 34.5482 38.3925 33.948 38.9626 33.7449C39.183 33.6667 39.4312 33.6622 39.6418 33.7314C40.7294 34.0488 41.7275 34.1691 42.8045 33.9931L41.5108 30.3693C38.5761 30.6281 36.9627 30.064 36.2211 27.9851C35.5179 26.0168 36.5957 24.0966 38.8303 23.0917L38.6919 22.7051C38.5369 22.2621 38.7799 21.7815 39.2214 21.625ZM40.7241 28.1596L39.5621 24.9036C38.4241 25.4346 38.0586 26.2695 38.3474 27.0795C38.6242 27.852 39.1447 28.2062 40.7241 28.1596ZM43.0911 30.1978L44.2862 33.5456C45.4174 32.9973 45.8514 32.1797 45.5362 31.2952C45.2474 30.4859 44.6653 30.1339 43.0911 30.1978Z" fill="#402318"/>
<path d="M6.49846 23.0473L12.8028 20.7969C14.4635 25.4511 12.0356 30.5738 7.38296 32.2345L5.13261 25.9309C4.71292 24.7546 5.32214 23.4677 6.49846 23.0473Z" fill="#B1E35F"/>
<path d="M70.2275 9.79994L76.3972 27.0832L76.34 27.1035C71.6799 28.7665 69.2588 33.8892 70.9202 38.5427L24.9908 54.9384C23.3294 50.2842 18.2059 47.8563 13.5525 49.5178L7.38281 32.2338C12.0362 30.5731 14.4633 25.4495 12.8026 20.7961L58.7312 4.40039C60.3927 9.05458 65.5094 11.484 70.1696 9.81949L70.2275 9.79994ZM54.0162 25.33C51.6237 18.6292 44.2588 15.1325 37.5581 17.5251C30.8574 19.9176 27.3631 27.29 29.7556 33.9908C32.1481 40.6923 39.5174 44.1784 46.2189 41.7859C52.9196 39.3941 56.4087 32.0307 54.0162 25.33Z" fill="#64C753"/>
<path d="M76.3973 27.0832L78.6476 33.3883C79.0681 34.5639 78.4491 35.8545 77.281 36.272L70.9203 38.5434L24.9909 54.9391L18.6866 57.1895C17.511 57.61 16.2226 56.9985 15.8029 55.8236L13.5526 49.5185L7.38289 32.2345L5.13252 25.9309C4.71284 24.7546 5.32281 23.4677 6.49838 23.0472L12.8027 20.7968L58.7313 4.40113L65.0921 2.12968C66.2609 1.71224 67.556 2.31997 67.9765 3.49555L70.2268 9.79992L76.3973 27.0832Z" stroke="#402318" stroke-width="3" stroke-miterlimit="10" strokeLinecap="round" strokeLinejoin="round"/>
<path d="M54.0141 25.3293C56.4066 32.03 52.9175 39.3927 46.2168 41.7852C39.5161 44.1777 32.146 40.6916 29.7535 33.9901C27.361 27.2901 30.8553 19.9169 37.556 17.5244C44.2575 15.1326 51.6223 18.6285 54.0141 25.3293Z" stroke="#402318" stroke-width="3" stroke-miterlimit="10" strokeLinecap="round" strokeLinejoin="round"/>
<path d="M70.1727 9.81949C65.5125 11.484 60.3958 9.05383 58.7344 4.40039" stroke="#402318" stroke-width="3" stroke-miterlimit="10" strokeLinecap="round" strokeLinejoin="round"/>
<path d="M7.38281 32.2326C12.0362 30.5719 14.4633 25.4484 12.8026 20.7949" stroke="#402318" stroke-width="3" stroke-miterlimit="10" strokeLinecap="round" strokeLinejoin="round"/>
<path d="M13.5547 49.5172C18.2081 47.8557 23.3316 50.2843 24.993 54.9378" stroke="#402318" stroke-width="3" stroke-miterlimit="10" strokeLinecap="round" strokeLinejoin="round"/>
<path d="M76.3421 27.1055C71.6819 28.7684 69.2608 33.8912 70.9223 38.5446" stroke="#402318" stroke-width="3" stroke-miterlimit="10" strokeLinecap="round" strokeLinejoin="round"/>
</svg>
