<svg width="75" height="60" viewBox="0 0 75 60" fill="none" xmlns="http://www.w3.org/2000/svg">
<path d="M61.0277 40.875C57.3269 40.875 54.2305 43.4561 53.4364 46.914C52.8314 46.7357 52.1933 46.6374 51.5331 46.6374C47.8427 46.6374 44.8516 49.6291 44.8516 53.3194C44.8516 57.007 47.8428 59.9998 51.5331 59.9998H51.5446H69.2565V59.9993C72.1325 59.9765 74.4547 57.6384 74.4547 54.7587C74.4547 51.8647 72.1105 49.5198 69.2158 49.5198C69.0669 49.5198 68.9197 49.5279 68.7726 49.5399C68.8028 49.254 68.8237 48.9643 68.8237 48.67C68.8237 44.3639 65.3323 40.875 61.0277 40.875Z" fill="#1BCD9A"/>
<path d="M51.5326 44.4224C51.6716 44.4224 51.8135 44.4271 51.9543 44.4335C53.565 40.9532 57.0518 38.66 61.0272 38.66C66.1573 38.66 70.398 42.5377 70.9721 47.5148C71.3002 47.5926 71.6137 47.711 71.9261 47.8342C72.2606 46.5329 72.4601 45.1768 72.4601 43.7712C72.4601 34.8091 65.1934 27.5447 56.2311 27.5447C54.6227 27.5447 53.0723 27.7812 51.6082 28.216C49.6723 19.8121 42.1519 13.543 33.1622 13.543C22.7055 13.543 14.2299 22.02 14.2299 32.4758C14.2299 33.1913 14.2718 33.8969 14.3503 34.5926C13.9949 34.5636 13.6359 34.5438 13.2741 34.5438C6.24474 34.544 0.546875 40.2417 0.546875 47.2717C0.546875 54.2682 6.19124 59.9443 13.1746 59.9986V60.0006H45.6764C43.8179 58.3686 42.6353 55.9816 42.6353 53.3202C42.6353 48.4141 46.6264 44.4224 51.5326 44.4224Z" fill="white"/>
<path d="M45.2464 8.01585L45.0276 7.98438C44.6083 7.98438 44.2656 8.32589 44.2656 8.74527V11.5269C44.2656 11.8393 44.4657 12.1208 44.7601 12.2281C49.1759 13.8095 52.7214 17.2119 54.4945 21.5625C54.6102 21.8435 54.8802 22.0241 55.1815 22.0241H58.0167C58.261 22.0241 58.492 21.9039 58.635 21.7053C58.7775 21.5043 58.8148 21.2501 58.7351 21.0191C56.5827 14.8046 51.5388 9.94302 45.2464 8.01585Z" fill="#1BCD9A"/>
<path d="M46.137 0.015432L45.9723 0C45.5524 0 45.2109 0.338878 45.2109 0.758565V3.49871C45.2109 3.83952 45.4436 4.13657 45.7781 4.22124C53.8773 6.23795 60.3092 12.487 62.5668 20.5346C62.6558 20.8557 62.9501 21.0814 63.2823 21.0814H66.0303C66.2658 21.0814 66.484 20.9726 66.6288 20.7864C66.7731 20.6014 66.8237 20.3623 66.7673 20.1373C64.2666 10.1487 56.1681 2.25122 46.137 0.015432Z" fill="white"/>
</svg>
