<svg width="61" height="61" viewBox="0 0 61 61" fill="none" xmlns="http://www.w3.org/2000/svg">
<path d="M43.2338 8.16016H15.268C12.1644 8.16016 9.64844 10.6761 9.64844 13.7797V52.242C9.64844 55.3456 12.1644 57.8615 15.268 57.8615H43.2338C46.3374 57.8615 48.8533 55.3456 48.8533 52.242V13.7797C48.8533 10.6761 46.3374 8.16016 43.2338 8.16016Z" fill="#4D4C78"/>
<path d="M45.9297 52.6645V13.3542C45.9297 12.1015 44.9141 11.0859 43.6614 11.0859L14.8476 11.0859C13.5949 11.0859 12.5793 12.1015 12.5793 13.3542V52.6645C12.5793 53.9172 13.5949 54.9328 14.8476 54.9328H43.6614C44.9141 54.9328 45.9297 53.9172 45.9297 52.6645Z" fill="#C8C2E9"/>
<path d="M41.3225 52.4245C41.9241 52.4245 42.5011 52.1855 42.9264 51.7601C43.3518 51.3347 43.5908 50.7578 43.5908 50.1562V11.0859H43.6611C44.2626 11.0859 44.8396 11.3249 45.265 11.7503C45.6904 12.1757 45.9293 12.7526 45.9293 13.3542V52.6645C45.9293 53.2661 45.6904 53.843 45.265 54.2684C44.8396 54.6938 44.2626 54.9328 43.6611 54.9328H14.8464C14.2448 54.9328 13.6679 54.6938 13.2425 54.2684C12.8171 53.843 12.5781 53.2661 12.5781 52.6645V52.4245H41.3225Z" fill="#B9B1E0"/>
<path d="M41.3906 20.4637H17.9526C17.7973 20.4637 17.6484 20.402 17.5386 20.2923C17.4289 20.1825 17.3672 20.0336 17.3672 19.8783C17.3672 19.7231 17.4289 19.5742 17.5386 19.4644C17.6484 19.3546 17.7973 19.293 17.9526 19.293H41.3906C41.5459 19.293 41.6947 19.3546 41.8045 19.4644C41.9143 19.5742 41.976 19.7231 41.976 19.8783C41.976 20.0336 41.9143 20.1825 41.8045 20.2923C41.6947 20.402 41.5459 20.4637 41.3906 20.4637Z" fill="#4D4C78"/>
<path d="M33.9213 27.1942H17.9526C17.7973 27.1942 17.6484 27.1325 17.5386 27.0227C17.4289 26.9129 17.3672 26.7641 17.3672 26.6088C17.3672 26.4536 17.4289 26.3047 17.5386 26.1949C17.6484 26.0851 17.7973 26.0234 17.9526 26.0234H33.9213C34.0766 26.0234 34.2255 26.0851 34.3352 26.1949C34.445 26.3047 34.5067 26.4536 34.5067 26.6088C34.5067 26.7641 34.445 26.9129 34.3352 27.0227C34.2255 27.1325 34.0766 27.1942 33.9213 27.1942Z" fill="#4D4C78"/>
<path d="M35.9994 33.9168H17.9526C17.7973 33.9168 17.6484 33.8552 17.5386 33.7454C17.4289 33.6356 17.3672 33.4867 17.3672 33.3315C17.3672 33.1762 17.4289 33.0273 17.5386 32.9175C17.6484 32.8078 17.7973 32.7461 17.9526 32.7461H35.9994C36.1546 32.7461 36.3035 32.8078 36.4133 32.9175C36.5231 33.0273 36.5848 33.1762 36.5848 33.3315C36.5848 33.4867 36.5231 33.6356 36.4133 33.7454C36.3035 33.8552 36.1546 33.9168 35.9994 33.9168Z" fill="#4D4C78"/>
<path d="M27.8833 40.6473H17.9526C17.7973 40.6473 17.6484 40.5856 17.5386 40.4758C17.4289 40.3661 17.3672 40.2172 17.3672 40.0619C17.3672 39.9067 17.4289 39.7578 17.5386 39.648C17.6484 39.5382 17.7973 39.4766 17.9526 39.4766H27.8833C28.0385 39.4766 28.1874 39.5382 28.2972 39.648C28.407 39.7578 28.4687 39.9067 28.4687 40.0619C28.4687 40.2172 28.407 40.3661 28.2972 40.4758C28.1874 40.5856 28.0385 40.6473 27.8833 40.6473Z" fill="#4D4C78"/>
<path opacity="0.2" d="M48.8558 24.0172L47.8284 25.0445C47.7409 24.9915 47.6432 24.9576 47.5416 24.945C47.5121 24.8579 47.4631 24.7788 47.3982 24.7137L45.9114 23.2269C45.8543 23.1698 45.7865 23.1246 45.712 23.0937C45.6374 23.0628 45.5575 23.0469 45.4767 23.0469C45.396 23.0469 45.3161 23.0628 45.2415 23.0937C45.1669 23.1246 45.0992 23.1698 45.0421 23.2269L37.2626 31.0064C37.2057 31.0633 37.1606 31.1308 37.1298 31.2052C37.099 31.2795 37.0832 31.3592 37.0832 31.4396C37.0832 31.52 37.099 31.5997 37.1298 31.674C37.1606 31.7484 37.2057 31.8159 37.2626 31.8728C37.3195 31.9297 37.387 31.9748 37.4613 32.0056C37.5357 32.0364 37.6153 32.0522 37.6958 32.0522C37.7762 32.0522 37.8559 32.0364 37.9302 32.0056C38.0045 31.9748 38.0721 31.9297 38.1289 31.8728L45.4782 24.5264L46.5319 25.5801L39.9816 32.1274L39.405 32.7069L30.8411 41.2708L30.5426 41.5664C30.4393 41.6701 30.3713 41.8036 30.3482 41.9481C30.3251 42.0925 30.348 42.2406 30.4138 42.3713L28.5319 45.7547C28.327 46.1235 28.7309 46.5274 29.0967 46.3225L32.4831 44.4406C32.6142 44.5056 32.7623 44.5278 32.9067 44.5042C33.0511 44.4805 33.1844 44.4122 33.288 44.3089L41.8577 35.7391L42.727 34.8698L48.8558 28.7411V24.0172Z" fill="black"/>
<path d="M30.2081 41.5664L32.4413 43.7996L28.6335 45.9157C28.2823 46.1118 27.8959 45.7254 28.092 45.3742L30.2081 41.5664Z" fill="#4D4C78"/>
<path d="M51.2777 24.2543L49.7545 22.7311C49.6528 22.6293 49.4878 22.6293 49.3861 22.7311L46.4568 25.6604C46.3551 25.7621 46.3551 25.927 46.4568 26.0287L47.98 27.5519C48.0818 27.6537 48.2467 27.6537 48.3484 27.5519L51.2777 24.6227C51.3794 24.5209 51.3794 24.356 51.2777 24.2543Z" fill="#46A1F8"/>
<path d="M31.6844 43.9927L30.008 42.3164C29.8829 42.1912 29.8126 42.0215 29.8126 41.8445C29.8126 41.6675 29.8829 41.4978 30.008 41.3727L45.6892 25.6914C45.8155 25.5652 45.9867 25.4943 46.1652 25.4943C46.3438 25.4943 46.515 25.5652 46.6412 25.6914L48.3114 27.3616C48.4376 27.4878 48.5086 27.6591 48.5086 27.8376C48.5086 28.0161 48.4376 28.1874 48.3114 28.3136L32.6281 43.9969C32.503 44.122 32.3332 44.1923 32.1562 44.1923C31.9793 44.1923 31.8095 44.122 31.6844 43.9969V43.9927Z" fill="#67BAEB"/>
<path d="M48.0385 27.082L32.6346 42.4859C32.5095 42.6107 32.3401 42.6807 32.1634 42.6807C31.9867 42.6807 31.8173 42.6107 31.6922 42.4859L30.2961 41.0898L30.0151 41.3737C29.8904 41.4988 29.8203 41.6683 29.8203 41.845C29.8203 42.0216 29.8904 42.1911 30.0151 42.3162L31.6922 43.9933C31.8173 44.118 31.9867 44.1881 32.1634 44.1881C32.3401 44.1881 32.5095 44.118 32.6346 43.9933L48.3166 28.3113C48.3793 28.249 48.4291 28.1749 48.4631 28.0933C48.4971 28.0117 48.5146 27.9241 48.5146 27.8357C48.5146 27.7473 48.4971 27.6597 48.4631 27.5781C48.4291 27.4965 48.3793 27.4224 48.3166 27.3601L48.0385 27.082Z" fill="#46A1F8"/>
<path d="M41.6431 34.9789L39.0236 32.3594L38.1953 33.1877L40.8148 35.8072L41.6431 34.9789Z" fill="#4D4C78"/>
<path d="M36.8425 32.2875C36.7268 32.2868 36.6139 32.252 36.518 32.1875C36.422 32.1229 36.3471 32.0316 36.3028 31.9248C36.2584 31.818 36.2466 31.7005 36.2686 31.5869C36.2907 31.4734 36.3457 31.3689 36.4269 31.2865L43.8581 23.8553C43.9124 23.8008 43.977 23.7577 44.0481 23.7282C44.1191 23.6988 44.1953 23.6836 44.2722 23.6836C44.3491 23.6836 44.4253 23.6988 44.4964 23.7282C44.5674 23.7577 44.632 23.8008 44.6864 23.8553L46.1059 25.2777C46.1645 25.3311 46.2118 25.3958 46.2447 25.4679C46.2776 25.5401 46.2955 25.6182 46.2973 25.6974C46.2991 25.7767 46.2848 25.8555 46.2552 25.9291C46.2256 26.0027 46.1814 26.0695 46.1252 26.1254C46.0691 26.1814 46.0021 26.2254 45.9284 26.2547C45.8547 26.284 45.7759 26.298 45.6966 26.2959C45.6173 26.2939 45.5393 26.2757 45.4673 26.2425C45.3953 26.2094 45.3307 26.1619 45.2776 26.1031L44.2737 25.0992L37.2551 32.1148C37.2011 32.1693 37.1369 32.2127 37.066 32.2423C36.9952 32.272 36.9192 32.2873 36.8425 32.2875Z" fill="#4D4C78"/>
<path d="M27.8833 46.7098H17.9526C17.7973 46.7098 17.6484 46.6481 17.5386 46.5383C17.4289 46.4286 17.3672 46.2797 17.3672 46.1244C17.3672 45.9692 17.4289 45.8203 17.5386 45.7105C17.6484 45.6007 17.7973 45.5391 17.9526 45.5391H27.8833C28.0385 45.5391 28.1874 45.6007 28.2972 45.7105C28.407 45.8203 28.4687 45.9692 28.4687 46.1244C28.4687 46.2797 28.407 46.4286 28.2972 46.5383C28.1874 46.6481 28.0385 46.7098 27.8833 46.7098Z" fill="#4D4C78"/>
<path opacity="0.2" d="M17.9375 8.16016V11.2977C17.9383 12.0737 18.2469 12.8177 18.7956 13.3664C19.3443 13.9152 20.0883 14.2238 20.8643 14.2245H37.6409C38.4167 14.223 39.1602 13.9141 39.7088 13.3656C40.2573 12.817 40.5662 12.0735 40.5677 11.2977V8.16016H17.9375Z" fill="black"/>
<path d="M20.8657 6.32754C23.1764 6.32924 25.4073 5.48249 27.135 3.94803C27.7183 3.42799 28.4725 3.14062 29.254 3.14062C30.0355 3.14062 30.7897 3.42799 31.373 3.94803C33.1001 5.48344 35.3314 6.33033 37.6423 6.32754C38.0459 6.32754 38.433 6.48789 38.7185 6.77331C39.0039 7.05873 39.1642 7.44584 39.1642 7.84949V11.2973C39.1642 11.7009 39.0039 12.0881 38.7185 12.3735C38.433 12.6589 38.0459 12.8192 37.6423 12.8192H20.8657C20.4621 12.8192 20.0749 12.6589 19.7895 12.3735C19.5041 12.0881 19.3438 11.7009 19.3438 11.2973V7.84949C19.3438 7.44584 19.5041 7.05873 19.7895 6.77331C20.0749 6.48789 20.4621 6.32754 20.8657 6.32754Z" fill="#67BAEB"/>
<path d="M30.855 3.6321C29.8951 3.63123 28.9686 3.98451 28.253 4.62429C26.1348 6.50719 23.3983 7.54573 20.5642 7.54234C20.1156 7.54199 19.682 7.70419 19.3438 7.99893V7.84966C19.3438 7.44601 19.5041 7.0589 19.7895 6.77348C20.0749 6.48805 20.4621 6.32771 20.8657 6.32771C23.1764 6.32941 25.4073 5.48266 27.135 3.94819C27.652 3.48751 28.305 3.20776 28.9952 3.15126C29.6854 3.09475 30.3752 3.26457 30.9603 3.63502L30.855 3.6321Z" fill="#83D0FB"/>
<path d="M35.8521 11.6384C36.2557 11.6384 36.6428 11.478 36.9283 11.1926C37.2137 10.9072 37.374 10.5201 37.374 10.1164V6.66861C37.3739 6.55131 37.3602 6.43443 37.3331 6.32031L37.6433 6.32617C38.0469 6.32617 38.4341 6.48651 38.7195 6.77194C39.0049 7.05736 39.1652 7.44447 39.1652 7.84812V11.2959C39.1652 11.6996 39.0049 12.0867 38.7195 12.3721C38.4341 12.6575 38.0469 12.8179 37.6433 12.8179H20.8667C20.5224 12.8181 20.1882 12.7016 19.9187 12.4873C19.6492 12.2731 19.4603 11.9738 19.3828 11.6384H35.8521Z" fill="#46A1F8"/>
<path d="M44.9376 28.2855C45.1879 28.0352 45.1879 27.6293 44.9376 27.379C44.6873 27.1287 44.2815 27.1287 44.0311 27.379L40.7343 30.6759C40.484 30.9262 40.484 31.332 40.7343 31.5823C40.9846 31.8327 41.3905 31.8327 41.6408 31.5823L44.9376 28.2855Z" fill="#83D0FB"/>
<path d="M37.8751 35.3441C38.1254 35.0938 38.1254 34.6879 37.8751 34.4376C37.6248 34.1873 37.219 34.1873 36.9686 34.4376L33.6718 37.7345C33.4215 37.9848 33.4215 38.3906 33.6718 38.6409C33.9221 38.8912 34.328 38.8912 34.5783 38.6409L37.8751 35.3441Z" fill="#83D0FB"/>
<path d="M14.6123 24.0654C14.6123 23.5029 14.1569 23.0469 13.5952 23.0469C13.0335 23.0469 12.5781 23.5029 12.5781 24.0654V36.1392C12.5781 36.7017 13.0335 37.1577 13.5952 37.1577C14.1569 37.1577 14.6123 36.7017 14.6123 36.1392V24.0654Z" fill="#DFDAFD"/>
<path d="M14.6123 39.9053C14.6123 39.3427 14.1569 38.8867 13.5952 38.8867C13.0335 38.8867 12.5781 39.3427 12.5781 39.9053V43.1695C12.5781 43.7321 13.0335 44.1881 13.5952 44.1881C14.1569 44.1881 14.6123 43.7321 14.6123 43.1695V39.9053Z" fill="#DFDAFD"/>
</svg>
