<svg width="60" height="60" viewBox="0 0 60 60" fill="none" xmlns="http://www.w3.org/2000/svg">
<path d="M40.4301 38.4857L40.5977 43.3006C40.5982 43.3155 40.5987 43.3306 40.599 43.3455C40.6514 45.3992 38.8597 47.0383 36.8067 47.1097L25.7726 47.4937C23.7194 47.5651 21.8181 46.0543 21.7278 44.0017C21.7271 43.9868 21.7265 43.9722 21.726 43.9573L21.5585 39.1424C21.5246 38.17 21.6386 37.241 21.8754 36.3565C22.9364 32.5449 26.3903 29.6487 30.5487 29.504L30.7922 29.4955C34.9743 29.35 38.5974 31.9999 39.9197 35.7286C40.2181 36.5943 40.3963 37.513 40.4301 38.4857Z" fill="#0076BE"/>
<path d="M31.7987 26.1704C34.8125 25.377 36.6124 22.2907 35.819 19.277C35.0256 16.2633 31.9393 14.4634 28.9256 15.2568C25.9118 16.0502 24.1119 19.1365 24.9053 22.1502C25.6987 25.1639 28.785 26.9638 31.7987 26.1704Z" fill="#0076BE"/>
<path d="M40.7794 38.0918V42.6138C40.7647 44.2556 39.4886 45.5699 37.9169 45.9035C38.4672 45.3181 38.8124 44.5543 38.8213 43.7027V39.1836C38.8213 38.2792 38.6868 37.4187 38.4378 36.6051C37.3285 33.0988 34.0506 30.5203 30.1606 30.5203H29.9324C28.8173 30.5203 27.749 30.7338 26.7656 31.1232C28.2028 30.0609 29.9794 29.4316 31.8905 29.4316H32.1187C36.0084 29.4316 39.2866 32.0103 40.3958 35.5165C40.6448 36.33 40.7794 37.1874 40.7794 38.0918Z" fill="#478DD9"/>
<path d="M37.2543 20.2622C37.2543 22.633 35.6797 24.638 33.5197 25.2848C34.6084 24.3248 35.2962 22.917 35.2962 21.3511C35.2962 18.4537 32.9488 16.1063 30.0513 16.1063C29.5274 16.1063 29.0241 16.1822 28.5469 16.3258C29.4688 15.5093 30.6806 15.0176 32.0094 15.0176C34.9069 15.0174 37.2543 17.3648 37.2543 20.2622Z" fill="#478DD9"/>
<path d="M36.7846 47.8933H25.7191C23.1393 47.8933 21.0226 45.9102 21.0002 43.473L21 43.421V38.5923C21 37.5712 21.1509 36.5584 21.4488 35.583C22.7755 31.3876 26.7556 28.4629 31.13 28.4629H31.3742C35.8187 28.4629 39.7079 31.3213 41.0516 35.5758C41.3525 36.5559 41.5039 37.5689 41.5039 38.5926L41.5037 43.4744C41.4808 45.9107 39.3639 47.8933 36.7846 47.8933ZM31.1297 30.0406C27.436 30.0406 24.0747 32.5123 22.9556 36.0509C22.7058 36.8693 22.5779 37.727 22.5779 38.5921L22.5782 43.4569C22.5924 45.0069 24.0306 46.3152 25.7188 46.3152H36.7844C38.4726 46.3152 39.9111 45.0071 39.9253 43.4586L39.9255 43.4208V38.5921C39.9255 37.7254 39.7972 36.8682 39.5446 36.0444C38.411 32.4556 35.1267 30.0403 31.3739 30.0403H31.1297V30.0406Z" fill="#F4F9FF"/>
<path d="M31.2571 26.8892C27.7036 26.8892 24.8125 23.9984 24.8125 20.4446C24.8125 16.8911 27.7036 14 31.2571 14C34.8107 14 37.7015 16.8911 37.7015 20.4446C37.7015 23.9984 34.8107 26.8892 31.2571 26.8892ZM31.2571 15.5781C28.5736 15.5781 26.3904 17.7613 26.3904 20.4448C26.3904 23.1281 28.5736 25.3113 31.2571 25.3113C33.9404 25.3113 36.1236 23.1281 36.1236 20.4448C36.1236 17.7613 33.9404 15.5781 31.2571 15.5781Z" fill="#F4F9FF"/>
<path d="M29.9974 8.16667C29.5933 8.16667 29.2656 7.83918 29.2656 7.4349V0.731868C29.2656 0.435956 29.4439 0.169029 29.7173 0.0558984C29.9905 -0.0576646 30.3054 0.00506497 30.5146 0.214453L32.6429 2.34273C32.9286 2.62848 32.9286 3.09182 32.6427 3.37756C32.3571 3.66309 31.8936 3.66331 31.6081 3.37735L30.729 2.49826V7.4349C30.729 7.83918 30.4015 8.16667 29.9974 8.16667Z" fill="#F4F9FF"/>
<path d="M27.8724 3.59156C27.685 3.59156 27.4977 3.52018 27.3549 3.3772C27.0692 3.09145 27.0692 2.62812 27.3549 2.34259L29.4834 0.21431C29.769 -0.0714365 30.2325 -0.0714365 30.5181 0.21431C30.8038 0.500056 30.8038 0.963392 30.5181 1.24892L28.3898 3.3772C28.247 3.52018 28.0597 3.59156 27.8724 3.59156Z" fill="#F4F9FF"/>
<path d="M45.9583 14.7755C45.7712 14.7755 45.5836 14.7041 45.4409 14.5611C45.1551 14.2754 45.1551 13.812 45.4409 13.5265L50.1807 8.78672C50.3899 8.57733 50.705 8.5146 50.978 8.62816C51.2516 8.74129 51.4297 9.00822 51.4297 9.30413V12.3139C51.4297 12.7179 51.1022 13.0457 50.6979 13.0457C50.2938 13.0457 49.9661 12.7182 49.9661 12.3139V11.0705L46.4753 14.5611C46.3329 14.7041 46.1456 14.7755 45.9583 14.7755Z" fill="#F4F9FF"/>
<path d="M50.6947 10.0358H47.6849C47.2808 10.0358 46.9531 9.70833 46.9531 9.30404C46.9531 8.89976 47.2806 8.57227 47.6849 8.57227H50.6947C51.0987 8.57227 51.4264 8.89976 51.4264 9.30404C51.4264 9.70833 51.0989 10.0358 50.6947 10.0358Z" fill="#F4F9FF"/>
<path d="M57.1427 32.8594C56.9554 32.8594 56.7681 32.788 56.6253 32.645C56.3396 32.3593 56.3396 31.896 56.6253 31.6104L57.5044 30.7311H52.5677C52.1636 30.7311 51.8359 30.4036 51.8359 29.9994C51.8359 29.5953 52.1634 29.2676 52.5677 29.2676H59.2708C59.5667 29.2676 59.8336 29.4458 59.9468 29.7192C60.0601 29.9927 59.9976 30.3074 59.7882 30.5166L57.6599 32.6448C57.5174 32.7878 57.33 32.8594 57.1427 32.8594Z" fill="#F4F9FF"/>
<path d="M59.2663 30.73C59.0792 30.73 58.8919 30.6587 58.7489 30.5159L56.6206 28.3876C56.3348 28.1019 56.3348 27.6385 56.6204 27.353C56.9061 27.0673 57.3695 27.0673 57.6552 27.3528L59.7835 29.4811C60.0692 29.7668 60.0692 30.2302 59.7837 30.5157C59.6409 30.6587 59.4534 30.73 59.2663 30.73Z" fill="#F4F9FF"/>
<path d="M50.6979 51.4259H47.6881C47.2841 51.4259 46.9563 51.0985 46.9563 50.6942C46.9563 50.2899 47.2838 49.9624 47.6881 49.9624H48.9315L45.4409 46.4716C45.1551 46.1858 45.1551 45.7225 45.4409 45.437C45.7264 45.1512 46.19 45.1512 46.4755 45.437L51.2153 50.1768C51.4247 50.3859 51.4872 50.7007 51.3739 50.9741C51.2607 51.2479 50.994 51.4259 50.6979 51.4259Z" fill="#F4F9FF"/>
<path d="M50.6927 51.4266C50.2886 51.4266 49.9609 51.0991 49.9609 50.6949V47.6849C49.9609 47.2808 50.2884 46.9531 50.6927 46.9531C51.0968 46.9531 51.4245 47.2806 51.4245 47.6849V50.6949C51.4245 51.0991 51.097 51.4266 50.6927 51.4266Z" fill="#F4F9FF"/>
<path d="M30.0009 59.9986C29.8105 59.9986 29.6234 59.9242 29.4835 59.7845L27.355 57.6562C27.0692 57.3704 27.0692 56.9071 27.3547 56.6214C27.6405 56.3356 28.1038 56.3356 28.3896 56.6211L29.2689 57.5004V52.5638C29.2689 52.1597 29.5964 51.832 30.0007 51.832C30.4047 51.832 30.7324 52.1595 30.7324 52.5638V59.2668C30.7324 59.5627 30.5542 59.8297 30.2808 59.9428C30.1904 59.9804 30.0952 59.9986 30.0009 59.9986Z" fill="#F4F9FF"/>
<path d="M29.9973 59.9998C29.81 59.9998 29.6227 59.9284 29.4799 59.7854C29.1942 59.4997 29.1942 59.0363 29.4799 58.7508L31.6082 56.6225C31.8938 56.3368 32.3573 56.3368 32.6428 56.6225C32.9286 56.9083 32.9286 57.3716 32.6428 57.6571L30.5145 59.7854C30.3718 59.9284 30.1845 59.9998 29.9973 59.9998Z" fill="#F4F9FF"/>
<path d="M9.30969 51.4277C9.21538 51.4277 9.12042 51.4095 9.02979 51.3719C8.75615 51.2588 8.57812 50.9918 8.57812 50.6959V47.686C8.57812 47.2819 8.90563 46.9542 9.30992 46.9542C9.7142 46.9542 10.0417 47.2817 10.0417 47.686V48.9295L13.5325 45.4389C13.8181 45.1532 14.2816 45.1532 14.5671 45.4389C14.8529 45.7247 14.8529 46.188 14.5671 46.4735L9.82733 51.2133C9.68716 51.3535 9.50005 51.4277 9.30969 51.4277Z" fill="#F4F9FF"/>
<path d="M12.3199 51.4264H9.30992C8.90585 51.4264 8.57812 51.099 8.57812 50.6947C8.57812 50.2904 8.90563 49.9629 9.30992 49.9629H12.3199C12.724 49.9629 13.0517 50.2904 13.0517 50.6947C13.0517 51.099 12.724 51.4264 12.3199 51.4264Z" fill="#F4F9FF"/>
<path d="M7.43479 30.7302H0.731726C0.435812 30.7302 0.168884 30.552 0.055753 30.2786C-0.0575942 30.0052 0.00514308 29.6904 0.214316 29.4813L2.3426 27.353C2.62813 27.0672 3.09169 27.0672 3.37722 27.353C3.66297 27.6387 3.66297 28.1021 3.37722 28.3876L2.49813 29.2667H7.43457C7.83864 29.2667 8.16635 29.5942 8.16635 29.9985C8.16656 30.4027 7.83886 30.7302 7.43479 30.7302Z" fill="#F4F9FF"/>
<path d="M2.85998 32.8593C2.67266 32.8593 2.48534 32.7879 2.34257 32.6449L0.214286 30.5166C-0.0714613 30.2309 -0.0714664 29.7675 0.214497 29.4818C0.500028 29.1962 0.963588 29.196 1.24912 29.482L3.3774 31.6103C3.66315 31.896 3.66316 32.3594 3.37719 32.6451C3.23464 32.7877 3.04731 32.8593 2.85998 32.8593Z" fill="#F4F9FF"/>
<path d="M14.0497 14.7754C13.8626 14.7754 13.6751 14.704 13.5323 14.561L8.79249 9.82124C8.5831 9.61207 8.52058 9.29734 8.63393 9.02392C8.74706 8.75029 9.01398 8.57227 9.3099 8.57227H12.3199C12.7239 8.57227 13.0517 8.89976 13.0517 9.30404C13.0517 9.70833 12.7242 10.0358 12.3199 10.0358H11.0763L14.5669 13.5266C14.8527 13.8124 14.8527 14.2757 14.5669 14.5613C14.4244 14.704 14.237 14.7754 14.0497 14.7754Z" fill="#F4F9FF"/>
<path d="M9.30991 13.0456C8.90584 13.0456 8.57812 12.7181 8.57812 12.3138V9.30404C8.57812 8.89997 8.90562 8.57227 9.30991 8.57227C9.71419 8.57227 10.0417 8.89976 10.0417 9.30404V12.3138C10.0417 12.7181 9.71419 13.0456 9.30991 13.0456Z" fill="#F4F9FF"/>
</svg>
