<svg width="71" height="60" viewBox="0 0 71 60" fill="none" xmlns="http://www.w3.org/2000/svg">
<path d="M40.9596 15.5332C39.8227 15.714 38.7011 15.3617 38.4536 14.7496C38.2194 14.1395 38.1619 12.0156 39.041 11.2998C39.9346 10.5737 39.8483 8.98074 38.8459 7.75857C37.8425 6.53639 36.3101 6.13481 35.4299 6.86298C34.5364 7.5891 32.4699 7.09404 31.9112 6.73561C31.3628 6.39155 31.2406 5.21152 31.6493 4.15059C32.0601 3.07734 31.1912 1.74423 29.7226 1.18245C28.2395 0.631954 26.7153 1.04073 26.3045 2.11501C26.0878 2.68296 25.4223 3.11736 24.7403 3.3926C24.1415 3.64114 23.5191 3.78186 23.209 3.76132C22.5486 3.7264 21.8553 2.78665 21.6745 1.6487C21.4917 0.524094 20.0744 -0.198921 18.5215 0.0485943C16.9676 0.309461 15.845 1.43199 16.0247 2.56892C16.2075 3.69352 14.7316 5.24541 14.1503 5.54941C13.5711 5.84006 12.5091 5.35321 11.7799 4.47304C11.0661 3.58158 9.47106 3.68019 8.25092 4.67025C7.03078 5.66031 6.62712 7.20602 7.35325 8.09851C8.08143 8.97868 7.58436 11.0584 7.22797 11.6048C6.87158 12.1512 5.70382 12.2755 4.62952 11.8646C3.56856 11.4559 2.23543 12.3247 1.67466 13.7934C1.1108 15.2744 1.53291 16.8006 2.60721 17.2114C3.68152 17.6222 4.28853 19.6465 4.25361 20.3068C4.21869 20.9672 3.26558 21.6584 2.14095 21.8412C1.01632 22.0241 0.293261 23.4414 0.540781 24.9943C0.801654 26.5482 1.92424 27.6707 3.06119 27.491C4.18582 27.3082 5.73769 28.784 6.0304 29.3499C6.33441 29.9312 5.84554 31.0065 4.96432 31.7347C4.07284 32.4485 4.17142 34.0435 5.1615 35.2636C6.15159 36.4837 7.6963 36.8874 8.57752 36.1592C9.47106 35.4331 11.5375 35.9281 12.0962 36.2865C12.6426 36.6429 12.7535 37.8086 12.356 38.8849C11.9473 39.9459 12.8162 41.2789 14.2982 41.8417C15.7669 42.4035 17.2931 41.9814 17.7039 40.9082C17.9206 40.3402 18.5862 39.9058 19.2558 39.6285C19.868 39.381 20.4893 39.2403 20.7995 39.2619C21.4599 39.2968 22.1511 40.2498 22.3339 41.3744C22.5147 42.5113 23.9341 43.2221 25.4859 42.9746C27.0378 42.7271 28.1635 41.5911 27.9807 40.4665C27.7999 39.3296 29.2758 37.7767 29.8417 37.484C30.4353 37.1821 31.4984 37.6689 32.2265 38.5501C32.9403 39.4415 34.5333 39.3563 35.7555 38.3529C36.9757 37.3629 37.3793 35.8172 36.6511 34.937C35.925 34.0435 36.42 31.9771 36.7774 31.4307C37.1359 30.871 38.3016 30.76 39.3779 31.1585C40.4389 31.5673 41.772 30.6984 42.3328 29.2298C42.8966 27.7488 42.4745 26.2216 41.4013 25.8118C40.327 25.401 39.72 23.3767 39.7539 22.7163C39.7888 22.0559 40.7419 21.3647 41.8665 21.1819C43.0035 21.0012 43.7142 19.5818 43.4667 18.0299C43.2191 16.476 42.0843 15.3504 40.9596 15.5332ZM24.0121 33.8329C22.6872 34.0507 21.3962 34.0383 20.1329 33.8463C14.9258 33.0585 10.5772 29.0058 9.68365 23.5184C8.58573 16.7071 13.1972 10.3025 19.9984 9.19024C21.3233 8.9725 22.6143 8.98584 23.8652 9.17482C29.0858 9.9646 33.4323 14.0297 34.3269 19.5048C35.4248 26.3151 30.8133 32.7207 24.0121 33.8329Z" fill="white"/>
<path d="M69.5073 46.7589C70.1892 46.649 70.6268 45.7853 70.4809 44.8363C70.3227 43.8997 69.6407 43.2177 68.9475 43.3275C68.2655 43.4498 67.5846 43.23 67.4387 42.8654C67.2929 42.4885 67.2559 41.1985 67.792 40.76C68.3271 40.3214 68.2789 39.3601 67.6699 38.6186C67.0731 37.8761 66.1364 37.6327 65.6013 38.0712C65.0662 38.5097 63.8122 38.2171 63.4722 37.9983C63.1436 37.7908 63.0707 37.0729 63.3141 36.428C63.5575 35.783 63.0337 34.9675 62.134 34.6265C61.2456 34.2855 60.3202 34.5413 60.0655 35.1986C59.9443 35.5396 59.5417 35.8066 59.1288 35.9771C58.7642 36.1229 58.3863 36.2082 58.1921 36.1958C57.7906 36.1712 57.3766 35.5991 57.2678 34.9182C57.1579 34.2249 56.2942 33.7987 55.3452 33.9446C54.4085 34.1027 53.7265 34.7847 53.8364 35.4656C53.9463 36.1589 53.0579 37.0965 52.7046 37.2794C52.3512 37.4622 51.7063 37.1695 51.2688 36.622C50.8302 36.087 49.8689 36.1476 49.1273 36.7433C48.3971 37.3523 48.1414 38.2766 48.5799 38.824C49.0185 39.3591 48.7258 40.6131 48.507 40.9531C48.2882 41.2817 47.5816 41.3546 46.9366 41.0989C46.2793 40.8555 45.4761 41.3906 45.1351 42.2789C44.7942 43.1673 45.0499 44.104 45.7072 44.3474C46.3522 44.5908 46.7291 45.8202 46.7055 46.2218C46.6809 46.6234 46.1088 47.0372 45.4155 47.1584C44.7336 47.2683 44.2961 48.132 44.4542 49.0687C44.6124 50.0054 45.2943 50.6873 45.9753 50.5774C46.6685 50.4675 47.6063 51.3559 47.7891 51.7092C47.9719 52.0625 47.6679 52.7075 47.1318 53.145C46.5967 53.5835 46.6573 54.5572 47.253 55.2864C47.8497 56.0289 48.7864 56.2723 49.3338 55.8338C49.8689 55.3952 51.1229 55.7003 51.4516 55.9067C51.7926 56.1255 51.8655 56.8321 51.6221 57.4883C51.3663 58.1333 51.9014 58.9365 52.7898 59.2774C53.6905 59.6184 54.6149 59.3627 54.8583 58.7177C54.9919 58.3767 55.3934 58.1097 55.8073 57.9392C56.1729 57.7811 56.5499 57.7081 56.7327 57.7205C57.1343 57.7328 57.5482 58.3172 57.6694 58.9981C57.7793 59.6801 58.643 60.1176 59.5797 59.9717C60.5164 59.8136 61.1983 59.1316 61.0884 58.4383C60.9786 57.7564 61.8669 56.8198 62.2203 56.6369C62.5736 56.4541 63.2186 56.7468 63.6561 57.2819C64.1059 57.817 65.0683 57.7687 65.8098 57.1607C66.5401 56.564 66.7835 55.6273 66.3449 55.0923C65.9074 54.5448 66.1991 53.2909 66.4179 52.9622C66.6366 52.6336 67.3432 52.5606 67.9995 52.8041C68.6445 53.0475 69.4477 52.5236 69.7887 51.6239C70.1296 50.7356 69.8739 49.8102 69.2289 49.5555C68.5839 49.3121 68.207 48.0827 68.2306 47.6812C68.2419 47.2816 68.8263 46.8688 69.5073 46.7589ZM58.6769 54.4257C57.8861 54.5592 57.0952 54.5593 56.328 54.4381C53.1637 53.9636 50.5354 51.5048 50.0003 48.171C49.3307 44.0454 52.1305 40.1633 56.2551 39.4947C57.046 39.3611 57.8368 39.3612 58.5916 39.4824C61.756 39.9569 64.3966 42.4155 64.9317 45.737C65.6013 49.8739 62.8016 53.7561 58.6769 54.4257Z" fill="white"/>
<path d="M48.4668 22.1944C48.9834 22.1101 49.6849 22.7797 49.8225 23.0437C49.9601 23.3087 49.7403 23.7934 49.3377 24.1262C48.932 24.4559 48.9741 25.1799 49.4271 25.7335C49.88 26.2912 50.5825 26.474 50.9841 26.1423C51.3897 25.8116 52.3336 26.0386 52.5832 26.2008C52.8359 26.3652 52.8903 26.894 52.7034 27.3819C52.5216 27.8677 52.918 28.4798 53.5856 28.7335C54.2614 28.9862 54.9577 28.7961 55.1416 28.3093C55.2391 28.0526 55.5432 27.8533 55.8513 27.726C56.1286 27.6099 56.41 27.5493 56.5507 27.5596C56.8537 27.576 57.1659 28.0084 57.2512 28.5229C57.3343 29.0395 57.9804 29.3631 58.688 29.2501C59.3956 29.131 59.904 28.6195 59.8219 28.1039C59.7377 27.5863 60.4093 26.8858 60.6723 26.7451C60.9383 26.6106 61.4261 26.8304 61.7558 27.2361C62.0845 27.6356 62.8075 27.5976 63.3632 27.1436C63.9209 26.6907 64.1037 25.9902 63.774 25.5846C63.4454 25.182 63.6682 24.2382 63.8295 23.9865C63.9907 23.7339 64.5217 23.6805 65.0126 23.8664C65.5015 24.0512 66.1075 23.6558 66.3632 22.9851C66.6159 22.3155 66.4238 21.6151 65.9359 21.4292C65.4491 21.2423 65.1708 20.322 65.1851 20.0211C65.2006 19.7171 65.634 19.4029 66.1506 19.3228C66.6641 19.2375 66.9918 18.5905 66.8767 17.8808C66.7627 17.1752 66.2472 16.6628 65.7316 16.7459C65.217 16.8312 64.7066 16.671 64.5946 16.3906C64.4868 16.1092 64.4601 15.1458 64.8627 14.8141C65.2663 14.4844 65.2262 13.7603 64.7733 13.2047C64.3183 12.648 63.6189 12.4652 63.2143 12.7949C62.8076 13.1287 61.8678 12.8997 61.6151 12.7405C61.3635 12.5792 61.308 12.0472 61.496 11.5584C61.6798 11.0705 61.2844 10.4605 60.6137 10.2078C59.942 9.95311 59.2436 10.1442 59.0577 10.632C58.9612 10.8888 58.6562 11.0859 58.3491 11.2133C58.0728 11.3283 57.7893 11.39 57.6497 11.3838C57.3477 11.3715 57.0334 10.9329 56.9482 10.4214C56.865 9.90485 56.2159 9.57724 55.5093 9.69329C54.7996 9.80627 54.2901 10.3208 54.3764 10.8354C54.4575 11.3509 53.7879 12.0596 53.5239 12.1951C53.2579 12.3307 52.7712 12.1099 52.4435 11.7052C52.1128 11.3016 51.3877 11.3437 50.832 11.7976C50.2774 12.2485 50.0936 12.9511 50.4253 13.3547C50.755 13.7583 50.5301 14.7021 50.3689 14.9517C50.2066 15.2044 49.6756 15.2577 49.1846 15.0729C48.6978 14.889 48.0888 15.2875 47.8371 15.9582C47.5814 16.6258 47.7714 17.3272 48.2593 17.509C48.7471 17.698 49.0265 18.6182 49.0111 18.9181C48.9946 19.2211 48.5623 19.5353 48.0477 19.6175C47.5331 19.7038 47.2055 20.3508 47.3195 21.0574C47.4356 21.7661 47.9522 22.2776 48.4668 22.1944ZM56.1871 13.8558C56.7859 13.7603 57.3806 13.7614 57.9485 13.8476C60.3241 14.2081 62.3053 16.0609 62.713 18.5566C63.2122 21.6603 61.1098 24.5812 58.0112 25.0834C57.4114 25.1799 56.8177 25.1779 56.2467 25.0906C53.8711 24.7311 51.892 22.8825 51.4842 20.3806C50.982 17.2841 53.0864 14.3601 56.1871 13.8558Z" fill="white"/>
</svg>
