<svg width="61" height="60" viewBox="0 0 61 60" fill="none" xmlns="http://www.w3.org/2000/svg">
<path d="M25.3276 27.4121H2.56895C1.4259 27.4121 0.5 26.4862 0.5 25.3432V2.58457C0.5 1.44141 1.4259 0.515625 2.56895 0.515625H25.3276C26.4706 0.515625 27.3965 1.44152 27.3965 2.58457V25.3432C27.3965 26.4862 26.4707 27.4121 25.3276 27.4121Z" fill="#48A0DC"/>
<path d="M55.3309 30.5141C54.7598 30.5141 54.2963 30.0506 54.2963 29.4795C54.2963 28.8133 54.2715 28.143 54.2218 27.4882C54.1783 26.9182 54.6045 26.4217 55.1745 26.3782C55.7435 26.3336 56.2411 26.762 56.2845 27.332C56.3383 28.0385 56.3653 28.7617 56.3653 29.4795C56.3654 30.0506 55.9019 30.5141 55.3309 30.5141Z" fill="#B0B6BB"/>
<path d="M52.7507 19.2708C52.372 19.2708 52.0069 19.0619 51.8248 18.7008C51.4855 18.0243 51.1048 17.357 50.6951 16.7187C50.3868 16.2377 50.5264 15.5984 51.0064 15.289C51.4864 14.9807 52.1278 15.1194 52.4361 15.6015C52.8851 16.2998 53.302 17.0301 53.6745 17.7718C53.931 18.2818 53.7241 18.9045 53.2141 19.161C53.0652 19.2357 52.9069 19.2708 52.7507 19.2708ZM54.7307 24.8954C54.2548 24.8954 53.8266 24.5654 53.7199 24.0813C53.5564 23.3323 53.3558 22.5885 53.124 21.8716C52.9471 21.3285 53.2461 20.7451 53.7892 20.5692C54.3343 20.3922 54.9168 20.6913 55.0916 21.2343C55.3451 22.0154 55.5633 22.8243 55.7423 23.6405C55.8634 24.1981 55.5096 24.7495 54.952 24.8716C54.8776 24.8881 54.8031 24.8954 54.7307 24.8954Z" fill="#B0B6BB"/>
<path d="M39.4674 7.94317C39.362 7.94317 39.2544 7.92665 39.1488 7.89243C38.4329 7.66075 37.6891 7.45895 36.9391 7.29547C36.3805 7.17337 36.0277 6.622 36.1488 6.06337C36.2718 5.50579 36.8212 5.152 37.3809 5.27411C38.1961 5.452 39.0061 5.67137 39.7861 5.9238C40.3291 6.09969 40.6282 6.68305 40.4512 7.22727C40.3095 7.66391 39.9039 7.94317 39.4674 7.94317ZM44.855 10.485C44.6636 10.485 44.4702 10.4322 44.2974 10.3204C43.6633 9.91391 42.9971 9.53317 42.3164 9.19075C41.8064 8.93423 41.6005 8.31243 41.858 7.80149C42.1135 7.29149 42.7343 7.08559 43.2464 7.34317C43.9912 7.7177 44.7215 8.13454 45.4156 8.58044C45.8967 8.88876 46.0353 9.52907 45.727 10.0101C45.5295 10.3174 45.1964 10.485 44.855 10.485ZM49.3964 14.3466C49.1118 14.3466 48.8294 14.2307 48.6256 14.0032C48.1177 13.4373 47.5756 12.8953 47.0149 12.3924C46.5897 12.0117 46.5546 11.3579 46.9352 10.9317C47.3159 10.5076 47.9697 10.4693 48.3959 10.852C49.0125 11.4044 49.6084 11.9993 50.1659 12.6209C50.5467 13.0461 50.5114 13.6999 50.0863 14.0826C49.8888 14.2588 49.6415 14.3466 49.3964 14.3466Z" fill="#B0B6BB"/>
<path d="M33.6045 6.79898C33.5786 6.79898 33.5518 6.79793 33.5248 6.79594C32.87 6.74625 32.2007 6.72141 31.5345 6.72141C30.9624 6.72141 30.5 6.25793 30.5 5.68688C30.5 5.11582 30.9624 4.65234 31.5345 4.65234C32.2524 4.65234 32.9745 4.6793 33.6821 4.73309C34.2511 4.77551 34.6783 5.27309 34.6348 5.84309C34.5945 6.38625 34.1404 6.79898 33.6045 6.79898Z" fill="#B0B6BB"/>
<path d="M5.75168 34.6536C5.21578 34.6536 4.76168 34.2409 4.72137 33.6977C4.66758 32.9902 4.64062 32.268 4.64062 31.5502C4.64062 30.978 5.1041 30.5156 5.67516 30.5156C6.24621 30.5156 6.70969 30.978 6.70969 31.5502C6.70969 32.2164 6.73453 32.8856 6.78422 33.5405C6.8277 34.1105 6.40043 34.608 5.83148 34.6505C5.80441 34.6526 5.77758 34.6536 5.75168 34.6536Z" fill="#B0B6BB"/>
<path d="M6.89265 40.5134C6.45612 40.5134 6.05054 40.2341 5.90886 39.7975C5.65538 39.0164 5.43718 38.2075 5.25812 37.3912C5.13706 36.8326 5.49085 36.2823 6.04843 36.1602C6.60601 36.0402 7.15737 36.3919 7.28054 36.9495C7.44401 37.6995 7.64464 38.4432 7.87644 39.1591C8.05339 39.7032 7.75433 40.2867 7.21128 40.4626C7.10581 40.4968 6.99823 40.5134 6.89265 40.5134ZM9.43538 45.9062C9.09507 45.9062 8.7619 45.7386 8.56433 45.4303C8.11538 44.7311 7.69843 44.0006 7.32601 43.26C7.06948 42.7489 7.27632 42.1273 7.78632 41.8707C8.29632 41.6153 8.918 41.8211 9.17558 42.3311C9.51483 43.0076 9.89558 43.6738 10.3053 44.3132C10.6136 44.7932 10.4739 45.4335 9.9939 45.7418C9.82128 45.8534 9.6278 45.9062 9.43538 45.9062Z" fill="#B0B6BB"/>
<path d="M13.294 50.442C13.0489 50.442 12.8016 50.355 12.604 50.1782C11.9875 49.6247 11.3926 49.0299 10.8351 48.4092C10.4534 47.9841 10.4885 47.3292 10.9137 46.9475C11.3399 46.5659 11.9926 46.603 12.3754 47.0272C12.8823 47.5931 13.4243 48.1351 13.9851 48.6369C14.4102 49.0186 14.4464 49.6724 14.0647 50.0977C13.8608 50.3261 13.5774 50.442 13.294 50.442ZM18.2181 53.7977C18.0619 53.7977 17.9036 53.7615 17.7536 53.687C17.0087 53.3115 16.2795 52.8956 15.5843 52.4497C15.1043 52.1414 14.9646 51.5011 15.274 51.02C15.5813 50.54 16.2216 50.3993 16.7026 50.7087C17.3367 51.1163 18.003 51.497 18.6837 51.8394C19.1947 52.0959 19.3996 52.7177 19.143 53.2277C18.9619 53.5888 18.5967 53.7977 18.2181 53.7977ZM23.8416 55.7799C23.7681 55.7799 23.6937 55.7715 23.6192 55.7561C22.804 55.5771 21.9951 55.3588 21.214 55.1053C20.671 54.9294 20.373 54.3461 20.5489 53.8029C20.7248 53.2599 21.3092 52.9629 21.8513 53.1377C22.5682 53.3694 23.312 53.5702 24.062 53.7347C24.6196 53.8568 24.9734 54.4082 24.8513 54.9668C24.7446 55.4499 24.3174 55.7799 23.8416 55.7799Z" fill="#B0B6BB"/>
<path d="M29.4716 56.3778C28.7537 56.3778 28.0305 56.3509 27.324 56.2971C26.754 56.2536 26.3268 55.7571 26.3702 55.1871C26.4137 54.6171 26.901 54.1847 27.4802 54.2344C28.1351 54.284 28.8054 54.3089 29.4716 54.3089C30.0427 54.3089 30.5061 54.7724 30.5061 55.3434C30.5061 55.9145 30.0427 56.3778 29.4716 56.3778Z" fill="#B0B6BB"/>
<path d="M60.4982 37.7558C60.4982 39.4699 54.4775 40.8593 47.0499 40.8593C39.6223 40.8593 33.6016 39.47 33.6016 37.7558C33.6016 36.0417 39.6223 34.6523 47.0499 34.6523C54.4775 34.6523 60.4982 36.0417 60.4982 37.7558Z" fill="#ED7161"/>
<path d="M47.0499 40.8614C39.6223 40.8614 33.6016 39.4721 33.6016 37.7579V43.9649C33.6016 45.679 39.6223 47.0684 47.0499 47.0684C54.4775 47.0684 60.4982 45.679 60.4982 43.9648V37.7578C60.4982 39.472 54.4775 40.8614 47.0499 40.8614Z" fill="#C9554C"/>
<path d="M47.0499 47.0683C39.6223 47.0683 33.6016 45.6791 33.6016 43.9648V50.1718C33.6016 51.8859 39.6223 53.2753 47.0499 53.2753C54.4775 53.2753 60.4982 51.8859 60.4982 50.1718V43.9648C60.4982 45.6791 54.4775 47.0683 47.0499 47.0683Z" fill="#ECBA16"/>
<path d="M47.0499 53.2755C39.6223 53.2755 33.6016 51.8862 33.6016 50.172V56.3789C33.6016 58.093 39.6223 59.4824 47.0499 59.4824C54.4775 59.4824 60.4982 58.093 60.4982 56.3788V50.1719C60.4982 51.8861 54.4775 53.2755 47.0499 53.2755Z" fill="#25AE88"/>
<path d="M14.9809 6.72141H4.63609C4.06504 6.72141 3.60156 6.25793 3.60156 5.68687C3.60156 5.11582 4.06504 4.65234 4.63609 4.65234H14.9809C15.552 4.65234 16.0155 5.11582 16.0155 5.68687C16.0155 6.25793 15.552 6.72141 14.9809 6.72141Z" fill="white"/>
<path d="M19.117 10.8581H7.73766C7.1666 10.8581 6.70312 10.3946 6.70312 9.82359C6.70312 9.25254 7.1666 8.78906 7.73766 8.78906H19.1169C19.688 8.78906 20.1514 9.25254 20.1514 9.82359C20.1514 10.3946 19.688 10.8581 19.117 10.8581Z" fill="white"/>
<path d="M14.9809 14.9987H4.63609C4.06504 14.9987 3.60156 14.5353 3.60156 13.9642C3.60156 13.3932 4.06504 12.9297 4.63609 12.9297H14.9809C15.552 12.9297 16.0155 13.3932 16.0155 13.9642C16.0155 14.5353 15.552 14.9987 14.9809 14.9987Z" fill="white"/>
<path d="M8.7741 19.1355H4.63609C4.06504 19.1355 3.60156 18.672 3.60156 18.1009C3.60156 17.5299 4.06504 17.0664 4.63609 17.0664H8.77398C9.34504 17.0664 9.80852 17.5299 9.80852 18.1009C9.80852 18.672 9.34516 19.1355 8.7741 19.1355Z" fill="white"/>
<path d="M14.9822 23.2722H6.70641C6.13535 23.2722 5.67188 22.8087 5.67188 22.2377C5.67188 21.6666 6.13535 21.2031 6.70641 21.2031H14.9823C15.5534 21.2031 16.0168 21.6666 16.0168 22.2377C16.0167 22.8087 15.5532 23.2722 14.9822 23.2722Z" fill="white"/>
</svg>
