<svg width="29" height="60" viewBox="0 0 29 60" fill="none" xmlns="http://www.w3.org/2000/svg">
<path d="M26.8139 13.2277H25.5315V6.16716V2.5024C25.5315 1.12107 24.3066 0 22.7972 0C21.2879 0 20.0629 1.12107 20.0629 2.5024V6.16716V13.2277H8.93844V6.16716V2.5024C8.93844 1.12107 7.71347 0 6.20414 0C4.69344 0 3.46984 1.12107 3.46984 2.5024V6.16716V13.2277H2.18745C0.978888 13.2277 0 14.1235 0 15.2296V18.5966C0 19.7026 0.978888 20.5985 2.18745 20.5985V30.3316C2.18745 31.4364 2.92023 32.9278 3.82392 33.661L9.77787 38.4881L12.3126 48.3426C12.3126 54.77 18.0272 60 25.0503 60V55.9962C20.4389 55.9962 16.6874 52.5629 16.6874 48.3426L19.2221 38.4881L25.1761 33.661C26.0798 32.9278 26.8125 31.4376 26.8125 30.3316V20.5985C28.0211 20.5985 29 19.7026 29 18.5966V15.2296C29.0014 14.1235 28.0225 13.2277 26.8139 13.2277ZM21.1567 7.16812H24.4378V13.2277H21.1567V7.16812ZM4.56354 7.16812H7.84472V13.2277H4.56354V7.16812Z" fill="white"/>
</svg>
