<svg width="87" height="62" viewBox="0 0 87 62" fill="none" xmlns="http://www.w3.org/2000/svg">
<path d="M77.7606 25.748H71.0065H22.2386H15.5454C14.2969 25.748 13.2891 26.7559 13.2891 28.0044V34.6977V53.0497V59.7437C13.2891 60.9915 14.2969 62.0001 15.5454 62.0001H22.2386H71.0065H77.7606C79.0009 62.0001 80.017 60.9915 80.017 59.7437V53.0497V34.6977V28.0044C80.017 26.7559 79.0009 25.748 77.7606 25.748Z" fill="#F29B30"/>
<path d="M59.1964 3.9077L52.9612 6.50557L7.94343 25.2592L1.7647 27.833C0.612442 28.3137 0.0694139 29.6314 0.550023 30.7836L3.1238 36.9624L10.181 53.9042L12.7555 60.083C13.2354 61.2352 14.5531 61.779 15.7061 61.2984L21.8848 58.7246L66.9026 39.971L73.1385 37.3731C74.2833 36.8962 74.8331 35.5747 74.3532 34.4225L71.7787 28.2429L64.7215 11.3019L62.147 5.12317C61.6663 3.9709 60.3418 3.43085 59.1964 3.9077Z" fill="#F29B30"/>
<path d="M26.8402 56.2511H20.147C18.8985 56.2511 17.8906 55.2425 17.8906 53.9948V47.3008C22.8313 47.3 26.8402 51.3096 26.8402 56.2511Z" fill="#B1E35F"/>
<path d="M84.6199 47.2988V53.9928C84.6199 55.2406 83.6037 56.2492 82.3635 56.2492H75.6094C75.6094 51.3077 79.6107 47.2988 84.5597 47.2988H84.6199Z" fill="#B1E35F"/>
<path d="M84.6199 22.2544V28.9477H84.5597C79.6107 28.9477 75.6094 24.9388 75.6094 19.998H82.3635C83.6037 19.998 84.6199 21.0052 84.6199 22.2544Z" fill="#B1E35F"/>
<path d="M51.2589 25.2383C58.3741 25.2383 64.1353 31.0071 64.1353 38.1223C64.1353 45.2375 58.3741 50.9988 51.2589 50.9988C44.1438 50.9988 38.375 45.2375 38.375 38.1223C38.375 31.0071 44.1438 25.2383 51.2589 25.2383Z" fill="#B1E35F"/>
<path d="M51.4459 29.6641C51.9145 29.6641 52.2861 30.0349 52.2861 30.5042V30.9337C53.4383 31.0706 54.4146 31.4413 55.3134 32.0077C55.6255 32.1837 55.8985 32.4763 55.8985 32.9456C55.8985 33.5511 55.4112 34.0197 54.8049 34.0197C54.6094 34.0197 54.4138 33.9618 54.219 33.8444C53.5361 33.4345 52.8712 33.1419 52.2071 32.9847V36.7349C55.1765 37.4765 56.4461 38.6686 56.4461 40.7588C56.4461 42.9076 54.7666 44.3336 52.2861 44.5676V45.7402C52.2861 46.2087 51.9145 46.5795 51.4459 46.5795C50.9774 46.5795 50.5863 46.2087 50.5863 45.7402V44.5292C49.1211 44.3728 47.7733 43.8455 46.5819 43.0061C46.2502 42.791 46.0547 42.4781 46.0547 42.0682C46.0547 41.4628 46.5233 40.9934 47.1295 40.9934C47.3641 40.9934 47.5981 41.0716 47.7733 41.2085C48.6917 41.8727 49.5904 42.3217 50.6645 42.5173V38.6694C47.8132 37.927 46.4842 36.8522 46.4842 34.6447C46.4842 32.5553 48.1449 31.1097 50.5863 30.9141V30.5042C50.587 30.0349 50.9774 29.6641 51.4459 29.6641ZM50.6645 36.325V32.8674C49.4144 32.9847 48.7894 33.6489 48.7894 34.5086C48.7894 35.3291 49.161 35.8368 50.6645 36.325ZM52.2078 39.0401V42.5955C53.4579 42.4586 54.1416 41.8336 54.1416 40.8957C54.1416 40.036 53.7121 39.5087 52.2078 39.0401Z" fill="#402318"/>
<path d="M20.147 19.998H26.8402C26.8402 24.9388 22.8313 28.9477 17.8906 28.9477V22.2544C17.8906 21.0052 18.8985 19.998 20.147 19.998Z" fill="#B1E35F"/>
<path d="M84.6186 28.9477V47.2997H84.5584C79.6094 47.2997 75.6081 51.3086 75.6081 56.2501H26.8402C26.8402 51.3086 22.8313 47.2997 17.8906 47.2997V28.9477C22.8313 28.9477 26.8402 24.9388 26.8402 19.998H75.6081C75.6081 24.9388 79.6094 28.9477 84.5584 28.9477H84.6186ZM64.1306 38.1237C64.1306 31.0085 58.3693 25.2397 51.2542 25.2397C44.1391 25.2397 38.3703 31.0085 38.3703 38.1237C38.3703 45.2388 44.1391 51.0002 51.2542 51.0002C58.3686 51.0002 64.1306 45.2388 64.1306 38.1237Z" fill="#64C753"/>
<path d="M84.6186 47.2977V53.9917C84.6186 55.2395 83.6024 56.2481 82.3622 56.2481H75.6081H26.8402H20.147C18.8985 56.2481 17.8906 55.2395 17.8906 53.9917V47.2977V28.9457V22.2525C17.8906 21.004 18.8985 19.9961 20.147 19.9961H26.8402H75.6081H82.3622C83.6024 19.9961 84.6186 21.004 84.6186 22.2525V28.9457V47.2977Z" stroke="#402318" stroke-width="3" stroke-miterlimit="10" strokeLinecap="round" strokeLinejoin="round"/>
<path d="M64.1353 38.1223C64.1353 45.2375 58.3741 50.9988 51.2589 50.9988C44.1438 50.9988 38.375 45.2375 38.375 38.1223C38.375 31.0071 44.1438 25.2383 51.2589 25.2383C58.3733 25.2383 64.1353 31.0071 64.1353 38.1223Z" stroke="#402318" stroke-width="3" stroke-miterlimit="10" strokeLinecap="round" strokeLinejoin="round"/>
<path d="M84.5597 28.9457C79.6107 28.9457 75.6094 24.9368 75.6094 19.9961" stroke="#402318" stroke-width="3" stroke-miterlimit="10" strokeLinecap="round" strokeLinejoin="round"/>
<path d="M17.8906 28.9457C22.8313 28.9457 26.8402 24.9368 26.8402 19.9961" stroke="#402318" stroke-width="3" stroke-miterlimit="10" strokeLinecap="round" strokeLinejoin="round"/>
<path d="M17.8906 47.2969C22.8313 47.2969 26.8402 51.3057 26.8402 56.2472" stroke="#402318" stroke-width="3" stroke-miterlimit="10" strokeLinecap="round" strokeLinejoin="round"/>
<path d="M84.5597 47.2969C79.6107 47.2969 75.6094 51.3057 75.6094 56.2472" stroke="#402318" stroke-width="3" stroke-miterlimit="10" strokeLinecap="round" strokeLinejoin="round"/>
<path d="M24.4852 54.9398L18.1809 57.1902C17.0053 57.6106 15.7169 56.9991 15.2972 55.8243L13.0469 49.5192C17.7003 47.8577 22.8238 50.2856 24.4852 54.9398Z" fill="#B1E35F"/>
<path d="M75.8914 27.082L78.1418 33.3872C78.5622 34.5627 77.9432 35.8534 76.7752 36.2708L70.4144 38.5423C68.753 33.8881 71.1741 28.7661 75.8343 27.1031L75.8914 27.082Z" fill="#B1E35F"/>
<path d="M67.4717 3.49593L69.7221 9.80029L69.6649 9.81984C65.0047 11.4843 59.888 9.05418 58.2266 4.40074L64.5873 2.12929C65.7561 1.71261 67.0513 2.32034 67.4717 3.49593Z" fill="#B1E35F"/>
<path d="M37.0561 17.5247C43.7568 15.1322 51.1217 18.6288 53.5142 25.3296C55.9067 32.0303 52.4176 39.393 45.7169 41.7855C39.0162 44.178 31.6461 40.6919 29.2536 33.9904C26.861 27.2904 30.3547 19.9172 37.0561 17.5247Z" fill="#B1E35F"/>
<path d="M38.7214 21.625C39.1621 21.4663 39.6375 21.6912 39.7954 22.1335L39.9391 22.5389C41.071 22.2794 42.115 22.3012 43.1514 22.5314C43.5041 22.593 43.8599 22.7751 44.0179 23.2173C44.2217 23.7874 43.9193 24.3929 43.3477 24.5967C43.1642 24.6629 42.9604 24.6749 42.737 24.6291C41.9563 24.4719 41.232 24.4207 40.5536 24.4952L41.8141 28.0279C44.861 27.7286 46.457 28.4243 47.1587 30.3919C47.8815 32.4159 46.7789 34.324 44.5218 35.3778L44.9151 36.4827C45.0731 36.9234 44.8474 37.398 44.4067 37.5567C43.9652 37.7139 43.4726 37.495 43.3146 37.0543L42.9077 35.9125C41.4749 36.2593 40.0286 36.2149 38.6243 35.8245C38.2385 35.7335 37.9504 35.5049 37.812 35.1183C37.609 34.5482 37.8925 33.948 38.4626 33.7449C38.683 33.6667 38.9312 33.6622 39.1418 33.7314C40.2294 34.0488 41.2275 34.1691 42.3045 33.9931L41.0108 30.3693C38.0761 30.6281 36.4627 30.064 35.7211 27.9851C35.0179 26.0168 36.0957 24.0966 38.3303 23.0917L38.1919 22.7051C38.0369 22.2621 38.2799 21.7815 38.7214 21.625ZM40.2241 28.1596L39.0621 24.9036C37.9241 25.4346 37.5586 26.2695 37.8474 27.0795C38.1242 27.852 38.6447 28.2062 40.2241 28.1596ZM42.5911 30.1978L43.7862 33.5456C44.9174 32.9973 45.3514 32.1797 45.0362 31.2952C44.7474 30.4859 44.1653 30.1339 42.5911 30.1978Z" fill="#402318"/>
<path d="M5.99846 23.0473L12.3028 20.7969C13.9635 25.4511 11.5356 30.5738 6.88296 32.2345L4.63261 25.9309C4.21292 24.7546 4.82214 23.4677 5.99846 23.0473Z" fill="#B1E35F"/>
<path d="M69.7275 9.79994L75.8972 27.0832L75.84 27.1035C71.1799 28.7665 68.7588 33.8892 70.4202 38.5427L24.4908 54.9384C22.8294 50.2842 17.7059 47.8563 13.0525 49.5178L6.88281 32.2338C11.5362 30.5731 13.9633 25.4495 12.3026 20.7961L58.2312 4.40039C59.8927 9.05458 65.0094 11.484 69.6696 9.81949L69.7275 9.79994ZM53.5162 25.33C51.1237 18.6292 43.7588 15.1325 37.0581 17.5251C30.3574 19.9176 26.8631 27.29 29.2556 33.9908C31.6481 40.6923 39.0174 44.1784 45.7189 41.7859C52.4196 39.3941 55.9087 32.0307 53.5162 25.33Z" fill="#64C753"/>
<path d="M75.8973 27.0832L78.1476 33.3883C78.5681 34.5639 77.9491 35.8545 76.781 36.272L70.4203 38.5434L24.4909 54.9391L18.1866 57.1895C17.011 57.61 15.7226 56.9985 15.3029 55.8236L13.0526 49.5185L6.88289 32.2345L4.63252 25.9309C4.21284 24.7546 4.82281 23.4677 5.99838 23.0472L12.3027 20.7968L58.2313 4.40113L64.5921 2.12968C65.7609 1.71224 67.056 2.31997 67.4765 3.49555L69.7268 9.79992L75.8973 27.0832Z" stroke="#402318" stroke-width="3" stroke-miterlimit="10" strokeLinecap="round" strokeLinejoin="round"/>
<path d="M53.5141 25.3293C55.9066 32.03 52.4175 39.3927 45.7168 41.7852C39.0161 44.1777 31.646 40.6916 29.2535 33.9901C26.861 27.2901 30.3553 19.9169 37.056 17.5244C43.7575 15.1326 51.1223 18.6285 53.5141 25.3293Z" stroke="#402318" stroke-width="3" stroke-miterlimit="10" strokeLinecap="round" strokeLinejoin="round"/>
<path d="M69.6727 9.81949C65.0125 11.484 59.8958 9.05383 58.2344 4.40039" stroke="#402318" stroke-width="3" stroke-miterlimit="10" strokeLinecap="round" strokeLinejoin="round"/>
<path d="M6.88281 32.2326C11.5362 30.5719 13.9633 25.4484 12.3026 20.7949" stroke="#402318" stroke-width="3" stroke-miterlimit="10" strokeLinecap="round" strokeLinejoin="round"/>
<path d="M13.0547 49.5172C17.7081 47.8557 22.8316 50.2843 24.493 54.9378" stroke="#402318" stroke-width="3" stroke-miterlimit="10" strokeLinecap="round" strokeLinejoin="round"/>
<path d="M75.8421 27.1055C71.1819 28.7684 68.7608 33.8912 70.4223 38.5446" stroke="#402318" stroke-width="3" stroke-miterlimit="10" strokeLinecap="round" strokeLinejoin="round"/>
</svg>
