<svg width="86" height="62" viewBox="0 0 86 62" fill="none" xmlns="http://www.w3.org/2000/svg">
<path d="M84.8385 39.5492C84.8385 42.648 75.9365 45.1609 64.9541 45.1609C53.9728 45.1609 45.0703 42.648 45.0703 39.5492C45.0703 36.4499 53.9728 33.9375 64.9541 33.9375C75.9365 33.9375 84.8385 36.4499 84.8385 39.5492Z" fill="#08C5FF"/>
<path d="M84.8385 39.5492C84.8385 42.648 75.9365 45.1609 64.9541 45.1609C53.9728 45.1609 45.0703 42.648 45.0703 39.5492C45.0703 36.4499 53.9728 33.9375 64.9541 33.9375C75.9365 33.9375 84.8385 36.4499 84.8385 39.5492Z" stroke="#231F20" stroke-width="1.03891" stroke-miterlimit="10"/>
<path d="M64.9564 45.0381C54.0488 45.0381 45.1964 42.5593 45.0781 39.488C45.2058 44.6117 47.8072 48.698 64.9564 48.698C84.3792 48.698 84.8303 44.5809 84.8397 39.4297C84.8342 42.5279 75.9339 45.0381 64.9564 45.0381Z" fill="#08C5FF"/>
<path d="M64.9564 45.0381C54.0488 45.0381 45.1964 42.5593 45.0781 39.488C45.2058 44.6117 47.8072 48.698 64.9564 48.698C84.3792 48.698 84.8303 44.5809 84.8397 39.4297C84.8342 42.5279 75.9339 45.0381 64.9564 45.0381Z" stroke="#231F20" stroke-width="1.03891" stroke-miterlimit="10"/>
<path d="M64.9564 51.1899C54.0488 51.1899 45.1964 48.7105 45.0781 45.6403C45.2058 50.7635 47.8072 54.8498 64.9564 54.8498C84.3792 54.8498 84.8303 50.7327 84.8397 45.582C84.8342 48.6797 75.9339 51.1899 64.9564 51.1899Z" fill="#F1FBFD"/>
<path d="M64.9564 51.1899C54.0488 51.1899 45.1964 48.7105 45.0781 45.6403C45.2058 50.7635 47.8072 54.8498 64.9564 54.8498C84.3792 54.8498 84.8303 50.7327 84.8397 45.582C84.8342 48.6797 75.9339 51.1899 64.9564 51.1899Z" stroke="#231F20" stroke-width="1.03891" stroke-miterlimit="10"/>
<path d="M64.9564 57.3403C54.0488 57.3403 45.1964 54.8609 45.0781 51.7907C45.2058 56.9145 47.8072 61.0002 64.9564 61.0002C84.3792 61.0002 84.8303 56.8831 84.8397 51.7324C84.8342 54.8301 75.9339 57.3403 64.9564 57.3403Z" fill="#08C5FF"/>
<path d="M64.9564 57.3403C54.0488 57.3403 45.1964 54.8609 45.0781 51.7907C45.2058 56.9145 47.8072 61.0002 64.9564 61.0002C84.3792 61.0002 84.8303 56.8831 84.8397 51.7324C84.8342 54.8301 75.9339 57.3403 64.9564 57.3403Z" stroke="#231F20" stroke-width="1.03891" stroke-miterlimit="10"/>
<path d="M40.9244 6.61169C40.9244 9.71047 32.0219 12.2234 21.0395 12.2234C10.0576 12.2234 1.15625 9.71102 1.15625 6.61169C1.15625 3.51236 10.0582 1 21.0395 1C32.0219 1 40.9244 3.51236 40.9244 6.61169Z" fill="#08C5FF"/>
<path d="M40.9244 6.61169C40.9244 9.71047 32.0219 12.2234 21.0395 12.2234C10.0576 12.2234 1.15625 9.71102 1.15625 6.61169C1.15625 3.51236 10.0582 1 21.0395 1C32.0219 1 40.9244 3.51236 40.9244 6.61169Z" stroke="#231F20" stroke-width="1.03891" stroke-miterlimit="10"/>
<path d="M21.0351 12.1025C10.1269 12.1025 1.27452 9.62317 1.15625 6.55245C1.28388 11.6756 3.88538 15.7619 21.0351 15.7619C40.4574 15.7619 40.9084 11.6448 40.9189 6.49414C40.9117 9.59182 32.012 12.1025 21.0351 12.1025Z" fill="#08C5FF"/>
<path d="M21.0351 12.1025C10.1269 12.1025 1.27452 9.62317 1.15625 6.55245C1.28388 11.6756 3.88538 15.7619 21.0351 15.7619C40.4574 15.7619 40.9084 11.6448 40.9189 6.49414C40.9117 9.59182 32.012 12.1025 21.0351 12.1025Z" stroke="#231F20" stroke-width="1.03891" stroke-miterlimit="10"/>
<path d="M21.0351 18.2524C10.1269 18.2524 1.27452 15.773 1.15625 12.7028C1.28388 17.826 3.88538 21.9123 21.0351 21.9123C40.4574 21.9123 40.9084 17.7952 40.9189 12.6445C40.9117 15.7417 32.012 18.2524 21.0351 18.2524Z" fill="#F1FBFD" stroke="#231F20" stroke-width="1.03891" stroke-miterlimit="10"/>
<path d="M21.0351 24.4008C10.1269 24.4008 1.27452 21.922 1.15625 18.8513C1.28388 23.975 3.88538 28.0607 21.0351 28.0607C40.4574 28.0607 40.9084 23.9437 40.9189 18.793C40.9117 21.8906 32.012 24.4008 21.0351 24.4008Z" fill="#08C5FF"/>
<path d="M21.0351 24.4008C10.1269 24.4008 1.27452 21.922 1.15625 18.8513C1.28388 23.975 3.88538 28.0607 21.0351 28.0607C40.4574 28.0607 40.9084 23.9437 40.9189 18.793C40.9117 21.8906 32.012 24.4008 21.0351 24.4008Z" stroke="#231F20" stroke-width="1.03891" stroke-miterlimit="10"/>
<path d="M21.0351 30.5532C10.1269 30.5532 1.27452 28.0738 1.15625 25.0036C1.28388 30.1268 3.88538 34.2136 21.0351 34.2136C40.4574 34.2136 40.9084 30.0966 40.9189 24.9453C40.9117 28.043 32.012 30.5532 21.0351 30.5532Z" fill="#F1FBFD" stroke="#231F20" stroke-width="1.03891" stroke-miterlimit="10"/>
<path d="M21.0351 36.7041C10.1269 36.7041 1.27452 34.2247 1.15625 31.154C1.28388 36.2778 3.88538 40.3634 21.0351 40.3634C40.4574 40.3634 40.9084 36.2464 40.9189 31.0957C40.9117 34.1939 32.012 36.7041 21.0351 36.7041Z" fill="#08C5FF"/>
<path d="M21.0351 36.7041C10.1269 36.7041 1.27452 34.2247 1.15625 31.154C1.28388 36.2778 3.88538 40.3634 21.0351 40.3634C40.4574 40.3634 40.9084 36.2464 40.9189 31.0957C40.9117 34.1939 32.012 36.7041 21.0351 36.7041Z" stroke="#231F20" stroke-width="1.03891" stroke-miterlimit="10"/>
<path d="M21.0351 42.8539C10.1269 42.8539 1.27452 40.3746 1.15625 37.3039C1.28388 42.4276 3.88538 46.5138 21.0351 46.5138C40.4574 46.5138 40.9084 42.3968 40.9189 37.2461C40.9117 40.3432 32.012 42.8539 21.0351 42.8539Z" fill="#F1FBFD" stroke="#231F20" stroke-width="1.03891" stroke-miterlimit="10"/>
<path d="M21.0351 49.0043C10.1269 49.0043 1.27452 46.5255 1.15625 43.4548C1.28388 48.578 3.88538 52.6642 21.0351 52.6642C40.4574 52.6642 40.9084 48.5472 40.9189 43.3965C40.9117 46.4942 32.012 49.0043 21.0351 49.0043Z" fill="#08C5FF"/>
<path d="M21.0351 49.0043C10.1269 49.0043 1.27452 46.5255 1.15625 43.4548C1.28388 48.578 3.88538 52.6642 21.0351 52.6642C40.4574 52.6642 40.9084 48.5472 40.9189 43.3965C40.9117 46.4942 32.012 49.0043 21.0351 49.0043Z" stroke="#231F20" stroke-width="1.03891" stroke-miterlimit="10"/>
</svg>
