<svg width="66" height="60" viewBox="0 0 66 60" fill="none" xmlns="http://www.w3.org/2000/svg">
<path d="M65.4976 7.49932C65.4976 11.6413 50.9489 14.9986 33.0008 14.9986C15.0526 14.9986 0.503906 11.6416 0.503906 7.49932C0.503906 3.35732 15.0526 0 33.0008 0C50.9489 0 65.4976 3.35732 65.4976 7.49932Z" fill="#ED7161"/>
<path d="M33.0008 15.0035C15.0526 15.0035 0.503906 11.6465 0.503906 7.50419V22.5028C0.503906 26.6448 15.0526 30.0021 33.0008 30.0021C50.9489 30.0021 65.4976 26.6448 65.4976 22.5025V7.50391C65.4976 11.6462 50.9489 15.0035 33.0008 15.0035Z" fill="#C9554C"/>
<path d="M33.0008 30.0032C15.0526 30.0032 0.503906 26.6462 0.503906 22.5039V37.5025C0.503906 41.6445 15.0526 45.0019 33.0008 45.0019C50.9489 45.0019 65.4976 41.6445 65.4976 37.5025V22.5039C65.4976 26.6462 50.9489 30.0032 33.0008 30.0032Z" fill="#ECBA16"/>
<path d="M33.0008 44.9996C15.0526 44.9996 0.503906 41.6426 0.503906 37.5003V52.4989C0.503906 56.6409 15.0526 59.9982 33.0008 59.9982C50.9489 59.9982 65.4976 56.6409 65.4976 52.4986V37.5C65.4976 41.6423 50.9489 44.9996 33.0008 44.9996Z" fill="#25AE88"/>
</svg>
