<svg width="71" height="60" viewBox="0 0 71 60" fill="none" xmlns="http://www.w3.org/2000/svg">
<path d="M3.53691 39.6133H2.63281V47.6578H3.53691V39.6133Z" fill="#96C800"/>
<path d="M13.0984 13.7207H12.1953V36.0048H13.0984V13.7207Z" fill="#96C800"/>
<path d="M6.90492 20.6283L6.26562 21.2676L12.3147 27.3167L12.954 26.6774L6.90492 20.6283Z" fill="#96C800"/>
<path d="M20.1072 29.6641H19.2031V32.5572H20.1072V29.6641Z" fill="#96C800"/>
<path d="M25.1228 31.6335H24.2188V23.2505L26.7613 20.709L27.4012 21.3489L25.1228 23.6252V31.6335Z" fill="#96C800"/>
<path d="M3.08603 40.4319C1.82833 40.4319 0.804688 39.4073 0.804688 38.1506C0.804688 36.8908 1.82933 35.8672 3.08603 35.8672C4.34575 35.8672 5.3694 36.8918 5.3694 38.1506C5.3694 39.4073 4.34575 40.4319 3.08603 40.4319ZM3.08603 36.7703C2.32659 36.7703 1.70779 37.3891 1.70779 38.1495C1.70779 38.909 2.32659 39.5268 3.08603 39.5268C3.84749 39.5268 4.46529 38.909 4.46529 38.1495C4.46529 37.3891 3.84749 36.7703 3.08603 36.7703Z" fill="#96C800"/>
<path d="M33.1957 33.1059H32.2916V15.7029L27.8906 11.303L28.5305 10.6641L33.1957 15.3282V33.1059Z" fill="#96C800"/>
<path d="M3.08603 30.5755C1.82833 30.5755 0.804688 29.5508 0.804688 28.2921C0.804688 27.0334 1.82933 26.0098 3.08603 26.0098C4.34575 26.0098 5.3694 27.0344 5.3694 28.2921C5.3694 29.5518 4.34575 30.5755 3.08603 30.5755ZM3.08603 26.9128C2.32659 26.9128 1.70779 27.5327 1.70779 28.2921C1.70779 29.0526 2.32659 29.6714 3.08603 29.6714C3.84749 29.6714 4.46529 29.0526 4.46529 28.2921C4.46529 27.5327 3.84749 26.9128 3.08603 26.9128Z" fill="#96C800"/>
<path d="M5.37712 21.8616C4.11841 21.8616 3.09375 20.8369 3.09375 19.5792C3.09375 18.3205 4.11841 17.2969 5.37712 17.2969C6.63583 17.2969 7.65946 18.3215 7.65946 19.5792C7.65946 20.8379 6.63583 21.8616 5.37712 21.8616ZM5.37712 18.201C4.61667 18.201 3.99786 18.8188 3.99786 19.5792C3.99786 20.3397 4.61667 20.9585 5.37712 20.9585C6.13757 20.9585 6.75537 20.3397 6.75537 19.5792C6.75537 18.8188 6.13757 18.201 5.37712 18.201Z" fill="#96C800"/>
<path d="M12.6427 14.4006C11.383 14.4006 10.3594 13.376 10.3594 12.1193C10.3594 10.8606 11.384 9.83594 12.6427 9.83594C13.9004 9.83594 14.9251 10.8606 14.9251 12.1193C14.9251 13.376 13.9004 14.4006 12.6427 14.4006ZM12.6427 10.739C11.8813 10.739 11.2635 11.3588 11.2635 12.1183C11.2635 12.8787 11.8813 13.4965 12.6427 13.4965C13.4022 13.4965 14.02 12.8787 14.02 12.1183C14.021 11.3588 13.4022 10.739 12.6427 10.739Z" fill="#96C800"/>
<path d="M18.4008 20.6313L12.3516 26.6797L12.9908 27.3191L19.0401 21.2707L18.4008 20.6313Z" fill="#96C800"/>
<path d="M19.9084 21.8616C18.6487 21.8616 17.625 20.8369 17.625 19.5792C17.625 18.3205 18.6497 17.2969 19.9084 17.2969C21.1671 17.2969 22.1907 18.3215 22.1907 19.5792C22.1907 20.8379 21.1671 21.8616 19.9084 21.8616ZM19.9084 18.201C19.1479 18.201 18.5291 18.8188 18.5291 19.5792C18.5291 20.3397 19.1479 20.9585 19.9084 20.9585C20.6678 20.9585 21.2876 20.3397 21.2876 19.5792C21.2876 18.8188 20.6678 18.201 19.9084 18.201Z" fill="#96C800"/>
<path d="M19.6574 30.1116C18.3997 30.1116 17.375 29.0869 17.375 27.8292C17.375 26.5705 18.3997 25.5469 19.6574 25.5469C20.9171 25.5469 21.9407 26.5715 21.9407 27.8292C21.9407 29.0879 20.9171 30.1116 19.6574 30.1116ZM19.6574 26.451C18.8979 26.451 18.2801 27.0698 18.2801 27.8292C18.2801 28.5907 18.8979 29.2085 19.6574 29.2085C20.4188 29.2085 21.0366 28.5907 21.0366 27.8292C21.0366 27.0698 20.4188 26.451 19.6574 26.451Z" fill="#96C800"/>
<path d="M28.3761 22.0149C27.1174 22.0149 26.0938 20.9903 26.0938 19.7326C26.0938 18.4729 27.1184 17.4492 28.3761 17.4492C29.6338 17.4492 30.6585 18.4739 30.6585 19.7326C30.6585 20.9903 29.6348 22.0149 28.3761 22.0149ZM28.3761 18.3533C27.6157 18.3533 26.9969 18.9721 26.9969 19.7326C26.9969 20.492 27.6157 21.1098 28.3761 21.1098C29.1366 21.1098 29.7544 20.492 29.7544 19.7326C29.7544 18.9721 29.1366 18.3533 28.3761 18.3533Z" fill="#96C800"/>
<path d="M35.95 3.74414H35.0469V39.6139H35.95V3.74414Z" fill="#96C800"/>
<path d="M26.9152 11.969C25.6565 11.969 24.6328 10.9444 24.6328 9.68665C24.6328 8.42895 25.6575 7.4043 26.9152 7.4043C28.1729 7.4043 29.1975 8.42895 29.1975 9.68665C29.1975 10.9444 28.1729 11.969 26.9152 11.969ZM26.9152 8.30637C26.1537 8.30637 25.5359 8.92419 25.5359 9.68564C25.5359 10.4451 26.1537 11.0649 26.9152 11.0649C27.6746 11.0649 28.2934 10.4451 28.2934 9.68564C28.2934 8.92419 27.6736 8.30637 26.9152 8.30637Z" fill="#96C800"/>
<path d="M68.3573 39.6133H67.4531V47.6578H68.3573V39.6133Z" fill="#96C800"/>
<path d="M58.7937 13.7207H57.8906V36.0711H58.7937V13.7207Z" fill="#96C800"/>
<path d="M35.4943 4.56471C34.2346 4.56471 33.2109 3.54006 33.2109 2.28135C33.2109 1.02364 34.2356 0 35.4943 0C36.753 0 37.7787 1.02464 37.7787 2.28135C37.7787 3.54006 36.754 4.56471 35.4943 4.56471ZM35.4943 0.903084C34.7339 0.903084 34.1151 1.52089 34.1151 2.28033C34.1151 3.04179 34.7339 3.65961 35.4943 3.65961C36.2548 3.65961 36.8736 3.04179 36.8736 2.28033C36.8746 1.52089 36.2548 0.903084 35.4943 0.903084Z" fill="#96C800"/>
<path d="M64.1039 20.6293L58.0547 26.6777L58.694 27.3171L64.7432 21.2687L64.1039 20.6293Z" fill="#96C800"/>
<path d="M46.7752 31.6335H45.8721V23.6252L43.5938 21.3489L44.2326 20.709L46.7752 23.2505V31.6335Z" fill="#96C800"/>
<path d="M67.9084 40.4319C66.6487 40.4319 65.625 39.4073 65.625 38.1506C65.625 36.8908 66.6497 35.8672 67.9084 35.8672C69.1661 35.8672 70.1907 36.8918 70.1907 38.1506C70.1907 39.4073 69.1661 40.4319 67.9084 40.4319ZM67.9084 36.7703C67.1469 36.7703 66.5291 37.3891 66.5291 38.1495C66.5291 38.909 67.1469 39.5268 67.9084 39.5268C68.6678 39.5268 69.2856 38.909 69.2856 38.1495C69.2856 37.3891 68.6678 36.7703 67.9084 36.7703Z" fill="#96C800"/>
<path d="M38.702 33.1059H37.7969V15.3282L42.463 10.6641L43.1029 11.303L38.702 15.7029V33.1059Z" fill="#96C800"/>
<path d="M67.9084 30.5755C66.6487 30.5755 65.625 29.5508 65.625 28.2921C65.625 27.0334 66.6497 26.0098 67.9084 26.0098C69.1661 26.0098 70.1907 27.0344 70.1907 28.2921C70.1907 29.5518 69.1661 30.5755 67.9084 30.5755ZM67.9084 26.9128C67.1469 26.9128 66.5291 27.5327 66.5291 28.2921C66.5291 29.0526 67.1469 29.6714 67.9084 29.6714C68.6678 29.6714 69.2856 29.0526 69.2856 28.2921C69.2856 27.5327 68.6678 26.9128 67.9084 26.9128Z" fill="#96C800"/>
<path d="M65.6115 21.8616C64.3528 21.8616 63.3281 20.8369 63.3281 19.5792C63.3281 18.3205 64.3528 17.2969 65.6115 17.2969C66.8702 17.2969 67.8939 18.3215 67.8939 19.5792C67.8939 20.8379 66.8702 21.8616 65.6115 21.8616ZM65.6115 18.201C64.851 18.201 64.2332 18.8188 64.2332 19.5792C64.2332 20.3397 64.851 20.9585 65.6115 20.9585C66.3719 20.9585 66.9907 20.3397 66.9907 19.5792C66.9907 18.8188 66.3719 18.201 65.6115 18.201Z" fill="#96C800"/>
<path d="M58.3459 14.4006C57.0862 14.4006 56.0625 13.376 56.0625 12.1193C56.0625 10.8606 57.0872 9.83594 58.3459 9.83594C59.6046 9.83594 60.6292 10.8606 60.6292 12.1193C60.6292 13.376 59.6046 14.4006 58.3459 14.4006ZM58.3459 10.739C57.5854 10.739 56.9666 11.3588 56.9666 12.1183C56.9666 12.8787 57.5854 13.4965 58.3459 13.4965C59.1053 13.4965 59.7251 12.8787 59.7251 12.1183C59.7261 11.3588 59.1053 10.739 58.3459 10.739Z" fill="#96C800"/>
<path d="M52.6158 20.6009L51.9766 21.2402L58.0272 27.2892L58.6664 26.6498L52.6158 20.6009Z" fill="#96C800"/>
<path d="M51.087 21.8616C49.8283 21.8616 48.8047 20.8369 48.8047 19.5792C48.8047 18.3205 49.8293 17.2969 51.087 17.2969C52.3467 17.2969 53.3704 18.3215 53.3704 19.5792C53.3704 20.8379 52.3467 21.8616 51.087 21.8616ZM51.087 18.201C50.3276 18.201 49.7078 18.8188 49.7078 19.5792C49.7078 20.3397 50.3276 20.9585 51.087 20.9585C51.8475 20.9585 52.4663 20.3397 52.4663 19.5792C52.4663 18.8188 51.8475 18.201 51.087 18.201Z" fill="#96C800"/>
<path d="M51.3381 30.1116C50.0783 30.1116 49.0547 29.0869 49.0547 27.8292C49.0547 26.5705 50.0793 25.5469 51.3381 25.5469C52.5968 25.5469 53.6204 26.5715 53.6204 27.8292C53.6204 29.0879 52.5968 30.1116 51.3381 30.1116ZM51.3381 26.451C50.5776 26.451 49.9588 27.0698 49.9588 27.8292C49.9588 28.5907 50.5776 29.2085 51.3381 29.2085C52.0975 29.2085 52.7173 28.5907 52.7173 27.8292C52.7173 27.0698 52.0975 26.451 51.3381 26.451Z" fill="#96C800"/>
<path d="M42.6183 22.0149C41.3596 22.0149 40.3359 20.9903 40.3359 19.7326C40.3359 18.4729 41.3606 17.4492 42.6183 17.4492C43.876 17.4492 44.9006 18.4739 44.9006 19.7326C44.9016 20.9903 43.877 22.0149 42.6183 22.0149ZM42.6183 18.3533C41.8578 18.3533 41.24 18.9721 41.24 19.7326C41.24 20.492 41.8578 21.1098 42.6183 21.1098C43.3787 21.1098 43.9965 20.492 43.9965 19.7326C43.9965 18.9721 43.3787 18.3533 42.6183 18.3533Z" fill="#96C800"/>
<path d="M63.366 41.3005H62.4609V33.0862L66.2863 29.2578L66.9252 29.8957L63.366 33.4599V41.3005Z" fill="#96C800"/>
<path d="M44.0802 11.969C42.8205 11.969 41.7969 10.9444 41.7969 9.68665C41.7969 8.42895 42.8205 7.4043 44.0802 7.4043C45.3379 7.4043 46.3626 8.42895 46.3626 9.68665C46.3626 10.9444 45.3379 11.969 44.0802 11.969ZM44.0802 8.30637C43.3198 8.30637 42.701 8.92419 42.701 9.68564C42.701 10.4451 43.3198 11.0649 44.0802 11.0649C44.8397 11.0649 45.4575 10.4451 45.4575 9.68564C45.4575 8.92419 44.8397 8.30637 44.0802 8.30637Z" fill="#96C800"/>
<path d="M51.7869 29.6641H50.8828V32.5632H51.7869V29.6641Z" fill="#96C800"/>
<path d="M8.53355 41.2352H7.62845V33.4599L4.07031 29.8957L4.7092 29.2578L8.53355 33.0862V41.2352Z" fill="#96C800"/>
<path d="M32.672 49.5729C31.6956 48.4307 30.3435 47.8008 28.8648 47.8008C26.4157 47.8008 24.4236 49.4302 24.4236 51.4323H23.6903C23.6903 49.2816 25.5457 47.4945 27.9747 47.1378C27.7808 45.5918 27.0666 44.5089 25.9204 44.0709C24.6587 43.5877 23.0162 43.9664 22.0187 44.968C21.5446 45.4452 20.8353 46.4638 21.4079 47.9445L21.867 49.1309L20.8474 48.3704C19.1647 47.1147 17.3777 46.8535 15.8156 47.6371C14.2595 48.4176 13.255 50.1234 13.255 51.9818C13.255 53.9467 14.7538 55.2124 16.2355 55.4445C17.3104 55.6082 18.6354 55.2436 19.1316 53.7016L19.8278 53.9256C19.3647 55.3641 18.1833 56.217 16.7307 56.217C16.5338 56.217 16.3289 56.2009 16.121 56.1678C14.3318 55.8875 12.5216 54.3586 12.5216 51.9818C12.5216 49.8481 13.6849 47.8862 15.4861 46.9831C17.0351 46.2066 18.8162 46.3171 20.4858 47.2604C20.3672 46.2277 20.7158 45.2372 21.4994 44.4516C21.9645 43.9835 22.5381 43.6339 23.1518 43.4099C21.9454 41.5696 21.9675 39.6217 23.2643 38.1279C24.505 36.6995 26.5653 36.1831 27.9536 36.9526L27.599 37.5945C26.501 36.9878 24.8395 37.4338 23.8169 38.6091C23.2794 39.2269 22.2337 40.9025 23.8932 43.214C24.6647 43.0704 25.4613 43.1136 26.1786 43.3868C27.0184 43.7083 28.3956 44.6244 28.693 47.0766C28.7493 47.0745 28.8055 47.0695 28.8618 47.0695C30.5585 47.0695 32.1075 47.7898 33.2265 49.0967C33.8584 49.8351 34.3366 50.7402 34.6731 51.7939V43.6822C34.6731 38.9949 33.1773 38.2565 33.1622 38.2505L32.6911 38.0596L33.0216 37.6729C34.0704 36.4504 34.2803 34.9746 33.6103 33.521C32.66 31.4527 30.1878 29.8926 27.8602 29.8926C25.7768 29.8926 24.0871 31.1262 23.1067 33.3623L22.8143 34.0314L22.4537 33.3965C21.8449 32.3226 20.9951 31.7299 20.0618 31.7299C18.6725 31.7299 17.4249 33.0278 17.2792 34.622L17.226 35.1977L16.7277 34.9043C16.2847 34.6421 15.7463 34.5045 15.1737 34.5045C14.0395 34.5045 12.9295 35.0219 12.2012 35.8888C11.6828 36.5066 11.1263 37.5865 11.4156 39.2249L11.495 39.672L10.8812 39.6509C9.55516 39.6509 8.24021 40.2958 7.27583 41.4189C6.211 42.6565 5.74287 44.2849 5.98597 45.8841L6.0583 46.3583L6.01913 46.3533C6.31145 48.5603 8.88914 49.2183 9.00567 49.2464L10.7275 49.6673L8.98056 49.9636C6.48524 50.3866 6.31246 52.7533 6.35465 53.7518L5.991 53.8131H5.62433C5.59017 52.9753 5.67557 50.5262 7.79418 49.5598C6.80368 49.0756 5.45456 48.0781 5.29082 46.291C4.20589 46.2659 3.21742 46.7822 2.65687 47.6753C1.98282 48.7502 2.00592 50.2178 2.72116 51.7015L2.83568 51.9396L2.64582 52.1234C1.39314 53.3359 0.997342 55.0357 1.61514 56.5606C2.20482 58.0202 3.53687 58.9263 5.09092 58.9263C5.87749 58.9263 6.69821 58.6983 7.52797 58.2512L8.19901 57.8896L8.0614 58.639L8.06239 58.638C8.06541 58.638 8.07345 58.7535 8.22815 58.9153C8.57975 59.2779 9.68174 59.8866 13.1314 59.8866C16.7518 59.8866 21.8098 59.9921 22.1533 59.9992C22.9992 59.9319 25.3368 59.52 25.3368 58.5124V57.3421L26.0038 58.3025C26.5663 59.1131 28.1586 59.7249 29.7086 59.7249H29.7096C30.6529 59.7249 32.005 59.513 33.0869 58.5084C33.8132 57.8334 34.2733 56.8961 34.5013 55.7419C34.4853 53.0888 33.8554 50.9561 32.672 49.5729ZM11.3001 45.9766L10.5708 45.9062C10.6923 44.6626 11.5653 43.5526 12.9064 42.9358C14.4403 42.2296 16.1983 42.3531 17.4932 43.2602L17.0723 43.8609C15.9893 43.1035 14.5116 43.0021 13.2128 43.6008C12.1098 44.1081 11.3955 44.9961 11.3001 45.9766Z" fill="#FF6400"/>
<path d="M68.3769 52.1214L68.187 51.9376L68.3025 51.6996C69.0188 50.2158 69.0409 48.7482 68.3678 47.6733C67.8063 46.7792 66.8198 46.2639 65.7329 46.289C65.5701 48.0761 64.22 49.0737 63.2295 49.5578C65.3501 50.5232 65.4345 52.9693 65.4013 53.78L64.668 53.8111C64.7112 52.7513 64.5395 50.3846 62.0441 49.9617L60.2972 49.6653L62.018 49.2444C62.1355 49.2163 64.7122 48.5583 65.0046 46.3513L64.9664 46.3563L65.0377 45.8821C65.2818 44.2829 64.8117 42.6545 63.7489 41.4169C62.7835 40.2938 61.4695 39.6489 60.1435 39.6489L59.5287 39.67L59.6091 39.2229C59.8974 37.5845 59.3409 36.5046 58.8225 35.8868C58.0952 35.0199 56.9842 34.5026 55.852 34.5026C55.2784 34.5026 54.741 34.6412 54.296 34.9023L53.7977 35.1957L53.7455 34.6201C53.5998 33.0258 52.3512 31.7279 50.9629 31.7279C50.0296 31.7279 49.1808 32.3206 48.571 33.3945L48.2094 34.0294L47.917 33.3603C46.9356 31.1242 45.2479 29.8906 43.1635 29.8906C40.8379 29.8906 38.3657 31.4517 37.4144 33.5191C36.7454 34.9727 36.9533 36.4484 38.0031 37.6709L38.3346 38.0576L37.8614 38.2485C37.8554 38.2525 36.3516 39.016 36.3516 43.6802V51.792C36.6861 50.7382 37.1652 49.8341 37.7971 49.0947C38.9152 47.7868 40.4652 47.0675 42.1629 47.0675C42.2202 47.0675 42.2744 47.0726 42.3317 47.0746C42.629 44.6234 44.0063 43.7063 44.8451 43.3848C45.5634 43.1126 46.361 43.0694 47.1315 43.212C48.79 40.9006 47.7442 39.225 47.2068 38.6072C46.1842 37.4318 44.5246 36.9868 43.4256 37.5926L43.071 36.9506C44.4603 36.1832 46.5197 36.6995 47.7603 38.126C49.0572 39.6198 49.0793 41.5676 47.8718 43.4079C48.4876 43.632 49.0592 43.9815 49.5253 44.4497C50.3079 45.2352 50.6575 46.2257 50.5389 47.2584C52.2085 46.3141 53.9916 46.2036 55.5396 46.9812C57.3408 47.8832 58.5041 49.8461 58.5041 51.9798C58.5041 54.3566 56.6929 55.8855 54.9037 56.1658C54.6968 56.1989 54.4929 56.215 54.296 56.215C52.8434 56.215 51.662 55.3612 51.1979 53.9236L51.8961 53.6996C52.3913 55.2416 53.7133 55.6063 54.7902 55.4425C56.2719 55.2095 57.7717 53.9447 57.7717 51.9798C57.7717 50.1204 56.7662 48.4157 55.2111 47.6351C53.648 46.8546 51.8619 47.1107 50.1793 48.3684L49.1587 49.1289L49.6177 47.9425C50.1903 46.4618 49.4801 45.4432 49.008 44.966C48.0094 43.9645 46.365 43.5847 45.1053 44.0689C43.9601 44.5059 43.2448 45.5898 43.051 47.1358C45.481 47.4925 47.3364 49.2806 47.3364 51.4303H46.6031C46.6031 49.4282 44.612 47.7989 42.1629 47.7989C40.6832 47.7989 39.3321 48.4287 38.3547 49.5709C37.1602 50.9703 36.5264 53.132 36.5224 55.8243C37.2718 59.4085 40.3015 59.7229 41.3171 59.7229C42.8671 59.7229 44.4604 59.1112 45.0229 58.3005L45.6899 57.3401V58.5104C45.6899 59.519 48.0275 59.9299 48.8734 59.9972C49.2169 59.9902 54.2749 59.8847 57.8943 59.8847C61.345 59.8847 62.447 59.2769 62.7976 58.9133C62.9643 58.7415 62.9623 58.6189 62.9613 58.6139L62.8247 57.8645L63.4987 58.2493C64.3275 58.6963 65.1482 58.9243 65.9348 58.9243C67.4888 58.9243 68.8209 58.0182 69.4115 56.5586C70.0253 55.0347 69.6305 53.3339 68.3769 52.1214ZM57.8119 43.5998C56.512 43.0011 55.0343 43.1025 53.9514 43.86L53.5315 43.2593C54.8264 42.3521 56.5813 42.2286 58.1173 42.9348C59.4584 43.5516 60.3314 44.6616 60.4529 45.9053L59.7226 45.9756C59.6292 44.9951 58.9139 44.1071 57.8119 43.5998Z" fill="#FF6400"/>
</svg>
