<svg width="50" height="60" viewBox="0 0 50 60" fill="none" xmlns="http://www.w3.org/2000/svg">
<path d="M49.543 56.6871C49.543 58.5165 48.0605 60 46.2292 60H3.76605C1.93658 60 0.453125 58.5165 0.453125 56.6871V3.31292C0.453125 1.48434 1.93635 0 3.76605 0H46.2292C48.0605 0 49.543 1.48412 49.543 3.31292V56.6871Z" fill="#FFF8ED"/>
<path d="M44.0231 57.1729H5.97162C4.1734 57.1729 2.71094 55.7095 2.71094 53.9115V6.08362C2.71094 4.2854 4.1734 2.82227 5.97162 2.82227H44.0231C45.8213 2.82227 47.2853 4.28562 47.2853 6.08362V53.9115C47.2853 55.7098 45.8213 57.1729 44.0231 57.1729ZM5.97162 3.40649C4.49532 3.40649 3.2945 4.60821 3.2945 6.08362V53.9115C3.2945 55.3878 4.49532 56.5878 5.97162 56.5878H44.0231C45.4994 56.5878 46.6993 55.3878 46.6993 53.9115V6.08362C46.6993 4.60821 45.4994 3.40649 44.0231 3.40649H5.97162Z" fill="#A7A9AC"/>
<path d="M21.8746 7.78906V9.68662H20.4103V17.2733H17.9433V9.68662H16.4844V7.78906H21.8746Z" fill="#BE1E2D"/>
<path d="M26.2218 7.78906L27.6318 17.2733H25.1116L24.979 15.5684H24.0966L23.9483 17.2733H21.3984L22.6569 7.78906H26.2218ZM24.9139 13.8863C24.7891 12.8127 24.6645 11.4846 24.5388 9.90362C24.2876 11.7193 24.1289 13.0473 24.0653 13.8863H24.9139Z" fill="#BE1E2D"/>
<path d="M33.3489 7.78906L32.4812 11.9836L33.7882 17.2733H31.5027C31.2297 16.3272 30.9794 15.1753 30.7519 13.8166C30.6917 14.4182 30.6046 15.0558 30.493 15.7273L30.261 17.2735H27.8594L28.7559 11.9838L27.8594 7.78929H30.2427C30.2871 8.05003 30.3726 8.48513 30.5008 9.09481C30.6037 9.5596 30.6874 9.98689 30.7519 10.3785L31.2803 7.78929H33.3489V7.78906Z" fill="#BE1E2D"/>
<path d="M43.9474 19.6758H6.05469V22.0138H43.9474V19.6758Z" fill="#BE1E2D"/>
<path d="M43.9474 25.2285H6.05469V27.5656H43.9474V25.2285Z" fill="#BE1E2D"/>
<path d="M43.9474 30.6816H6.05469V33.0188H43.9474V30.6816Z" fill="#A7A9AC"/>
<path d="M43.9474 35.5039H6.05469V37.8428H43.9474V35.5039Z" fill="#A7A9AC"/>
<path d="M43.9474 40.3262H6.05469V42.6633H43.9474V40.3262Z" fill="#A7A9AC"/>
<path d="M43.9474 45.1484H6.05469V47.4856H43.9474V45.1484Z" fill="#A7A9AC"/>
<path d="M43.9474 49.9688H6.05469V52.3074H43.9474V49.9688Z" fill="#A7A9AC"/>
</svg>
