<svg width="54" height="62" viewBox="0 0 54 62" fill="none" xmlns="http://www.w3.org/2000/svg">
<path d="M37.2853 61.5004H0.46875V6.01562H49.184V49.6015L37.2853 61.5004Z" fill="#F29B30"/>
<path d="M40.638 56.9848H3.82031V1.5H52.5356V45.0859L40.638 56.9848Z" fill="white" stroke="#402318" stroke-width="1.5" stroke-miterlimit="10" strokeLinecap="round" strokeLinejoin="round"/>
<path d="M40.2557 30.6005L40.9221 32.7727C41.2697 33.9056 42.468 34.5416 43.6004 34.194C44.7338 33.847 45.3698 32.6475 45.0222 31.5151L42.7346 24.0599C42.5686 23.5164 42.1929 23.0614 41.6902 22.7949C41.1875 22.5283 40.5998 22.4726 40.0552 22.6392L32.6012 24.9268C31.8762 25.1503 31.3557 25.7208 31.165 26.3998C31.0587 26.7819 31.0553 27.1989 31.1805 27.6068C31.5281 28.7386 32.7265 29.3746 33.8599 29.0276L36.7065 28.1532C33.3303 34.6289 25.7585 38.096 18.4545 36.0445C17.3147 35.7239 16.1307 36.3891 15.8107 37.5295C15.4907 38.6693 16.1554 39.8539 17.2952 40.1739C26.4083 42.7316 35.8448 38.5355 40.2557 30.6005Z" fill="#FAC432" stroke="#402318" stroke-width="1.5" stroke-miterlimit="10" strokeLinecap="round" strokeLinejoin="round"/>
<path d="M15.9646 19.6986C15.3878 19.6986 14.8334 19.4688 14.4261 19.0615L10.473 15.1078C9.62337 14.2581 9.62338 12.8805 10.4742 12.0313C11.3239 11.1822 12.7003 11.1817 13.55 12.0319L15.9646 14.4471L22.3333 8.07881C23.1824 7.22856 24.5606 7.22913 25.4097 8.07938C26.2588 8.92849 26.2588 10.3056 25.4085 11.1558L17.5025 19.062C17.0946 19.4699 16.5425 19.6986 15.9646 19.6986Z" fill="#64C753" stroke="#402318" stroke-width="1.5" stroke-miterlimit="10" strokeLinecap="round" strokeLinejoin="round"/>
<path d="M40.6406 45.0859H52.5382L40.6406 56.9849V45.0859Z" fill="#D6E9FF" stroke="#402318" stroke-width="1.5" stroke-miterlimit="10" strokeLinecap="round" strokeLinejoin="round"/>
</svg>
