<svg width="61" height="59" viewBox="0 0 61 59" fill="none" xmlns="http://www.w3.org/2000/svg">
<path d="M25.3276 26.8965H2.56895C1.4259 26.8965 0.5 25.9706 0.5 24.8276V2.06895C0.5 0.925781 1.4259 0 2.56895 0H25.3276C26.4706 0 27.3965 0.925899 27.3965 2.06895V24.8276C27.3965 25.9706 26.4707 26.8965 25.3276 26.8965Z" fill="#48A0DC"/>
<path d="M55.3309 29.9985C54.7598 29.9985 54.2963 29.535 54.2963 28.9639C54.2963 28.2977 54.2715 27.6274 54.2218 26.9726C54.1783 26.4026 54.6045 25.906 55.1745 25.8626C55.7435 25.818 56.2411 26.2463 56.2845 26.8163C56.3383 27.5229 56.3653 28.246 56.3653 28.9639C56.3654 29.535 55.9019 29.9985 55.3309 29.9985Z" fill="#B0B6BB"/>
<path d="M52.7507 18.7552C52.372 18.7552 52.0069 18.5463 51.8248 18.1852C51.4855 17.5087 51.1048 16.8414 50.6951 16.2031C50.3868 15.722 50.5264 15.0828 51.0064 14.7734C51.4864 14.4651 52.1278 14.6037 52.4361 15.0858C52.8851 15.7842 53.302 16.5145 53.6745 17.2561C53.931 17.7661 53.7241 18.3889 53.2141 18.6454C53.0652 18.7201 52.9069 18.7552 52.7507 18.7552ZM54.7307 24.3797C54.2548 24.3797 53.8266 24.0497 53.7199 23.5656C53.5564 22.8167 53.3558 22.0729 53.124 21.356C52.9471 20.8129 53.2461 20.2294 53.7892 20.0535C54.3343 19.8766 54.9168 20.1756 55.0916 20.7187C55.3451 21.4997 55.5633 22.3087 55.7423 23.1249C55.8634 23.6825 55.5096 24.2338 54.952 24.356C54.8776 24.3725 54.8031 24.3797 54.7307 24.3797Z" fill="#B0B6BB"/>
<path d="M39.4674 7.42754C39.362 7.42754 39.2544 7.41102 39.1488 7.3768C38.4329 7.14512 37.6891 6.94333 36.9391 6.77985C36.3805 6.65774 36.0277 6.10637 36.1488 5.54774C36.2718 4.99016 36.8212 4.63637 37.3809 4.75848C38.1961 4.93637 39.0061 5.15575 39.7861 5.40817C40.3291 5.58407 40.6282 6.16743 40.4512 6.71165C40.3095 7.14829 39.9039 7.42754 39.4674 7.42754ZM44.855 9.96934C44.6636 9.96934 44.4702 9.91661 44.2974 9.80481C43.6633 9.39829 42.9971 9.01755 42.3164 8.67512C41.8064 8.4186 41.6005 7.7968 41.858 7.28587C42.1135 6.77587 42.7343 6.56997 43.2464 6.82755C43.9912 7.20208 44.7215 7.61891 45.4156 8.06481C45.8967 8.37313 46.0353 9.01344 45.727 9.4945C45.5295 9.80176 45.1964 9.96934 44.855 9.96934ZM49.3964 13.831C49.1118 13.831 48.8294 13.7151 48.6256 13.4875C48.1177 12.9216 47.5756 12.3797 47.0149 11.8768C46.5897 11.4961 46.5546 10.8423 46.9352 10.4161C47.3159 9.99196 47.9697 9.95364 48.3959 10.3364C49.0125 10.8888 49.6084 11.4836 50.1659 12.1053C50.5467 12.5305 50.5114 13.1843 50.0863 13.567C49.8888 13.7431 49.6415 13.831 49.3964 13.831Z" fill="#B0B6BB"/>
<path d="M33.6045 6.28336C33.5786 6.28336 33.5518 6.2823 33.5248 6.28031C32.87 6.23062 32.2007 6.20578 31.5345 6.20578C30.9624 6.20578 30.5 5.74231 30.5 5.17125C30.5 4.6002 30.9624 4.13672 31.5345 4.13672C32.2524 4.13672 32.9745 4.16367 33.6821 4.21746C34.2511 4.25988 34.6783 4.75746 34.6348 5.32746C34.5945 5.87063 34.1404 6.28336 33.6045 6.28336Z" fill="#B0B6BB"/>
<path d="M5.75168 34.138C5.21578 34.138 4.76168 33.7253 4.72137 33.1821C4.66758 32.4745 4.64062 31.7524 4.64062 31.0345C4.64062 30.4624 5.1041 30 5.67516 30C6.24621 30 6.70969 30.4624 6.70969 31.0345C6.70969 31.7007 6.73453 32.37 6.78422 33.0248C6.8277 33.5948 6.40043 34.0924 5.83148 34.1348C5.80441 34.137 5.77758 34.138 5.75168 34.138Z" fill="#B0B6BB"/>
<path d="M6.89265 39.9977C6.45612 39.9977 6.05054 39.7185 5.90886 39.2818C5.65538 38.5008 5.43718 37.6918 5.25812 36.8756C5.13706 36.317 5.49085 35.7667 6.04843 35.6446C6.60601 35.5246 7.15737 35.8763 7.28054 36.4338C7.44401 37.1838 7.64464 37.9276 7.87644 38.6435C8.05339 39.1876 7.75433 39.7711 7.21128 39.947C7.10581 39.9812 6.99823 39.9977 6.89265 39.9977ZM9.43538 45.3906C9.09507 45.3906 8.7619 45.223 8.56433 44.9147C8.11538 44.2154 7.69843 43.485 7.32601 42.7444C7.06948 42.2333 7.27632 41.6116 7.78632 41.3551C8.29632 41.0996 8.918 41.3054 9.17558 41.8154C9.51483 42.492 9.89558 43.1582 10.3053 43.7975C10.6136 44.2775 10.4739 44.9179 9.9939 45.2262C9.82128 45.3377 9.6278 45.3906 9.43538 45.3906Z" fill="#B0B6BB"/>
<path d="M13.294 49.9263C13.0489 49.9263 12.8016 49.8394 12.604 49.6625C11.9875 49.1091 11.3926 48.5142 10.8351 47.8936C10.4534 47.4684 10.4885 46.8136 10.9137 46.4319C11.3399 46.0502 11.9926 46.0874 12.3754 46.5116C12.8823 47.0775 13.4243 47.6195 13.9851 48.1213C14.4102 48.503 14.4464 49.1568 14.0648 49.582C13.8608 49.8104 13.5774 49.9263 13.294 49.9263ZM18.2181 53.2821C18.0619 53.2821 17.9036 53.2459 17.7536 53.1714C17.0087 52.7959 16.2795 52.38 15.5843 51.9341C15.1043 51.6258 14.9646 50.9855 15.274 50.5044C15.5813 50.0244 16.2216 49.8837 16.7026 50.1931C17.3367 50.6006 18.003 50.9814 18.6837 51.3238C19.1948 51.5803 19.3996 52.2021 19.143 52.7121C18.9619 53.0732 18.5967 53.2821 18.2181 53.2821ZM23.8416 55.2642C23.7681 55.2642 23.6937 55.2559 23.6192 55.2404C22.804 55.0615 21.9951 54.8432 21.214 54.5897C20.671 54.4138 20.373 53.8304 20.5489 53.2873C20.7248 52.7442 21.3092 52.4473 21.8513 52.6221C22.5682 52.8538 23.312 53.0545 24.062 53.2191C24.6196 53.3412 24.9734 53.8925 24.8513 54.4512C24.7446 54.9342 24.3174 55.2642 23.8416 55.2642Z" fill="#B0B6BB"/>
<path d="M29.4716 55.8622C28.7537 55.8622 28.0305 55.8353 27.324 55.7815C26.754 55.738 26.3268 55.2415 26.3702 54.6715C26.4137 54.1015 26.901 53.669 27.4802 53.7187C28.1351 53.7684 28.8054 53.7933 29.4716 53.7933C30.0427 53.7933 30.5061 54.2567 30.5061 54.8278C30.5061 55.3988 30.0427 55.8622 29.4716 55.8622Z" fill="#B0B6BB"/>
<path d="M60.4982 37.2402C60.4982 38.9543 54.4775 40.3437 47.0499 40.3437C39.6223 40.3437 33.6016 38.9544 33.6016 37.2402C33.6016 35.5261 39.6223 34.1367 47.0499 34.1367C54.4775 34.1367 60.4982 35.5261 60.4982 37.2402Z" fill="#ED7161"/>
<path d="M47.0499 40.3458C39.6223 40.3458 33.6016 38.9565 33.6016 37.2423V43.4493C33.6016 45.1634 39.6223 46.5527 47.0499 46.5527C54.4775 46.5527 60.4982 45.1634 60.4982 43.4491V37.2422C60.4982 38.9564 54.4775 40.3458 47.0499 40.3458Z" fill="#C9554C"/>
<path d="M47.0499 46.5527C39.6223 46.5527 33.6016 45.1634 33.6016 43.4492V49.6562C33.6016 51.3703 39.6223 52.7596 47.0499 52.7596C54.4775 52.7596 60.4982 51.3703 60.4982 49.6562V43.4492C60.4982 45.1634 54.4775 46.5527 47.0499 46.5527Z" fill="#ECBA16"/>
<path d="M47.0499 52.7598C39.6223 52.7598 33.6016 51.3706 33.6016 49.6564V55.8633C33.6016 57.5774 39.6223 58.9668 47.0499 58.9668C54.4775 58.9668 60.4982 57.5774 60.4982 55.8632V49.6562C60.4982 51.3705 54.4775 52.7598 47.0499 52.7598Z" fill="#25AE88"/>
<path d="M14.9809 6.20578H4.63609C4.06504 6.20578 3.60156 5.7423 3.60156 5.17125C3.60156 4.6002 4.06504 4.13672 4.63609 4.13672H14.9809C15.552 4.13672 16.0155 4.6002 16.0155 5.17125C16.0155 5.7423 15.552 6.20578 14.9809 6.20578Z" fill="white"/>
<path d="M19.117 10.3425H7.73766C7.1666 10.3425 6.70312 9.87902 6.70312 9.30797C6.70312 8.73691 7.1666 8.27344 7.73766 8.27344H19.1169C19.688 8.27344 20.1514 8.73691 20.1514 9.30797C20.1514 9.87902 19.688 10.3425 19.117 10.3425Z" fill="white"/>
<path d="M14.9809 14.4831H4.63609C4.06504 14.4831 3.60156 14.0196 3.60156 13.4486C3.60156 12.8775 4.06504 12.4141 4.63609 12.4141H14.9809C15.552 12.4141 16.0155 12.8775 16.0155 13.4486C16.0155 14.0196 15.552 14.4831 14.9809 14.4831Z" fill="white"/>
<path d="M8.7741 18.6198H4.63609C4.06504 18.6198 3.60156 18.1564 3.60156 17.5853C3.60156 17.0143 4.06504 16.5508 4.63609 16.5508H8.77398C9.34504 16.5508 9.80852 17.0143 9.80852 17.5853C9.80852 18.1564 9.34516 18.6198 8.7741 18.6198Z" fill="white"/>
<path d="M14.9822 22.7566H6.70641C6.13535 22.7566 5.67188 22.2931 5.67188 21.722C5.67188 21.151 6.13535 20.6875 6.70641 20.6875H14.9823C15.5534 20.6875 16.0168 21.151 16.0168 21.722C16.0167 22.2931 15.5532 22.7566 14.9822 22.7566Z" fill="white"/>
</svg>
