<svg width="61" height="61" viewBox="0 0 61 61" fill="none" xmlns="http://www.w3.org/2000/svg">
<path d="M30.768 11.6209C31.1343 11.5069 31.4003 11.1653 31.4003 10.7614V0.5H54.2009C57.6744 0.5 60.5004 3.32593 60.5004 6.79951V29.6001H51.0541C50.6319 27.3883 48.6833 25.7115 46.3504 25.7115C44.0174 25.7115 42.0688 27.3883 41.6466 29.6001H31.4003V18.5386C31.4003 18.1348 31.1344 17.7931 30.768 17.6791C30.6834 17.6528 30.5936 17.6386 30.5004 17.6386C28.8524 17.6386 27.5117 16.298 27.5117 14.65C27.5117 13.002 28.8524 11.6613 30.5004 11.6613C30.5935 11.6613 30.6834 11.6472 30.768 11.6209Z" fill="#A6D400"/>
<path d="M0.5 6.79952C0.5 3.32597 3.32593 0.5 6.79951 0.5H29.6001V9.94632C27.3883 10.3685 25.7115 12.3171 25.7115 14.65C25.7115 16.9829 27.3883 18.9315 29.6001 19.3537V29.6001H18.5386C18.4454 29.6001 18.3555 29.6143 18.271 29.6406C17.9046 29.7545 17.6386 30.0962 17.6386 30.5C17.6386 32.148 16.2979 33.4887 14.65 33.4887C13.002 33.4887 11.6613 32.148 11.6613 30.5C11.6613 30.0962 11.3954 29.7545 11.029 29.6406C10.9444 29.6143 10.8546 29.6001 10.7614 29.6001H0.5V6.79952Z" fill="#FFC205"/>
<path d="M29.6001 50.2391V60.5005H6.79951C3.32596 60.5005 0.5 57.6745 0.5 54.201V31.4004H9.9463C10.3685 33.6121 12.3171 35.289 14.65 35.289C16.9829 35.289 18.9315 33.6121 19.3537 31.4004H29.6001V42.4619C29.6001 42.9589 30.003 43.3618 30.5 43.3618C32.1479 43.3618 33.4886 44.7025 33.4886 46.3504C33.4886 47.9984 32.1479 49.3391 30.5 49.3391C30.003 49.3391 29.6001 49.742 29.6001 50.2391Z" fill="#F24949"/>
<path d="M60.4985 54.2009C60.4985 57.6744 57.6726 60.5004 54.199 60.5004H31.3984V51.0541C33.6102 50.6319 35.287 48.6833 35.287 46.3503C35.287 44.0174 33.6102 42.0688 31.3984 41.6466V31.4003H42.4599C42.9569 31.4003 43.3598 30.9974 43.3598 30.5004C43.3598 28.8524 44.7005 27.5117 46.3485 27.5117C47.9964 27.5117 49.3371 28.8524 49.3371 30.5004C49.3371 30.9974 49.74 31.4003 50.237 31.4003H60.4985L60.4985 54.2009Z" fill="#1B6DCE"/>
</svg>
