<svg width="63" height="60" viewBox="0 0 63 60" fill="none" xmlns="http://www.w3.org/2000/svg">
<path d="M62.2958 26.1745C62.2958 33.382 56.4684 39.2294 49.2689 39.2606C49.2488 39.2617 49.2288 39.2617 49.2089 39.2617H14.5442V39.2395C14.2947 39.2552 14.0431 39.2617 13.7901 39.2617C6.56266 39.2617 0.703125 33.4019 0.703125 26.1745C0.703125 19.2332 6.10726 13.5538 12.9371 13.115C14.0509 9.44944 17.459 6.78083 21.4887 6.78083C22.5068 6.78083 23.4857 6.95117 24.398 7.26646C26.5399 2.95927 30.986 0 36.1217 0C43.3491 0 49.2087 5.85977 49.2087 13.0872C56.4361 13.0872 62.2958 18.947 62.2958 26.1745Z" fill="#F4F4F6"/>
<path d="M37.3937 34.9844V45.4051H42.9706L31.497 59.9994L20.0234 45.4051H25.6003V34.9844H37.3937Z" fill="#1BCD9A"/>
<path d="M37.3951 31.877H25.6016V34.2687H37.3951V31.877Z" fill="#1BCD9A"/>
<path opacity="0.8" d="M37.3951 28.7676H25.6016V31.1593H37.3951V28.7676Z" fill="#1BCD9A"/>
<path opacity="0.5" d="M37.3951 25.6602H25.6016V28.0519H37.3951V25.6602Z" fill="#1BCD9A"/>
</svg>
