<svg width="49" height="60" viewBox="0 0 49 60" fill="none" xmlns="http://www.w3.org/2000/svg">
<path d="M2.04109 0.000106225C1.68299 0.000106225 1.33175 0.145349 1.07871 0.399129C0.82493 0.652488 0.679688 1.00342 0.679688 1.36183V42.0653C0.679688 42.4237 0.82493 42.7746 1.07871 43.028C1.33175 43.2817 1.68299 43.427 2.04109 43.427H16.0411V18.388C16.0411 18.1487 16.1387 17.9151 16.3071 17.7463C16.4756 17.5768 16.7103 17.4803 16.9496 17.4803H33.8702V1.36172C33.8702 1.00331 33.7256 0.652385 33.4719 0.399026C33.2182 0.145351 32.8683 0 32.5082 0H2.04109V0.000106225ZM15.3052 34.5083H4.60137V31.7862H15.3052V34.5083ZM15.3052 28.3468H4.41583V25.6248H15.3052V28.3468ZM15.3052 22.1856H4.60137V19.4625H15.3052V22.1856ZM29.9491 16.0234H4.60137V13.3004H29.949V16.0234H29.9491ZM29.9491 9.86232H7.17609V7.1393H29.9491V9.86232Z" fill="#0088DB"/>
<path d="M29.9488 7.13867H7.17578V9.8617H29.9488V7.13867Z" fill="white"/>
<path d="M29.9492 13.3008H4.60156V16.0238H29.9492V13.3008Z" fill="white"/>
<path d="M15.3054 19.4629H4.60156V22.1859H15.3054V19.4629Z" fill="white"/>
<path d="M15.3034 25.625H4.41406V28.347H15.3034V25.625Z" fill="white"/>
<path d="M15.3054 31.7871H4.60156V34.5091H15.3054V31.7871Z" fill="white"/>
<path d="M17.8555 58.1847H46.5064V19.2969H17.8555V58.1847ZM22.0813 24.1663H44.8551V26.8889H22.0813V24.1663ZM19.508 30.3284H44.855V33.0511H19.508V30.3284ZM19.508 36.4906H44.855V39.2125H19.508V36.4906ZM19.508 42.6518H44.855V45.3748H19.508V42.6518ZM19.508 48.8139H38.5551V51.5359H19.508V48.8139Z" fill="white"/>
<path d="M33.872 17.4805H16.9515C16.7121 17.4805 16.4774 17.577 16.309 17.7465C16.1405 17.9153 16.043 18.1489 16.043 18.3882V43.4271V59.0924C16.043 59.3311 16.1405 59.5653 16.309 59.7341C16.4774 59.9036 16.7121 60.0001 16.9515 60.0001H47.4179C47.6573 60.0001 47.8912 59.9036 48.0611 59.7341C48.2303 59.5653 48.3257 59.3311 48.3257 59.0924V18.3882C48.3257 18.1492 48.2303 17.9153 48.0611 17.7465C47.8913 17.577 47.6573 17.4805 47.4179 17.4805H33.872ZM46.51 58.1842H17.8592V19.2964H46.5101L46.51 58.1842Z" fill="white"/>
<path d="M44.8558 24.166H22.082V26.8886H44.8558V24.166Z" fill="#00A7FF"/>
<path d="M44.8589 30.3281H19.5117V33.0508H44.8589V30.3281Z" fill="#00A7FF"/>
<path d="M44.8589 36.4902H19.5117V39.2122H44.8589V36.4902Z" fill="#00A7FF"/>
<path d="M44.8589 42.6504H19.5117V45.3734H44.8589V42.6504Z" fill="#00A7FF"/>
<path d="M38.5589 48.8125H19.5117V51.5345H38.5589V48.8125Z" fill="#00A7FF"/>
</svg>
