<svg width="62" height="61" viewBox="0 0 62 61" fill="none" xmlns="http://www.w3.org/2000/svg">
<path d="M30.9831 1.82812L45.6621 10.1686L60.3411 18.5091H30.9831H1.625L16.304 10.1686L30.9831 1.82812Z" fill="#08C5FF"/>
<path d="M60.3705 19.8475C60.3651 19.8475 60.3589 19.8475 60.3527 19.8475H1.63573C1.03142 19.8475 0.503424 19.4402 0.34902 18.8563C0.194616 18.2724 0.452884 17.6574 0.978212 17.3584L30.3362 0.678276C30.7444 0.445783 31.2431 0.445783 31.6513 0.678276L60.8878 17.29C61.3661 17.4924 61.7015 17.9653 61.7015 18.5164C61.7015 19.2512 61.1052 19.8475 60.3705 19.8475ZM6.67338 17.1853H55.315L30.9938 3.36706L6.67338 17.1853Z" fill="#333333"/>
<path d="M60.3411 18.4941H1.625V23.6658H60.3411V18.4941Z" fill="#08C5FF"/>
<path d="M60.3527 24.9968H1.63576C0.900119 24.9968 0.304688 24.4004 0.304688 23.6657V18.4932C0.304688 17.7584 0.900119 17.1621 1.63576 17.1621H60.3527C61.0884 17.1621 61.6838 17.7584 61.6838 18.4932V23.6657C61.6838 24.4004 61.0875 24.9968 60.3527 24.9968ZM2.96682 22.3346H59.0217V19.8242H2.96682V22.3346Z" fill="#333333"/>
<path d="M60.3411 54.75H1.625V59.1541H60.3411V54.75Z" fill="#F2F2F2"/>
<path d="M60.3527 60.4968H1.63576C0.900119 60.4968 0.304688 59.9004 0.304688 59.1657V54.7608C0.304688 54.026 0.900119 53.4297 1.63576 53.4297H60.3527C61.0884 53.4297 61.6838 54.026 61.6838 54.7608V59.1657C61.6838 59.9004 61.0875 60.4968 60.3527 60.4968ZM2.96682 57.8346H59.0217V56.0918H2.96682V57.8346Z" fill="#333333"/>
<path d="M57.9901 50.3496H4.03125V54.7536H57.9901V50.3496Z" fill="#F2F2F2"/>
<path d="M57.9999 56.0838H4.04201C3.30637 56.0838 2.71094 55.4875 2.71094 54.7527V50.3486C2.71094 49.6139 3.30637 49.0176 4.04201 49.0176H58.0008C58.7365 49.0176 59.3319 49.6139 59.3319 50.3486V54.7527C59.331 55.4875 58.7356 56.0838 57.9999 56.0838ZM5.37307 53.4216H56.6698V51.6797H5.37307V53.4216Z" fill="#333333"/>
<path d="M12.5535 27.8633H7.70312V50.3477H12.5535V27.8633Z" fill="#08C5FF"/>
<path d="M12.5643 51.6661H7.71388C6.97824 51.6661 6.38281 51.0698 6.38281 50.335V27.8506C6.38281 27.1158 6.97824 26.5195 7.71388 26.5195H12.5643C13.2999 26.5195 13.8954 27.1158 13.8954 27.8506V50.335C13.8954 51.0698 13.2999 51.6661 12.5643 51.6661ZM9.04495 49.0039H11.2332V29.1817H9.04495V49.0039Z" fill="#333333"/>
<path d="M54.3504 27.8633H49.5V50.3477H54.3504V27.8633Z" fill="#08C5FF"/>
<path d="M54.3612 51.6661H49.5108C48.7751 51.6661 48.1797 51.0698 48.1797 50.335V27.8506C48.1797 27.1158 48.7751 26.5195 49.5108 26.5195H54.3612C55.0968 26.5195 55.6922 27.1158 55.6922 27.8506V50.335C55.6922 51.0698 55.0968 51.6661 54.3612 51.6661ZM50.8418 49.0039H53.0301V29.1817H50.8418V49.0039Z" fill="#333333"/>
<path d="M26.4285 27.8633H21.5781V50.3477H26.4285V27.8633Z" fill="#08C5FF"/>
<path d="M26.4393 51.6661H21.5889C20.8532 51.6661 20.2578 51.0698 20.2578 50.335V27.8506C20.2578 27.1158 20.8532 26.5195 21.5889 26.5195H26.4393C27.1749 26.5195 27.7704 27.1158 27.7704 27.8506V50.335C27.7704 51.0698 27.174 51.6661 26.4393 51.6661ZM22.919 49.0039H25.1073V29.1817H22.919V49.0039Z" fill="#333333"/>
<path d="M40.4129 27.8633H35.5625V50.3477H40.4129V27.8633Z" fill="#08C5FF"/>
<path d="M40.3768 51.6661H35.5264C34.7907 51.6661 34.1953 51.0698 34.1953 50.335V27.8506C34.1953 27.1158 34.7907 26.5195 35.5264 26.5195H40.3768C41.1124 26.5195 41.7079 27.1158 41.7079 27.8506V50.335C41.7079 51.0698 41.1124 51.6661 40.3768 51.6661ZM36.8574 49.0039H39.0457V29.1817H36.8574V49.0039Z" fill="#333333"/>
<path d="M26.4576 27.8793H21.6515C20.4979 27.8793 19.5547 26.936 19.5547 25.7824C19.5547 24.6288 20.4979 23.6855 21.6515 23.6855H26.4576C27.6112 23.6855 28.5545 24.6288 28.5545 25.7824C28.5545 26.9351 27.6103 27.8793 26.4576 27.8793Z" fill="#F2F2F2"/>
<path d="M26.4675 29.1968H21.6623C19.7722 29.1968 18.2344 27.659 18.2344 25.7689C18.2344 23.8787 19.7722 22.3418 21.6623 22.3418H26.4675C28.3576 22.3418 29.8954 23.8787 29.8954 25.7689C29.8963 27.6581 28.3585 29.1968 26.4675 29.1968ZM21.6623 25.0031C21.247 25.0031 20.8965 25.3536 20.8965 25.768C20.8965 26.1833 21.2479 26.5338 21.6623 26.5338H26.4675C26.8828 26.5338 27.2333 26.1824 27.2333 25.768C27.2333 25.3527 26.8819 25.0031 26.4675 25.0031H21.6623Z" fill="#333333"/>
<path d="M40.3951 27.8793H35.589C34.4354 27.8793 33.4922 26.936 33.4922 25.7824C33.4922 24.6288 34.4354 23.6855 35.589 23.6855H40.3951C41.5487 23.6855 42.492 24.6288 42.492 25.7824C42.492 26.9351 41.5478 27.8793 40.3951 27.8793Z" fill="#F2F2F2"/>
<path d="M40.4059 29.1968H35.5998C33.7097 29.1968 32.1719 27.659 32.1719 25.7689C32.1719 23.8787 33.7097 22.3418 35.5998 22.3418H40.4059C42.296 22.3418 43.8338 23.8787 43.8338 25.7689C43.8338 27.6581 42.296 29.1968 40.4059 29.1968ZM35.5998 25.0031C35.1845 25.0031 34.834 25.3536 34.834 25.768C34.834 26.1833 35.1854 26.5338 35.5998 26.5338H40.4059C40.8211 26.5338 41.1717 26.1824 41.1717 25.768C41.1717 25.3527 40.8203 25.0031 40.4059 25.0031H35.5998Z" fill="#333333"/>
<path d="M54.3326 27.8558H49.5266C48.373 27.8558 47.4297 26.9126 47.4297 25.759C47.4297 24.6054 48.373 23.6621 49.5266 23.6621H54.3326C55.4862 23.6621 56.4295 24.6054 56.4295 25.759C56.4295 26.9126 55.4862 27.8558 54.3326 27.8558Z" fill="#F2F2F2"/>
<path d="M54.3434 29.1851H49.5374C47.6472 29.1851 46.1094 27.6473 46.1094 25.7571C46.1094 23.867 47.6472 22.3301 49.5374 22.3301H54.3434C56.2335 22.3301 57.7713 23.867 57.7713 25.7571C57.7713 27.6473 56.2335 29.1851 54.3434 29.1851ZM49.5374 24.9913C49.1221 24.9913 48.7715 25.341 48.7715 25.7563C48.7715 26.1716 49.1229 26.5221 49.5374 26.5221H54.3434C54.7586 26.5221 55.1092 26.1707 55.1092 25.7563C55.1092 25.341 54.7586 24.9913 54.3434 24.9913H49.5374Z" fill="#333333"/>
<path d="M12.5201 27.8793H7.7141C6.5605 27.8793 5.61719 26.936 5.61719 25.7824C5.61719 24.6288 6.5605 23.6855 7.7141 23.6855H12.5201C13.6737 23.6855 14.617 24.6288 14.617 25.7824C14.617 26.9351 13.6737 27.8793 12.5201 27.8793Z" fill="#F2F2F2"/>
<path d="M12.5074 29.1968H7.70141C5.8113 29.1968 4.27344 27.659 4.27344 25.7689C4.27344 23.8787 5.8113 22.3418 7.70141 22.3418H12.5074C14.3975 22.3418 15.9354 23.8787 15.9354 25.7689C15.9354 27.6581 14.3984 29.1968 12.5074 29.1968ZM7.70141 25.0031C7.28612 25.0031 6.93557 25.3536 6.93557 25.768C6.93557 26.1833 7.28612 26.5338 7.70141 26.5338H12.5074C12.9227 26.5338 13.2733 26.1824 13.2733 25.768C13.2733 25.3527 12.9218 25.0031 12.5074 25.0031H7.70141Z" fill="#333333"/>
</svg>
