<svg width="58" height="60" viewBox="0 0 58 60" fill="none" xmlns="http://www.w3.org/2000/svg">
<path d="M4.69434 7.41602H53.3037C55.2541 7.41602 56.8347 8.99705 56.835 10.9463V43.9473L56.8301 44.1289C56.7354 45.9947 55.194 47.4773 53.3047 47.4775H4.81641C4.00607 47.0638 3.09976 46.6071 2.37793 46.0254C1.62798 45.4209 1.1642 44.7517 1.16406 43.9473V10.9463C1.16431 9.05809 2.64806 7.51573 4.5127 7.4209L4.69434 7.41602Z" fill="#783E19" stroke="#89481E"/>
<path d="M41.6829 11.7045C41.6829 17.8407 36.812 22.8146 30.805 22.8146C24.7967 22.8146 19.9258 17.8407 19.9258 11.7045C19.9258 5.56823 24.7967 0.59375 30.805 0.59375C36.8121 0.593593 41.6829 5.56808 41.6829 11.7045Z" fill="#FBB040"/>
<path d="M30.8046 0C24.4765 0 19.3477 5.23865 19.3477 11.7009C19.3477 18.1637 24.4765 23.4018 30.8046 23.4018C37.1315 23.4018 42.2603 18.1637 42.2603 11.7009C42.2603 5.23865 37.1315 0 30.8046 0ZM30.8046 22.6334C24.8925 22.6334 20.1014 17.7386 20.1014 11.701C20.1014 5.66408 24.8927 0.769128 30.8046 0.769128C36.7154 0.769128 41.5067 5.66392 41.5067 11.701C41.5065 17.7386 36.7153 22.6334 30.8046 22.6334Z" fill="#D18E30"/>
<path d="M39.1171 11.7047C39.1171 16.3943 35.3939 20.1959 30.803 20.1959C26.2114 20.1959 22.4883 16.3943 22.4883 11.7047C22.4883 7.01462 26.2114 3.21289 30.803 3.21289C35.3938 3.21289 39.1171 7.01446 39.1171 11.7047Z" fill="#D18E30"/>
<path d="M37.0427 11.6999C37.0427 15.213 34.2496 18.0592 30.8065 18.0592C27.3615 18.0592 24.5703 15.2128 24.5703 11.6999C24.5703 8.18866 27.3615 5.3418 30.8065 5.3418C34.2496 5.3418 37.0427 8.18866 37.0427 11.6999Z" fill="#E5A14B"/>
<path d="M32.8734 10.1208H31.0394V9.8174C31.0394 9.49331 31.0186 9.28123 30.9764 9.1813C30.9335 9.082 30.8427 9.03118 30.7031 9.03118C30.5916 9.03118 30.507 9.07463 30.4513 9.16106C30.3956 9.24687 30.3674 9.37613 30.3674 9.549C30.3674 9.83701 30.4237 10.038 30.5407 10.1526C30.6516 10.2684 30.9825 10.4921 31.5298 10.8254C31.9962 11.1073 32.3148 11.3218 32.4839 11.4719C32.653 11.6214 32.7964 11.8341 32.9121 12.108C33.0298 12.3819 33.0874 12.7226 33.0874 13.1313C33.0874 13.7857 32.9292 14.2985 32.6161 14.67C32.2999 15.0432 31.8282 15.273 31.1988 15.3618V16.0506H30.3544V15.3386C29.8635 15.2895 29.4347 15.1014 29.0682 14.7731C28.703 14.444 28.5192 13.8723 28.5192 13.0542V12.6952H30.3544V13.1455C30.3544 13.6389 30.3734 13.9453 30.4113 14.0646C30.4474 14.1842 30.5406 14.2443 30.6852 14.2443C30.8096 14.2443 30.9015 14.2025 30.9629 14.1192C31.0223 14.0359 31.0536 13.9128 31.0536 13.7498C31.0536 13.338 31.0253 13.0433 30.9671 12.8662C30.9095 12.6891 30.7128 12.4961 30.3757 12.2872C29.8163 11.9355 29.4358 11.678 29.2342 11.5138C29.0332 11.3477 28.8585 11.1149 28.7127 10.8165C28.5656 10.5163 28.4922 10.1774 28.4922 9.79937C28.4922 9.25158 28.6472 8.82144 28.9586 8.50943C29.2687 8.1982 29.7332 8.00635 30.3544 7.9334V7.34766H31.1988V7.9334C31.7639 8.00635 32.1872 8.19569 32.4698 8.50268C32.751 8.8103 32.8925 9.23495 32.8925 9.77599C32.8924 9.85176 32.885 9.9669 32.8734 10.1208Z" fill="white"/>
<path d="M47.6297 17.3438H9.79687C7.58774 17.3438 5.79688 19.1346 5.79688 21.3438V40.7193C5.79688 42.9285 7.58774 44.7193 9.79688 44.7193H47.6297C49.8388 44.7193 51.6297 42.9285 51.6297 40.7193V21.3438C51.6297 19.1346 49.8388 17.3438 47.6297 17.3438Z" fill="#4C3223"/>
<path d="M35.7549 19.3984V19.3994C38.5477 20.5628 39.4785 22.6999 39.4785 24.751V55.9688C39.4785 57.8899 37.9445 59.451 36.0342 59.4971L4.89258 47.5176C2.90093 46.6095 2.01352 45.9003 1.59277 45.2236C1.17691 44.5548 1.16406 43.846 1.16406 42.7051V10.9463C1.16432 9.02623 2.69857 7.4644 4.60742 7.41797L35.7549 19.3984Z" fill="#783E19" stroke="#89481E"/>
<path d="M36.1556 51.3269C36.1556 53.2093 36.1556 55.5054 32.9074 54.794L7.89595 44.8028C4.90995 43.7275 4.48828 42.5723 4.48828 40.3051V13.4992C4.48828 11.6174 5.13113 11.5371 7.01356 11.5371L32.7481 22.1148C35.2176 22.5591 36.1558 24.8845 36.1558 26.7663V51.3269H36.1556Z" fill="#783E19"/>
</svg>
