<svg width="50" height="61" viewBox="0 0 50 61" fill="none" xmlns="http://www.w3.org/2000/svg">
<path d="M49.543 57.1871C49.543 59.0165 48.0605 60.5 46.2292 60.5H3.76605C1.93658 60.5 0.453125 59.0165 0.453125 57.1871V3.81292C0.453125 1.98434 1.93635 0.5 3.76605 0.5H46.2292C48.0605 0.5 49.543 1.98412 49.543 3.81292V57.1871Z" fill="#FFF8ED"/>
<path d="M44.0231 57.6729H5.97162C4.1734 57.6729 2.71094 56.2095 2.71094 54.4115V6.58362C2.71094 4.7854 4.1734 3.32227 5.97162 3.32227H44.0231C45.8213 3.32227 47.2853 4.78562 47.2853 6.58362V54.4115C47.2853 56.2098 45.8213 57.6729 44.0231 57.6729ZM5.97162 3.90649C4.49532 3.90649 3.2945 5.10821 3.2945 6.58362V54.4115C3.2945 55.8878 4.49532 57.0878 5.97162 57.0878H44.0231C45.4994 57.0878 46.6993 55.8878 46.6993 54.4115V6.58362C46.6993 5.10821 45.4994 3.90649 44.0231 3.90649H5.97162Z" fill="#A7A9AC"/>
<path d="M21.8707 8.28906V10.1866H20.4064V17.7733H17.9394V10.1866H16.4805V8.28906H21.8707Z" fill="#BE1E2D"/>
<path d="M26.2179 8.28906L27.6279 17.7733H25.1077L24.9751 16.0684H24.0927L23.9444 17.7733H21.3945L22.653 8.28906H26.2179ZM24.9099 14.3863C24.7852 13.3127 24.6606 11.9846 24.5349 10.4036C24.2837 12.2193 24.125 13.5473 24.0614 14.3863H24.9099Z" fill="#BE1E2D"/>
<path d="M33.345 8.28906L32.4773 12.4836L33.7843 17.7733H31.4988C31.2258 16.8272 30.9755 15.6753 30.748 14.3166C30.6878 14.9182 30.6007 15.5558 30.4891 16.2273L30.2571 17.7735H27.8555L28.752 12.4838L27.8555 8.28929H30.2388C30.2832 8.55003 30.3687 8.98513 30.4969 9.59481C30.5998 10.0596 30.6835 10.4869 30.748 10.8785L31.2764 8.28929H33.345V8.28906Z" fill="#BE1E2D"/>
<path d="M43.9435 20.1758H6.05078V22.5138H43.9435V20.1758Z" fill="#BE1E2D"/>
<path d="M43.9435 25.7285H6.05078V28.0656H43.9435V25.7285Z" fill="#BE1E2D"/>
<path d="M43.9435 31.1816H6.05078V33.5188H43.9435V31.1816Z" fill="#A7A9AC"/>
<path d="M43.9435 36.0039H6.05078V38.3428H43.9435V36.0039Z" fill="#A7A9AC"/>
<path d="M43.9435 40.8262H6.05078V43.1633H43.9435V40.8262Z" fill="#A7A9AC"/>
<path d="M43.9435 45.6484H6.05078V47.9856H43.9435V45.6484Z" fill="#A7A9AC"/>
<path d="M43.9435 50.4688H6.05078V52.8074H43.9435V50.4688Z" fill="#A7A9AC"/>
</svg>
