<svg width="48" height="61" viewBox="0 0 48 61" fill="none" xmlns="http://www.w3.org/2000/svg">
<path d="M38.2278 11.5696H38.6381C39.8542 11.5696 40.8359 10.5879 40.8359 9.37181V5.91463C40.8359 4.69849 39.8542 3.7168 38.6381 3.7168H2.74076C1.53271 3.7168 0.542969 4.69849 0.542969 5.91463V9.37181C0.542969 10.5879 1.53271 11.5696 2.74076 11.5696H3.15835C3.15835 24.4936 18.0521 25.6138 18.0521 32.3545C18.0521 39.1011 3.15835 40.2227 3.15835 53.1453H2.74076C1.53271 53.1453 0.542969 54.1269 0.542969 55.3431V58.8017C0.542969 60.0178 1.53271 60.9995 2.74076 60.9995H38.6381C39.8542 60.9995 40.8359 60.0178 40.8359 58.8017V55.3431C40.8359 54.1269 39.8542 53.1453 38.6381 53.1453H38.2278C38.2278 40.2227 23.3268 39.1011 23.3268 32.3545C23.3268 25.6138 38.2278 24.4936 38.2278 11.5696Z" fill="#F29B30"/>
<path d="M8.77734 8.85352H43.8468C43.8468 21.776 28.9458 22.8976 28.9458 29.6369C28.9458 36.385 43.8468 37.5052 43.8468 50.4291H8.77734C8.77734 37.5052 23.6711 36.385 23.6711 29.6369C23.6711 22.8976 8.77734 21.776 8.77734 8.85352Z" fill="white"/>
<path d="M40.8674 50.4304C40.0886 43.3922 23.6454 45.6354 28.3546 29.6426H24.2652C28.9758 45.6354 12.5319 43.3922 11.7539 50.4304H40.8674Z" fill="#64C753"/>
<path d="M38.9521 19.4906C30.0788 18.7954 20.0583 15.3579 11.9844 17.7477C16.3617 22.9463 23.6686 24.9148 23.6686 29.6372C23.6686 29.8204 23.6532 29.9962 23.6312 30.1713C25.3697 30.2841 27.1602 30.1742 28.9601 29.8893C28.9557 29.805 28.9433 29.723 28.9433 29.6372C28.944 25.4819 34.6077 23.4584 38.9521 19.4906Z" fill="#64C753"/>
<path d="M46.4531 52.6275V56.0847C46.4531 57.3008 45.4714 58.2825 44.2553 58.2825H8.35795C7.1499 58.2825 6.16016 57.3008 6.16016 56.0847V52.6275C6.16016 51.4114 7.1499 50.4297 8.35795 50.4297H8.77553H43.845H44.2553C45.4721 50.4297 46.4531 51.4114 46.4531 52.6275Z" fill="#8C4D35"/>
<path d="M46.4531 3.19783V6.65647C46.4531 7.87261 45.4714 8.8543 44.2553 8.8543H43.845H8.77553H8.35795C7.1499 8.8543 6.16016 7.87261 6.16016 6.65647V3.19783C6.16016 1.9817 7.1499 1 8.35795 1H44.2553C45.4721 1 46.4531 1.9817 46.4531 3.19783Z" fill="#8C4D35"/>
<path d="M8.77553 8.8543H8.35795C7.1499 8.8543 6.16016 7.87261 6.16016 6.65647V3.19783C6.16016 1.9817 7.1499 1 8.35795 1H44.2553C45.4714 1 46.4531 1.9817 46.4531 3.19783V6.65647C46.4531 7.87261 45.4714 8.8543 44.2553 8.8543H43.845H8.77553Z" stroke="#402318" stroke-width="2" stroke-miterlimit="10" strokeLinecap="round" strokeLinejoin="round"/>
<path d="M43.845 50.4297H44.2553C45.4714 50.4297 46.4531 51.4114 46.4531 52.6275V56.0847C46.4531 57.3008 45.4714 58.2825 44.2553 58.2825H8.35795C7.1499 58.2825 6.16016 57.3008 6.16016 56.0847V52.6275C6.16016 51.4114 7.1499 50.4297 8.35795 50.4297H8.77553H43.845Z" stroke="#402318" stroke-width="2" stroke-miterlimit="10" strokeLinecap="round" strokeLinejoin="round"/>
<path d="M8.77734 50.4291C8.77734 37.5052 23.6711 36.385 23.6711 29.6369C23.6711 22.8976 8.77734 21.776 8.77734 8.85352" stroke="#402318" stroke-width="2" stroke-miterlimit="10" strokeLinecap="round" strokeLinejoin="round"/>
<path d="M43.8464 50.4291C43.8464 37.5052 28.9453 36.385 28.9453 29.6369C28.9453 22.8976 43.8464 21.776 43.8464 8.85352" stroke="#402318" stroke-width="2" stroke-miterlimit="10" strokeLinecap="round" strokeLinejoin="round"/>
</svg>
