<svg width="91" height="61" viewBox="0 0 91 61" fill="none" xmlns="http://www.w3.org/2000/svg">
<path d="M90.9836 39.1155C90.9836 39.1155 85.4252 38.8859 81.3483 31.8679C83.0054 29.0384 83.8165 25.617 83.4967 21.8707C82.5957 11.3165 74.382 2.4689 65.1509 2.10821L52.1785 1.60171C42.9473 1.24102 34.4093 9.14527 33.108 19.2556C31.8067 29.3664 39.5211 38.1134 50.3391 38.794L65.5409 39.7498C69.8088 40.018 73.6404 38.9305 76.6647 36.8719C78.9986 38.4877 83.7094 40.6551 90.9836 39.1155Z" fill="#FFB600"/>
<path d="M66.693 20.0757C66.539 21.7084 67.7381 23.1566 69.3707 23.3105C71.0034 23.4645 72.4516 22.2655 72.6055 20.6328C72.7595 19.0002 71.5604 17.552 69.9278 17.398C68.2952 17.2446 66.847 18.4431 66.693 20.0757Z" fill="#0076BE"/>
<path d="M55.7985 19.0488C55.6445 20.6815 56.8436 22.1297 58.4762 22.2831C60.1088 22.4371 61.557 21.238 61.7104 19.6054C61.8644 17.9727 60.6654 16.5245 59.0327 16.3706C57.4001 16.2177 55.9519 17.4162 55.7985 19.0488Z" fill="#0076BE"/>
<path d="M44.9039 18.023C44.75 19.6556 45.949 21.1038 47.5817 21.2578C49.2143 21.4118 50.6625 20.2127 50.8159 18.5801C50.9699 16.9474 49.7708 15.4992 48.1382 15.3453C46.5061 15.1918 45.0579 16.3909 44.9039 18.023Z" fill="#0076BE"/>
<path d="M33.2617 19.4842L18.1387 20.3737C7.37728 21.007 -0.71299 29.0728 0.0676935 38.3894C0.623148 45.0146 4.99715 50.8472 10.8917 53.7567C8.64106 59.7247 4.38838 61.001 4.38838 61.001C11.4314 60.7105 15.1743 57.548 16.8418 55.5699C17.4467 55.6477 18.0582 55.6972 18.6752 55.7135L32.0186 56.0666C41.5141 56.318 50.0026 47.9736 50.9791 37.4297C51.9551 26.8858 44.0232 18.851 33.2617 19.4842Z" fill="#0076BE"/>
<path d="M31.5785 37.605C31.665 39.2425 33.0631 40.4998 34.7007 40.4127C36.3382 40.3262 37.5955 38.9281 37.5084 37.2905C37.4219 35.653 36.0237 34.3957 34.3862 34.4828C32.7487 34.5693 31.4914 35.9669 31.5785 37.605Z" fill="#FFB600"/>
<path d="M20.6488 38.1831C20.7353 39.8206 22.1335 41.0779 23.771 40.9909C25.4085 40.9044 26.6658 39.5062 26.5787 37.8687C26.4917 36.2311 25.0941 34.9739 23.4565 35.0609C21.819 35.1479 20.5617 36.5461 20.6488 38.1831Z" fill="#FFB600"/>
<path d="M9.72301 38.7626C9.81006 40.4002 11.2077 41.6574 12.8452 41.5709C14.4827 41.4839 15.74 40.0863 15.6529 38.4487C15.5664 36.8112 14.1683 35.5539 12.5308 35.641C10.8932 35.7275 9.63597 37.1251 9.72301 38.7626Z" fill="#FFB600"/>
<path d="M50.9788 37.4277C51.9548 26.8838 44.0228 18.849 33.2614 19.4823L33.0867 19.4926C31.9367 29.5017 39.6097 38.1176 50.3418 38.7922L50.7993 38.821C50.8716 38.3607 50.9353 37.8972 50.9788 37.4277Z" fill="#0076BE"/>
<path d="M19.9496 4.7922C19.5574 4.21498 19.1657 3.63777 18.7734 3.06055" stroke="#FFB600" stroke-width="1.5" stroke-miterlimit="10" strokeLinecap="round" strokeLinejoin="round"/>
<path d="M24.704 11.7975C23.4653 9.97391 22.227 8.15031 20.9883 6.32617" stroke="#FFB600" stroke-width="1.5" stroke-miterlimit="10" strokeLinecap="round" strokeLinejoin="round"/>
<path d="M27.7976 4.7386C27.4744 3.49222 27.1513 2.24638 26.8281 1" stroke="#FFB600" stroke-width="1.5" stroke-miterlimit="10" strokeLinecap="round" strokeLinejoin="round"/>
<path d="M29.2123 10.1976C28.8537 8.81469 28.4952 7.43176 28.1367 6.04883" stroke="#FFB600" stroke-width="1.5" stroke-miterlimit="10" strokeLinecap="round" strokeLinejoin="round"/>
<path d="M17.848 12.7622C16.6033 11.9695 15.358 11.1774 14.1133 10.3848" stroke="#FFB600" stroke-width="1.5" stroke-miterlimit="10" strokeLinecap="round" strokeLinejoin="round"/>
<path d="M20.6685 14.5578C20.1984 14.2586 19.7279 13.9594 19.2578 13.6602" stroke="#FFB600" stroke-width="1.5" stroke-miterlimit="10" strokeLinecap="round" strokeLinejoin="round"/>
<path d="M57.1172 48.8359C58.1187 50.2553 58.6503 51.0077 59.6513 52.4271" stroke="#FFB600" stroke-width="1.5" stroke-miterlimit="10" strokeLinecap="round" strokeLinejoin="round"/>
<path d="M55.3086 46.2734C55.5697 46.6439 55.8314 47.0144 56.0931 47.3849" stroke="#FFB600" stroke-width="1.5" stroke-miterlimit="10" strokeLinecap="round" strokeLinejoin="round"/>
<path d="M64.293 47.6797C64.9659 48.0257 65.6394 48.3717 66.3124 48.7177" stroke="#FFB600" stroke-width="1.5" stroke-miterlimit="10" strokeLinecap="round" strokeLinejoin="round"/>
<path d="M58.8242 44.8672C60.1098 45.5282 61.3959 46.1892 62.6819 46.8502" stroke="#FFB600" stroke-width="1.5" stroke-miterlimit="10" strokeLinecap="round" strokeLinejoin="round"/>
<path d="M53.5781 55.5293C53.7326 56.1147 53.8866 56.7001 54.0411 57.2849" stroke="#FFB600" stroke-width="1.5" stroke-miterlimit="10" strokeLinecap="round" strokeLinejoin="round"/>
<path d="M52.1328 50.0469C52.5093 51.4755 52.8857 52.9036 53.2622 54.3322" stroke="#FFB600" stroke-width="1.5" stroke-miterlimit="10" strokeLinecap="round" strokeLinejoin="round"/>
</svg>
