<svg width="51" height="60" viewBox="0 0 51 60" fill="none" xmlns="http://www.w3.org/2000/svg">
<path d="M39.6085 37.862C39.6351 37.8613 39.6607 37.8653 39.6873 37.8653V0H0.242188V52.6956H29.2929C28.8733 51.5421 28.6293 50.3041 28.6199 49.0081C28.5767 42.9063 33.5056 37.9055 39.6085 37.862ZM6.8923 7.4792H36.3744V11.0046H6.8923V7.4792ZM3.556 15.4565H36.3745V18.9819H3.556V15.4565ZM3.556 23.4344H36.3745V26.9598H3.556V23.4344ZM28.2178 42.9134H3.556V39.3889H28.2178V42.9134ZM3.556 34.9361V31.4116H36.3745V34.9361H3.556Z" fill="white"/>
<path d="M36.3728 7.47852H6.89062V11.004H36.3728V7.47852Z" fill="#00A7FF"/>
<path d="M36.3732 15.457H3.55469V18.9825H36.3732V15.457Z" fill="#00A7FF"/>
<path d="M36.3732 23.4336H3.55469V26.959H36.3732V23.4336Z" fill="#00A7FF"/>
<path d="M36.3732 31.4121H3.55469V34.9366H36.3732V31.4121Z" fill="#00A7FF"/>
<path d="M28.2165 39.3887H3.55469V42.9132H28.2165V39.3887Z" fill="#00A7FF"/>
<path d="M39.606 37.8614C33.5031 37.905 28.5742 42.9057 28.6175 49.0076C28.6267 50.3035 28.8708 51.5416 29.2904 52.6951C30.8458 56.976 34.9581 60.0327 39.7653 59.9993C45.8671 59.9554 50.7959 54.955 50.7532 48.8515C50.7105 42.7749 45.7528 37.8648 39.685 37.8648C39.6584 37.8648 39.6326 37.8607 39.606 37.8614ZM47.9261 48.87C47.9582 53.4162 44.2856 57.1381 39.7447 57.1705C35.1984 57.203 31.4779 53.5328 31.4447 48.9881C31.412 44.4437 35.0827 40.7225 39.6261 40.6897C44.1699 40.657 47.893 44.3275 47.9261 48.87Z" fill="white"/>
<path d="M41.8183 46.1074V50.0525H43.9296L39.5859 55.5777L35.2422 50.0525H37.3535V46.1074H41.8183Z" fill="#00A7FF"/>
<path d="M41.8164 44.9316H37.3516V45.8371H41.8164V44.9316Z" fill="#00A7FF"/>
<path opacity="0.8" d="M41.8164 43.7578H37.3516V44.6633H41.8164V43.7578Z" fill="#00A7FF"/>
<path opacity="0.5" d="M41.8164 42.5781H37.3516V43.4836H41.8164V42.5781Z" fill="#00A7FF"/>
</svg>
