<svg width="58" height="61" viewBox="0 0 58 61" fill="none" xmlns="http://www.w3.org/2000/svg">
<path d="M4.69434 7.91602H53.3037C55.2541 7.91602 56.8347 9.49705 56.835 11.4463V44.4473L56.8301 44.6289C56.7354 46.4947 55.194 47.9773 53.3047 47.9775H4.81641C4.00607 47.5638 3.09976 47.1071 2.37793 46.5254C1.62798 45.9209 1.1642 45.2517 1.16406 44.4473V11.4463C1.16431 9.55809 2.64806 8.01573 4.5127 7.9209L4.69434 7.91602Z" fill="#783E19" stroke="#89481E"/>
<path d="M41.679 12.2045C41.679 18.3407 36.8081 23.3146 30.8011 23.3146C24.7928 23.3146 19.9219 18.3407 19.9219 12.2045C19.9219 6.06823 24.7928 1.09375 30.8011 1.09375C36.8082 1.09359 41.679 6.06808 41.679 12.2045Z" fill="#FBB040"/>
<path d="M30.8007 0.5C24.4726 0.5 19.3438 5.73865 19.3438 12.2009C19.3438 18.6637 24.4726 23.9018 30.8007 23.9018C37.1276 23.9018 42.2564 18.6637 42.2564 12.2009C42.2564 5.73865 37.1276 0.5 30.8007 0.5ZM30.8007 23.1334C24.8886 23.1334 20.0975 18.2386 20.0975 12.201C20.0975 6.16408 24.8888 1.26913 30.8007 1.26913C36.7115 1.26913 41.5028 6.16392 41.5028 12.201C41.5026 18.2386 36.7114 23.1334 30.8007 23.1334Z" fill="#D18E30"/>
<path d="M39.1131 12.2047C39.1131 16.8943 35.39 20.6959 30.7991 20.6959C26.2075 20.6959 22.4844 16.8943 22.4844 12.2047C22.4844 7.51462 26.2075 3.71289 30.7991 3.71289C35.3899 3.71289 39.1131 7.51446 39.1131 12.2047Z" fill="#D18E30"/>
<path d="M37.0349 12.1999C37.0349 15.713 34.2418 18.5592 30.7987 18.5592C27.3537 18.5592 24.5625 15.7128 24.5625 12.1999C24.5625 8.68866 27.3537 5.8418 30.7987 5.8418C34.2418 5.8418 37.0349 8.68866 37.0349 12.1999Z" fill="#E5A14B"/>
<path d="M32.8734 10.6208H31.0394V10.3174C31.0394 9.99331 31.0186 9.78123 30.9764 9.6813C30.9335 9.582 30.8427 9.53118 30.7031 9.53118C30.5916 9.53118 30.507 9.57463 30.4513 9.66106C30.3956 9.74687 30.3674 9.87613 30.3674 10.049C30.3674 10.337 30.4237 10.538 30.5407 10.6526C30.6516 10.7684 30.9825 10.9921 31.5298 11.3254C31.9962 11.6073 32.3148 11.8218 32.4839 11.9719C32.653 12.1214 32.7964 12.3341 32.9121 12.608C33.0298 12.8819 33.0874 13.2226 33.0874 13.6313C33.0874 14.2857 32.9292 14.7985 32.6161 15.17C32.2999 15.5432 31.8282 15.773 31.1988 15.8618V16.5506H30.3544V15.8386C29.8635 15.7895 29.4347 15.6014 29.0682 15.2731C28.703 14.944 28.5192 14.3723 28.5192 13.5542V13.1952H30.3544V13.6455C30.3544 14.1389 30.3734 14.4453 30.4113 14.5646C30.4474 14.6842 30.5406 14.7443 30.6852 14.7443C30.8096 14.7443 30.9015 14.7025 30.9629 14.6192C31.0223 14.5359 31.0536 14.4128 31.0536 14.2498C31.0536 13.838 31.0253 13.5433 30.9671 13.3662C30.9095 13.1891 30.7128 12.9961 30.3757 12.7872C29.8163 12.4355 29.4358 12.178 29.2342 12.0138C29.0332 11.8477 28.8585 11.6149 28.7127 11.3165C28.5656 11.0163 28.4922 10.6774 28.4922 10.2994C28.4922 9.75158 28.6472 9.32144 28.9586 9.00943C29.2687 8.6982 29.7332 8.50635 30.3544 8.4334V7.84766H31.1988V8.4334C31.7639 8.50635 32.1872 8.69569 32.4698 9.00268C32.751 9.3103 32.8925 9.73495 32.8925 10.276C32.8924 10.3518 32.885 10.4669 32.8734 10.6208Z" fill="white"/>
<path d="M47.6297 17.8438H9.79687C7.58774 17.8438 5.79688 19.6346 5.79688 21.8438V41.2193C5.79688 43.4285 7.58774 45.2193 9.79688 45.2193H47.6297C49.8388 45.2193 51.6297 43.4285 51.6297 41.2193V21.8438C51.6297 19.6346 49.8388 17.8438 47.6297 17.8438Z" fill="#4C3223"/>
<path d="M35.7549 19.8984V19.8994C38.5477 21.0628 39.4785 23.1999 39.4785 25.251V56.4688C39.4785 58.3899 37.9445 59.951 36.0342 59.9971L4.89258 48.0176C2.90093 47.1095 2.01352 46.4003 1.59277 45.7236C1.17691 45.0548 1.16406 44.346 1.16406 43.2051V11.4463C1.16432 9.52623 2.69857 7.9644 4.60742 7.91797L35.7549 19.8984Z" fill="#783E19" stroke="#89481E"/>
<path d="M36.1517 51.8269C36.1517 53.7093 36.1517 56.0054 32.9034 55.294L7.89205 45.3028C4.90604 44.2275 4.48438 43.0723 4.48438 40.8051V13.9992C4.48438 12.1174 5.12723 12.0371 7.00966 12.0371L32.7442 22.6148C35.2137 23.0591 36.1519 25.3845 36.1519 27.2663V51.8269H36.1517Z" fill="#783E19"/>
</svg>
