<svg width="63" height="60" viewBox="0 0 63 60" fill="none" xmlns="http://www.w3.org/2000/svg">
<path d="M12.7302 31.4375L11.8359 31.4604V31.4612L12.7302 31.4375Z" fill="#00A7FF"/>
<path d="M16.6 45.8904C12.7133 41.9987 10.5237 37.37 10.0852 32.123L4.67453 32.7282L4.60179 32.7359L4.5286 32.7387C4.10579 32.7521 3.55043 32.7747 3.00112 32.8421C2.8832 32.856 2.76582 32.8731 2.64844 32.8903C3.33853 39.7982 6.39086 46.2599 11.3107 51.1797C16.999 56.8688 24.5621 60.0009 32.6064 60.0009C40.1914 60.0009 47.3475 57.2133 52.9081 52.1258L47.6108 46.8286C43.4746 50.4999 38.2042 52.511 32.6213 52.511C26.5596 52.511 20.87 50.1598 16.6 45.8904Z" fill="#00A7FF"/>
<path d="M32.3727 0C24.3268 0 16.7657 3.13238 11.0776 8.82019C10.4083 9.48868 9.77725 10.1846 9.17969 10.9048L14.5111 16.2367C15.0884 15.4946 15.6971 14.7781 16.3668 14.1091C20.6361 9.84127 26.3151 7.48989 32.3579 7.48907C38.42 7.48989 44.1097 9.84127 48.3801 14.1091C52.5031 18.2337 54.8344 23.6857 54.9834 29.5166C57.4605 29.1099 59.9443 28.7117 62.4275 28.3136C61.9916 20.9452 58.9036 14.0568 53.6683 8.82019C47.9801 3.13238 40.4186 0 32.3757 0H32.3727Z" fill="#00A7FF"/>
<path d="M3.68463 5.41016L0.570312 26.4811L21.5864 23.3109L14.5111 16.2361L9.17971 10.9041L3.68463 5.41016Z" fill="#00A7FF"/>
<path d="M47.6102 46.8275L52.9076 52.1249L58.3319 57.5492L61.5017 36.5332L40.4297 39.6475L47.6102 46.8275Z" fill="#00A7FF"/>
</svg>
