<svg width="76" height="60" viewBox="0 0 76 60" fill="none" xmlns="http://www.w3.org/2000/svg">
<path d="M22.7715 9.07617V9.07715L26.9209 16.2588L26.9219 16.2607L28.0371 18.1777V18.1768L34.9072 30.0654H24.9707V30.5654C24.9717 41.4982 31.8405 50.8129 41.4902 54.4268C39.7092 54.8407 37.8575 55.0635 35.9658 55.0635C22.4352 55.0633 11.4679 44.096 11.4678 30.5654V30.0654H2.99414L10.9648 16.2588L18.9502 2.43652L22.7715 9.07617Z" fill="#33B2FF" stroke="#17283F"/>
<path d="M40.0293 4.9375C53.56 4.93756 64.5273 15.9058 64.5273 29.4365V29.9365H73.001L65.0303 43.7422L57.0449 57.5645L53.2236 50.9248L49.0742 43.7422L49.0732 43.7412L47.957 41.8232L41.0869 29.9365H51.0234V29.4365C51.0244 18.5023 44.1552 9.18692 34.5039 5.57422C36.2852 5.1601 38.1373 4.9375 40.0293 4.9375Z" fill="#0090E7" stroke="#032E54"/>
</svg>
