<svg width="76" height="61" viewBox="0 0 76 61" fill="none" xmlns="http://www.w3.org/2000/svg">
<path d="M41.8534 41.9738L46.585 46.705C49.8902 43.3804 51.7559 39.1704 52.0416 34.9471C52.1827 32.8273 51.9225 30.6984 51.2245 28.6897C50.5281 26.6845 49.3843 24.7994 47.806 23.2257L40.2291 15.6462L34.9769 10.394L29.3552 4.77261C27.7778 3.19474 25.8941 2.05037 23.8895 1.35458C20.875 0.305875 17.5977 0.244409 14.4674 1.04915C11.3379 1.85227 8.33167 3.53232 5.83536 6.02634C2.50879 9.35699 0.632415 13.5819 0.346664 17.8225C0.202974 19.9402 0.464167 22.0712 1.16199 24.0781C1.85995 26.085 3.00472 27.968 4.58218 29.5439L23.0355 47.9968C24.6113 49.5723 26.4942 50.7169 28.5013 51.413C31.5157 52.4611 34.7906 52.5231 37.9208 51.7204C38.9735 51.4495 40.0115 51.0713 41.0231 50.606L35.7709 45.3538C35.2815 45.4561 34.7931 45.5222 34.311 45.5542C33.0316 45.6396 31.8039 45.4795 30.7003 45.0952C29.5966 44.7088 28.6121 44.1065 27.7687 43.2656L9.31375 24.8121C8.47034 23.9667 7.86763 22.9846 7.48175 21.8789C6.90523 20.2242 6.83304 18.283 7.3363 16.3233C7.8405 14.3677 8.91213 12.4141 10.5692 10.7594C12.7725 8.5517 15.516 7.38196 18.078 7.21276C19.3591 7.12728 20.5842 7.28997 21.6879 7.67423C22.794 8.06066 23.7761 8.66296 24.6235 9.5038L29.4126 14.2948L34.1458 19.026L43.0744 27.957C43.9185 28.8003 44.5179 29.7846 44.9048 30.8903C45.4813 32.5433 45.5535 34.4837 45.0501 36.4438C44.5501 38.3868 43.4892 40.3256 41.8534 41.9738Z" fill="#00A7FF"/>
<path d="M34.1471 19.0256L29.4139 14.2945C26.1112 17.619 24.2448 21.8292 23.9589 26.0525C23.8176 28.1723 24.0788 30.3012 24.7768 32.3098C25.4731 34.3151 26.6169 36.2 28.1944 37.7756L35.7721 45.3533L41.0243 50.6055L46.6461 56.2268C48.221 57.8047 50.1048 58.947 52.1117 59.645C55.1262 60.6936 58.4011 60.7552 61.5313 59.9506C64.6633 59.1457 67.6671 57.4673 70.1635 54.9717C73.4901 51.6427 75.3665 47.4152 75.6522 43.1772C75.7935 41.0574 75.5331 38.931 74.8351 36.9199C74.1388 34.9146 72.9942 33.0317 71.4166 31.4557L52.9658 13.0048C51.3876 11.4273 49.5071 10.2805 47.5001 9.58457C44.4848 8.53831 41.2099 8.4744 38.0797 9.27711C37.0277 9.54848 35.9873 9.92826 34.9781 10.3935L40.2302 15.6457C40.7188 15.5434 41.2083 15.4749 41.6902 15.4429C42.9688 15.3574 44.1948 15.5201 45.3009 15.9044C46.4045 16.2908 47.3883 16.8906 48.2341 17.7339L66.6851 36.1873C67.5285 37.0327 68.1312 38.0148 68.5173 39.1205C69.0936 40.7736 69.166 42.7163 68.6601 44.6741C68.1584 46.6318 67.0867 48.5853 65.4321 50.24C63.2264 52.4457 60.483 53.6158 57.9233 53.7842C56.6423 53.8696 55.4147 53.7095 54.3126 53.3252C53.2074 52.9388 52.2227 52.3389 51.377 51.4956L46.5862 46.7045L41.8547 41.9733L32.9261 33.0423C32.0827 32.1989 31.4824 31.2147 31.0965 30.109C30.5176 28.456 30.4478 26.5156 30.9511 24.5555C31.4488 22.6125 32.5098 20.672 34.1471 19.0256Z" fill="white"/>
</svg>
