<svg width="60" height="60" viewBox="0 0 60 60" fill="none" xmlns="http://www.w3.org/2000/svg">
<g clip-path="url(#clip0_7587_65934)">
<path d="M58.5616 19.1727L30.5616 0.172573C30.2226 -0.0574658 29.7776 -0.057583 29.4386 0.172573L1.43852 19.1727C1.1643 19.3586 1 19.6685 1 20V59C1 59.5523 1.44777 60 1.99996 60H58C58.5523 60 59 59.5522 59 59V20C59.0001 19.6685 58.8359 19.3586 58.5616 19.1727Z" fill="#F07B52"/>
<path d="M4.00012 59.0001V20.0001C4.00012 19.6686 4.16441 19.3587 4.43863 19.1727L31.5 0.809487L30.5615 0.172573C30.2225 -0.0574658 29.7775 -0.057583 29.4385 0.172573L1.43852 19.1727C1.1643 19.3587 1 19.6687 1 20.0001V59.0001C1 59.5524 1.44777 60.0001 1.99996 60.0001H4.99996C4.44777 60.0001 4.00012 59.5525 4.00012 59.0001Z" fill="#E5563C"/>
<path d="M48 24H12C11.4477 24 11 24.4478 11 25V58.9999C11 59.5522 11.4478 59.9999 12 59.9999H48C48.5523 59.9999 48.9999 59.5521 48.9999 58.9999V25.0001C49 24.4478 48.5523 24 48 24Z" fill="#74757B"/>
<path d="M12 24C11.4477 24 11 24.4478 11 25V58.9999C11 59.5522 11.4478 59.9999 12 59.9999H14V24H12Z" fill="#606268"/>
<path d="M49.9999 20H9.99996C9.44766 20 9 20.4478 9 21V24.9999C9 25.5522 9.44777 25.9999 9.99996 25.9999H49.9999C50.5522 25.9999 50.9999 25.5521 50.9999 24.9999V21C50.9999 20.4478 50.5521 20 49.9999 20Z" fill="#C3C4C6"/>
<path d="M49.9999 24H9.99996C9.44766 24 9 23.5522 9 23V25C9 25.5523 9.44777 26 9.99996 26H49.9999C50.5522 26 50.9999 25.5522 50.9999 25V23C50.9999 23.5524 50.5521 24 49.9999 24Z" fill="#AFB0B4"/>
<path d="M34 8.99992H26C25.4477 8.99992 25 8.55215 25 7.99996C25 7.44766 25.4478 7 26 7H34C34.5523 7 35 7.44777 35 7.99996C35 8.55227 34.5522 8.99992 34 8.99992Z" fill="#E5563C"/>
<path d="M34 12.9999H26C25.4477 12.9999 25 12.5521 25 12C25 11.4478 25.4478 11 26 11H34C34.5523 11 35 11.4478 35 12C35 12.5521 34.5522 12.9999 34 12.9999Z" fill="#E5563C"/>
<path d="M34 16.9999H26C25.4477 16.9999 25 16.5521 25 16C25 15.4477 25.4478 15 26 15H34C34.5523 15 35 15.4478 35 16C35 16.5521 34.5522 16.9999 34 16.9999Z" fill="#E5563C"/>
<path d="M24 32H12C11.4477 32 11 32.4478 11 33V45C11 45.5523 11.4478 45.9999 12 45.9999L18 46.9999L24 45.9999C24.5523 45.9999 24.9999 45.5522 24.9999 45V33C25 32.4478 24.5524 32 24 32Z" fill="#FDDD85"/>
<path d="M24 46H12C11.4477 46 11 46.4478 11 47V59C11 59.5523 11.4478 59.9999 12 59.9999H24C24.5523 59.9999 24.9999 59.5521 24.9999 59V47C25 46.4478 24.5524 46 24 46Z" fill="#FDDD85"/>
<path d="M13 59V47C13 46.4477 13.4478 46 14 46H12C11.4477 46 11 46.4478 11 47V59C11 59.5523 11.4478 59.9999 12 59.9999H14C13.4477 59.9999 13 59.5524 13 59Z" fill="#FDD042"/>
<path d="M20 46H16V50.9999C16 51.5522 16.4478 51.9999 17 51.9999H19C19.5523 51.9999 20 51.5521 20 50.9999V46Z" fill="#F2C127"/>
<path d="M19.9999 57.9999H16C15.4477 57.9999 15 57.5521 15 57C15 56.4478 15.4478 56 16 56H19.9999C20.5522 56 20.9999 56.4478 20.9999 57C20.9999 57.5521 20.5522 57.9999 19.9999 57.9999Z" fill="#74757B"/>
<path d="M13 45V33C13 32.4477 13.4478 32 14 32H12C11.4477 32 11 32.4478 11 33V45C11 45.5523 11.4478 45.9999 12 45.9999H14C13.4477 46 13 45.5524 13 45Z" fill="#FDD042"/>
<path d="M20 32H16V37C16 37.5523 16.4478 38 17 38H19C19.5523 38 20 37.5522 20 37V32Z" fill="#F2C127"/>
<path d="M19.9999 43.9999H16C15.4477 43.9999 15 43.5521 15 43C15 42.4478 15.4478 42 16 42H19.9999C20.5522 42 20.9999 42.4478 20.9999 43C20.9999 43.5521 20.5522 43.9999 19.9999 43.9999Z" fill="#74757B"/>
<path d="M38 46H26C25.4477 46 25 46.4478 25 47V59C25 59.5523 25.4478 59.9999 26 59.9999H38C38.5523 59.9999 38.9999 59.5521 38.9999 59V47C38.9999 46.4478 38.5523 46 38 46Z" fill="#FDDD85"/>
<path d="M27 59V47C27 46.4477 27.4478 46 28 46H26C25.4477 46 25 46.4478 25 47V59C25 59.5523 25.4478 59.9999 26 59.9999H28C27.4478 59.9999 27 59.5524 27 59Z" fill="#FDD042"/>
<path d="M34.0001 46H30V50.9999C30 51.5522 30.4478 51.9999 31 51.9999H33C33.5523 51.9999 34 51.5521 34 50.9999V46H34.0001Z" fill="#F2C127"/>
<path d="M34 57.9999H30C29.4477 57.9999 29 57.5521 29 57C29 56.4478 29.4478 56 30 56H33.9999C34.5522 56 34.9999 56.4478 34.9999 57C34.9999 57.5521 34.5522 57.9999 34 57.9999Z" fill="#74757B"/>
</g>
<defs>
<clipPath id="clip0_7587_65934">
<rect width="60" height="60" fill="white"/>
</clipPath>
</defs>
</svg>
