<svg width="77" height="60" viewBox="0 0 77 60" fill="none" xmlns="http://www.w3.org/2000/svg">
<path d="M42.3573 41.4738L47.0889 46.205C50.3941 42.8804 52.2598 38.6704 52.5455 34.4471C52.6866 32.3273 52.4264 30.1984 51.7284 28.1897C51.032 26.1845 49.8882 24.2994 48.3099 22.7257L40.733 15.1462L35.4808 9.89402L29.8591 4.27261C28.2817 2.69474 26.398 1.55037 24.3934 0.854581C21.3789 -0.194125 18.1016 -0.255591 14.9713 0.549154C11.8418 1.35227 8.83558 3.03232 6.33926 5.52634C3.0127 8.85699 1.13632 13.0819 0.85057 17.3225C0.706881 19.4402 0.968073 21.5712 1.6659 23.5781C2.36386 25.585 3.50862 27.468 5.08609 29.0439L23.5394 47.4968C25.1152 49.0723 26.9981 50.2169 29.0052 50.913C32.0197 51.9611 35.2945 52.0231 38.4248 51.2204C39.4774 50.9495 40.5154 50.5713 41.527 50.106L36.2748 44.8538C35.7854 44.9561 35.297 45.0222 34.8149 45.0542C33.5355 45.1396 32.3078 44.9795 31.2042 44.5952C30.1005 44.2088 29.116 43.6065 28.2726 42.7656L9.81766 24.3121C8.97425 23.4667 8.37154 22.4846 7.98565 21.3789C7.40913 19.7242 7.33695 17.783 7.8402 15.8233C8.3444 13.8677 9.41604 11.9141 11.0731 10.2594C13.2764 8.0517 16.0199 6.88196 18.5819 6.71276C19.863 6.62728 21.0881 6.78997 22.1918 7.17423C23.2979 7.56066 24.28 8.16296 25.1274 9.0038L29.9165 13.7948L34.6497 18.526L43.5783 27.457C44.4224 28.3003 45.0219 29.2846 45.4087 30.3903C45.9852 32.0433 46.0574 33.9837 45.554 35.9438C45.054 37.8868 43.9931 39.8256 42.3573 41.4738Z" fill="#00A7FF"/>
<path d="M34.6471 18.5256L29.9139 13.7945C26.6112 17.119 24.7448 21.3292 24.4589 25.5525C24.3176 27.6723 24.5788 29.8012 25.2768 31.8098C25.9731 33.8151 27.1169 35.7001 28.6944 37.2756L36.2721 44.8533L41.5243 50.1055L47.1461 55.7268C48.721 57.3047 50.6048 58.447 52.6117 59.145C55.6262 60.1936 58.9011 60.2552 62.0313 59.4506C65.1633 58.6457 68.1671 56.9673 70.6635 54.4717C73.9901 51.1427 75.8665 46.9152 76.1522 42.6772C76.2935 40.5574 76.0331 38.431 75.3351 36.4199C74.6388 34.4146 73.4942 32.5317 71.9166 30.9557L53.4658 12.5048C51.8876 10.9273 50.0071 9.7805 48.0001 9.08457C44.9848 8.03831 41.7099 7.9744 38.5797 8.77711C37.5277 9.04848 36.4873 9.42826 35.4781 9.89352L40.7302 15.1457C41.2188 15.0434 41.7083 14.9749 42.1902 14.9429C43.4688 14.8574 44.6948 15.0201 45.8009 15.4044C46.9045 15.7908 47.8883 16.3906 48.7341 17.2339L67.1851 35.6873C68.0285 36.5327 68.6312 37.5148 69.0173 38.6205C69.5936 40.2736 69.666 42.2163 69.1601 44.1741C68.6584 46.1318 67.5868 48.0853 65.9321 49.74C63.7264 51.9457 60.983 53.1158 58.4233 53.2842C57.1423 53.3696 55.9147 53.2095 54.8126 52.8252C53.7073 52.4388 52.7227 51.8389 51.877 50.9956L47.0862 46.2045L42.3547 41.4733L33.4261 32.5423C32.5827 31.6989 31.9824 30.7147 31.5965 29.609C31.0176 27.956 30.9478 26.0156 31.4511 24.0555C31.9488 22.1125 33.0098 20.172 34.6471 18.5256Z" fill="white"/>
</svg>
