<svg width="61" height="60" viewBox="0 0 61 60" fill="none" xmlns="http://www.w3.org/2000/svg">
<path d="M40.9223 38.4877L41.0899 43.3026C41.0904 43.3175 41.0909 43.3326 41.0912 43.3475C41.1436 45.4012 39.3519 47.0402 37.2989 47.1117L26.2648 47.4956C24.2116 47.5671 22.3103 46.0563 22.22 44.0037C22.2193 43.9888 22.2187 43.9742 22.2182 43.9593L22.0507 39.1443C22.0168 38.1719 22.1308 37.243 22.3675 36.3585C23.4286 32.5468 26.8825 29.6507 31.0409 29.506L31.2844 29.4975C35.4665 29.352 39.0896 32.0019 40.4119 35.7306C40.7103 36.5963 40.8885 37.515 40.9223 38.4877Z" fill="#0076BE"/>
<path d="M32.2987 26.1724C35.3125 25.379 37.1124 22.2927 36.319 19.279C35.5256 16.2653 32.4393 14.4653 29.4256 15.2587C26.4118 16.0521 24.6119 19.1384 25.4053 22.1521C26.1987 25.1658 29.285 26.9658 32.2987 26.1724Z" fill="#0076BE"/>
<path d="M41.2794 38.0918V42.6138C41.2647 44.2556 39.9886 45.5699 38.4169 45.9035C38.9672 45.3181 39.3124 44.5543 39.3213 43.7027V39.1836C39.3213 38.2792 39.1868 37.4187 38.9378 36.6051C37.8285 33.0988 34.5506 30.5203 30.6606 30.5203H30.4324C29.3173 30.5203 28.249 30.7338 27.2656 31.1232C28.7028 30.0609 30.4794 29.4316 32.3905 29.4316H32.6187C36.5084 29.4316 39.7866 32.0103 40.8958 35.5165C41.1448 36.33 41.2794 37.1874 41.2794 38.0918Z" fill="#478DD9"/>
<path d="M37.7543 20.2622C37.7543 22.633 36.1797 24.638 34.0197 25.2848C35.1084 24.3248 35.7962 22.917 35.7962 21.3511C35.7962 18.4537 33.4488 16.1063 30.5513 16.1063C30.0274 16.1063 29.5241 16.1822 29.0469 16.3258C29.9688 15.5093 31.1806 15.0176 32.5094 15.0176C35.4069 15.0174 37.7543 17.3648 37.7543 20.2622Z" fill="#478DD9"/>
<path d="M37.2846 47.8933H26.2191C23.6393 47.8933 21.5226 45.9102 21.5002 43.473L21.5 43.421V38.5923C21.5 37.5712 21.6509 36.5584 21.9488 35.583C23.2755 31.3876 27.2556 28.4629 31.63 28.4629H31.8742C36.3187 28.4629 40.2079 31.3213 41.5516 35.5758C41.8525 36.5559 42.0039 37.5689 42.0039 38.5926L42.0037 43.4744C41.9808 45.9107 39.8639 47.8933 37.2846 47.8933ZM31.6297 30.0406C27.936 30.0406 24.5747 32.5123 23.4556 36.0509C23.2058 36.8693 23.0779 37.727 23.0779 38.5921L23.0782 43.4569C23.0924 45.0069 24.5306 46.3152 26.2188 46.3152H37.2844C38.9726 46.3152 40.4111 45.0071 40.4253 43.4586L40.4255 43.4208V38.5921C40.4255 37.7254 40.2972 36.8682 40.0446 36.0444C38.911 32.4556 35.6267 30.0403 31.8739 30.0403H31.6297V30.0406Z" fill="#F4F9FF"/>
<path d="M31.7571 26.8892C28.2036 26.8892 25.3125 23.9984 25.3125 20.4446C25.3125 16.8911 28.2036 14 31.7571 14C35.3107 14 38.2015 16.8911 38.2015 20.4446C38.2015 23.9984 35.3107 26.8892 31.7571 26.8892ZM31.7571 15.5781C29.0736 15.5781 26.8904 17.7613 26.8904 20.4448C26.8904 23.1281 29.0736 25.3113 31.7571 25.3113C34.4404 25.3113 36.6236 23.1281 36.6236 20.4448C36.6236 17.7613 34.4404 15.5781 31.7571 15.5781Z" fill="#F4F9FF"/>
<path d="M30.4974 8.16667C30.0933 8.16667 29.7656 7.83918 29.7656 7.4349V0.731868C29.7656 0.435956 29.9439 0.169029 30.2173 0.0558984C30.4905 -0.0576646 30.8054 0.00506497 31.0146 0.214453L33.1429 2.34273C33.4286 2.62848 33.4286 3.09182 33.1427 3.37756C32.8571 3.66309 32.3936 3.66331 32.1081 3.37735L31.229 2.49826V7.4349C31.229 7.83918 30.9015 8.16667 30.4974 8.16667Z" fill="#F4F9FF"/>
<path d="M28.3724 3.59156C28.185 3.59156 27.9977 3.52018 27.8549 3.3772C27.5692 3.09145 27.5692 2.62812 27.8549 2.34259L29.9834 0.21431C30.269 -0.0714365 30.7325 -0.0714365 31.0181 0.21431C31.3038 0.500056 31.3038 0.963392 31.0181 1.24892L28.8898 3.3772C28.747 3.52018 28.5597 3.59156 28.3724 3.59156Z" fill="#F4F9FF"/>
<path d="M46.4583 14.7755C46.2712 14.7755 46.0836 14.7041 45.9409 14.5611C45.6551 14.2754 45.6551 13.812 45.9409 13.5265L50.6807 8.78672C50.8899 8.57733 51.205 8.5146 51.478 8.62816C51.7516 8.74129 51.9297 9.00822 51.9297 9.30413V12.3139C51.9297 12.7179 51.6022 13.0457 51.1979 13.0457C50.7938 13.0457 50.4661 12.7182 50.4661 12.3139V11.0705L46.9753 14.5611C46.8329 14.7041 46.6456 14.7755 46.4583 14.7755Z" fill="#F4F9FF"/>
<path d="M51.1947 10.0358H48.1849C47.7808 10.0358 47.4531 9.70833 47.4531 9.30404C47.4531 8.89976 47.7806 8.57227 48.1849 8.57227H51.1947C51.5987 8.57227 51.9264 8.89976 51.9264 9.30404C51.9264 9.70833 51.5989 10.0358 51.1947 10.0358Z" fill="#F4F9FF"/>
<path d="M57.6427 32.8594C57.4554 32.8594 57.2681 32.788 57.1253 32.645C56.8396 32.3593 56.8396 31.896 57.1253 31.6104L58.0044 30.7311H53.0677C52.6636 30.7311 52.3359 30.4036 52.3359 29.9994C52.3359 29.5953 52.6634 29.2676 53.0677 29.2676H59.7708C60.0667 29.2676 60.3336 29.4458 60.4468 29.7192C60.5601 29.9927 60.4976 30.3074 60.2882 30.5166L58.1599 32.6448C58.0174 32.7878 57.83 32.8594 57.6427 32.8594Z" fill="#F4F9FF"/>
<path d="M59.7663 30.73C59.5792 30.73 59.3919 30.6587 59.2489 30.5159L57.1206 28.3876C56.8348 28.1019 56.8348 27.6385 57.1204 27.353C57.4061 27.0673 57.8695 27.0673 58.1552 27.3528L60.2835 29.4811C60.5692 29.7668 60.5692 30.2302 60.2837 30.5157C60.1409 30.6587 59.9534 30.73 59.7663 30.73Z" fill="#F4F9FF"/>
<path d="M51.1979 51.4259H48.1881C47.7841 51.4259 47.4563 51.0985 47.4563 50.6942C47.4563 50.2899 47.7838 49.9624 48.1881 49.9624H49.4315L45.9409 46.4716C45.6551 46.1858 45.6551 45.7225 45.9409 45.437C46.2264 45.1512 46.69 45.1512 46.9755 45.437L51.7153 50.1768C51.9247 50.3859 51.9872 50.7007 51.8739 50.9741C51.7607 51.2479 51.494 51.4259 51.1979 51.4259Z" fill="#F4F9FF"/>
<path d="M51.1927 51.4266C50.7886 51.4266 50.4609 51.0991 50.4609 50.6949V47.6849C50.4609 47.2808 50.7884 46.9531 51.1927 46.9531C51.5968 46.9531 51.9245 47.2806 51.9245 47.6849V50.6949C51.9245 51.0991 51.597 51.4266 51.1927 51.4266Z" fill="#F4F9FF"/>
<path d="M30.5009 59.9986C30.3105 59.9986 30.1234 59.9242 29.9835 59.7845L27.855 57.6562C27.5692 57.3704 27.5692 56.9071 27.8547 56.6214C28.1405 56.3356 28.6038 56.3356 28.8896 56.6211L29.7689 57.5004V52.5638C29.7689 52.1597 30.0964 51.832 30.5007 51.832C30.9047 51.832 31.2324 52.1595 31.2324 52.5638V59.2668C31.2324 59.5627 31.0542 59.8297 30.7808 59.9428C30.6904 59.9804 30.5952 59.9986 30.5009 59.9986Z" fill="#F4F9FF"/>
<path d="M30.4973 59.9998C30.31 59.9998 30.1227 59.9284 29.9799 59.7854C29.6942 59.4997 29.6942 59.0363 29.9799 58.7508L32.1082 56.6225C32.3938 56.3368 32.8573 56.3368 33.1428 56.6225C33.4286 56.9083 33.4286 57.3716 33.1428 57.6571L31.0145 59.7854C30.8718 59.9284 30.6845 59.9998 30.4973 59.9998Z" fill="#F4F9FF"/>
<path d="M9.80969 51.4277C9.71538 51.4277 9.62042 51.4095 9.52979 51.3719C9.25615 51.2588 9.07812 50.9918 9.07812 50.6959V47.686C9.07812 47.2819 9.40563 46.9542 9.80992 46.9542C10.2142 46.9542 10.5417 47.2817 10.5417 47.686V48.9295L14.0325 45.4389C14.3181 45.1532 14.7816 45.1532 15.0671 45.4389C15.3529 45.7247 15.3529 46.188 15.0671 46.4735L10.3273 51.2133C10.1872 51.3535 10 51.4277 9.80969 51.4277Z" fill="#F4F9FF"/>
<path d="M12.8199 51.4264H9.80992C9.40585 51.4264 9.07812 51.099 9.07812 50.6947C9.07812 50.2904 9.40563 49.9629 9.80992 49.9629H12.8199C13.224 49.9629 13.5517 50.2904 13.5517 50.6947C13.5517 51.099 13.224 51.4264 12.8199 51.4264Z" fill="#F4F9FF"/>
<path d="M7.93479 30.7302H1.23173C0.935812 30.7302 0.668884 30.552 0.555753 30.2786C0.442406 30.0052 0.505143 29.6904 0.714316 29.4813L2.8426 27.353C3.12813 27.0672 3.59169 27.0672 3.87722 27.353C4.16297 27.6387 4.16297 28.1021 3.87722 28.3876L2.99813 29.2667H7.93457C8.33864 29.2667 8.66635 29.5942 8.66635 29.9985C8.66656 30.4027 8.33886 30.7302 7.93479 30.7302Z" fill="#F4F9FF"/>
<path d="M3.35998 32.8593C3.17266 32.8593 2.98534 32.7879 2.84257 32.6449L0.714286 30.5166C0.428539 30.2309 0.428534 29.7675 0.714497 29.4818C1.00003 29.1962 1.46359 29.196 1.74912 29.482L3.8774 31.6103C4.16315 31.896 4.16316 32.3594 3.87719 32.6451C3.73464 32.7877 3.54731 32.8593 3.35998 32.8593Z" fill="#F4F9FF"/>
<path d="M14.5497 14.7754C14.3626 14.7754 14.1751 14.704 14.0323 14.561L9.29249 9.82124C9.0831 9.61207 9.02058 9.29734 9.13393 9.02392C9.24706 8.75029 9.51398 8.57227 9.8099 8.57227H12.8199C13.2239 8.57227 13.5517 8.89976 13.5517 9.30404C13.5517 9.70833 13.2242 10.0358 12.8199 10.0358H11.5763L15.0669 13.5266C15.3527 13.8124 15.3527 14.2757 15.0669 14.5613C14.9244 14.704 14.737 14.7754 14.5497 14.7754Z" fill="#F4F9FF"/>
<path d="M9.80991 13.0456C9.40584 13.0456 9.07812 12.7181 9.07812 12.3138V9.30404C9.07812 8.89997 9.40562 8.57227 9.80991 8.57227C10.2142 8.57227 10.5417 8.89976 10.5417 9.30404V12.3138C10.5417 12.7181 10.2142 13.0456 9.80991 13.0456Z" fill="#F4F9FF"/>
</svg>
