<svg width="57" height="60" viewBox="0 0 57 60" fill="none" xmlns="http://www.w3.org/2000/svg">
<path d="M47.0186 19.4769L23.3203 29.2402L32.9137 52.5287L56.612 42.7654L47.0186 19.4769Z" fill="#D0A157"/>
<path d="M45.4405 23.2662L27.1094 30.8184L34.4917 48.7394L52.8228 41.1872L45.4405 23.2662Z" fill="#FFCC75"/>
<path d="M30.9855 29.9626L28.0312 31.1797L34.8902 47.8302L37.8444 46.6131L30.9855 29.9626Z" fill="#D0A157"/>
<path d="M34.5011 28.5114L31.5469 29.7285L38.4058 46.379L41.36 45.162L34.5011 28.5114Z" fill="#D0A157"/>
<path d="M38.0323 27.056L35.0781 28.2734L41.9389 44.924L44.8931 43.7066L38.0323 27.056Z" fill="#D0A157"/>
<path d="M41.5245 25.6188L38.5703 26.8359L45.4293 43.4865L48.3835 42.2694L41.5245 25.6188Z" fill="#D0A157"/>
<path d="M45.0323 24.1735L42.0781 25.3906L48.9371 42.0412L51.8913 40.8241L45.0323 24.1735Z" fill="#D0A157"/>
<path d="M35.7955 -0.00154348L14.8281 8.63672L23.316 29.2415L44.2833 20.6032L35.7955 -0.00154348Z" fill="#D8B06B"/>
<path d="M34.3985 3.34931L18.1797 10.0312L24.7113 25.8872L40.9301 19.2052L34.3985 3.34931Z" fill="#FFD588"/>
<path d="M31.3515 55.2829L13.5856 12.1601L1.18727 7.57363C0.555559 7.33947 0.232794 6.63863 0.46694 6.00607C0.700273 5.37433 1.40109 5.05153 2.03361 5.28487L15.4336 10.2429L32.6766 52.0982L50.7083 44.6685C51.3327 44.4132 52.0441 44.7091 52.3002 45.3311C52.5571 45.9539 52.2604 46.667 51.6368 46.9231L31.3515 55.2829Z" fill="white"/>
<path d="M35.734 52.158C36.5795 54.211 35.6015 56.5615 33.547 57.4079C31.4925 58.2543 29.1421 57.2754 28.2966 55.2224C27.4503 53.1687 28.4291 50.8189 30.4836 49.9725C32.5381 49.1261 34.8876 50.1042 35.734 52.158Z" fill="#075F80"/>
<path d="M29.6134 47.8585C26.3923 49.1821 24.854 52.8669 26.1784 56.0874C27.502 59.3087 31.1849 60.8478 34.4077 59.5242C37.6288 58.1997 39.167 54.515 37.8418 51.2945C36.5191 48.0723 32.8362 46.5332 29.6134 47.8585ZM33.4866 57.281C31.5036 58.0957 29.2353 57.1493 28.4207 55.1662C27.6053 53.1824 28.5532 50.9148 30.5361 50.0993C32.5191 49.2846 34.7874 50.231 35.6028 52.2148C36.4166 54.1979 35.4687 56.4663 33.4866 57.281Z" fill="#A5C5E8"/>
<path d="M34.2624 52.7633C34.7738 54.0048 34.1819 55.4276 32.9389 55.9391C31.6958 56.4513 30.2738 55.8586 29.7624 54.617C29.2502 53.3739 29.8421 51.9518 31.0852 51.4396C32.3283 50.9282 33.7511 51.5209 34.2624 52.7633Z" fill="white"/>
<path d="M40.2668 18.8241L37.653 19.9014L19.0156 10.348L21.6294 9.27148L40.2668 18.8241Z" fill="#D8B06B"/>
<path d="M25.0819 25.0792L27.6957 24.0027L23.2819 13.2898L19.4062 11.3027L25.0819 25.0792Z" fill="#D8B06B"/>
<path d="M21.6009 10.0098L20.6172 10.4155L22.5001 11.3806L22.0253 10.2277L21.6009 10.0098Z" fill="#D8B06B"/>
<path d="M28.1912 23.8008L30.8042 22.7235L27.8912 15.6523L24.0156 13.666L28.1912 23.8008Z" fill="#D8B06B"/>
<path d="M24.7372 7.99023L22.4453 8.93502L25.8445 10.6774L24.7372 7.99023Z" fill="#D8B06B"/>
<path d="M22.75 10.6016L23.2248 11.7553L27.1004 13.7416L26.6256 12.5887L22.75 10.6016Z" fill="#D8B06B"/>
<path d="M27.8404 6.71094L25.2266 7.78743L26.5721 11.0535L30.4477 13.0398L27.8404 6.71094Z" fill="#D8B06B"/>
<path d="M27.3594 12.9629L27.8342 14.1158L31.7098 16.1029L31.235 14.9492L27.3594 12.9629Z" fill="#D8B06B"/>
<path d="M31.2998 22.5196L33.9136 21.4431L32.5006 18.0136L28.625 16.0273L31.2998 22.5196Z" fill="#D8B06B"/>
<path d="M35.8374 17.3125L31.9609 15.3262L32.4366 16.4791L36.3122 18.4654L35.8374 17.3125Z" fill="#D8B06B"/>
<path d="M34.4005 21.2393L36.8331 20.2376L33.2266 18.3887L34.4005 21.2393Z" fill="#D8B06B"/>
<path d="M30.9419 5.43164L28.3281 6.50892L31.1745 13.4159L35.0493 15.403L30.9419 5.43164Z" fill="#D8B06B"/>
<path d="M37.6846 19.1629L38.6684 18.7571L36.5781 17.6855L37.0529 18.8385L37.6846 19.1629Z" fill="#D8B06B"/>
<path d="M34.0591 4.15039L31.4453 5.22688L35.7916 15.7763L39.6672 17.7626L34.0591 4.15039Z" fill="#D8B06B"/>
</svg>
