<svg width="105" height="60" viewBox="0 0 105 60" fill="none" xmlns="http://www.w3.org/2000/svg">
<path d="M73.1069 0H67.3203V19.3678H73.1069V0Z" fill="#E2C097"/>
<path d="M71.638 2.23242H68.7891V17.136H71.638V2.23242Z" fill="#C9A173"/>
<path d="M90.1587 0H73.1094V19.3678H90.1587V0Z" fill="#C9A173"/>
<path d="M87.9212 2.23242H75.3359V17.136H87.9212V2.23242Z" fill="#E2C097"/>
<path d="M87.6323 16.7375H85.6419L75.6094 2.60742H77.5998L87.6323 16.7375Z" fill="#C9A173"/>
<path d="M55.2085 0H49.4219V19.3678H55.2085V0Z" fill="#E2C097"/>
<path d="M53.7396 2.23242H50.8906V17.136H53.7396V2.23242Z" fill="#C9A173"/>
<path d="M72.2603 0H55.2109V19.3678H72.2603V0Z" fill="#C9A173"/>
<path d="M70.0228 2.23242H57.4375V17.136H70.0228V2.23242Z" fill="#E2C097"/>
<path d="M69.7351 16.7375H67.7446L57.7109 2.60742H59.7014L69.7351 16.7375Z" fill="#C9A173"/>
<path d="M82.0835 19.3672H76.2969V38.735H82.0835V19.3672Z" fill="#E2C097"/>
<path d="M80.6146 21.5996H77.7656V36.5031H80.6146V21.5996Z" fill="#C9A173"/>
<path d="M99.1353 19.3672H82.0859V38.735H99.1353V19.3672Z" fill="#C9A173"/>
<path d="M96.8978 21.5996H84.3125V36.5031H96.8978V21.5996Z" fill="#E2C097"/>
<path d="M96.61 36.1047H94.6196L84.5859 21.9746H86.5764L96.61 36.1047Z" fill="#C9A173"/>
<path d="M64.2632 19.3672H58.4766V38.735H64.2632V19.3672Z" fill="#E2C097"/>
<path d="M62.7943 21.5996H59.9453V36.5031H62.7943V21.5996Z" fill="#C9A173"/>
<path d="M81.315 19.3672H64.2656V38.735H81.315V19.3672Z" fill="#C9A173"/>
<path d="M79.0775 21.5996H66.4922V36.5031H79.0775V21.5996Z" fill="#E2C097"/>
<path d="M78.7885 36.1047H76.7993L66.7656 21.9746H68.756L78.7885 36.1047Z" fill="#C9A173"/>
<path d="M46.3648 19.3672H40.5781V38.735H46.3648V19.3672Z" fill="#E2C097"/>
<path d="M44.8958 21.5996H42.0469V36.5031H44.8958V21.5996Z" fill="#C9A173"/>
<path d="M63.4165 19.3672H46.3672V38.735H63.4165V19.3672Z" fill="#C9A173"/>
<path d="M61.179 21.5996H48.5938V36.5031H61.179V21.5996Z" fill="#E2C097"/>
<path d="M60.8901 36.1047H58.8997L48.8672 21.9746H50.8564L60.8901 36.1047Z" fill="#C9A173"/>
<path d="M34.1962 9.34512L28.9012 9.31993C19.7908 9.30435 16.8004 9.30914 14.7488 14.253H15.3207H17.0438C17.6133 14.253 18.075 14.7147 18.075 15.2842V27.8735C18.075 29.1781 17.0174 30.2345 15.714 30.2345H9.85785H9.57847C9.42379 30.4971 9.23913 30.7394 9.0281 30.966L3.13235 37.2288C2.55801 37.8392 2.23546 38.6462 2.23306 39.4843L2.22347 42.2207L2.21868 43.4258L2.21388 43.9833L2.20908 45.1848V45.7472L2.20189 46.9487L2.1875 49.8721C2.1875 50.263 2.27383 50.6407 2.43331 50.9753C2.73307 51.6036 3.28583 52.1036 3.97649 52.3254L7.03767 53.2955L7.58564 53.4658L8.18756 53.6564L26.1074 53.7344L36.966 53.7823V39.9592V36.3619V12.1294C36.9672 10.597 35.7286 9.35231 34.1962 9.34512ZM33.4516 28.1781C33.4516 29.4623 32.5104 30.5031 31.3461 30.5031H21.7704C20.6062 30.5031 19.6649 29.4611 19.6649 28.1781V16.3095C19.6649 15.0252 20.6062 13.9832 21.7704 13.9832H31.3461C32.5104 13.9832 33.4516 15.0252 33.4516 16.3095V28.1781Z" fill="#00A7FF"/>
<path d="M1.12561 37.858C1.11601 39.5259 1.22153 40.8785 1.35702 40.8797C1.49491 40.8797 1.61242 39.5283 1.61962 37.8604C1.62681 36.1924 1.52129 34.8398 1.3834 34.8398C1.24671 34.8386 1.1316 36.19 1.12561 37.858Z" fill="#3C3C3B"/>
<path d="M16.5312 37.8418C16.524 39.9834 10.2637 41.7689 5.7049 41.7497C3.73486 41.7413 2.49384 41.4379 1.99503 40.8959C1.33915 40.1825 1.79359 39.0721 1.79839 37.855C1.80318 36.6511 1.38112 35.5 2.02141 34.7926C2.51782 34.241 3.74325 33.9868 5.74088 33.9964C10.2973 34.0167 16.5432 35.7015 16.5312 37.8418Z" fill="#00A7FF"/>
<path d="M1.32025 34.7919C-0.234926 34.7068 -0.239722 40.8857 1.29147 40.8953C1.44615 39.7513 1.46293 35.937 1.32025 34.7919Z" fill="#FFE697"/>
<path d="M2.11499 34.7927L1.82961 34.7915L1.22289 34.7891C1.25766 34.7891 1.29124 34.903 1.31642 35.09C1.45671 36.1225 1.44232 39.5603 1.29124 40.5939C1.26366 40.7797 1.23248 40.8937 1.19531 40.8937L1.80203 40.8961L2.08741 40.8972C2.30204 38.7641 2.32602 36.7232 2.11499 34.7927Z" fill="#3C3C3B"/>
<path fill-rule="evenodd" clip-rule="evenodd" d="M18.0699 27.8744V15.2851C18.0699 14.7156 17.6082 14.2539 17.0387 14.2539H15.3157C12.9859 19.4088 11.1849 24.7436 9.85156 30.2354H15.7077C17.0135 30.2354 18.0699 29.179 18.0699 27.8744Z" fill="white"/>
<path fill-rule="evenodd" clip-rule="evenodd" d="M31.3531 13.9844H21.7774C20.6131 13.9844 19.6719 15.0264 19.6719 16.3106V28.1792C19.6719 29.4635 20.6131 30.5043 21.7774 30.5043H31.3531C32.5173 30.5043 33.4586 29.4623 33.4586 28.1792V16.3106C33.4574 15.0264 32.5161 13.9844 31.3531 13.9844Z" fill="white"/>
<path d="M22.2735 51.5393C22.2735 54.5178 19.8586 56.934 16.8801 56.934C13.8993 56.934 11.4844 54.5178 11.4844 51.5393C11.4844 48.5595 13.8993 46.1445 16.8801 46.1445C19.8586 46.1445 22.2735 48.5595 22.2735 51.5393Z" fill="#797979"/>
<path d="M16.8908 43.0781C12.2181 43.0733 8.42668 46.8577 8.42188 51.5305C8.41708 56.2022 12.2013 59.9949 16.8764 59.9997C21.5467 60.0033 25.3381 56.219 25.3429 51.5461C25.3477 46.8733 21.5635 43.0817 16.8908 43.0781ZM16.8788 56.7466C14.0011 56.7442 11.6725 54.4108 11.6749 51.5341C11.6773 48.6575 14.0095 46.3277 16.886 46.3301C19.7637 46.3325 22.0947 48.6659 22.0899 51.5437C22.0899 54.4192 19.7553 56.749 16.8788 56.7466Z" fill="white"/>
<path d="M20.1472 51.5386C20.1472 53.3408 18.6856 54.8025 16.8822 54.8025C15.0788 54.8025 13.6172 53.3408 13.6172 51.5386C13.6172 49.7351 15.0788 48.2734 16.8822 48.2734C18.6856 48.2734 20.1472 49.7351 20.1472 51.5386Z" fill="#D6D6D6"/>
<path d="M38.693 37.8574H36.9688V51.5379H38.693V37.8574Z" fill="#3C3C3B"/>
<path d="M38.6875 34.791V53.7895L78.5009 53.9657L96.5083 54.0485L97.0239 53.8938L98.41 53.4861C99.7469 53.094 100.695 51.9237 100.818 50.5579C100.83 50.4596 100.834 50.3672 100.834 50.2701L100.88 34.791H38.6875Z" fill="#00A7FF"/>
<path d="M100.873 34.791H38.6875V36.664H100.873V34.791Z" fill="#00A7FF"/>
<path d="M86.9883 56.934C89.9676 56.934 92.3828 54.5187 92.3828 51.5393C92.3828 48.5598 89.9676 46.1445 86.9883 46.1445C84.009 46.1445 81.5938 48.5598 81.5938 51.5393C81.5938 54.5187 84.009 56.934 86.9883 56.934Z" fill="#797979"/>
<path d="M86.9966 43.0781C82.3251 43.0733 78.5325 46.8577 78.5313 51.5305C78.5265 56.2022 82.3083 59.9949 86.9834 59.9997C91.6549 60.0033 95.4475 56.219 95.4499 51.5461C95.4535 46.8733 91.6705 43.0817 86.9966 43.0781ZM86.9846 56.7466C84.1093 56.7442 81.7783 54.4108 81.7807 51.5341C81.7831 48.6575 84.1176 46.3277 86.9942 46.3301C89.8695 46.3325 92.2005 48.6659 92.1981 51.5437C92.1957 54.4192 89.8611 56.749 86.9846 56.7466Z" fill="white"/>
<path d="M90.2488 51.5386C90.2488 53.3408 88.7871 54.8025 86.9838 54.8025C85.1804 54.8025 83.7188 53.3408 83.7188 51.5386C83.7188 49.7351 85.1804 48.2734 86.9838 48.2734C88.7871 48.2734 90.2488 49.7351 90.2488 51.5386Z" fill="#D6D6D6"/>
<path d="M103.188 47.8672C102.579 47.8672 102.055 48.2017 101.812 48.6814H99.21C98.3083 48.6814 97.5781 49.4116 97.5781 50.3133C97.5781 51.2151 98.3083 51.9453 99.21 51.9453H101.812C102.055 52.4237 102.581 52.7583 103.188 52.7583C105.344 52.7595 105.474 47.8684 103.188 47.8672Z" fill="white"/>
<path d="M93.9922 43.8089C94.0018 45.1915 95.9802 46.345 99.0114 46.3318C100.32 46.3258 101.67 46.1292 102.001 45.7778C102.438 45.3186 102.407 42.2944 101.983 41.8376C101.652 41.4815 100.316 41.3184 98.9911 41.3244C95.9562 41.3388 93.9862 42.4264 93.9922 43.8089Z" fill="#00A7FF"/>
<path d="M102.311 41.6881C103.388 41.6293 103.394 45.9125 102.329 45.9185C102.223 45.1259 102.211 42.4831 102.311 41.6881Z" fill="#FFE697"/>
<path d="M101.768 41.6899H101.966L102.384 41.6875C102.363 41.6875 102.339 41.7666 102.321 41.8961C102.224 42.6108 102.236 44.9958 102.339 45.7105C102.36 45.84 102.381 45.9179 102.406 45.9179L101.984 45.9191H101.787C101.634 44.443 101.619 43.0269 101.768 41.6899Z" fill="#3C3C3B"/>
</svg>
