<svg width="61" height="60" viewBox="0 0 61 60" fill="none" xmlns="http://www.w3.org/2000/svg">
<path d="M29.5221 7.57351C29.5221 -0.351325 20.0913 -2.55042 16.5186 3.34492C13.7391 1.93702 9.96637 4.5881 11.1576 7.57351C7.48489 6.86368 1.62779 10.9119 4.01024 17.071C-0.258566 17.8622 -0.35759 24.1977 2.81901 25.5174C0.039485 26.8371 0.73363 31.9422 4.70438 31.7657C1.52876 33.9638 2.91804 41.2671 8.27904 41.4426C5.10244 43.7309 7.88197 48.1301 11.1576 46.283C8.17904 49.89 11.4556 54.9784 17.2127 53.7549C17.6098 61.416 29.5221 62.7219 29.5221 53.7549C29.5221 44.7878 29.5221 7.57351 29.5221 7.57351Z" fill="#32BEC8"/>
<path d="M11.8819 19.9382H11.1328V12.5712L19.5155 4.1875L20.0449 4.71791L11.8819 12.881V19.9382Z" fill="#0A5461"/>
<path d="M15.1006 19.938H14.3516V13.7034L19.1204 8.93359L19.6508 9.46302L15.1006 14.0132V19.938Z" fill="#0A5461"/>
<path d="M26.1077 27.1011L19.3182 20.3116H7.73438V19.5625H19.629L26.6381 26.5716L26.1077 27.1011Z" fill="#0A5461"/>
<path d="M23.4679 56.4837L22.9375 55.9553L25.9974 52.8944V15.3359H26.7465V53.2062L23.4679 56.4837Z" fill="#0A5461"/>
<path d="M23.2008 23.2949H12.4141V24.044H23.2008V23.2949Z" fill="#0A5461"/>
<path d="M17.9053 36.7588H17.1562V29.1849L22.9359 23.4043L23.4663 23.9337L17.9053 29.4957V36.7588Z" fill="#0A5461"/>
<path d="M14.0069 40.1069H13.2578V29.3604L19.213 23.4043L19.7434 23.9337L14.0069 29.6712V40.1069Z" fill="#0A5461"/>
<path d="M17.5215 19.9387H16.7734V15.2257L24.2287 7.76953L24.7581 8.29995L17.5215 15.5365V19.9387Z" fill="#0A5461"/>
<path d="M22.9515 30.0368L22.4219 30.5664L26.1038 34.2483L26.6334 33.7187L22.9515 30.0368Z" fill="#0A5461"/>
<path d="M26.1049 38.0246L19.5078 44.6328L20.0379 45.162L26.635 38.5538L26.1049 38.0246Z" fill="#0A5461"/>
<path d="M26.3709 34.9863H21.7188V35.7354H26.3709V34.9863Z" fill="#0A5461"/>
<path d="M26.3686 11.332H20.8125V12.0811H26.3686V11.332Z" fill="#0A5461"/>
<path d="M19.8542 49.0279H14.9766V48.2788H19.5434L26.1064 41.7148L26.6369 42.2443L19.8542 49.0279Z" fill="#0A5461"/>
<path d="M13.3678 37.023L7.02344 30.6796V25.9941H7.77347V30.3679L13.8973 36.4926L13.3678 37.023Z" fill="#0A5461"/>
<path d="M20.9112 4.45365C20.9112 5.07427 20.4083 5.57724 19.7876 5.57724C19.167 5.57724 18.6641 5.07329 18.6641 4.45365C18.6641 3.83206 19.168 3.33008 19.7876 3.33008C20.4083 3.3291 20.9112 3.83206 20.9112 4.45365Z" fill="#0A5461"/>
<path d="M7.87313 19.938C7.87313 20.5586 7.37017 21.0616 6.74858 21.0616C6.12796 21.0616 5.625 20.5577 5.625 19.938C5.625 19.3174 6.12894 18.8145 6.74858 18.8145C7.37017 18.8145 7.87313 19.3174 7.87313 19.938Z" fill="#0A5461"/>
<path d="M25.6153 8.03374C25.6153 8.65435 25.1124 9.15732 24.4908 9.15732C23.8711 9.15732 23.3672 8.65435 23.3672 8.03374C23.3672 7.41214 23.8711 6.9082 24.4908 6.9082C25.1124 6.9082 25.6153 7.41214 25.6153 8.03374Z" fill="#0A5461"/>
<path d="M27.4991 16.3169C27.4991 16.9375 26.9952 17.4405 26.3746 17.4405C25.7539 17.4405 25.25 16.9375 25.25 16.3169C25.25 15.6963 25.7539 15.1934 26.3746 15.1934C26.9952 15.1934 27.4991 15.6973 27.4991 16.3169Z" fill="#0A5461"/>
<path d="M13.545 23.6685C13.545 24.2891 13.042 24.7921 12.4205 24.7921C11.7998 24.7921 11.2969 24.2891 11.2969 23.6685C11.2969 23.0469 11.7998 22.5449 12.4205 22.5449C13.042 22.5449 13.545 23.0469 13.545 23.6685Z" fill="#0A5461"/>
<path d="M8.52157 25.9947C8.52157 26.6153 8.01763 27.1183 7.39701 27.1183C6.77738 27.1183 6.27344 26.6153 6.27344 25.9947C6.27344 25.3741 6.77738 24.8711 7.39701 24.8711C8.01763 24.8701 8.52157 25.3741 8.52157 25.9947Z" fill="#0A5461"/>
<path d="M14.7559 40.106C14.7559 40.7266 14.252 41.2296 13.6324 41.2296C13.0108 41.2296 12.5078 40.7266 12.5078 40.106C12.5078 39.4854 13.0118 38.9824 13.6324 38.9824C14.252 38.9824 14.7559 39.4854 14.7559 40.106Z" fill="#0A5461"/>
<path d="M18.6632 36.7584C18.6632 37.379 18.1583 37.8829 17.5386 37.8829C16.918 37.8829 16.4141 37.3799 16.4141 36.7584C16.4141 36.1377 16.918 35.6348 17.5386 35.6348C18.1583 35.6348 18.6632 36.1377 18.6632 36.7584Z" fill="#0A5461"/>
<path d="M23.8106 30.3042C23.8106 30.9249 23.3067 31.4278 22.6861 31.4278C22.0655 31.4278 21.5625 30.9249 21.5625 30.3042C21.5625 29.6827 22.0655 29.1797 22.6861 29.1797C23.3067 29.1797 23.8106 29.6836 23.8106 30.3042Z" fill="#0A5461"/>
<path d="M20.8966 44.899C20.8966 45.5196 20.3936 46.0225 19.773 46.0225C19.1524 46.0225 18.6484 45.5196 18.6484 44.899C18.6484 44.2783 19.1524 43.7754 19.773 43.7754C20.3936 43.7754 20.8966 44.2774 20.8966 44.899Z" fill="#0A5461"/>
<path d="M16.0987 48.6529C16.0987 49.2735 15.5948 49.7765 14.9751 49.7765C14.3545 49.7765 13.8516 49.2735 13.8516 48.6529C13.8516 48.0313 14.3545 47.5293 14.9751 47.5293C15.5948 47.5293 16.0987 48.0313 16.0987 48.6529Z" fill="#0A5461"/>
<path d="M24.3263 56.2193C24.3263 56.8399 23.8223 57.3428 23.2027 57.3428C22.5821 57.3428 22.0781 56.8399 22.0781 56.2193C22.0781 55.5977 22.5821 55.0957 23.2027 55.0957C23.8223 55.0957 24.3263 55.5977 24.3263 56.2193Z" fill="#0A5461"/>
<path d="M31.4844 7.57351C31.4844 -0.351325 40.9152 -2.55042 44.4879 3.34492C47.2674 1.93702 51.0401 4.5881 49.8489 7.57351C53.5216 6.86368 59.3787 10.9119 56.9962 17.071C61.265 17.8622 61.365 24.1977 58.1874 25.5174C60.967 26.8371 60.2719 31.9422 56.3021 31.7657C59.4777 33.9638 58.0884 41.2671 52.7274 41.4426C55.904 43.7309 53.1245 48.1301 49.8489 46.283C52.8274 49.89 49.5508 54.9784 43.7937 53.7549C43.3966 61.416 31.4844 62.7219 31.4844 53.7549C31.4844 44.7878 31.4844 7.57351 31.4844 7.57351Z" fill="#32BEC8"/>
<path d="M49.124 19.9382H49.8731V12.5712L41.4904 4.1875L40.9609 4.71791L49.124 12.881V19.9382Z" fill="#0A5461"/>
<path d="M45.9096 19.938H46.6586V13.7034L41.8898 8.93359L41.3594 9.46302L45.9096 14.0132V19.938Z" fill="#0A5461"/>
<path d="M34.9054 27.1011L41.6949 20.3116H53.2787V19.5625H41.3841L34.375 26.5716L34.9054 27.1011Z" fill="#0A5461"/>
<path d="M37.5364 56.4837L38.0668 55.9553L35.0069 52.8944V15.3359H34.2578V53.2062L37.5364 56.4837Z" fill="#0A5461"/>
<path d="M48.5914 23.2949H37.8047V24.044H48.5914V23.2949Z" fill="#0A5461"/>
<path d="M43.1001 36.7588H43.8491V29.1849L38.0695 23.4043L37.5391 23.9337L43.1001 29.4957V36.7588Z" fill="#0A5461"/>
<path d="M47.0021 40.1069H47.7512V29.3604L41.796 23.4043L41.2656 23.9337L47.0021 29.6712V40.1069Z" fill="#0A5461"/>
<path d="M43.4944 19.9387H44.2425V15.2257L36.7872 7.76953L36.2578 8.29995L43.4944 15.5365V19.9387Z" fill="#0A5461"/>
<path d="M38.0491 30.0368L34.3672 33.7188L34.8968 34.2484L38.5788 30.5665L38.0491 30.0368Z" fill="#0A5461"/>
<path d="M34.913 38.0313L34.3828 38.5605L40.9799 45.1697L41.51 44.6405L34.913 38.0313Z" fill="#0A5461"/>
<path d="M39.285 34.9863H34.6328V35.7354H39.285V34.9863Z" fill="#0A5461"/>
<path d="M40.1889 11.332H34.6328V12.0811H40.1889V11.332Z" fill="#0A5461"/>
<path d="M41.1576 49.0279H46.0353V48.2788H41.4684L34.9054 41.7148L34.375 42.2443L41.1576 49.0279Z" fill="#0A5461"/>
<path d="M47.6466 37.023L53.991 30.6796V25.9941H53.241V30.3679L47.1172 36.4926L47.6466 37.023Z" fill="#0A5461"/>
<path d="M40.1016 4.45365C40.1016 5.07427 40.6045 5.57724 41.2251 5.57724C41.8457 5.57724 42.3487 5.07329 42.3487 4.45365C42.3487 3.83206 41.8448 3.33008 41.2251 3.33008C40.6045 3.3291 40.1016 3.83206 40.1016 4.45365Z" fill="#0A5461"/>
<path d="M53.1328 19.938C53.1328 20.5586 53.6358 21.0616 54.2574 21.0616C54.878 21.0616 55.3809 20.5577 55.3809 19.938C55.3809 19.3174 54.877 18.8145 54.2574 18.8145C53.6358 18.8145 53.1328 19.3174 53.1328 19.938Z" fill="#0A5461"/>
<path d="M35.3906 8.03374C35.3906 8.65435 35.8936 9.15732 36.5152 9.15732C37.1348 9.15732 37.6397 8.65435 37.6397 8.03374C37.6397 7.41214 37.1358 6.9082 36.5152 6.9082C35.8936 6.9082 35.3906 7.41214 35.3906 8.03374Z" fill="#0A5461"/>
<path d="M33.5078 16.3169C33.5078 16.9375 34.0118 17.4405 34.6324 17.4405C35.253 17.4405 35.7569 16.9375 35.7569 16.3169C35.7569 15.6963 35.253 15.1934 34.6324 15.1934C34.0118 15.1934 33.5078 15.6973 33.5078 16.3169Z" fill="#0A5461"/>
<path d="M47.4609 23.6685C47.4609 24.2891 47.9639 24.7921 48.5855 24.7921C49.2061 24.7921 49.7091 24.2891 49.7091 23.6685C49.7091 23.0469 49.2061 22.5449 48.5855 22.5449C47.9639 22.5449 47.4609 23.0469 47.4609 23.6685Z" fill="#0A5461"/>
<path d="M52.4844 25.9947C52.4844 26.6153 52.9883 27.1183 53.6089 27.1183C54.2286 27.1183 54.7325 26.6153 54.7325 25.9947C54.7325 25.3741 54.2286 24.8711 53.6089 24.8711C52.9883 24.8701 52.4844 25.3741 52.4844 25.9947Z" fill="#0A5461"/>
<path d="M46.2578 40.106C46.2578 40.7266 46.7618 41.2296 47.3814 41.2296C48.003 41.2296 48.5059 40.7266 48.5059 40.106C48.5059 39.4854 48.002 38.9824 47.3814 38.9824C46.7618 38.9824 46.2578 39.4854 46.2578 40.106Z" fill="#0A5461"/>
<path d="M42.3438 36.7584C42.3438 37.379 42.8487 37.8829 43.4683 37.8829C44.0889 37.8829 44.5929 37.3799 44.5929 36.7584C44.5929 36.1377 44.0889 35.6348 43.4683 35.6348C42.8487 35.6348 42.3438 36.1377 42.3438 36.7584Z" fill="#0A5461"/>
<path d="M37.1953 30.3042C37.1953 30.9249 37.6993 31.4278 38.3199 31.4278C38.9405 31.4278 39.4434 30.9249 39.4434 30.3042C39.4434 29.6827 38.9405 29.1797 38.3199 29.1797C37.6993 29.1797 37.1953 29.6836 37.1953 30.3042Z" fill="#0A5461"/>
<path d="M40.1172 44.899C40.1172 45.5196 40.6201 46.0225 41.2408 46.0225C41.8614 46.0225 42.3653 45.5196 42.3653 44.899C42.3653 44.2783 41.8614 43.7754 41.2408 43.7754C40.6201 43.7754 40.1172 44.2774 40.1172 44.899Z" fill="#0A5461"/>
<path d="M44.9062 48.6529C44.9062 49.2735 45.4102 49.7765 46.0298 49.7765C46.6504 49.7765 47.1534 49.2735 47.1534 48.6529C47.1534 48.0313 46.6504 47.5293 46.0298 47.5293C45.4102 47.5293 44.9062 48.0313 44.9062 48.6529Z" fill="#0A5461"/>
<path d="M36.6797 56.2193C36.6797 56.8399 37.1836 57.3428 37.8033 57.3428C38.4239 57.3428 38.9278 56.8399 38.9278 56.2193C38.9278 55.5977 38.4239 55.0957 37.8033 55.0957C37.1836 55.0957 36.6797 55.5977 36.6797 56.2193Z" fill="#0A5461"/>
</svg>
