<svg width="65" height="60" viewBox="0 0 65 60" fill="none" xmlns="http://www.w3.org/2000/svg">
<path d="M64.9937 7.49932C64.9937 11.6413 50.445 14.9986 32.4968 14.9986C14.5487 14.9986 0 11.6416 0 7.49932C0 3.35732 14.5487 0 32.4968 0C50.445 0 64.9937 3.35732 64.9937 7.49932Z" fill="#ED7161"/>
<path d="M32.4968 15.0035C14.5487 15.0035 0 11.6465 0 7.50419V22.5028C0 26.6448 14.5487 30.0021 32.4968 30.0021C50.445 30.0021 64.9937 26.6448 64.9937 22.5025V7.50391C64.9937 11.6462 50.445 15.0035 32.4968 15.0035Z" fill="#C9554C"/>
<path d="M32.4968 30.0032C14.5487 30.0032 0 26.6462 0 22.5039V37.5025C0 41.6445 14.5487 45.0019 32.4968 45.0019C50.445 45.0019 64.9937 41.6445 64.9937 37.5025V22.5039C64.9937 26.6462 50.445 30.0032 32.4968 30.0032Z" fill="#ECBA16"/>
<path d="M32.4968 45.0016C14.5487 45.0016 0 41.6445 0 37.5022V52.5009C0 56.6429 14.5487 60.0002 32.4968 60.0002C50.445 60.0002 64.9937 56.6429 64.9937 52.5006V37.502C64.9937 41.6442 50.445 45.0016 32.4968 45.0016Z" fill="#25AE88"/>
</svg>
