<svg width="69" height="60" viewBox="0 0 69 60" fill="none" xmlns="http://www.w3.org/2000/svg">
<path d="M34.783 43.4706C33.919 43.4706 33.2188 42.7704 33.2188 41.9065V34.3474C33.2188 33.4834 33.919 32.7832 34.783 32.7832C35.6469 32.7832 36.3472 33.4834 36.3472 34.3474V41.9065C36.3472 42.7704 35.6482 43.4706 34.783 43.4706Z" fill="white"/>
<path d="M47.7834 9.6522C47.7834 10.2051 47.3338 10.6547 46.7797 10.6547H22.5885C22.0343 10.6547 21.5859 10.2051 21.5859 9.6522V1.00375C21.5859 0.44835 22.0356 0 22.5885 0H46.7797C47.3338 0 47.7834 0.44835 47.7834 1.00375V9.6522Z" fill="white"/>
<path d="M47.7834 21.9491C47.7834 22.5032 47.3338 22.9528 46.7797 22.9528H22.5885C22.0343 22.9528 21.5859 22.5032 21.5859 21.9491V13.3006C21.5859 12.7465 22.0356 12.2969 22.5885 12.2969H46.7797C47.3338 12.2969 47.7834 12.7465 47.7834 13.3006V21.9491Z" fill="white"/>
<path d="M47.7834 34.2466C47.7834 34.7995 47.3338 35.2491 46.7797 35.2491H22.5885C22.0343 35.2491 21.5859 34.7995 21.5859 34.2466V25.5982C21.5859 25.0453 22.0356 24.5957 22.5885 24.5957H46.7797C47.3338 24.5957 47.7834 25.0453 47.7834 25.5982V34.2466Z" fill="white"/>
<path d="M26.2118 4.58678C26.2118 4.99232 25.8856 5.32102 25.4801 5.32102H24.2005C23.7962 5.32102 23.4688 4.99232 23.4688 4.58678V3.30847C23.4688 2.9042 23.7962 2.57422 24.2005 2.57422H25.4801C25.8856 2.57422 26.2118 2.90294 26.2118 3.30847V4.58678Z" fill="#FA7A49"/>
<path d="M29.9709 4.58678C29.9709 4.99232 29.6434 5.32102 29.2379 5.32102H27.9608C27.5553 5.32102 27.2266 4.99232 27.2266 4.58678V3.30847C27.2266 2.9042 27.5553 2.57422 27.9608 2.57422H29.2379C29.6434 2.57422 29.9709 2.90294 29.9709 3.30847V4.58678Z" fill="#00CFDD"/>
<path d="M46.0258 7.08798C46.0258 7.64087 45.5774 8.09049 45.0233 8.09049H31.9869C31.434 8.09049 30.9844 7.64087 30.9844 7.08798V3.57797C30.9844 3.02383 31.434 2.57422 31.9869 2.57422H45.0233C45.5774 2.57422 46.0258 3.02383 46.0258 3.57797V7.08798Z" fill="#09678A"/>
<path d="M26.2118 16.8785C26.2118 17.284 25.8856 17.6115 25.4801 17.6115H24.2005C23.7962 17.6115 23.4688 17.2828 23.4688 16.8785V15.6014C23.4688 15.1959 23.7962 14.8672 24.2005 14.8672H25.4801C25.8856 14.8672 26.2118 15.1959 26.2118 15.6014V16.8785Z" fill="#FA7A49"/>
<path d="M29.9709 16.8785C29.9709 17.284 29.6434 17.6115 29.2379 17.6115H27.9608C27.5553 17.6115 27.2266 17.2828 27.2266 16.8785V15.6014C27.2266 15.1959 27.5553 14.8672 27.9608 14.8672H29.2379C29.6434 14.8672 29.9709 15.1959 29.9709 15.6014V16.8785Z" fill="#00CFDD"/>
<path d="M46.0258 19.3804C46.0258 19.9345 45.5774 20.3829 45.0233 20.3829H31.9869C31.434 20.3829 30.9844 19.9333 30.9844 19.3804V15.8729C30.9844 15.3188 31.434 14.8691 31.9869 14.8691H45.0233C45.5774 14.8691 46.0258 15.3188 46.0258 15.8729V19.3804Z" fill="#09678A"/>
<path d="M26.2118 29.1773C26.2118 29.5816 25.8856 29.9116 25.4801 29.9116H24.2005C23.7962 29.9116 23.4688 29.5816 23.4688 29.1773V27.899C23.4688 27.4935 23.7962 27.166 24.2005 27.166H25.4801C25.8856 27.166 26.2118 27.4935 26.2118 27.899V29.1773Z" fill="#FA7A49"/>
<path d="M29.9709 29.1773C29.9709 29.5816 29.6434 29.9116 29.2379 29.9116H27.9608C27.5553 29.9116 27.2266 29.5816 27.2266 29.1773V27.899C27.2266 27.4935 27.5553 27.166 27.9608 27.166H29.2379C29.6434 27.166 29.9709 27.4935 29.9709 27.899V29.1773Z" fill="#00CFDD"/>
<path d="M46.0258 31.6773C46.0258 32.2301 45.5774 32.6798 45.0233 32.6798H31.9869C31.434 32.6798 30.9844 32.2301 30.9844 31.6773V28.1685C30.9844 27.6144 31.434 27.166 31.9869 27.166H45.0233C45.5774 27.166 46.0258 27.6131 46.0258 28.1685V31.6773Z" fill="#09678A"/>
<path d="M17.6223 57.8942C17.6223 59.0567 16.6802 59.9987 15.5178 59.9987H3.07325C1.91205 59.9987 0.96875 59.0579 0.96875 57.8942V25.5095C0.96875 24.3483 1.91205 23.4062 3.07325 23.4062H15.5178C16.6802 23.4062 17.6223 24.3483 17.6223 25.5095V57.8942Z" fill="white"/>
<path d="M15.0064 26.626C15.0064 26.9157 14.7721 27.1512 14.4824 27.1512H3.87549C3.58582 27.1512 3.35156 26.9157 3.35156 26.626C3.35156 26.3364 3.58582 26.0996 3.87549 26.0996H14.4824C14.7721 26.0996 15.0064 26.3364 15.0064 26.626Z" fill="#09678A"/>
<path d="M15.0064 28.1489C15.0064 28.4399 14.7721 28.6754 14.4824 28.6754H3.87549C3.58582 28.6754 3.35156 28.4399 3.35156 28.1489C3.35156 27.8605 3.58582 27.625 3.87549 27.625H14.4824C14.7721 27.6237 15.0064 27.8593 15.0064 28.1489Z" fill="#09678A"/>
<path d="M15.0064 29.6789C15.0064 29.9673 14.7721 30.2041 14.4824 30.2041H3.87549C3.58582 30.2041 3.35156 29.9673 3.35156 29.6789C3.35156 29.3905 3.58582 29.1563 3.87549 29.1563H14.4824C14.7721 29.1562 15.0064 29.3905 15.0064 29.6789Z" fill="#09678A"/>
<path d="M15.0076 56.6585C15.0076 57.4192 14.3905 58.035 13.6323 58.035H4.72688C3.96744 58.035 3.35156 57.4192 3.35156 56.6585V45.2633C3.35156 44.5026 3.9687 43.8867 4.72688 43.8867H13.6323C14.3905 43.8867 15.0076 44.5026 15.0076 45.2633V56.6585Z" fill="#09678A"/>
<path d="M5.6763 33.414C5.6763 33.7339 5.41685 33.9959 5.09443 33.9959H4.0806C3.7607 33.9959 3.5 33.7339 3.5 33.414V32.4002C3.5 32.0803 3.76196 31.8184 4.0806 31.8184H5.09443C5.41685 31.8184 5.6763 32.0803 5.6763 32.4002V33.414Z" fill="#FA7A49"/>
<path d="M8.65413 33.414C8.65413 33.7339 8.39216 33.9959 8.07227 33.9959H7.05843C6.73727 33.9959 6.47656 33.7339 6.47656 33.414V32.4002C6.47656 32.0803 6.73727 31.8184 7.05843 31.8184H8.07227C8.39216 31.8184 8.65413 32.0803 8.65413 32.4002V33.414Z" fill="#00CFDD"/>
<path d="M68.0273 57.8942C68.0273 59.0567 67.0865 59.9987 65.924 59.9987H53.4795C52.3183 59.9987 51.375 59.0579 51.375 57.8942V25.5095C51.375 24.3483 52.3183 23.4062 53.4795 23.4062H65.924C67.0865 23.4062 68.0273 24.3483 68.0273 25.5095V57.8942Z" fill="white"/>
<path d="M65.4139 26.626C65.4139 26.9157 65.1796 27.1512 64.8899 27.1512H54.283C53.9933 27.1512 53.7578 26.9157 53.7578 26.626C53.7578 26.3364 53.9921 26.0996 54.283 26.0996H64.8899C65.1796 26.0996 65.4139 26.3364 65.4139 26.626Z" fill="#09678A"/>
<path d="M65.4139 28.1489C65.4139 28.4399 65.1796 28.6754 64.8899 28.6754H54.283C53.9933 28.6754 53.7578 28.4399 53.7578 28.1489C53.7578 27.8605 53.9921 27.625 54.283 27.625H64.8899C65.1796 27.6237 65.4139 27.8593 65.4139 28.1489Z" fill="#09678A"/>
<path d="M65.4139 29.6789C65.4139 29.9673 65.1796 30.2041 64.8899 30.2041H54.283C53.9933 30.2041 53.7578 29.9673 53.7578 29.6789C53.7578 29.3905 53.9921 29.1563 54.283 29.1563H64.8899C65.1796 29.1562 65.4139 29.3905 65.4139 29.6789Z" fill="#09678A"/>
<path d="M65.4139 56.6585C65.4139 57.4192 64.798 58.035 64.0386 58.035H55.1331C54.3737 58.035 53.7578 57.4192 53.7578 56.6585V45.2633C53.7578 44.5026 54.3737 43.8867 55.1331 43.8867H64.0386C64.798 43.8867 65.4139 44.5026 65.4139 45.2633V56.6585Z" fill="#09678A"/>
<path d="M56.076 33.414C56.076 33.7339 55.8178 33.9959 55.4941 33.9959H54.4803C54.1591 33.9959 53.8984 33.7339 53.8984 33.414V32.4002C53.8984 32.0803 54.1591 31.8184 54.4803 31.8184H55.4941C55.8166 31.8184 56.076 32.0803 56.076 32.4002V33.414Z" fill="#FA7A49"/>
<path d="M59.0591 33.414C59.0591 33.7339 58.7984 33.9959 58.4785 33.9959H57.4647C57.1422 33.9959 56.8828 33.7339 56.8828 33.414V32.4002C56.8828 32.0803 57.1422 31.8184 57.4647 31.8184H58.4785C58.7984 31.8184 59.0591 32.0803 59.0591 32.4002V33.414Z" fill="#00CFDD"/>
<path d="M52.7139 43.8335H18.1814C17.3174 43.8335 16.6172 43.1332 16.6172 42.2693C16.6172 41.4053 17.3174 40.7051 18.1814 40.7051H52.7139C53.5778 40.7051 54.2781 41.4053 54.2781 42.2693C54.2781 43.1332 53.5778 43.8335 52.7139 43.8335Z" fill="white"/>
</svg>
