<svg width="87" height="60" viewBox="0 0 87 60" fill="none" xmlns="http://www.w3.org/2000/svg">
<path d="M31.6426 39.5127C31.6426 42.3246 29.3637 44.6036 26.553 44.6036C23.7399 44.6036 21.4609 42.3246 21.4609 39.5127C21.4609 36.7021 23.7399 34.4219 26.553 34.4219C29.3649 34.4219 31.6426 36.7021 31.6426 39.5127Z" fill="white"/>
<path d="M15.0127 29.3325C15.0127 30.7391 13.8726 31.878 12.4673 31.878C11.0607 31.878 9.92188 30.7379 9.92188 29.3325C9.92188 27.9272 11.0607 26.7871 12.4673 26.7871C13.8726 26.7871 15.0127 27.9272 15.0127 29.3325Z" fill="white"/>
<path d="M3.46983 31.0292C3.46983 31.8726 2.78602 32.5565 1.94131 32.5565C1.09912 32.5565 0.414062 31.8726 0.414062 31.0292C0.414062 30.1858 1.09912 29.502 1.94131 29.502C2.78602 29.502 3.46983 30.1845 3.46983 31.0292Z" fill="white"/>
<path d="M31.0142 17.3584C32.42 17.3584 33.5596 16.2188 33.5596 14.813C33.5596 13.4072 32.42 12.2676 31.0142 12.2676C29.6084 12.2676 28.4688 13.4072 28.4688 14.813C28.4688 16.2188 29.6084 17.3584 31.0142 17.3584Z" fill="white"/>
<path d="M68.0244 49.1879C68.0244 51.1564 66.4292 52.7515 64.462 52.7515C62.4936 52.7515 60.8984 51.1564 60.8984 49.1879C60.8984 47.2194 62.4936 45.623 64.462 45.623C66.4305 45.623 68.0244 47.2194 68.0244 49.1879Z" fill="white"/>
<path d="M12.9764 44.6073C12.9764 45.4508 12.2926 46.1346 11.4491 46.1346C10.6044 46.1346 9.92188 45.4508 9.92188 44.6073C9.92188 43.7639 10.6044 43.0801 11.4491 43.0801C12.2926 43.0788 12.9764 43.7626 12.9764 44.6073Z" fill="white"/>
<path d="M35.0948 51.1425C35.0948 51.9859 34.4097 52.6698 33.565 52.6698C32.7241 52.6698 32.0391 51.9859 32.0391 51.1425C32.0391 50.299 32.7241 49.6152 33.565 49.6152C34.4097 49.6152 35.0948 50.2978 35.0948 51.1425Z" fill="white"/>
<path d="M43.2355 41.5526C43.2355 42.3961 42.5504 43.0786 41.7094 43.0786C40.8647 43.0786 40.1797 42.3948 40.1797 41.5526C40.1797 40.7079 40.8647 40.0254 41.7094 40.0254C42.5504 40.0254 43.2355 40.7079 43.2355 41.5526Z" fill="white"/>
<path d="M24.5154 20.7636C24.5154 21.607 23.8329 22.2908 22.9882 22.2908C22.1447 22.2908 21.4609 21.607 21.4609 20.7636C21.4609 19.9201 22.1447 19.2363 22.9882 19.2363C23.8329 19.2363 24.5154 19.9201 24.5154 20.7636Z" fill="white"/>
<path d="M19.5869 12.2687C19.5869 14.2371 17.9917 15.8323 16.0233 15.8323C14.0561 15.8323 12.4609 14.2371 12.4609 12.2687C12.4609 10.3002 14.0561 8.70508 16.0233 8.70508C17.9917 8.70634 19.5869 10.3015 19.5869 12.2687Z" fill="white"/>
<path d="M50.3626 8.14554C50.3626 10.9574 48.0837 13.2364 45.2718 13.2364C42.4586 13.2364 40.1797 10.9574 40.1797 8.14554C40.1797 5.33363 42.4586 3.05469 45.2718 3.05469C48.0837 3.05469 50.3626 5.33363 50.3626 8.14554Z" fill="white"/>
<path d="M36.6117 26.4491C36.6117 27.2926 35.9267 27.9764 35.0845 27.9764C34.2398 27.9764 33.5547 27.2926 33.5547 26.4491C33.5547 25.6057 34.2398 24.9219 35.0845 24.9219C35.9267 24.9219 36.6117 25.6044 36.6117 26.4491Z" fill="white"/>
<path d="M35.0948 1.52725C35.0948 2.3707 34.4097 3.05452 33.565 3.05452C32.7241 3.05452 32.0391 2.3707 32.0391 1.52725C32.0391 0.683803 32.7241 0 33.565 0C34.4097 0 35.0948 0.683803 35.0948 1.52725Z" fill="white"/>
<path d="M58.1287 34.4224C58.1287 35.8277 56.9911 36.9678 55.5845 36.9678C54.1779 36.9678 53.0391 35.8277 53.0391 34.4224C53.0391 33.0158 54.1779 31.877 55.5845 31.877C56.9911 31.8782 58.1287 33.0171 58.1287 34.4224Z" fill="white"/>
<path d="M73.1143 16.6919C73.1143 18.0985 71.9742 19.2373 70.5689 19.2373C69.1648 19.2373 68.0234 18.0985 68.0234 16.6919C68.0234 15.2866 69.1648 14.1465 70.5689 14.1465C71.9742 14.1465 73.1143 15.2866 73.1143 16.6919Z" fill="white"/>
<path d="M78.9802 43.0767C78.9802 44.4832 77.8414 45.6221 76.436 45.6221C75.0295 45.6221 73.8906 44.4832 73.8906 43.0767C73.8906 41.6713 75.0295 40.5312 76.436 40.5312C77.8414 40.5312 78.9802 41.6713 78.9802 43.0767Z" fill="white"/>
<path d="M48.8356 29.3338C48.8356 31.3023 47.2418 32.8974 45.2733 32.8974C43.3048 32.8974 41.7109 31.3023 41.7109 29.3338C41.7109 27.3666 43.3048 25.7715 45.2733 25.7715C47.2418 25.7715 48.8356 27.3666 48.8356 29.3338Z" fill="white"/>
<path d="M58.8552 2.54543C58.8552 3.95076 57.7164 5.09085 56.3098 5.09085C54.9057 5.09085 53.7656 3.95076 53.7656 2.54543C53.7656 1.13885 54.9057 0 56.3098 0C57.7164 0 58.8552 1.13885 58.8552 2.54543Z" fill="white"/>
<path d="M53.4151 46.1308C53.4151 46.9742 52.73 47.658 51.8879 47.658C51.0431 47.658 50.3594 46.9742 50.3594 46.1308C50.3594 45.2873 51.0431 44.6035 51.8879 44.6035C52.73 44.6048 53.4151 45.2886 53.4151 46.1308Z" fill="white"/>
<path d="M63.9542 58.4726C63.9542 59.316 63.2691 59.9998 62.4244 59.9998C61.5822 59.9998 60.8984 59.316 60.8984 58.4726C60.8984 57.6291 61.5822 56.9453 62.4244 56.9453C63.2691 56.9453 63.9542 57.6291 63.9542 58.4726Z" fill="white"/>
<path d="M75.4217 57.8026C75.4217 58.6461 74.7391 59.3299 73.8944 59.3299C73.051 59.3299 72.3672 58.6461 72.3672 57.8026C72.3672 56.9592 73.051 56.2754 73.8944 56.2754C74.7391 56.2754 75.4217 56.9579 75.4217 57.8026Z" fill="white"/>
<path d="M86.5936 41.5526C86.5936 42.3961 85.9085 43.0786 85.0663 43.0786C84.2229 43.0786 83.5391 42.3948 83.5391 41.5526C83.5391 40.7079 84.2229 40.0254 85.0663 40.0254C85.9085 40.0254 86.5936 40.7079 86.5936 41.5526Z" fill="white"/>
<path d="M64.4607 23.3945C64.4607 24.2379 63.7757 24.9217 62.9335 24.9217C62.0901 24.9217 61.4062 24.2379 61.4062 23.3945C61.4062 22.5498 62.0901 21.8672 62.9335 21.8672C63.7757 21.8672 64.4607 22.5498 64.4607 23.3945Z" fill="white"/>
<path d="M60.3904 13.7948C60.3904 14.6383 59.7066 15.3221 58.8632 15.3221C58.0185 15.3221 57.3359 14.6383 57.3359 13.7948C57.3359 12.9514 58.0185 12.2676 58.8632 12.2676C59.7066 12.2676 60.3904 12.9514 60.3904 13.7948Z" fill="white"/>
<path d="M84.7 25.7706C84.7 27.7391 83.1036 29.333 81.1352 29.333C79.168 29.333 77.5703 27.7378 77.5703 25.7706C77.5703 23.8022 79.168 22.207 81.1352 22.207C83.1036 22.207 84.7 23.8009 84.7 25.7706Z" fill="white"/>
<path d="M68.6639 32.8951C68.6639 33.7398 67.9801 34.4224 67.1366 34.4224C66.2944 34.4224 65.6094 33.7398 65.6094 32.8951C65.6094 32.0517 66.2944 31.3691 67.1366 31.3691C67.9801 31.3691 68.6639 32.0517 68.6639 32.8951Z" fill="white"/>
<path d="M13.5078 14.8181L2.46875 29.5215L3.22267 30.0875L14.2617 15.3841L13.5078 14.8181Z" fill="white"/>
<path d="M9.87963 29.263L3.38281 30.3086L3.53262 31.2394L10.0294 30.1937L9.87963 29.263Z" fill="white"/>
<path d="M18.6198 14.7366L17.8906 15.334L21.6273 19.895L22.3565 19.2976L18.6198 14.7366Z" fill="white"/>
<path d="M14.7299 28.0891L14.1328 27.3588L21.5039 21.3516L22.1009 22.0819L14.7299 28.0891Z" fill="white"/>
<path d="M14.812 15.6544L12.5 26.7324L13.4229 26.925L15.7349 15.847L14.812 15.6544Z" fill="white"/>
<path d="M19.2962 10.8043L18.8047 10.001L32.012 1.91602L32.5022 2.72049L19.2962 10.8043Z" fill="white"/>
<path d="M35.1126 1.8474L34.6484 2.66797L40.6058 6.03814L41.07 5.21757L35.1126 1.8474Z" fill="white"/>
<path d="M53.8327 3.2888L49.5859 5.43359L50.0104 6.27398L54.2571 4.12919L53.8327 3.2888Z" fill="white"/>
<path d="M45.7318 13.2344H44.7891V25.7679H45.7318V13.2344Z" fill="white"/>
<path d="M31.2391 37.4949L30.7891 36.6666L41.9085 30.6191L42.3572 31.4475L31.2391 37.4949Z" fill="white"/>
<path d="M42.3834 12.3475L35.4219 24.8906L36.2473 25.3488L43.2089 12.8056L42.3834 12.3475Z" fill="white"/>
<path d="M40.4549 9.88122L33.1172 13.3184L33.5176 14.1732L40.8554 10.7361L40.4549 9.88122Z" fill="white"/>
<path d="M32.7948 2.92978L31.0078 12.2246L31.9336 12.4026L33.7206 3.10777L32.7948 2.92978Z" fill="white"/>
<path d="M28.6896 15.9553L23.9375 19.4824L24.4994 20.2394L29.2515 16.7123L28.6896 15.9553Z" fill="white"/>
<path d="M23.7296 22.1718L22.8047 22.3477L25.1356 34.6063L26.0605 34.4304L23.7296 22.1718Z" fill="white"/>
<path d="M14.7869 30.4471L14.2344 31.2109L22.1444 36.9331L22.697 36.1693L14.7869 30.4471Z" fill="white"/>
<path d="M13.0204 44.5602L12.7188 43.6665L21.5781 40.6836L21.8798 41.5773L13.0204 44.5602Z" fill="white"/>
<path d="M3.18731 32.021L2.41406 32.5625L10.1715 43.6401L10.9447 43.0986L3.18731 32.021Z" fill="white"/>
<path d="M29.5892 43.6352L28.7812 44.1211L32.3756 50.0977L33.1835 49.6118L29.5892 43.6352Z" fill="white"/>
<path d="M34.8999 50.2864L34.1797 49.6755L40.3603 42.4062L41.0806 43.0159L34.8999 50.2864Z" fill="white"/>
<path d="M33.86 27.4822L28.9453 35.0176L29.736 35.5333L34.6507 27.9979L33.86 27.4822Z" fill="white"/>
<path d="M32.2789 17.0592L31.3906 17.3711L34.1292 25.1701L35.0175 24.8582L32.2789 17.0592Z" fill="white"/>
<path d="M48.6587 30.4804L48.2422 31.3262L53.0787 33.708L53.4952 32.8623L48.6587 30.4804Z" fill="white"/>
<path d="M43.7942 32.6158L41.6562 39.957L42.5626 40.221L44.7005 32.8797L43.7942 32.6158Z" fill="white"/>
<path d="M35.1382 51.1978L34.8906 50.289L50.2864 46.0742L50.534 46.983L35.1382 51.1978Z" fill="white"/>
<path d="M13.0175 44.5745L12.75 45.4785L31.9522 51.1597L32.2197 50.2557L13.0175 44.5745Z" fill="white"/>
<path d="M47.0245 32.4558L46.1484 32.8008L50.9033 44.8761L51.7794 44.5311L47.0245 32.4558Z" fill="white"/>
<path d="M54.3624 36.7296L51.8906 44.5605L52.7896 44.8443L55.2614 37.0134L54.3624 36.7296Z" fill="white"/>
<path d="M57.2808 13.638L49.7891 10.5332L50.1511 9.66211L57.9332 12.8888V13.2031L57.4593 13.2081L57.2808 13.638Z" fill="white"/>
<path d="M58.1659 15.2378L55.5156 31.8438L56.4466 31.9923L59.0968 15.3864L58.1659 15.2378Z" fill="white"/>
<path d="M57.5097 14.6076L47.25 26.3301L47.9594 26.951L58.2191 15.2285L57.5097 14.6076Z" fill="white"/>
<path d="M57.348 4.94427L56.4297 5.15234L58.0792 12.432L58.9975 12.224L57.348 4.94427Z" fill="white"/>
<path d="M35.0811 1.1246L35.0391 2.06641L53.7421 2.9014L53.7841 1.95959L35.0811 1.1246Z" fill="white"/>
<path d="M58.4621 3.98647L57.7969 4.65625L68.4267 15.2142L69.092 14.5444L58.4621 3.98647Z" fill="white"/>
<path d="M72.8246 18.0008L72.2109 18.7148L78.1472 23.8167L78.7609 23.1027L72.8246 18.0008Z" fill="white"/>
<path d="M82.4473 29.0846L81.5312 29.3125L84.231 40.165L85.147 39.9371L82.4473 29.0846Z" fill="white"/>
<path d="M83.7997 42.5298L74.3672 56.2793L75.1456 56.8133L84.5782 43.0639L83.7997 42.5298Z" fill="white"/>
<path d="M72.3594 57.4381L63.9297 57.9219L63.9837 58.8631L72.4134 58.3793L72.3594 57.4381Z" fill="white"/>
<path d="M53.2091 46.9737L52.4922 47.5859L61.0649 57.624L61.7818 57.0118L53.2091 46.9737Z" fill="white"/>
<path d="M57.3075 36.361L56.5 36.8477L62.2437 46.3779L63.0512 45.8912L57.3075 36.361Z" fill="white"/>
<path d="M67.8583 47.9846L67.4297 47.1462L73.9547 43.8164L74.3847 44.6561L67.8583 47.9846Z" fill="white"/>
<path d="M68.502 33.7133L67.8047 34.3496L74.363 41.5375L75.0603 40.9012L68.502 33.7133Z" fill="white"/>
<path d="M65.5877 32.6216L58.0625 33.6113L58.1854 34.5461L65.7107 33.5564L65.5877 32.6216Z" fill="white"/>
<path d="M61.6905 24.4083L56.5859 32.0527L57.3689 32.5756L62.4735 24.9311L61.6905 24.4083Z" fill="white"/>
<path d="M68.3489 17.9976L63.7656 22.0176L64.3864 22.7254L68.9697 18.7054L68.3489 17.9976Z" fill="white"/>
<path d="M69.5668 19.0816L66.9688 31.2988L67.8921 31.4952L70.4902 19.2779L69.5668 19.0816Z" fill="white"/>
<path d="M79.6046 29.0534L76.6172 40.5059L77.5306 40.7441L80.518 29.2917L79.6046 29.0534Z" fill="white"/>
<path d="M72.4343 57.1586L66.6094 52.1092L67.2278 51.3965L73.0528 56.4471L72.4343 57.1586Z" fill="white"/>
<path d="M75.5292 45.5118L73.6719 56.2324L74.5995 56.3931L76.4569 45.6725L75.5292 45.5118Z" fill="white"/>
</svg>
