<svg width="85" height="62" viewBox="0 0 85 62" fill="none" xmlns="http://www.w3.org/2000/svg">
<path d="M84.3385 39.5492C84.3385 42.648 75.4365 45.1609 64.4541 45.1609C53.4728 45.1609 44.5703 42.648 44.5703 39.5492C44.5703 36.4499 53.4728 33.9375 64.4541 33.9375C75.4365 33.9375 84.3385 36.4499 84.3385 39.5492Z" fill="#08C5FF"/>
<path d="M84.3385 39.5492C84.3385 42.648 75.4365 45.1609 64.4541 45.1609C53.4728 45.1609 44.5703 42.648 44.5703 39.5492C44.5703 36.4499 53.4728 33.9375 64.4541 33.9375C75.4365 33.9375 84.3385 36.4499 84.3385 39.5492Z" stroke="#231F20" stroke-width="1.03891" stroke-miterlimit="10"/>
<path d="M64.4564 45.0381C53.5488 45.0381 44.6964 42.5593 44.5781 39.488C44.7058 44.6117 47.3072 48.698 64.4564 48.698C83.8792 48.698 84.3303 44.5809 84.3397 39.4297C84.3342 42.5279 75.4339 45.0381 64.4564 45.0381Z" fill="#08C5FF"/>
<path d="M64.4564 45.0381C53.5488 45.0381 44.6964 42.5593 44.5781 39.488C44.7058 44.6117 47.3072 48.698 64.4564 48.698C83.8792 48.698 84.3303 44.5809 84.3397 39.4297C84.3342 42.5279 75.4339 45.0381 64.4564 45.0381Z" stroke="#231F20" stroke-width="1.03891" stroke-miterlimit="10"/>
<path d="M64.4564 51.1899C53.5488 51.1899 44.6964 48.7105 44.5781 45.6403C44.7058 50.7635 47.3072 54.8498 64.4564 54.8498C83.8792 54.8498 84.3303 50.7327 84.3397 45.582C84.3342 48.6797 75.4339 51.1899 64.4564 51.1899Z" fill="#F1FBFD"/>
<path d="M64.4564 51.1899C53.5488 51.1899 44.6964 48.7105 44.5781 45.6403C44.7058 50.7635 47.3072 54.8498 64.4564 54.8498C83.8792 54.8498 84.3303 50.7327 84.3397 45.582C84.3342 48.6797 75.4339 51.1899 64.4564 51.1899Z" stroke="#231F20" stroke-width="1.03891" stroke-miterlimit="10"/>
<path d="M64.4564 57.3383C53.5488 57.3383 44.6964 54.859 44.5781 51.7888C44.7058 56.9125 47.3072 60.9982 64.4564 60.9982C83.8792 60.9982 84.3303 56.8812 84.3397 51.7305C84.3342 54.8281 75.4339 57.3383 64.4564 57.3383Z" fill="#08C5FF"/>
<path d="M64.4564 57.3383C53.5488 57.3383 44.6964 54.859 44.5781 51.7888C44.7058 56.9125 47.3072 60.9982 64.4564 60.9982C83.8792 60.9982 84.3303 56.8812 84.3397 51.7305C84.3342 54.8281 75.4339 57.3383 64.4564 57.3383Z" stroke="#231F20" stroke-width="1.03891" stroke-miterlimit="10"/>
<path d="M40.4244 6.61169C40.4244 9.71047 31.5219 12.2234 20.5395 12.2234C9.55763 12.2234 0.65625 9.71102 0.65625 6.61169C0.65625 3.51236 9.55818 1 20.5395 1C31.5219 1 40.4244 3.51236 40.4244 6.61169Z" fill="#08C5FF"/>
<path d="M40.4244 6.61169C40.4244 9.71047 31.5219 12.2234 20.5395 12.2234C9.55763 12.2234 0.65625 9.71102 0.65625 6.61169C0.65625 3.51236 9.55818 1 20.5395 1C31.5219 1 40.4244 3.51236 40.4244 6.61169Z" stroke="#231F20" stroke-width="1.03891" stroke-miterlimit="10"/>
<path d="M20.5351 12.1006C9.62695 12.1006 0.774524 9.62122 0.65625 6.5505C0.783876 11.6737 3.38538 15.7599 20.5351 15.7599C39.9574 15.7599 40.4084 11.6429 40.4189 6.49219C40.4117 9.58987 31.512 12.1006 20.5351 12.1006Z" fill="#08C5FF"/>
<path d="M20.5351 12.1006C9.62695 12.1006 0.774524 9.62122 0.65625 6.5505C0.783876 11.6737 3.38538 15.7599 20.5351 15.7599C39.9574 15.7599 40.4084 11.6429 40.4189 6.49219C40.4117 9.58987 31.512 12.1006 20.5351 12.1006Z" stroke="#231F20" stroke-width="1.03891" stroke-miterlimit="10"/>
<path d="M20.5351 18.2524C9.62695 18.2524 0.774524 15.773 0.65625 12.7028C0.783876 17.826 3.38538 21.9123 20.5351 21.9123C39.9574 21.9123 40.4084 17.7952 40.4189 12.6445C40.4117 15.7417 31.512 18.2524 20.5351 18.2524Z" fill="#F1FBFD" stroke="#231F20" stroke-width="1.03891" stroke-miterlimit="10"/>
<path d="M20.5351 24.4008C9.62695 24.4008 0.774524 21.922 0.65625 18.8513C0.783876 23.975 3.38538 28.0607 20.5351 28.0607C39.9574 28.0607 40.4084 23.9437 40.4189 18.793C40.4117 21.8906 31.512 24.4008 20.5351 24.4008Z" fill="#08C5FF"/>
<path d="M20.5351 24.4008C9.62695 24.4008 0.774524 21.922 0.65625 18.8513C0.783876 23.975 3.38538 28.0607 20.5351 28.0607C39.9574 28.0607 40.4084 23.9437 40.4189 18.793C40.4117 21.8906 31.512 24.4008 20.5351 24.4008Z" stroke="#231F20" stroke-width="1.03891" stroke-miterlimit="10"/>
<path d="M20.5351 30.5532C9.62695 30.5532 0.774524 28.0738 0.65625 25.0036C0.783876 30.1268 3.38538 34.2136 20.5351 34.2136C39.9574 34.2136 40.4084 30.0966 40.4189 24.9453C40.4117 28.043 31.512 30.5532 20.5351 30.5532Z" fill="#F1FBFD" stroke="#231F20" stroke-width="1.03891" stroke-miterlimit="10"/>
<path d="M20.5351 36.7061C9.62695 36.7061 0.774524 34.2267 0.65625 31.156C0.783876 36.2797 3.38538 40.3654 20.5351 40.3654C39.9574 40.3654 40.4084 36.2484 40.4189 31.0977C40.4117 34.1959 31.512 36.7061 20.5351 36.7061Z" fill="#08C5FF"/>
<path d="M20.5351 36.7061C9.62695 36.7061 0.774524 34.2267 0.65625 31.156C0.783876 36.2797 3.38538 40.3654 20.5351 40.3654C39.9574 40.3654 40.4084 36.2484 40.4189 31.0977C40.4117 34.1959 31.512 36.7061 20.5351 36.7061Z" stroke="#231F20" stroke-width="1.03891" stroke-miterlimit="10"/>
<path d="M20.5351 42.8539C9.62695 42.8539 0.774524 40.3746 0.65625 37.3039C0.783876 42.4276 3.38538 46.5138 20.5351 46.5138C39.9574 46.5138 40.4084 42.3968 40.4189 37.2461C40.4117 40.3432 31.512 42.8539 20.5351 42.8539Z" fill="#F1FBFD" stroke="#231F20" stroke-width="1.03891" stroke-miterlimit="10"/>
<path d="M20.5351 49.0063C9.62695 49.0063 0.774524 46.5275 0.65625 43.4568C0.783876 48.5799 3.38538 52.6662 20.5351 52.6662C39.9574 52.6662 40.4084 48.5491 40.4189 43.3984C40.4117 46.4961 31.512 49.0063 20.5351 49.0063Z" fill="#08C5FF"/>
<path d="M20.5351 49.0063C9.62695 49.0063 0.774524 46.5275 0.65625 43.4568C0.783876 48.5799 3.38538 52.6662 20.5351 52.6662C39.9574 52.6662 40.4084 48.5491 40.4189 43.3984C40.4117 46.4961 31.512 49.0063 20.5351 49.0063Z" stroke="#231F20" stroke-width="1.03891" stroke-miterlimit="10"/>
</svg>
