<svg width="87" height="62" viewBox="0 0 87 62" fill="none" xmlns="http://www.w3.org/2000/svg">
<path d="M78.2645 25.25H71.5104H22.7425H16.0493C14.8008 25.25 13.793 26.2579 13.793 27.5064V34.1996V52.5516V59.2456C13.793 60.4934 14.8008 61.502 16.0493 61.502H22.7425H71.5104H78.2645C79.5048 61.502 80.5209 60.4934 80.5209 59.2456V52.5516V34.1996V27.5064C80.5209 26.2579 79.5048 25.25 78.2645 25.25Z" fill="#F29B30"/>
<path d="M59.7003 3.40965L53.4651 6.00752L8.44734 24.7612L2.26861 27.335C1.11635 27.8156 0.57332 29.1333 1.05393 30.2856L3.6277 36.4644L10.6849 53.4061L13.2594 59.5849C13.7393 60.7372 15.057 61.281 16.21 60.8004L22.3888 58.2266L67.4066 39.4729L73.6424 36.875C74.7872 36.3982 75.337 35.0767 74.8571 33.9244L72.2826 27.7449L65.2254 10.8039L62.6509 4.62512C62.1702 3.47285 60.8457 2.9328 59.7003 3.40965Z" fill="#F29B30"/>
<path d="M27.3441 55.7531H20.6509C19.4024 55.7531 18.3945 54.7445 18.3945 53.4967V46.8027C23.3353 46.802 27.3441 50.8116 27.3441 55.7531Z" fill="#B1E35F"/>
<path d="M85.1238 46.8008V53.4948C85.1238 54.7425 84.1076 55.7511 82.8674 55.7511H76.1133C76.1133 50.8096 80.1146 46.8008 85.0636 46.8008H85.1238Z" fill="#B1E35F"/>
<path d="M85.1238 21.7564V28.4496H85.0636C80.1146 28.4496 76.1133 24.4408 76.1133 19.5H82.8674C84.1076 19.5 85.1238 20.5071 85.1238 21.7564Z" fill="#B1E35F"/>
<path d="M51.7589 24.7402C58.8741 24.7402 64.6353 30.5091 64.6353 37.6242C64.6353 44.7394 58.8741 50.5008 51.7589 50.5008C44.6438 50.5008 38.875 44.7394 38.875 37.6242C38.875 30.5091 44.6438 24.7402 51.7589 24.7402Z" fill="#B1E35F"/>
<path d="M51.9498 29.166C52.4184 29.166 52.79 29.5368 52.79 30.0062V30.4356C53.9422 30.5725 54.9185 30.9433 55.8173 31.5097C56.1294 31.6857 56.4024 31.9782 56.4024 32.4476C56.4024 33.053 55.9151 33.5216 55.3088 33.5216C55.1133 33.5216 54.9177 33.4637 54.7229 33.3464C54.04 32.9365 53.3751 32.6439 52.711 32.4867V36.2368C55.6804 36.9784 56.95 38.1705 56.95 40.2607C56.95 42.4096 55.2705 43.8356 52.79 44.0695V45.2421C52.79 45.7107 52.4184 46.0815 51.9498 46.0815C51.4813 46.0815 51.0902 45.7107 51.0902 45.2421V44.0312C49.625 43.8747 48.2772 43.3475 47.0858 42.5081C46.7541 42.293 46.5586 41.9801 46.5586 41.5702C46.5586 40.9647 47.0272 40.4954 47.6334 40.4954C47.868 40.4954 48.102 40.5736 48.2772 40.7105C49.1956 41.3746 50.0944 41.8237 51.1684 42.0192V38.1713C48.3171 37.429 46.9881 36.3541 46.9881 34.1466C46.9881 32.0572 48.6488 30.6116 51.0902 30.4161V30.0062C51.0909 29.5368 51.4813 29.166 51.9498 29.166ZM51.1684 35.8269V32.3693C49.9184 32.4867 49.2933 33.1508 49.2933 34.0105C49.2933 34.8311 49.6649 35.3388 51.1684 35.8269ZM52.7118 38.5421V42.0974C53.9618 41.9606 54.6455 41.3355 54.6455 40.3976C54.6455 39.5379 54.216 39.0107 52.7118 38.5421Z" fill="#402318"/>
<path d="M20.6509 19.5H27.3441C27.3441 24.4408 23.3353 28.4496 18.3945 28.4496V21.7564C18.3945 20.5071 19.4024 19.5 20.6509 19.5Z" fill="#B1E35F"/>
<path d="M85.1225 28.4496V46.8016H85.0623C80.1133 46.8016 76.112 50.8105 76.112 55.752H27.3441C27.3441 50.8105 23.3353 46.8016 18.3945 46.8016V28.4496C23.3353 28.4496 27.3441 24.4408 27.3441 19.5H76.112C76.112 24.4408 80.1133 28.4496 85.0623 28.4496H85.1225ZM64.6345 37.6256C64.6345 30.5105 58.8732 24.7416 51.7581 24.7416C44.643 24.7416 38.8742 30.5105 38.8742 37.6256C38.8742 44.7408 44.643 50.5021 51.7581 50.5021C58.8725 50.5021 64.6345 44.7408 64.6345 37.6256Z" fill="#64C753"/>
<path d="M85.1225 46.7997V53.4937C85.1225 54.7415 84.1063 55.7501 82.8661 55.7501H76.112H27.3441H20.6509C19.4024 55.7501 18.3945 54.7415 18.3945 53.4937V46.7997V28.4477V21.7544C18.3945 20.5059 19.4024 19.498 20.6509 19.498H27.3441H76.112H82.8661C84.1063 19.498 85.1225 20.5059 85.1225 21.7544V28.4477V46.7997Z" stroke="#402318" stroke-width="3" stroke-miterlimit="10" strokeLinecap="round" strokeLinejoin="round"/>
<path d="M64.6353 37.6242C64.6353 44.7394 58.8741 50.5008 51.7589 50.5008C44.6438 50.5008 38.875 44.7394 38.875 37.6242C38.875 30.5091 44.6438 24.7402 51.7589 24.7402C58.8733 24.7402 64.6353 30.5091 64.6353 37.6242Z" stroke="#402318" stroke-width="3" stroke-miterlimit="10" strokeLinecap="round" strokeLinejoin="round"/>
<path d="M85.0636 28.4477C80.1146 28.4477 76.1133 24.4388 76.1133 19.498" stroke="#402318" stroke-width="3" stroke-miterlimit="10" strokeLinecap="round" strokeLinejoin="round"/>
<path d="M18.3945 28.4477C23.3353 28.4477 27.3441 24.4388 27.3441 19.498" stroke="#402318" stroke-width="3" stroke-miterlimit="10" strokeLinecap="round" strokeLinejoin="round"/>
<path d="M18.3945 46.7988C23.3353 46.7988 27.3441 50.8077 27.3441 55.7492" stroke="#402318" stroke-width="3" stroke-miterlimit="10" strokeLinecap="round" strokeLinejoin="round"/>
<path d="M85.0636 46.7988C80.1146 46.7988 76.1133 50.8077 76.1133 55.7492" stroke="#402318" stroke-width="3" stroke-miterlimit="10" strokeLinecap="round" strokeLinejoin="round"/>
<path d="M24.993 54.4418L18.6887 56.6921C17.5131 57.1126 16.2247 56.5011 15.8051 55.3263L13.5547 49.0211C18.2081 47.3597 23.3316 49.7876 24.993 54.4418Z" fill="#B1E35F"/>
<path d="M76.3992 26.584L78.6496 32.8891C79.07 34.0647 78.4511 35.3554 77.283 35.7728L70.9223 38.0442C69.2608 33.39 71.6819 28.268 76.3421 26.6051L76.3992 26.584Z" fill="#B1E35F"/>
<path d="M67.9795 2.99788L70.2299 9.30224L70.1727 9.3218C65.5125 10.9863 60.3958 8.55614 58.7344 3.9027L65.0951 1.63124C66.2639 1.21456 67.5591 1.8223 67.9795 2.99788Z" fill="#B1E35F"/>
<path d="M37.56 17.0267C44.2607 14.6341 51.6256 18.1308 54.0181 24.8315C56.4106 31.5323 52.9215 38.8949 46.2208 41.2874C39.5201 43.68 32.15 40.1938 29.7575 33.4923C27.365 26.7923 30.8586 19.4192 37.56 17.0267Z" fill="#B1E35F"/>
<path d="M39.2253 21.127C39.666 20.9683 40.1414 21.1932 40.2993 21.6355L40.443 22.0408C41.5749 21.7813 42.6189 21.8032 43.6553 22.0333C44.008 22.095 44.3638 22.277 44.5218 22.7193C44.7256 23.2894 44.4232 23.8949 43.8516 24.0987C43.6681 24.1649 43.4643 24.1769 43.2409 24.131C42.4602 23.9738 41.7359 23.9227 41.0575 23.9971L42.318 27.5299C45.3649 27.2305 46.9609 27.9263 47.6626 29.8938C48.3854 31.9178 47.2828 33.826 45.0257 34.8797L45.419 35.9846C45.577 36.4254 45.3514 36.9 44.9106 37.0587C44.4691 37.2159 43.9765 36.997 43.8185 36.5562L43.4116 35.4145C41.9788 35.7612 40.5325 35.7168 39.1283 35.3265C38.7424 35.2355 38.4543 35.0068 38.316 34.6202C38.1129 34.0501 38.3964 33.4499 38.9665 33.2469C39.1869 33.1686 39.4351 33.1641 39.6457 33.2333C40.7333 33.5507 41.7314 33.6711 42.8084 33.4951L41.5148 29.8713C38.58 30.13 36.9666 29.5659 36.225 27.487C35.5218 25.5187 36.5996 23.5985 38.8342 22.5937L38.6958 22.2071C38.5408 21.7641 38.7838 21.2834 39.2253 21.127ZM40.728 27.6615L39.566 24.4055C38.428 24.9365 38.0625 25.7714 38.3513 26.5815C38.6281 27.3539 39.1486 27.7082 40.728 27.6615ZM43.095 29.6998L44.2901 33.0475C45.4213 32.4992 45.8553 31.6817 45.5401 30.7972C45.2513 29.9879 44.6692 29.6359 43.095 29.6998Z" fill="#402318"/>
<path d="M6.49846 22.5492L12.8028 20.2988C14.4635 24.953 12.0356 30.0758 7.38296 31.7365L5.13261 25.4329C4.71292 24.2566 5.32214 22.9697 6.49846 22.5492Z" fill="#B1E35F"/>
<path d="M70.2275 9.30189L76.3972 26.5851L76.34 26.6054C71.6799 28.2684 69.2588 33.3912 70.9202 38.0446L24.9908 54.4403C23.3294 49.7862 18.2059 47.3583 13.5525 49.0197L7.38281 31.7357C12.0362 30.075 14.4633 24.9515 12.8026 20.2981L58.7312 3.90234C60.3927 8.55654 65.5094 10.9859 70.1696 9.32144L70.2275 9.30189ZM54.0162 24.8319C51.6237 18.1312 44.2588 14.6345 37.5581 17.027C30.8574 19.4196 27.3631 26.792 29.7556 33.4927C32.1481 40.1942 39.5174 43.6803 46.2189 41.2878C52.9196 38.896 56.4087 31.5327 54.0162 24.8319Z" fill="#64C753"/>
<path d="M76.3973 26.5851L78.6476 32.8902C79.0681 34.0658 78.4491 35.3565 77.281 35.7739L70.9203 38.0454L24.9909 54.4411L18.6866 56.6915C17.511 57.1119 16.2226 56.5004 15.8029 55.3256L13.5526 49.0205L7.38289 31.7365L5.13252 25.4329C4.71284 24.2565 5.32281 22.9696 6.49838 22.5492L12.8027 20.2988L58.7313 3.90308L65.0921 1.63163C66.2609 1.2142 67.556 1.82193 67.9765 2.99751L70.2268 9.30187L76.3973 26.5851Z" stroke="#402318" stroke-width="3" stroke-miterlimit="10" strokeLinecap="round" strokeLinejoin="round"/>
<path d="M54.018 24.8312C56.4105 31.532 52.9214 38.8946 46.2207 41.2871C39.52 43.6797 32.1499 40.1935 29.7574 33.492C27.3649 26.792 30.8592 19.4189 37.5599 17.0264C44.2614 14.6346 51.6262 18.1305 54.018 24.8312Z" stroke="#402318" stroke-width="3" stroke-miterlimit="10" strokeLinecap="round" strokeLinejoin="round"/>
<path d="M70.1727 9.32145C65.5125 10.9859 60.3958 8.55578 58.7344 3.90234" stroke="#402318" stroke-width="3" stroke-miterlimit="10" strokeLinecap="round" strokeLinejoin="round"/>
<path d="M7.38281 31.7345C12.0362 30.0738 14.4633 24.9503 12.8026 20.2969" stroke="#402318" stroke-width="3" stroke-miterlimit="10" strokeLinecap="round" strokeLinejoin="round"/>
<path d="M13.5508 49.0191C18.2042 47.3576 23.3277 49.7863 24.9891 54.4397" stroke="#402318" stroke-width="3" stroke-miterlimit="10" strokeLinecap="round" strokeLinejoin="round"/>
<path d="M76.3421 26.6074C71.6819 28.2704 69.2608 33.3931 70.9223 38.0466" stroke="#402318" stroke-width="3" stroke-miterlimit="10" strokeLinecap="round" strokeLinejoin="round"/>
</svg>
