<svg width="61" height="60" viewBox="0 0 61 60" fill="none" xmlns="http://www.w3.org/2000/svg">
<g clip-path="url(#clip0_6930_31443)">
<path d="M36.2302 5.08594C33.0306 5.08594 29.9634 6.36379 27.7102 8.63557L1.76061 34.7992C0.75688 35.8029 0.75688 37.431 1.76061 38.4358L22.5735 59.2486C23.5772 60.2524 25.2054 60.2524 26.2101 59.2486L51.5031 33.2718C53.6846 31.0312 54.9054 28.0276 54.9054 24.9004V17.0859C54.9054 10.4585 49.5328 5.08594 42.9054 5.08594H36.2302ZM44.7359 19.3232C42.4894 19.3232 40.6681 17.5019 40.6681 15.2554C40.6681 13.009 42.4894 11.1876 44.7359 11.1876C46.9823 11.1876 48.8037 13.009 48.8037 15.2554C48.8037 17.5019 46.9823 19.3232 44.7359 19.3232Z" fill="#46B29D"/>
<path d="M44.736 16.2714C44.4756 16.2714 44.2153 16.1718 44.017 15.9735C43.6193 15.5758 43.6193 14.9331 44.017 14.5355L58.2543 0.29822C58.6519 -0.0994068 59.2946 -0.0994068 59.6922 0.29822C60.0899 0.695848 60.0899 1.33856 59.6922 1.73619L45.4549 15.9735C45.2566 16.1718 44.9963 16.2714 44.736 16.2714Z" fill="#FDD7AD"/>
</g>
<defs>
<clipPath id="clip0_6930_31443">
<rect width="60" height="60" fill="white" transform="translate(0.5)"/>
</clipPath>
</defs>
</svg>
