<svg width="89" height="60" viewBox="0 0 89 60" fill="none" xmlns="http://www.w3.org/2000/svg">
<path d="M15.6881 12.2148C7.3605 12.2148 0.609375 14.1658 0.609375 16.5726V23.7337C0.609375 26.1404 7.3605 28.0914 15.6881 28.0914C24.0157 28.0914 30.7668 26.1404 30.7668 23.7337V16.5726C30.7668 14.1658 24.0157 12.2148 15.6881 12.2148ZM15.6881 19.7739C8.22365 19.7739 2.17261 18.3405 2.17261 16.5725C2.17261 14.8045 8.22365 13.3711 15.6881 13.3711C23.1525 13.3711 29.2036 14.8045 29.2036 16.5725C29.2036 18.3405 23.1525 19.7739 15.6881 19.7739Z" fill="#23BDEE"/>
<path d="M30.7668 26.418V33.5791C30.7668 35.9859 24.0159 37.9368 15.6881 37.9368C7.36027 37.9368 0.609375 35.9859 0.609375 33.5791V26.418C0.609375 28.8247 7.36027 30.7757 15.6881 30.7757C24.0159 30.7757 30.7668 28.8247 30.7668 26.418Z" fill="#23BDEE"/>
<path d="M30.7668 36.2656V43.4268C30.7668 45.8335 24.0159 47.7845 15.6881 47.7845C7.36027 47.7845 0.609375 45.8335 0.609375 43.4268V36.2656C0.609375 38.6724 7.36027 40.6233 15.6881 40.6233C24.0159 40.6233 30.7668 38.6724 30.7668 36.2656Z" fill="#23BDEE"/>
<path d="M73.3053 12.2148C64.9777 12.2148 58.2266 14.1658 58.2266 16.5726V23.7337C58.2266 26.1404 64.9777 28.0914 73.3053 28.0914C81.6328 28.0914 88.384 26.1404 88.384 23.7337V16.5726C88.3839 14.1658 81.6328 12.2148 73.3053 12.2148ZM73.3053 19.7739C65.8408 19.7739 59.7898 18.3405 59.7898 16.5725C59.7898 14.8045 65.8408 13.3711 73.3053 13.3711C80.7697 13.3711 86.8207 14.8045 86.8207 16.5725C86.8207 18.3405 80.7696 19.7739 73.3053 19.7739Z" fill="#23BDEE"/>
<path d="M88.384 26.418V33.5791C88.384 35.9859 81.6331 37.9368 73.3053 37.9368C64.9775 37.9368 58.2266 35.9859 58.2266 33.5791V26.418C58.2266 28.8247 64.9775 30.7757 73.3053 30.7757C81.6331 30.7757 88.384 28.8247 88.384 26.418Z" fill="#23BDEE"/>
<path d="M88.384 36.2656V43.4268C88.384 45.8335 81.6331 47.7845 73.3053 47.7845C64.9775 47.7845 58.2266 45.8335 58.2266 43.4268V36.2656C58.2266 38.6724 64.9775 40.6233 73.3053 40.6233C81.6331 40.6233 88.384 38.6724 88.384 36.2656Z" fill="#23BDEE"/>
<path d="M31.3024 6.02326C30.5646 6.82245 30.1778 7.3813 30.1617 7.4047C29.9301 7.74126 30.0151 8.20138 30.3514 8.43343C30.4796 8.52198 30.626 8.56438 30.771 8.56438C31.006 8.56438 31.2373 8.45276 31.381 8.24497C31.3845 8.23999 31.7311 7.74193 32.3904 7.02773C32.6678 6.72727 32.6491 6.25886 32.3487 5.98152C32.0483 5.70418 31.5798 5.72289 31.3024 6.02326Z" fill="#00A7FF"/>
<path d="M34.5733 3.18288C34.1837 3.45311 33.7969 3.74292 33.4238 4.04409C33.1056 4.30091 33.0559 4.76705 33.3127 5.08527C33.459 5.26649 33.6732 5.36063 33.8893 5.36063C34.0526 5.36063 34.217 5.3069 34.3539 5.19632C34.6993 4.91751 35.057 4.64946 35.4173 4.39955C35.7533 4.16651 35.8367 3.70516 35.6036 3.36921C35.3705 3.03331 34.9094 2.94979 34.5733 3.18288Z" fill="#00A7FF"/>
<path d="M58.234 1.54844C57.8251 1.54844 57.4936 1.87994 57.4936 2.28884V5.80122C56.7275 4.99791 55.6416 3.99808 54.2506 3.05643C51.2548 1.0283 47.9746 0 44.5013 0C41.862 0 39.3084 0.603763 36.9112 1.79456C36.5449 1.97649 36.3956 2.42083 36.5774 2.78705C36.7593 3.15322 37.2036 3.30265 37.5699 3.12077C39.7606 2.03254 42.0926 1.48079 44.5013 1.48079C47.6733 1.48079 50.6742 2.42349 53.4205 4.28267C54.837 5.24157 55.9074 6.26072 56.6175 7.03054L52.7256 6.90035C52.3148 6.88638 51.9745 7.20692 51.9609 7.61559C51.9472 8.02426 52.2674 8.36664 52.6761 8.38034L58.2092 8.56544C58.2175 8.56572 58.2257 8.56586 58.234 8.56586C58.4257 8.56586 58.6104 8.49144 58.7487 8.35769C58.8929 8.21822 58.9744 8.02615 58.9744 7.82547V2.28884C58.9744 1.87994 58.6429 1.54844 58.234 1.54844Z" fill="#00A7FF"/>
<path d="M57.7063 53.9747C58.4441 53.1755 58.8309 52.6167 58.847 52.5933C59.0786 52.2567 58.9936 51.7966 58.6573 51.5645C58.5291 51.476 58.3827 51.4336 58.2377 51.4336C58.0027 51.4336 57.7714 51.5452 57.6277 51.753C57.6242 51.7579 57.2776 52.256 56.6183 52.9702C56.3409 53.2707 56.3596 53.7391 56.66 54.0164C56.9604 54.2938 57.4289 54.2751 57.7063 53.9747Z" fill="#00A7FF"/>
<path d="M54.436 56.8184C54.8255 56.5482 55.2123 56.2584 55.5854 55.9572C55.9036 55.7003 55.9533 55.2342 55.6965 54.916C55.5502 54.7348 55.336 54.6406 55.1199 54.6406C54.9566 54.6406 54.7922 54.6944 54.6553 54.8049C54.3099 55.0837 53.9522 55.3518 53.5919 55.6017C53.2559 55.8347 53.1725 56.2961 53.4056 56.632C53.6387 56.968 54.0998 57.0515 54.436 56.8184Z" fill="#00A7FF"/>
<path d="M30.7716 58.451C31.1806 58.451 31.512 58.1195 31.512 57.7106V54.1982C32.2781 55.0015 33.364 56.0013 34.755 56.943C37.7508 58.9711 41.031 59.9995 44.5043 59.9995C47.1436 59.9995 49.6973 59.3957 52.0945 58.2049C52.4607 58.023 52.6101 57.5786 52.4282 57.2124C52.2463 56.8462 51.802 56.6969 51.4357 56.8787C49.2451 57.9669 46.913 58.5187 44.5043 58.5187C41.3323 58.5187 38.3314 57.576 35.5851 55.7168C34.1687 54.7579 33.0982 53.7387 32.3882 52.9689L36.28 53.0991C36.6908 53.1131 37.0311 52.7925 37.0448 52.3839C37.0584 51.9752 36.7382 51.6328 36.3296 51.6191L30.7964 51.434C30.7881 51.4337 30.7799 51.4336 30.7716 51.4336C30.5799 51.4336 30.3952 51.508 30.257 51.6418C30.1127 51.7812 30.0312 51.9733 30.0312 52.174V57.7106C30.0312 58.1195 30.3627 58.451 30.7716 58.451Z" fill="#00A7FF"/>
</svg>
