<svg width="61" height="60" viewBox="0 0 61 60" fill="none" xmlns="http://www.w3.org/2000/svg">
<path d="M43.2338 7.66016H15.268C12.1644 7.66016 9.64844 10.1761 9.64844 13.2797V51.742C9.64844 54.8456 12.1644 57.3615 15.268 57.3615H43.2338C46.3374 57.3615 48.8533 54.8456 48.8533 51.742V13.2797C48.8533 10.1761 46.3374 7.66016 43.2338 7.66016Z" fill="#4D4C78"/>
<path d="M45.9297 52.1645V12.8542C45.9297 11.6015 44.9141 10.5859 43.6614 10.5859L14.8476 10.5859C13.5949 10.5859 12.5793 11.6015 12.5793 12.8542V52.1645C12.5793 53.4172 13.5949 54.4328 14.8476 54.4328H43.6614C44.9141 54.4328 45.9297 53.4172 45.9297 52.1645Z" fill="#C8C2E9"/>
<path d="M41.3225 51.9245C41.9241 51.9245 42.5011 51.6855 42.9264 51.2601C43.3518 50.8347 43.5908 50.2578 43.5908 49.6562V10.5859H43.6611C44.2626 10.5859 44.8396 10.8249 45.265 11.2503C45.6904 11.6757 45.9293 12.2526 45.9293 12.8542V52.1645C45.9293 52.7661 45.6904 53.343 45.265 53.7684C44.8396 54.1938 44.2626 54.4328 43.6611 54.4328H14.8464C14.2448 54.4328 13.6679 54.1938 13.2425 53.7684C12.8171 53.343 12.5781 52.7661 12.5781 52.1645V51.9245H41.3225Z" fill="#B9B1E0"/>
<path d="M41.3906 19.9637H17.9526C17.7973 19.9637 17.6484 19.902 17.5386 19.7923C17.4289 19.6825 17.3672 19.5336 17.3672 19.3783C17.3672 19.2231 17.4289 19.0742 17.5386 18.9644C17.6484 18.8546 17.7973 18.793 17.9526 18.793H41.3906C41.5459 18.793 41.6947 18.8546 41.8045 18.9644C41.9143 19.0742 41.976 19.2231 41.976 19.3783C41.976 19.5336 41.9143 19.6825 41.8045 19.7923C41.6947 19.902 41.5459 19.9637 41.3906 19.9637Z" fill="#4D4C78"/>
<path d="M33.9213 26.6942H17.9526C17.7973 26.6942 17.6484 26.6325 17.5386 26.5227C17.4289 26.4129 17.3672 26.2641 17.3672 26.1088C17.3672 25.9536 17.4289 25.8047 17.5386 25.6949C17.6484 25.5851 17.7973 25.5234 17.9526 25.5234H33.9213C34.0766 25.5234 34.2255 25.5851 34.3352 25.6949C34.445 25.8047 34.5067 25.9536 34.5067 26.1088C34.5067 26.2641 34.445 26.4129 34.3352 26.5227C34.2255 26.6325 34.0766 26.6942 33.9213 26.6942Z" fill="#4D4C78"/>
<path d="M35.9994 33.4168H17.9526C17.7973 33.4168 17.6484 33.3552 17.5386 33.2454C17.4289 33.1356 17.3672 32.9867 17.3672 32.8315C17.3672 32.6762 17.4289 32.5273 17.5386 32.4175C17.6484 32.3078 17.7973 32.2461 17.9526 32.2461H35.9994C36.1546 32.2461 36.3035 32.3078 36.4133 32.4175C36.5231 32.5273 36.5848 32.6762 36.5848 32.8315C36.5848 32.9867 36.5231 33.1356 36.4133 33.2454C36.3035 33.3552 36.1546 33.4168 35.9994 33.4168Z" fill="#4D4C78"/>
<path d="M27.8833 40.1473H17.9526C17.7973 40.1473 17.6484 40.0856 17.5386 39.9758C17.4289 39.8661 17.3672 39.7172 17.3672 39.5619C17.3672 39.4067 17.4289 39.2578 17.5386 39.148C17.6484 39.0382 17.7973 38.9766 17.9526 38.9766H27.8833C28.0385 38.9766 28.1874 39.0382 28.2972 39.148C28.407 39.2578 28.4687 39.4067 28.4687 39.5619C28.4687 39.7172 28.407 39.8661 28.2972 39.9758C28.1874 40.0856 28.0385 40.1473 27.8833 40.1473Z" fill="#4D4C78"/>
<path opacity="0.2" d="M48.8558 23.5172L47.8284 24.5445C47.7409 24.4915 47.6432 24.4576 47.5416 24.445C47.5121 24.3579 47.4631 24.2788 47.3982 24.2137L45.9114 22.7269C45.8543 22.6698 45.7865 22.6246 45.712 22.5937C45.6374 22.5628 45.5575 22.5469 45.4767 22.5469C45.396 22.5469 45.3161 22.5628 45.2415 22.5937C45.1669 22.6246 45.0992 22.6698 45.0421 22.7269L37.2626 30.5064C37.2057 30.5633 37.1606 30.6308 37.1298 30.7052C37.099 30.7795 37.0832 30.8592 37.0832 30.9396C37.0832 31.02 37.099 31.0997 37.1298 31.174C37.1606 31.2484 37.2057 31.3159 37.2626 31.3728C37.3195 31.4297 37.387 31.4748 37.4613 31.5056C37.5357 31.5364 37.6153 31.5522 37.6958 31.5522C37.7762 31.5522 37.8559 31.5364 37.9302 31.5056C38.0045 31.4748 38.0721 31.4297 38.1289 31.3728L45.4782 24.0264L46.5319 25.0801L39.9816 31.6274L39.405 32.2069L30.8411 40.7708L30.5426 41.0664C30.4393 41.1701 30.3713 41.3036 30.3482 41.4481C30.3251 41.5925 30.348 41.7406 30.4138 41.8713L28.5319 45.2547C28.327 45.6235 28.7309 46.0274 29.0967 45.8225L32.4831 43.9406C32.6142 44.0056 32.7623 44.0278 32.9067 44.0042C33.0511 43.9805 33.1844 43.9122 33.288 43.8089L41.8577 35.2391L42.727 34.3698L48.8558 28.2411V23.5172Z" fill="black"/>
<path d="M30.2081 41.0664L32.4413 43.2996L28.6335 45.4157C28.2823 45.6118 27.8959 45.2254 28.092 44.8742L30.2081 41.0664Z" fill="#4D4C78"/>
<path d="M51.2777 23.7543L49.7545 22.2311C49.6528 22.1293 49.4878 22.1293 49.3861 22.2311L46.4568 25.1604C46.3551 25.2621 46.3551 25.427 46.4568 25.5287L47.98 27.0519C48.0818 27.1537 48.2467 27.1537 48.3484 27.0519L51.2777 24.1227C51.3794 24.0209 51.3794 23.856 51.2777 23.7543Z" fill="#46A1F8"/>
<path d="M31.6844 43.4927L30.008 41.8164C29.8829 41.6912 29.8126 41.5215 29.8126 41.3445C29.8126 41.1675 29.8829 40.9978 30.008 40.8727L45.6892 25.1914C45.8155 25.0652 45.9867 24.9943 46.1652 24.9943C46.3438 24.9943 46.515 25.0652 46.6412 25.1914L48.3114 26.8616C48.4376 26.9878 48.5086 27.1591 48.5086 27.3376C48.5086 27.5161 48.4376 27.6874 48.3114 27.8136L32.6281 43.4969C32.503 43.622 32.3332 43.6923 32.1562 43.6923C31.9793 43.6923 31.8095 43.622 31.6844 43.4969L31.6844 43.4927Z" fill="#67BAEB"/>
<path d="M48.0385 26.582L32.6346 41.9859C32.5095 42.1107 32.3401 42.1807 32.1634 42.1807C31.9867 42.1807 31.8173 42.1107 31.6922 41.9859L30.2961 40.5898L30.0151 40.8737C29.8904 40.9988 29.8203 41.1683 29.8203 41.345C29.8203 41.5216 29.8904 41.6911 30.0151 41.8162L31.6922 43.4932C31.8173 43.618 31.9867 43.6881 32.1634 43.6881C32.3401 43.6881 32.5095 43.618 32.6346 43.4932L48.3166 27.8113C48.3793 27.749 48.4291 27.6749 48.4631 27.5933C48.4971 27.5117 48.5146 27.4241 48.5146 27.3357C48.5146 27.2473 48.4971 27.1597 48.4631 27.0781C48.4291 26.9965 48.3793 26.9224 48.3166 26.8601L48.0385 26.582Z" fill="#46A1F8"/>
<path d="M41.6431 34.4789L39.0236 31.8594L38.1953 32.6877L40.8148 35.3072L41.6431 34.4789Z" fill="#4D4C78"/>
<path d="M36.8425 31.7875C36.7268 31.7868 36.6139 31.752 36.518 31.6875C36.422 31.6229 36.3471 31.5316 36.3028 31.4248C36.2584 31.318 36.2466 31.2005 36.2686 31.0869C36.2907 30.9734 36.3457 30.8689 36.4269 30.7865L43.8581 23.3553C43.9124 23.3008 43.977 23.2577 44.0481 23.2282C44.1191 23.1988 44.1953 23.1836 44.2722 23.1836C44.3491 23.1836 44.4253 23.1988 44.4964 23.2282C44.5674 23.2577 44.632 23.3008 44.6864 23.3553L46.1059 24.7777C46.1645 24.8311 46.2118 24.8958 46.2447 24.9679C46.2776 25.0401 46.2955 25.1182 46.2973 25.1974C46.2991 25.2767 46.2848 25.3555 46.2552 25.4291C46.2256 25.5027 46.1814 25.5695 46.1252 25.6254C46.0691 25.6814 46.0021 25.7254 45.9284 25.7547C45.8547 25.784 45.7759 25.798 45.6966 25.7959C45.6173 25.7939 45.5393 25.7757 45.4673 25.7425C45.3953 25.7094 45.3307 25.6619 45.2776 25.6031L44.2737 24.5992L37.2551 31.6148C37.2011 31.6693 37.1369 31.7127 37.066 31.7423C36.9952 31.772 36.9192 31.7873 36.8425 31.7875Z" fill="#4D4C78"/>
<path d="M27.8833 46.2098H17.9526C17.7973 46.2098 17.6484 46.1481 17.5386 46.0383C17.4289 45.9286 17.3672 45.7797 17.3672 45.6244C17.3672 45.4692 17.4289 45.3203 17.5386 45.2105C17.6484 45.1007 17.7973 45.0391 17.9526 45.0391H27.8833C28.0385 45.0391 28.1874 45.1007 28.2972 45.2105C28.407 45.3203 28.4687 45.4692 28.4687 45.6244C28.4687 45.7797 28.407 45.9286 28.2972 46.0383C28.1874 46.1481 28.0385 46.2098 27.8833 46.2098Z" fill="#4D4C78"/>
<path opacity="0.2" d="M17.9375 7.66016V10.7977C17.9383 11.5737 18.2469 12.3177 18.7956 12.8664C19.3443 13.4152 20.0883 13.7238 20.8643 13.7245H37.6409C38.4167 13.723 39.1602 13.4141 39.7088 12.8656C40.2573 12.317 40.5662 11.5735 40.5677 10.7977V7.66016H17.9375Z" fill="black"/>
<path d="M20.8657 5.82754C23.1764 5.82924 25.4073 4.98249 27.135 3.44803C27.7183 2.92799 28.4725 2.64062 29.254 2.64062C30.0355 2.64062 30.7897 2.92799 31.373 3.44803C33.1001 4.98344 35.3314 5.83033 37.6423 5.82754C38.0459 5.82754 38.433 5.98789 38.7185 6.27331C39.0039 6.55873 39.1642 6.94584 39.1642 7.34949V10.7973C39.1642 11.2009 39.0039 11.5881 38.7185 11.8735C38.433 12.1589 38.0459 12.3192 37.6423 12.3192H20.8657C20.4621 12.3192 20.0749 12.1589 19.7895 11.8735C19.5041 11.5881 19.3438 11.2009 19.3438 10.7973V7.34949C19.3438 6.94584 19.5041 6.55873 19.7895 6.27331C20.0749 5.98789 20.4621 5.82754 20.8657 5.82754Z" fill="#67BAEB"/>
<path d="M30.855 3.1321C29.8951 3.13123 28.9686 3.48451 28.253 4.12429C26.1348 6.00719 23.3983 7.04573 20.5642 7.04234C20.1156 7.04199 19.682 7.20419 19.3438 7.49893V7.34966C19.3438 6.94601 19.5041 6.5589 19.7895 6.27348C20.0749 5.98805 20.4621 5.82771 20.8657 5.82771C23.1764 5.82941 25.4073 4.98266 27.135 3.44819C27.652 2.98751 28.305 2.70776 28.9952 2.65126C29.6854 2.59475 30.3752 2.76457 30.9603 3.13502L30.855 3.1321Z" fill="#83D0FB"/>
<path d="M35.8521 11.1384C36.2557 11.1384 36.6428 10.978 36.9283 10.6926C37.2137 10.4072 37.374 10.0201 37.374 9.61641V6.16861C37.3739 6.05131 37.3602 5.93443 37.3331 5.82031L37.6433 5.82617C38.0469 5.82617 38.4341 5.98651 38.7195 6.27194C39.0049 6.55736 39.1652 6.94447 39.1652 7.34812V10.7959C39.1652 11.1996 39.0049 11.5867 38.7195 11.8721C38.4341 12.1575 38.0469 12.3179 37.6433 12.3179H20.8667C20.5224 12.3181 20.1882 12.2016 19.9187 11.9873C19.6492 11.7731 19.4603 11.4738 19.3828 11.1384H35.8521Z" fill="#46A1F8"/>
<path d="M44.9376 27.7855C45.1879 27.5352 45.1879 27.1293 44.9376 26.879C44.6873 26.6287 44.2815 26.6287 44.0311 26.879L40.7343 30.1759C40.484 30.4262 40.484 30.832 40.7343 31.0823C40.9846 31.3327 41.3905 31.3327 41.6408 31.0823L44.9376 27.7855Z" fill="#83D0FB"/>
<path d="M37.8751 34.8441C38.1254 34.5938 38.1254 34.1879 37.8751 33.9376C37.6248 33.6873 37.219 33.6873 36.9686 33.9376L33.6718 37.2345C33.4215 37.4848 33.4215 37.8906 33.6718 38.1409C33.9221 38.3912 34.328 38.3912 34.5783 38.1409L37.8751 34.8441Z" fill="#83D0FB"/>
<path d="M14.6123 23.5654C14.6123 23.0029 14.1569 22.5469 13.5952 22.5469C13.0335 22.5469 12.5781 23.0029 12.5781 23.5654V35.6392C12.5781 36.2017 13.0335 36.6577 13.5952 36.6577C14.1569 36.6577 14.6123 36.2017 14.6123 35.6392V23.5654Z" fill="#DFDAFD"/>
<path d="M14.6123 39.4053C14.6123 38.8427 14.1569 38.3867 13.5952 38.3867C13.0335 38.3867 12.5781 38.8427 12.5781 39.4053V42.6695C12.5781 43.2321 13.0335 43.6881 13.5952 43.6881C14.1569 43.6881 14.6123 43.2321 14.6123 42.6695V39.4053Z" fill="#DFDAFD"/>
</svg>
