<svg width="61" height="60" viewBox="0 0 61 60" fill="none" xmlns="http://www.w3.org/2000/svg">
<path d="M55.0844 15.6797V44.3222L30.5021 58.6434L26.4297 25.9286L55.0844 15.6797Z" fill="#FFB14E"/>
<path d="M30.4965 25.9286V58.6434L5.91406 44.3222V15.6797L30.4965 25.9286Z" fill="#FF9356"/>
<path d="M42.7883 8.52L35.762 19.8487L18.2046 22.8412L5.91406 15.6806L30.4965 1.35938L42.7883 8.52Z" fill="#FFB14E"/>
<path d="M55.0852 15.6802L30.5029 30.0014L18.2109 22.8408L42.7947 8.51953L55.0852 15.6802Z" fill="#FFD86C"/>
<path d="M56.4411 15.6552C56.4402 15.6115 56.4374 15.5679 56.4324 15.5248C56.4309 15.5112 56.4297 15.4975 56.4276 15.484C56.4198 15.4314 56.4098 15.3791 56.3961 15.3278C56.3943 15.321 56.3917 15.3146 56.3898 15.308C56.3771 15.2632 56.3618 15.2191 56.3446 15.1759C56.3391 15.1621 56.3331 15.1484 56.3272 15.1346C56.31 15.0954 56.2911 15.0572 56.2701 15.0196C56.2648 15.0102 56.2601 15.0005 56.2547 14.9912C56.2272 14.9442 56.197 14.8986 56.1636 14.8549C56.161 14.8515 56.1578 14.8482 56.1552 14.8448C56.1251 14.8062 56.0924 14.7691 56.0577 14.7335C56.0482 14.7238 56.0383 14.7143 56.0286 14.7047C55.998 14.6753 55.966 14.6471 55.9324 14.6202C55.9219 14.6118 55.912 14.6031 55.9013 14.5951C55.8591 14.5634 55.8153 14.5331 55.7684 14.5059L31.186 0.18457C30.7636 -0.0615234 30.2417 -0.0615234 29.8195 0.18457L5.2368 14.5058C5.18992 14.5331 5.14609 14.5632 5.10391 14.595C5.09312 14.603 5.08328 14.6119 5.07285 14.6201C5.03922 14.6469 5.00711 14.675 4.97664 14.7046C4.96668 14.7141 4.95695 14.7236 4.94746 14.7334C4.91289 14.7689 4.88008 14.8061 4.84996 14.8447C4.84727 14.8481 4.84422 14.8514 4.84164 14.8548C4.80824 14.8985 4.77813 14.9441 4.75047 14.9911C4.74508 15.0004 4.74027 15.0101 4.73512 15.0195C4.71426 15.0571 4.69516 15.0954 4.67805 15.1345C4.67207 15.1482 4.66609 15.162 4.66059 15.1758C4.64336 15.2191 4.62813 15.2631 4.61535 15.3079C4.61348 15.3145 4.6109 15.321 4.60914 15.3277C4.59543 15.379 4.58535 15.4312 4.57762 15.4839C4.57574 15.4973 4.57445 15.5111 4.57281 15.5246C4.56777 15.568 4.56496 15.6114 4.56414 15.6551C4.56402 15.6629 4.5625 15.6707 4.5625 15.6788V44.3212C4.5625 44.8044 4.81914 45.251 5.23656 45.4942L29.8192 59.8154C29.8232 59.8178 29.8272 59.8191 29.8312 59.8213C29.8797 59.8489 29.9296 59.8744 29.9815 59.8959C29.9821 59.8962 29.9827 59.8963 29.9834 59.8966C30.0325 59.917 30.0834 59.9337 30.1352 59.9482C30.1483 59.9518 30.1614 59.9551 30.1747 59.9584C30.2152 59.9685 30.2566 59.9766 30.2984 59.983C30.3123 59.9852 30.3262 59.9878 30.3402 59.9893C30.3936 59.9957 30.4475 59.9999 30.5024 59.9999C30.5574 59.9999 30.6114 59.9957 30.6646 59.9893C30.6786 59.9877 30.6924 59.9851 30.7065 59.983C30.7484 59.9767 30.7897 59.9685 30.8302 59.9584C30.8433 59.9551 30.8566 59.9521 30.8697 59.9482C30.9216 59.9337 30.9723 59.917 31.0215 59.8966C31.022 59.8964 31.0226 59.8963 31.0233 59.8959C31.0754 59.8744 31.1253 59.8489 31.1737 59.8213C31.1777 59.8191 31.1816 59.8176 31.1856 59.8154L55.7683 45.4942C56.1857 45.2509 56.4425 44.8043 56.4425 44.3212V15.6788C56.4427 15.6708 56.4413 15.6633 56.4411 15.6552ZM30.5027 28.4291L20.9081 22.8395L42.794 10.0893L52.3887 15.6789L30.5027 28.4291ZM30.5027 2.92852L40.0973 8.51812L18.2113 21.2684L8.61672 15.6789L30.5027 2.92852ZM53.7278 43.5411L31.8602 56.2808V50.7694C31.8602 50.0196 31.2524 49.4119 30.5027 49.4119C29.7529 49.4119 29.1452 50.0196 29.1452 50.7694V56.2808L7.2775 43.5411V18.0407L17.5435 24.0214C17.5442 24.0218 17.545 24.0223 17.5457 24.0229L29.1453 30.7803V45.3396C29.1453 46.0894 29.753 46.6971 30.5028 46.6971C31.2525 46.6971 31.8603 46.0894 31.8603 45.3396V30.7802L53.7279 18.0407L53.7278 43.5411Z" fill="#835A2A"/>
<path d="M39.1378 33.6489C39.39 34.0818 39.8448 34.3233 40.3121 34.3233C40.5441 34.3233 40.7792 34.2639 40.9941 34.1385L45.9603 31.2454C46.6081 30.868 46.8272 30.0369 46.4499 29.3891C46.0725 28.7413 45.2413 28.5223 44.5936 28.8995L39.6274 31.7927C38.9797 32.1701 38.7605 33.0011 39.1378 33.6489Z" fill="#835A2A"/>
</svg>
