<svg width="58" height="61" viewBox="0 0 58 61" fill="none" xmlns="http://www.w3.org/2000/svg">
<path d="M56.895 53.9384L42.0253 39.0686C41.3314 38.3812 40.2216 38.3812 39.5284 39.0686L39.311 39.286L37.0256 37L36.9486 36.9412C42.7943 29.3395 42.2303 18.3995 35.2743 11.4434C27.7013 3.87043 15.4225 3.87043 7.85547 11.4434C0.282551 19.0111 0.282551 31.2894 7.85547 38.863C14.8115 45.819 25.7508 46.3831 33.3531 40.5374L33.4119 40.6137L35.6973 42.8991L35.4799 43.1165C34.7925 43.8104 34.7925 44.9202 35.4799 45.6134L50.3496 60.4838C51.037 61.1712 52.1532 61.1712 52.8406 60.4838L56.8938 56.43C57.5824 55.7421 57.5824 54.6258 56.895 53.9384Z" fill="#F29B30"/>
<path d="M56.3084 49.1731C56.9957 49.8604 56.9957 50.9767 56.3084 51.6641L52.2552 55.7179C51.5678 56.4053 50.4516 56.4053 49.7642 55.7179L34.8944 40.8475C34.2071 40.1542 34.2071 39.0444 34.8944 38.3506L35.1118 38.1332H35.1183L38.7256 34.5259V34.52L38.9429 34.3026C39.6362 33.6153 40.746 33.6153 41.4398 34.3026L56.3084 49.1731Z" fill="#8C4D35"/>
<path d="M38.7235 34.5225V34.5284L35.1162 38.1356H35.1098L32.8244 35.8502L32.7656 35.7739C33.4354 35.2686 34.0752 34.7105 34.6868 34.0995C35.2978 33.4885 35.8618 32.8475 36.3611 32.1777L36.4381 32.2365L38.7235 34.5225Z" fill="white"/>
<path d="M34.6883 6.67929C41.6444 13.636 42.2084 24.5754 36.3627 32.1771C35.8633 32.8469 35.2993 33.4878 34.6883 34.0988C34.0773 34.7099 33.4369 35.2674 32.7672 35.7732C25.1649 41.6189 14.225 41.0549 7.26954 34.0988C-0.303387 26.5253 -0.303387 14.247 7.26954 6.67929C14.8366 -0.893096 27.1154 -0.893096 34.6883 6.67929ZM32.1914 31.6019C38.3896 25.4096 38.3896 15.3626 32.1914 9.17032C25.9992 2.97211 15.9529 2.97211 9.76056 9.17032C3.56827 15.3626 3.56827 25.4096 9.76056 31.6019C15.9529 37.8001 25.9992 37.8001 32.1914 31.6019Z" fill="#D6E9FF"/>
<path d="M32.1923 9.17209C38.3904 15.3644 38.3904 25.4114 32.1923 31.6037C26 37.8019 15.9537 37.8019 9.7614 31.6037C3.56912 25.4114 3.56912 15.3644 9.7614 9.17209C15.9537 2.97389 26 2.97389 32.1923 9.17209Z" fill="white"/>
<path d="M32.7672 35.7737C25.1649 41.6194 14.225 41.0554 7.26953 34.0993C-0.303386 26.5257 -0.303386 14.2474 7.26953 6.67973C14.8366 -0.893243 27.1154 -0.893243 34.6883 6.67973C41.6444 13.6364 42.2084 24.5758 36.3627 32.1776C35.8633 32.8473 35.2993 33.4883 34.6883 34.0993C34.0767 34.7103 33.4364 35.2684 32.7672 35.7737Z" stroke="#402318" stroke-width="1.5" stroke-miterlimit="10"/>
<path d="M32.1884 9.17209C38.3865 15.3644 38.3865 25.4114 32.1884 31.6037C25.9961 37.8019 15.9498 37.8019 9.7575 31.6037C3.56521 25.4114 3.56521 15.3644 9.7575 9.17209C15.9498 2.97389 25.9961 2.97389 32.1884 9.17209Z" stroke="#402318" stroke-width="1.5" stroke-miterlimit="10"/>
<path d="M35.1172 38.1341L38.7239 34.5273" stroke="#402318" stroke-width="1.5" stroke-miterlimit="10"/>
<path d="M38.7244 34.522L38.9418 34.3046C39.635 33.6172 40.7448 33.6172 41.4386 34.3046L56.3084 49.1744C56.9957 49.8618 56.9957 50.9781 56.3084 51.6654L52.2552 55.7192C51.5678 56.4066 50.4516 56.4066 49.7642 55.7192L34.8944 40.8488C34.2071 40.1556 34.2071 39.0458 34.8944 38.3519L35.1118 38.1346" stroke="#402318" stroke-width="1.5" stroke-miterlimit="10"/>
<path d="M35.12 38.1344H35.1135L32.8281 35.8496" stroke="#402318" stroke-width="1.5" stroke-miterlimit="10"/>
<path d="M38.7223 34.5282V34.5223L36.4375 32.2363" stroke="#402318" stroke-width="1.5" stroke-miterlimit="10"/>
<path d="M12.1016 12.3484C12.2332 12.2039 12.3683 12.0617 12.5081 11.9219" stroke="#402318" stroke-width="1.5" stroke-miterlimit="10" strokeLinecap="round"/>
<path d="M9.33188 23.1764C8.74673 20.7259 8.94472 18.1274 9.92467 15.7773" stroke="#402318" stroke-width="1.5" stroke-miterlimit="10" strokeLinecap="round"/>
<path d="M29.8294 26.6325C28.9722 26.6325 28.1503 26.2917 27.544 25.686L21.6725 19.8133C20.4111 18.5513 20.4111 16.505 21.6731 15.2437C22.9357 13.9829 24.9813 13.9823 26.2427 15.2442L29.8294 18.8316L39.29 9.37152C40.5514 8.11014 42.5982 8.11073 43.8596 9.37211C45.1216 10.6335 45.1215 12.6798 43.859 13.9417L32.1142 25.686C31.5079 26.2923 30.6866 26.6325 29.8294 26.6325Z" fill="#64C753" stroke="#402318" stroke-width="1.5" stroke-miterlimit="10" strokeLinecap="round" strokeLinejoin="round"/>
</svg>
