<svg width="87" height="62" viewBox="0 0 87 62" fill="none" xmlns="http://www.w3.org/2000/svg">
<path d="M77.7606 25.75H71.0065H22.2386H15.5454C14.2969 25.75 13.2891 26.7579 13.2891 28.0064V34.6996V53.0516V59.7456C13.2891 60.9934 14.2969 62.002 15.5454 62.002H22.2386H71.0065H77.7606C79.0009 62.002 80.017 60.9934 80.017 59.7456V53.0516V34.6996V28.0064C80.017 26.7579 79.0009 25.75 77.7606 25.75Z" fill="#F29B30"/>
<path d="M59.1964 3.90965L52.9612 6.50752L7.94343 25.2612L1.7647 27.835C0.612442 28.3156 0.0694138 29.6333 0.550023 30.7856L3.1238 36.9644L10.181 53.9061L12.7555 60.0849C13.2354 61.2372 14.5531 61.781 15.7061 61.3004L21.8848 58.7266L66.9026 39.9729L73.1385 37.375C74.2833 36.8982 74.8331 35.5767 74.3532 34.4244L71.7787 28.2449L64.7215 11.3039L62.1469 5.12512C61.6663 3.97285 60.3418 3.4328 59.1964 3.90965Z" fill="#F29B30"/>
<path d="M26.8402 56.2531H20.147C18.8985 56.2531 17.8906 55.2445 17.8906 53.9967V47.3027C22.8313 47.302 26.8402 51.3116 26.8402 56.2531Z" fill="#B1E35F"/>
<path d="M84.6199 47.3008V53.9948C84.6199 55.2425 83.6037 56.2511 82.3635 56.2511H75.6094C75.6094 51.3096 79.6107 47.3008 84.5597 47.3008H84.6199Z" fill="#B1E35F"/>
<path d="M84.6199 22.2564V28.9496H84.5597C79.6107 28.9496 75.6094 24.9408 75.6094 20H82.3635C83.6037 20 84.6199 21.0071 84.6199 22.2564Z" fill="#B1E35F"/>
<path d="M51.2589 25.2402C58.3741 25.2402 64.1353 31.0091 64.1353 38.1242C64.1353 45.2394 58.3741 51.0008 51.2589 51.0008C44.1438 51.0008 38.375 45.2394 38.375 38.1242C38.375 31.0091 44.1438 25.2402 51.2589 25.2402Z" fill="#B1E35F"/>
<path d="M51.4459 29.666C51.9145 29.666 52.2861 30.0368 52.2861 30.5062V30.9356C53.4383 31.0725 54.4146 31.4433 55.3134 32.0097C55.6255 32.1857 55.8985 32.4782 55.8985 32.9476C55.8985 33.553 55.4112 34.0216 54.8049 34.0216C54.6094 34.0216 54.4138 33.9637 54.219 33.8464C53.5361 33.4365 52.8712 33.1439 52.2071 32.9867V36.7368C55.1765 37.4784 56.4461 38.6705 56.4461 40.7607C56.4461 42.9096 54.7666 44.3356 52.2861 44.5695V45.7421C52.2861 46.2107 51.9145 46.5815 51.4459 46.5815C50.9774 46.5815 50.5863 46.2107 50.5863 45.7421V44.5312C49.1211 44.3747 47.7733 43.8475 46.5819 43.0081C46.2502 42.793 46.0547 42.4801 46.0547 42.0702C46.0547 41.4647 46.5233 40.9954 47.1295 40.9954C47.3641 40.9954 47.5981 41.0736 47.7733 41.2105C48.6917 41.8746 49.5904 42.3237 50.6645 42.5192V38.6713C47.8132 37.929 46.4842 36.8541 46.4842 34.6466C46.4842 32.5572 48.1449 31.1116 50.5863 30.9161V30.5062C50.587 30.0368 50.9774 29.666 51.4459 29.666ZM50.6645 36.3269V32.8693C49.4144 32.9867 48.7894 33.6508 48.7894 34.5105C48.7894 35.3311 49.161 35.8388 50.6645 36.3269ZM52.2078 39.0421V42.5974C53.4579 42.4606 54.1416 41.8355 54.1416 40.8976C54.1416 40.0379 53.7121 39.5107 52.2078 39.0421Z" fill="#402318"/>
<path d="M20.147 20H26.8402C26.8402 24.9408 22.8313 28.9496 17.8906 28.9496V22.2564C17.8906 21.0071 18.8985 20 20.147 20Z" fill="#B1E35F"/>
<path d="M84.6186 28.9496V47.3016H84.5584C79.6094 47.3016 75.6081 51.3105 75.6081 56.252H26.8402C26.8402 51.3105 22.8313 47.3016 17.8906 47.3016V28.9496C22.8313 28.9496 26.8402 24.9408 26.8402 20H75.6081C75.6081 24.9408 79.6094 28.9496 84.5584 28.9496H84.6186ZM64.1306 38.1256C64.1306 31.0105 58.3693 25.2416 51.2542 25.2416C44.1391 25.2416 38.3703 31.0105 38.3703 38.1256C38.3703 45.2408 44.1391 51.0021 51.2542 51.0021C58.3686 51.0021 64.1306 45.2408 64.1306 38.1256Z" fill="#64C753"/>
<path d="M84.6186 47.2997V53.9937C84.6186 55.2415 83.6024 56.2501 82.3622 56.2501H75.6081H26.8402H20.147C18.8985 56.2501 17.8906 55.2415 17.8906 53.9937V47.2997V28.9477V22.2544C17.8906 21.0059 18.8985 19.998 20.147 19.998H26.8402H75.6081H82.3622C83.6024 19.998 84.6186 21.0059 84.6186 22.2544V28.9477V47.2997Z" stroke="#402318" stroke-width="3" stroke-miterlimit="10" strokeLinecap="round" strokeLinejoin="round"/>
<path d="M64.1353 38.1242C64.1353 45.2394 58.3741 51.0008 51.2589 51.0008C44.1438 51.0008 38.375 45.2394 38.375 38.1242C38.375 31.0091 44.1438 25.2402 51.2589 25.2402C58.3733 25.2402 64.1353 31.0091 64.1353 38.1242Z" stroke="#402318" stroke-width="3" stroke-miterlimit="10" strokeLinecap="round" strokeLinejoin="round"/>
<path d="M84.5597 28.9477C79.6107 28.9477 75.6094 24.9388 75.6094 19.998" stroke="#402318" stroke-width="3" stroke-miterlimit="10" strokeLinecap="round" strokeLinejoin="round"/>
<path d="M17.8906 28.9477C22.8313 28.9477 26.8402 24.9388 26.8402 19.998" stroke="#402318" stroke-width="3" stroke-miterlimit="10" strokeLinecap="round" strokeLinejoin="round"/>
<path d="M17.8906 47.2988C22.8313 47.2988 26.8402 51.3077 26.8402 56.2492" stroke="#402318" stroke-width="3" stroke-miterlimit="10" strokeLinecap="round" strokeLinejoin="round"/>
<path d="M84.5597 47.2988C79.6107 47.2988 75.6094 51.3077 75.6094 56.2492" stroke="#402318" stroke-width="3" stroke-miterlimit="10" strokeLinecap="round" strokeLinejoin="round"/>
<path d="M24.4852 54.9418L18.1809 57.1921C17.0053 57.6126 15.7169 57.0011 15.2972 55.8263L13.0469 49.5211C17.7003 47.8597 22.8238 50.2876 24.4852 54.9418Z" fill="#B1E35F"/>
<path d="M75.8914 27.084L78.1418 33.3891C78.5622 34.5647 77.9432 35.8554 76.7752 36.2728L70.4144 38.5442C68.753 33.89 71.1741 28.768 75.8343 27.1051L75.8914 27.084Z" fill="#B1E35F"/>
<path d="M67.4717 3.49788L69.7221 9.80224L69.6649 9.8218C65.0047 11.4863 59.888 9.05614 58.2266 4.4027L64.5873 2.13124C65.7561 1.71456 67.0513 2.3223 67.4717 3.49788Z" fill="#B1E35F"/>
<path d="M37.0561 17.5267C43.7568 15.1341 51.1217 18.6308 53.5142 25.3315C55.9067 32.0323 52.4176 39.3949 45.7169 41.7874C39.0162 44.18 31.6461 40.6938 29.2536 33.9923C26.861 27.2923 30.3547 19.9192 37.0561 17.5267Z" fill="#B1E35F"/>
<path d="M38.7214 21.627C39.1621 21.4683 39.6375 21.6932 39.7954 22.1355L39.9391 22.5408C41.071 22.2813 42.115 22.3032 43.1514 22.5333C43.5041 22.595 43.8599 22.777 44.0179 23.2193C44.2217 23.7894 43.9193 24.3949 43.3477 24.5987C43.1642 24.6649 42.9604 24.6769 42.737 24.631C41.9563 24.4738 41.232 24.4227 40.5536 24.4971L41.8141 28.0299C44.861 27.7305 46.457 28.4263 47.1587 30.3938C47.8815 32.4178 46.7789 34.326 44.5218 35.3797L44.9151 36.4846C45.0731 36.9254 44.8474 37.4 44.4067 37.5587C43.9652 37.7159 43.4726 37.497 43.3146 37.0562L42.9077 35.9145C41.4749 36.2612 40.0286 36.2168 38.6243 35.8265C38.2385 35.7355 37.9504 35.5068 37.812 35.1202C37.609 34.5501 37.8925 33.9499 38.4626 33.7469C38.683 33.6686 38.9312 33.6641 39.1418 33.7333C40.2294 34.0507 41.2275 34.1711 42.3045 33.9951L41.0108 30.3713C38.0761 30.63 36.4627 30.0659 35.7211 27.987C35.0179 26.0187 36.0957 24.0985 38.3303 23.0937L38.1919 22.7071C38.0369 22.2641 38.2799 21.7834 38.7214 21.627ZM40.2241 28.1615L39.0621 24.9055C37.9241 25.4365 37.5586 26.2714 37.8474 27.0815C38.1242 27.8539 38.6447 28.2082 40.2241 28.1615ZM42.5911 30.1998L43.7862 33.5475C44.9174 32.9992 45.3514 32.1817 45.0362 31.2972C44.7474 30.4879 44.1653 30.1359 42.5911 30.1998Z" fill="#402318"/>
<path d="M5.99846 23.0492L12.3028 20.7988C13.9635 25.453 11.5356 30.5758 6.88296 32.2365L4.63261 25.9329C4.21292 24.7566 4.82214 23.4697 5.99846 23.0492Z" fill="#B1E35F"/>
<path d="M69.7275 9.80189L75.8972 27.0851L75.84 27.1054C71.1799 28.7684 68.7588 33.8912 70.4202 38.5446L24.4908 54.9403C22.8294 50.2862 17.7059 47.8583 13.0525 49.5197L6.88281 32.2357C11.5362 30.575 13.9633 25.4515 12.3026 20.7981L58.2312 4.40234C59.8927 9.05654 65.0094 11.4859 69.6696 9.82144L69.7275 9.80189ZM53.5162 25.3319C51.1237 18.6312 43.7588 15.1345 37.0581 17.527C30.3574 19.9196 26.8631 27.292 29.2556 33.9927C31.6481 40.6942 39.0174 44.1803 45.7189 41.7878C52.4196 39.396 55.9087 32.0327 53.5162 25.3319Z" fill="#64C753"/>
<path d="M75.8973 27.0851L78.1476 33.3902C78.5681 34.5658 77.9491 35.8565 76.781 36.2739L70.4203 38.5454L24.4909 54.9411L18.1866 57.1915C17.011 57.6119 15.7226 57.0004 15.3029 55.8256L13.0526 49.5205L6.88289 32.2365L4.63252 25.9329C4.21284 24.7565 4.82281 23.4696 5.99838 23.0492L12.3027 20.7988L58.2313 4.40308L64.5921 2.13163C65.7609 1.7142 67.056 2.32193 67.4765 3.49751L69.7268 9.80187L75.8973 27.0851Z" stroke="#402318" stroke-width="3" stroke-miterlimit="10" strokeLinecap="round" strokeLinejoin="round"/>
<path d="M53.5141 25.3312C55.9066 32.032 52.4175 39.3946 45.7168 41.7871C39.0161 44.1797 31.646 40.6935 29.2535 33.992C26.861 27.292 30.3553 19.9189 37.056 17.5264C43.7575 15.1346 51.1223 18.6305 53.5141 25.3312Z" stroke="#402318" stroke-width="3" stroke-miterlimit="10" strokeLinecap="round" strokeLinejoin="round"/>
<path d="M69.6727 9.82145C65.0125 11.4859 59.8958 9.05578 58.2344 4.40234" stroke="#402318" stroke-width="3" stroke-miterlimit="10" strokeLinecap="round" strokeLinejoin="round"/>
<path d="M6.88281 32.2345C11.5362 30.5738 13.9633 25.4503 12.3026 20.7969" stroke="#402318" stroke-width="3" stroke-miterlimit="10" strokeLinecap="round" strokeLinejoin="round"/>
<path d="M13.0547 49.5191C17.7081 47.8576 22.8316 50.2863 24.493 54.9397" stroke="#402318" stroke-width="3" stroke-miterlimit="10" strokeLinecap="round" strokeLinejoin="round"/>
<path d="M75.8421 27.1074C71.1819 28.7704 68.7608 33.8931 70.4223 38.5466" stroke="#402318" stroke-width="3" stroke-miterlimit="10" strokeLinecap="round" strokeLinejoin="round"/>
</svg>
