<svg width="46" height="61" viewBox="0 0 46 61" fill="none" xmlns="http://www.w3.org/2000/svg">
<path d="M16.1671 16.9256C14.1417 13.9956 12.2316 10.554 11.6015 6.35862C11.3409 4.62332 11.5781 2.61992 13.6642 1.55639C14.9705 0.889654 16.6548 1.06944 18.0053 1.68318C19.3558 2.29691 20.5492 3.18696 22.0114 3.5724C23.8495 4.05559 25.8233 3.67332 27.734 3.48156C29.644 3.28915 31.8045 3.36484 33.1732 4.51355C34.5818 5.69755 34.6575 7.60819 34.32 9.2678C33.7504 12.0691 32.0145 15.3631 30.6482 17.0101L16.1671 16.9256Z" fill="#FFDD55"/>
<path d="M32.3714 19.7496C39.2791 25.288 45.1795 32.4705 45.1795 43.8928C45.1795 58.0742 35.2509 59.8696 23.0035 59.8696C10.7561 59.8696 0.828125 58.0742 0.828125 43.8928C0.828125 32.4963 7.61478 25.1883 14.1605 19.6985L23.0039 17.959L32.3714 19.7496Z" fill="#FFDD55"/>
<path d="M33.5625 18.7009C33.4476 19.3714 32.8226 19.8306 32.1485 19.7388C30.3749 19.4975 26.854 19.0974 23.0014 19.0974C19.1488 19.0974 15.6279 19.4975 13.8543 19.7388C13.1801 19.8306 12.555 19.3715 12.4402 18.7008C12.3197 17.997 12.8061 17.3339 13.5135 17.2368C15.3588 16.9837 18.9678 16.5742 23.0013 16.5742C27.0348 16.5742 30.6438 16.9837 32.489 17.2368C33.1966 17.3338 33.683 17.9971 33.5625 18.7009Z" fill="#A57D67"/>
<path d="M44.7552 35.9104C44.1115 33.6065 43.1527 31.3794 41.9054 29.291C39.9312 25.9854 37.2677 22.9867 33.5678 19.9134C33.8826 19.6371 34.1077 19.2544 34.1842 18.8074C34.2716 18.2972 34.1513 17.7862 33.8453 17.3687C33.5393 16.951 33.088 16.6823 32.5748 16.6119C32.3475 16.5807 32.0913 16.5469 31.8092 16.5116C33.063 14.6874 34.4307 11.8879 34.9379 9.39374C35.4174 7.03575 34.9474 5.18129 33.5785 4.03063C32.3102 2.9663 30.3779 2.58155 27.6707 2.8542C27.3266 2.8887 26.977 2.92973 26.6389 2.96943C25.0598 3.15468 23.5683 3.32975 22.1719 2.9627C21.3074 2.73483 20.5344 2.30932 19.716 1.85883C19.2511 1.60298 18.7705 1.33844 18.266 1.10914C16.5724 0.339471 14.7447 0.296803 13.3774 0.994655C11.4211 1.99209 10.5912 3.87935 10.9775 6.45254C11.5965 10.5736 13.3904 13.8829 15.0564 16.4089C14.4191 16.4809 13.869 16.5514 13.4279 16.6118C12.9148 16.6822 12.4636 16.951 12.1575 17.3686C11.8516 17.786 11.7312 18.2969 11.8185 18.8072C11.9154 19.3731 12.25 19.8361 12.7038 20.1102C11.2465 21.3763 9.9804 22.5768 8.85693 23.7569C7.12199 25.5793 5.69879 27.3731 4.50598 29.2407C3.14605 31.3702 2.09647 33.6069 1.38648 35.8888C0.596078 38.429 0.195312 41.1218 0.195312 43.8924C0.195312 50.677 2.4262 55.21 7.01551 57.7507C8.95689 58.8254 11.3324 59.5583 14.278 59.9912C16.6401 60.3383 19.412 60.5 23.0015 60.5C26.591 60.5 29.363 60.3383 31.7251 59.9912C34.6707 59.5583 37.0464 58.8254 38.9878 57.7507C43.5773 55.21 45.8083 50.677 45.8083 43.8924C45.8083 41.0971 45.454 38.4115 44.7552 35.9104ZM12.225 6.26528C11.9185 4.22324 12.4828 2.86692 13.9507 2.11856C14.9637 1.6015 16.4174 1.65482 17.744 2.25774C18.2045 2.467 18.6432 2.70849 19.1077 2.96413C19.9571 3.43168 20.8354 3.91513 21.8508 4.1828C23.4784 4.6106 25.16 4.41326 26.7859 4.2225C27.1189 4.18344 27.4631 4.14299 27.7969 4.10955C30.1151 3.87591 31.7874 4.17464 32.7671 4.99679C33.4596 5.57888 34.1839 6.77062 33.7017 9.14245C33.1903 11.657 31.6508 14.6862 30.3708 16.3462C28.4224 16.1414 25.8124 15.9435 23.0015 15.9435C20.5789 15.9435 18.3058 16.0905 16.4767 16.2622C14.7895 13.7841 12.8536 10.4501 12.225 6.26528ZM13.1751 18.1145C13.2773 17.9751 13.4279 17.8853 13.5994 17.8618C14.2551 17.7719 15.1551 17.6596 16.229 17.5535C16.2324 17.5531 16.2358 17.5528 16.2392 17.5525C18.0925 17.3695 20.4637 17.2051 23.0015 17.2051C27.0157 17.2051 30.6152 17.6165 32.4034 17.8618C32.5748 17.8853 32.7255 17.9751 32.8277 18.1145C32.9298 18.2538 32.9699 18.4242 32.9408 18.5945C32.8829 18.9319 32.5721 19.16 32.2336 19.1139C30.4576 18.8722 26.8968 18.4667 23.0015 18.4667C19.1062 18.4667 15.5453 18.8722 13.7693 19.1139C13.4303 19.1599 13.1197 18.9318 13.062 18.5945C13.0329 18.4241 13.073 18.2537 13.1751 18.1145ZM42.8749 52.0811C41.8579 54.0409 40.3866 55.5344 38.3768 56.647C36.0619 57.9285 32.4249 59.2386 23.0015 59.2386C17.7135 59.2386 11.7516 58.9307 7.62655 56.6471C5.61684 55.5345 4.14555 54.041 3.12867 52.0811C2.0194 49.9433 1.45692 47.1882 1.45692 43.8925C1.45692 38.8232 2.80211 34.2528 5.56929 29.9199C8.19989 25.8009 11.6628 22.6236 14.423 20.3001C16.2823 20.0615 19.5058 19.7282 23.0016 19.7282C26.8225 19.7282 30.3193 20.1265 32.0635 20.3639C32.0876 20.3672 32.1114 20.3689 32.1354 20.3712C36.051 23.5326 38.815 26.5765 40.8224 29.9378C43.3285 34.1342 44.5469 38.6987 44.5469 43.8924C44.5468 47.1882 43.9843 49.9432 42.8749 52.0811Z" fill="black"/>
<path d="M17.7764 43.6093C18.4254 43.5617 19.0291 43.9369 19.2792 44.5376C19.3582 44.7272 19.4626 44.9169 19.6004 45.0806C19.9596 45.5072 20.3889 45.8736 20.9923 46.1373C21.221 46.2374 21.4695 46.3195 21.7362 46.3835V40.6593C20.0365 40.2346 18.7938 39.6476 17.944 38.8687C16.9729 37.9784 16.4805 36.7835 16.4805 35.3172V35.2921C16.4805 34.2068 16.7838 33.2325 17.3818 32.3964C17.9611 31.5863 18.7682 30.9494 19.7806 30.5034C20.3771 30.2406 21.0319 30.0572 21.7362 29.9549V29.196C21.7362 28.4114 22.3722 27.7754 23.1567 27.7754C23.9413 27.7754 24.5773 28.4114 24.5773 29.196V29.9757C25.2271 30.0847 25.8395 30.2692 26.4064 30.5273C27.4046 30.982 28.2229 31.624 28.839 32.4355C29.0437 32.7051 29.2203 32.9892 29.3681 33.2867C29.8436 34.2435 29.1741 35.3755 28.1079 35.4449L28.0975 35.4456C27.4808 35.4857 26.9119 35.1406 26.6379 34.5866C26.5634 34.4357 26.4731 34.292 26.3668 34.1544C26.0438 33.7365 25.6223 33.4161 25.0779 33.1747C24.9191 33.1044 24.752 33.0438 24.5773 32.9931V38.2468L24.5957 38.2511C26.4965 38.6961 27.8577 39.2992 28.7572 40.0948C29.7457 40.9693 30.2469 42.1852 30.2469 43.7086V43.7212C30.2469 44.9124 29.9301 45.9651 29.3053 46.85C28.6941 47.716 27.8443 48.3858 26.7794 48.8407C26.1159 49.1243 25.3782 49.3164 24.5773 49.415V50.1559C24.5773 50.9405 23.9413 51.5765 23.1567 51.5765C22.3722 51.5765 21.7362 50.9405 21.7362 50.1559V49.3802C21.0263 49.2714 20.3614 49.0841 19.7503 48.8204C18.6761 48.3574 17.8016 47.6836 17.1514 46.8182C16.8913 46.4723 16.6746 46.1019 16.5019 45.7089C16.0851 44.7603 16.7431 43.6852 17.7764 43.6093ZM24.5774 46.4459C24.9477 46.3799 25.2808 46.2829 25.5735 46.1556C26.1344 45.9118 26.5406 45.5941 26.8158 45.1844C27.0861 44.7817 27.2176 44.3154 27.2176 43.7589V43.7463C27.2176 43.0923 27.0388 42.626 26.6547 42.2793C26.3785 42.0299 25.7972 41.6794 24.5774 41.3409V46.4459ZM21.7362 32.947C21.4945 33.0046 21.27 33.0789 21.0634 33.1697C20.5375 33.401 20.1511 33.6965 19.8822 34.073C19.6316 34.4236 19.5099 34.8142 19.5099 35.267V35.2921C19.5099 35.9081 19.6893 36.3607 20.0748 36.7164C20.3214 36.9442 20.8025 37.2517 21.7362 37.5479V32.947Z" fill="#6D3600"/>
</svg>
