<svg width="61" height="60" viewBox="0 0 61 60" fill="none" xmlns="http://www.w3.org/2000/svg">
<g clip-path="url(#clip0_6774_39926)">
<path d="M49.6016 51.4805H34.5703V21.418H45.5933C47.8071 21.418 49.6017 23.2126 49.6017 25.4264L49.6016 51.4805Z" fill="#E5563C"/>
<path d="M59.6225 51.4823H34.5703V37.4531H55.6141C57.8279 37.4531 59.6225 39.2477 59.6225 41.4615V51.4823Z" fill="#E5563C"/>
<path d="M34.5689 37.4531H1.5V51.4823H34.5689V37.4531Z" fill="#E5563C"/>
<path d="M4.50621 37.4531H1.5V51.4823H4.50621V37.4531Z" fill="#CF442B"/>
<path d="M49.5985 55.4899C52.9191 55.4899 55.611 52.798 55.611 49.4774C55.611 46.1568 52.9191 43.4648 49.5985 43.4648C46.2778 43.4648 43.5859 46.1568 43.5859 49.4774C43.5859 52.798 46.2778 55.4899 49.5985 55.4899Z" fill="#74757B"/>
<path d="M49.6 52.4851C51.2602 52.4851 52.6062 51.1392 52.6062 49.4789C52.6062 47.8186 51.2602 46.4727 49.6 46.4727C47.9397 46.4727 46.5938 47.8186 46.5938 49.4789C46.5938 51.1392 47.9397 52.4851 49.6 52.4851Z" fill="#D7D8D9"/>
<path d="M11.5204 55.4899C14.841 55.4899 17.5329 52.798 17.5329 49.4774C17.5329 46.1568 14.841 43.4648 11.5204 43.4648C8.19972 43.4648 5.50781 46.1568 5.50781 49.4774C5.50781 52.798 8.19972 55.4899 11.5204 55.4899Z" fill="#74757B"/>
<path d="M11.5218 52.4851C13.1821 52.4851 14.528 51.1392 14.528 49.4789C14.528 47.8186 13.1821 46.4727 11.5218 46.4727C9.86155 46.4727 8.51562 47.8186 8.51562 49.4789C8.51562 51.1392 9.86155 52.4851 11.5218 52.4851Z" fill="#D7D8D9"/>
<path d="M11.5218 52.4851C13.1821 52.4851 14.528 51.1392 14.528 49.4789C14.528 47.8186 13.1821 46.4727 11.5218 46.4727C9.86155 46.4727 8.51562 47.8186 8.51562 49.4789C8.51562 51.1392 9.86155 52.4851 11.5218 52.4851Z" fill="#D7D8D9"/>
<path d="M46.5969 34.4466H37.5781V24.4258H44.5927C45.6997 24.4258 46.5969 25.323 46.5969 26.4299V34.4466Z" fill="#D7D8D9"/>
<path d="M45.5291 24.6602L37.5781 32.6111V34.4482H39.2483L46.597 27.0995V26.4316C46.5969 25.6632 46.1639 24.9965 45.5291 24.6602Z" fill="#9B9DA1"/>
<path d="M37.5781 24.4258V31.023L44.1753 24.4258H37.5781Z" fill="#9B9DA1"/>
<path d="M46.5959 34.4475V30.8984L43.0469 34.4475H46.5959Z" fill="#9B9DA1"/>
<path d="M34.5689 4.38281H1.5V37.4517H34.5689V4.38281Z" fill="#FDDD85"/>
<path d="M4.50621 4.38281H1.5V37.4517H4.50621V4.38281Z" fill="#FDD042"/>
<path d="M23.5443 17.41L18.5339 14.4037L13.5234 17.41V4.38281H23.5443V17.41Z" fill="#F2C127"/>
<path d="M16.5296 4.38281H13.5234V17.41L16.5296 15.6062V4.38281Z" fill="#E1A527"/>
<path d="M29.5615 21.418H7.51562V25.4264H29.5615V21.418Z" fill="#EBEBEC"/>
<path d="M10.5218 21.418H7.51562V25.4264H10.5218V21.418Z" fill="#D7D8D9"/>
<path d="M55.6148 36.5767H50.4791V25.4284C50.4791 22.7002 48.3221 20.5432 45.5939 20.5432H35.4478V14.4054C35.4478 13.8866 35.0273 13.4659 34.5083 13.4659C33.9893 13.4659 33.5688 13.8865 33.5688 14.4054V36.5766H2.37887V5.38668H12.525V17.4118C12.525 18.1278 13.3638 18.5863 13.9791 18.2173L18.5218 15.501L23.0254 18.2173C23.6412 18.5867 24.4248 18.127 24.4248 17.4118V5.38668H33.5688V10.3971C33.5688 10.9159 33.9893 11.3366 34.5083 11.3366C35.0273 11.3366 35.4478 10.9161 35.4478 10.3971V4.38461C35.4478 3.86582 35.0899 3.50781 34.571 3.50781H1.50207C0.983281 3.50781 0.5 3.86582 0.5 4.38461V51.4827C0.5 52.0015 0.983281 52.4848 1.50207 52.4848H5.22699C6.33746 54.7395 8.74145 56.4932 11.523 56.4932C14.3046 56.4932 16.7086 54.7395 17.819 52.4848H43.3063C44.4167 54.7395 46.8207 56.4932 49.6023 56.4932C52.3838 56.4932 54.7878 54.7395 55.8983 52.4848H59.6233C60.1422 52.4848 60.5001 52.0015 60.5001 51.4827V41.4619C60.5 38.7337 58.343 36.5767 55.6148 36.5767ZM22.5459 5.38668V15.7524L18.9896 13.5998C18.695 13.423 18.3018 13.423 18.0072 13.5998L14.4039 15.7524V5.38668H22.5459ZM45.594 22.4222C47.2863 22.4222 48.6002 23.7364 48.6002 25.4284V36.5767H35.4478V22.4222H45.594ZM11.523 54.5516C8.72563 54.5516 6.44996 52.2759 6.44996 49.4786C6.44996 46.6813 8.72574 44.4056 11.523 44.4056C14.3203 44.4056 16.5961 46.6813 16.5961 49.4786C16.5961 52.2759 14.3203 54.5516 11.523 54.5516ZM11.523 42.5266C7.68969 42.5266 4.57098 45.6765 4.57098 49.5099C4.57098 49.8719 4.59887 50.2301 4.65254 50.6059H2.37887V38.4556H33.5688V50.6059H18.3934C18.4469 50.2301 18.4749 49.8719 18.4749 49.5099C18.4749 45.6766 15.3563 42.5266 11.523 42.5266ZM49.6023 54.5516C46.8049 54.5516 44.5292 52.2759 44.5292 49.4786C44.5292 46.6813 46.805 44.4056 49.6023 44.4056C52.3997 44.4056 54.6753 46.6813 54.6753 49.4786C54.6753 52.2759 52.3997 54.5516 49.6023 54.5516ZM58.6211 50.6059H56.4727C56.5264 50.2301 56.5543 49.8719 56.5543 49.5099C56.5543 45.6766 53.4357 42.5423 49.6023 42.5423C45.7688 42.5423 42.6502 45.6843 42.6502 49.5179C42.6502 49.8798 42.6781 50.2304 42.7318 50.6062H35.4478V38.4557H55.6148C57.3071 38.4557 58.621 39.7698 58.621 41.4619V50.6059H58.6211Z" fill="black"/>
<path d="M49.602 45.5312C47.4263 45.5312 45.6562 47.3014 45.6562 49.477C45.6562 51.6525 47.4264 53.4227 49.602 53.4227C51.7777 53.4227 53.5477 51.6525 53.5477 49.477C53.5477 47.3014 51.7777 45.5312 49.602 45.5312ZM49.602 51.5438C48.4623 51.5438 47.5351 50.6166 47.5351 49.477C47.5351 48.3373 48.4623 47.4101 49.602 47.4101C50.7416 47.4101 51.6688 48.3373 51.6688 49.477C51.6688 50.6166 50.7416 51.5438 49.602 51.5438Z" fill="black"/>
<path d="M11.5238 45.5312C9.34813 45.5312 7.57812 47.3014 7.57812 49.477C7.57812 51.6525 9.34824 53.4227 11.5238 53.4227C13.6994 53.4227 15.4695 51.6525 15.4695 49.477C15.4695 47.3014 13.6994 45.5312 11.5238 45.5312ZM11.5238 51.5438C10.3842 51.5438 9.45699 50.6166 9.45699 49.477C9.45699 48.3373 10.3842 47.4101 11.5238 47.4101C12.6635 47.4101 13.5907 48.3373 13.5907 49.477C13.5907 50.6166 12.6634 51.5438 11.5238 51.5438Z" fill="black"/>
<path d="M39.5843 39.582H37.5801C37.0612 39.582 36.6406 40.0026 36.6406 40.5215C36.6406 41.0403 37.0611 41.461 37.5801 41.461H39.5843C40.1032 41.461 40.5237 41.0404 40.5237 40.5215C40.5236 40.0027 40.1032 39.582 39.5843 39.582Z" fill="black"/>
<path d="M37.5803 35.4506H46.5991C47.118 35.4506 47.4759 34.9673 47.4759 34.4485V26.4318C47.4759 24.8087 46.218 23.5508 44.5948 23.5508H37.5802C37.0613 23.5508 36.5781 23.9088 36.5781 24.4276V34.4484C36.5782 34.9673 37.0614 35.4506 37.5803 35.4506ZM38.4572 25.4296H44.595C45.1821 25.4296 45.5971 25.8446 45.5971 26.4317V33.5716H38.4572V25.4296Z" fill="black"/>
<path d="M4.50781 31.4395V34.4457C4.50781 34.9645 4.9284 35.3852 5.4473 35.3852C5.96621 35.3852 6.3868 34.9646 6.3868 34.4457V31.4395C6.3868 30.9207 5.96621 30.5 5.4473 30.5C4.9284 30.5 4.50781 30.9207 4.50781 31.4395Z" fill="black"/>
<path d="M7.51562 31.4395V34.4457C7.51562 34.9645 7.93621 35.3852 8.45512 35.3852C8.97402 35.3852 9.39461 34.9646 9.39461 34.4457V31.4395C9.39461 30.9207 8.97402 30.5 8.45512 30.5C7.93621 30.5 7.51562 30.9207 7.51562 31.4395Z" fill="black"/>
<path d="M26.5547 31.4395V34.4457C26.5547 34.9645 26.9753 35.3852 27.4942 35.3852C28.0131 35.3852 28.4337 34.9646 28.4337 34.4457V31.4395C28.4337 30.9207 28.0131 30.5 27.4942 30.5C26.9753 30.5 26.5547 30.9207 26.5547 31.4395Z" fill="black"/>
<path d="M30.502 35.3852C31.0209 35.3852 31.4415 34.9646 31.4415 34.4457V31.4395C31.4415 30.9207 31.021 30.5 30.502 30.5C29.9832 30.5 29.5625 30.9206 29.5625 31.4395V34.4457C29.5625 34.9646 29.9832 35.3852 30.502 35.3852Z" fill="black"/>
<path d="M12.5234 31.4395V34.4457C12.5234 34.9645 12.944 35.3852 13.4629 35.3852C13.9817 35.3852 14.4024 34.9646 14.4024 34.4457V31.4395C14.4024 30.9207 13.9818 30.5 13.4629 30.5C12.944 30.5001 12.5234 30.9207 12.5234 31.4395Z" fill="black"/>
<path d="M15.5312 31.4395V34.4457C15.5312 34.9645 15.9518 35.3852 16.4707 35.3852C16.9895 35.3852 17.4102 34.9646 17.4102 34.4457V31.4395C17.4102 30.9207 16.9896 30.5 16.4707 30.5C15.952 30.5001 15.5312 30.9207 15.5312 31.4395Z" fill="black"/>
<path d="M18.5391 31.4395V34.4457C18.5391 34.9645 18.9596 35.3852 19.4786 35.3852C19.9975 35.3852 20.418 34.9646 20.418 34.4457V31.4395C20.418 30.9207 19.9975 30.5 19.4786 30.5C18.9596 30.5 18.5391 30.9207 18.5391 31.4395Z" fill="black"/>
<path d="M21.5469 31.4395V34.4457C21.5469 34.9645 21.9675 35.3852 22.4864 35.3852C23.0053 35.3852 23.4259 34.9646 23.4259 34.4457V31.4395C23.4259 30.9207 23.0053 30.5 22.4864 30.5C21.9675 30.5 21.5469 30.9207 21.5469 31.4395Z" fill="black"/>
<path d="M30.4405 21.4825C30.4405 20.9637 30.0199 20.543 29.501 20.543H7.45512C6.93633 20.543 6.51562 20.9636 6.51562 21.4825V25.4909C6.51562 26.0096 6.93621 26.4304 7.45512 26.4304H29.501C30.0198 26.4304 30.4405 26.0098 30.4405 25.4909V21.4825ZM28.5615 24.5514H8.39449V22.422H28.5615V24.5514Z" fill="black"/>
</g>
<defs>
<clipPath id="clip0_6774_39926">
<rect width="60" height="60" fill="white" transform="translate(0.5)"/>
</clipPath>
</defs>
</svg>
