<svg width="67" height="61" viewBox="0 0 67 61" fill="none" xmlns="http://www.w3.org/2000/svg">
<path fill-rule="evenodd" clip-rule="evenodd" d="M3.03933 27.1942C4.57494 27.1522 6.00658 27.0357 7.02186 26.7118C7.74877 26.4798 8.2363 26.0292 8.2363 25.1438V9.00897C8.2363 3.88409 11.253 0.5 16.4837 0.5H20.189C21.7195 0.5 22.9682 1.74865 22.9682 3.27918V4.28614C22.9682 5.81714 21.7195 7.06531 20.189 7.06531H16.4837C15.0761 7.06531 14.8016 7.3144 14.8016 9.00852V25.1434C14.8016 27.4951 14.1546 29.2262 13.034 30.5002C14.1542 31.7743 14.8011 33.5049 14.8011 35.8566V51.9915C14.8011 53.6852 15.0752 53.9347 16.4833 53.9347H20.189C21.7195 53.9347 22.9682 55.1833 22.9682 56.7139V57.7208C22.9682 59.2514 21.7195 60.5 20.189 60.5H16.4833C11.2525 60.5 8.23584 57.1159 8.23584 51.9915V35.8566C8.23584 34.9712 7.74877 34.5207 7.02139 34.2887C6.00658 33.9647 4.57448 33.8483 3.03933 33.8062C1.53559 33.7651 0.335938 32.5322 0.335938 31.028V29.972C0.335938 28.4683 1.53606 27.2354 3.03933 27.1942Z" fill="#00A7FF"/>
<path fill-rule="evenodd" clip-rule="evenodd" d="M63.9684 27.1942C62.4332 27.1522 61.0011 27.0357 59.9858 26.7118C59.2589 26.4798 58.7714 26.0292 58.7714 25.1438V9.00897C58.7714 3.88409 55.7547 0.5 50.524 0.5H46.8187C45.2882 0.5 44.0395 1.74865 44.0395 3.27918V4.28614C44.0395 5.81714 45.2882 7.06531 46.8187 7.06531H50.524C51.9316 7.06531 52.2061 7.3144 52.2061 9.00852V25.1434C52.2061 27.4951 52.853 29.2262 53.9737 30.5002C52.853 31.7743 52.2061 33.5049 52.2061 35.8566V51.9915C52.2061 53.6852 51.932 53.9347 50.524 53.9347H46.8182C45.2877 53.9347 44.0391 55.1833 44.0391 56.7139V57.7208C44.0391 59.2514 45.2877 60.5 46.8182 60.5H50.524C55.7547 60.5 58.7714 57.1159 58.7714 51.9915V35.8566C58.7714 34.9712 59.2589 34.5207 59.9858 34.2887C61.0011 33.9647 62.4332 33.8483 63.9679 33.8062C65.4716 33.7651 66.6713 32.5322 66.6713 31.028V29.972C66.6717 28.4683 65.4721 27.2354 63.9684 27.1942Z" fill="#00A7FF"/>
<path fill-rule="evenodd" clip-rule="evenodd" d="M22.9979 21.9746H44.0086C45.5391 21.9746 46.7878 23.2233 46.7878 24.7538V25.5454C46.7878 27.0764 45.5391 28.3246 44.0086 28.3246H22.9979C21.4669 28.3246 20.2188 27.0759 20.2188 25.5454V24.7538C20.2188 23.2233 21.4674 21.9746 22.9979 21.9746Z" fill="white"/>
<path fill-rule="evenodd" clip-rule="evenodd" d="M22.9979 32.6758H44.0086C45.5391 32.6758 46.7878 33.924 46.7878 35.455V36.2466C46.7878 37.7771 45.5391 39.0257 44.0086 39.0257H22.9979C21.4669 39.0257 20.2188 37.7771 20.2188 36.2466V35.455C20.2188 33.924 21.4674 32.6758 22.9979 32.6758Z" fill="white"/>
<path fill-rule="evenodd" clip-rule="evenodd" d="M33.5057 11.2754H44.0111C45.5416 11.2754 46.7902 12.524 46.7902 14.0546V14.8462C46.7902 16.3767 45.5416 17.6254 44.0111 17.6254H33.5057C31.9752 17.6254 30.7266 16.3767 30.7266 14.8462V14.0546C30.7266 12.5236 31.9752 11.2754 33.5057 11.2754Z" fill="white"/>
<path fill-rule="evenodd" clip-rule="evenodd" d="M22.9979 43.377H33.5033C35.0343 43.377 36.2824 44.6256 36.2824 46.1561V46.9477C36.2824 48.4783 35.0338 49.7269 33.5033 49.7269H22.9979C21.4674 49.7269 20.2188 48.4787 20.2188 46.9477V46.1561C20.2188 44.6256 21.4674 43.377 22.9979 43.377Z" fill="white"/>
</svg>
