<svg width="60" height="61" viewBox="0 0 60 61" fill="none" xmlns="http://www.w3.org/2000/svg">
<path d="M42.7338 8.16016H14.768C11.6644 8.16016 9.14844 10.6761 9.14844 13.7797V52.242C9.14844 55.3456 11.6644 57.8615 14.768 57.8615H42.7338C45.8374 57.8615 48.3533 55.3456 48.3533 52.242V13.7797C48.3533 10.6761 45.8374 8.16016 42.7338 8.16016Z" fill="#4D4C78"/>
<path d="M45.4297 52.6645V13.3542C45.4297 12.1015 44.4141 11.0859 43.1614 11.0859L14.3476 11.0859C13.0949 11.0859 12.0793 12.1015 12.0793 13.3542V52.6645C12.0793 53.9172 13.0949 54.9328 14.3476 54.9328H43.1614C44.4141 54.9328 45.4297 53.9172 45.4297 52.6645Z" fill="#C8C2E9"/>
<path d="M40.8225 52.4245C41.4241 52.4245 42.0011 52.1855 42.4264 51.7601C42.8518 51.3347 43.0908 50.7578 43.0908 50.1562V11.0859H43.1611C43.7626 11.0859 44.3396 11.3249 44.765 11.7503C45.1904 12.1757 45.4293 12.7526 45.4293 13.3542V52.6645C45.4293 53.2661 45.1904 53.843 44.765 54.2684C44.3396 54.6938 43.7626 54.9328 43.1611 54.9328H14.3464C13.7448 54.9328 13.1679 54.6938 12.7425 54.2684C12.3171 53.843 12.0781 53.2661 12.0781 52.6645V52.4245H40.8225Z" fill="#B9B1E0"/>
<path d="M40.8906 20.4637H17.4526C17.2973 20.4637 17.1484 20.402 17.0386 20.2923C16.9289 20.1825 16.8672 20.0336 16.8672 19.8783C16.8672 19.7231 16.9289 19.5742 17.0386 19.4644C17.1484 19.3546 17.2973 19.293 17.4526 19.293H40.8906C41.0459 19.293 41.1947 19.3546 41.3045 19.4644C41.4143 19.5742 41.476 19.7231 41.476 19.8783C41.476 20.0336 41.4143 20.1825 41.3045 20.2923C41.1947 20.402 41.0459 20.4637 40.8906 20.4637Z" fill="#4D4C78"/>
<path d="M33.4213 27.1942H17.4526C17.2973 27.1942 17.1484 27.1325 17.0386 27.0227C16.9289 26.9129 16.8672 26.7641 16.8672 26.6088C16.8672 26.4536 16.9289 26.3047 17.0386 26.1949C17.1484 26.0851 17.2973 26.0234 17.4526 26.0234H33.4213C33.5766 26.0234 33.7255 26.0851 33.8352 26.1949C33.945 26.3047 34.0067 26.4536 34.0067 26.6088C34.0067 26.7641 33.945 26.9129 33.8352 27.0227C33.7255 27.1325 33.5766 27.1942 33.4213 27.1942Z" fill="#4D4C78"/>
<path d="M35.4994 33.9168H17.4526C17.2973 33.9168 17.1484 33.8552 17.0386 33.7454C16.9289 33.6356 16.8672 33.4867 16.8672 33.3315C16.8672 33.1762 16.9289 33.0273 17.0386 32.9175C17.1484 32.8078 17.2973 32.7461 17.4526 32.7461H35.4994C35.6546 32.7461 35.8035 32.8078 35.9133 32.9175C36.0231 33.0273 36.0848 33.1762 36.0848 33.3315C36.0848 33.4867 36.0231 33.6356 35.9133 33.7454C35.8035 33.8552 35.6546 33.9168 35.4994 33.9168Z" fill="#4D4C78"/>
<path d="M27.3833 40.6473H17.4526C17.2973 40.6473 17.1484 40.5856 17.0386 40.4758C16.9289 40.3661 16.8672 40.2172 16.8672 40.0619C16.8672 39.9067 16.9289 39.7578 17.0386 39.648C17.1484 39.5382 17.2973 39.4766 17.4526 39.4766H27.3833C27.5385 39.4766 27.6874 39.5382 27.7972 39.648C27.907 39.7578 27.9687 39.9067 27.9687 40.0619C27.9687 40.2172 27.907 40.3661 27.7972 40.4758C27.6874 40.5856 27.5385 40.6473 27.3833 40.6473Z" fill="#4D4C78"/>
<path opacity="0.2" d="M48.3558 24.0172L47.3284 25.0445C47.2409 24.9915 47.1432 24.9576 47.0416 24.945C47.0121 24.8579 46.9631 24.7788 46.8982 24.7137L45.4114 23.2269C45.3543 23.1698 45.2865 23.1246 45.212 23.0937C45.1374 23.0628 45.0575 23.0469 44.9767 23.0469C44.896 23.0469 44.8161 23.0628 44.7415 23.0937C44.6669 23.1246 44.5992 23.1698 44.5421 23.2269L36.7626 31.0064C36.7057 31.0633 36.6606 31.1308 36.6298 31.2052C36.599 31.2795 36.5832 31.3592 36.5832 31.4396C36.5832 31.52 36.599 31.5997 36.6298 31.674C36.6606 31.7484 36.7057 31.8159 36.7626 31.8728C36.8195 31.9297 36.887 31.9748 36.9613 32.0056C37.0357 32.0364 37.1153 32.0522 37.1958 32.0522C37.2762 32.0522 37.3559 32.0364 37.4302 32.0056C37.5045 31.9748 37.5721 31.9297 37.6289 31.8728L44.9782 24.5264L46.0319 25.5801L39.4816 32.1274L38.905 32.7069L30.3411 41.2708L30.0426 41.5664C29.9393 41.6701 29.8713 41.8036 29.8482 41.9481C29.8251 42.0925 29.848 42.2406 29.9138 42.3713L28.0319 45.7547C27.827 46.1235 28.2309 46.5274 28.5967 46.3225L31.9831 44.4406C32.1142 44.5056 32.2623 44.5278 32.4067 44.5042C32.5511 44.4805 32.6844 44.4122 32.788 44.3089L41.3577 35.7391L42.227 34.8698L48.3558 28.7411V24.0172Z" fill="black"/>
<path d="M29.7081 41.5664L31.9413 43.7996L28.1335 45.9157C27.7823 46.1118 27.3959 45.7254 27.592 45.3742L29.7081 41.5664Z" fill="#4D4C78"/>
<path d="M50.7777 24.2543L49.2545 22.7311C49.1528 22.6293 48.9878 22.6293 48.8861 22.7311L45.9568 25.6604C45.8551 25.7621 45.8551 25.927 45.9568 26.0287L47.48 27.5519C47.5818 27.6537 47.7467 27.6537 47.8484 27.5519L50.7777 24.6227C50.8794 24.5209 50.8794 24.356 50.7777 24.2543Z" fill="#46A1F8"/>
<path d="M31.1844 43.9927L29.508 42.3164C29.3829 42.1912 29.3126 42.0215 29.3126 41.8445C29.3126 41.6675 29.3829 41.4978 29.508 41.3727L45.1892 25.6914C45.3155 25.5652 45.4867 25.4943 45.6652 25.4943C45.8438 25.4943 46.015 25.5652 46.1412 25.6914L47.8114 27.3616C47.9376 27.4878 48.0086 27.6591 48.0086 27.8376C48.0086 28.0161 47.9376 28.1874 47.8114 28.3136L32.1281 43.9969C32.003 44.122 31.8332 44.1923 31.6562 44.1923C31.4793 44.1923 31.3095 44.122 31.1844 43.9969L31.1844 43.9927Z" fill="#67BAEB"/>
<path d="M47.5385 27.082L32.1346 42.4859C32.0095 42.6107 31.8401 42.6807 31.6634 42.6807C31.4867 42.6807 31.3173 42.6107 31.1922 42.4859L29.7961 41.0898L29.5151 41.3737C29.3904 41.4988 29.3203 41.6683 29.3203 41.845C29.3203 42.0216 29.3904 42.1911 29.5151 42.3162L31.1922 43.9932C31.3173 44.118 31.4867 44.1881 31.6634 44.1881C31.8401 44.1881 32.0095 44.118 32.1346 43.9932L47.8166 28.3113C47.8793 28.249 47.9291 28.1749 47.9631 28.0933C47.9971 28.0117 48.0146 27.9241 48.0146 27.8357C48.0146 27.7473 47.9971 27.6597 47.9631 27.5781C47.9291 27.4965 47.8793 27.4224 47.8166 27.3601L47.5385 27.082Z" fill="#46A1F8"/>
<path d="M41.1431 34.9789L38.5236 32.3594L37.6953 33.1877L40.3148 35.8072L41.1431 34.9789Z" fill="#4D4C78"/>
<path d="M36.3425 32.2875C36.2268 32.2868 36.1139 32.252 36.018 32.1875C35.922 32.1229 35.8471 32.0316 35.8028 31.9248C35.7584 31.818 35.7466 31.7005 35.7686 31.5869C35.7907 31.4734 35.8457 31.3689 35.9269 31.2865L43.3581 23.8553C43.4124 23.8008 43.477 23.7577 43.5481 23.7282C43.6191 23.6988 43.6953 23.6836 43.7722 23.6836C43.8491 23.6836 43.9253 23.6988 43.9964 23.7282C44.0674 23.7577 44.132 23.8008 44.1864 23.8553L45.6059 25.2777C45.6645 25.3311 45.7118 25.3958 45.7447 25.4679C45.7776 25.5401 45.7955 25.6182 45.7973 25.6974C45.7991 25.7767 45.7848 25.8555 45.7552 25.9291C45.7256 26.0027 45.6814 26.0695 45.6252 26.1254C45.5691 26.1814 45.5021 26.2254 45.4284 26.2547C45.3547 26.284 45.2759 26.298 45.1966 26.2959C45.1173 26.2939 45.0393 26.2757 44.9673 26.2425C44.8953 26.2094 44.8307 26.1619 44.7776 26.1031L43.7737 25.0992L36.7551 32.1148C36.7011 32.1693 36.6369 32.2127 36.566 32.2423C36.4952 32.272 36.4192 32.2873 36.3425 32.2875Z" fill="#4D4C78"/>
<path d="M27.3833 46.7098H17.4526C17.2973 46.7098 17.1484 46.6481 17.0386 46.5383C16.9289 46.4286 16.8672 46.2797 16.8672 46.1244C16.8672 45.9692 16.9289 45.8203 17.0386 45.7105C17.1484 45.6007 17.2973 45.5391 17.4526 45.5391H27.3833C27.5385 45.5391 27.6874 45.6007 27.7972 45.7105C27.907 45.8203 27.9687 45.9692 27.9687 46.1244C27.9687 46.2797 27.907 46.4286 27.7972 46.5383C27.6874 46.6481 27.5385 46.7098 27.3833 46.7098Z" fill="#4D4C78"/>
<path opacity="0.2" d="M17.4375 8.16016V11.2977C17.4383 12.0737 17.7469 12.8177 18.2956 13.3664C18.8443 13.9152 19.5883 14.2238 20.3643 14.2245H37.1409C37.9167 14.223 38.6602 13.9141 39.2088 13.3656C39.7573 12.817 40.0662 12.0735 40.0677 11.2977V8.16016H17.4375Z" fill="black"/>
<path d="M20.3657 6.32754C22.6764 6.32924 24.9073 5.48249 26.635 3.94803C27.2183 3.42799 27.9725 3.14062 28.754 3.14062C29.5355 3.14062 30.2897 3.42799 30.873 3.94803C32.6001 5.48344 34.8314 6.33033 37.1423 6.32754C37.5459 6.32754 37.933 6.48789 38.2185 6.77331C38.5039 7.05873 38.6642 7.44584 38.6642 7.84949V11.2973C38.6642 11.7009 38.5039 12.0881 38.2185 12.3735C37.933 12.6589 37.5459 12.8192 37.1423 12.8192H20.3657C19.9621 12.8192 19.5749 12.6589 19.2895 12.3735C19.0041 12.0881 18.8438 11.7009 18.8438 11.2973V7.84949C18.8438 7.44584 19.0041 7.05873 19.2895 6.77331C19.5749 6.48789 19.9621 6.32754 20.3657 6.32754Z" fill="#67BAEB"/>
<path d="M30.355 3.6321C29.3951 3.63123 28.4686 3.98451 27.753 4.62429C25.6348 6.50719 22.8983 7.54573 20.0642 7.54234C19.6156 7.54199 19.182 7.70419 18.8438 7.99893V7.84966C18.8438 7.44601 19.0041 7.0589 19.2895 6.77348C19.5749 6.48805 19.9621 6.32771 20.3657 6.32771C22.6764 6.32941 24.9073 5.48266 26.635 3.94819C27.152 3.48751 27.805 3.20776 28.4952 3.15126C29.1854 3.09475 29.8752 3.26457 30.4603 3.63502L30.355 3.6321Z" fill="#83D0FB"/>
<path d="M35.3521 11.6384C35.7557 11.6384 36.1428 11.478 36.4283 11.1926C36.7137 10.9072 36.874 10.5201 36.874 10.1164V6.66861C36.8739 6.55131 36.8602 6.43443 36.8331 6.32031L37.1433 6.32617C37.5469 6.32617 37.9341 6.48651 38.2195 6.77194C38.5049 7.05736 38.6652 7.44447 38.6652 7.84812V11.2959C38.6652 11.6996 38.5049 12.0867 38.2195 12.3721C37.9341 12.6575 37.5469 12.8179 37.1433 12.8179H20.3667C20.0224 12.8181 19.6882 12.7016 19.4187 12.4873C19.1492 12.2731 18.9603 11.9738 18.8828 11.6384H35.3521Z" fill="#46A1F8"/>
<path d="M44.4376 28.2855C44.6879 28.0352 44.6879 27.6293 44.4376 27.379C44.1873 27.1287 43.7815 27.1287 43.5311 27.379L40.2343 30.6759C39.984 30.9262 39.984 31.332 40.2343 31.5823C40.4846 31.8327 40.8905 31.8327 41.1408 31.5823L44.4376 28.2855Z" fill="#83D0FB"/>
<path d="M37.3751 35.3441C37.6254 35.0938 37.6254 34.6879 37.3751 34.4376C37.1248 34.1873 36.719 34.1873 36.4686 34.4376L33.1718 37.7345C32.9215 37.9848 32.9215 38.3906 33.1718 38.6409C33.4221 38.8912 33.828 38.8912 34.0783 38.6409L37.3751 35.3441Z" fill="#83D0FB"/>
<path d="M14.1123 24.0654C14.1123 23.5029 13.6569 23.0469 13.0952 23.0469C12.5335 23.0469 12.0781 23.5029 12.0781 24.0654V36.1392C12.0781 36.7017 12.5335 37.1577 13.0952 37.1577C13.6569 37.1577 14.1123 36.7017 14.1123 36.1392V24.0654Z" fill="#DFDAFD"/>
<path d="M14.1123 39.9053C14.1123 39.3427 13.6569 38.8867 13.0952 38.8867C12.5335 38.8867 12.0781 39.3427 12.0781 39.9053V43.1695C12.0781 43.7321 12.5335 44.1881 13.0952 44.1881C13.6569 44.1881 14.1123 43.7321 14.1123 43.1695V39.9053Z" fill="#DFDAFD"/>
</svg>
