<svg width="49" height="61" viewBox="0 0 49 61" fill="none" xmlns="http://www.w3.org/2000/svg">
<path d="M2.04109 0.500106C1.68299 0.500106 1.33175 0.645349 1.07871 0.899129C0.82493 1.15249 0.679688 1.50342 0.679688 1.86183V42.5653C0.679688 42.9237 0.82493 43.2746 1.07871 43.528C1.33175 43.7817 1.68299 43.927 2.04109 43.927H16.0411V18.888C16.0411 18.6487 16.1387 18.4151 16.3071 18.2463C16.4756 18.0768 16.7103 17.9803 16.9496 17.9803H33.8702V1.86172C33.8702 1.50331 33.7256 1.15239 33.4719 0.899026C33.2182 0.645351 32.8683 0.5 32.5082 0.5H2.04109V0.500106ZM15.3052 35.0083H4.60137V32.2862H15.3052V35.0083ZM15.3052 28.8468H4.41583V26.1248H15.3052V28.8468ZM15.3052 22.6856H4.60137V19.9625H15.3052V22.6856ZM29.9491 16.5234H4.60137V13.8004H29.949V16.5234H29.9491ZM29.9491 10.3623H7.17609V7.6393H29.9491V10.3623Z" fill="#0088DB"/>
<path d="M29.9527 7.63867H7.17969V10.3617H29.9527V7.63867Z" fill="white"/>
<path d="M29.9492 13.8008H4.60156V16.5238H29.9492V13.8008Z" fill="white"/>
<path d="M15.3054 19.9629H4.60156V22.6859H15.3054V19.9629Z" fill="white"/>
<path d="M15.3034 26.125H4.41406V28.847H15.3034V26.125Z" fill="white"/>
<path d="M15.3054 32.2871H4.60156V35.0091H15.3054V32.2871Z" fill="white"/>
<path d="M17.8594 58.6847H46.5103V19.7969H17.8594V58.6847ZM22.0853 24.6663H44.8591V27.3889H22.0853V24.6663ZM19.5119 30.8284H44.8589V33.5511H19.5119V30.8284ZM19.5119 36.9906H44.8589V39.7125H19.5119V36.9906ZM19.5119 43.1518H44.8589V45.8748H19.5119V43.1518ZM19.5119 49.3139H38.559V52.0359H19.5119V49.3139Z" fill="white"/>
<path d="M33.8681 17.9805H16.9475C16.7082 17.9805 16.4735 18.077 16.3051 18.2465C16.1366 18.4153 16.0391 18.6489 16.0391 18.8882V43.9271V59.5924C16.0391 59.8311 16.1366 60.0653 16.3051 60.2341C16.4735 60.4036 16.7082 60.5001 16.9475 60.5001H47.414C47.6534 60.5001 47.8873 60.4036 48.0572 60.2341C48.2264 60.0653 48.3218 59.8311 48.3218 59.5924V18.8882C48.3218 18.6492 48.2264 18.4153 48.0572 18.2465C47.8874 18.077 47.6534 17.9805 47.414 17.9805H33.8681ZM46.5061 58.6842H17.8553V19.7964H46.5062L46.5061 58.6842Z" fill="white"/>
<path d="M44.8597 24.666H22.0859V27.3886H44.8597V24.666Z" fill="#00A7FF"/>
<path d="M44.855 30.8281H19.5078V33.5508H44.855V30.8281Z" fill="#00A7FF"/>
<path d="M44.855 36.9902H19.5078V39.7122H44.855V36.9902Z" fill="#00A7FF"/>
<path d="M44.855 43.1504H19.5078V45.8734H44.855V43.1504Z" fill="#00A7FF"/>
<path d="M38.555 49.3125H19.5078V52.0345H38.555V49.3125Z" fill="#00A7FF"/>
</svg>
