<svg width="68" height="62" viewBox="0 0 68 62" fill="none" xmlns="http://www.w3.org/2000/svg">
<path d="M7.80859 15.9938L34.0773 1L60.1956 16.2518" stroke="white" stroke-width="1.5" stroke-miterlimit="10" strokeLinecap="round" strokeLinejoin="round"/>
<path d="M66.4169 58.3791C66.4169 59.8257 65.244 60.9986 63.7975 60.9986H4.2054C2.75881 60.9986 1.58594 59.8261 1.58594 58.3791V18.8695C1.58594 17.4224 2.75838 16.25 4.2054 16.25H63.7975C65.2436 16.25 66.4169 17.4224 66.4169 18.8695V58.3791Z" fill="#F1FBFD" stroke="white" stroke-width="1.5" stroke-miterlimit="10" strokeLinecap="round" strokeLinejoin="round"/>
<path d="M35.1979 5.1747C35.1979 5.83415 34.6623 6.36893 34.0028 6.36893C33.3429 6.36893 32.8086 5.83415 32.8086 5.1747C32.8086 4.51482 33.3434 3.98047 34.0028 3.98047C34.6623 3.98047 35.1979 4.51482 35.1979 5.1747Z" stroke="white" stroke-width="1.5" stroke-miterlimit="10" strokeLinecap="round" strokeLinejoin="round"/>
<path d="M18.2291 47.5783C18.2291 49.2624 16.8614 50.6293 15.1768 50.6293C13.4905 50.6293 12.125 49.2624 12.125 47.5783C12.125 45.8929 13.4905 44.5273 15.1768 44.5273C16.8614 44.5273 18.2291 45.8929 18.2291 47.5783Z" fill="#35C89E" stroke="#004964" stroke-width="1.5" stroke-miterlimit="10" strokeLinecap="round" strokeLinejoin="round"/>
<path d="M29.8658 33.258C29.8658 34.9421 28.4981 36.3085 26.8135 36.3085C25.1277 36.3085 23.7617 34.9421 23.7617 33.258C23.7617 31.5721 25.1277 30.207 26.8135 30.207C28.4985 30.207 29.8658 31.5721 29.8658 33.258Z" fill="#35C89E" stroke="#004964" stroke-width="1.5" stroke-miterlimit="10" strokeLinecap="round" strokeLinejoin="round"/>
<path d="M44.8892 38.6247C44.8892 40.3093 43.5215 41.6749 41.8365 41.6749C40.1507 41.6749 38.7852 40.3093 38.7852 38.6247C38.7852 36.9393 40.1507 35.5742 41.8365 35.5742C43.5215 35.5742 44.8892 36.9393 44.8892 38.6247Z" fill="#FCBF0F" stroke="#004964" stroke-width="1.5" stroke-miterlimit="10" strokeLinecap="round" strokeLinejoin="round"/>
<path d="M60.1974 27.156C60.1974 28.841 58.8301 30.207 57.1451 30.207C55.4593 30.207 54.0938 28.8406 54.0938 27.156C54.0938 25.471 55.4593 24.1055 57.1451 24.1055C58.8306 24.1055 60.1974 25.471 60.1974 27.156Z" fill="#FCBF0F" stroke="#004964" stroke-width="1.5" stroke-miterlimit="10" strokeLinecap="round" strokeLinejoin="round"/>
<path d="M6.66016 52.9193L12.7485 49.3828" stroke="#004964" stroke-width="1.5" stroke-miterlimit="10" strokeLinecap="round" strokeLinejoin="round"/>
<path d="M16.9883 45.1455L25.0084 35.5742" stroke="#004964" stroke-width="1.5" stroke-miterlimit="10" strokeLinecap="round" strokeLinejoin="round"/>
<path d="M29.8672 34.4844L38.7864 37.592" stroke="#004964" stroke-width="1.5" stroke-miterlimit="10" strokeLinecap="round" strokeLinejoin="round"/>
<path d="M45.0625 36.9311L54.6647 28.9336" stroke="#004964" stroke-width="1.5" stroke-miterlimit="10" strokeLinecap="round" strokeLinejoin="round"/>
</svg>
