<svg width="54" height="61" viewBox="0 0 54 61" fill="none" xmlns="http://www.w3.org/2000/svg">
<path d="M37.2853 61.0004H0.46875V5.51562H49.184V49.1015L37.2853 61.0004Z" fill="#F29B30"/>
<path d="M40.638 56.4848H3.82031V1H52.5356V44.5859L40.638 56.4848Z" fill="white" stroke="#402318" stroke-width="1.5" stroke-miterlimit="10" strokeLinecap="round" strokeLinejoin="round"/>
<path d="M40.2557 30.1005L40.9221 32.2727C41.2697 33.4056 42.468 34.0416 43.6004 33.694C44.7338 33.347 45.3698 32.1475 45.0222 31.0151L42.7346 23.5599C42.5686 23.0164 42.1929 22.5614 41.6902 22.2949C41.1875 22.0283 40.5998 21.9726 40.0552 22.1392L32.6012 24.4268C31.8762 24.6503 31.3557 25.2208 31.165 25.8998C31.0587 26.2819 31.0553 26.6989 31.1805 27.1068C31.5281 28.2386 32.7265 28.8746 33.8599 28.5276L36.7065 27.6532C33.3303 34.1289 25.7585 37.596 18.4545 35.5445C17.3147 35.2239 16.1307 35.8891 15.8107 37.0295C15.4907 38.1693 16.1554 39.3539 17.2952 39.6739C26.4083 42.2316 35.8448 38.0355 40.2557 30.1005Z" fill="#FAC432" stroke="#402318" stroke-width="1.5" stroke-miterlimit="10" strokeLinecap="round" strokeLinejoin="round"/>
<path d="M15.9646 19.1986C15.3878 19.1986 14.8334 18.9688 14.4261 18.5615L10.473 14.6078C9.62337 13.7581 9.62338 12.3805 10.4742 11.5313C11.3239 10.6822 12.7003 10.6817 13.55 11.5319L15.9646 13.9471L22.3333 7.57881C23.1824 6.72856 24.5606 6.72913 25.4097 7.57938C26.2588 8.42849 26.2588 9.80556 25.4085 10.6558L17.5025 18.562C17.0946 18.9699 16.5425 19.1986 15.9646 19.1986Z" fill="#64C753" stroke="#402318" stroke-width="1.5" stroke-miterlimit="10" strokeLinecap="round" strokeLinejoin="round"/>
<path d="M40.6406 44.5859H52.5382L40.6406 56.4849V44.5859Z" fill="#D6E9FF" stroke="#402318" stroke-width="1.5" stroke-miterlimit="10" strokeLinecap="round" strokeLinejoin="round"/>
</svg>
