<svg width="61" height="61" viewBox="0 0 61 61" fill="none" xmlns="http://www.w3.org/2000/svg">
<g clip-path="url(#clip0_2845_18763)">
<path d="M49.6016 51.9805H34.5703V21.918H45.5933C47.8071 21.918 49.6017 23.7126 49.6017 25.9264L49.6016 51.9805Z" fill="#E5563C"/>
<path d="M59.6225 51.9823H34.5703V37.9531H55.6141C57.8279 37.9531 59.6225 39.7477 59.6225 41.9615V51.9823Z" fill="#E5563C"/>
<path d="M34.5689 37.9531H1.5V51.9823H34.5689V37.9531Z" fill="#E5563C"/>
<path d="M4.50621 37.9531H1.5V51.9823H4.50621V37.9531Z" fill="#CF442B"/>
<path d="M49.5985 55.9899C52.9191 55.9899 55.611 53.298 55.611 49.9774C55.611 46.6568 52.9191 43.9648 49.5985 43.9648C46.2778 43.9648 43.5859 46.6568 43.5859 49.9774C43.5859 53.298 46.2778 55.9899 49.5985 55.9899Z" fill="#74757B"/>
<path d="M49.6 52.9851C51.2602 52.9851 52.6062 51.6392 52.6062 49.9789C52.6062 48.3186 51.2602 46.9727 49.6 46.9727C47.9397 46.9727 46.5938 48.3186 46.5938 49.9789C46.5938 51.6392 47.9397 52.9851 49.6 52.9851Z" fill="#D7D8D9"/>
<path d="M11.5204 55.9899C14.841 55.9899 17.5329 53.298 17.5329 49.9774C17.5329 46.6568 14.841 43.9648 11.5204 43.9648C8.19972 43.9648 5.50781 46.6568 5.50781 49.9774C5.50781 53.298 8.19972 55.9899 11.5204 55.9899Z" fill="#74757B"/>
<path d="M11.5218 52.9851C13.1821 52.9851 14.528 51.6392 14.528 49.9789C14.528 48.3186 13.1821 46.9727 11.5218 46.9727C9.86155 46.9727 8.51562 48.3186 8.51562 49.9789C8.51562 51.6392 9.86155 52.9851 11.5218 52.9851Z" fill="#D7D8D9"/>
<path d="M11.5218 52.9851C13.1821 52.9851 14.528 51.6392 14.528 49.9789C14.528 48.3186 13.1821 46.9727 11.5218 46.9727C9.86155 46.9727 8.51562 48.3186 8.51562 49.9789C8.51562 51.6392 9.86155 52.9851 11.5218 52.9851Z" fill="#D7D8D9"/>
<path d="M46.5969 34.9466H37.5781V24.9258H44.5927C45.6997 24.9258 46.5969 25.823 46.5969 26.9299V34.9466Z" fill="#D7D8D9"/>
<path d="M45.5291 25.1602L37.5781 33.1111V34.9482H39.2483L46.597 27.5995V26.9316C46.5969 26.1632 46.1639 25.4965 45.5291 25.1602Z" fill="#9B9DA1"/>
<path d="M37.5781 24.9258V31.523L44.1753 24.9258H37.5781Z" fill="#9B9DA1"/>
<path d="M46.5959 34.9475V31.3984L43.0469 34.9475H46.5959Z" fill="#9B9DA1"/>
<path d="M34.5689 4.88281H1.5V37.9517H34.5689V4.88281Z" fill="#FDDD85"/>
<path d="M4.50621 4.88281H1.5V37.9517H4.50621V4.88281Z" fill="#FDD042"/>
<path d="M23.5443 17.91L18.5339 14.9037L13.5234 17.91V4.88281H23.5443V17.91Z" fill="#F2C127"/>
<path d="M16.5296 4.88281H13.5234V17.91L16.5296 16.1062V4.88281Z" fill="#E1A527"/>
<path d="M29.5615 21.918H7.51562V25.9264H29.5615V21.918Z" fill="#EBEBEC"/>
<path d="M10.5218 21.918H7.51562V25.9264H10.5218V21.918Z" fill="#D7D8D9"/>
<path d="M55.6148 37.0767H50.4791V25.9284C50.4791 23.2002 48.3221 21.0432 45.5939 21.0432H35.4478V14.9054C35.4478 14.3866 35.0273 13.9659 34.5083 13.9659C33.9893 13.9659 33.5688 14.3865 33.5688 14.9054V37.0766H2.37887V5.88668H12.525V17.9118C12.525 18.6278 13.3638 19.0863 13.9791 18.7173L18.5218 16.001L23.0254 18.7173C23.6412 19.0867 24.4248 18.627 24.4248 17.9118V5.88668H33.5688V10.8971C33.5688 11.4159 33.9893 11.8366 34.5083 11.8366C35.0273 11.8366 35.4478 11.4161 35.4478 10.8971V4.88461C35.4478 4.36582 35.0899 4.00781 34.571 4.00781H1.50207C0.983281 4.00781 0.5 4.36582 0.5 4.88461V51.9827C0.5 52.5015 0.983281 52.9848 1.50207 52.9848H5.22699C6.33746 55.2395 8.74145 56.9932 11.523 56.9932C14.3046 56.9932 16.7086 55.2395 17.819 52.9848H43.3063C44.4167 55.2395 46.8207 56.9932 49.6023 56.9932C52.3838 56.9932 54.7878 55.2395 55.8983 52.9848H59.6233C60.1422 52.9848 60.5001 52.5015 60.5001 51.9827V41.9619C60.5 39.2337 58.343 37.0767 55.6148 37.0767ZM22.5459 5.88668V16.2524L18.9896 14.0998C18.695 13.923 18.3018 13.923 18.0072 14.0998L14.4039 16.2524V5.88668H22.5459ZM45.594 22.9222C47.2863 22.9222 48.6002 24.2364 48.6002 25.9284V37.0767H35.4478V22.9222H45.594ZM11.523 55.0516C8.72563 55.0516 6.44996 52.7759 6.44996 49.9786C6.44996 47.1813 8.72574 44.9056 11.523 44.9056C14.3203 44.9056 16.5961 47.1813 16.5961 49.9786C16.5961 52.7759 14.3203 55.0516 11.523 55.0516ZM11.523 43.0266C7.68969 43.0266 4.57098 46.1765 4.57098 50.0099C4.57098 50.3719 4.59887 50.7301 4.65254 51.1059H2.37887V38.9556H33.5688V51.1059H18.3934C18.4469 50.7301 18.4749 50.3719 18.4749 50.0099C18.4749 46.1766 15.3563 43.0266 11.523 43.0266ZM49.6023 55.0516C46.8049 55.0516 44.5292 52.7759 44.5292 49.9786C44.5292 47.1813 46.805 44.9056 49.6023 44.9056C52.3997 44.9056 54.6753 47.1813 54.6753 49.9786C54.6753 52.7759 52.3997 55.0516 49.6023 55.0516ZM58.6211 51.1059H56.4727C56.5264 50.7301 56.5543 50.3719 56.5543 50.0099C56.5543 46.1766 53.4357 43.0423 49.6023 43.0423C45.7688 43.0423 42.6502 46.1843 42.6502 50.0179C42.6502 50.3798 42.6781 50.7304 42.7318 51.1062H35.4478V38.9557H55.6148C57.3071 38.9557 58.621 40.2698 58.621 41.9619V51.1059H58.6211Z" fill="black"/>
<path d="M49.602 46.0312C47.4263 46.0312 45.6562 47.8014 45.6562 49.977C45.6562 52.1525 47.4264 53.9227 49.602 53.9227C51.7777 53.9227 53.5477 52.1525 53.5477 49.977C53.5477 47.8014 51.7777 46.0312 49.602 46.0312ZM49.602 52.0438C48.4623 52.0438 47.5351 51.1166 47.5351 49.977C47.5351 48.8373 48.4623 47.9101 49.602 47.9101C50.7416 47.9101 51.6688 48.8373 51.6688 49.977C51.6688 51.1166 50.7416 52.0438 49.602 52.0438Z" fill="black"/>
<path d="M11.5238 46.0312C9.34813 46.0312 7.57812 47.8014 7.57812 49.977C7.57812 52.1525 9.34824 53.9227 11.5238 53.9227C13.6994 53.9227 15.4695 52.1525 15.4695 49.977C15.4695 47.8014 13.6994 46.0312 11.5238 46.0312ZM11.5238 52.0438C10.3842 52.0438 9.45699 51.1166 9.45699 49.977C9.45699 48.8373 10.3842 47.9101 11.5238 47.9101C12.6635 47.9101 13.5907 48.8373 13.5907 49.977C13.5907 51.1166 12.6634 52.0438 11.5238 52.0438Z" fill="black"/>
<path d="M39.5843 40.082H37.5801C37.0612 40.082 36.6406 40.5026 36.6406 41.0215C36.6406 41.5403 37.0611 41.961 37.5801 41.961H39.5843C40.1032 41.961 40.5237 41.5404 40.5237 41.0215C40.5236 40.5027 40.1032 40.082 39.5843 40.082Z" fill="black"/>
<path d="M37.5803 35.9506H46.5991C47.118 35.9506 47.4759 35.4673 47.4759 34.9485V26.9318C47.4759 25.3087 46.218 24.0508 44.5948 24.0508H37.5802C37.0613 24.0508 36.5781 24.4088 36.5781 24.9276V34.9484C36.5782 35.4673 37.0614 35.9506 37.5803 35.9506ZM38.4572 25.9296H44.595C45.1821 25.9296 45.5971 26.3446 45.5971 26.9317V34.0716H38.4572V25.9296Z" fill="black"/>
<path d="M4.50781 31.9395V34.9457C4.50781 35.4645 4.9284 35.8852 5.4473 35.8852C5.96621 35.8852 6.3868 35.4646 6.3868 34.9457V31.9395C6.3868 31.4207 5.96621 31 5.4473 31C4.9284 31 4.50781 31.4207 4.50781 31.9395Z" fill="black"/>
<path d="M7.51562 31.9395V34.9457C7.51562 35.4645 7.93621 35.8852 8.45512 35.8852C8.97402 35.8852 9.39461 35.4646 9.39461 34.9457V31.9395C9.39461 31.4207 8.97402 31 8.45512 31C7.93621 31 7.51562 31.4207 7.51562 31.9395Z" fill="black"/>
<path d="M26.5547 31.9395V34.9457C26.5547 35.4645 26.9753 35.8852 27.4942 35.8852C28.0131 35.8852 28.4337 35.4646 28.4337 34.9457V31.9395C28.4337 31.4207 28.0131 31 27.4942 31C26.9753 31 26.5547 31.4207 26.5547 31.9395Z" fill="black"/>
<path d="M30.502 35.8852C31.0209 35.8852 31.4415 35.4646 31.4415 34.9457V31.9395C31.4415 31.4207 31.021 31 30.502 31C29.9832 31 29.5625 31.4206 29.5625 31.9395V34.9457C29.5625 35.4646 29.9832 35.8852 30.502 35.8852Z" fill="black"/>
<path d="M12.5234 31.9395V34.9457C12.5234 35.4645 12.944 35.8852 13.4629 35.8852C13.9817 35.8852 14.4024 35.4646 14.4024 34.9457V31.9395C14.4024 31.4207 13.9818 31 13.4629 31C12.944 31.0001 12.5234 31.4207 12.5234 31.9395Z" fill="black"/>
<path d="M15.5312 31.9395V34.9457C15.5312 35.4645 15.9518 35.8852 16.4707 35.8852C16.9895 35.8852 17.4102 35.4646 17.4102 34.9457V31.9395C17.4102 31.4207 16.9896 31 16.4707 31C15.952 31.0001 15.5312 31.4207 15.5312 31.9395Z" fill="black"/>
<path d="M18.5391 31.9395V34.9457C18.5391 35.4645 18.9596 35.8852 19.4786 35.8852C19.9975 35.8852 20.418 35.4646 20.418 34.9457V31.9395C20.418 31.4207 19.9975 31 19.4786 31C18.9596 31 18.5391 31.4207 18.5391 31.9395Z" fill="black"/>
<path d="M21.5469 31.9395V34.9457C21.5469 35.4645 21.9675 35.8852 22.4864 35.8852C23.0053 35.8852 23.4259 35.4646 23.4259 34.9457V31.9395C23.4259 31.4207 23.0053 31 22.4864 31C21.9675 31 21.5469 31.4207 21.5469 31.9395Z" fill="black"/>
<path d="M30.4405 21.9825C30.4405 21.4637 30.0199 21.043 29.501 21.043H7.45512C6.93633 21.043 6.51562 21.4636 6.51562 21.9825V25.9909C6.51562 26.5096 6.93621 26.9304 7.45512 26.9304H29.501C30.0198 26.9304 30.4405 26.5098 30.4405 25.9909V21.9825ZM28.5615 25.0514H8.39449V22.922H28.5615V25.0514Z" fill="black"/>
</g>
<defs>
<clipPath id="clip0_2845_18763">
<rect width="60" height="60" fill="white" transform="translate(0.5 0.5)"/>
</clipPath>
</defs>
</svg>
