<svg width="79" height="60" viewBox="0 0 79 60" fill="none" xmlns="http://www.w3.org/2000/svg">
<path d="M71.3174 3.27344H25.2422L25.3833 3.62971L28.826 12.2092L70.8403 12.2432C70.8403 12.2432 72.3624 12.3293 73.2081 12.5205L73.1204 12.4891V5.07831C73.1204 4.08022 72.3131 3.27344 71.3174 3.27344Z" fill="white"/>
<path d="M70.8411 12.2442L28.8268 12.2102L25.3842 3.63064L23.9284 0H3.81898C1.70807 0 0 1.71274 0 3.82862V56.1719C0 58.285 1.70807 60 3.81898 60H75.1787C77.2893 60 79 58.285 79 56.1719V20.1564C79 16.5202 76.5421 13.4606 73.2089 12.5214C72.3633 12.3302 70.8411 12.2442 70.8411 12.2442ZM78.152 51.4478V54.3046H0.853788V51.4478H78.152Z" fill="#00A7FF"/>
<path d="M78.1498 51.4473H0.851562V54.304H78.1498V51.4473Z" fill="white"/>
</svg>
