<svg width="51" height="60" viewBox="0 0 51 60" fill="none" xmlns="http://www.w3.org/2000/svg">
<path d="M0.269531 24.1387V55.6751C0.269531 58.064 2.20526 59.9997 4.5949 59.9997H46.4027C48.7916 59.9997 50.7273 58.064 50.7273 55.6751V24.1387H0.269531Z" fill="#C0CFE6"/>
<path d="M0.269531 19.5078V51.0442C0.269531 53.4331 2.20526 55.3688 4.5949 55.3688H46.4027C48.7916 55.3688 50.7273 53.4331 50.7273 51.0442V19.5078H0.269531Z" fill="white"/>
<path d="M0.269531 19.0703V50.6067C0.269531 52.9956 2.20526 54.9313 4.5949 54.9313H46.4027C48.7916 54.9313 50.7273 52.9956 50.7273 50.6067V19.0703H0.269531Z" fill="url(#paint0_linear_6686_25730)"/>
<path d="M50.7273 8.79881C50.7273 6.40917 48.7916 4.47266 46.4027 4.47266H4.5949C2.20604 4.47266 0.269531 6.40917 0.269531 8.79881V19.0702H50.7273V8.79881Z" fill="#00A7FF"/>
<path d="M12.3849 12.0183C13.4884 12.0183 14.3838 11.1237 14.3838 10.0194V4.47266H10.3867V10.0194C10.3859 11.1229 11.2813 12.0183 12.3849 12.0183Z" fill="white"/>
<path d="M41.631 12.0183C42.7345 12.0183 43.6298 11.1237 43.6298 10.0194V4.47266H39.6328V10.0194C39.632 11.1229 40.5274 12.0183 41.631 12.0183Z" fill="white"/>
<path d="M31.881 12.0183C32.9845 12.0183 33.8798 11.1237 33.8798 10.0194V4.47266H29.8828V10.0194C29.882 11.1229 30.7774 12.0183 31.881 12.0183Z" fill="white"/>
<path d="M22.1349 12.0183C23.2384 12.0183 24.1338 11.1237 24.1338 10.0194V4.47266H20.1367V10.0194C20.1359 11.1229 21.0313 12.0183 22.1349 12.0183Z" fill="white"/>
<path d="M0.269531 19.0703H50.7273V49.1101L0.269531 19.0703Z" fill="url(#paint1_linear_6686_25730)"/>
<path d="M12.8728 8.55639C12.8728 9.65996 11.9783 10.5553 10.8739 10.5553C9.77033 10.5553 8.875 9.66074 8.875 8.55639V1.99891C8.875 0.895336 9.77033 0 10.8739 0C11.9775 0 12.8728 0.894556 12.8728 1.99891V8.55639Z" fill="#A5C5E8"/>
<path d="M22.6228 8.55639C22.6228 9.65996 21.7283 10.5553 20.6239 10.5553C19.5203 10.5553 18.625 9.66074 18.625 8.55639V1.99891C18.625 0.895336 19.5203 0 20.6239 0C21.7275 0 22.6228 0.894556 22.6228 1.99891V8.55639Z" fill="#A5C5E8"/>
<path d="M32.3689 8.55639C32.3689 9.65996 31.4743 10.5553 30.37 10.5553C29.2664 10.5553 28.3711 9.66074 28.3711 8.55639V1.99891C28.3711 0.895336 29.2656 0 30.37 0C31.4736 0 32.3689 0.894556 32.3689 1.99891V8.55639Z" fill="#A5C5E8"/>
<path d="M42.1189 8.55639C42.1189 9.65996 41.2243 10.5553 40.12 10.5553C39.0164 10.5553 38.1211 9.66074 38.1211 8.55639V1.99891C38.1211 0.895336 39.0156 0 40.12 0C41.2236 0 42.1189 0.894556 42.1189 1.99891V8.55639Z" fill="#A5C5E8"/>
<defs>
<linearGradient id="paint0_linear_6686_25730" x1="25.4984" y1="16.159" x2="25.4984" y2="57.3284" gradientUnits="userSpaceOnUse">
<stop stop-color="white"/>
<stop offset="1" stop-color="#E4EAF5"/>
</linearGradient>
<linearGradient id="paint1_linear_6686_25730" x1="33.6277" y1="15.3636" x2="17.2495" y2="53.0918" gradientUnits="userSpaceOnUse">
<stop stop-color="white"/>
<stop offset="1" stop-color="#E4EAF5"/>
</linearGradient>
</defs>
</svg>
