<svg width="54" height="60" viewBox="0 0 54 60" fill="none" xmlns="http://www.w3.org/2000/svg">
<path d="M26.999 60L26.5476 59.8863C26.2852 59.8201 20.0474 58.2125 13.7548 53.4968C10.0291 50.7047 7.05534 47.3971 4.9162 43.6658C2.23726 38.9929 0.878906 33.6651 0.878906 27.8304V14.512L26.9991 0L53.1192 14.512V27.8303C53.1192 33.6651 51.7609 38.9929 49.0819 43.6658C46.9428 47.3971 43.9691 50.7047 40.2433 53.4967C33.9507 58.2125 27.713 59.8201 27.4505 59.8862L26.999 60ZM4.57419 16.6863V27.8304C4.57419 32.9847 5.7553 37.6722 8.08484 41.7629C9.95547 45.0477 12.5747 47.9752 15.8699 50.4639C20.654 54.077 25.5191 55.7266 26.9991 56.1737C28.4764 55.7274 33.3429 54.0778 38.128 50.4639C41.4232 47.9752 44.0425 45.0477 45.9131 41.7629C48.2425 37.6723 49.4237 32.9847 49.4237 27.8304V16.6863L26.9989 4.22742L4.57419 16.6863Z" fill="#009EFF"/>
<path d="M27.9961 57C40.9748 57 51.4961 38.5833 51.4961 24.5C51.4961 10.4167 38.4961 7 26.9961 4C14.9961 8 1.99609 11.4167 1.99609 25.5C1.99609 39.5833 15.0174 57 27.9961 57Z" fill="#009EFF"/>
<path d="M25.7684 36L18.4961 28.9335L21.1473 26.3574L25.7684 30.8476L33.845 23L36.4961 25.5761L25.7684 36Z" fill="white"/>
</svg>
