<svg width="53" height="60" viewBox="0 0 53 60" fill="none" xmlns="http://www.w3.org/2000/svg">
<path d="M26.5029 60L26.0515 59.8863C25.7891 59.8201 19.5513 58.2125 13.2587 53.4968C9.53301 50.7047 6.55925 47.3971 4.42011 43.6658C1.74117 38.9929 0.382812 33.6651 0.382812 27.8304V14.512L26.503 0L52.6231 14.512V27.8303C52.6231 33.6651 51.2648 38.9929 48.5858 43.6658C46.4467 47.3971 43.473 50.7047 39.7472 53.4967C33.4546 58.2125 27.2169 59.8201 26.9544 59.8862L26.5029 60ZM4.0781 16.6863V27.8304C4.0781 32.9847 5.25921 37.6722 7.58875 41.7629C9.45937 45.0477 12.0787 47.9752 15.3738 50.4639C20.1579 54.077 25.023 55.7266 26.503 56.1736C27.9803 55.7274 32.8468 54.0778 37.6319 50.4639C40.9271 47.9752 43.5464 45.0477 45.417 41.7629C47.7464 37.6723 48.9276 32.9847 48.9276 27.8304V16.6863L26.5028 4.22742L4.0781 16.6863Z" fill="#009EFF"/>
<path d="M27.5 57C40.4787 57 51 38.5833 51 24.5C51 10.4167 38 7 26.5 4C14.5 8 1.5 11.4167 1.5 25.5C1.5 39.5833 14.5213 57 27.5 57Z" fill="#009EFF"/>
<path d="M25.2723 36L18 28.9335L20.6512 26.3574L25.2723 30.8476L33.3489 23L36 25.5761L25.2723 36Z" fill="white"/>
</svg>
