<svg width="54" height="61" viewBox="0 0 54 61" fill="none" xmlns="http://www.w3.org/2000/svg">
<path d="M27.0029 60.5L26.5515 60.3863C26.2891 60.3201 20.0513 58.7125 13.7587 53.9968C10.033 51.2047 7.05925 47.8971 4.92011 44.1658C2.24117 39.4929 0.882812 34.1651 0.882812 28.3304V15.012L27.003 0.5L53.1231 15.012V28.3303C53.1231 34.1651 51.7648 39.4929 49.0858 44.1658C46.9467 47.8971 43.973 51.2047 40.2472 53.9967C33.9546 58.7125 27.7169 60.3201 27.4544 60.3862L27.0029 60.5ZM4.5781 17.1863V28.3304C4.5781 33.4847 5.75921 38.1722 8.08875 42.2629C9.95937 45.5477 12.5787 48.4752 15.8738 50.9639C20.6579 54.577 25.523 56.2266 27.003 56.6736C28.4803 56.2274 33.3468 54.5778 38.1319 50.9639C41.4271 48.4752 44.0464 45.5477 45.917 42.2629C48.2464 38.1723 49.4276 33.4847 49.4276 28.3304V17.1863L27.0028 4.72742L4.5781 17.1863Z" fill="#009EFF"/>
<path d="M28 57.5C40.9787 57.5 51.5 39.0833 51.5 25C51.5 10.9167 38.5 7.5 27 4.5C15 8.5 2 11.9167 2 26C2 40.0833 15.0213 57.5 28 57.5Z" fill="#009EFF"/>
<path d="M25.7723 36.5L18.5 29.4335L21.1512 26.8574L25.7723 31.3476L33.8489 23.5L36.5 26.0761L25.7723 36.5Z" fill="white"/>
</svg>
