<svg width="60" height="60" viewBox="0 0 60 60" fill="none" xmlns="http://www.w3.org/2000/svg">
<path d="M59.9887 30.4452C59.9907 30.2968 59.9999 30.1495 59.9999 30.0001C59.9999 21.9639 56.8337 14.6704 51.6881 9.28516L31.6016 29.3712L59.9887 30.4452Z" fill="#FCDD13"/>
<path d="M50.7162 8.31159C45.3308 3.16612 38.0372 0 30.0007 0C13.431 0 0 13.4317 0 30C0 46.5683 13.432 60 30.0007 60C31.7119 60 33.3864 59.8496 35.0193 59.5743L29.2549 29.7714L50.7162 8.31159Z" fill="#F97255"/>
<path d="M36.3755 59.3174C49.3075 56.5191 59.1313 45.3878 59.9442 31.8231L30.8438 30.7227L36.3755 59.3174Z" fill="#01C0CA"/>
</svg>
