<svg width="61" height="61" viewBox="0 0 61 61" fill="none" xmlns="http://www.w3.org/2000/svg">
<g clip-path="url(#clip0_2845_18819)">
<path d="M44.5188 37.4766L56.5187 49.4766C57.4536 50.4115 57.9789 51.6794 57.9789 53.0016C57.9789 54.3237 57.4536 55.5917 56.5187 56.5266C55.5839 57.4615 54.3159 57.9867 52.9937 57.9867C51.6716 57.9867 50.4036 57.4615 49.4688 56.5266L37.4688 44.5266L44.5188 37.4766Z" fill="#9E9DA5"/>
<path d="M48.0001 25.5018C48.0001 31.4692 45.6296 37.1921 41.41 41.4117C37.1905 45.6313 31.4675 48.0018 25.5002 48.0018C19.5328 48.0018 13.8098 45.6313 9.59025 41.4117C5.37068 37.1921 3.00015 31.4692 3.00015 25.5018C2.99226 23.3856 3.2955 21.2798 3.90015 19.2518C5.25101 14.5669 8.08845 10.4482 11.9846 7.5167C15.8807 4.58525 20.6244 3 25.5002 3C30.3759 3 35.1196 4.58525 39.0157 7.5167C42.9119 10.4482 45.7493 14.5669 47.1001 19.2518C47.7048 21.2798 48.008 23.3856 48.0001 25.5018Z" fill="#2EB1B7"/>
<path d="M25.4984 35.5C37.4278 35.5 47.0984 28.2246 47.0984 19.25C47.0984 10.2754 37.4278 3 25.4984 3C13.5691 3 3.89844 10.2754 3.89844 19.25C3.89844 28.2246 13.5691 35.5 25.4984 35.5Z" fill="#5DC6D1"/>
<path d="M13 28C12.337 28 11.7011 27.7366 11.2322 27.2678C10.7634 26.7989 10.5 26.163 10.5 25.5C10.504 21.523 12.0856 17.71 14.8978 14.8978C17.71 12.0856 21.523 10.504 25.5 10.5C26.163 10.5 26.7989 10.7634 27.2678 11.2322C27.7366 11.7011 28 12.337 28 13C28 13.663 27.7366 14.2989 27.2678 14.7678C26.7989 15.2366 26.163 15.5 25.5 15.5C22.8478 15.5 20.3043 16.5536 18.4289 18.4289C16.5536 20.3043 15.5 22.8478 15.5 25.5C15.5 26.163 15.2366 26.7989 14.7678 27.2678C14.2989 27.7366 13.663 28 13 28Z" fill="#EAEAEA"/>
<path d="M47.6379 37.0607C50.4143 31.7542 51.198 25.6287 49.8471 19.7941C48.4962 13.9595 45.1001 8.80184 40.274 5.25553C35.4479 1.70922 29.5112 0.00891066 23.5395 0.462682C17.5678 0.916452 11.9561 3.49428 7.72129 7.7291C3.48647 11.9639 0.90864 17.5756 0.454869 23.5473C0.00109813 29.519 1.70141 35.4557 5.24772 40.2818C8.79403 45.1079 13.9517 48.5041 19.7863 49.8549C25.6209 51.2058 31.7464 50.4221 37.0529 47.6457L47.6879 58.2832C49.0902 59.6885 50.9934 60.4792 52.9787 60.4813C54.964 60.4834 56.8689 59.6968 58.2742 58.2945C59.6795 56.8921 60.4702 54.989 60.4723 53.0037C60.4744 51.0184 59.6878 49.1135 58.2854 47.7082L47.6379 37.0607ZM5.49792 25.5007C5.49792 21.5451 6.6709 17.6783 8.86853 14.3893C11.0662 11.1003 14.1897 8.53689 17.8442 7.02314C21.4988 5.50939 25.5201 5.11332 29.3997 5.88503C33.2793 6.65673 36.843 8.56154 39.6401 11.3586C42.4371 14.1556 44.3419 17.7193 45.1136 21.5989C45.8853 25.4785 45.4893 29.4999 43.9755 33.1544C42.4618 36.8089 39.8983 39.9325 36.6093 42.1301C33.3203 44.3277 29.4535 45.5007 25.4979 45.5007C20.1954 45.4948 15.1118 43.3857 11.3624 39.6363C7.61292 35.8869 5.50387 30.8032 5.49792 25.5007ZM54.7479 54.7707C54.2806 55.2288 53.6523 55.4854 52.9979 55.4854C52.3435 55.4854 51.7152 55.2288 51.2479 54.7707L41.3304 44.8507C42.6097 43.7969 43.782 42.6195 44.8304 41.3357L54.7604 51.2507C54.9957 51.4799 55.1823 51.7542 55.3091 52.0573C55.4358 52.3603 55.5 52.6858 55.4979 53.0143C55.4958 53.3427 55.4274 53.6674 55.2968 53.9688C55.1662 54.2702 54.9761 54.5421 54.7379 54.7682L54.7479 54.7707Z" fill="#26313D"/>
</g>
<defs>
<clipPath id="clip0_2845_18819">
<rect width="60" height="60" fill="white" transform="translate(0.5 0.5)"/>
</clipPath>
</defs>
</svg>
