<svg width="61" height="61" viewBox="0 0 61 61" fill="none" xmlns="http://www.w3.org/2000/svg">
<g clip-path="url(#clip0_2845_18888)">
<path d="M49.7963 29.4961L55.6191 25.0787L49.7963 20.6496L53.1388 14.1417L45.9695 12.7008L46.1585 5.37795L39.0837 7.18504L36.0837 0.5L30.497 5.22441L24.9104 0.5L21.9104 7.18504L14.8356 5.36614L15.0246 12.7008L7.85531 14.1417L11.1978 20.6496L5.375 25.0787L11.1978 29.4961L7.85531 36.0158L15.0246 37.4567L14.8356 44.7795L21.9104 42.9724L24.9104 49.6575L30.497 44.9331L36.0837 49.6575L39.0837 42.9724L46.1585 44.7795L45.9695 37.4567L53.1388 36.0158L49.7963 29.4961Z" fill="#FFD15C"/>
<path d="M21.9136 42.9712L14.8388 44.7783L15.0042 38.1523L13.6105 40.6327L5.96875 54.1563L14.6971 51.735L17.1184 60.4988L23.3664 49.4555L24.1695 48.0145L21.9136 42.9712Z" fill="#FF7058"/>
<path d="M47.3746 40.1952L45.9809 37.7148L46.1581 44.7778L39.0833 42.9707L36.9219 47.7778L37.7368 49.2188L44.1148 60.4983L46.536 51.7345L55.2644 54.1558L47.3746 40.1952Z" fill="#FF7058"/>
<path d="M24.1657 48.0145L23.3626 49.4555L21.1539 44.5421L13.4531 46.5146L13.6067 40.6327L15.0004 38.1523L14.835 44.7783L21.9098 42.9712L24.1657 48.0145Z" fill="#F1543F"/>
<path d="M47.54 46.5141L39.8392 44.5416L37.7368 49.2188L36.9219 47.7778L39.0833 42.9707L46.1581 44.7778L45.9809 37.7148L47.3746 40.1952L47.54 46.5141Z" fill="#F1543F"/>
<path d="M30.5008 40.7289C39.1177 40.7289 46.1032 33.7223 46.1032 25.0793C46.1032 16.4363 39.1177 9.42969 30.5008 9.42969C21.8839 9.42969 14.8984 16.4363 14.8984 25.0793C14.8984 33.7223 21.8839 40.7289 30.5008 40.7289Z" fill="#F8B64C"/>
<path d="M26.7765 33.1338L20.8828 27.2283L23.6112 24.4881L26.7765 27.6653L37.3828 17.0117L40.1112 19.7519L26.7765 33.1338Z" fill="#F2F2F2"/>
</g>
<defs>
<clipPath id="clip0_2845_18888">
<rect width="60" height="60" fill="white" transform="translate(0.5 0.5)"/>
</clipPath>
</defs>
</svg>
