<svg width="79" height="61" viewBox="0 0 79 61" fill="none" xmlns="http://www.w3.org/2000/svg">
<path d="M69.4887 30.9452C69.4907 30.7968 69.4999 30.6495 69.4999 30.5001C69.4999 22.4639 66.3337 15.1704 61.1881 9.78516L41.1016 29.8712L69.4887 30.9452Z" fill="#FCDD13"/>
<path d="M60.2162 8.81159C54.8308 3.66612 47.5372 0.5 39.5007 0.5C22.931 0.5 9.5 13.9317 9.5 30.5C9.5 47.0683 22.932 60.5 39.5007 60.5C41.2119 60.5 42.8864 60.3496 44.5193 60.0743L38.7549 30.2714L60.2162 8.81159Z" fill="#F97255"/>
<path d="M45.8755 59.8154C58.8075 57.0171 68.6313 45.8859 69.4442 32.3211L40.3438 31.2207L45.8755 59.8154Z" fill="#01C0CA"/>
</svg>
