<svg width="83" height="60" viewBox="0 0 83 60" fill="none" xmlns="http://www.w3.org/2000/svg">
<path d="M72.9917 7.86719H4.97266V53.8975H72.9917V7.86719Z" fill="#BCBCBC"/>
<path d="M4.19195 60.0003H19.4185H73.7696C75.7641 60.0003 77.381 58.3813 77.381 56.3902V53.8965H19.4196H0.585938V56.3902C0.584859 58.3802 2.19964 60.0003 4.19195 60.0003Z" fill="#BCBCBC"/>
<path d="M69.2071 11.2441H8.75391V50.5148H69.2071V11.2441Z" fill="white"/>
<path d="M20.1544 35.2485L13.2541 28.3477L10.7969 30.8047L18.5126 38.5188C18.5579 37.1954 19.1857 36.0208 20.1544 35.2485Z" fill="#51A2FB"/>
<path d="M43.2829 32.3525L39.5032 28.5742C39.0761 29.7024 38.2002 30.6095 37.0859 31.0679L41.1579 35.1396C41.447 33.9413 42.2323 32.9371 43.2829 32.3525Z" fill="#51A2FB"/>
<path d="M31.3769 28.6543L25.1055 34.9263C26.1399 35.5465 26.8982 36.582 27.142 37.8019L33.847 31.0984C32.7209 30.6605 31.8256 29.7717 31.3769 28.6543Z" fill="#51A2FB"/>
<path d="M24.3204 35.7091C23.8792 35.4912 23.3884 35.3672 22.8631 35.3672C22.1361 35.3672 21.4641 35.6088 20.9139 36.0111C20.1017 36.6119 19.5742 37.574 19.5742 38.6591C19.5742 39.0538 19.6454 39.4313 19.7749 39.7819C20.1028 40.6825 20.8136 41.3976 21.7078 41.7352C22.0681 41.8711 22.4575 41.9499 22.8631 41.9499C22.916 41.9499 22.9699 41.9445 23.0206 41.9423C24.7173 41.8625 26.0819 40.4916 26.1487 38.7885C26.152 38.7464 26.1541 38.7022 26.1541 38.658C26.1552 37.3648 25.4056 36.2473 24.3204 35.7091Z" fill="#51A2FB"/>
<path d="M35.4288 23.7461C33.6113 23.7461 32.1367 25.2238 32.1367 27.038C32.1367 27.3022 32.1713 27.5568 32.2317 27.8038C32.5207 29.0161 33.4818 29.9696 34.6997 30.2468C34.9359 30.2997 35.1775 30.3299 35.4288 30.3299C35.7104 30.3299 35.9811 30.291 36.2422 30.2242C37.446 29.9157 38.3898 28.9449 38.6497 27.7197C38.6951 27.4996 38.7209 27.272 38.7209 27.038C38.722 25.2227 37.2453 23.7461 35.4288 23.7461Z" fill="#51A2FB"/>
<path d="M48.675 35.9546C48.5941 34.6614 47.7624 33.5698 46.6115 33.1093C46.2329 32.9572 45.8241 32.873 45.3937 32.873C44.9266 32.873 44.4822 32.9723 44.0809 33.1481C42.9408 33.6453 42.1382 34.7692 42.1059 36.0851C42.1048 36.1121 42.1016 36.138 42.1016 36.166C42.1016 37.9802 43.5783 39.4568 45.3937 39.4568C47.2091 39.4568 48.689 37.9802 48.689 36.166C48.6879 36.0937 48.6815 36.0247 48.675 35.9546Z" fill="#51A2FB"/>
<path d="M47.4141 32.3078C48.4798 32.8676 49.2802 33.8513 49.5995 35.0334L77.5317 7.10636L75.0756 4.65039L47.4141 32.3078Z" fill="#51A2FB"/>
<path d="M74.4883 2.12268L76.0426 3.67695L78.4988 6.13399L80.2894 7.92554L82.4144 0L74.4883 2.12268Z" fill="#51A2FB"/>
</svg>
