<svg width="61" height="60" viewBox="0 0 61 60" fill="none" xmlns="http://www.w3.org/2000/svg">
<g clip-path="url(#clip0_6821_54524)">
<path d="M51.8845 17.3867H48.0547L51.8845 49.9399L55.7143 47.3867V21.2165C55.7143 19.1102 53.9909 17.3867 51.8845 17.3867Z" fill="#0680C1"/>
<path d="M48.055 17.3867H9.11887C7.01254 17.3867 5.28906 19.1101 5.28906 21.2165V47.3867L51.8848 49.9399V21.2165C51.8848 19.1102 50.1614 17.3867 48.055 17.3867Z" fill="#3EB8F8"/>
<path d="M55.7126 49.9414L51.8828 58.8775H55.7126C57.8189 58.8775 59.5424 57.1542 59.5424 55.0477V52.4946L55.7126 49.9414Z" fill="#B7D9DD"/>
<path d="M55.7163 55.0458V49.9395L1.46094 52.4926V55.0458C1.46094 57.1521 3.1843 58.8756 5.29074 58.8756H51.8865C53.9929 58.8756 55.7163 57.1522 55.7163 55.0458Z" fill="#C7E7EB"/>
<path d="M55.7186 47.3867H51.8887L50.0391 49.94L55.7186 52.4932H59.5484L55.7186 47.3867Z" fill="#C7E7EB"/>
<path d="M5.29074 47.3867L1.46094 52.4932H55.7163L51.8865 47.3867H5.29074Z" fill="#F0FEFF"/>
<path d="M39.5676 10.9258H37.9297V31.5107H39.5676C42.4211 28.9941 44.2245 25.3131 44.2245 21.2182C44.2245 17.1234 42.4211 13.4424 39.5676 10.9258Z" fill="#A5C5E8"/>
<path d="M37.9302 12.1641H31.7969V30.2705H37.9302C39.4636 27.8524 40.395 24.6832 40.395 21.2173C40.3953 17.7514 39.4636 14.5821 37.9302 12.1641Z" fill="#00A7FF"/>
<path d="M37.9285 30.2715L30.5 34.9416C33.9723 34.9416 37.1468 33.6447 39.5663 31.5107C39.0532 31.0582 38.5053 30.6444 37.9285 30.2715Z" fill="#A5C5E8"/>
<path d="M30.5 7.49414C30.5002 7.49414 37.9286 12.1643 37.9286 12.1643C38.5054 11.7914 39.0533 11.3776 39.5666 10.9249C37.1468 8.79105 33.9723 7.49414 30.5 7.49414Z" fill="#A5C5E8"/>
<path d="M30.5 7.49414L34.3481 13.8057C35.6287 13.431 36.8318 12.8732 37.9283 12.1642C36.1139 9.30305 33.4565 7.49426 30.5 7.49414Z" fill="#00A7FF"/>
<path d="M34.3483 28.6289L30.5 34.9405C33.4568 34.9405 36.1141 33.1316 37.9286 30.2704C36.8319 29.5614 35.6289 29.0037 34.3483 28.6289Z" fill="#00A7FF"/>
<path d="M26.6487 11.6534L21.4296 10.9258C18.5764 13.4421 16.7734 17.1232 16.7734 21.2177C16.7734 25.3121 18.5763 28.9932 21.4296 31.5095L26.6487 30.7819L29.1513 21.2175L26.6487 11.6534Z" fill="#00A7FF"/>
<path d="M34.3453 13.8066H26.6484C26.1888 15.9453 25.9219 18.4898 25.9219 21.2183C25.9219 23.9468 26.1888 26.4913 26.6484 28.6299H34.3453C34.8049 26.4913 35.0708 23.9468 35.0708 21.2183C35.0708 18.4898 34.8049 15.9453 34.3453 13.8066Z" fill="#00A7FF"/>
<path d="M21.4297 10.9255C22.9183 12.2386 24.6942 13.2354 26.6487 13.8057L30.4967 7.49414C27.0245 7.49414 23.8493 8.79117 21.4297 10.9255Z" fill="#F0FEFF"/>
<path d="M26.6487 28.6289C24.6942 29.1994 22.9182 30.1961 21.4297 31.5091C23.8494 33.6435 27.0245 34.9405 30.4967 34.9405L26.6487 28.6289Z" fill="#F0FEFF"/>
<path d="M30.4964 7.49414C32.1098 7.49414 33.5306 10.0117 34.3453 13.8057C33.1236 14.1642 31.8321 14.3557 30.4964 14.3557C29.1607 14.3557 27.8691 14.1641 26.6484 13.8057C27.4634 10.0117 28.884 7.49414 30.4964 7.49414Z" fill="#D0FBFD"/>
<path d="M34.3453 28.63C33.5305 32.4241 32.1097 34.9416 30.4964 34.9416C28.884 34.9416 27.4634 32.4241 26.6484 28.63C27.8689 28.2716 29.1607 28.0801 30.4964 28.0801C31.8321 28.0801 33.1236 28.2716 34.3453 28.63Z" fill="#D0FBFD"/>
<path d="M60.3085 51.9203L56.6702 47.0692V21.2181C56.6702 18.5783 54.5227 16.4308 51.883 16.4308H51.0057C50.303 13.3989 48.9242 10.4933 46.8673 7.95819H48.3283C48.8571 7.95819 49.2857 7.52963 49.2857 7.00076C49.2857 6.4719 48.8571 6.04334 48.3283 6.04334H44.7174C44.1887 6.04334 43.76 6.4719 43.76 7.00076V10.6115C43.76 11.1404 44.1887 11.569 44.7174 11.569C45.2462 11.569 45.6748 11.1404 45.6748 10.6115V9.53729C47.2869 11.6285 48.4064 13.9792 49.0352 16.431H44.3785C42.389 10.6794 36.9194 6.53752 30.5 6.53752C24.0805 6.53752 18.611 10.6794 16.6214 16.431H11.9648C12.7879 13.2218 14.452 10.1856 16.9597 7.67799C23.2002 1.43741 32.8363 0.262835 40.3931 4.8219C40.846 5.0953 41.4344 4.94951 41.7075 4.49658C41.9806 4.04377 41.835 3.45537 41.3821 3.18221C37.4248 0.794749 32.6995 -0.227829 28.0762 0.30303C23.3094 0.850296 18.9972 2.93225 15.6057 6.32366C12.7229 9.20658 10.8534 12.7242 9.99441 16.4308H9.11703C6.47727 16.4308 4.3298 18.5783 4.3298 21.2181V43.5585C4.3298 44.0873 4.75848 44.5159 5.28723 44.5159C5.81598 44.5159 6.24465 44.0873 6.24465 43.5585V21.2181C6.24465 19.6343 7.53312 18.3457 9.11703 18.3457H9.6425C8.87504 23.9676 10.3713 29.8419 14.1329 34.478H12.6719C12.1432 34.478 11.7145 34.9065 11.7145 35.4354C11.7145 35.9642 12.1432 36.3928 12.6719 36.3928H16.2826C16.8113 36.3928 17.24 35.9642 17.24 35.4354V31.8246C17.24 31.2957 16.8113 30.8672 16.2826 30.8672C15.7538 30.8672 15.3252 31.2957 15.3252 31.8246V32.8988C12.0668 28.672 10.8174 23.3857 11.576 18.3457H16.1022C15.9171 19.2749 15.8193 20.2352 15.8193 21.2181C15.8193 29.3131 22.405 35.8987 30.5002 35.8987C38.5953 35.8987 45.1809 29.313 45.1809 21.2181C45.1809 20.2352 45.0832 19.275 44.898 18.3457H49.4243C50.2986 24.156 48.5047 30.2941 44.0404 34.7583C37.8001 40.9989 28.1636 42.1731 20.607 37.6144C20.1545 37.3413 19.5657 37.4869 19.2927 37.9397C19.0195 38.3925 19.1652 38.9809 19.618 39.254C22.892 41.2292 26.6916 42.27 30.5243 42.27C31.3242 42.27 32.1256 42.2246 32.9239 42.133C37.6907 41.5857 42.003 39.5038 45.3944 36.1125C50.2316 31.2753 52.2185 24.6515 51.3576 18.3457H51.883C53.4669 18.3457 54.7554 19.6343 54.7554 21.2181V46.4308H5.28723C4.98582 46.4308 4.70211 46.5726 4.52129 46.8138L0.691484 51.9203C0.567148 52.086 0.5 52.2875 0.5 52.4947V55.0479C0.5 57.6876 2.64746 59.8351 5.28723 59.8351H55.7128C58.3525 59.8351 60.5 57.6876 60.5 55.0479V52.4947C60.5 52.2875 60.4328 52.086 60.3085 51.9203ZM38.0427 10.9256C37.1165 11.6056 36.108 12.1536 35.0456 12.5596C34.6727 11.1116 34.1955 9.83694 33.6161 8.8378C35.2363 9.24561 36.734 9.96385 38.0427 10.9256ZM28.1754 11.8216C29.0043 9.33479 29.9458 8.45225 30.5001 8.45225C31.0544 8.45225 31.9959 9.33467 32.8249 11.8216C32.9604 12.2281 33.0849 12.6588 33.2002 13.1071C32.3189 13.2983 31.4146 13.3991 30.5001 13.3991C29.5856 13.3991 28.6813 13.2982 27.8 13.1071C27.9153 12.6588 28.0399 12.228 28.1754 11.8216ZM30.5001 15.3138C31.5513 15.3138 32.5913 15.2 33.6043 14.9805C33.8906 16.6001 34.061 18.3912 34.1046 20.2606H26.8955C26.9393 18.3913 27.1095 16.6001 27.3958 14.9805C28.4089 15.2001 29.4489 15.3138 30.5001 15.3138ZM27.384 8.83768C26.8045 9.83682 26.3274 11.1116 25.9545 12.5594C24.8921 12.1535 23.8836 11.6055 22.9575 10.9256C24.2662 9.96385 25.764 9.24561 27.384 8.83768ZM21.4718 12.2014C22.709 13.1686 24.0843 13.9248 25.5436 14.4496C25.2144 16.2648 25.025 18.2536 24.9793 20.2608H17.7699C18.0037 17.1248 19.3749 14.3008 21.4718 12.2014ZM17.77 22.1756H24.9794C25.0251 24.1828 25.2145 26.1716 25.5437 27.9867C24.0845 28.5114 22.709 29.2678 21.4719 30.2349C19.3749 28.1353 18.0037 25.3114 17.77 22.1756ZM22.9575 31.5106C23.8836 30.8306 24.8921 30.2826 25.9545 29.8767C26.3274 31.3247 26.8046 32.5993 27.384 33.5986C25.764 33.1907 24.2662 32.4723 22.9575 31.5106ZM32.8249 30.6147C31.9959 33.1016 31.0544 33.9841 30.5001 33.9841C29.9458 33.9841 29.0043 33.1017 28.1754 30.6147C28.0398 30.2081 27.9153 29.7774 27.8 29.3293C28.6814 29.1381 29.5857 29.0373 30.5001 29.0373C31.4146 29.0373 32.319 29.1382 33.2002 29.3293C33.0849 29.7774 32.9604 30.2081 32.8249 30.6147ZM30.5001 27.1222C29.4489 27.1222 28.4089 27.236 27.3959 27.4555C27.1096 25.836 26.9393 24.0449 26.8957 22.1755H34.1047C34.061 24.0449 33.8907 25.836 33.6044 27.4555C32.5913 27.236 31.5513 27.1222 30.5001 27.1222ZM33.6163 33.5987C34.1957 32.5996 34.6728 31.3248 35.0457 29.8769C36.108 30.2829 37.1166 30.8308 38.0427 31.5109C36.734 32.4723 35.2363 33.1907 33.6163 33.5987ZM39.5285 30.2348C38.2912 29.2677 36.9159 28.5115 35.4567 27.9866C35.7859 26.1714 35.9752 24.1826 36.0209 22.1754H43.2303C42.9965 25.3114 41.6252 28.1355 39.5285 30.2348ZM36.0209 20.2606C35.9752 18.2535 35.7859 16.2647 35.4567 14.4494C36.9159 13.9248 38.2912 13.1685 39.5285 12.2013C41.6253 14.3008 42.9966 17.1247 43.2302 20.2605L36.0209 20.2606ZM5.76594 48.3458H55.2341L57.6277 51.5373H3.37238L5.76594 48.3458ZM58.5852 55.0479C58.5852 56.6317 57.2967 57.9203 55.7128 57.9203H5.28723C3.70332 57.9203 2.41484 56.6317 2.41484 55.0479V53.3965C2.5148 53.4319 2.62191 53.4521 2.73395 53.4521H29.5426V55.0479C29.5426 55.5767 29.9713 56.0053 30.5 56.0053C31.0287 56.0053 31.4574 55.5767 31.4574 55.0479V53.4521H58.2659C58.378 53.4521 58.4851 53.4319 58.585 53.3965L58.5852 55.0479Z" fill="black"/>
</g>
<defs>
<clipPath id="clip0_6821_54524">
<rect width="60" height="60" fill="white" transform="translate(0.5)"/>
</clipPath>
</defs>
</svg>
