<svg width="54" height="61" viewBox="0 0 54 61" fill="none" xmlns="http://www.w3.org/2000/svg">
<path d="M37.7814 61.0005H0.964844V5.51562H49.6801V49.1015L37.7814 61.0005Z" fill="#F29B30"/>
<path d="M41.1341 56.4848H4.31641V1H53.0317V44.5859L41.1341 56.4848Z" fill="white" stroke="#402318" stroke-width="1.5" stroke-miterlimit="10" strokeLinecap="round" strokeLinejoin="round"/>
<path d="M40.7518 30.1005L41.4182 32.2727C41.7657 33.4056 42.9641 34.0416 44.0964 33.694C45.2299 33.347 45.8659 32.1475 45.5183 31.0151L43.2307 23.5599C43.0647 23.0164 42.689 22.5614 42.1863 22.2949C41.6836 22.0283 41.0959 21.9726 40.5513 22.1392L33.0973 24.4268C32.3723 24.6503 31.8518 25.2208 31.6611 25.8998C31.5548 26.2819 31.5514 26.6989 31.6766 27.1068C32.0242 28.2386 33.2226 28.8746 34.356 28.5276L37.2026 27.6532C33.8264 34.1289 26.2546 37.596 18.9506 35.5445C17.8108 35.2239 16.6268 35.8891 16.3068 37.0295C15.9868 38.1693 16.6515 39.3539 17.7913 39.6739C26.9044 42.2316 36.3409 38.0355 40.7518 30.1005Z" fill="#FAC432" stroke="#402318" stroke-width="1.5" stroke-miterlimit="10" strokeLinecap="round" strokeLinejoin="round"/>
<path d="M16.4646 19.1986C15.8878 19.1986 15.3334 18.9688 14.9261 18.5615L10.973 14.6078C10.1234 13.7581 10.1234 12.3805 10.9742 11.5313C11.8239 10.6822 13.2003 10.6817 14.05 11.5319L16.4646 13.9471L22.8333 7.57881C23.6824 6.72856 25.0606 6.72913 25.9097 7.57938C26.7588 8.42849 26.7588 9.80556 25.9085 10.6558L18.0025 18.562C17.5946 18.9699 17.0425 19.1986 16.4646 19.1986Z" fill="#64C753" stroke="#402318" stroke-width="1.5" stroke-miterlimit="10" strokeLinecap="round" strokeLinejoin="round"/>
<path d="M41.1328 44.5859H53.0304L41.1328 56.4849V44.5859Z" fill="#D6E9FF" stroke="#402318" stroke-width="1.5" stroke-miterlimit="10" strokeLinecap="round" strokeLinejoin="round"/>
</svg>
