<svg width="48" height="61" viewBox="0 0 48 61" fill="none" xmlns="http://www.w3.org/2000/svg">
<path d="M38.2317 11.5696H38.642C39.8581 11.5696 40.8398 10.5879 40.8398 9.37181V5.91463C40.8398 4.69849 39.8581 3.7168 38.642 3.7168H2.74467C1.53662 3.7168 0.546875 4.69849 0.546875 5.91463V9.37181C0.546875 10.5879 1.53662 11.5696 2.74467 11.5696H3.16225C3.16225 24.4936 18.056 25.6138 18.056 32.3545C18.056 39.1011 3.16225 40.2227 3.16225 53.1453H2.74467C1.53662 53.1453 0.546875 54.1269 0.546875 55.3431V58.8017C0.546875 60.0178 1.53662 60.9995 2.74467 60.9995H38.642C39.8581 60.9995 40.8398 60.0178 40.8398 58.8017V55.3431C40.8398 54.1269 39.8581 53.1453 38.642 53.1453H38.2317C38.2317 40.2227 23.3307 39.1011 23.3307 32.3545C23.3307 25.6138 38.2317 24.4936 38.2317 11.5696Z" fill="#F29B30"/>
<path d="M8.78125 8.85352H43.8507C43.8507 21.776 28.9497 22.8976 28.9497 29.6369C28.9497 36.385 43.8507 37.5052 43.8507 50.4291H8.78125C8.78125 37.5052 23.675 36.385 23.675 29.6369C23.675 22.8976 8.78125 21.776 8.78125 8.85352Z" fill="white"/>
<path d="M40.8713 50.4304C40.0925 43.3922 23.6494 45.6354 28.3585 29.6426H24.2691C28.9797 45.6354 12.5358 43.3922 11.7578 50.4304H40.8713Z" fill="#64C753"/>
<path d="M38.9521 19.4906C30.0788 18.7954 20.0583 15.3579 11.9844 17.7477C16.3617 22.9463 23.6686 24.9148 23.6686 29.6372C23.6686 29.8204 23.6532 29.9962 23.6312 30.1713C25.3697 30.2841 27.1602 30.1742 28.9601 29.8893C28.9557 29.805 28.9433 29.723 28.9433 29.6372C28.944 25.4819 34.6077 23.4584 38.9521 19.4906Z" fill="#64C753"/>
<path d="M46.457 52.6275V56.0847C46.457 57.3008 45.4753 58.2825 44.2592 58.2825H8.36186C7.1538 58.2825 6.16406 57.3008 6.16406 56.0847V52.6275C6.16406 51.4114 7.1538 50.4297 8.36186 50.4297H8.77944H43.8489H44.2592C45.476 50.4297 46.457 51.4114 46.457 52.6275Z" fill="#8C4D35"/>
<path d="M46.457 3.19783V6.65647C46.457 7.87261 45.4753 8.8543 44.2592 8.8543H43.8489H8.77944H8.36186C7.1538 8.8543 6.16406 7.87261 6.16406 6.65647V3.19783C6.16406 1.9817 7.1538 1 8.36186 1H44.2592C45.476 1 46.457 1.9817 46.457 3.19783Z" fill="#8C4D35"/>
<path d="M8.77944 8.8543H8.36186C7.1538 8.8543 6.16406 7.87261 6.16406 6.65647V3.19783C6.16406 1.9817 7.1538 1 8.36186 1H44.2592C45.4753 1 46.457 1.9817 46.457 3.19783V6.65647C46.457 7.87261 45.4753 8.8543 44.2592 8.8543H43.8489H8.77944Z" stroke="#402318" stroke-width="2" stroke-miterlimit="10" strokeLinecap="round" strokeLinejoin="round"/>
<path d="M43.8489 50.4297H44.2592C45.4753 50.4297 46.457 51.4114 46.457 52.6275V56.0847C46.457 57.3008 45.4753 58.2825 44.2592 58.2825H8.36186C7.1538 58.2825 6.16406 57.3008 6.16406 56.0847V52.6275C6.16406 51.4114 7.1538 50.4297 8.36186 50.4297H8.77944H43.8489Z" stroke="#402318" stroke-width="2" stroke-miterlimit="10" strokeLinecap="round" strokeLinejoin="round"/>
<path d="M8.78125 50.4291C8.78125 37.5052 23.675 36.385 23.675 29.6369C23.675 22.8976 8.78125 21.776 8.78125 8.85352" stroke="#402318" stroke-width="2" stroke-miterlimit="10" strokeLinecap="round" strokeLinejoin="round"/>
<path d="M43.8464 50.4291C43.8464 37.5052 28.9453 36.385 28.9453 29.6369C28.9453 22.8976 43.8464 21.776 43.8464 8.85352" stroke="#402318" stroke-width="2" stroke-miterlimit="10" strokeLinecap="round" strokeLinejoin="round"/>
</svg>
