<svg width="60" height="60" viewBox="0 0 60 60" fill="none" xmlns="http://www.w3.org/2000/svg">
<path d="M42.7338 7.66016H14.768C11.6644 7.66016 9.14844 10.1761 9.14844 13.2797V51.742C9.14844 54.8456 11.6644 57.3615 14.768 57.3615H42.7338C45.8374 57.3615 48.3533 54.8456 48.3533 51.742V13.2797C48.3533 10.1761 45.8374 7.66016 42.7338 7.66016Z" fill="#4D4C78"/>
<path d="M45.4297 52.1645V12.8542C45.4297 11.6015 44.4141 10.5859 43.1614 10.5859L14.3476 10.5859C13.0949 10.5859 12.0793 11.6015 12.0793 12.8542V52.1645C12.0793 53.4172 13.0949 54.4328 14.3476 54.4328H43.1614C44.4141 54.4328 45.4297 53.4172 45.4297 52.1645Z" fill="#C8C2E9"/>
<path d="M40.8225 51.9245C41.4241 51.9245 42.0011 51.6855 42.4264 51.2601C42.8518 50.8347 43.0908 50.2578 43.0908 49.6562V10.5859H43.1611C43.7626 10.5859 44.3396 10.8249 44.765 11.2503C45.1904 11.6757 45.4293 12.2526 45.4293 12.8542V52.1645C45.4293 52.7661 45.1904 53.343 44.765 53.7684C44.3396 54.1938 43.7626 54.4328 43.1611 54.4328H14.3464C13.7448 54.4328 13.1679 54.1938 12.7425 53.7684C12.3171 53.343 12.0781 52.7661 12.0781 52.1645V51.9245H40.8225Z" fill="#B9B1E0"/>
<path d="M40.8906 19.9637H17.4526C17.2973 19.9637 17.1484 19.902 17.0386 19.7923C16.9289 19.6825 16.8672 19.5336 16.8672 19.3783C16.8672 19.2231 16.9289 19.0742 17.0386 18.9644C17.1484 18.8546 17.2973 18.793 17.4526 18.793H40.8906C41.0459 18.793 41.1947 18.8546 41.3045 18.9644C41.4143 19.0742 41.476 19.2231 41.476 19.3783C41.476 19.5336 41.4143 19.6825 41.3045 19.7923C41.1947 19.902 41.0459 19.9637 40.8906 19.9637Z" fill="#4D4C78"/>
<path d="M33.4213 26.6942H17.4526C17.2973 26.6942 17.1484 26.6325 17.0386 26.5227C16.9289 26.4129 16.8672 26.2641 16.8672 26.1088C16.8672 25.9536 16.9289 25.8047 17.0386 25.6949C17.1484 25.5851 17.2973 25.5234 17.4526 25.5234H33.4213C33.5766 25.5234 33.7255 25.5851 33.8352 25.6949C33.945 25.8047 34.0067 25.9536 34.0067 26.1088C34.0067 26.2641 33.945 26.4129 33.8352 26.5227C33.7255 26.6325 33.5766 26.6942 33.4213 26.6942Z" fill="#4D4C78"/>
<path d="M35.4994 33.4168H17.4526C17.2973 33.4168 17.1484 33.3552 17.0386 33.2454C16.9289 33.1356 16.8672 32.9867 16.8672 32.8315C16.8672 32.6762 16.9289 32.5273 17.0386 32.4175C17.1484 32.3078 17.2973 32.2461 17.4526 32.2461H35.4994C35.6546 32.2461 35.8035 32.3078 35.9133 32.4175C36.0231 32.5273 36.0848 32.6762 36.0848 32.8315C36.0848 32.9867 36.0231 33.1356 35.9133 33.2454C35.8035 33.3552 35.6546 33.4168 35.4994 33.4168Z" fill="#4D4C78"/>
<path d="M27.3833 40.1473H17.4526C17.2973 40.1473 17.1484 40.0856 17.0386 39.9758C16.9289 39.8661 16.8672 39.7172 16.8672 39.5619C16.8672 39.4067 16.9289 39.2578 17.0386 39.148C17.1484 39.0382 17.2973 38.9766 17.4526 38.9766H27.3833C27.5385 38.9766 27.6874 39.0382 27.7972 39.148C27.907 39.2578 27.9687 39.4067 27.9687 39.5619C27.9687 39.7172 27.907 39.8661 27.7972 39.9758C27.6874 40.0856 27.5385 40.1473 27.3833 40.1473Z" fill="#4D4C78"/>
<path opacity="0.2" d="M48.3558 23.5172L47.3284 24.5445C47.2409 24.4915 47.1432 24.4576 47.0416 24.445C47.0121 24.3579 46.9631 24.2788 46.8982 24.2137L45.4114 22.7269C45.3543 22.6698 45.2865 22.6246 45.212 22.5937C45.1374 22.5628 45.0575 22.5469 44.9767 22.5469C44.896 22.5469 44.8161 22.5628 44.7415 22.5937C44.6669 22.6246 44.5992 22.6698 44.5421 22.7269L36.7626 30.5064C36.7057 30.5633 36.6606 30.6308 36.6298 30.7052C36.599 30.7795 36.5832 30.8592 36.5832 30.9396C36.5832 31.02 36.599 31.0997 36.6298 31.174C36.6606 31.2484 36.7057 31.3159 36.7626 31.3728C36.8195 31.4297 36.887 31.4748 36.9613 31.5056C37.0357 31.5364 37.1153 31.5522 37.1958 31.5522C37.2762 31.5522 37.3559 31.5364 37.4302 31.5056C37.5045 31.4748 37.5721 31.4297 37.6289 31.3728L44.9782 24.0264L46.0319 25.0801L39.4816 31.6274L38.905 32.2069L30.3411 40.7708L30.0426 41.0664C29.9393 41.1701 29.8713 41.3036 29.8482 41.4481C29.8251 41.5925 29.848 41.7406 29.9138 41.8713L28.0319 45.2547C27.827 45.6235 28.2309 46.0274 28.5967 45.8225L31.9831 43.9406C32.1142 44.0056 32.2623 44.0278 32.4067 44.0042C32.5511 43.9805 32.6844 43.9122 32.788 43.8089L41.3577 35.2391L42.227 34.3698L48.3558 28.2411V23.5172Z" fill="black"/>
<path d="M29.7081 41.0664L31.9413 43.2996L28.1335 45.4157C27.7823 45.6118 27.3959 45.2254 27.592 44.8742L29.7081 41.0664Z" fill="#4D4C78"/>
<path d="M50.7777 23.7543L49.2545 22.2311C49.1528 22.1293 48.9878 22.1293 48.8861 22.2311L45.9568 25.1604C45.8551 25.2621 45.8551 25.427 45.9568 25.5287L47.48 27.0519C47.5818 27.1537 47.7467 27.1537 47.8484 27.0519L50.7777 24.1227C50.8794 24.0209 50.8794 23.856 50.7777 23.7543Z" fill="#46A1F8"/>
<path d="M31.1844 43.4927L29.508 41.8164C29.3829 41.6912 29.3126 41.5215 29.3126 41.3445C29.3126 41.1675 29.3829 40.9978 29.508 40.8727L45.1892 25.1914C45.3155 25.0652 45.4867 24.9943 45.6652 24.9943C45.8438 24.9943 46.015 25.0652 46.1412 25.1914L47.8114 26.8616C47.9376 26.9878 48.0086 27.1591 48.0086 27.3376C48.0086 27.5161 47.9376 27.6874 47.8114 27.8136L32.1281 43.4969C32.003 43.622 31.8332 43.6923 31.6562 43.6923C31.4793 43.6923 31.3095 43.622 31.1844 43.4969V43.4927Z" fill="#67BAEB"/>
<path d="M47.5385 26.582L32.1346 41.9859C32.0095 42.1107 31.8401 42.1807 31.6634 42.1807C31.4867 42.1807 31.3173 42.1107 31.1922 41.9859L29.7961 40.5898L29.5151 40.8737C29.3904 40.9988 29.3203 41.1683 29.3203 41.345C29.3203 41.5216 29.3904 41.6911 29.5151 41.8162L31.1922 43.4933C31.3173 43.618 31.4867 43.6881 31.6634 43.6881C31.8401 43.6881 32.0095 43.618 32.1346 43.4933L47.8166 27.8113C47.8793 27.749 47.9291 27.6749 47.9631 27.5933C47.9971 27.5117 48.0146 27.4241 48.0146 27.3357C48.0146 27.2473 47.9971 27.1597 47.9631 27.0781C47.9291 26.9965 47.8793 26.9224 47.8166 26.8601L47.5385 26.582Z" fill="#46A1F8"/>
<path d="M41.1431 34.4789L38.5236 31.8594L37.6953 32.6877L40.3148 35.3072L41.1431 34.4789Z" fill="#4D4C78"/>
<path d="M36.3425 31.7875C36.2268 31.7868 36.1139 31.752 36.018 31.6875C35.922 31.6229 35.8471 31.5316 35.8028 31.4248C35.7584 31.318 35.7466 31.2005 35.7686 31.0869C35.7907 30.9734 35.8457 30.8689 35.9269 30.7865L43.3581 23.3553C43.4124 23.3008 43.477 23.2577 43.5481 23.2282C43.6191 23.1988 43.6953 23.1836 43.7722 23.1836C43.8491 23.1836 43.9253 23.1988 43.9964 23.2282C44.0674 23.2577 44.132 23.3008 44.1864 23.3553L45.6059 24.7777C45.6645 24.8311 45.7118 24.8958 45.7447 24.9679C45.7776 25.0401 45.7955 25.1182 45.7973 25.1974C45.7991 25.2767 45.7848 25.3555 45.7552 25.4291C45.7256 25.5027 45.6814 25.5695 45.6252 25.6254C45.5691 25.6814 45.5021 25.7254 45.4284 25.7547C45.3547 25.784 45.2759 25.798 45.1966 25.7959C45.1173 25.7939 45.0393 25.7757 44.9673 25.7425C44.8953 25.7094 44.8307 25.6619 44.7776 25.6031L43.7737 24.5992L36.7551 31.6148C36.7011 31.6693 36.6369 31.7127 36.566 31.7423C36.4952 31.772 36.4192 31.7873 36.3425 31.7875Z" fill="#4D4C78"/>
<path d="M27.3833 46.2098H17.4526C17.2973 46.2098 17.1484 46.1481 17.0386 46.0383C16.9289 45.9286 16.8672 45.7797 16.8672 45.6244C16.8672 45.4692 16.9289 45.3203 17.0386 45.2105C17.1484 45.1007 17.2973 45.0391 17.4526 45.0391H27.3833C27.5385 45.0391 27.6874 45.1007 27.7972 45.2105C27.907 45.3203 27.9687 45.4692 27.9687 45.6244C27.9687 45.7797 27.907 45.9286 27.7972 46.0383C27.6874 46.1481 27.5385 46.2098 27.3833 46.2098Z" fill="#4D4C78"/>
<path opacity="0.2" d="M17.4375 7.66016V10.7977C17.4383 11.5737 17.7469 12.3177 18.2956 12.8664C18.8443 13.4152 19.5883 13.7238 20.3643 13.7245H37.1409C37.9167 13.723 38.6602 13.4141 39.2088 12.8656C39.7573 12.317 40.0662 11.5735 40.0677 10.7977V7.66016H17.4375Z" fill="black"/>
<path d="M20.3657 5.82754C22.6764 5.82924 24.9073 4.98249 26.635 3.44803C27.2183 2.92799 27.9725 2.64062 28.754 2.64062C29.5355 2.64062 30.2897 2.92799 30.873 3.44803C32.6001 4.98344 34.8314 5.83033 37.1423 5.82754C37.5459 5.82754 37.933 5.98789 38.2185 6.27331C38.5039 6.55873 38.6642 6.94584 38.6642 7.34949V10.7973C38.6642 11.2009 38.5039 11.5881 38.2185 11.8735C37.933 12.1589 37.5459 12.3192 37.1423 12.3192H20.3657C19.9621 12.3192 19.5749 12.1589 19.2895 11.8735C19.0041 11.5881 18.8438 11.2009 18.8438 10.7973V7.34949C18.8438 6.94584 19.0041 6.55873 19.2895 6.27331C19.5749 5.98789 19.9621 5.82754 20.3657 5.82754Z" fill="#67BAEB"/>
<path d="M30.355 3.1321C29.3951 3.13123 28.4686 3.48451 27.753 4.12429C25.6348 6.00719 22.8983 7.04573 20.0642 7.04234C19.6156 7.04199 19.182 7.20419 18.8438 7.49893V7.34966C18.8438 6.94601 19.0041 6.5589 19.2895 6.27348C19.5749 5.98805 19.9621 5.82771 20.3657 5.82771C22.6764 5.82941 24.9073 4.98266 26.635 3.44819C27.152 2.98751 27.805 2.70776 28.4952 2.65126C29.1854 2.59475 29.8752 2.76457 30.4603 3.13502L30.355 3.1321Z" fill="#83D0FB"/>
<path d="M35.3521 11.1384C35.7557 11.1384 36.1428 10.978 36.4283 10.6926C36.7137 10.4072 36.874 10.0201 36.874 9.61641V6.16861C36.8739 6.05131 36.8602 5.93443 36.8331 5.82031L37.1433 5.82617C37.5469 5.82617 37.9341 5.98651 38.2195 6.27194C38.5049 6.55736 38.6652 6.94447 38.6652 7.34812V10.7959C38.6652 11.1996 38.5049 11.5867 38.2195 11.8721C37.9341 12.1575 37.5469 12.3179 37.1433 12.3179H20.3667C20.0224 12.3181 19.6882 12.2016 19.4187 11.9873C19.1492 11.7731 18.9603 11.4738 18.8828 11.1384H35.3521Z" fill="#46A1F8"/>
<path d="M44.4376 27.7855C44.6879 27.5352 44.6879 27.1293 44.4376 26.879C44.1873 26.6287 43.7815 26.6287 43.5311 26.879L40.2343 30.1759C39.984 30.4262 39.984 30.832 40.2343 31.0823C40.4846 31.3327 40.8905 31.3327 41.1408 31.0823L44.4376 27.7855Z" fill="#83D0FB"/>
<path d="M37.3751 34.8441C37.6254 34.5938 37.6254 34.1879 37.3751 33.9376C37.1248 33.6873 36.719 33.6873 36.4686 33.9376L33.1718 37.2345C32.9215 37.4848 32.9215 37.8906 33.1718 38.1409C33.4221 38.3912 33.828 38.3912 34.0783 38.1409L37.3751 34.8441Z" fill="#83D0FB"/>
<path d="M14.1123 23.5654C14.1123 23.0029 13.6569 22.5469 13.0952 22.5469C12.5335 22.5469 12.0781 23.0029 12.0781 23.5654V35.6392C12.0781 36.2017 12.5335 36.6577 13.0952 36.6577C13.6569 36.6577 14.1123 36.2017 14.1123 35.6392V23.5654Z" fill="#DFDAFD"/>
<path d="M14.1123 39.4053C14.1123 38.8427 13.6569 38.3867 13.0952 38.3867C12.5335 38.3867 12.0781 38.8427 12.0781 39.4053V42.6695C12.0781 43.2321 12.5335 43.6881 13.0952 43.6881C13.6569 43.6881 14.1123 43.2321 14.1123 42.6695V39.4053Z" fill="#DFDAFD"/>
</svg>
