<svg width="66" height="60" viewBox="0 0 66 60" fill="none" xmlns="http://www.w3.org/2000/svg">
<path d="M65.4937 7.49932C65.4937 11.6413 50.945 14.9986 32.9968 14.9986C15.0487 14.9986 0.5 11.6416 0.5 7.49932C0.5 3.35732 15.0487 0 32.9968 0C50.945 0 65.4937 3.35732 65.4937 7.49932Z" fill="#ED7161"/>
<path d="M32.9968 15.0035C15.0487 15.0035 0.5 11.6465 0.5 7.50419V22.5028C0.5 26.6448 15.0487 30.0021 32.9968 30.0021C50.945 30.0021 65.4937 26.6448 65.4937 22.5025V7.50391C65.4937 11.6462 50.945 15.0035 32.9968 15.0035Z" fill="#C9554C"/>
<path d="M32.9968 30.0032C15.0487 30.0032 0.5 26.6462 0.5 22.5039V37.5025C0.5 41.6445 15.0487 45.0019 32.9968 45.0019C50.945 45.0019 65.4937 41.6445 65.4937 37.5025V22.5039C65.4937 26.6462 50.945 30.0032 32.9968 30.0032Z" fill="#ECBA16"/>
<path d="M32.9968 45.0016C15.0487 45.0016 0.5 41.6445 0.5 37.5022V52.5009C0.5 56.6429 15.0487 60.0002 32.9968 60.0002C50.945 60.0002 65.4937 56.6429 65.4937 52.5006V37.502C65.4937 41.6442 50.945 45.0016 32.9968 45.0016Z" fill="#25AE88"/>
</svg>
