<svg width="89" height="60" viewBox="0 0 89 60" fill="none" xmlns="http://www.w3.org/2000/svg">
<path d="M15.6881 12.2148C7.3605 12.2148 0.609375 14.1658 0.609375 16.5726V23.7337C0.609375 26.1404 7.3605 28.0914 15.6881 28.0914C24.0157 28.0914 30.7668 26.1404 30.7668 23.7337V16.5726C30.7668 14.1658 24.0157 12.2148 15.6881 12.2148ZM15.6881 19.7739C8.22365 19.7739 2.17261 18.3405 2.17261 16.5725C2.17261 14.8045 8.22365 13.3711 15.6881 13.3711C23.1525 13.3711 29.2036 14.8045 29.2036 16.5725C29.2036 18.3405 23.1525 19.7739 15.6881 19.7739Z" fill="#23BDEE"/>
<path d="M30.7668 26.4199V33.5811C30.7668 35.9878 24.0159 37.9388 15.6881 37.9388C7.36027 37.9388 0.609375 35.9878 0.609375 33.5811V26.4199C0.609375 28.8267 7.36027 30.7776 15.6881 30.7776C24.0159 30.7776 30.7668 28.8267 30.7668 26.4199Z" fill="#23BDEE"/>
<path d="M30.7668 36.2656V43.4268C30.7668 45.8335 24.0159 47.7845 15.6881 47.7845C7.36027 47.7845 0.609375 45.8335 0.609375 43.4268V36.2656C0.609375 38.6724 7.36027 40.6233 15.6881 40.6233C24.0159 40.6233 30.7668 38.6724 30.7668 36.2656Z" fill="#23BDEE"/>
<path d="M73.3053 12.2148C64.9777 12.2148 58.2266 14.1658 58.2266 16.5726V23.7337C58.2266 26.1404 64.9777 28.0914 73.3053 28.0914C81.6328 28.0914 88.384 26.1404 88.384 23.7337V16.5726C88.3839 14.1658 81.6328 12.2148 73.3053 12.2148ZM73.3053 19.7739C65.8408 19.7739 59.7898 18.3405 59.7898 16.5725C59.7898 14.8045 65.8408 13.3711 73.3053 13.3711C80.7697 13.3711 86.8207 14.8045 86.8207 16.5725C86.8207 18.3405 80.7696 19.7739 73.3053 19.7739Z" fill="#23BDEE"/>
<path d="M88.384 26.4199V33.5811C88.384 35.9878 81.6331 37.9388 73.3053 37.9388C64.9775 37.9388 58.2266 35.9878 58.2266 33.5811V26.4199C58.2266 28.8267 64.9775 30.7776 73.3053 30.7776C81.6331 30.7776 88.384 28.8267 88.384 26.4199Z" fill="#23BDEE"/>
<path d="M88.384 36.2676V43.4287C88.384 45.8355 81.6331 47.7864 73.3053 47.7864C64.9775 47.7864 58.2266 45.8355 58.2266 43.4287V36.2676C58.2266 38.6743 64.9775 40.6253 73.3053 40.6253C81.6331 40.6253 88.384 38.6743 88.384 36.2676Z" fill="#23BDEE"/>
<path d="M31.3024 6.02521C30.5646 6.8244 30.1778 7.38325 30.1617 7.40665C29.9301 7.74322 30.0151 8.20334 30.3514 8.43538C30.4796 8.52393 30.626 8.56633 30.771 8.56633C31.006 8.56633 31.2373 8.45471 31.381 8.24692C31.3845 8.24195 31.7311 7.74388 32.3904 7.02968C32.6678 6.72922 32.6491 6.26081 32.3487 5.98347C32.0483 5.70613 31.5798 5.72485 31.3024 6.02521Z" fill="#00A7FF"/>
<path d="M34.5733 3.18093C34.1837 3.45116 33.7969 3.74096 33.4238 4.04213C33.1056 4.29896 33.0559 4.76509 33.3127 5.08332C33.459 5.26454 33.6732 5.35867 33.8893 5.35867C34.0526 5.35867 34.217 5.30495 34.3539 5.19437C34.6993 4.91556 35.057 4.64751 35.4173 4.3976C35.7533 4.16455 35.8367 3.7032 35.6036 3.36726C35.3705 3.03136 34.9094 2.94784 34.5733 3.18093Z" fill="#00A7FF"/>
<path d="M58.234 1.54844C57.8251 1.54844 57.4936 1.87994 57.4936 2.28884V5.80122C56.7275 4.99791 55.6416 3.99808 54.2506 3.05643C51.2548 1.0283 47.9746 0 44.5013 0C41.862 0 39.3084 0.603763 36.9112 1.79456C36.5449 1.97649 36.3956 2.42083 36.5774 2.78705C36.7593 3.15322 37.2036 3.30265 37.5699 3.12077C39.7606 2.03254 42.0926 1.48079 44.5013 1.48079C47.6733 1.48079 50.6742 2.42349 53.4205 4.28267C54.837 5.24157 55.9074 6.26072 56.6175 7.03054L52.7256 6.90035C52.3148 6.88638 51.9745 7.20692 51.9609 7.61559C51.9472 8.02426 52.2674 8.36664 52.6761 8.38034L58.2092 8.56544C58.2175 8.56572 58.2257 8.56586 58.234 8.56586C58.4257 8.56586 58.6104 8.49144 58.7487 8.35769C58.8929 8.21822 58.9744 8.02615 58.9744 7.82547V2.28884C58.9744 1.87994 58.6429 1.54844 58.234 1.54844Z" fill="#00A7FF"/>
<path d="M57.7063 53.9767C58.4441 53.1775 58.8309 52.6186 58.847 52.5952C59.0786 52.2587 58.9936 51.7985 58.6573 51.5665C58.5291 51.4779 58.3827 51.4355 58.2377 51.4355C58.0027 51.4355 57.7714 51.5472 57.6277 51.7549C57.6242 51.7599 57.2776 52.258 56.6183 52.9721C56.3409 53.2726 56.3596 53.741 56.66 54.0184C56.9604 54.2957 57.4289 54.277 57.7063 53.9767Z" fill="#00A7FF"/>
<path d="M54.436 56.8204C54.8255 56.5501 55.2123 56.2603 55.5854 55.9591C55.9036 55.7023 55.9533 55.2362 55.6965 54.9179C55.5502 54.7367 55.336 54.6426 55.1199 54.6426C54.9566 54.6426 54.7922 54.6963 54.6553 54.8069C54.3099 55.0857 53.9522 55.3537 53.5919 55.6037C53.2559 55.8367 53.1725 56.298 53.4056 56.634C53.6387 56.9699 54.0998 57.0535 54.436 56.8204Z" fill="#00A7FF"/>
<path d="M30.7716 58.453C31.1806 58.453 31.512 58.1215 31.512 57.7126V54.2001C32.2781 55.0035 33.364 56.0033 34.755 56.9449C37.7508 58.9731 41.031 60.0014 44.5043 60.0014C47.1436 60.0014 49.6973 59.3976 52.0945 58.2068C52.4607 58.0249 52.6101 57.5806 52.4282 57.2144C52.2463 56.8482 51.802 56.6988 51.4357 56.8806C49.2451 57.9689 46.913 58.5206 44.5043 58.5206C41.3323 58.5206 38.3314 57.5779 35.5851 55.7187C34.1687 54.7598 33.0982 53.7407 32.3882 52.9709L36.28 53.1011C36.6908 53.115 37.0311 52.7945 37.0448 52.3858C37.0584 51.9772 36.7382 51.6348 36.3296 51.6211L30.7964 51.436C30.7881 51.4357 30.7799 51.4355 30.7716 51.4355C30.5799 51.4355 30.3952 51.51 30.257 51.6437C30.1127 51.7832 30.0312 51.9753 30.0312 52.1759V57.7126C30.0312 58.1215 30.3627 58.453 30.7716 58.453Z" fill="#00A7FF"/>
</svg>
