<svg width="63" height="61" viewBox="0 0 63 61" fill="none" xmlns="http://www.w3.org/2000/svg">
<path d="M62.2958 26.6745C62.2958 33.882 56.4684 39.7294 49.2689 39.7606C49.2488 39.7617 49.2288 39.7617 49.2089 39.7617H14.5442V39.7395C14.2947 39.7552 14.0431 39.7617 13.7901 39.7617C6.56266 39.7617 0.703125 33.9019 0.703125 26.6745C0.703125 19.7332 6.10726 14.0538 12.9371 13.615C14.0509 9.94944 17.459 7.28083 21.4887 7.28083C22.5068 7.28083 23.4857 7.45117 24.398 7.76646C26.5399 3.45927 30.986 0.5 36.1217 0.5C43.3491 0.5 49.2087 6.35977 49.2087 13.5872C56.4361 13.5872 62.2958 19.447 62.2958 26.6745Z" fill="#F4F4F6"/>
<path d="M37.3937 35.4844V45.9051H42.9706L31.497 60.4994L20.0234 45.9051H25.6003V35.4844H37.3937Z" fill="#1BCD9A"/>
<path d="M37.3951 32.377H25.6016V34.7687H37.3951V32.377Z" fill="#1BCD9A"/>
<path opacity="0.8" d="M37.3951 29.2676H25.6016V31.6593H37.3951V29.2676Z" fill="#1BCD9A"/>
<path opacity="0.5" d="M37.3951 26.1602H25.6016V28.5519H37.3951V26.1602Z" fill="#1BCD9A"/>
</svg>
