<svg width="63" height="61" viewBox="0 0 63 61" fill="none" xmlns="http://www.w3.org/2000/svg">
<path d="M43.9706 29C43.7855 33.5196 42.7602 37.9108 40.9141 42.0921C43.3248 43.1815 45.5857 44.5588 47.66 46.2092C52.1124 41.48 54.6927 35.4585 55.0384 29.0004H43.9706V29Z" fill="#00A7FF"/>
<path d="M36.7863 43.6898C34.3203 42.8756 31.789 42.3956 29.2266 42.2617V52.9215C32.2698 50.3279 34.8385 47.1919 36.7863 43.6898Z" fill="#00A7FF"/>
<path d="M31.9453 54.514C36.9352 53.7413 41.6017 51.6002 45.4669 48.2966C43.6533 46.8955 41.6911 45.7156 39.6012 44.7793C37.6211 48.4357 35.0226 51.7352 31.9453 54.514Z" fill="#00A7FF"/>
<path d="M44.291 5.77343C40.674 3.01547 36.4312 1.20489 31.9609 0.501953C34.6343 2.91086 36.9501 5.70666 38.7955 8.76175C40.7434 7.96125 42.5806 6.95859 44.291 5.77343Z" fill="#00A7FF"/>
<path d="M29.2266 29V39.264C32.2523 39.4068 35.2388 39.9851 38.1377 40.9856C39.8425 37.1563 40.7958 33.1364 40.9809 29H29.2266Z" fill="#00A7FF"/>
<path d="M29.2269 26.0068H40.9802C40.7669 21.2917 39.5499 16.6524 37.4177 12.4414C34.7291 13.2998 31.9841 13.7987 29.2266 13.9315L29.2269 26.0068Z" fill="#00A7FF"/>
<path d="M55.0412 26.0067C54.6603 19.1075 51.6545 12.5912 46.6353 7.7793C44.6571 9.22412 42.5116 10.4319 40.2344 11.3953C42.4838 15.9426 43.7617 20.9363 43.9723 26.0067H55.0412Z" fill="#00A7FF"/>
<path d="M29.2266 2.08203V10.9342C31.4708 10.8148 33.7064 10.4242 35.9068 9.77206C34.0981 6.90318 31.8317 4.29731 29.2266 2.08203Z" fill="#00A7FF"/>
<path d="M14.5384 42.0921C12.6922 37.9108 11.6669 33.5199 11.4818 29H0.414062C0.75978 35.4574 3.34005 41.4789 7.79357 46.2088C9.86602 44.5592 12.1265 43.1819 14.5384 42.0921Z" fill="#00A7FF"/>
<path d="M11.4833 26.0067C11.694 20.9363 12.9723 15.9426 15.2213 11.3953C12.9437 10.4319 10.7986 9.22412 8.81996 7.7793C3.80075 12.5908 0.795019 19.1072 0.414062 26.0067H11.4833Z" fill="#00A7FF"/>
<path d="M19.5547 9.77206C21.7551 10.4242 23.9911 10.8148 26.2353 10.9342V2.08203C23.6313 4.29656 21.3645 6.90281 19.5547 9.77206Z" fill="#00A7FF"/>
<path d="M26.2328 52.9223V42.2617C23.6696 42.3956 21.1379 42.8756 18.6719 43.6898C20.6201 47.1927 23.1888 50.329 26.2328 52.9223Z" fill="#00A7FF"/>
<path d="M26.2324 29H14.4766C14.6617 33.1368 15.615 37.1563 17.3198 40.9856C20.2191 39.9851 23.2056 39.4064 26.2321 39.264V29H26.2324Z" fill="#00A7FF"/>
<path d="M9.99219 48.2966C13.857 51.6002 18.5235 53.7417 23.5137 54.514C20.4357 51.7352 17.8376 48.4361 15.8571 44.7793C13.7665 45.7163 11.8042 46.8959 9.99219 48.2966Z" fill="#00A7FF"/>
<path d="M26.2313 13.9315C23.473 13.7987 20.728 13.2998 18.0391 12.4414C15.9069 16.652 14.6902 21.2917 14.4766 26.0068H26.231V13.9315H26.2313Z" fill="#00A7FF"/>
<path d="M23.5027 0.5C19.0321 1.20257 14.7889 3.01351 11.1719 5.77148C12.8823 6.95664 14.7196 7.95967 16.6677 8.7598C18.5139 5.70434 20.8301 2.90854 23.5027 0.5Z" fill="#00A7FF"/>
<path d="M57.1062 60.5003C56.4522 60.5003 55.8183 60.1538 55.4804 59.541L52.649 54.4094L50.2805 55.7162C49.743 56.013 49.0928 56.0241 48.5441 55.7455C47.9963 55.4673 47.622 54.9354 47.5448 54.3256L45.3351 36.9064C45.2394 36.1527 45.6133 35.4164 46.2792 35.0491C46.9443 34.6823 47.7667 34.7576 48.3539 35.2413L61.911 46.3996C62.3855 46.7902 62.6355 47.3904 62.5791 48.0021C62.5227 48.6141 62.1666 49.1583 61.6284 49.4554L59.2595 50.7623L62.0905 55.8939C62.5854 56.7909 62.2593 57.9189 61.3624 58.4137L58.0002 60.2688C57.7164 60.4261 57.4093 60.5003 57.1062 60.5003ZM53.3771 50.0349C53.55 50.0349 53.7232 50.0586 53.892 50.1076C54.3646 50.2441 54.7637 50.5631 55.0011 50.9937L57.8325 56.1254L57.9468 56.062L55.1157 50.9307C54.6209 50.0341 54.947 48.9057 55.8435 48.4109L57.4441 47.5277L49.6024 41.0736L50.8803 51.1484L52.4806 50.2656C52.758 50.1128 53.0667 50.0349 53.3771 50.0349Z" fill="black"/>
<path d="M60.7287 47.8325L47.1719 36.6738L49.3816 54.0933L53.3736 51.8903L57.1009 58.6459L60.4634 56.7908L56.7362 50.0356L60.7287 47.8325Z" fill="#00A7FF"/>
</svg>
