<svg width="63" height="60" viewBox="0 0 63 60" fill="none" xmlns="http://www.w3.org/2000/svg">
<path d="M43.9745 28.5C43.7894 33.0196 42.7641 37.4108 40.918 41.5921C43.3287 42.6815 45.5896 44.0588 47.6639 45.7092C52.1163 40.98 54.6966 34.9585 55.0423 28.5004H43.9745V28.5Z" fill="#00A7FF"/>
<path d="M36.7863 43.1898C34.3203 42.3756 31.789 41.8956 29.2266 41.7617V52.4215C32.2698 49.8279 34.8385 46.6919 36.7863 43.1898Z" fill="#00A7FF"/>
<path d="M31.9492 54.014C36.9391 53.2413 41.6056 51.1002 45.4708 47.7966C43.6572 46.3955 41.695 45.2156 39.6051 44.2793C37.625 47.9357 35.0265 51.2352 31.9492 54.014Z" fill="#00A7FF"/>
<path d="M44.291 5.27343C40.674 2.51547 36.4312 0.704891 31.9609 0.00195312C34.6343 2.41086 36.9501 5.20666 38.7955 8.26175C40.7434 7.46125 42.5806 6.45859 44.291 5.27343Z" fill="#00A7FF"/>
<path d="M29.2266 28.5V38.764C32.2523 38.9068 35.2388 39.4851 38.1377 40.4855C39.8425 36.6563 40.7958 32.6364 40.9809 28.5H29.2266Z" fill="#00A7FF"/>
<path d="M29.2269 25.5068H40.9802C40.7669 20.7917 39.5499 16.1524 37.4177 11.9414C34.7291 12.7998 31.9841 13.2987 29.2266 13.4315L29.2269 25.5068Z" fill="#00A7FF"/>
<path d="M55.0412 25.5067C54.6603 18.6075 51.6545 12.0912 46.6353 7.2793C44.6571 8.72412 42.5116 9.93191 40.2344 10.8953C42.4838 15.4426 43.7617 20.4363 43.9723 25.5067H55.0412Z" fill="#00A7FF"/>
<path d="M29.2266 1.58203V10.4342C31.4708 10.3148 33.7064 9.92418 35.9068 9.27206C34.0981 6.40318 31.8317 3.79731 29.2266 1.58203Z" fill="#00A7FF"/>
<path d="M14.5423 41.5921C12.6961 37.4108 11.6708 33.0199 11.4857 28.5H0.417969C0.763686 34.9574 3.34395 40.9789 7.79747 45.7088C9.86992 44.0592 12.1304 42.6819 14.5423 41.5921Z" fill="#00A7FF"/>
<path d="M11.4833 25.5067C11.694 20.4363 12.9723 15.4426 15.2213 10.8953C12.9437 9.93191 10.7986 8.72412 8.81996 7.2793C3.80076 12.0908 0.795019 18.6072 0.414062 25.5067H11.4833Z" fill="#00A7FF"/>
<path d="M19.5547 9.27206C21.7551 9.92418 23.9911 10.3148 26.2353 10.4342V1.58203C23.6313 3.79656 21.3645 6.40281 19.5547 9.27206Z" fill="#00A7FF"/>
<path d="M26.2328 52.4223V41.7617C23.6696 41.8956 21.1379 42.3756 18.6719 43.1898C20.6201 46.6927 23.1888 49.829 26.2328 52.4223Z" fill="#00A7FF"/>
<path d="M26.2324 28.5H14.4766C14.6617 32.6368 15.615 36.6563 17.3198 40.4855C20.2191 39.4851 23.2056 38.9064 26.2321 38.764V28.5H26.2324Z" fill="#00A7FF"/>
<path d="M9.98828 47.7966C13.8531 51.1002 18.5196 53.2417 23.5098 54.014C20.4318 51.2352 17.8337 47.9361 15.8532 44.2793C13.7626 45.2163 11.8003 46.3959 9.98828 47.7966Z" fill="#00A7FF"/>
<path d="M26.2352 13.4315C23.4769 13.2987 20.7319 12.7998 18.043 11.9414C15.9108 16.152 14.6941 20.7917 14.4805 25.5068H26.2349V13.4315H26.2352Z" fill="#00A7FF"/>
<path d="M23.4988 0C19.0282 0.702567 14.785 2.51351 11.168 5.27148C12.8784 6.45664 14.7156 7.45967 16.6638 8.2598C18.51 5.20434 20.8262 2.40854 23.4988 0Z" fill="#00A7FF"/>
<path d="M57.1023 60.0003C56.4483 60.0003 55.8144 59.6538 55.4765 59.041L52.6451 53.9094L50.2766 55.2162C49.7391 55.513 49.0889 55.5241 48.5402 55.2455C47.9924 54.9673 47.6181 54.4354 47.5409 53.8256L45.3312 36.4064C45.2355 35.6527 45.6094 34.9164 46.2753 34.5491C46.9404 34.1823 47.7627 34.2576 48.3499 34.7413L61.9071 45.8996C62.3815 46.2902 62.6316 46.8904 62.5752 47.5021C62.5188 48.1141 62.1627 48.6583 61.6244 48.9554L59.2556 50.2623L62.0866 55.3939C62.5815 56.2909 62.2554 57.4189 61.3585 57.9137L57.9963 59.7688C57.7125 59.9261 57.4054 60.0003 57.1023 60.0003ZM53.3732 49.5349C53.5461 49.5349 53.7193 49.5586 53.8881 49.6076C54.3607 49.7441 54.7598 50.0631 54.9972 50.4937L57.8286 55.6254L57.9429 55.562L55.1118 50.4307C54.617 49.5341 54.9431 48.4057 55.8396 47.9109L57.4402 47.0277L49.5985 40.5736L50.8764 50.6484L52.4767 49.7656C52.7541 49.6128 53.0628 49.5349 53.3732 49.5349Z" fill="black"/>
<path d="M60.7287 47.3325L47.1719 36.1738L49.3816 53.5933L53.3736 51.3903L57.1009 58.1459L60.4634 56.2908L56.7362 49.5356L60.7287 47.3325Z" fill="#00A7FF"/>
</svg>
