<svg width="61" height="60" viewBox="0 0 61 60" fill="none" xmlns="http://www.w3.org/2000/svg">
<g clip-path="url(#clip0_7051_56504)">
<path d="M50.5 30.5C55.7239 30.5 60 34.7761 60 40V50.0166C60 51.5704 58.7273 52.8328 57.167 52.833H51V40C51 36.6495 50.1872 33.49 48.7559 30.6924C49.3278 30.5739 49.9055 30.5 50.5 30.5ZM10.5 30.5C11.0942 30.5 11.6715 30.574 12.2432 30.6924C10.8121 33.4872 10 36.6469 10 40V52.833H3.83301C2.2727 52.8328 1 51.5704 1 50.0166V40C1 34.7761 5.27614 30.5 10.5 30.5ZM50.7148 10.5C53.8598 10.5089 56.4796 13.1629 56.6543 16.5703L56.6631 16.9023V19.7666C56.6564 23.33 53.9683 26.1579 50.7217 26.167H50.2744C47.1297 26.158 44.5111 23.5039 44.3418 20.0977L44.333 19.7656V16.9014C44.3421 13.4482 46.8632 10.6861 49.9756 10.5088L50.2783 10.5H50.7148ZM10.7256 10.5L11.0283 10.5088C14.0369 10.6808 16.4946 13.2728 16.6582 16.5693L16.667 16.9014V19.7666C16.657 23.3304 13.9712 26.1579 10.7217 26.167H10.2744C7.12967 26.158 4.51106 23.5039 4.3418 20.0977L4.33301 19.7656V16.9004L4.3418 16.5693C4.5027 13.2733 6.96251 10.6808 9.97168 10.5088L10.2744 10.5H10.7256ZM30.832 0.5L31.3037 0.512695C35.986 0.758422 39.7388 4.51317 39.9873 9.19629L40 9.66797V13.667C39.9865 18.7244 35.8897 22.8204 30.832 22.833H30.168C25.2679 22.8208 21.2693 18.9757 21.0127 14.1367L21 13.665V9.66797C21.0092 4.76847 24.857 0.769444 29.6963 0.512695L30.168 0.5H30.832Z" fill="#0076BE" stroke="white"/>
<path d="M30.4971 27.167C37.5543 27.167 43.3311 32.9428 43.3311 40V53.333C43.3311 56.7235 40.5546 59.5 37.1641 59.5H23.8311C20.4405 59.5 17.6641 56.7235 17.6641 53.333V40C17.6641 32.9429 23.44 27.1672 30.4971 27.167ZM30.8301 0.5L31.3008 0.512695C35.9832 0.758265 39.7359 4.51307 39.9844 9.19629L39.9971 9.66797V13.667C39.9836 18.7244 35.8867 22.8204 30.8291 22.833H30.165C25.2651 22.8206 21.2673 18.9756 21.0107 14.1367L20.9971 13.665V9.66797C21.0063 4.76826 24.8548 0.769121 29.6943 0.512695L30.165 0.5H30.8301Z" fill="#0076BE" stroke="white"/>
</g>
<defs>
<clipPath id="clip0_7051_56504">
<rect width="60" height="60" fill="white" transform="translate(0.5)"/>
</clipPath>
</defs>
</svg>
