<svg width="85" height="62" viewBox="0 0 85 62" fill="none" xmlns="http://www.w3.org/2000/svg">
<path d="M27.0315 13.5536C29.1466 12.4376 30.589 10.2187 30.589 7.66121C30.589 3.98231 27.6063 1 23.9273 1C20.2488 1 17.2656 3.98231 17.2656 7.66121C17.2656 10.2187 18.7089 12.4376 20.8236 13.5536C15.3483 16.1043 11.2969 20.8026 11.2969 31.6885C11.2969 32.3011 11.314 32.9056 11.3389 33.5065H36.5162C36.5411 32.9056 36.5578 32.3011 36.5578 31.6885C36.5582 20.8026 32.5068 16.1043 27.0315 13.5536Z" fill="#35C89E" stroke="black" stroke-miterlimit="10" strokeLinecap="round" strokeLinejoin="round"/>
<path d="M64.1722 13.5536C66.2868 12.4376 67.7306 10.2187 67.7306 7.66121C67.7306 3.98231 64.7482 1 61.0684 1C57.389 1 54.4062 3.98231 54.4062 7.66121C54.4062 10.2187 55.8495 12.4376 57.9642 13.5536C52.4902 16.1043 48.4375 20.8026 48.4375 31.6885C48.4375 32.3011 48.4538 32.9056 48.4804 33.5065H73.6564C73.683 32.9056 73.6993 32.3011 73.6993 31.6885C73.6988 20.8026 69.6465 16.1043 64.1722 13.5536Z" fill="#35C89E" stroke="black" stroke-miterlimit="10" strokeLinecap="round" strokeLinejoin="round"/>
<path d="M45.6878 20.5208C47.8024 19.4048 49.2457 17.1864 49.2457 14.6285C49.2457 10.9496 46.263 7.9668 42.584 7.9668C38.9046 7.9668 35.9219 10.9491 35.9219 14.6285C35.9219 17.1864 37.3652 19.4048 39.4798 20.5208C34.005 23.0716 29.9531 27.7698 29.9531 38.6558C29.9531 39.2688 29.9694 39.8733 29.9956 40.4742H55.1725C55.1978 39.8733 55.2145 39.2688 55.2145 38.6558C55.2145 27.7698 51.1622 23.0716 45.6878 20.5208Z" fill="#FCBF0F" stroke="black" stroke-miterlimit="10" strokeLinecap="round" strokeLinejoin="round"/>
<path d="M37.4219 50.9777L42.5857 45.8145L47.7494 50.9777" stroke="white" stroke-width="1.5" stroke-miterlimit="10" strokeLinecap="round" strokeLinejoin="round"/>
<path d="M64.0859 48.257L64.2755 40.957L71.5756 41.1466" stroke="white" stroke-width="1.5" stroke-miterlimit="10" strokeLinecap="round" strokeLinejoin="round"/>
<path d="M20.9037 48.257L20.7141 40.957L13.4141 41.1466" stroke="white" stroke-width="1.5" stroke-miterlimit="10" strokeLinecap="round" strokeLinejoin="round"/>
<path d="M42.5859 45.8145V60.9996" stroke="white" stroke-width="1.5" stroke-miterlimit="10" strokeLinecap="round" strokeLinejoin="round"/>
<path d="M64.2812 40.957L83.3089 60.9998" stroke="white" stroke-width="1.5" stroke-miterlimit="10" strokeLinecap="round" strokeLinejoin="round"/>
<path d="M20.7151 40.957L1.6875 60.9998" stroke="white" stroke-width="1.5" stroke-miterlimit="10" strokeLinecap="round" strokeLinejoin="round"/>
</svg>
