<svg width="1440" height="398" viewBox="0 0 1440 398" fill="none" xmlns="http://www.w3.org/2000/svg">
<path d="M1440 398L0 398L4.04495e-05 1.3782e-05L1440 0.00012207L1440 398Z" fill="url(#paint0_linear_3893_14539)"/>
<mask id="mask0_3893_14539" style="mask-type:luminance" maskUnits="userSpaceOnUse" x="0" y="0" width="499" height="398">
<path d="M498.799 0H0V398H498.799V0Z" fill="white"/>
</mask>
<g mask="url(#mask0_3893_14539)">
<g opacity="0.25">
<path d="M150.948 290.437L37.002 347.653L38.2589 276.141L150.948 290.437ZM37.9197 346.316L148.414 290.851L39.1767 276.984L37.9197 346.316Z" fill="#0C65B2"/>
<path d="M157.797 245.854L150.035 291.066L149.616 291.019L36.748 276.691L157.797 245.854ZM149.277 290.223L156.679 246.904L40.6786 276.436L149.277 290.223Z" fill="#0C65B2"/>
<path d="M158.873 246.359L38.5229 277.02L38.3434 276.782L-11.4368 211.621L158.873 246.359ZM38.902 276.161L155.601 246.438L-9.48147 212.767L38.902 276.161Z" fill="#0C65B2"/>
<path d="M288.019 149.628L287.481 150.026L156.875 247.154L144.146 112.057L288.019 149.628ZM157.633 245.61L286.244 149.93L145.163 113.091L157.633 245.61Z" fill="#0C65B2"/>
<path d="M501.733 241.656L392.017 295.975L391.558 295.37L501.254 241.035L501.733 241.656Z" fill="#0C65B2"/>
<path d="M502.731 241.158L389.843 297.085L452.113 233.914L452.392 233.946L502.731 241.158ZM393.733 294.283L500.237 241.54L452.492 234.694L393.733 294.283Z" fill="#0C65B2"/>
<path d="M288.082 150.41L144.009 112.791L200.114 19.2129L288.082 150.41ZM145.266 112.361L286.187 149.184L200.114 20.8049L145.266 112.361Z" fill="#0C65B2"/>
<path d="M287.551 149.709L286.713 149.98L199.423 19.7382L234.518 14.5801L234.618 14.8985L287.551 149.709ZM200.8 20.2794L285.196 146.207L233.84 15.4079L200.8 20.2794Z" fill="#0C65B2"/>
<path d="M200.547 20.1848L144.801 113.174L127.662 100.533L199.729 19.8027L200.547 20.1848ZM144.522 111.98L197.454 23.6395L128.859 100.469L144.522 111.98Z" fill="#0C65B2"/>
<path d="M200.944 19.7047L127.82 101.613L125.246 12.5566L125.765 12.6044L200.944 19.7047ZM128.698 99.3843L199.308 20.2938L126.204 13.3686L128.698 99.3843Z" fill="#0C65B2"/>
<path d="M283.152 -59.207L234.49 15.3304L234.25 15.3463L198.975 20.5522L283.152 -59.207ZM233.911 14.6777L278.504 -53.6828L201.29 19.4696L233.911 14.6777Z" fill="#0C65B2"/>
<path d="M202.26 20.5855L125.246 13.2941L126.563 -14.8047L202.26 20.5855ZM126.204 12.6732L198.011 19.4552L127.421 -13.5629L126.204 12.6732Z" fill="#0C65B2"/>
<path d="M282.252 -57.2168L200.229 20.4887L199.89 20.3295L125.908 -14.2646L126.866 -14.5353L282.252 -57.2168ZM200.01 19.5335L279.399 -55.6566L128.103 -14.1054L200.01 19.5335Z" fill="#0C65B2"/>
<path d="M128.708 100.82L49.1597 109.035L49.6585 108.366L126.134 11.7793L128.708 100.82ZM50.9952 108.079L127.77 100.199L125.296 14.1991L50.9952 108.079Z" fill="#0C65B2"/>
<path d="M157.854 246.889L-11.3586 212.374L-10.7401 211.912L128.584 111.871L157.854 246.889ZM-9.52306 211.992L156.697 245.886L127.966 113.272L-9.52306 211.992Z" fill="#0C65B2"/>
<path d="M157.708 246.355L156.811 246.451L127.721 112.182H145.079L157.708 246.355ZM128.798 112.93L156.092 238.857L144.201 112.93H128.798Z" fill="#0C65B2"/>
<path d="M129.373 112.277L128.535 112.834L-11.8066 213.64L49.7851 108.17L50.1242 108.186L129.373 112.277ZM-9.11313 210.695L127.139 112.866L50.3437 108.918L-9.11313 210.695Z" fill="#0C65B2"/>
<path d="M145.835 112.945H127.798V99.6836L145.835 112.945ZM128.716 112.197H143.461L128.716 101.339V112.197Z" fill="#0C65B2"/>
<path d="M128.708 100.088V112.951L50.0572 108.892L50.0173 108.191L128.708 100.088ZM127.79 112.171V100.9L54.8058 108.43L127.79 112.171Z" fill="#0C65B2"/>
<path d="M204.939 299.214L149.173 290.935L156.954 245.42L204.939 299.214ZM150.23 290.346L202.884 298.179L157.553 247.346L150.23 290.346Z" fill="#0C65B2"/>
<path d="M288.457 148.312L204.001 299.441L156.655 246.332L156.974 246.109L288.457 148.312ZM203.821 297.992L285.804 151.305L157.872 246.443L203.821 297.992Z" fill="#0C65B2"/>
<path d="M338.554 117.436L283.946 152.301L323.53 114.141L338.554 117.436ZM290.33 147.302L336.579 117.754L323.87 115L290.33 147.302Z" fill="#0C65B2"/>
<path d="M324.257 114.566L286.927 150.513L286.688 149.876L232.877 12.9004L324.257 114.566ZM287.306 149.032L323.12 114.55L235.471 17.0396L287.306 149.032Z" fill="#0C65B2"/>
<path d="M431.271 -38.195L337.816 118.028L323.031 114.828L430.513 -38.5293L431.271 -38.195ZM337.317 117.152L424.367 -28.3405L324.368 114.335L337.317 117.152Z" fill="#0C65B2"/>
<path d="M431.865 -38.9961L323.765 115.253L233.443 14.7657L234.021 14.6065L431.865 -38.9961ZM323.645 113.9L429.89 -37.7066L234.899 15.1637L323.645 113.9Z" fill="#0C65B2"/>
<path d="M432.787 -38.4715L431.031 -38.0098L233.247 15.6088L280.573 -56.875L280.893 -56.8113L432.787 -38.4715ZM235.083 14.3352L428.956 -38.2008L281.072 -56.0631L235.083 14.3352Z" fill="#0C65B2"/>
<path d="M80.9185 427.608L43.3689 447.253L36.8845 344.951L80.9185 427.608ZM44.2268 445.964L79.7812 427.353L38.0617 349.043L44.2268 445.964Z" fill="#0C65B2"/>
<path d="M150.651 289.76L80.34 428.455L36.9045 346.865L150.651 289.76ZM80.32 426.56L148.735 291.591L38.0418 347.151L80.32 426.56Z" fill="#0C65B2"/>
<path d="M204.715 298.473L78.6587 429.86L149.408 290.258L204.715 298.473ZM82.0106 425.148L203.059 298.966L149.967 291.086L82.0106 425.148Z" fill="#0C65B2"/>
<path d="M509.63 158.389L501.909 241.794L451.55 234.582L509.63 158.389ZM501.071 240.934L508.453 161.35L453.047 234.056L501.071 240.934Z" fill="#0C65B2"/>
<path d="M477.077 453.923L476.339 454.018L299.066 475.224L299.285 474.667L363.93 323.061L477.077 453.923ZM300.423 474.332L475.501 453.382L364.209 324.668L300.423 474.332Z" fill="#0C65B2"/>
<path d="M476.644 453.432L475.905 453.846L363.676 324.05L364.454 323.652L476.644 453.432Z" fill="#0C65B2"/>
<path d="M365.875 323.771L275.672 346.378L202.209 298.061L365.875 323.771ZM275.852 345.566L362.204 323.931L205.561 299.334L275.852 345.566Z" fill="#0C65B2"/>
<path d="M392.146 295.911L364.413 324.057L363.715 323.612L391.448 295.449L392.146 295.911Z" fill="#0C65B2"/>
<path d="M392.752 295.324L364.24 324.267L363.941 324.219L199.657 298.413L392.752 295.324ZM363.841 323.455L390.836 296.072L208.156 299.002L363.841 323.455Z" fill="#0C65B2"/>
<path d="M365.065 322.596L364.506 323.965L299.802 475.762L257.583 402.243L365.065 322.596ZM299.662 473.804L363.05 325.095L258.701 402.403L299.662 473.804Z" fill="#0C65B2"/>
<path d="M258.791 402.61L79.2629 428.019L79.9812 427.27L204.023 298L258.791 402.61ZM81.4178 426.984L257.494 402.053L203.803 299.449L81.4178 426.984Z" fill="#0C65B2"/>
<path d="M365.849 323.029L257.331 403.425L275.407 345.699L365.849 323.029ZM258.947 401.228L362.258 324.669L276.145 346.257L258.947 401.228Z" fill="#0C65B2"/>
<path d="M276.297 345.85L258.241 403.48L202.774 297.469L276.297 345.85ZM258.021 401.156L275.26 346.104L205.029 299.92L258.021 401.156Z" fill="#0C65B2"/>
<path d="M459.137 74.5428L458.798 74.6542L336.612 118.323L337.151 117.431L431.064 -39.4922L459.137 74.5428ZM338.487 116.858L458.079 74.097L430.685 -37.1997L338.487 116.858Z" fill="#0C65B2"/>
<path d="M392.339 296.059H391.801L202.716 299.084L369.415 177.232L369.574 177.917L392.339 296.059ZM205.09 298.32L391.262 295.327L368.756 178.681L205.09 298.32Z" fill="#0C65B2"/>
<path d="M369.916 177.853L369.397 178.219L202.599 300.135L286.916 149.309L369.916 177.853ZM205.212 297.237L368.26 178.092L287.335 150.28L205.212 297.237Z" fill="#0C65B2"/>
<path d="M452.946 234.275L452.647 234.545L391.494 296.602L368.45 177.074L452.946 234.275ZM392.053 294.819L451.669 234.37L369.707 178.889L392.053 294.819Z" fill="#0C65B2"/>
<path d="M509.737 160.152L509.138 160.232L368.138 178.46L368.736 177.791L458.72 73.627L509.737 160.152ZM370.053 177.489L508.4 159.595L458.56 75.0916L370.053 177.489Z" fill="#0C65B2"/>
<path d="M369.944 178.662L286.265 149.879L337.761 117.004L369.944 178.662ZM288.021 149.704L368.268 177.261L337.402 118.182L288.021 149.704Z" fill="#0C65B2"/>
<path d="M459.927 73.4727L459.029 74.5393L369.006 178.72L368.667 178.083L336.963 117.412L337.382 117.253L459.927 73.4727ZM369.205 177.223L457.353 75.2079L338.16 117.794L369.205 177.223Z" fill="#0C65B2"/>
<path d="M156.374 238.424C161.263 238.424 165.193 241.592 165.193 245.476C165.193 249.361 161.263 252.513 156.374 252.513C151.506 252.513 147.536 249.361 147.536 245.476C147.536 241.592 151.506 238.424 156.374 238.424Z" fill="#0C65B2"/>
<path d="M36.8147 340.754C40.6853 340.754 43.8378 343.269 43.8378 346.358C43.8378 349.43 40.7053 351.962 36.8147 351.962C32.9639 351.962 29.8115 349.446 29.8115 346.358C29.8115 343.285 32.944 340.754 36.8147 340.754Z" fill="#0C65B2"/>
<path d="M149.619 287.086C152.353 287.086 154.528 288.837 154.528 291.034C154.528 293.199 152.353 294.966 149.619 294.966C146.886 294.966 144.671 293.199 144.671 291.034C144.671 288.853 146.886 287.086 149.619 287.086Z" fill="#0C65B2"/>
<path d="M38.325 273C41.0585 273 43.2731 274.751 43.2731 276.932C43.2731 279.129 41.0585 280.864 38.325 280.864C35.6116 280.864 33.377 279.129 33.377 276.932C33.377 274.767 35.6116 273 38.325 273Z" fill="#0C65B2"/>
<path d="M126.58 6.80859C130.41 6.80859 133.583 9.30803 133.583 12.4124C133.583 15.485 130.43 18.0004 126.58 18.0004C122.709 18.0004 119.537 15.5009 119.537 12.4124C119.537 9.30803 122.689 6.80859 126.58 6.80859Z" fill="#0C65B2"/>
<path d="M274.351 338.391C279.24 338.391 283.17 341.559 283.17 345.443C283.17 349.328 279.24 352.496 274.351 352.496C269.483 352.496 265.552 349.328 265.552 345.443C265.552 341.559 269.483 338.391 274.351 338.391Z" fill="#0C65B2"/>
<path d="M362.937 319.797C366.169 319.797 368.783 321.898 368.783 324.477C368.783 327.056 366.169 329.158 362.937 329.158C359.704 329.158 357.051 327.056 357.051 324.477C357.051 321.898 359.684 319.797 362.937 319.797Z" fill="#0C65B2"/>
<path d="M368.119 173.781C371.331 173.781 373.985 175.883 373.985 178.446C373.985 181.057 371.331 183.158 368.119 183.158C364.867 183.158 362.253 181.057 362.253 178.446C362.253 175.883 364.867 173.781 368.119 173.781Z" fill="#0C65B2"/>
<path d="M458.779 69.3691C462.011 69.3691 464.665 71.4706 464.665 74.0655C464.665 76.6287 462.011 78.7301 458.779 78.7301C455.547 78.7301 452.933 76.6287 452.933 74.0655C452.933 71.4706 455.547 69.3691 458.779 69.3691Z" fill="#0C65B2"/>
<path d="M337.119 113.305C340.371 113.305 343.005 115.39 343.005 117.969C343.005 120.564 340.371 122.65 337.119 122.65C333.887 122.65 331.273 120.564 331.273 117.969C331.293 115.39 333.887 113.305 337.119 113.305Z" fill="#0C65B2"/>
<path d="M235.256 10.5703C238.508 10.5703 241.122 12.6718 241.122 15.2508C241.122 17.8298 238.508 19.9313 235.256 19.9313C232.023 19.9313 229.37 17.8298 229.37 15.2508C229.37 12.6718 232.023 10.5703 235.256 10.5703Z" fill="#0C65B2"/>
<path d="M51.2846 103.664C54.5367 103.664 57.1505 105.765 57.1505 108.329C57.1505 110.924 54.5367 113.025 51.2846 113.025C48.0524 113.025 45.4187 110.924 45.4187 108.329C45.4187 105.765 48.0524 103.664 51.2846 103.664Z" fill="#0C65B2"/>
<path d="M128.5 96.6367C131.772 96.6367 134.406 98.7382 134.406 101.301C134.406 103.896 131.772 105.998 128.5 105.998C125.287 105.998 122.654 103.896 122.654 101.301C122.654 98.7382 125.287 96.6367 128.5 96.6367Z" fill="#0C65B2"/>
<path d="M144.323 109.977C146.238 109.977 147.754 111.218 147.754 112.731C147.754 114.259 146.238 115.453 144.323 115.453C142.427 115.453 140.911 114.259 140.911 112.731C140.931 111.218 142.447 109.977 144.323 109.977Z" fill="#0C65B2"/>
<path d="M127.334 110.195C129.189 110.195 130.746 111.421 130.746 112.949C130.746 114.462 129.189 115.688 127.334 115.688C125.419 115.688 123.862 114.462 123.862 112.949C123.862 111.421 125.419 110.195 127.334 110.195Z" fill="#0C65B2"/>
<path d="M198.508 15.6387C201.74 15.6387 204.354 17.7242 204.354 20.3032C204.354 22.8982 201.74 24.9837 198.508 24.9837C195.256 24.9837 192.642 22.8982 192.642 20.3032C192.642 17.7242 195.256 15.6387 198.508 15.6387Z" fill="#0C65B2"/>
<path d="M391.168 290.475C394.441 290.475 397.054 292.576 397.054 295.155C397.054 297.75 394.441 299.836 391.168 299.836C387.956 299.836 385.323 297.75 385.323 295.155C385.342 292.576 387.956 290.475 391.168 290.475Z" fill="#0C65B2"/>
<path d="M451.96 229.594C455.192 229.594 457.845 231.695 457.845 234.274C457.845 236.853 455.192 238.955 451.96 238.955C448.727 238.955 446.094 236.853 446.094 234.274C446.094 231.695 448.727 229.594 451.96 229.594Z" fill="#0C65B2"/>
<path d="M205.006 291.346C211.211 291.346 216.279 295.373 216.279 300.325C216.279 305.292 211.211 309.303 205.006 309.303C198.761 309.303 193.733 305.276 193.733 300.325C193.733 295.373 198.781 291.346 205.006 291.346Z" fill="#0C65B2"/>
<path d="M285.3 142.127C291.525 142.127 296.553 146.155 296.553 151.106C296.553 156.057 291.505 160.069 285.3 160.069C279.055 160.069 274.047 156.057 274.047 151.106C274.047 146.155 279.055 142.127 285.3 142.127Z" fill="#0C65B2"/>
<path d="M-9.04886 202.791C-2.8438 202.791 2.20405 206.803 2.20405 211.77C2.20405 216.753 -2.86375 220.749 -9.04886 220.749C-15.2739 220.749 -20.3217 216.737 -20.3217 211.77C-20.3417 206.803 -15.2938 202.791 -9.04886 202.791Z" fill="#0C65B2"/>
</g>
<path d="M460.523 276.141L461.8 347.653L347.814 290.437L460.523 276.141ZM459.625 276.968L350.368 290.835L460.862 346.3L459.625 276.968Z" fill="#0C65B2"/>
<path d="M462.043 276.691L349.195 291.019L348.716 291.066L340.995 245.854L462.043 276.691ZM458.113 276.452L342.072 246.92L349.514 290.238L458.113 276.452Z" fill="#0C65B2"/>
<path d="M510.233 211.621L460.493 276.782L460.293 277.02L339.923 246.359L510.233 211.621ZM508.318 212.751L343.235 246.422L459.894 276.145L508.318 212.751Z" fill="#0C65B2"/>
<path d="M354.675 112.057L341.945 247.154L211.38 150.026L210.801 149.628L354.675 112.057ZM353.697 113.091L212.577 149.93L341.187 245.61L353.697 113.091Z" fill="#0C65B2"/>
<path d="M-2.92285 241.656L106.813 295.975L107.252 295.37L-2.444 241.035L-2.92285 241.656Z" fill="#0C65B2"/>
<path d="M46.4023 233.946L46.6617 233.914L108.992 297.085L-3.9165 241.158L46.4023 233.946ZM46.3026 234.694L-1.46241 241.54L105.021 294.283L46.3026 234.694Z" fill="#0C65B2"/>
<path d="M298.71 19.2129L354.815 112.791L210.742 150.41L298.71 19.2129ZM298.651 20.8049L212.618 149.168L353.538 112.345L298.651 20.8049Z" fill="#0C65B2"/>
<path d="M264.202 14.8985L264.322 14.5801L299.397 19.7382L212.087 149.98L211.229 149.709L264.202 14.8985ZM264.94 15.4079L213.584 146.223L297.981 20.2954L264.94 15.4079Z" fill="#0C65B2"/>
<path d="M299.044 19.8027L371.17 100.533L354.032 113.174L298.266 20.1689L299.044 19.8027ZM369.933 100.469L301.378 23.6554L354.291 111.995L369.933 100.469Z" fill="#0C65B2"/>
<path d="M373.015 12.6044L373.514 12.5566L370.96 101.613L297.876 19.7047L373.015 12.6044ZM372.576 13.3686L299.492 20.3097L370.142 99.4002L372.576 13.3686Z" fill="#0C65B2"/>
<path d="M299.829 20.5522L264.574 15.3463L264.334 15.3304L215.691 -59.207L299.829 20.5522ZM297.494 19.4696L220.3 -53.6828L264.953 14.6777L297.494 19.4696Z" fill="#0C65B2"/>
<path d="M372.248 -14.8047L373.545 13.2941L296.591 20.5855L372.248 -14.8047ZM371.41 -13.5629L300.8 19.4392L372.588 12.6573L371.41 -13.5629Z" fill="#0C65B2"/>
<path d="M371.973 -14.5512L372.931 -14.2806L298.949 20.3295L298.59 20.4887L216.588 -57.2168L371.973 -14.5512ZM370.756 -14.1214L219.421 -55.6726L298.77 19.5176L370.756 -14.1214Z" fill="#0C65B2"/>
<path d="M372.659 11.75L449.115 108.337L449.634 109.005L370.085 100.791L372.659 11.75ZM373.517 14.1858L371.023 100.186L447.858 108.066L373.517 14.1858Z" fill="#0C65B2"/>
<path d="M370.265 111.871L509.589 211.912L510.208 212.374L341.015 246.889L370.265 111.871ZM370.863 113.288L342.132 245.902L508.312 212.008L370.863 113.288Z" fill="#0C65B2"/>
<path d="M353.722 112.182H371.12L341.99 246.451L341.112 246.355L353.722 112.182ZM354.56 112.93L342.689 238.857L370.003 112.93H354.56Z" fill="#0C65B2"/>
<path d="M448.69 108.186L449.009 108.17L510.621 213.64L370.279 112.834L369.481 112.277L448.69 108.186ZM448.491 108.918L371.656 112.882L507.908 210.711L448.491 108.918Z" fill="#0C65B2"/>
<path d="M371.034 99.6836V112.945H352.998L371.034 99.6836ZM370.136 101.339L355.332 112.197H370.136V101.339Z" fill="#0C65B2"/>
<path d="M448.775 108.191L448.755 108.892L370.124 112.951V100.088L448.775 108.191ZM443.986 108.43L371.022 100.9V112.171L443.986 108.43Z" fill="#0C65B2"/>
<path d="M341.886 245.42L349.648 290.935L293.882 299.214L341.886 245.42ZM341.268 247.346L295.937 298.179L348.63 290.346L341.268 247.346Z" fill="#0C65B2"/>
<path d="M341.876 246.109L342.155 246.332L294.809 299.441L210.353 148.312L341.876 246.109ZM340.938 246.427L213.026 151.29L294.969 297.976L340.938 246.427Z" fill="#0C65B2"/>
<path d="M175.263 114.141L214.867 152.301L160.239 117.436L175.263 114.141ZM174.984 115L162.234 117.739L208.503 147.286L174.984 115Z" fill="#0C65B2"/>
<path d="M265.921 12.9316L212.111 149.907L211.871 150.544L174.521 114.581L265.921 12.9316ZM263.347 17.0549L175.718 114.565L211.492 149.048L263.347 17.0549Z" fill="#0C65B2"/>
<path d="M68.3512 -38.5293L175.792 114.828L160.988 118.028L67.5132 -38.195L68.3512 -38.5293ZM174.436 114.35L74.4365 -28.3246L161.447 117.168L174.436 114.35Z" fill="#0C65B2"/>
<path d="M264.792 14.6225L265.351 14.7817L175.068 115.253L66.9287 -38.9961L264.792 14.6225ZM263.914 15.1637L68.904 -37.7066L175.168 113.9L263.914 15.1637Z" fill="#0C65B2"/>
<path d="M217.907 -56.8113L218.227 -56.875L265.573 15.6088L67.7888 -38.0257L65.9932 -38.4874L217.907 -56.8113ZM217.708 -56.079L69.8439 -38.2168L263.697 14.3192L217.708 -56.079Z" fill="#0C65B2"/>
<path d="M461.934 344.951L455.469 447.253L417.9 427.608L461.934 344.951ZM460.776 349.027L419.037 427.337L454.631 445.948L460.776 349.027Z" fill="#0C65B2"/>
<path d="M461.912 346.865L418.456 428.455L348.146 289.76L461.912 346.865ZM460.774 347.151L350.081 291.591L418.496 426.56L460.774 347.151Z" fill="#0C65B2"/>
<path d="M349.423 290.258L420.153 429.86L294.097 298.473L349.423 290.258ZM348.845 291.086L295.713 298.966L416.781 425.148L348.845 291.086Z" fill="#0C65B2"/>
<path d="M47.2067 234.582L-3.09214 241.794L-10.8335 158.389L47.2067 234.582ZM45.7702 234.056L-9.61643 161.35L-2.27411 240.934L45.7702 234.056Z" fill="#0C65B2"/>
<path d="M134.892 323.061L199.496 474.667L199.735 475.208L22.4622 454.003L21.7639 453.907L134.892 323.061ZM134.612 324.668L23.3401 453.382L198.379 474.332L134.612 324.668Z" fill="#0C65B2"/>
<path d="M22.1538 453.432L22.9319 453.846L135.142 324.05L134.404 323.652L22.1538 453.432Z" fill="#0C65B2"/>
<path d="M296.588 298.061L223.145 346.378L132.902 323.771L296.588 298.061ZM293.196 299.334L136.573 323.931L222.885 345.566L293.196 299.334Z" fill="#0C65B2"/>
<path d="M106.677 295.911L134.39 324.057L135.088 323.612L107.395 295.449L106.677 295.911Z" fill="#0C65B2"/>
<path d="M299.148 298.413L134.863 324.219L134.564 324.267L106.073 295.324L299.148 298.413ZM290.648 299.002L107.988 296.072L134.963 323.455L290.648 299.002Z" fill="#0C65B2"/>
<path d="M241.241 402.243L199.003 475.762L134.358 323.965L133.76 322.596L241.241 402.243ZM240.124 402.403L135.755 325.095L199.122 473.804L240.124 402.403Z" fill="#0C65B2"/>
<path d="M294.776 298L418.837 427.27L419.535 428.019L240.027 402.61L294.776 298ZM295.015 299.449L241.324 402.053L417.42 426.984L295.015 299.449Z" fill="#0C65B2"/>
<path d="M223.383 345.699L241.48 403.425L132.961 323.029L223.383 345.699ZM222.625 346.257L136.572 324.685L239.864 401.244L222.625 346.257Z" fill="#0C65B2"/>
<path d="M296.014 297.469L240.567 403.48L222.531 345.85L296.014 297.469ZM293.799 299.936L223.548 346.12L240.787 401.172L293.799 299.936Z" fill="#0C65B2"/>
<path d="M67.762 -39.4922L161.676 117.431L162.215 118.323L40.0089 74.6383L39.6697 74.5428L67.762 -39.4922ZM68.1212 -37.1997L40.7072 74.097L160.299 116.858L68.1212 -37.1997Z" fill="#0C65B2"/>
<path d="M129.266 177.917L129.406 177.232L296.084 299.084L107.02 296.059H106.501L129.266 177.917ZM130.044 178.697L107.558 295.343L293.71 298.336L130.044 178.697Z" fill="#0C65B2"/>
<path d="M211.929 149.34L296.226 300.166L129.407 178.251L128.889 177.868L211.929 149.34ZM211.43 150.295L130.545 178.091L293.572 297.237L211.43 150.295Z" fill="#0C65B2"/>
<path d="M130.362 177.045L107.298 296.572L46.145 234.516L45.8657 234.245L130.362 177.045ZM129.085 178.86L47.1426 234.341L106.739 294.789L129.085 178.86Z" fill="#0C65B2"/>
<path d="M40.1251 73.627L130.088 177.791L130.727 178.46L-10.3135 160.232L-10.8921 160.152L40.1251 73.627ZM40.2647 75.0916L-9.57526 159.595L128.772 177.489L40.2647 75.0916Z" fill="#0C65B2"/>
<path d="M161.052 117.004L212.548 149.879L128.85 178.662L161.052 117.004ZM161.431 118.182L130.585 177.261L210.792 149.704L161.431 118.182Z" fill="#0C65B2"/>
<path d="M161.435 117.269L161.834 117.428L130.151 178.099L129.851 178.736L39.8281 74.5552L38.8904 73.4727L161.435 117.269ZM160.657 117.778L41.4841 75.2079L129.632 177.223L160.657 117.778Z" fill="#0C65B2"/>
<path d="M342.429 238.424C337.601 238.424 333.63 241.592 333.63 245.476C333.63 249.361 337.601 252.513 342.429 252.513C347.337 252.513 351.268 249.361 351.268 245.476C351.268 241.592 347.337 238.424 342.429 238.424Z" fill="#0C65B2"/>
<path d="M462.001 340.754C458.13 340.754 454.998 343.269 454.998 346.358C454.998 349.43 458.11 351.962 462.001 351.962C465.892 351.962 469.024 349.446 469.024 346.358C469.044 343.285 465.912 340.754 462.001 340.754Z" fill="#0C65B2"/>
<path d="M349.217 287.086C346.483 287.086 344.269 288.837 344.269 291.034C344.269 293.199 346.483 294.966 349.217 294.966C351.95 294.966 354.145 293.199 354.145 291.034C354.145 288.853 351.95 287.086 349.217 287.086Z" fill="#0C65B2"/>
<path d="M460.511 273C457.778 273 455.563 274.751 455.563 276.932C455.563 279.129 457.778 280.864 460.511 280.864C463.244 280.864 465.439 279.129 465.439 276.932C465.439 274.767 463.244 273 460.511 273Z" fill="#0C65B2"/>
<path d="M372.256 6.80859C368.386 6.80859 365.253 9.30803 365.253 12.4124C365.253 15.485 368.386 18.0004 372.256 18.0004C376.127 18.0004 379.259 15.5009 379.259 12.4124C379.259 9.30803 376.147 6.80859 372.256 6.80859Z" fill="#0C65B2"/>
<path d="M224.471 338.391C219.583 338.391 215.653 341.559 215.653 345.443C215.653 349.328 219.583 352.496 224.471 352.496C229.34 352.496 233.31 349.328 233.31 345.443C233.31 341.559 229.34 338.391 224.471 338.391Z" fill="#0C65B2"/>
<path d="M135.924 319.797C132.672 319.797 130.058 321.898 130.058 324.477C130.058 327.056 132.672 329.158 135.924 329.158C139.156 329.158 141.77 327.056 141.77 324.477C141.77 321.898 139.156 319.797 135.924 319.797Z" fill="#0C65B2"/>
<path d="M130.741 173.781C127.489 173.781 124.855 175.883 124.855 178.446C124.855 181.057 127.489 183.158 130.741 183.158C133.954 183.158 136.587 181.057 136.587 178.446C136.587 175.883 133.954 173.781 130.741 173.781Z" fill="#0C65B2"/>
<path d="M40.041 69.3691C36.8287 69.3691 34.1951 71.4706 34.1951 74.0655C34.1951 76.6287 36.8287 78.7301 40.041 78.7301C43.2932 78.7301 45.9268 76.6287 45.9268 74.0655C45.9268 71.4706 43.2932 69.3691 40.041 69.3691Z" fill="#0C65B2"/>
<path d="M161.682 113.305C158.45 113.305 155.816 115.39 155.816 117.969C155.816 120.564 158.45 122.65 161.682 122.65C164.934 122.65 167.548 120.564 167.548 117.969C167.528 115.39 164.934 113.305 161.682 113.305Z" fill="#0C65B2"/>
<path d="M263.566 10.5703C260.334 10.5703 257.7 12.6718 257.7 15.2508C257.7 17.8298 260.334 19.9313 263.566 19.9313C266.798 19.9313 269.432 17.8298 269.432 15.2508C269.432 12.6718 266.798 10.5703 263.566 10.5703Z" fill="#0C65B2"/>
<path d="M447.537 103.664C444.345 103.664 441.651 105.765 441.651 108.329C441.651 110.924 444.345 113.025 447.537 113.025C450.809 113.025 453.423 110.924 453.423 108.329C453.423 105.765 450.809 103.664 447.537 103.664Z" fill="#0C65B2"/>
<path d="M370.3 96.6367C367.068 96.6367 364.454 98.7382 364.454 101.301C364.454 103.896 367.068 105.998 370.3 105.998C373.552 105.998 376.186 103.896 376.186 101.301C376.186 98.7382 373.552 96.6367 370.3 96.6367Z" fill="#0C65B2"/>
<path d="M354.481 109.977C352.606 109.977 351.049 111.218 351.049 112.731C351.049 114.259 352.606 115.453 354.481 115.453C356.396 115.453 357.913 114.259 357.913 112.731C357.913 111.218 356.377 109.977 354.481 109.977Z" fill="#0C65B2"/>
<path d="M371.531 110.195C369.596 110.195 368.059 111.421 368.059 112.949C368.059 114.462 369.596 115.688 371.531 115.688C373.406 115.688 374.943 114.462 374.943 112.949C374.943 111.421 373.406 110.195 371.531 110.195Z" fill="#0C65B2"/>
<path d="M300.314 15.6387C297.061 15.6387 294.428 17.7242 294.428 20.3032C294.428 22.8982 297.061 24.9837 300.314 24.9837C303.566 24.9837 306.199 22.8982 306.199 20.3032C306.199 17.7242 303.566 15.6387 300.314 15.6387Z" fill="#0C65B2"/>
<path d="M107.633 290.475C104.381 290.475 101.747 292.576 101.747 295.155C101.747 297.75 104.381 299.836 107.633 299.836C110.865 299.836 113.499 297.75 113.499 295.155C113.499 292.576 110.865 290.475 107.633 290.475Z" fill="#0C65B2"/>
<path d="M46.8814 229.594C43.6292 229.594 40.9756 231.695 40.9756 234.274C40.9756 236.853 43.6292 238.955 46.8814 238.955C50.0936 238.955 52.7273 236.853 52.7273 234.274C52.7273 231.695 50.0936 229.594 46.8814 229.594Z" fill="#0C65B2"/>
<path d="M293.796 291.346C287.551 291.346 282.523 295.373 282.523 300.325C282.523 305.292 287.571 309.303 293.796 309.303C300.021 309.303 305.049 305.276 305.049 300.325C305.029 295.373 300.001 291.346 293.796 291.346Z" fill="#0C65B2"/>
<path d="M213.5 142.127C207.275 142.127 202.247 146.155 202.247 151.106C202.247 156.057 207.275 160.069 213.5 160.069C219.705 160.069 224.753 156.057 224.753 151.106C224.753 146.155 219.725 142.127 213.5 142.127Z" fill="#0C65B2"/>
<path d="M507.89 202.791C501.645 202.791 496.597 206.803 496.597 211.77C496.597 216.753 501.665 220.749 507.89 220.749C514.115 220.749 519.143 216.737 519.143 211.77C519.163 206.803 514.115 202.791 507.89 202.791Z" fill="#0C65B2"/>
</g>
<mask id="mask1_3893_14539" style="mask-type:luminance" maskUnits="userSpaceOnUse" x="462" y="0" width="500" height="398">
<path d="M961.253 398V0L462.454 0V398H961.253Z" fill="white"/>
</mask>
<g mask="url(#mask1_3893_14539)">
<g opacity="0.25">
<path d="M597.259 120.445L525.552 29.5254L615.176 30.5284L597.259 120.445ZM527.228 30.2577L596.741 118.423L614.119 31.2607L527.228 30.2577Z" fill="#0C65B2"/>
<path d="M653.134 125.909L596.47 119.716L596.53 119.382L614.487 29.3223L653.134 125.909ZM597.528 119.111L651.817 125.017L614.806 32.4585L597.528 119.111Z" fill="#0C65B2"/>
<path d="M652.501 126.768L614.073 30.7387L614.373 30.5954L696.036 -9.125L652.501 126.768ZM615.151 31.0412L652.401 124.157L694.6 -7.56484L615.151 31.0412Z" fill="#0C65B2"/>
<path d="M773.729 229.817L773.23 229.387L651.503 125.175L820.816 115.018L773.729 229.817ZM653.439 125.78L773.35 228.4L819.519 115.83L653.439 125.78Z" fill="#0C65B2"/>
<path d="M658.395 400.342L590.319 312.798L591.077 312.432L659.173 399.96L658.395 400.342Z" fill="#0C65B2"/>
<path d="M659.018 401.138L588.927 311.062L668.096 360.749L668.057 360.972L659.018 401.138ZM592.439 314.167L658.539 399.148L667.119 361.051L592.439 314.167Z" fill="#0C65B2"/>
<path d="M772.751 229.867L819.897 114.908L937.175 159.675L772.751 229.867ZM820.436 115.911L774.287 228.354L935.18 159.675L820.436 115.911Z" fill="#0C65B2"/>
<path d="M773.628 229.442L773.289 228.773L936.516 159.123L942.98 187.126L942.581 187.206L773.628 229.442ZM935.838 160.222L778.018 227.563L941.943 186.585L935.838 160.222Z" fill="#0C65B2"/>
<path d="M935.956 160.021L819.416 115.541L835.258 101.865L936.435 159.368L935.956 160.021ZM820.913 115.318L931.626 157.553L835.338 102.82L820.913 115.318Z" fill="#0C65B2"/>
<path d="M936.557 160.336L833.904 101.989L945.515 99.9355L945.455 100.349L936.557 160.336ZM836.697 102.69L935.818 159.031L944.498 100.7L836.697 102.69Z" fill="#0C65B2"/>
<path d="M1035.46 225.932L942.04 187.103L942.02 186.912L935.496 158.766L1035.46 225.932ZM942.858 186.642L1028.53 222.223L936.853 160.612L942.858 186.642Z" fill="#0C65B2"/>
<path d="M935.454 161.387L944.592 99.9355L979.808 100.986L935.454 161.387ZM945.371 100.7L936.871 157.996L978.251 101.671L945.371 100.7Z" fill="#0C65B2"/>
<path d="M1032.96 225.214L935.574 159.767L935.773 159.496L979.129 100.465L979.468 101.229L1032.96 225.214ZM936.771 159.592L1031 222.937L978.93 102.216L936.771 159.592Z" fill="#0C65B2"/>
<path d="M834.898 102.7L824.603 39.2266L825.441 39.6246L946.49 100.646L834.898 102.7ZM825.8 40.6912L835.677 101.951L943.457 99.9773L825.8 40.6912Z" fill="#0C65B2"/>
<path d="M651.836 125.955L695.092 -9.0625L695.671 -8.56898L821.049 102.6L651.836 125.955ZM695.571 -7.59786L653.093 125.032L819.293 102.107L695.571 -7.59786Z" fill="#0C65B2"/>
<path d="M652.504 125.838L652.384 125.122L820.659 101.91V115.761L652.504 125.838ZM819.721 102.77L661.901 124.548L819.721 115.06V102.77Z" fill="#0C65B2"/>
<path d="M820.539 103.23L819.841 102.561L693.505 -9.41992L825.687 39.7251L825.667 39.9958L820.539 103.23ZM697.196 -7.27072L819.801 101.447L824.749 40.1709L697.196 -7.27072Z" fill="#0C65B2"/>
<path d="M819.703 116.364V101.973H836.323L819.703 116.364ZM820.641 102.705V114.47L834.248 102.705H820.641Z" fill="#0C65B2"/>
<path d="M835.817 102.699H819.696L824.783 39.942L825.661 39.9102L835.817 102.699ZM820.673 101.966H834.799L825.362 43.731L820.673 101.966Z" fill="#0C65B2"/>
<path d="M586.26 163.524L596.635 119.027L653.678 125.236L586.26 163.524ZM597.374 119.871L587.557 161.884L651.264 125.714L597.374 119.871Z" fill="#0C65B2"/>
<path d="M775.379 230.166L585.975 162.776L652.534 124.998L652.814 125.253L775.379 230.166ZM587.79 162.633L771.628 228.048L652.395 125.969L587.79 162.633Z" fill="#0C65B2"/>
<path d="M814.075 270.139L770.38 226.566L818.205 258.152L814.075 270.139ZM776.645 231.661L813.676 268.563L817.127 258.422L776.645 231.661Z" fill="#0C65B2"/>
<path d="M817.673 258.732L772.621 228.946L773.419 228.755L945.086 185.818L817.673 258.732ZM774.477 229.248L817.693 257.825L939.898 187.888L774.477 229.248Z" fill="#0C65B2"/>
<path d="M1009.12 344.118L813.333 269.549L817.343 257.752L1009.54 343.513L1009.12 344.118ZM814.43 269.151L996.771 338.61L817.962 258.819L814.43 269.151Z" fill="#0C65B2"/>
<path d="M1010.13 344.592L816.811 258.337L942.748 186.268L942.948 186.729L1010.13 344.592ZM818.507 258.242L1008.51 343.016L942.249 187.43L818.507 258.242Z" fill="#0C65B2"/>
<path d="M1009.47 345.329L1008.89 343.928L941.691 186.113L1032.53 223.876L1032.45 224.13L1009.47 345.329ZM943.288 187.578L1009.13 342.273L1031.52 224.274L943.288 187.578Z" fill="#0C65B2"/>
<path d="M425.348 64.5671L400.727 34.6056L528.938 29.4316L425.348 64.5671ZM402.343 35.2902L425.667 63.6596L523.811 30.3709L402.343 35.2902Z" fill="#0C65B2"/>
<path d="M598.108 120.207L424.286 64.1051L526.54 29.4473L598.108 120.207ZM426.661 64.0892L595.813 118.679L526.181 30.3547L426.661 64.0892Z" fill="#0C65B2"/>
<path d="M587.189 163.346L422.526 62.7637L597.485 119.216L587.189 163.346ZM428.432 65.4382L586.571 162.025L596.447 119.662L428.432 65.4382Z" fill="#0C65B2"/>
<path d="M762.75 406.644L658.222 400.483L667.26 360.301L762.75 406.644ZM659.3 399.814L759.039 405.705L667.919 361.495L659.3 399.814Z" fill="#0C65B2"/>
<path d="M392.368 380.669L392.248 380.08L365.672 238.631L366.371 238.806L556.373 290.387L392.368 380.669ZM366.79 239.713L393.046 379.411L554.358 290.61L366.79 239.713Z" fill="#0C65B2"/>
<path d="M392.983 380.323L392.465 379.734L555.133 290.184L555.632 290.804L392.983 380.323Z" fill="#0C65B2"/>
<path d="M555.483 291.939L527.151 219.965L587.705 161.348L555.483 291.939ZM528.168 220.108L555.283 289.01L586.109 164.022L528.168 220.108Z" fill="#0C65B2"/>
<path d="M590.398 312.901L555.123 290.772L555.682 290.215L590.977 312.344L590.398 312.901Z" fill="#0C65B2"/>
<path d="M591.133 313.384L554.861 290.635L554.92 290.396L587.263 159.311L591.133 313.384ZM555.878 290.316L590.196 311.856L586.524 166.092L555.878 290.316Z" fill="#0C65B2"/>
<path d="M556.956 291.292L555.24 290.847L364.998 239.218L457.136 205.531L556.956 291.292ZM367.452 239.107L553.823 289.684L456.937 206.423L367.452 239.107Z" fill="#0C65B2"/>
<path d="M456.677 206.494L424.833 63.2461L425.771 63.8192L587.781 162.794L456.677 206.494ZM426.13 64.9655L457.375 205.459L585.965 162.619L426.13 64.9655Z" fill="#0C65B2"/>
<path d="M556.412 291.917L455.654 205.328L528 219.752L556.412 291.917ZM458.408 206.618L554.357 289.051L527.302 220.341L458.408 206.618Z" fill="#0C65B2"/>
<path d="M527.812 220.462L455.586 206.054L588.446 161.797L527.812 220.462ZM458.499 205.879L527.493 219.634L585.373 163.596L458.499 205.879Z" fill="#0C65B2"/>
<path d="M867.832 366.353L867.692 366.082L812.964 268.588L814.081 269.018L1010.75 343.953L867.832 366.353ZM814.799 270.084L868.39 365.509L1007.87 343.651L814.799 270.084Z" fill="#0C65B2"/>
<path d="M590.213 313.054V312.624L586.422 161.75L739.134 294.762L738.276 294.889L590.213 313.054ZM587.38 163.644L591.131 312.194L737.319 294.236L587.38 163.644Z" fill="#0C65B2"/>
<path d="M738.357 295.163L737.898 294.749L585.105 161.658L774.13 228.936L738.357 295.163ZM588.737 163.744L738.057 293.842L772.913 229.27L588.737 163.744Z" fill="#0C65B2"/>
<path d="M667.645 361.413L667.306 361.175L589.533 312.38L739.333 293.992L667.645 361.413ZM591.768 312.826L667.525 360.395L737.058 294.995L591.768 312.826Z" fill="#0C65B2"/>
<path d="M760.541 406.728L760.441 406.251L737.596 293.744L738.434 294.222L868.979 366.021L760.541 406.728ZM738.813 295.272L761.239 405.662L867.144 365.894L738.813 295.272Z" fill="#0C65B2"/>
<path d="M737.343 295.184L773.416 228.416L814.617 269.506L737.343 295.184ZM773.636 229.817L739.099 293.847L813.141 269.219L773.636 229.817Z" fill="#0C65B2"/>
<path d="M869.173 366.984L867.837 366.268L737.271 294.437L738.069 294.166L814.106 268.869L814.305 269.203L869.173 366.984ZM739.146 294.596L866.999 364.93L813.627 269.824L739.146 294.596Z" fill="#0C65B2"/>
<path d="M662.445 124.773C662.445 128.674 658.474 131.81 653.606 131.81C648.738 131.81 644.787 128.674 644.787 124.773C644.787 120.889 648.738 117.721 653.606 117.721C658.474 117.721 662.445 120.889 662.445 124.773Z" fill="#0C65B2"/>
<path d="M534.198 29.375C534.198 32.4635 531.046 34.9789 527.175 34.9789C523.324 34.9789 520.152 32.4794 520.152 29.375C520.152 26.3025 523.304 23.7871 527.175 23.7871C531.026 23.7871 534.198 26.2866 534.198 29.375Z" fill="#0C65B2"/>
<path d="M601.458 119.384C601.458 121.565 599.263 123.3 596.51 123.3C593.796 123.3 591.582 121.565 591.582 119.384C591.582 117.203 593.796 115.436 596.51 115.436C599.243 115.436 601.458 117.203 601.458 119.384Z" fill="#0C65B2"/>
<path d="M619.112 30.581C619.112 32.762 616.917 34.5291 614.184 34.5291C611.43 34.5291 609.256 32.762 609.256 30.581C609.256 28.4159 611.43 26.6328 614.184 26.6328C616.897 26.6328 619.112 28.4159 619.112 30.581Z" fill="#0C65B2"/>
<path d="M952.721 101.001C952.721 104.057 949.589 106.589 945.698 106.589C941.847 106.589 938.695 104.073 938.695 101.001C938.695 97.9121 941.827 95.3809 945.698 95.3809C949.589 95.3809 952.721 97.8962 952.721 101.001Z" fill="#0C65B2"/>
<path d="M537.16 218.909C537.16 222.81 533.189 225.946 528.321 225.946C523.453 225.946 519.482 222.81 519.482 218.909C519.482 215.025 523.453 211.889 528.321 211.889C533.189 211.889 537.16 215.025 537.16 218.909Z" fill="#0C65B2"/>
<path d="M560.464 289.593C560.464 292.172 557.83 294.257 554.598 294.257C551.366 294.257 548.732 292.172 548.732 289.593C548.732 287.014 551.366 284.896 554.598 284.896C557.83 284.896 560.464 286.998 560.464 289.593Z" fill="#0C65B2"/>
<path d="M743.459 293.729C743.459 296.292 740.826 298.41 737.614 298.41C734.341 298.41 731.708 296.292 731.708 293.729C731.708 291.134 734.341 289.049 737.614 289.049C740.826 289.049 743.459 291.134 743.459 293.729Z" fill="#0C65B2"/>
<path d="M874.316 366.067C874.316 368.646 871.683 370.763 868.431 370.763C865.218 370.763 862.585 368.646 862.585 366.067C862.585 363.488 865.218 361.402 868.431 361.402C871.683 361.402 874.316 363.488 874.316 366.067Z" fill="#0C65B2"/>
<path d="M819.253 268.993C819.253 271.588 816.639 273.689 813.407 273.689C810.155 273.689 807.541 271.588 807.541 268.993C807.541 266.414 810.155 264.328 813.407 264.328C816.639 264.344 819.253 266.414 819.253 268.993Z" fill="#0C65B2"/>
<path d="M948.006 187.714C948.006 190.309 945.373 192.394 942.14 192.394C938.908 192.394 936.275 190.309 936.275 187.714C936.275 185.135 938.908 183.018 942.14 183.018C945.373 183.018 948.006 185.135 948.006 187.714Z" fill="#0C65B2"/>
<path d="M831.334 40.9207C831.334 43.5157 828.701 45.6012 825.489 45.6012C822.236 45.6012 819.603 43.5157 819.603 40.9207C819.603 38.3417 822.236 36.2402 825.489 36.2402C828.701 36.2402 831.334 38.3417 831.334 40.9207Z" fill="#0C65B2"/>
<path d="M840.141 102.532C840.141 105.143 837.507 107.244 834.295 107.244C831.043 107.244 828.409 105.143 828.409 102.532C828.409 99.9686 831.043 97.8672 834.295 97.8672C837.507 97.8672 840.141 99.9686 840.141 102.532Z" fill="#0C65B2"/>
<path d="M823.423 115.158C823.423 116.686 821.867 117.896 819.971 117.896C818.056 117.896 816.56 116.686 816.56 115.158C816.56 113.645 818.056 112.436 819.971 112.436C821.867 112.451 823.423 113.661 823.423 115.158Z" fill="#0C65B2"/>
<path d="M823.15 101.602C823.15 103.083 821.614 104.324 819.699 104.324C817.803 104.324 816.267 103.083 816.267 101.602C816.267 100.074 817.803 98.832 819.699 98.832C821.614 98.832 823.15 100.074 823.15 101.602Z" fill="#0C65B2"/>
<path d="M941.654 158.393C941.654 160.972 939.041 163.058 935.808 163.058C932.556 163.058 929.942 160.972 929.942 158.393C929.942 155.798 932.556 153.713 935.808 153.713C939.041 153.713 941.654 155.798 941.654 158.393Z" fill="#0C65B2"/>
<path d="M597.211 312.12C597.211 314.731 594.578 316.816 591.346 316.816C588.093 316.816 585.48 314.731 585.48 312.12C585.48 309.557 588.093 307.455 591.346 307.455C594.578 307.471 597.211 309.557 597.211 312.12Z" fill="#0C65B2"/>
<path d="M673.511 360.626C673.511 363.205 670.877 365.322 667.645 365.322C664.413 365.322 661.779 363.205 661.779 360.626C661.779 358.047 664.413 355.945 667.645 355.945C670.877 355.945 673.511 358.047 673.511 360.626Z" fill="#0C65B2"/>
<path d="M596.121 163.579C596.121 168.53 591.073 172.574 584.868 172.574C578.643 172.574 573.615 168.53 573.615 163.579C573.615 158.596 578.663 154.584 584.868 154.584C591.073 154.584 596.121 158.612 596.121 163.579Z" fill="#0C65B2"/>
<path d="M783.13 227.647C783.13 232.614 778.082 236.626 771.877 236.626C765.672 236.626 760.644 232.598 760.644 227.647C760.644 222.664 765.672 218.668 771.877 218.668C778.082 218.668 783.13 222.664 783.13 227.647Z" fill="#0C65B2"/>
<path d="M707.103 -7.21999C707.103 -2.26888 702.075 1.75889 695.85 1.75889C689.605 1.75889 684.597 -2.28479 684.597 -7.21999C684.597 -12.187 689.625 -16.2148 695.85 -16.2148C702.075 -16.2307 707.103 -12.203 707.103 -7.21999Z" fill="#0C65B2"/>
</g>
<path d="M615.176 367.457L525.552 368.476L597.259 277.525L615.176 367.457ZM614.139 366.741L596.761 279.563L527.248 367.728L614.139 366.741Z" fill="#0C65B2"/>
<path d="M614.487 368.673L596.53 278.629L596.47 278.247L653.134 272.086L614.487 368.673ZM614.786 365.536L651.797 272.946L597.508 278.884L614.786 365.536Z" fill="#0C65B2"/>
<path d="M696.036 407.124L614.373 367.435L614.073 367.276L652.501 271.23L696.036 407.124ZM694.62 405.595L652.421 273.873L615.171 366.957L694.62 405.595Z" fill="#0C65B2"/>
<path d="M820.816 283L651.503 272.843L773.23 168.663L773.729 168.201L820.816 283ZM819.519 282.22L773.35 169.618L653.439 272.238L819.519 282.22Z" fill="#0C65B2"/>
<path d="M658.395 -2.33203L590.319 85.228L591.077 85.5782L659.173 -1.94995L658.395 -2.33203Z" fill="#0C65B2"/>
<path d="M668.057 37.0252L668.096 37.2322L588.927 86.9663L659.018 -3.125L668.057 37.0252ZM667.119 36.9456L658.539 -1.16684L592.439 83.7982L667.119 36.9456Z" fill="#0C65B2"/>
<path d="M937.175 238.346L819.897 283.113L772.751 168.154L937.175 238.346ZM935.18 238.298L774.307 169.651L820.456 282.094L935.18 238.298Z" fill="#0C65B2"/>
<path d="M942.581 210.811L942.98 210.906L936.516 238.893L773.289 169.228L773.628 168.543L942.581 210.811ZM941.943 211.4L777.998 170.422L935.818 237.763L941.943 211.4Z" fill="#0C65B2"/>
<path d="M936.435 238.611L835.258 296.162L819.416 282.487L935.976 237.99L936.435 238.611ZM835.338 295.175L931.606 240.474L820.893 282.694L835.338 295.175Z" fill="#0C65B2"/>
<path d="M945.455 297.634L945.515 298.032L833.904 295.995L936.557 237.68L945.455 297.634ZM944.498 297.284L935.799 238.969L836.677 295.342L944.498 297.284Z" fill="#0C65B2"/>
<path d="M935.496 239.238L942.02 211.108L942.04 210.916L1035.46 172.104L935.496 239.238ZM936.853 237.376L1028.53 175.781L942.858 211.41L936.853 237.376Z" fill="#0C65B2"/>
<path d="M979.808 297.023L944.592 298.058L935.454 236.654L979.808 297.023ZM978.251 296.354L936.891 240.013L945.39 297.294L978.251 296.354Z" fill="#0C65B2"/>
<path d="M979.488 296.803L979.149 297.567L935.773 238.536L935.574 238.25L1032.96 172.818L979.488 296.803ZM978.95 295.832L1031.02 175.079L936.791 238.393L978.95 295.832Z" fill="#0C65B2"/>
<path d="M946.527 297.351L825.479 358.356L824.641 358.77L834.936 295.297L946.527 297.351ZM943.475 298.035L835.694 296.045L825.818 357.353L943.475 298.035Z" fill="#0C65B2"/>
<path d="M821.049 295.44L695.671 406.61L695.092 407.103L651.836 272.102L821.049 295.44ZM819.273 295.918L653.073 272.993L695.551 405.591L819.273 295.918Z" fill="#0C65B2"/>
<path d="M820.659 282.239V296.121L652.384 272.878L652.504 272.178L820.659 282.239ZM819.721 282.908L661.901 273.435L819.721 295.23V282.908Z" fill="#0C65B2"/>
<path d="M825.667 358.017L825.687 358.272L693.505 407.433L819.841 295.451L820.539 294.814L825.667 358.017ZM824.749 357.858L819.781 296.55L697.176 405.267L824.749 357.858Z" fill="#0C65B2"/>
<path d="M836.323 296.054H819.703V281.662L836.323 296.054ZM834.248 295.337L820.641 283.525V295.337H834.248Z" fill="#0C65B2"/>
<path d="M825.661 358.085L824.783 358.069L819.696 295.328H835.817L825.661 358.085ZM825.362 354.264L834.799 296.045H820.673L825.362 354.264Z" fill="#0C65B2"/>
<path d="M653.678 272.796L596.635 278.989L586.26 234.492L653.678 272.796ZM651.264 272.302L587.557 236.132L597.374 278.177L651.264 272.302Z" fill="#0C65B2"/>
<path d="M652.814 272.788L652.534 273.011L585.975 235.233L775.379 167.844L652.814 272.788ZM652.415 272.04L771.648 169.977L587.81 235.36L652.415 272.04Z" fill="#0C65B2"/>
<path d="M818.205 139.845L770.38 171.446L814.075 127.857L818.205 139.845ZM817.127 139.622L813.696 129.449L776.665 166.368L817.127 139.622Z" fill="#0C65B2"/>
<path d="M945.046 212.181L773.38 169.245L772.582 169.054L817.653 139.252L945.046 212.181ZM939.879 210.128L817.673 140.207L774.457 168.752L939.879 210.128Z" fill="#0C65B2"/>
<path d="M1009.54 54.5378L817.343 140.267L813.333 128.454L1009.12 53.8691L1009.54 54.5378ZM817.942 139.184L996.751 59.3934L814.41 128.821L817.942 139.184Z" fill="#0C65B2"/>
<path d="M942.928 211.281L942.728 211.727L816.811 139.689L1010.13 53.4023L942.928 211.281ZM942.249 210.58L1008.51 54.9784L818.507 139.768L942.249 210.58Z" fill="#0C65B2"/>
<path d="M1032.45 173.871L1032.53 174.126L941.691 211.904L1008.91 54.089L1009.49 52.6562L1032.45 173.871ZM1031.54 173.712L1009.15 55.7288L943.308 210.408L1031.54 173.712Z" fill="#0C65B2"/>
<path d="M528.938 368.585L400.727 363.427L425.348 333.449L528.938 368.585ZM523.831 367.661L425.687 334.357L402.363 362.758L523.831 367.661Z" fill="#0C65B2"/>
<path d="M526.54 368.567L424.286 333.893L598.108 277.791L526.54 368.567ZM526.181 367.659L595.813 279.335L426.661 333.925L526.181 367.659Z" fill="#0C65B2"/>
<path d="M597.485 278.81L422.526 335.247L587.189 234.664L597.485 278.81ZM596.447 278.349L586.571 235.954L428.432 332.556L596.447 278.349Z" fill="#0C65B2"/>
<path d="M667.26 37.6667L658.222 -2.46757L762.75 -8.64453L667.26 37.6667ZM667.919 36.5205L759.039 -7.67341L659.3 -1.81485L667.919 36.5205Z" fill="#0C65B2"/>
<path d="M556.373 107.632L366.371 159.181L365.692 159.372L392.268 17.9224L392.388 17.3652L556.373 107.632ZM554.358 107.409L393.046 18.6229L366.79 158.289L554.358 107.409Z" fill="#0C65B2"/>
<path d="M392.983 17.6758L392.465 18.2967L555.133 107.831L555.632 107.242L392.983 17.6758Z" fill="#0C65B2"/>
<path d="M587.705 236.653L527.151 178.051L555.483 106.045L587.705 236.653ZM586.109 233.946L555.283 108.974L528.168 177.844L586.109 233.946Z" fill="#0C65B2"/>
<path d="M590.398 85.1191L555.123 107.232L555.682 107.789L590.977 85.6923L590.398 85.1191Z" fill="#0C65B2"/>
<path d="M587.263 238.695L554.92 107.609L554.861 107.37L591.133 84.6367L587.263 238.695ZM586.524 231.913L590.196 86.165L555.878 107.689L586.524 231.913Z" fill="#0C65B2"/>
<path d="M457.136 192.49L364.998 158.787L555.24 107.206L556.956 106.729L457.136 192.49ZM456.937 191.598L553.823 108.321L367.452 158.882L456.937 191.598Z" fill="#0C65B2"/>
<path d="M587.781 235.206L425.771 334.197L424.833 334.754L456.677 191.521L587.781 235.206ZM585.965 235.397L457.375 192.556L426.13 333.066L585.965 235.397Z" fill="#0C65B2"/>
<path d="M528 178.241L455.654 192.681L556.412 106.092L528 178.241ZM527.302 177.636L554.337 108.973L458.388 191.391L527.302 177.636Z" fill="#0C65B2"/>
<path d="M588.446 236.194L455.586 191.952L527.812 177.561L588.446 236.194ZM585.353 234.427L527.473 178.372L458.479 192.127L585.353 234.427Z" fill="#0C65B2"/>
<path d="M1010.75 54.0677L814.081 129.003L812.964 129.433L867.712 31.923L867.832 31.6523L1010.75 54.0677ZM1007.87 54.3543L868.39 32.4802L814.799 127.905L1007.87 54.3543Z" fill="#0C65B2"/>
<path d="M738.276 103.143L739.134 103.255L586.422 236.25L590.213 85.3924V84.9785L738.276 103.143ZM737.299 103.764L591.111 85.8223L587.36 234.356L737.299 103.764Z" fill="#0C65B2"/>
<path d="M774.091 169.101L585.066 236.363L737.858 103.256L738.337 102.842L774.091 169.101ZM772.894 168.703L738.058 104.163L588.737 234.245L772.894 168.703Z" fill="#0C65B2"/>
<path d="M739.369 104.019L589.57 85.6153L667.343 36.8205L667.682 36.5977L739.369 104.019ZM737.095 103L667.562 37.6165L591.805 85.1696L737.095 103Z" fill="#0C65B2"/>
<path d="M868.979 32.016L738.434 103.799L737.596 104.309L760.441 -8.22973L760.541 -8.69141L868.979 32.016ZM867.144 32.1275L761.239 -7.64069L738.813 102.749L867.144 32.1275Z" fill="#0C65B2"/>
<path d="M814.617 128.505L773.416 169.595L737.343 102.811L814.617 128.505ZM813.141 128.808L739.099 104.196L773.636 168.194L813.141 128.808Z" fill="#0C65B2"/>
<path d="M814.285 128.812L814.086 129.13L738.049 103.849L737.251 103.611L867.817 31.7795L869.173 31.0312L814.285 128.812ZM813.647 128.191L866.999 33.1008L739.146 103.435L813.647 128.191Z" fill="#0C65B2"/>
<path d="M662.445 273.23C662.445 269.377 658.474 266.209 653.606 266.209C648.738 266.209 644.787 269.377 644.787 273.23C644.787 277.146 648.738 280.282 653.606 280.282C658.474 280.282 662.445 277.146 662.445 273.23Z" fill="#0C65B2"/>
<path d="M534.198 368.637C534.198 365.548 531.046 363.049 527.175 363.049C523.324 363.049 520.152 365.532 520.152 368.637C520.152 371.741 523.304 374.241 527.175 374.241C531.026 374.256 534.198 371.757 534.198 368.637Z" fill="#0C65B2"/>
<path d="M601.458 278.645C601.458 276.464 599.263 274.697 596.51 274.697C593.796 274.697 591.582 276.464 591.582 278.645C591.582 280.826 593.796 282.578 596.51 282.578C599.243 282.578 601.458 280.826 601.458 278.645Z" fill="#0C65B2"/>
<path d="M619.112 367.448C619.112 365.267 616.917 363.5 614.184 363.5C611.43 363.5 609.256 365.267 609.256 367.448C609.256 369.629 611.43 371.38 614.184 371.38C616.897 371.38 619.112 369.629 619.112 367.448Z" fill="#0C65B2"/>
<path d="M952.721 297.029C952.721 293.941 949.589 291.441 945.698 291.441C941.847 291.441 938.695 293.941 938.695 297.029C938.695 300.118 941.827 302.617 945.698 302.617C949.589 302.617 952.721 300.134 952.721 297.029Z" fill="#0C65B2"/>
<path d="M537.16 179.109C537.16 175.209 533.189 172.072 528.321 172.072C523.453 172.072 519.482 175.209 519.482 179.109C519.482 182.993 523.453 186.161 528.321 186.161C533.189 186.161 537.16 182.993 537.16 179.109Z" fill="#0C65B2"/>
<path d="M560.464 108.456C560.464 105.861 557.83 103.775 554.598 103.775C551.366 103.775 548.732 105.861 548.732 108.456C548.732 111.035 551.366 113.12 554.598 113.12C557.83 113.12 560.464 111.035 560.464 108.456Z" fill="#0C65B2"/>
<path d="M743.459 104.319C743.459 101.724 740.826 99.623 737.614 99.623C734.341 99.623 731.708 101.724 731.708 104.319C731.708 106.883 734.341 108.984 737.614 108.984C740.826 108.984 743.459 106.883 743.459 104.319Z" fill="#0C65B2"/>
<path d="M874.316 31.9478C874.316 29.3846 871.683 27.2832 868.431 27.2832C865.218 27.2832 862.585 29.3846 862.585 31.9478C862.585 34.5427 865.218 36.6442 868.431 36.6442C871.683 36.6442 874.316 34.5427 874.316 31.9478Z" fill="#0C65B2"/>
<path d="M819.253 129.009C819.253 126.43 816.639 124.328 813.407 124.328C810.155 124.328 807.541 126.43 807.541 129.009C807.541 131.604 810.155 133.689 813.407 133.689C816.639 133.673 819.253 131.604 819.253 129.009Z" fill="#0C65B2"/>
<path d="M948.006 210.304C948.006 207.724 945.373 205.623 942.14 205.623C938.908 205.623 936.275 207.724 936.275 210.304C936.275 212.883 938.908 214.984 942.14 214.984C945.373 214.984 948.006 212.883 948.006 210.304Z" fill="#0C65B2"/>
<path d="M831.334 357.097C831.334 354.55 828.701 352.4 825.489 352.4C822.236 352.4 819.603 354.55 819.603 357.097C819.603 359.708 822.236 361.793 825.489 361.793C828.701 361.793 831.334 359.708 831.334 357.097Z" fill="#0C65B2"/>
<path d="M840.141 295.467C840.141 292.888 837.507 290.803 834.295 290.803C831.043 290.803 828.409 292.888 828.409 295.467C828.409 298.062 831.043 300.164 834.295 300.164C837.507 300.164 840.141 298.062 840.141 295.467Z" fill="#0C65B2"/>
<path d="M823.423 282.846C823.423 281.349 821.867 280.107 819.971 280.107C818.056 280.107 816.56 281.349 816.56 282.846C816.56 284.374 818.056 285.584 819.971 285.584C821.867 285.584 823.423 284.358 823.423 282.846Z" fill="#0C65B2"/>
<path d="M823.15 296.45C823.15 294.906 821.614 293.68 819.699 293.68C817.803 293.68 816.267 294.906 816.267 296.45C816.267 297.946 817.803 299.172 819.699 299.172C821.614 299.172 823.15 297.946 823.15 296.45Z" fill="#0C65B2"/>
<path d="M941.654 239.624C941.654 237.029 939.041 234.928 935.808 234.928C932.556 234.928 929.942 237.029 929.942 239.624C929.942 242.219 932.556 244.321 935.808 244.321C939.041 244.321 941.654 242.219 941.654 239.624Z" fill="#0C65B2"/>
<path d="M597.211 85.8819C597.211 83.287 594.578 81.1855 591.346 81.1855C588.093 81.1855 585.48 83.287 585.48 85.8819C585.48 88.461 588.093 90.5624 591.346 90.5624C594.578 90.5624 597.211 88.461 597.211 85.8819Z" fill="#0C65B2"/>
<path d="M673.511 37.4076C673.511 34.8127 670.877 32.6953 667.645 32.6953C664.413 32.6953 661.779 34.8127 661.779 37.4076C661.779 39.9708 664.413 42.0722 667.645 42.0722C670.877 42.0722 673.511 39.9708 673.511 37.4076Z" fill="#0C65B2"/>
<path d="M596.121 234.424C596.121 229.442 591.073 225.43 584.868 225.43C578.643 225.43 573.615 229.457 573.615 234.424C573.615 239.392 578.663 243.403 584.868 243.403C591.073 243.387 596.121 239.376 596.121 234.424Z" fill="#0C65B2"/>
<path d="M783.13 170.354C783.13 165.387 778.082 161.375 771.877 161.375C765.672 161.375 760.644 165.387 760.644 170.354C760.644 175.305 765.672 179.333 771.877 179.333C778.082 179.333 783.13 175.321 783.13 170.354Z" fill="#0C65B2"/>
<path d="M707.103 405.253C707.103 400.27 702.075 396.242 695.85 396.242C689.605 396.242 684.597 400.286 684.597 405.253C684.597 410.22 689.625 414.232 695.85 414.232C702.075 414.248 707.103 410.22 707.103 405.253Z" fill="#0C65B2"/>
</g>
<mask id="mask2_3893_14539" style="mask-type:luminance" maskUnits="userSpaceOnUse" x="941" y="0" width="499" height="398">
<path d="M1440 0H941.201V398H1440V0Z" fill="white"/>
</mask>
<g mask="url(#mask2_3893_14539)">
<g opacity="0.25">
<path d="M1092.15 290.437L978.202 347.653L979.459 276.141L1092.15 290.437ZM979.12 346.316L1089.61 290.851L980.377 276.984L979.12 346.316Z" fill="#0C65B2"/>
<path d="M1099 245.854L1091.24 291.066L1090.82 291.019L977.949 276.691L1099 245.854ZM1090.48 290.223L1097.88 246.904L981.879 276.436L1090.48 290.223Z" fill="#0C65B2"/>
<path d="M1100.07 246.359L979.724 277.02L979.544 276.782L929.764 211.621L1100.07 246.359ZM980.103 276.161L1096.8 246.438L931.719 212.767L980.103 276.161Z" fill="#0C65B2"/>
<path d="M1229.22 149.628L1228.68 150.026L1098.08 247.154L1085.35 112.057L1229.22 149.628ZM1098.83 245.61L1227.44 149.93L1086.36 113.091L1098.83 245.61Z" fill="#0C65B2"/>
<path d="M1442.93 241.656L1333.22 295.975L1332.76 295.37L1442.45 241.035L1442.93 241.656Z" fill="#0C65B2"/>
<path d="M1443.93 241.158L1331.04 297.085L1393.31 233.914L1393.59 233.946L1443.93 241.158ZM1334.93 294.283L1441.44 241.54L1393.69 234.694L1334.93 294.283Z" fill="#0C65B2"/>
<path d="M1229.28 150.41L1085.21 112.791L1141.31 19.2129L1229.28 150.41ZM1086.47 112.361L1227.39 149.184L1141.31 20.8049L1086.47 112.361Z" fill="#0C65B2"/>
<path d="M1228.75 149.709L1227.91 149.98L1140.62 19.7382L1175.72 14.5801L1175.82 14.8985L1228.75 149.709ZM1142 20.2794L1226.4 146.207L1175.04 15.4079L1142 20.2794Z" fill="#0C65B2"/>
<path d="M1141.75 20.1848L1086 113.174L1068.86 100.533L1140.93 19.8027L1141.75 20.1848ZM1085.72 111.98L1138.65 23.6395L1070.06 100.469L1085.72 111.98Z" fill="#0C65B2"/>
<path d="M1142.14 19.7047L1069.02 101.613L1066.45 12.5566L1066.97 12.6044L1142.14 19.7047ZM1069.9 99.3843L1140.51 20.2938L1067.4 13.3686L1069.9 99.3843Z" fill="#0C65B2"/>
<path d="M1224.35 -59.207L1175.69 15.3304L1175.45 15.3463L1140.18 20.5522L1224.35 -59.207ZM1175.11 14.6777L1219.7 -53.6828L1142.49 19.4696L1175.11 14.6777Z" fill="#0C65B2"/>
<path d="M1143.46 20.5855L1066.45 13.2941L1067.76 -14.8047L1143.46 20.5855ZM1067.4 12.6732L1139.21 19.4552L1068.62 -13.5629L1067.4 12.6732Z" fill="#0C65B2"/>
<path d="M1223.45 -57.2168L1141.43 20.4887L1141.09 20.3295L1067.11 -14.2646L1068.07 -14.5353L1223.45 -57.2168ZM1141.21 19.5335L1220.6 -55.6566L1069.3 -14.1054L1141.21 19.5335Z" fill="#0C65B2"/>
<path d="M1069.91 100.82L990.36 109.035L990.859 108.366L1067.34 11.7793L1069.91 100.82ZM992.196 108.079L1068.97 100.199L1066.5 14.1991L992.196 108.079Z" fill="#0C65B2"/>
<path d="M1099.05 246.889L929.841 212.374L930.46 211.912L1069.78 111.871L1099.05 246.889ZM931.677 211.992L1097.9 245.886L1069.17 113.272L931.677 211.992Z" fill="#0C65B2"/>
<path d="M1098.91 246.355L1098.01 246.451L1068.92 112.182H1086.28L1098.91 246.355ZM1070 112.93L1097.29 238.857L1085.4 112.93H1070Z" fill="#0C65B2"/>
<path d="M1070.57 112.277L1069.74 112.834L929.394 213.64L990.986 108.17L991.325 108.186L1070.57 112.277ZM932.088 210.695L1068.34 112.866L991.544 108.918L932.088 210.695Z" fill="#0C65B2"/>
<path d="M1087.04 112.945H1069V99.6836L1087.04 112.945ZM1069.92 112.197H1084.66L1069.92 101.339V112.197Z" fill="#0C65B2"/>
<path d="M1069.91 100.088V112.951L991.258 108.892L991.218 108.191L1069.91 100.088ZM1068.99 112.171V100.9L996.006 108.43L1068.99 112.171Z" fill="#0C65B2"/>
<path d="M1146.14 299.214L1090.37 290.935L1098.15 245.42L1146.14 299.214ZM1091.43 290.346L1144.08 298.179L1098.75 247.346L1091.43 290.346Z" fill="#0C65B2"/>
<path d="M1229.66 148.312L1145.2 299.441L1097.86 246.332L1098.17 246.109L1229.66 148.312ZM1145.02 297.992L1227 151.305L1099.07 246.443L1145.02 297.992Z" fill="#0C65B2"/>
<path d="M1279.76 117.436L1225.15 152.301L1264.73 114.141L1279.76 117.436ZM1231.53 147.302L1277.78 117.754L1265.07 115L1231.53 147.302Z" fill="#0C65B2"/>
<path d="M1265.46 114.566L1228.13 150.513L1227.89 149.876L1174.08 12.9004L1265.46 114.566ZM1228.51 149.032L1264.32 114.55L1176.67 17.0396L1228.51 149.032Z" fill="#0C65B2"/>
<path d="M1372.47 -38.195L1279.02 118.028L1264.23 114.828L1371.71 -38.5293L1372.47 -38.195ZM1278.52 117.152L1365.57 -28.3405L1265.57 114.335L1278.52 117.152Z" fill="#0C65B2"/>
<path d="M1373.06 -38.9961L1264.97 115.253L1174.64 14.7657L1175.22 14.6065L1373.06 -38.9961ZM1264.85 113.9L1371.09 -37.7066L1176.1 15.1637L1264.85 113.9Z" fill="#0C65B2"/>
<path d="M1373.99 -38.4715L1372.23 -38.0098L1174.45 15.6088L1221.77 -56.875L1222.09 -56.8113L1373.99 -38.4715ZM1176.28 14.3352L1370.16 -38.2008L1222.27 -56.0631L1176.28 14.3352Z" fill="#0C65B2"/>
<path d="M1022.12 427.608L984.569 447.253L978.085 344.951L1022.12 427.608ZM985.427 445.964L1020.98 427.353L979.262 349.043L985.427 445.964Z" fill="#0C65B2"/>
<path d="M1091.85 289.76L1021.54 428.455L978.105 346.865L1091.85 289.76ZM1021.52 426.56L1089.94 291.591L979.242 347.151L1021.52 426.56Z" fill="#0C65B2"/>
<path d="M1145.92 298.473L1019.86 429.86L1090.61 290.258L1145.92 298.473ZM1023.21 425.148L1144.26 298.966L1091.17 291.086L1023.21 425.148Z" fill="#0C65B2"/>
<path d="M1450.83 158.389L1443.11 241.794L1392.75 234.582L1450.83 158.389ZM1442.27 240.934L1449.65 161.35L1394.25 234.056L1442.27 240.934Z" fill="#0C65B2"/>
<path d="M1418.28 453.923L1417.54 454.018L1240.27 475.224L1240.49 474.667L1305.13 323.061L1418.28 453.923ZM1241.62 474.332L1416.7 453.382L1305.41 324.668L1241.62 474.332Z" fill="#0C65B2"/>
<path d="M1417.84 453.432L1417.11 453.846L1304.88 324.05L1305.65 323.652L1417.84 453.432Z" fill="#0C65B2"/>
<path d="M1307.08 323.771L1216.87 346.378L1143.41 298.061L1307.08 323.771ZM1217.05 345.566L1303.4 323.931L1146.76 299.334L1217.05 345.566Z" fill="#0C65B2"/>
<path d="M1333.35 295.911L1305.61 324.057L1304.91 323.612L1332.65 295.449L1333.35 295.911Z" fill="#0C65B2"/>
<path d="M1333.95 295.324L1305.44 324.267L1305.14 324.219L1140.86 298.413L1333.95 295.324ZM1305.04 323.455L1332.04 296.072L1149.36 299.002L1305.04 323.455Z" fill="#0C65B2"/>
<path d="M1306.27 322.596L1305.71 323.965L1241 475.762L1198.78 402.243L1306.27 322.596ZM1240.86 473.804L1304.25 325.095L1199.9 402.403L1240.86 473.804Z" fill="#0C65B2"/>
<path d="M1199.99 402.61L1020.46 428.019L1021.18 427.27L1145.22 298L1199.99 402.61ZM1022.62 426.984L1198.69 402.053L1145 299.449L1022.62 426.984Z" fill="#0C65B2"/>
<path d="M1307.05 323.029L1198.53 403.425L1216.61 345.699L1307.05 323.029ZM1200.15 401.228L1303.46 324.669L1217.35 346.257L1200.15 401.228Z" fill="#0C65B2"/>
<path d="M1217.5 345.85L1199.44 403.48L1143.97 297.469L1217.5 345.85ZM1199.22 401.156L1216.46 346.104L1146.23 299.92L1199.22 401.156Z" fill="#0C65B2"/>
<path d="M1400.34 74.5428L1400 74.6542L1277.81 118.323L1278.35 117.431L1372.27 -39.4922L1400.34 74.5428ZM1279.69 116.858L1399.28 74.097L1371.89 -37.1997L1279.69 116.858Z" fill="#0C65B2"/>
<path d="M1333.54 296.059H1333L1143.92 299.084L1310.62 177.232L1310.77 177.917L1333.54 296.059ZM1146.29 298.32L1332.46 295.327L1309.96 178.681L1146.29 298.32Z" fill="#0C65B2"/>
<path d="M1311.12 177.853L1310.6 178.219L1143.8 300.135L1228.12 149.309L1311.12 177.853ZM1146.41 297.237L1309.46 178.092L1228.54 150.28L1146.41 297.237Z" fill="#0C65B2"/>
<path d="M1394.15 234.275L1393.85 234.545L1332.69 296.602L1309.65 177.074L1394.15 234.275ZM1333.25 294.819L1392.87 234.37L1310.91 178.889L1333.25 294.819Z" fill="#0C65B2"/>
<path d="M1450.94 160.152L1450.34 160.232L1309.34 178.46L1309.94 177.791L1399.92 73.627L1450.94 160.152ZM1311.25 177.489L1449.6 159.595L1399.76 75.0916L1311.25 177.489Z" fill="#0C65B2"/>
<path d="M1311.14 178.662L1227.47 149.879L1278.96 117.004L1311.14 178.662ZM1229.22 149.704L1309.47 177.261L1278.6 118.182L1229.22 149.704Z" fill="#0C65B2"/>
<path d="M1401.13 73.4727L1400.23 74.5393L1310.21 178.72L1309.87 178.083L1278.16 117.412L1278.58 117.253L1401.13 73.4727ZM1310.41 177.223L1398.55 75.2079L1279.36 117.794L1310.41 177.223Z" fill="#0C65B2"/>
<path d="M1097.58 238.424C1102.46 238.424 1106.39 241.592 1106.39 245.476C1106.39 249.361 1102.46 252.513 1097.58 252.513C1092.71 252.513 1088.74 249.361 1088.74 245.476C1088.74 241.592 1092.71 238.424 1097.58 238.424Z" fill="#0C65B2"/>
<path d="M978.015 340.754C981.886 340.754 985.038 343.269 985.038 346.358C985.038 349.43 981.906 351.962 978.015 351.962C974.165 351.962 971.012 349.446 971.012 346.358C971.012 343.285 974.145 340.754 978.015 340.754Z" fill="#0C65B2"/>
<path d="M1090.82 287.086C1093.55 287.086 1095.73 288.837 1095.73 291.034C1095.73 293.199 1093.55 294.966 1090.82 294.966C1088.09 294.966 1085.87 293.199 1085.87 291.034C1085.87 288.853 1088.09 287.086 1090.82 287.086Z" fill="#0C65B2"/>
<path d="M979.526 273C982.259 273 984.474 274.751 984.474 276.932C984.474 279.129 982.259 280.864 979.526 280.864C976.812 280.864 974.578 279.129 974.578 276.932C974.578 274.767 976.812 273 979.526 273Z" fill="#0C65B2"/>
<path d="M1067.78 6.80859C1071.61 6.80859 1074.78 9.30803 1074.78 12.4124C1074.78 15.485 1071.63 18.0004 1067.78 18.0004C1063.91 18.0004 1060.74 15.5009 1060.74 12.4124C1060.74 9.30803 1063.89 6.80859 1067.78 6.80859Z" fill="#0C65B2"/>
<path d="M1215.55 338.391C1220.44 338.391 1224.37 341.559 1224.37 345.443C1224.37 349.328 1220.44 352.496 1215.55 352.496C1210.68 352.496 1206.75 349.328 1206.75 345.443C1206.75 341.559 1210.68 338.391 1215.55 338.391Z" fill="#0C65B2"/>
<path d="M1304.14 319.797C1307.37 319.797 1309.98 321.898 1309.98 324.477C1309.98 327.056 1307.37 329.158 1304.14 329.158C1300.91 329.158 1298.25 327.056 1298.25 324.477C1298.25 321.898 1300.89 319.797 1304.14 319.797Z" fill="#0C65B2"/>
<path d="M1309.32 173.781C1312.53 173.781 1315.19 175.883 1315.19 178.446C1315.19 181.057 1312.53 183.158 1309.32 183.158C1306.07 183.158 1303.45 181.057 1303.45 178.446C1303.45 175.883 1306.07 173.781 1309.32 173.781Z" fill="#0C65B2"/>
<path d="M1399.98 69.3691C1403.21 69.3691 1405.87 71.4706 1405.87 74.0655C1405.87 76.6287 1403.21 78.7301 1399.98 78.7301C1396.75 78.7301 1394.13 76.6287 1394.13 74.0655C1394.13 71.4706 1396.75 69.3691 1399.98 69.3691Z" fill="#0C65B2"/>
<path d="M1278.32 113.305C1281.57 113.305 1284.21 115.39 1284.21 117.969C1284.21 120.564 1281.57 122.65 1278.32 122.65C1275.09 122.65 1272.47 120.564 1272.47 117.969C1272.49 115.39 1275.09 113.305 1278.32 113.305Z" fill="#0C65B2"/>
<path d="M1176.46 10.5703C1179.71 10.5703 1182.32 12.6718 1182.32 15.2508C1182.32 17.8298 1179.71 19.9313 1176.46 19.9313C1173.22 19.9313 1170.57 17.8298 1170.57 15.2508C1170.57 12.6718 1173.22 10.5703 1176.46 10.5703Z" fill="#0C65B2"/>
<path d="M992.485 103.664C995.737 103.664 998.351 105.765 998.351 108.329C998.351 110.924 995.737 113.025 992.485 113.025C989.253 113.025 986.619 110.924 986.619 108.329C986.619 105.765 989.253 103.664 992.485 103.664Z" fill="#0C65B2"/>
<path d="M1069.7 96.6367C1072.97 96.6367 1075.61 98.7382 1075.61 101.301C1075.61 103.896 1072.97 105.998 1069.7 105.998C1066.49 105.998 1063.86 103.896 1063.86 101.301C1063.86 98.7382 1066.49 96.6367 1069.7 96.6367Z" fill="#0C65B2"/>
<path d="M1085.52 109.977C1087.44 109.977 1088.96 111.218 1088.96 112.731C1088.96 114.259 1087.44 115.453 1085.52 115.453C1083.63 115.453 1082.11 114.259 1082.11 112.731C1082.13 111.218 1083.65 109.977 1085.52 109.977Z" fill="#0C65B2"/>
<path d="M1068.53 110.195C1070.39 110.195 1071.95 111.421 1071.95 112.949C1071.95 114.462 1070.39 115.688 1068.53 115.688C1066.62 115.688 1065.06 114.462 1065.06 112.949C1065.06 111.421 1066.62 110.195 1068.53 110.195Z" fill="#0C65B2"/>
<path d="M1139.71 15.6387C1142.94 15.6387 1145.55 17.7242 1145.55 20.3032C1145.55 22.8982 1142.94 24.9837 1139.71 24.9837C1136.46 24.9837 1133.84 22.8982 1133.84 20.3032C1133.84 17.7242 1136.46 15.6387 1139.71 15.6387Z" fill="#0C65B2"/>
<path d="M1332.37 290.475C1335.64 290.475 1338.26 292.576 1338.26 295.155C1338.26 297.75 1335.64 299.836 1332.37 299.836C1329.16 299.836 1326.52 297.75 1326.52 295.155C1326.54 292.576 1329.16 290.475 1332.37 290.475Z" fill="#0C65B2"/>
<path d="M1393.16 229.594C1396.39 229.594 1399.05 231.695 1399.05 234.274C1399.05 236.853 1396.39 238.955 1393.16 238.955C1389.93 238.955 1387.3 236.853 1387.3 234.274C1387.3 231.695 1389.93 229.594 1393.16 229.594Z" fill="#0C65B2"/>
<path d="M1146.21 291.346C1152.41 291.346 1157.48 295.373 1157.48 300.325C1157.48 305.292 1152.41 309.303 1146.21 309.303C1139.96 309.303 1134.93 305.276 1134.93 300.325C1134.93 295.373 1139.98 291.346 1146.21 291.346Z" fill="#0C65B2"/>
<path d="M1226.5 142.127C1232.73 142.127 1237.75 146.155 1237.75 151.106C1237.75 156.057 1232.71 160.069 1226.5 160.069C1220.26 160.069 1215.25 156.057 1215.25 151.106C1215.25 146.155 1220.26 142.127 1226.5 142.127Z" fill="#0C65B2"/>
<path d="M932.152 202.791C938.357 202.791 943.405 206.803 943.405 211.77C943.405 216.753 938.337 220.749 932.152 220.749C925.927 220.749 920.879 216.737 920.879 211.77C920.859 206.803 925.907 202.791 932.152 202.791Z" fill="#0C65B2"/>
</g>
<path d="M1401.72 276.141L1403 347.653L1289.02 290.437L1401.72 276.141ZM1400.83 276.968L1291.57 290.835L1402.06 346.3L1400.83 276.968Z" fill="#0C65B2"/>
<path d="M1403.24 276.691L1290.4 291.019L1289.92 291.066L1282.2 245.854L1403.24 276.691ZM1399.31 276.452L1283.27 246.92L1290.71 290.238L1399.31 276.452Z" fill="#0C65B2"/>
<path d="M1451.43 211.621L1401.69 276.782L1401.49 277.02L1281.12 246.359L1451.43 211.621ZM1449.52 212.751L1284.44 246.422L1401.1 276.145L1449.52 212.751Z" fill="#0C65B2"/>
<path d="M1295.88 112.057L1283.15 247.154L1152.58 150.026L1152 149.628L1295.88 112.057ZM1294.9 113.091L1153.78 149.93L1282.39 245.61L1294.9 113.091Z" fill="#0C65B2"/>
<path d="M938.278 241.656L1048.01 295.975L1048.45 295.37L938.757 241.035L938.278 241.656Z" fill="#0C65B2"/>
<path d="M987.603 233.946L987.862 233.914L1050.19 297.085L937.284 241.158L987.603 233.946ZM987.503 234.694L939.738 241.54L1046.22 294.283L987.503 234.694Z" fill="#0C65B2"/>
<path d="M1239.91 19.2129L1296.02 112.791L1151.94 150.41L1239.91 19.2129ZM1239.85 20.8049L1153.82 149.168L1294.74 112.345L1239.85 20.8049Z" fill="#0C65B2"/>
<path d="M1205.4 14.8985L1205.52 14.5801L1240.6 19.7382L1153.29 149.98L1152.43 149.709L1205.4 14.8985ZM1206.14 15.4079L1154.78 146.223L1239.18 20.2954L1206.14 15.4079Z" fill="#0C65B2"/>
<path d="M1240.24 19.8027L1312.37 100.533L1295.23 113.174L1239.47 20.1689L1240.24 19.8027ZM1311.13 100.469L1242.58 23.6554L1295.49 111.995L1311.13 100.469Z" fill="#0C65B2"/>
<path d="M1314.22 12.6044L1314.71 12.5566L1312.16 101.613L1239.08 19.7047L1314.22 12.6044ZM1313.78 13.3686L1240.69 20.3097L1311.34 99.4002L1313.78 13.3686Z" fill="#0C65B2"/>
<path d="M1241.03 20.5522L1205.77 15.3463L1205.53 15.3304L1156.89 -59.207L1241.03 20.5522ZM1238.7 19.4696L1161.5 -53.6828L1206.15 14.6777L1238.7 19.4696Z" fill="#0C65B2"/>
<path d="M1313.45 -14.8047L1314.75 13.2941L1237.79 20.5855L1313.45 -14.8047ZM1312.61 -13.5629L1242 19.4392L1313.79 12.6573L1312.61 -13.5629Z" fill="#0C65B2"/>
<path d="M1313.17 -14.5512L1314.13 -14.2806L1240.15 20.3295L1239.79 20.4887L1157.79 -57.2168L1313.17 -14.5512ZM1311.96 -14.1214L1160.62 -55.6726L1239.97 19.5176L1311.96 -14.1214Z" fill="#0C65B2"/>
<path d="M1313.86 11.75L1390.32 108.337L1390.83 109.005L1311.29 100.791L1313.86 11.75ZM1314.72 14.1858L1312.22 100.186L1389.06 108.066L1314.72 14.1858Z" fill="#0C65B2"/>
<path d="M1311.46 111.871L1450.79 211.912L1451.41 212.374L1282.22 246.889L1311.46 111.871ZM1312.06 113.288L1283.33 245.902L1449.51 212.008L1312.06 113.288Z" fill="#0C65B2"/>
<path d="M1294.92 112.182H1312.32L1283.19 246.451L1282.31 246.355L1294.92 112.182ZM1295.76 112.93L1283.89 238.857L1311.2 112.93H1295.76Z" fill="#0C65B2"/>
<path d="M1389.89 108.186L1390.21 108.17L1451.82 213.64L1311.48 112.834L1310.68 112.277L1389.89 108.186ZM1389.69 108.918L1312.86 112.882L1449.11 210.711L1389.69 108.918Z" fill="#0C65B2"/>
<path d="M1312.23 99.6836V112.945H1294.2L1312.23 99.6836ZM1311.34 101.339L1296.53 112.197H1311.34V101.339Z" fill="#0C65B2"/>
<path d="M1389.98 108.191L1389.96 108.892L1311.32 112.951V100.088L1389.98 108.191ZM1385.19 108.43L1312.22 100.9V112.171L1385.19 108.43Z" fill="#0C65B2"/>
<path d="M1283.09 245.42L1290.85 290.935L1235.08 299.214L1283.09 245.42ZM1282.47 247.346L1237.14 298.179L1289.83 290.346L1282.47 247.346Z" fill="#0C65B2"/>
<path d="M1283.08 246.109L1283.36 246.332L1236.01 299.441L1151.55 148.312L1283.08 246.109ZM1282.14 246.427L1154.23 151.29L1236.17 297.976L1282.14 246.427Z" fill="#0C65B2"/>
<path d="M1116.46 114.141L1156.07 152.301L1101.44 117.436L1116.46 114.141ZM1116.18 115L1103.43 117.739L1149.7 147.286L1116.18 115Z" fill="#0C65B2"/>
<path d="M1207.12 12.9316L1153.31 149.907L1153.07 150.544L1115.72 114.581L1207.12 12.9316ZM1204.55 17.0549L1116.92 114.565L1152.69 149.048L1204.55 17.0549Z" fill="#0C65B2"/>
<path d="M1009.55 -38.5293L1116.99 114.828L1102.19 118.028L1008.71 -38.195L1009.55 -38.5293ZM1115.64 114.35L1015.64 -28.3246L1102.65 117.168L1115.64 114.35Z" fill="#0C65B2"/>
<path d="M1205.99 14.6225L1206.55 14.7817L1116.27 115.253L1008.13 -38.9961L1205.99 14.6225ZM1205.12 15.1637L1010.1 -37.7066L1116.37 113.9L1205.12 15.1637Z" fill="#0C65B2"/>
<path d="M1159.11 -56.8113L1159.43 -56.875L1206.77 15.6088L1008.99 -38.0257L1007.19 -38.4874L1159.11 -56.8113ZM1158.91 -56.079L1011.04 -38.2168L1204.9 14.3192L1158.91 -56.079Z" fill="#0C65B2"/>
<path d="M1403.13 344.951L1396.67 447.253L1359.1 427.608L1403.13 344.951ZM1401.98 349.027L1360.24 427.337L1395.83 445.948L1401.98 349.027Z" fill="#0C65B2"/>
<path d="M1403.11 346.865L1359.66 428.455L1289.35 289.76L1403.11 346.865ZM1401.97 347.151L1291.28 291.591L1359.7 426.56L1401.97 347.151Z" fill="#0C65B2"/>
<path d="M1290.62 290.258L1361.35 429.86L1235.3 298.473L1290.62 290.258ZM1290.05 291.086L1236.91 298.966L1357.98 425.148L1290.05 291.086Z" fill="#0C65B2"/>
<path d="M988.407 234.582L938.109 241.794L930.367 158.389L988.407 234.582ZM986.971 234.056L931.584 161.35L938.927 240.934L986.971 234.056Z" fill="#0C65B2"/>
<path d="M1076.09 323.061L1140.7 474.667L1140.94 475.208L963.663 454.003L962.964 453.907L1076.09 323.061ZM1075.81 324.668L964.541 453.382L1139.58 474.332L1075.81 324.668Z" fill="#0C65B2"/>
<path d="M963.354 453.432L964.132 453.846L1076.34 324.05L1075.6 323.652L963.354 453.432Z" fill="#0C65B2"/>
<path d="M1237.79 298.061L1164.35 346.378L1074.1 323.771L1237.79 298.061ZM1234.4 299.334L1077.77 323.931L1164.09 345.566L1234.4 299.334Z" fill="#0C65B2"/>
<path d="M1047.88 295.911L1075.59 324.057L1076.29 323.612L1048.6 295.449L1047.88 295.911Z" fill="#0C65B2"/>
<path d="M1240.35 298.413L1076.06 324.219L1075.76 324.267L1047.27 295.324L1240.35 298.413ZM1231.85 299.002L1049.19 296.072L1076.16 323.455L1231.85 299.002Z" fill="#0C65B2"/>
<path d="M1182.44 402.243L1140.2 475.762L1075.56 323.965L1074.96 322.596L1182.44 402.243ZM1181.32 402.403L1076.96 325.095L1140.32 473.804L1181.32 402.403Z" fill="#0C65B2"/>
<path d="M1235.98 298L1360.04 427.27L1360.74 428.019L1181.23 402.61L1235.98 298ZM1236.22 299.449L1182.52 402.053L1358.62 426.984L1236.22 299.449Z" fill="#0C65B2"/>
<path d="M1164.58 345.699L1182.68 403.425L1074.16 323.029L1164.58 345.699ZM1163.83 346.257L1077.77 324.685L1181.06 401.244L1163.83 346.257Z" fill="#0C65B2"/>
<path d="M1237.21 297.469L1181.77 403.48L1163.73 345.85L1237.21 297.469ZM1235 299.936L1164.75 346.12L1181.99 401.172L1235 299.936Z" fill="#0C65B2"/>
<path d="M1008.96 -39.4922L1102.88 117.431L1103.41 118.323L981.209 74.6383L980.87 74.5428L1008.96 -39.4922ZM1009.32 -37.1997L981.907 74.097L1101.5 116.858L1009.32 -37.1997Z" fill="#0C65B2"/>
<path d="M1070.47 177.917L1070.61 177.232L1237.29 299.084L1048.22 296.059H1047.7L1070.47 177.917ZM1071.24 178.697L1048.76 295.343L1234.91 298.336L1071.24 178.697Z" fill="#0C65B2"/>
<path d="M1153.13 149.34L1237.43 300.166L1070.61 178.251L1070.09 177.868L1153.13 149.34ZM1152.63 150.295L1071.74 178.091L1234.77 297.237L1152.63 150.295Z" fill="#0C65B2"/>
<path d="M1071.56 177.045L1048.5 296.572L987.346 234.516L987.066 234.245L1071.56 177.045ZM1070.29 178.86L988.343 234.341L1047.94 294.789L1070.29 178.86Z" fill="#0C65B2"/>
<path d="M981.325 73.627L1071.29 177.791L1071.93 178.46L930.887 160.232L930.308 160.152L981.325 73.627ZM981.465 75.0916L931.625 159.595L1069.97 177.489L981.465 75.0916Z" fill="#0C65B2"/>
<path d="M1102.25 117.004L1153.75 149.879L1070.05 178.662L1102.25 117.004ZM1102.63 118.182L1071.79 177.261L1151.99 149.704L1102.63 118.182Z" fill="#0C65B2"/>
<path d="M1102.64 117.269L1103.03 117.428L1071.35 178.099L1071.05 178.736L981.029 74.5552L980.091 73.4727L1102.64 117.269ZM1101.86 117.778L982.685 75.2079L1070.83 177.223L1101.86 117.778Z" fill="#0C65B2"/>
<path d="M1283.63 238.424C1278.8 238.424 1274.83 241.592 1274.83 245.476C1274.83 249.361 1278.8 252.513 1283.63 252.513C1288.54 252.513 1292.47 249.361 1292.47 245.476C1292.47 241.592 1288.54 238.424 1283.63 238.424Z" fill="#0C65B2"/>
<path d="M1403.2 340.754C1399.33 340.754 1396.2 343.269 1396.2 346.358C1396.2 349.43 1399.31 351.962 1403.2 351.962C1407.09 351.962 1410.22 349.446 1410.22 346.358C1410.24 343.285 1407.11 340.754 1403.2 340.754Z" fill="#0C65B2"/>
<path d="M1290.42 287.086C1287.68 287.086 1285.47 288.837 1285.47 291.034C1285.47 293.199 1287.68 294.966 1290.42 294.966C1293.15 294.966 1295.35 293.199 1295.35 291.034C1295.35 288.853 1293.15 287.086 1290.42 287.086Z" fill="#0C65B2"/>
<path d="M1401.71 273C1398.98 273 1396.76 274.751 1396.76 276.932C1396.76 279.129 1398.98 280.864 1401.71 280.864C1404.45 280.864 1406.64 279.129 1406.64 276.932C1406.64 274.767 1404.45 273 1401.71 273Z" fill="#0C65B2"/>
<path d="M1313.46 6.80859C1309.59 6.80859 1306.45 9.30803 1306.45 12.4124C1306.45 15.485 1309.59 18.0004 1313.46 18.0004C1317.33 18.0004 1320.46 15.5009 1320.46 12.4124C1320.46 9.30803 1317.35 6.80859 1313.46 6.80859Z" fill="#0C65B2"/>
<path d="M1165.67 338.391C1160.78 338.391 1156.85 341.559 1156.85 345.443C1156.85 349.328 1160.78 352.496 1165.67 352.496C1170.54 352.496 1174.51 349.328 1174.51 345.443C1174.51 341.559 1170.54 338.391 1165.67 338.391Z" fill="#0C65B2"/>
<path d="M1077.12 319.797C1073.87 319.797 1071.26 321.898 1071.26 324.477C1071.26 327.056 1073.87 329.158 1077.12 329.158C1080.36 329.158 1082.97 327.056 1082.97 324.477C1082.97 321.898 1080.36 319.797 1077.12 319.797Z" fill="#0C65B2"/>
<path d="M1071.94 173.781C1068.69 173.781 1066.06 175.883 1066.06 178.446C1066.06 181.057 1068.69 183.158 1071.94 183.158C1075.15 183.158 1077.79 181.057 1077.79 178.446C1077.79 175.883 1075.15 173.781 1071.94 173.781Z" fill="#0C65B2"/>
<path d="M981.242 69.3691C978.03 69.3691 975.396 71.4706 975.396 74.0655C975.396 76.6287 978.03 78.7301 981.242 78.7301C984.494 78.7301 987.128 76.6287 987.128 74.0655C987.128 71.4706 984.494 69.3691 981.242 69.3691Z" fill="#0C65B2"/>
<path d="M1102.88 113.305C1099.65 113.305 1097.02 115.39 1097.02 117.969C1097.02 120.564 1099.65 122.65 1102.88 122.65C1106.14 122.65 1108.75 120.564 1108.75 117.969C1108.73 115.39 1106.14 113.305 1102.88 113.305Z" fill="#0C65B2"/>
<path d="M1204.77 10.5703C1201.53 10.5703 1198.9 12.6718 1198.9 15.2508C1198.9 17.8298 1201.53 19.9313 1204.77 19.9313C1208 19.9313 1210.63 17.8298 1210.63 15.2508C1210.63 12.6718 1208 10.5703 1204.77 10.5703Z" fill="#0C65B2"/>
<path d="M1388.74 103.664C1385.55 103.664 1382.85 105.765 1382.85 108.329C1382.85 110.924 1385.55 113.025 1388.74 113.025C1392.01 113.025 1394.62 110.924 1394.62 108.329C1394.62 105.765 1392.01 103.664 1388.74 103.664Z" fill="#0C65B2"/>
<path d="M1311.5 96.6367C1308.27 96.6367 1305.66 98.7382 1305.66 101.301C1305.66 103.896 1308.27 105.998 1311.5 105.998C1314.75 105.998 1317.39 103.896 1317.39 101.301C1317.39 98.7382 1314.75 96.6367 1311.5 96.6367Z" fill="#0C65B2"/>
<path d="M1295.68 109.977C1293.81 109.977 1292.25 111.218 1292.25 112.731C1292.25 114.259 1293.81 115.453 1295.68 115.453C1297.6 115.453 1299.11 114.259 1299.11 112.731C1299.11 111.218 1297.58 109.977 1295.68 109.977Z" fill="#0C65B2"/>
<path d="M1312.73 110.195C1310.8 110.195 1309.26 111.421 1309.26 112.949C1309.26 114.462 1310.8 115.688 1312.73 115.688C1314.61 115.688 1316.14 114.462 1316.14 112.949C1316.14 111.421 1314.61 110.195 1312.73 110.195Z" fill="#0C65B2"/>
<path d="M1241.51 15.6387C1238.26 15.6387 1235.63 17.7242 1235.63 20.3032C1235.63 22.8982 1238.26 24.9837 1241.51 24.9837C1244.77 24.9837 1247.4 22.8982 1247.4 20.3032C1247.4 17.7242 1244.77 15.6387 1241.51 15.6387Z" fill="#0C65B2"/>
<path d="M1048.83 290.475C1045.58 290.475 1042.95 292.576 1042.95 295.155C1042.95 297.75 1045.58 299.836 1048.83 299.836C1052.07 299.836 1054.7 297.75 1054.7 295.155C1054.7 292.576 1052.07 290.475 1048.83 290.475Z" fill="#0C65B2"/>
<path d="M988.082 229.594C984.83 229.594 982.176 231.695 982.176 234.274C982.176 236.853 984.83 238.955 988.082 238.955C991.294 238.955 993.928 236.853 993.928 234.274C993.928 231.695 991.294 229.594 988.082 229.594Z" fill="#0C65B2"/>
<path d="M1235 291.346C1228.75 291.346 1223.72 295.373 1223.72 300.325C1223.72 305.292 1228.77 309.303 1235 309.303C1241.22 309.303 1246.25 305.276 1246.25 300.325C1246.23 295.373 1241.2 291.346 1235 291.346Z" fill="#0C65B2"/>
<path d="M1154.7 142.127C1148.48 142.127 1143.45 146.155 1143.45 151.106C1143.45 156.057 1148.48 160.069 1154.7 160.069C1160.91 160.069 1165.95 156.057 1165.95 151.106C1165.95 146.155 1160.93 142.127 1154.7 142.127Z" fill="#0C65B2"/>
<path d="M1449.09 202.791C1442.85 202.791 1437.8 206.803 1437.8 211.77C1437.8 216.753 1442.87 220.749 1449.09 220.749C1455.32 220.749 1460.34 216.737 1460.34 211.77C1460.36 206.803 1455.32 202.791 1449.09 202.791Z" fill="#0C65B2"/>
</g>
<defs>
<linearGradient id="paint0_linear_3893_14539" x1="2.02248e-05" y1="199" x2="1440" y2="199" gradientUnits="userSpaceOnUse">
<stop stop-color="#103883"/>
<stop offset="1" stop-color="#0F73C7"/>
</linearGradient>
</defs>
</svg>
