<svg width="1440" height="398" viewBox="0 0 1440 398" fill="none" xmlns="http://www.w3.org/2000/svg">
<g clip-path="url(#clip0_3930_16321)">
<path d="M1440 398L0 398L4.04495e-05 1.3782e-05L1440 0.00012207L1440 398Z" fill="url(#paint0_linear_3930_16321)"/>
<rect width="68.5714" height="68.5714" stroke="white" stroke-opacity="0.06" stroke-width="1.37143"/>
<rect x="68.5713" width="68.5714" height="68.5714" stroke="white" stroke-opacity="0.06" stroke-width="1.37143"/>
<rect x="137.143" width="68.5714" height="68.5714" fill="white" fill-opacity="0.05" stroke="white" stroke-opacity="0.06" stroke-width="1.37143"/>
<rect x="205.714" width="68.5714" height="68.5714" stroke="white" stroke-opacity="0.06" stroke-width="1.37143"/>
<rect x="274.286" width="68.5714" height="68.5714" stroke="white" stroke-opacity="0.06" stroke-width="1.37143"/>
<rect x="342.857" width="68.5714" height="68.5714" stroke="white" stroke-opacity="0.06" stroke-width="1.37143"/>
<rect x="411.429" width="68.5714" height="68.5714" stroke="white" stroke-opacity="0.06" stroke-width="1.37143"/>
<rect x="480" width="68.5714" height="68.5714" stroke="white" stroke-opacity="0.06" stroke-width="1.37143"/>
<rect x="548.571" width="68.5714" height="68.5714" stroke="white" stroke-opacity="0.06" stroke-width="1.37143"/>
<rect x="617.143" width="68.5714" height="68.5714" fill="white" fill-opacity="0.05" stroke="white" stroke-opacity="0.06" stroke-width="1.37143"/>
<rect x="685.714" width="68.5714" height="68.5714" stroke="white" stroke-opacity="0.06" stroke-width="1.37143"/>
<rect x="754.286" width="68.5714" height="68.5714" stroke="white" stroke-opacity="0.06" stroke-width="1.37143"/>
<rect x="822.857" width="68.5714" height="68.5714" stroke="white" stroke-opacity="0.06" stroke-width="1.37143"/>
<rect x="891.429" width="68.5714" height="68.5714" stroke="white" stroke-opacity="0.06" stroke-width="1.37143"/>
<rect x="960" width="68.5714" height="68.5714" stroke="white" stroke-opacity="0.06" stroke-width="1.37143"/>
<rect x="1028.57" width="68.5714" height="68.5714" stroke="white" stroke-opacity="0.06" stroke-width="1.37143"/>
<rect x="1097.14" width="68.5714" height="68.5714" stroke="white" stroke-opacity="0.06" stroke-width="1.37143"/>
<rect x="1165.71" width="68.5714" height="68.5714" stroke="white" stroke-opacity="0.06" stroke-width="1.37143"/>
<rect x="1234.29" width="68.5714" height="68.5714" stroke="white" stroke-opacity="0.06" stroke-width="1.37143"/>
<rect x="1302.86" width="68.5714" height="68.5714" stroke="white" stroke-opacity="0.06" stroke-width="1.37143"/>
<rect x="1371.43" width="68.5714" height="68.5714" stroke="white" stroke-opacity="0.06" stroke-width="1.37143"/>
<rect y="68.5547" width="68.5714" height="68.5714" stroke="white" stroke-opacity="0.06" stroke-width="1.37143"/>
<rect x="68.5713" y="68.5547" width="68.5714" height="68.5714" stroke="white" stroke-opacity="0.06" stroke-width="1.37143"/>
<rect x="137.143" y="68.5547" width="68.5714" height="68.5714" stroke="white" stroke-opacity="0.06" stroke-width="1.37143"/>
<rect x="205.714" y="68.5547" width="68.5714" height="68.5714" stroke="white" stroke-opacity="0.06" stroke-width="1.37143"/>
<rect x="274.286" y="68.5547" width="68.5714" height="68.5714" stroke="white" stroke-opacity="0.06" stroke-width="1.37143"/>
<rect x="342.857" y="68.5547" width="68.5714" height="68.5714" stroke="white" stroke-opacity="0.06" stroke-width="1.37143"/>
<rect x="411.429" y="68.5547" width="68.5714" height="68.5714" stroke="white" stroke-opacity="0.06" stroke-width="1.37143"/>
<rect x="480" y="68.5547" width="68.5714" height="68.5714" stroke="white" stroke-opacity="0.06" stroke-width="1.37143"/>
<rect x="548.571" y="68.5547" width="68.5714" height="68.5714" stroke="white" stroke-opacity="0.06" stroke-width="1.37143"/>
<rect x="617.143" y="68.5547" width="68.5714" height="68.5714" stroke="white" stroke-opacity="0.06" stroke-width="1.37143"/>
<rect x="685.714" y="68.5547" width="68.5714" height="68.5714" stroke="white" stroke-opacity="0.06" stroke-width="1.37143"/>
<rect x="754.286" y="68.5547" width="68.5714" height="68.5714" stroke="white" stroke-opacity="0.06" stroke-width="1.37143"/>
<rect x="822.857" y="68.5547" width="68.5714" height="68.5714" stroke="white" stroke-opacity="0.06" stroke-width="1.37143"/>
<rect x="891.429" y="68.5547" width="68.5714" height="68.5714" stroke="white" stroke-opacity="0.06" stroke-width="1.37143"/>
<rect x="960" y="68.5547" width="68.5714" height="68.5714" stroke="white" stroke-opacity="0.06" stroke-width="1.37143"/>
<rect x="1028.57" y="68.5547" width="68.5714" height="68.5714" stroke="white" stroke-opacity="0.06" stroke-width="1.37143"/>
<rect x="1097.14" y="68.5547" width="68.5714" height="68.5714" fill="white" fill-opacity="0.05" stroke="white" stroke-opacity="0.06" stroke-width="1.37143"/>
<rect x="1165.71" y="68.5547" width="68.5714" height="68.5714" stroke="white" stroke-opacity="0.06" stroke-width="1.37143"/>
<rect x="1234.29" y="68.5547" width="68.5714" height="68.5714" stroke="white" stroke-opacity="0.06" stroke-width="1.37143"/>
<rect x="1302.86" y="68.5547" width="68.5714" height="68.5714" stroke="white" stroke-opacity="0.06" stroke-width="1.37143"/>
<rect x="1371.43" y="68.5547" width="68.5714" height="68.5714" stroke="white" stroke-opacity="0.06" stroke-width="1.37143"/>
<rect y="137.137" width="68.5714" height="68.5714" stroke="white" stroke-opacity="0.06" stroke-width="1.37143"/>
<rect x="68.5713" y="137.137" width="68.5714" height="68.5714" stroke="white" stroke-opacity="0.06" stroke-width="1.37143"/>
<rect x="137.143" y="137.137" width="68.5714" height="68.5714" stroke="white" stroke-opacity="0.06" stroke-width="1.37143"/>
<rect x="205.714" y="137.137" width="68.5714" height="68.5714" stroke="white" stroke-opacity="0.06" stroke-width="1.37143"/>
<rect x="274.286" y="137.137" width="68.5714" height="68.5714" stroke="white" stroke-opacity="0.06" stroke-width="1.37143"/>
<rect x="342.857" y="137.137" width="68.5714" height="68.5714" stroke="white" stroke-opacity="0.06" stroke-width="1.37143"/>
<rect x="411.429" y="137.137" width="68.5714" height="68.5714" stroke="white" stroke-opacity="0.06" stroke-width="1.37143"/>
<rect x="480" y="137.137" width="68.5714" height="68.5714" stroke="white" stroke-opacity="0.06" stroke-width="1.37143"/>
<rect x="548.571" y="137.137" width="68.5714" height="68.5714" stroke="white" stroke-opacity="0.06" stroke-width="1.37143"/>
<rect x="617.143" y="137.137" width="68.5714" height="68.5714" stroke="white" stroke-opacity="0.06" stroke-width="1.37143"/>
<rect x="685.714" y="137.137" width="68.5714" height="68.5714" stroke="white" stroke-opacity="0.06" stroke-width="1.37143"/>
<rect x="754.286" y="137.137" width="68.5714" height="68.5714" stroke="white" stroke-opacity="0.06" stroke-width="1.37143"/>
<rect x="822.857" y="137.137" width="68.5714" height="68.5714" stroke="white" stroke-opacity="0.06" stroke-width="1.37143"/>
<rect x="891.429" y="137.137" width="68.5714" height="68.5714" stroke="white" stroke-opacity="0.06" stroke-width="1.37143"/>
<rect x="960" y="137.137" width="68.5714" height="68.5714" stroke="white" stroke-opacity="0.06" stroke-width="1.37143"/>
<rect x="1028.57" y="137.137" width="68.5714" height="68.5714" stroke="white" stroke-opacity="0.06" stroke-width="1.37143"/>
<rect x="1097.14" y="137.137" width="68.5714" height="68.5714" stroke="white" stroke-opacity="0.06" stroke-width="1.37143"/>
<rect x="1165.71" y="137.137" width="68.5714" height="68.5714" stroke="white" stroke-opacity="0.06" stroke-width="1.37143"/>
<rect x="1234.29" y="137.137" width="68.5714" height="68.5714" stroke="white" stroke-opacity="0.06" stroke-width="1.37143"/>
<rect x="1302.86" y="137.137" width="68.5714" height="68.5714" stroke="white" stroke-opacity="0.06" stroke-width="1.37143"/>
<rect x="1371.43" y="137.137" width="68.5714" height="68.5714" stroke="white" stroke-opacity="0.06" stroke-width="1.37143"/>
<rect y="205.695" width="68.5714" height="68.5714" stroke="white" stroke-opacity="0.06" stroke-width="1.37143"/>
<rect x="68.5713" y="205.695" width="68.5714" height="68.5714" stroke="white" stroke-opacity="0.06" stroke-width="1.37143"/>
<rect x="137.143" y="205.695" width="68.5714" height="68.5714" stroke="white" stroke-opacity="0.06" stroke-width="1.37143"/>
<rect x="205.714" y="205.695" width="68.5714" height="68.5714" fill="white" fill-opacity="0.05" stroke="white" stroke-opacity="0.06" stroke-width="1.37143"/>
<rect x="274.286" y="205.695" width="68.5714" height="68.5714" stroke="white" stroke-opacity="0.06" stroke-width="1.37143"/>
<rect x="342.857" y="205.695" width="68.5714" height="68.5714" stroke="white" stroke-opacity="0.06" stroke-width="1.37143"/>
<rect x="411.429" y="205.695" width="68.5714" height="68.5714" stroke="white" stroke-opacity="0.06" stroke-width="1.37143"/>
<rect x="480" y="205.695" width="68.5714" height="68.5714" stroke="white" stroke-opacity="0.06" stroke-width="1.37143"/>
<rect x="548.571" y="205.695" width="68.5714" height="68.5714" stroke="white" stroke-opacity="0.06" stroke-width="1.37143"/>
<rect x="617.143" y="205.695" width="68.5714" height="68.5714" stroke="white" stroke-opacity="0.06" stroke-width="1.37143"/>
<rect x="685.714" y="205.695" width="68.5714" height="68.5714" stroke="white" stroke-opacity="0.06" stroke-width="1.37143"/>
<rect x="754.286" y="205.695" width="68.5714" height="68.5714" stroke="white" stroke-opacity="0.06" stroke-width="1.37143"/>
<rect x="822.857" y="205.695" width="68.5714" height="68.5714" fill="white" fill-opacity="0.05" stroke="white" stroke-opacity="0.06" stroke-width="1.37143"/>
<rect x="891.429" y="205.695" width="68.5714" height="68.5714" stroke="white" stroke-opacity="0.06" stroke-width="1.37143"/>
<rect x="960" y="205.695" width="68.5714" height="68.5714" stroke="white" stroke-opacity="0.06" stroke-width="1.37143"/>
<rect x="1028.57" y="205.695" width="68.5714" height="68.5714" stroke="white" stroke-opacity="0.06" stroke-width="1.37143"/>
<rect x="1097.14" y="205.695" width="68.5714" height="68.5714" stroke="white" stroke-opacity="0.06" stroke-width="1.37143"/>
<rect x="1165.71" y="205.695" width="68.5714" height="68.5714" stroke="white" stroke-opacity="0.06" stroke-width="1.37143"/>
<rect x="1234.29" y="205.695" width="68.5714" height="68.5714" stroke="white" stroke-opacity="0.06" stroke-width="1.37143"/>
<rect x="1302.86" y="205.695" width="68.5714" height="68.5714" stroke="white" stroke-opacity="0.06" stroke-width="1.37143"/>
<rect x="1371.43" y="205.695" width="68.5714" height="68.5714" stroke="white" stroke-opacity="0.06" stroke-width="1.37143"/>
<rect y="274.273" width="68.5714" height="68.5714" stroke="white" stroke-opacity="0.06" stroke-width="1.37143"/>
<rect x="68.5713" y="274.273" width="68.5714" height="68.5714" stroke="white" stroke-opacity="0.06" stroke-width="1.37143"/>
<rect x="137.143" y="274.273" width="68.5714" height="68.5714" stroke="white" stroke-opacity="0.06" stroke-width="1.37143"/>
<rect x="205.714" y="274.273" width="68.5714" height="68.5714" stroke="white" stroke-opacity="0.06" stroke-width="1.37143"/>
<rect x="274.286" y="274.273" width="68.5714" height="68.5714" stroke="white" stroke-opacity="0.06" stroke-width="1.37143"/>
<rect x="342.857" y="274.273" width="68.5714" height="68.5714" stroke="white" stroke-opacity="0.06" stroke-width="1.37143"/>
<rect x="411.429" y="274.273" width="68.5714" height="68.5714" stroke="white" stroke-opacity="0.06" stroke-width="1.37143"/>
<rect x="480" y="274.273" width="68.5714" height="68.5714" stroke="white" stroke-opacity="0.06" stroke-width="1.37143"/>
<rect x="548.571" y="274.273" width="68.5714" height="68.5714" stroke="white" stroke-opacity="0.06" stroke-width="1.37143"/>
<rect x="617.143" y="274.273" width="68.5714" height="68.5714" stroke="white" stroke-opacity="0.06" stroke-width="1.37143"/>
<rect x="685.714" y="274.273" width="68.5714" height="68.5714" stroke="white" stroke-opacity="0.06" stroke-width="1.37143"/>
<rect x="754.286" y="274.273" width="68.5714" height="68.5714" stroke="white" stroke-opacity="0.06" stroke-width="1.37143"/>
<rect x="822.857" y="274.273" width="68.5714" height="68.5714" stroke="white" stroke-opacity="0.06" stroke-width="1.37143"/>
<rect x="891.429" y="274.273" width="68.5714" height="68.5714" stroke="white" stroke-opacity="0.06" stroke-width="1.37143"/>
<rect x="960" y="274.273" width="68.5714" height="68.5714" stroke="white" stroke-opacity="0.06" stroke-width="1.37143"/>
<rect x="1028.57" y="274.273" width="68.5714" height="68.5714" stroke="white" stroke-opacity="0.06" stroke-width="1.37143"/>
<rect x="1097.14" y="274.273" width="68.5714" height="68.5714" stroke="white" stroke-opacity="0.06" stroke-width="1.37143"/>
<rect x="1165.71" y="274.273" width="68.5714" height="68.5714" stroke="white" stroke-opacity="0.06" stroke-width="1.37143"/>
<rect x="1234.29" y="274.273" width="68.5714" height="68.5714" fill="white" fill-opacity="0.05" stroke="white" stroke-opacity="0.06" stroke-width="1.37143"/>
<rect x="1302.86" y="274.273" width="68.5714" height="68.5714" stroke="white" stroke-opacity="0.06" stroke-width="1.37143"/>
<rect x="1371.43" y="274.273" width="68.5714" height="68.5714" stroke="white" stroke-opacity="0.06" stroke-width="1.37143"/>
<rect y="342.855" width="68.5714" height="68.5714" stroke="white" stroke-opacity="0.06" stroke-width="1.37143"/>
<rect x="68.5713" y="342.855" width="68.5714" height="68.5714" stroke="white" stroke-opacity="0.06" stroke-width="1.37143"/>
<rect x="137.143" y="342.855" width="68.5714" height="68.5714" stroke="white" stroke-opacity="0.06" stroke-width="1.37143"/>
<rect x="205.714" y="342.855" width="68.5714" height="68.5714" stroke="white" stroke-opacity="0.06" stroke-width="1.37143"/>
<rect x="274.286" y="342.855" width="68.5714" height="68.5714" stroke="white" stroke-opacity="0.06" stroke-width="1.37143"/>
<rect x="342.857" y="342.855" width="68.5714" height="68.5714" stroke="white" stroke-opacity="0.06" stroke-width="1.37143"/>
<rect x="411.429" y="342.855" width="68.5714" height="68.5714" stroke="white" stroke-opacity="0.06" stroke-width="1.37143"/>
<rect x="480" y="342.855" width="68.5714" height="68.5714" stroke="white" stroke-opacity="0.06" stroke-width="1.37143"/>
<rect x="548.571" y="342.855" width="68.5714" height="68.5714" stroke="white" stroke-opacity="0.06" stroke-width="1.37143"/>
<rect x="617.143" y="342.855" width="68.5714" height="68.5714" stroke="white" stroke-opacity="0.06" stroke-width="1.37143"/>
<rect x="685.714" y="342.855" width="68.5714" height="68.5714" stroke="white" stroke-opacity="0.06" stroke-width="1.37143"/>
<rect x="754.286" y="342.855" width="68.5714" height="68.5714" stroke="white" stroke-opacity="0.06" stroke-width="1.37143"/>
<rect x="822.857" y="342.855" width="68.5714" height="68.5714" stroke="white" stroke-opacity="0.06" stroke-width="1.37143"/>
<rect x="891.429" y="342.855" width="68.5714" height="68.5714" stroke="white" stroke-opacity="0.06" stroke-width="1.37143"/>
<rect x="960" y="342.855" width="68.5714" height="68.5714" stroke="white" stroke-opacity="0.06" stroke-width="1.37143"/>
<rect x="1028.57" y="342.855" width="68.5714" height="68.5714" stroke="white" stroke-opacity="0.06" stroke-width="1.37143"/>
<rect x="1097.14" y="342.855" width="68.5714" height="68.5714" stroke="white" stroke-opacity="0.06" stroke-width="1.37143"/>
<rect x="1165.71" y="342.855" width="68.5714" height="68.5714" stroke="white" stroke-opacity="0.06" stroke-width="1.37143"/>
<rect x="1234.29" y="342.855" width="68.5714" height="68.5714" stroke="white" stroke-opacity="0.06" stroke-width="1.37143"/>
<rect x="1302.86" y="342.855" width="68.5714" height="68.5714" stroke="white" stroke-opacity="0.06" stroke-width="1.37143"/>
<rect x="1371.43" y="342.855" width="68.5714" height="68.5714" stroke="white" stroke-opacity="0.06" stroke-width="1.37143"/>
</g>
<defs>
<linearGradient id="paint0_linear_3930_16321" x1="2.02248e-05" y1="199" x2="1440" y2="199" gradientUnits="userSpaceOnUse">
<stop stop-color="#0F337E"/>
<stop offset="1" stop-color="#0F73C7"/>
</linearGradient>
<clipPath id="clip0_3930_16321">
<rect width="1440" height="398" fill="white"/>
</clipPath>
</defs>
</svg>
