<svg width="16" height="16" viewBox="0 0 16 16" fill="none" xmlns="http://www.w3.org/2000/svg">
<path d="M6.80396 6.62729H8.76996V9.75529C8.50196 9.88929 8.14462 9.93396 7.87662 9.93396C7.16196 9.93396 6.80396 9.57662 6.80396 8.77196V6.62729ZM15.784 9.83796C14.7686 14.1373 10.4606 16.7993 6.16196 15.784C1.86262 14.7693 -0.799377 10.4606 0.215956 6.16196C1.23129 1.86262 5.53929 -0.799377 9.83796 0.215956C14.1373 1.23129 16.7993 5.53929 15.784 9.83796ZM11.63 5.91262C11.6272 5.75948 11.5652 5.61337 11.4569 5.50506C11.3485 5.39675 11.2024 5.3347 11.0493 5.33196H9.97662L7.51929 2.51729C7.29596 2.24929 6.93862 2.15996 6.58129 2.24929L5.73196 2.51662C5.59796 2.56129 5.55329 2.73996 5.64262 2.82929L8.32329 5.37596H4.25729C4.12329 5.37596 4.03396 5.46529 4.03396 5.59929V6.04596C4.03396 6.35862 4.30196 6.62662 4.61462 6.62662H5.23996V8.77129C5.23996 10.38 6.08862 11.318 7.51862 11.318C7.96529 11.318 8.32262 11.2733 8.76996 11.0946V12.5246C8.76996 12.9266 9.08262 13.2393 9.48462 13.2393H10.11C10.1796 13.2349 10.2452 13.2052 10.2946 13.1559C10.3439 13.1066 10.3736 13.0409 10.378 12.9713V6.58262H11.406C11.54 6.58262 11.6293 6.49329 11.6293 6.35929L11.63 5.91262Z" fill="white"/>
</svg>
