<svg width="23" height="24" viewBox="0 0 23 24" fill="none" xmlns="http://www.w3.org/2000/svg">
<g clip-path="url(#clip0_2804_1126)">
<path d="M14.1301 5.79083C13.9353 5.61481 13.6817 5.51666 13.4179 5.5166C13.1361 5.51654 12.8657 5.62843 12.6664 5.82766C12.4671 6.02689 12.3551 6.29715 12.355 6.57897C12.3549 6.86079 12.4668 7.13109 12.666 7.33041C12.666 7.33042 12.6661 7.33043 12.6661 7.33043L15.6321 10.2974L16.272 10.9375H15.3669H4.3125C4.03071 10.9375 3.76046 11.0495 3.5612 11.2487L3.29877 10.9863L3.5612 11.2487C3.36194 11.448 3.25 11.7182 3.25 12C3.25 12.2818 3.36194 12.5521 3.5612 12.7513C3.76046 12.9506 4.03071 13.0625 4.3125 13.0625H15.3669H16.2722L15.632 13.7027L12.665 16.6697C12.4657 16.869 12.3537 17.1394 12.3537 17.4213C12.3537 17.7032 12.4657 17.9736 12.665 18.173C12.8644 18.3723 13.1348 18.4843 13.4167 18.4843C13.6986 18.4843 13.9689 18.3723 14.1682 18.173C14.1683 18.173 14.1683 18.173 14.1683 18.173L19.5885 12.7509C19.7874 12.5517 19.8992 12.2816 19.8992 12C19.8992 11.7185 19.7875 11.4486 19.5886 11.2494L14.1301 5.79083ZM14.1301 5.79083L14.1673 5.82808L19.5885 11.2492L14.1301 5.79083Z" fill="white" stroke="#032B38" stroke-width="0.75"/>
</g>
<defs>
<clipPath id="clip0_2804_1126">
<rect width="23" height="23" fill="white" transform="translate(0 0.5)"/>
</clipPath>
</defs>
</svg>
