<svg width="24" height="24" viewBox="0 0 24 24" fill="none" xmlns="http://www.w3.org/2000/svg">
<circle cx="12" cy="12" r="12" fill="white"/>
<path fill-rule="evenodd" clip-rule="evenodd" d="M12 2C9.34783 2 6.8043 3.05357 4.92893 4.92893C3.05357 6.8043 2 9.34783 2 12C2 14.6522 3.05357 17.1957 4.92893 19.0711C6.8043 20.9464 9.34783 22 12 22C14.6522 22 17.1957 20.9464 19.0711 19.0711C20.9464 17.1957 22 14.6522 22 12C22 9.34783 20.9464 6.8043 19.0711 4.92893C17.1957 3.05357 14.6522 2 12 2ZM10.5714 15.5714C10.5714 15.1925 10.7219 14.8292 10.9898 14.5613C11.2578 14.2934 11.6211 14.1429 12 14.1429C12.3789 14.1429 12.7422 14.2934 13.0102 14.5613C13.2781 14.8292 13.4286 15.1925 13.4286 15.5714C13.4286 15.9503 13.2781 16.3137 13.0102 16.5816C12.7422 16.8495 12.3789 17 12 17C11.6211 17 11.2578 16.8495 10.9898 16.5816C10.7219 16.3137 10.5714 15.9503 10.5714 15.5714ZM12 12.3571C11.7158 12.3571 11.4433 12.2443 11.2424 12.0433C11.0415 11.8424 10.9286 11.5699 10.9286 11.2857V7.71429C10.9286 7.43012 11.0415 7.1576 11.2424 6.95667C11.4433 6.75574 11.7158 6.64286 12 6.64286C12.2842 6.64286 12.5567 6.75574 12.7576 6.95667C12.9585 7.1576 13.0714 7.43012 13.0714 7.71429V11.2857C13.0714 11.5699 12.9585 11.8424 12.7576 12.0433C12.5567 12.2443 12.2842 12.3571 12 12.3571Z" fill="#FF0000"/>
</svg>
