<svg width="43" height="42" viewBox="0 0 43 42" fill="none" xmlns="http://www.w3.org/2000/svg">
<circle cx="21.5" cy="21" r="21" fill="url(#paint0_linear_3231_8977)" fill-opacity="0.5"/>
<path d="M31.731 8.95264H11.269C10.5682 8.95264 10 9.5208 10 10.2217V30.6836C10 31.3845 10.5682 31.9526 11.269 31.9526H31.731C32.4318 31.9526 33 31.3845 33 30.6836V10.2217C33 9.5208 32.4318 8.95264 31.731 8.95264Z" fill="#3D5A98"/>
<path d="M25.715 32.0469V23.4538H28.5987L29.03 20.1051H25.715V17.9676C25.715 16.9982 25.985 16.3363 27.3743 16.3363H29.1481V13.3363C28.2892 13.247 27.426 13.2044 26.5625 13.2088C24.0087 13.2088 22.25 14.7651 22.25 17.6357V20.1051H19.3662V23.4538H22.25V32.0469H25.715Z" fill="white"/>
<defs>
<linearGradient id="paint0_linear_3231_8977" x1="21.5" y1="0" x2="21.5" y2="42" gradientUnits="userSpaceOnUse">
<stop stop-color="#696969"/>
<stop offset="1" stop-color="#232B34"/>
</linearGradient>
</defs>
</svg>
