<svg width="31" height="30" viewBox="0 0 31 30" fill="none" xmlns="http://www.w3.org/2000/svg">
<path d="M27.8406 1.13281H3.16328C2.31803 1.13281 1.63281 1.81803 1.63281 2.66328V27.3406C1.63281 28.1859 2.31803 28.8711 3.16328 28.8711H27.8406C28.6859 28.8711 29.3711 28.1859 29.3711 27.3406V2.66328C29.3711 1.81803 28.6859 1.13281 27.8406 1.13281Z" fill="#3D5A98"/>
<path d="M20.768 28.8684V18.127H24.3727L24.9117 13.941H20.768V11.2691C20.768 10.0574 21.1055 9.23008 22.8422 9.23008H25.0594V5.48008C23.9857 5.36839 22.9068 5.31518 21.8273 5.3207C18.6352 5.3207 16.4367 7.26601 16.4367 10.8543V13.941H12.832V18.127H16.4367V28.8684H20.768Z" fill="white"/>
</svg>
