<svg width="31" height="30" viewBox="0 0 31 30" fill="none" xmlns="http://www.w3.org/2000/svg">
<g clip-path="url(#clip0_2566_10587)">
<path d="M23.4727 -0.00390625H7.53516C3.6519 -0.00390625 0.503906 3.14409 0.503906 7.02734V22.9648C0.503906 26.8481 3.6519 29.9961 7.53516 29.9961H23.4727C27.3559 29.9961 30.5039 26.8481 30.5039 22.9648V7.02734C30.5039 3.14409 27.3559 -0.00390625 23.4727 -0.00390625Z" fill="url(#paint0_radial_2566_10587)"/>
<path d="M23.4727 -0.00390625H7.53516C3.6519 -0.00390625 0.503906 3.14409 0.503906 7.02734V22.9648C0.503906 26.8481 3.6519 29.9961 7.53516 29.9961H23.4727C27.3559 29.9961 30.5039 26.8481 30.5039 22.9648V7.02734C30.5039 3.14409 27.3559 -0.00390625 23.4727 -0.00390625Z" fill="url(#paint1_radial_2566_10587)"/>
<path d="M15.505 3.27539C12.3224 3.27539 11.9229 3.28934 10.673 3.34617C9.42539 3.40336 8.57379 3.60082 7.82871 3.89062C7.05785 4.18992 6.40406 4.59035 5.75273 5.24191C5.10082 5.89336 4.70039 6.54715 4.40016 7.31766C4.10953 8.06297 3.91184 8.91492 3.8557 10.1619C3.7998 11.412 3.78516 11.8116 3.78516 14.9943C3.78516 18.177 3.79922 18.5752 3.85594 19.8251C3.91336 21.0727 4.11082 21.9243 4.40039 22.6693C4.69992 23.4402 5.10035 24.094 5.75191 24.7453C6.40313 25.3972 7.05691 25.7986 7.82719 26.0979C8.57285 26.3877 9.42457 26.5852 10.6719 26.6423C11.922 26.6992 12.3211 26.7131 15.5036 26.7131C18.6865 26.7131 19.0847 26.6992 20.3346 26.6423C21.5822 26.5852 22.4347 26.3877 23.1804 26.0979C23.9509 25.7986 24.6037 25.3972 25.2548 24.7453C25.9068 24.094 26.3071 23.4402 26.6074 22.6697C26.8955 21.9243 27.0933 21.0724 27.1519 19.8253C27.208 18.5754 27.2227 18.177 27.2227 14.9943C27.2227 11.8116 27.208 11.4122 27.1519 10.1621C27.0933 8.91457 26.8955 8.06309 26.6074 7.31801C26.3071 6.54715 25.9068 5.89336 25.2548 5.24191C24.603 4.59012 23.9511 4.18969 23.1797 3.89074C22.4326 3.60082 21.5805 3.40324 20.333 3.34617C19.0829 3.28934 18.685 3.27539 15.5013 3.27539H15.505ZM14.4537 5.38723C14.7657 5.38676 15.1139 5.38723 15.505 5.38723C18.634 5.38723 19.0048 5.39848 20.2404 5.45461C21.383 5.50688 22.0031 5.69777 22.4162 5.8582C22.9631 6.07055 23.353 6.32449 23.7629 6.73477C24.1731 7.14492 24.4269 7.53551 24.6398 8.08242C24.8003 8.49492 24.9914 9.11508 25.0434 10.2577C25.0996 11.493 25.1118 11.8641 25.1118 14.9916C25.1118 18.1191 25.0996 18.4902 25.0434 19.7255C24.9912 20.868 24.8003 21.4882 24.6398 21.9008C24.4275 22.4477 24.1731 22.8371 23.7629 23.2471C23.3528 23.6572 22.9634 23.9111 22.4162 24.1235C22.0036 24.2846 21.383 24.4751 20.2404 24.5273C19.005 24.5835 18.634 24.5957 15.505 24.5957C12.3758 24.5957 12.0049 24.5835 10.7696 24.5273C9.62707 24.4746 9.00691 24.2837 8.59348 24.1233C8.04668 23.9108 7.65598 23.657 7.24582 23.2468C6.83566 22.8367 6.58184 22.447 6.36891 21.8999C6.20848 21.4873 6.01734 20.8671 5.96531 19.7245C5.90918 18.4891 5.89793 18.1181 5.89793 14.9886C5.89793 11.8591 5.90918 11.4901 5.96531 10.2547C6.01758 9.11215 6.20848 8.49199 6.36891 8.07891C6.58137 7.53199 6.83566 7.14141 7.24594 6.73125C7.65621 6.32109 8.04668 6.06715 8.59359 5.85434C9.00668 5.6932 9.62707 5.50277 10.7696 5.45027C11.8507 5.40141 12.2696 5.38676 14.4537 5.3843V5.38723ZM21.7604 7.33301C20.9841 7.33301 20.3542 7.9623 20.3542 8.73879C20.3542 9.51516 20.9841 10.145 21.7604 10.145C22.5368 10.145 23.1667 9.51516 23.1667 8.73879C23.1667 7.96242 22.5368 7.33254 21.7604 7.33254V7.33301ZM15.505 8.97609C12.1815 8.97609 9.48691 11.6707 9.48691 14.9943C9.48691 18.3178 12.1815 21.0111 15.505 21.0111C18.8285 21.0111 21.5222 18.3178 21.5222 14.9943C21.5222 11.6708 18.8283 8.97609 15.5047 8.97609H15.505ZM15.505 11.0879C17.6623 11.0879 19.4113 12.8367 19.4113 14.9943C19.4113 17.1516 17.6623 18.9006 15.505 18.9006C13.3477 18.9006 11.5988 17.1516 11.5988 14.9943C11.5988 12.8367 13.3475 11.0879 15.505 11.0879Z" fill="white"/>
</g>
<defs>
<radialGradient id="paint0_radial_2566_10587" cx="0" cy="0" r="1" gradientUnits="userSpaceOnUse" gradientTransform="translate(8.47266 32.3067) rotate(-90) scale(29.7322 27.6533)">
<stop stop-color="#FFDD55"/>
<stop offset="0.1" stop-color="#FFDD55"/>
<stop offset="0.5" stop-color="#FF543E"/>
<stop offset="1" stop-color="#C837AB"/>
</radialGradient>
<radialGradient id="paint1_radial_2566_10587" cx="0" cy="0" r="1" gradientUnits="userSpaceOnUse" gradientTransform="translate(-4.52121 2.15715) rotate(78.681) scale(13.2905 54.7837)">
<stop stop-color="#3771C8"/>
<stop offset="0.128" stop-color="#3771C8"/>
<stop offset="1" stop-color="#6600FF" stop-opacity="0"/>
</radialGradient>
<clipPath id="clip0_2566_10587">
<rect width="30" height="30" fill="white" transform="translate(0.5)"/>
</clipPath>
</defs>
</svg>
