<svg width="31" height="22" viewBox="0 0 31 22" fill="none" xmlns="http://www.w3.org/2000/svg">
<g clip-path="url(#clip0_2804_135)">
<path d="M29.8374 3.77542C29.6654 3.14233 29.3297 2.56517 28.8639 2.1014C28.3981 1.63763 27.8183 1.30344 27.1824 1.1321C24.8544 0.5 15.4848 0.5 15.4848 0.5C15.4848 0.5 6.11471 0.519133 3.78666 1.15123C3.15075 1.32258 2.57101 1.65679 2.10519 2.12058C1.63937 2.58437 1.30372 3.16156 1.13166 3.79467C0.427483 7.91277 0.154319 14.1878 1.151 18.1412C1.32307 18.7743 1.65873 19.3514 2.12455 19.8152C2.59037 20.279 3.1701 20.6131 3.806 20.7845C6.13405 21.4166 15.5039 21.4166 15.5039 21.4166C15.5039 21.4166 24.8736 21.4166 27.2015 20.7845C27.8375 20.6132 28.4172 20.279 28.8831 19.8152C29.3489 19.3514 29.6846 18.7743 29.8567 18.1412C30.5994 14.0172 30.8283 7.74605 29.8374 3.77542Z" fill="#FF0000"/>
<path d="M12.502 15.4408L20.2748 10.9587L12.502 6.47656V15.4408Z" fill="white"/>
</g>
<defs>
<clipPath id="clip0_2804_135">
<rect width="30" height="21" fill="white" transform="translate(0.5 0.5)"/>
</clipPath>
</defs>
</svg>
