<svg width="31" height="30" viewBox="0 0 31 30" fill="none" xmlns="http://www.w3.org/2000/svg">
<path d="M27.6856 0.703233H3.31055C2.7575 0.697605 2.2248 0.911603 1.82934 1.29827C1.43388 1.68494 1.20797 2.21269 1.20117 2.76573V27.2392C1.2092 27.7914 1.43566 28.3179 1.83098 28.7036C2.2263 29.0893 2.7583 29.3026 3.31055 29.297H27.6856C28.2386 29.3014 28.771 29.0866 29.1662 28.6997C29.5615 28.3128 29.7875 27.7852 29.7949 27.2321V2.7587C29.7851 2.20728 29.558 1.68205 29.163 1.29715C28.768 0.91226 28.237 0.698822 27.6856 0.703233Z" fill="#0076B2"/>
<path d="M5.43516 11.4199H9.67969V25.077H5.43516V11.4199ZM7.55859 4.62305C8.04542 4.62305 8.52131 4.76744 8.92606 5.03795C9.33081 5.30847 9.64623 5.69295 9.83243 6.14277C10.0186 6.59258 10.0672 7.08751 9.97207 7.56495C9.87693 8.04239 9.64231 8.48088 9.29791 8.82496C8.95351 9.16903 8.51479 9.40323 8.03726 9.49792C7.55973 9.59261 7.06485 9.54354 6.61521 9.35692C6.16557 9.1703 5.78139 8.85451 5.51126 8.4495C5.24113 8.0445 5.09719 7.56847 5.09766 7.08164C5.09828 6.42937 5.35783 5.80402 5.81928 5.34301C6.28073 4.882 6.90632 4.62305 7.55859 4.62305ZM12.3422 11.4199H16.4109V13.2949H16.4672C17.0344 12.2215 18.4172 11.0895 20.482 11.0895C24.7805 11.0801 25.5773 13.909 25.5773 17.577V25.077H21.3328V18.4324C21.3328 16.8504 21.3047 14.8137 19.1273 14.8137C16.95 14.8137 16.5797 16.5387 16.5797 18.3293V25.077H12.3422V11.4199Z" fill="white"/>
</svg>
