<svg width="64" height="64" viewBox="0 0 64 64" fill="none" xmlns="http://www.w3.org/2000/svg">
<circle cx="32" cy="32" r="32" fill="white"/>
<path d="M31.999 4.26562C16.7179 4.26562 4.26562 16.7179 4.26562 31.999C4.26562 47.28 16.7179 59.7323 31.999 59.7323C47.28 59.7323 59.7323 47.28 59.7323 31.999C59.7323 16.7179 47.28 4.26562 31.999 4.26562ZM45.2555 25.6203L29.5307 41.3451C29.1424 41.7334 28.6155 41.9552 28.0608 41.9552C27.5062 41.9552 26.9792 41.7334 26.591 41.3451L18.7424 33.4966C17.9382 32.6923 17.9382 31.3611 18.7424 30.5568C19.5467 29.7526 20.8779 29.7526 21.6822 30.5568L28.0608 36.9355L42.3158 22.6806C43.12 21.8763 44.4512 21.8763 45.2555 22.6806C46.0598 23.4848 46.0598 24.7883 45.2555 25.6203Z" fill="#009035"/>
</svg>
