<svg width="46" height="46" viewBox="0 0 46 46" fill="none" xmlns="http://www.w3.org/2000/svg">
<rect x="0.00390625" width="45.9965" height="45.9999" rx="12" fill="#175C7A"/>
<path d="M31.9546 19.292C31.9125 18.3356 31.7578 17.6781 31.5363 17.1084C31.3077 16.5036 30.9561 15.9621 30.4954 15.512C30.0453 15.0549 29.5002 14.6997 28.9025 14.4747C28.3294 14.2531 27.6753 14.0985 26.7189 14.0563C25.7554 14.0106 25.4495 14 23.0056 14C20.5618 14 20.2559 14.0106 19.2959 14.0527C18.3395 14.0949 17.682 14.2497 17.1124 14.4711C16.5075 14.6997 15.966 15.0513 15.5159 15.512C15.0588 15.9621 14.7037 16.5072 14.4786 17.1049C14.2571 17.6781 14.1024 18.3321 14.0602 19.2885C14.0145 20.252 14.0039 20.5579 14.0039 23.0018C14.0039 25.4456 14.0145 25.7515 14.0567 26.7115C14.0988 27.6679 14.2536 28.3254 14.4752 28.8952C14.7037 29.4999 15.0588 30.0414 15.5159 30.4915C15.966 30.9486 16.5111 31.3038 17.1088 31.5288C17.682 31.7504 18.336 31.905 19.2925 31.9472C20.2524 31.9895 20.5584 31.9999 23.0022 31.9999C25.446 31.9999 25.7519 31.9895 26.7119 31.9472C27.6683 31.905 28.3258 31.7504 28.8955 31.5288C30.1052 31.0611 31.0616 30.1047 31.5293 28.8952C31.7507 28.322 31.9055 27.6679 31.9476 26.7115C31.9898 25.7515 32.0004 25.4456 32.0004 23.0018C32.0004 20.5579 31.9968 20.252 31.9546 19.292ZM30.3337 26.6411C30.295 27.5202 30.1473 27.9949 30.0243 28.3114C29.7218 29.0956 29.0994 29.7179 28.3153 30.0204C27.9988 30.1434 27.5207 30.2911 26.645 30.3297C25.6956 30.372 25.4109 30.3824 23.0092 30.3824C20.6076 30.3824 20.3192 30.372 19.3733 30.3297C18.4942 30.2911 18.0195 30.1434 17.703 30.0204C17.3128 29.8761 16.9576 29.6476 16.6693 29.3487C16.3704 29.0568 16.1418 28.7052 15.9976 28.315C15.8746 27.9985 15.7269 27.5202 15.6883 26.6447C15.646 25.6953 15.6356 25.4104 15.6356 23.0088C15.6356 20.6071 15.646 20.3188 15.6883 19.373C15.7269 18.4939 15.8746 18.0192 15.9976 17.7027C16.1418 17.3123 16.3704 16.9573 16.6729 16.6688C16.9646 16.3699 17.3162 16.1414 17.7066 15.9973C18.0231 15.8742 18.5013 15.7266 19.3768 15.6878C20.3263 15.6457 20.6111 15.6351 23.0127 15.6351C25.4179 15.6351 25.7026 15.6457 26.6486 15.6878C27.5277 15.7266 28.0024 15.8742 28.3188 15.9973C28.7091 16.1414 29.0643 16.3699 29.3526 16.6688C29.6515 16.9607 29.88 17.3123 30.0243 17.7027C30.1473 18.0192 30.295 18.4973 30.3337 19.373C30.3759 20.3224 30.3865 20.6071 30.3865 23.0088C30.3865 25.4104 30.3759 25.6917 30.3337 26.6411Z" fill="white"/>
<path d="M23.0068 18.377C20.454 18.377 18.3828 20.448 18.3828 23.0009C18.3828 25.5538 20.454 27.6249 23.0068 27.6249C25.5597 27.6249 27.6307 25.5538 27.6307 23.0009C27.6307 20.448 25.5597 18.377 23.0068 18.377ZM23.0068 26.0003C21.3507 26.0003 20.0073 24.6571 20.0073 23.0009C20.0073 21.3447 21.3507 20.0015 23.0068 20.0015C24.663 20.0015 26.0062 21.3447 26.0062 23.0009C26.0062 24.6571 24.663 26.0003 23.0068 26.0003Z" fill="white"/>
<path d="M28.8915 18.1947C28.8915 18.7908 28.4082 19.2742 27.8119 19.2742C27.2158 19.2742 26.7324 18.7908 26.7324 18.1947C26.7324 17.5985 27.2158 17.1152 27.8119 17.1152C28.4082 17.1152 28.8915 17.5985 28.8915 18.1947Z" fill="white"/>
</svg>
