<svg width="856" height="432" viewBox="0 0 856 432" fill="none" xmlns="http://www.w3.org/2000/svg">
<g clip-path="url(#clip0_8272_64923)">
<mask id="mask0_8272_64923" style="mask-type:luminance" maskUnits="userSpaceOnUse" x="-1" y="-24" width="869" height="500">
<path d="M-1.00006 476L867.999 476V-24L-1.00006 -24V476Z" fill="white"/>
</mask>
<g mask="url(#mask0_8272_64923)">
<g opacity="0.16">
<path d="M-33.481 46.0065C-34.8193 92.1355 -20.0289 131.756 2.2952 154.082C6.47097 158.259 9.19688 165.158 9.74847 172.808C9.77865 173.222 9.80975 173.637 9.8436 174.051C13.937 224.7 44.5935 260.28 77.2477 253.42C108.482 246.857 130.967 221.372 127.646 172.293C127.63 172.062 127.613 171.726 127.595 171.301C127.015 157.926 133.813 146.681 142.466 146.365C144.281 146.299 146.107 146.119 147.944 145.823C185.208 139.811 212.239 88.1015 208.271 30.3725C206.456 3.96954 198.385 -19.1555 186.597 -35.8555H-7.64707C-22.4118 -14.0375 -32.6175 16.2305 -33.481 46.0065Z" fill="#0F5776"/>
</g>
<g opacity="0.16">
<path d="M7.83753 18.0595C6.95573 48.4395 16.6977 74.5335 31.3993 89.2375C34.1499 91.9885 35.9446 96.5325 36.3078 101.57C36.327 101.843 36.348 102.116 36.37 102.389C39.0657 135.746 59.2567 159.18 80.7621 154.661C101.333 150.339 116.141 133.554 113.954 101.231C113.944 101.079 113.933 100.858 113.92 100.578C113.538 91.7695 118.016 84.3645 123.714 84.1555C124.909 84.1115 126.112 83.9935 127.321 83.7985C151.863 79.8385 169.665 45.7835 167.052 7.76348C165.856 -9.62552 160.542 -24.8555 152.778 -35.8535H24.8525C15.128 -21.4855 8.4065 -1.55052 7.83753 18.0595Z" fill="#0F5776"/>
</g>
<path opacity="0.33" d="M411.757 208.917C415.848 185.824 403.453 161.866 382.057 151.513C349.273 135.649 341.072 91.2044 366.603 67.7524C383.264 52.4474 386.444 26.4624 374.223 5.49239C355.497 -26.6396 373.938 -65.8596 408.977 -68.4206C431.844 -70.0916 449.386 -88.1776 451.007 -111.756C453.491 -147.883 491.53 -166.897 522.695 -147.589C543.034 -134.988 568.236 -138.268 583.08 -155.446C605.826 -181.769 648.933 -173.314 664.319 -139.512C674.36 -117.452 697.597 -104.672 719.994 -108.89C754.314 -115.354 786.024 -82.6596 779.754 -47.2746C775.663 -24.1816 788.058 -0.223605 809.454 10.1294C842.238 25.9934 850.439 70.4384 824.908 93.8904C808.246 109.195 805.066 135.18 817.288 156.15C836.014 188.282 817.573 227.502 782.534 230.063C759.667 231.734 742.125 249.821 740.504 273.398C738.019 309.525 699.981 328.539 668.816 309.231C648.477 296.63 623.275 299.909 608.431 317.088C585.685 343.411 542.578 334.956 527.192 301.154C517.151 279.094 493.914 266.314 471.517 270.532C437.197 276.996 405.487 244.302 411.757 208.917Z" stroke="#0F5776" stroke-miterlimit="10"/>
<path opacity="0.33" d="M407.022 137.439C411.375 112.874 398.189 87.3889 375.429 76.3759C340.555 59.5009 331.832 12.2229 358.99 -12.7241C376.714 -29.0051 380.096 -56.6461 367.096 -78.9531C347.176 -113.134 366.792 -154.853 404.065 -157.577C428.39 -159.355 447.05 -178.594 448.775 -203.674C451.416 -242.104 491.881 -262.33 525.032 -241.791C546.667 -228.387 573.476 -231.875 589.266 -250.149C613.462 -278.15 659.317 -269.156 675.684 -233.199C686.365 -209.733 711.083 -196.138 734.909 -200.625C771.416 -207.501 805.147 -172.723 798.478 -135.082C794.126 -110.517 807.312 -85.0321 830.071 -74.0191C864.946 -57.1441 873.668 -9.86612 846.511 15.0809C828.787 31.3619 825.404 59.0029 838.404 81.3099C858.325 115.491 838.708 157.21 801.435 159.934C777.11 161.712 758.45 180.951 756.726 206.031C754.084 244.461 713.62 264.687 680.469 244.148C658.834 230.744 632.025 234.232 616.234 252.506C592.039 280.507 546.184 271.513 529.817 235.556C519.136 212.09 494.418 198.495 470.593 202.982C434.084 209.858 400.353 175.08 407.022 137.439Z" fill="#0F5776"/>
<path opacity="0.14" d="M39.2266 760.397C43.3868 736.914 30.7818 712.55 9.0248 702.022C-24.3146 685.89 -32.6533 640.693 -6.69128 616.844C10.2524 601.28 13.486 574.856 1.05836 553.531C-17.9855 520.855 0.767477 480.972 36.4001 478.368C59.6545 476.668 77.4928 458.276 79.1411 434.3C81.6667 397.562 120.349 378.227 152.041 397.861C172.724 410.675 198.352 407.34 213.448 389.871C236.579 363.103 280.415 371.701 296.062 406.075C306.273 428.508 329.903 441.504 352.679 437.215C387.579 430.642 419.825 463.889 413.45 499.872C409.289 523.356 421.894 547.719 443.651 558.247C476.991 574.379 485.33 619.576 459.368 643.425C442.424 658.989 439.189 685.413 451.618 706.738C470.662 739.414 451.909 779.297 416.276 781.901C393.022 783.601 375.184 801.993 373.535 825.969C371.01 862.708 332.327 882.043 300.635 862.408C279.952 849.594 254.324 852.929 239.228 870.398C216.097 897.166 172.261 888.568 156.615 854.194C146.403 831.761 122.774 818.765 99.9971 823.054C65.0972 829.628 32.8509 796.381 39.2266 760.397Z" fill="#0F5776"/>
<g opacity="0.16">
<path d="M825.716 405.401C827.184 365.305 810.957 330.867 786.463 311.461C781.881 307.831 778.891 301.834 778.285 295.184C778.252 294.824 778.218 294.464 778.181 294.103C773.69 250.078 740.054 219.151 704.226 225.115C669.957 230.819 645.286 252.971 648.931 295.632C648.948 295.833 648.966 296.125 648.986 296.494C649.623 308.119 642.164 317.894 632.67 318.169C630.68 318.227 628.675 318.383 626.66 318.64C585.774 323.866 556.116 368.812 560.47 418.99C562.462 441.94 571.316 462.041 584.25 476.556H797.369C813.571 457.592 824.768 431.282 825.716 405.401Z" fill="#0F5776"/>
</g>
<g opacity="0.16">
<path d="M846.869 490.967C847.616 465.195 839.353 443.059 826.881 430.585C824.547 428.251 823.024 424.397 822.717 420.123C822.7 419.892 822.683 419.66 822.664 419.428C820.377 391.13 803.249 371.251 785.005 375.085C767.555 378.752 754.992 392.99 756.848 420.411C756.856 420.54 756.866 420.728 756.876 420.965C757.2 428.438 753.402 434.72 748.568 434.897C747.554 434.934 746.533 435.034 745.507 435.2C724.687 438.559 709.585 467.449 711.802 499.702C712.817 514.453 717.326 527.373 723.911 536.703H832.434C840.684 524.514 846.386 507.603 846.869 490.967Z" fill="#0F5776"/>
</g>
</g>
<mask id="mask1_8272_64923" style="mask-type:luminance" maskUnits="userSpaceOnUse" x="-1" y="-24" width="869" height="501">
<path d="M868 -23.9961L-0.999023 -23.9961L-0.999023 476.004L868 476.004L868 -23.9961Z" fill="white"/>
</mask>
<g mask="url(#mask1_8272_64923)">
<path d="M-0.999084 476.002L868 476.002V-23.998L-0.999084 -23.998V476.002Z" fill="#1D333C"/>
</g>
<g opacity="0.59">
<mask id="mask2_8272_64923" style="mask-type:luminance" maskUnits="userSpaceOnUse" x="-1" y="-24" width="869" height="500">
<path d="M-0.999084 476L868 476V-24L-0.999084 -24V476Z" fill="white"/>
</mask>
<g mask="url(#mask2_8272_64923)">
<path d="M451.865 696.06C430.287 696.06 410.554 686.853 397.728 670.801C384.466 654.202 381.001 633.524 388.222 614.072L388.613 613.03C395.762 594.267 384.892 578.031 373.385 560.842C368.222 553.13 362.882 545.156 359.361 536.969C349.972 515.145 346.047 487.475 348.591 461.054C352.042 425.21 369.082 391.218 395.338 367.794C434.004 333.299 495.547 318.69 559.966 328.709C565.868 329.627 571.852 330.738 577.639 331.813C595.131 335.062 613.223 338.423 631.405 336.88C658.436 334.591 683.418 321.819 707.577 309.468C714.959 305.694 722.591 301.792 730.156 298.255C778.87 275.482 829.097 267.417 871.582 275.545C927.629 286.27 968.637 326.332 973.626 375.236C974.688 385.651 970.543 399.268 966.154 413.684C960.925 430.86 955.519 448.622 959.621 460.507C961.881 467.052 968.311 477.504 976.454 490.735C995.946 522.413 1022.64 565.795 1021.67 602.115C1020.36 651.223 1008.35 668.421 991.722 692.225L989.222 695.81L988.219 695.243L990.72 691.657C1007.25 667.998 1019.19 650.904 1020.49 602.09C1021.45 566.06 994.845 522.824 975.419 491.253C967.244 477.967 960.787 467.473 958.492 460.824C954.287 448.64 959.74 430.726 965.015 413.402C969.373 399.082 973.492 385.556 972.449 375.334C967.508 326.898 926.875 287.215 871.339 276.589C829.119 268.508 779.176 276.541 730.704 299.202C723.159 302.729 715.536 306.627 708.163 310.396C683.895 322.803 658.802 335.632 631.518 337.943C613.156 339.496 594.978 336.123 577.402 332.858C571.623 331.785 565.649 330.675 559.767 329.76C495.721 319.798 434.568 334.299 396.172 368.552C370.113 391.801 353.2 425.55 349.772 461.146C347.242 487.41 351.14 514.906 360.466 536.583C363.951 544.684 369.263 552.618 374.399 560.29C385.541 576.932 397.062 594.142 389.735 613.375L389.345 614.409C382.246 633.532 385.653 653.858 398.69 670.175C411.29 685.946 430.673 694.992 451.866 694.992V696.06H451.865Z" fill="#0F5776"/>
</g>
<mask id="mask3_8272_64923" style="mask-type:luminance" maskUnits="userSpaceOnUse" x="-1" y="-24" width="869" height="500">
<path d="M-0.999084 476L868 476V-24L-0.999084 -24V476Z" fill="white"/>
</mask>
<g mask="url(#mask3_8272_64923)">
<path d="M519.993 696.06C504.67 696.06 490.659 689.375 481.552 677.718C472.136 665.666 469.677 650.654 474.803 636.531L475.08 635.777C480.112 622.271 472.442 610.555 464.322 598.151C460.665 592.566 456.885 586.791 454.387 580.855C447.735 565.043 444.954 544.996 446.756 525.857C449.201 499.886 461.275 475.256 479.88 458.282C507.275 433.288 550.873 422.702 596.501 429.959C600.678 430.624 604.913 431.428 609.007 432.206C621.371 434.554 634.157 436.98 646.997 435.869C666.085 434.216 683.742 424.984 700.819 416.056C706.043 413.325 711.444 410.501 716.798 407.94C751.298 391.448 786.872 385.605 816.969 391.495C856.696 399.269 885.764 428.312 889.299 463.765C890.054 471.329 887.116 481.195 884.007 491.639C880.315 504.045 876.496 516.872 879.383 525.427C880.977 530.147 885.523 537.703 891.278 547.268C905.077 570.204 923.977 601.614 923.29 627.935C922.361 663.51 913.852 675.969 902.073 693.213L900.306 695.806L899.303 695.227L901.073 692.633C912.75 675.536 921.187 663.185 922.106 627.91C922.786 601.884 903.976 570.624 890.243 547.798C884.454 538.178 879.882 530.579 878.253 525.752C875.262 516.892 879.128 503.908 882.866 491.351C885.946 481.005 888.854 471.232 888.119 463.866C884.631 428.892 855.939 400.237 816.723 392.563C786.893 386.725 751.601 392.53 717.342 408.909C712.007 411.46 706.615 414.279 701.401 417.005C684.217 425.99 666.448 435.281 647.107 436.956C634.087 438.084 621.216 435.639 608.768 433.275C604.682 432.499 600.457 431.696 596.299 431.035C551.043 423.837 507.834 434.312 480.71 459.058C462.302 475.853 450.356 500.234 447.933 525.951C446.146 544.93 448.899 564.798 455.488 580.461C457.948 586.309 461.702 592.043 465.332 597.588C473.236 609.661 481.408 622.145 476.196 636.13L475.923 636.877C470.918 650.664 473.319 665.318 482.51 677.082C491.392 688.45 505.052 694.97 519.99 694.97V696.06H519.993Z" fill="#0F5776"/>
</g>
<mask id="mask4_8272_64923" style="mask-type:luminance" maskUnits="userSpaceOnUse" x="-1" y="-24" width="869" height="500">
<path d="M-0.999084 476L868 476V-24L-0.999084 -24V476Z" fill="white"/>
</mask>
<g mask="url(#mask4_8272_64923)">
<path d="M462 -305.352C483.361 -308.701 504.088 -302.649 518.868 -288.75C534.152 -274.377 540.267 -254.447 535.645 -234.071L535.392 -232.979C530.752 -213.297 543.62 -198.911 557.243 -183.683C563.356 -176.85 569.675 -169.786 574.225 -162.228C586.353 -142.082 593.832 -115.302 594.744 -88.7531C595.981 -52.7371 583.529 -16.4441 560.579 10.8179C526.784 50.9639 467.762 74.9759 402.694 75.0549C396.733 75.0629 390.665 74.8909 384.797 74.7249C367.061 74.2229 348.715 73.7039 330.917 78.0529C304.458 84.5139 281.387 101.034 259.076 117.009C252.259 121.891 245.21 126.937 238.182 131.613C192.918 161.716 144.247 177.493 101.138 176.04C44.2667 174.122 -1.52863 140.83 -12.8174 93.1949C-15.2213 83.0499 -12.886 68.9279 -10.4135 53.9769C-7.4671 36.1629 -4.42194 17.7429 -10.0265 6.61389C-13.1138 0.485901 -20.836 -8.86212 -30.6136 -20.6961C-54.0217 -49.0281 -86.0795 -87.8281 -89.8372 -123.93C-94.9177 -172.744 -85.259 -191.633 -71.891 -217.775L-69.8814 -221.712L-68.8148 -221.307L-70.8254 -217.369C-84.1128 -191.385 -93.7121 -172.611 -88.6627 -124.089C-84.9352 -88.2751 -52.9862 -49.6051 -29.6568 -21.3691C-19.8389 -9.48712 -12.0847 -0.101105 -8.94897 6.12491C-3.20443 17.5329 -6.27611 36.1109 -9.24809 54.0789C-11.7032 68.9309 -14.0239 82.9589 -11.6639 92.9149C-0.484009 140.094 44.8915 173.069 101.245 174.969C144.087 176.416 192.48 160.714 237.519 130.76C244.53 126.097 251.57 121.057 258.378 116.181C280.789 100.134 303.962 83.5399 330.67 77.0179C348.644 72.6309 367.075 73.1489 384.899 73.6529C390.758 73.8179 396.816 73.9899 402.757 73.9829C467.447 73.9039 526.099 50.0599 559.657 10.1959C582.434 -16.8621 594.793 -52.8941 593.565 -88.6621C592.657 -115.053 585.229 -141.665 573.183 -161.676C568.681 -169.154 562.392 -176.183 556.312 -182.981C543.122 -197.725 529.482 -212.973 534.239 -233.149L534.49 -234.233C539.033 -254.264 533.022 -273.856 517.998 -287.984C503.477 -301.64 483.118 -307.586 462.138 -304.297L462 -305.352Z" fill="#0F5776"/>
</g>
<mask id="mask5_8272_64923" style="mask-type:luminance" maskUnits="userSpaceOnUse" x="-1" y="-24" width="869" height="500">
<path d="M-0.999084 476L868 476V-24L-0.999084 -24V476Z" fill="white"/>
</mask>
<g mask="url(#mask5_8272_64923)">
<path d="M394.562 -294.778C409.73 -297.156 424.467 -292.713 434.996 -282.587C445.881 -272.118 450.266 -257.64 447.025 -242.864L446.848 -242.075C443.621 -227.925 452.736 -217.518 462.383 -206.499C466.728 -201.538 471.22 -196.409 474.463 -190.92C483.101 -176.3 488.457 -156.888 489.158 -137.663C490.11 -111.575 481.357 -85.3223 465.145 -65.6323C441.274 -36.6403 399.492 -19.3953 353.382 -19.4983C349.161 -19.5083 344.865 -19.6473 340.711 -19.7813C328.168 -20.1873 315.196 -20.6043 302.63 -17.5123C283.95 -12.9143 267.67 -1.03531 251.927 10.4527C247.111 13.9667 242.13 17.6007 237.163 20.9657C205.154 42.6457 170.699 53.9487 140.142 52.7897C99.8076 51.2597 67.2631 27.0217 59.1594 -7.52332C57.4297 -14.8943 59.0561 -25.1153 60.7785 -35.9363C62.8221 -48.7893 64.9369 -62.0793 60.9679 -70.1003C58.778 -74.5253 53.2969 -81.2993 46.3577 -89.8733C29.7196 -110.435 6.9326 -138.594 4.19479 -164.755C0.493772 -200.113 7.29941 -213.767 16.7194 -232.664L18.1326 -235.505L19.201 -235.087L17.7859 -232.245C8.44649 -213.508 1.69848 -199.972 5.36931 -164.913C8.07602 -139.045 30.7542 -111.02 47.3127 -90.5573C54.2921 -81.9333 59.8043 -75.1203 62.0445 -70.5953C66.1553 -62.2893 64.0149 -48.8373 61.9448 -35.8273C60.2397 -25.1083 58.6289 -14.9833 60.3129 -7.8053C68.3068 26.2737 100.43 50.1847 140.245 51.6947C170.531 52.8447 204.712 41.6207 236.497 20.0917C241.447 16.7387 246.418 13.1117 251.226 9.6037C267.069 -1.95731 283.452 -13.9123 302.379 -18.5713C315.121 -21.7083 328.179 -21.2863 340.808 -20.8773C344.952 -20.7433 349.239 -20.6043 353.441 -20.5943C399.173 -20.4923 440.584 -37.5663 464.22 -66.2713C480.261 -85.7523 488.921 -111.741 487.978 -137.573C487.283 -156.637 481.978 -175.877 473.421 -190.359C470.227 -195.766 465.767 -200.86 461.453 -205.785C452.061 -216.51 442.351 -227.598 445.693 -242.251L445.867 -243.033C449.03 -257.457 444.751 -271.59 434.126 -281.809C423.857 -291.684 409.489 -296.018 394.702 -293.7L394.562 -294.778Z" fill="#0F5776"/>
</g>
</g>
<path d="M374.152 208V177.2H380.048L398.22 199.376H395.36V177.2H402.4V208H396.548L378.332 185.824H381.192V208H374.152ZM420.467 208.352C417.944 208.352 415.7 207.824 413.735 206.768C411.799 205.712 410.259 204.275 409.115 202.456C408 200.608 407.443 198.511 407.443 196.164C407.443 193.788 408 191.691 409.115 189.872C410.259 188.024 411.799 186.587 413.735 185.56C415.7 184.504 417.944 183.976 420.467 183.976C422.96 183.976 425.19 184.504 427.155 185.56C429.12 186.587 430.66 188.009 431.775 189.828C432.89 191.647 433.447 193.759 433.447 196.164C433.447 198.511 432.89 200.608 431.775 202.456C430.66 204.275 429.12 205.712 427.155 206.768C425.19 207.824 422.96 208.352 420.467 208.352ZM420.467 202.72C421.611 202.72 422.638 202.456 423.547 201.928C424.456 201.4 425.175 200.652 425.703 199.684C426.231 198.687 426.495 197.513 426.495 196.164C426.495 194.785 426.231 193.612 425.703 192.644C425.175 191.676 424.456 190.928 423.547 190.4C422.638 189.872 421.611 189.608 420.467 189.608C419.323 189.608 418.296 189.872 417.387 190.4C416.478 190.928 415.744 191.676 415.187 192.644C414.659 193.612 414.395 194.785 414.395 196.164C414.395 197.513 414.659 198.687 415.187 199.684C415.744 200.652 416.478 201.4 417.387 201.928C418.296 202.456 419.323 202.72 420.467 202.72ZM450.98 208V177.2H464.312C467.069 177.2 469.445 177.655 471.44 178.564C473.435 179.444 474.975 180.72 476.06 182.392C477.145 184.064 477.688 186.059 477.688 188.376C477.688 190.664 477.145 192.644 476.06 194.316C474.975 195.959 473.435 197.22 471.44 198.1C469.445 198.98 467.069 199.42 464.312 199.42H454.94L458.108 196.296V208H450.98ZM470.56 208L462.86 196.824H470.472L478.26 208H470.56ZM458.108 197.088L454.94 193.744H463.916C466.116 193.744 467.759 193.275 468.844 192.336C469.929 191.368 470.472 190.048 470.472 188.376C470.472 186.675 469.929 185.355 468.844 184.416C467.759 183.477 466.116 183.008 463.916 183.008H454.94L458.108 179.62V197.088ZM494.6 208.352C491.901 208.352 489.525 207.824 487.472 206.768C485.448 205.712 483.878 204.275 482.764 202.456C481.649 200.608 481.092 198.511 481.092 196.164C481.092 193.788 481.634 191.691 482.72 189.872C483.834 188.024 485.345 186.587 487.252 185.56C489.158 184.504 491.314 183.976 493.72 183.976C496.037 183.976 498.12 184.475 499.968 185.472C501.845 186.44 503.326 187.848 504.412 189.696C505.497 191.515 506.04 193.7 506.04 196.252C506.04 196.516 506.025 196.824 505.996 197.176C505.966 197.499 505.937 197.807 505.908 198.1H486.68V194.096H502.3L499.66 195.284C499.66 194.052 499.41 192.981 498.912 192.072C498.413 191.163 497.724 190.459 496.844 189.96C495.964 189.432 494.937 189.168 493.764 189.168C492.59 189.168 491.549 189.432 490.64 189.96C489.76 190.459 489.07 191.177 488.572 192.116C488.073 193.025 487.824 194.111 487.824 195.372V196.428C487.824 197.719 488.102 198.863 488.66 199.86C489.246 200.828 490.053 201.576 491.08 202.104C492.136 202.603 493.368 202.852 494.776 202.852C496.037 202.852 497.137 202.661 498.076 202.28C499.044 201.899 499.924 201.327 500.716 200.564L504.368 204.524C503.282 205.756 501.918 206.709 500.276 207.384C498.633 208.029 496.741 208.352 494.6 208.352ZM518.573 208.352C516.549 208.352 514.599 208.117 512.721 207.648C510.873 207.149 509.407 206.533 508.321 205.8L510.609 200.872C511.695 201.547 512.971 202.104 514.437 202.544C515.933 202.955 517.4 203.16 518.837 203.16C520.421 203.16 521.536 202.969 522.181 202.588C522.856 202.207 523.193 201.679 523.193 201.004C523.193 200.447 522.929 200.036 522.401 199.772C521.903 199.479 521.228 199.259 520.377 199.112C519.527 198.965 518.588 198.819 517.561 198.672C516.564 198.525 515.552 198.335 514.525 198.1C513.499 197.836 512.56 197.455 511.709 196.956C510.859 196.457 510.169 195.783 509.641 194.932C509.143 194.081 508.893 192.981 508.893 191.632C508.893 190.136 509.319 188.816 510.169 187.672C511.049 186.528 512.311 185.633 513.953 184.988C515.596 184.313 517.561 183.976 519.849 183.976C521.463 183.976 523.105 184.152 524.777 184.504C526.449 184.856 527.843 185.369 528.957 186.044L526.669 190.928C525.525 190.253 524.367 189.799 523.193 189.564C522.049 189.3 520.935 189.168 519.849 189.168C518.324 189.168 517.209 189.373 516.505 189.784C515.801 190.195 515.449 190.723 515.449 191.368C515.449 191.955 515.699 192.395 516.197 192.688C516.725 192.981 517.415 193.216 518.265 193.392C519.116 193.568 520.04 193.729 521.037 193.876C522.064 193.993 523.091 194.184 524.117 194.448C525.144 194.712 526.068 195.093 526.889 195.592C527.74 196.061 528.429 196.721 528.957 197.572C529.485 198.393 529.749 199.479 529.749 200.828C529.749 202.295 529.309 203.6 528.429 204.744C527.549 205.859 526.273 206.739 524.601 207.384C522.959 208.029 520.949 208.352 518.573 208.352ZM543.972 208.352C542.007 208.352 540.247 207.971 538.692 207.208C537.167 206.445 535.979 205.287 535.128 203.732C534.278 202.148 533.852 200.139 533.852 197.704V184.328H540.716V196.692C540.716 198.657 541.127 200.109 541.948 201.048C542.799 201.957 543.987 202.412 545.512 202.412C546.568 202.412 547.507 202.192 548.328 201.752C549.15 201.283 549.795 200.579 550.264 199.64C550.734 198.672 550.968 197.469 550.968 196.032V184.328H557.832V208H551.32V201.488L552.508 203.38C551.716 205.023 550.543 206.269 548.988 207.12C547.463 207.941 545.791 208.352 543.972 208.352ZM564.191 208V175.352H571.055V208H564.191ZM588.868 208.352C586.081 208.352 583.91 207.648 582.356 206.24C580.801 204.803 580.024 202.676 580.024 199.86V179.092H586.888V199.772C586.888 200.769 587.152 201.547 587.68 202.104C588.208 202.632 588.926 202.896 589.836 202.896C590.921 202.896 591.845 202.603 592.608 202.016L594.456 206.856C593.752 207.355 592.901 207.736 591.904 208C590.936 208.235 589.924 208.352 588.868 208.352ZM576.372 190.136V184.856H592.784V190.136H576.372ZM606.273 208.352C604.249 208.352 602.298 208.117 600.421 207.648C598.573 207.149 597.106 206.533 596.021 205.8L598.309 200.872C599.394 201.547 600.67 202.104 602.137 202.544C603.633 202.955 605.099 203.16 606.537 203.16C608.121 203.16 609.235 202.969 609.881 202.588C610.555 202.207 610.893 201.679 610.893 201.004C610.893 200.447 610.629 200.036 610.101 199.772C609.602 199.479 608.927 199.259 608.077 199.112C607.226 198.965 606.287 198.819 605.261 198.672C604.263 198.525 603.251 198.335 602.225 198.1C601.198 197.836 600.259 197.455 599.409 196.956C598.558 196.457 597.869 195.783 597.341 194.932C596.842 194.081 596.593 192.981 596.593 191.632C596.593 190.136 597.018 188.816 597.869 187.672C598.749 186.528 600.01 185.633 601.653 184.988C603.295 184.313 605.261 183.976 607.549 183.976C609.162 183.976 610.805 184.152 612.477 184.504C614.149 184.856 615.542 185.369 616.657 186.044L614.369 190.928C613.225 190.253 612.066 189.799 610.893 189.564C609.749 189.3 608.634 189.168 607.549 189.168C606.023 189.168 604.909 189.373 604.205 189.784C603.501 190.195 603.149 190.723 603.149 191.368C603.149 191.955 603.398 192.395 603.897 192.688C604.425 192.981 605.114 193.216 605.965 193.392C606.815 193.568 607.739 193.729 608.737 193.876C609.763 193.993 610.79 194.184 611.817 194.448C612.843 194.712 613.767 195.093 614.589 195.592C615.439 196.061 616.129 196.721 616.657 197.572C617.185 198.393 617.449 199.479 617.449 200.828C617.449 202.295 617.009 203.6 616.129 204.744C615.249 205.859 613.973 206.739 612.301 207.384C610.658 208.029 608.649 208.352 606.273 208.352ZM641.229 191.06H656.013V196.78H641.229V191.06ZM641.757 208H634.629V177.2H657.905V182.92H641.757V208ZM672.952 208.352C670.429 208.352 668.185 207.824 666.22 206.768C664.284 205.712 662.744 204.275 661.6 202.456C660.485 200.608 659.928 198.511 659.928 196.164C659.928 193.788 660.485 191.691 661.6 189.872C662.744 188.024 664.284 186.587 666.22 185.56C668.185 184.504 670.429 183.976 672.952 183.976C675.445 183.976 677.674 184.504 679.64 185.56C681.605 186.587 683.145 188.009 684.26 189.828C685.374 191.647 685.932 193.759 685.932 196.164C685.932 198.511 685.374 200.608 684.26 202.456C683.145 204.275 681.605 205.712 679.64 206.768C677.674 207.824 675.445 208.352 672.952 208.352ZM672.952 202.72C674.096 202.72 675.122 202.456 676.032 201.928C676.941 201.4 677.66 200.652 678.188 199.684C678.716 198.687 678.98 197.513 678.98 196.164C678.98 194.785 678.716 193.612 678.188 192.644C677.66 191.676 676.941 190.928 676.032 190.4C675.122 189.872 674.096 189.608 672.952 189.608C671.808 189.608 670.781 189.872 669.872 190.4C668.962 190.928 668.229 191.676 667.672 192.644C667.144 193.612 666.88 194.785 666.88 196.164C666.88 197.513 667.144 198.687 667.672 199.684C668.229 200.652 668.962 201.4 669.872 201.928C670.781 202.456 671.808 202.72 672.952 202.72ZM700.508 208.352C698.542 208.352 696.782 207.971 695.228 207.208C693.702 206.445 692.514 205.287 691.664 203.732C690.813 202.148 690.388 200.139 690.388 197.704V184.328H697.252V196.692C697.252 198.657 697.662 200.109 698.484 201.048C699.334 201.957 700.522 202.412 702.048 202.412C703.104 202.412 704.042 202.192 704.864 201.752C705.685 201.283 706.33 200.579 706.8 199.64C707.269 198.672 707.504 197.469 707.504 196.032V184.328H714.368V208H707.856V201.488L709.044 203.38C708.252 205.023 707.078 206.269 705.524 207.12C703.998 207.941 702.326 208.352 700.508 208.352ZM735.115 183.976C736.992 183.976 738.664 184.357 740.131 185.12C741.627 185.853 742.8 186.997 743.651 188.552C744.501 190.077 744.927 192.043 744.927 194.448V208H738.063V195.504C738.063 193.597 737.637 192.189 736.787 191.28C735.965 190.371 734.792 189.916 733.267 189.916C732.181 189.916 731.199 190.151 730.319 190.62C729.468 191.06 728.793 191.749 728.295 192.688C727.825 193.627 727.591 194.829 727.591 196.296V208H720.727V184.328H727.283V190.884L726.051 188.904C726.901 187.32 728.119 186.103 729.703 185.252C731.287 184.401 733.091 183.976 735.115 183.976ZM761.484 208.352C759.255 208.352 757.246 207.853 755.456 206.856C753.667 205.829 752.244 204.407 751.188 202.588C750.162 200.769 749.648 198.628 749.648 196.164C749.648 193.671 750.162 191.515 751.188 189.696C752.244 187.877 753.667 186.469 755.456 185.472C757.246 184.475 759.255 183.976 761.484 183.976C763.479 183.976 765.224 184.416 766.72 185.296C768.216 186.176 769.375 187.511 770.196 189.3C771.018 191.089 771.428 193.377 771.428 196.164C771.428 198.921 771.032 201.209 770.24 203.028C769.448 204.817 768.304 206.152 766.808 207.032C765.342 207.912 763.567 208.352 761.484 208.352ZM762.672 202.72C763.787 202.72 764.799 202.456 765.708 201.928C766.618 201.4 767.336 200.652 767.864 199.684C768.422 198.687 768.7 197.513 768.7 196.164C768.7 194.785 768.422 193.612 767.864 192.644C767.336 191.676 766.618 190.928 765.708 190.4C764.799 189.872 763.787 189.608 762.672 189.608C761.528 189.608 760.502 189.872 759.592 190.4C758.683 190.928 757.95 191.676 757.392 192.644C756.864 193.612 756.6 194.785 756.6 196.164C756.6 197.513 756.864 198.687 757.392 199.684C757.95 200.652 758.683 201.4 759.592 201.928C760.502 202.456 761.528 202.72 762.672 202.72ZM768.876 208V203.16L769.008 196.12L768.568 189.124V175.352H775.432V208H768.876Z" fill="#00A7FF"/>
<g clip-path="url(#clip1_8272_64923)">
<path d="M305.737 309.005C301.554 304.214 296.108 300.696 290.02 298.854C285.786 297.665 279.362 296.575 272.823 298.172C268.86 299.109 265.213 301.071 262.248 303.863C258.746 307.191 256.075 311.709 254.311 317.375C254.177 317.792 254.13 318.233 254.173 318.669C254.216 319.106 254.348 319.529 254.561 319.912C254.768 320.301 255.052 320.643 255.395 320.919C255.738 321.195 256.134 321.399 256.557 321.518L267.673 324.638C268.436 324.845 269.247 324.773 269.962 324.437C270.677 324.1 271.249 323.519 271.575 322.799C273.048 319.471 276.767 314.172 285.12 316.368C287.24 316.886 289.145 318.051 290.572 319.701C291.999 321.352 292.876 323.406 293.082 325.578C293.276 327.417 293.033 329.276 292.374 331.003C291.714 332.73 290.657 334.278 289.288 335.521C284.962 339.564 279.304 338.782 276.334 337.95C274.688 337.493 272.928 337.704 271.437 338.538C269.946 339.371 268.845 340.76 268.372 342.401L265.044 354.357C264.817 355.197 264.928 356.091 265.352 356.85C265.777 357.609 266.481 358.171 267.315 358.417L278.131 361.462C278.97 361.689 279.865 361.579 280.624 361.154C281.383 360.73 281.945 360.025 282.191 359.191L282.898 356.695C282.907 356.666 282.924 356.639 282.948 356.62C282.972 356.601 283.001 356.589 283.032 356.587C287.771 356.272 292.384 354.92 296.543 352.627C303.54 348.733 308.283 342.493 310.687 334.098C313.974 322.059 309.814 313.814 305.737 309.005Z" fill="#E0E0E0"/>
<path d="M272.357 363.101L271.408 362.835C269.23 362.222 266.898 362.499 264.924 363.605C262.95 364.711 261.497 366.556 260.884 368.734C260.27 370.912 260.547 373.244 261.653 375.218C262.759 377.192 264.604 378.645 266.782 379.259L267.731 379.525C268.809 379.829 269.937 379.917 271.049 379.785C272.162 379.653 273.238 379.303 274.215 378.755C275.192 378.208 276.052 377.473 276.745 376.593C277.439 375.713 277.952 374.705 278.256 373.626C278.559 372.548 278.648 371.42 278.516 370.308C278.384 369.195 278.034 368.119 277.486 367.142C276.938 366.165 276.203 365.305 275.323 364.612C274.443 363.918 273.435 363.405 272.357 363.101Z" fill="#E0E0E0"/>
<path d="M329.59 242.787C326.707 241.258 323.451 240.574 320.197 240.815C317.213 241.031 314.333 242.001 311.827 243.635C310.104 244.811 308.719 246.418 307.808 248.294C306.692 250.779 306.236 253.511 306.485 256.223C306.498 256.448 306.556 256.668 306.656 256.87C306.756 257.071 306.896 257.251 307.068 257.396C307.239 257.545 307.439 257.657 307.655 257.726C307.871 257.795 308.099 257.818 308.324 257.796L314.215 257.255C314.621 257.223 315.002 257.042 315.284 256.748C315.566 256.453 315.731 256.065 315.746 255.658C315.837 253.786 316.652 250.574 321.054 250.1C322.163 249.958 323.289 250.165 324.275 250.693C325.26 251.221 326.057 252.043 326.553 253.045C326.982 253.891 327.206 254.826 327.206 255.774C327.206 256.722 326.982 257.657 326.553 258.503C325.222 261.232 322.393 261.889 320.796 262.039C319.924 262.124 319.121 262.548 318.56 263.221C317.999 263.894 317.727 264.761 317.801 265.633L318.375 271.973C318.391 272.195 318.452 272.411 318.554 272.609C318.656 272.807 318.796 272.983 318.967 273.125C319.137 273.268 319.335 273.375 319.547 273.44C319.76 273.505 319.984 273.527 320.205 273.504L325.954 272.98C326.176 272.962 326.392 272.9 326.59 272.798C326.787 272.695 326.962 272.554 327.104 272.382C327.246 272.211 327.352 272.013 327.416 271.799C327.48 271.586 327.501 271.362 327.477 271.141L327.352 269.81C327.352 269.794 327.357 269.778 327.366 269.765C327.375 269.752 327.387 269.741 327.402 269.735C329.613 268.714 331.572 267.22 333.143 265.359C334.449 263.777 335.419 261.945 335.991 259.974C336.563 258.004 336.727 255.938 336.471 253.902C335.93 247.529 332.452 244.342 329.59 242.787Z" fill="#F5F5F5"/>
<path d="M323.517 274.809L323.017 274.851C322.436 274.894 321.87 275.052 321.351 275.317C320.832 275.582 320.372 275.948 319.996 276.393C319.621 276.838 319.338 277.354 319.164 277.91C318.99 278.466 318.929 279.051 318.985 279.631C319.04 280.211 319.211 280.774 319.486 281.287C319.762 281.8 320.138 282.253 320.591 282.619C321.044 282.985 321.565 283.257 322.125 283.419C322.685 283.581 323.271 283.629 323.849 283.562L324.349 283.52C324.929 283.477 325.496 283.318 326.015 283.053C326.533 282.788 326.994 282.423 327.37 281.977C327.745 281.532 328.028 281.016 328.202 280.46C328.376 279.904 328.437 279.319 328.381 278.74C328.326 278.16 328.155 277.597 327.879 277.084C327.604 276.571 327.228 276.118 326.775 275.752C326.322 275.386 325.8 275.114 325.241 274.952C324.681 274.79 324.095 274.741 323.517 274.809Z" fill="#F5F5F5"/>
<path d="M93.5684 107.386C91.6012 105.504 89.1451 104.213 86.4798 103.659C84.0372 103.157 81.5073 103.28 79.1249 104.017C77.471 104.563 75.9903 105.536 74.8318 106.837C73.3693 108.578 72.3807 110.667 71.9614 112.902C71.9228 113.085 71.9211 113.273 71.9565 113.457C71.992 113.64 72.0638 113.814 72.1677 113.97C72.2716 114.125 72.4056 114.257 72.5616 114.36C72.7177 114.462 72.8927 114.533 73.0763 114.566L77.9269 115.481C78.2605 115.542 78.6047 115.481 78.8976 115.311C79.1905 115.14 79.4127 114.87 79.5243 114.55C79.8316 113.389 80.584 112.397 81.6182 111.788C82.6524 111.179 83.8851 111.002 85.0488 111.297C85.9719 111.435 86.8287 111.858 87.4999 112.507C88.171 113.156 88.623 113.998 88.7928 114.916C88.9442 115.693 88.9109 116.494 88.6955 117.256C88.4802 118.017 88.0889 118.718 87.5531 119.3C85.8891 121.189 83.3931 121.064 82.1201 120.823C81.4023 120.691 80.6615 120.848 80.0587 121.259C79.4558 121.67 79.0395 122.303 78.9003 123.019L77.9185 128.244C77.8812 128.428 77.8807 128.616 77.9171 128.8C77.9536 128.983 78.0262 129.157 78.1308 129.312C78.2354 129.467 78.3698 129.6 78.5262 129.702C78.6826 129.804 78.8579 129.875 79.0417 129.908L83.7675 130.799C83.9506 130.835 84.139 130.834 84.3219 130.798C84.5048 130.761 84.6786 130.688 84.8333 130.583C84.988 130.479 85.1205 130.345 85.2231 130.189C85.3258 130.033 85.3966 129.859 85.4315 129.675L85.6312 128.577C85.6367 128.565 85.6447 128.554 85.6548 128.546C85.6649 128.537 85.6767 128.531 85.6894 128.527C87.696 128.211 89.6096 127.461 91.2971 126.331C92.7094 125.362 93.9087 124.114 94.8215 122.665C95.7343 121.215 96.3413 119.595 96.6052 117.903C97.5704 112.636 95.4904 109.283 93.5684 107.386Z" fill="#F5F5F5"/>
<path d="M81.3961 131.696L80.9801 131.621C80.5098 131.533 80.0266 131.538 79.5582 131.636C79.0897 131.734 78.6452 131.924 78.2501 132.194C77.8549 132.464 77.5168 132.809 77.255 133.21C76.9932 133.611 76.813 134.059 76.7245 134.529C76.636 135 76.641 135.483 76.7392 135.951C76.8375 136.42 77.027 136.864 77.297 137.259C77.567 137.655 77.9122 137.993 78.3129 138.254C78.7136 138.516 79.1619 138.696 79.6323 138.785L80.0483 138.868C80.979 139 81.9245 138.767 82.6882 138.219C83.4519 137.671 83.9749 136.85 84.1485 135.926C84.3221 135.002 84.1329 134.047 83.6203 133.259C83.1077 132.472 82.311 131.912 81.3961 131.696Z" fill="#F5F5F5"/>
<path d="M320.804 109.05C317.924 107.511 314.668 106.816 311.411 107.045C308.434 107.251 305.558 108.207 303.049 109.823C301.32 110.992 299.926 112.593 299.006 114.466C297.88 116.949 297.413 119.679 297.65 122.395C297.661 122.62 297.718 122.841 297.817 123.044C297.916 123.247 298.056 123.427 298.227 123.574C298.398 123.721 298.598 123.832 298.813 123.9C299.028 123.967 299.255 123.99 299.48 123.967L305.379 123.452C305.786 123.421 306.167 123.243 306.451 122.95C306.735 122.657 306.901 122.27 306.918 121.862C307.018 119.99 307.842 116.787 312.243 116.321C313.353 116.186 314.478 116.399 315.462 116.931C316.446 117.463 317.24 118.288 317.734 119.292C318.163 120.137 318.387 121.072 318.387 122.021C318.387 122.969 318.163 123.904 317.734 124.75C316.395 127.478 313.574 128.119 311.96 128.269C311.088 128.349 310.283 128.77 309.72 129.439C309.156 130.109 308.879 130.974 308.948 131.846L309.506 138.186C309.521 138.409 309.581 138.626 309.682 138.825C309.784 139.024 309.924 139.2 310.095 139.344C310.265 139.487 310.463 139.595 310.676 139.661C310.89 139.726 311.114 139.748 311.336 139.726L317.077 139.218C317.298 139.201 317.513 139.141 317.711 139.039C317.908 138.938 318.083 138.799 318.226 138.629C318.368 138.459 318.475 138.263 318.541 138.051C318.607 137.839 318.629 137.617 318.608 137.396L318.491 136.056C318.492 136.041 318.498 136.025 318.506 136.012C318.515 135.999 318.527 135.989 318.541 135.982C320.755 134.972 322.72 133.49 324.299 131.638C325.617 130.063 326.6 128.235 327.186 126.267C327.773 124.298 327.951 122.23 327.71 120.19C327.136 113.825 323.641 110.655 320.804 109.05Z" fill="white"/>
<path d="M314.614 141.05L314.115 141.1C313.543 141.149 312.986 141.311 312.477 141.576C311.968 141.841 311.515 142.204 311.146 142.643C310.777 143.083 310.498 143.591 310.325 144.138C310.152 144.686 310.088 145.262 310.138 145.834C310.188 146.406 310.35 146.962 310.614 147.472C310.879 147.981 311.242 148.433 311.681 148.803C312.121 149.172 312.629 149.451 313.176 149.624C313.724 149.797 314.3 149.861 314.872 149.811L315.371 149.769C316.519 149.658 317.576 149.098 318.313 148.211C319.05 147.325 319.407 146.183 319.307 145.035C319.208 143.886 318.659 142.824 317.78 142.077C316.901 141.331 315.764 140.962 314.614 141.05Z" fill="white"/>
<path d="M143.588 300.777C139.985 299.153 135.997 298.577 132.081 299.113C128.493 299.599 125.087 300.988 122.181 303.148C120.182 304.691 118.627 306.735 117.671 309.072C116.501 312.158 116.148 315.494 116.648 318.756C116.682 319.027 116.771 319.287 116.908 319.523C117.045 319.758 117.228 319.964 117.446 320.128C117.664 320.292 117.912 320.41 118.177 320.476C118.441 320.542 118.717 320.554 118.986 320.512L126.066 319.43C126.552 319.352 126.993 319.103 127.311 318.728C127.629 318.352 127.801 317.875 127.797 317.383C127.797 315.12 128.521 311.177 133.804 310.27C135.135 310.018 136.511 310.187 137.741 310.754C138.971 311.32 139.994 312.256 140.668 313.431C141.25 314.421 141.591 315.534 141.663 316.681C141.735 317.827 141.537 318.974 141.084 320.029C139.669 323.424 136.275 324.43 134.378 324.73C133.335 324.9 132.401 325.474 131.779 326.327C131.156 327.18 130.894 328.244 131.05 329.289L132.215 336.91C132.299 337.445 132.591 337.924 133.027 338.244C133.464 338.564 134.009 338.697 134.544 338.616L141.441 337.559C141.977 337.477 142.459 337.186 142.78 336.749C143.102 336.312 143.237 335.766 143.155 335.23L142.906 333.632C142.904 333.614 142.908 333.595 142.916 333.579C142.925 333.562 142.939 333.549 142.956 333.541C145.566 332.145 147.838 330.194 149.612 327.825C151.071 325.81 152.101 323.518 152.639 321.09C153.177 318.661 153.211 316.148 152.74 313.706C151.559 306.043 147.091 302.441 143.588 300.777Z" fill="white"/>
<path d="M138.596 339.923L137.997 340.014C136.609 340.226 135.362 340.98 134.531 342.112C133.699 343.243 133.351 344.658 133.563 346.046C133.774 347.434 134.529 348.681 135.66 349.513C136.791 350.344 138.207 350.692 139.595 350.481L140.202 350.389C140.889 350.284 141.549 350.044 142.144 349.684C142.738 349.323 143.256 348.849 143.667 348.289C144.079 347.728 144.376 347.092 144.541 346.417C144.707 345.741 144.738 345.04 144.632 344.353C144.527 343.666 144.287 343.006 143.927 342.411C143.566 341.817 143.092 341.299 142.532 340.888C141.971 340.476 141.335 340.179 140.66 340.014C139.985 339.848 139.283 339.817 138.596 339.923Z" fill="white"/>
<path d="M81.4464 156.549C76.3856 154.262 70.7826 153.449 65.2806 154.203C60.2407 154.892 55.4575 156.847 51.3779 159.885C48.5777 162.057 46.3972 164.926 45.0547 168.205C43.4233 172.54 42.939 177.223 43.6486 181.8C43.6954 182.18 43.8183 182.547 44.0098 182.879C44.2013 183.21 44.4577 183.5 44.7635 183.731C45.0712 183.961 45.4218 184.127 45.7947 184.22C46.1676 184.313 46.5553 184.33 46.935 184.271L56.919 182.732C57.6008 182.624 58.2212 182.275 58.6672 181.748C59.1131 181.222 59.3549 180.552 59.3484 179.862C59.3484 176.667 60.3469 171.134 67.7683 169.878C69.6366 169.52 71.5701 169.753 73.2998 170.545C75.0295 171.336 76.4695 172.648 77.4195 174.296C78.24 175.684 78.7218 177.245 78.8259 178.854C78.93 180.463 78.6534 182.074 78.0185 183.556C76.0467 188.332 71.2793 189.754 68.6169 190.212C67.1445 190.444 65.8233 191.248 64.9413 192.449C64.0592 193.651 63.6877 195.152 63.9078 196.627L65.5718 207.334C65.7043 208.065 66.1145 208.715 66.7164 209.15C67.3183 209.584 68.0651 209.768 68.8 209.664L78.4928 208.158C79.2443 208.039 79.9182 207.628 80.3673 207.013C80.8163 206.399 81.0038 205.632 80.8889 204.88L80.5395 202.634C80.5368 202.606 80.5425 202.579 80.5559 202.555C80.5693 202.531 80.5897 202.512 80.6144 202.5C84.2584 200.531 87.4275 197.787 89.8995 194.463C94.0595 188.839 95.5488 182.175 94.384 174.653C92.7117 163.904 86.4217 158.912 81.4464 156.549Z" fill="white"/>
<path d="M74.5321 211.561L73.7001 211.694C72.7348 211.843 71.8084 212.182 70.9739 212.689C70.1393 213.197 69.4129 213.864 68.8362 214.653C68.2595 215.441 67.8437 216.335 67.6126 217.284C67.3814 218.234 67.3395 219.219 67.4892 220.184C67.6389 221.149 67.9773 222.076 68.485 222.91C68.9927 223.745 69.6598 224.471 70.4482 225.048C72.0405 226.213 74.0302 226.697 75.9798 226.395L76.8118 226.262C77.7771 226.112 78.7035 225.774 79.538 225.266C80.3726 224.759 81.0989 224.091 81.6757 223.303C82.2524 222.515 82.6682 221.62 82.8993 220.671C83.1304 219.722 83.1723 218.737 83.0227 217.771C82.873 216.806 82.5346 215.88 82.0269 215.045C81.5192 214.211 80.8521 213.484 80.0637 212.907C79.2753 212.331 78.381 211.915 77.4319 211.684C76.4827 211.453 75.4974 211.411 74.5321 211.561Z" fill="white"/>
<path d="M221.563 88.7485L229.051 89.9965C233.695 95.5407 240.245 99.1474 247.413 100.108C254.581 101.068 261.849 99.3127 267.788 95.1865C273.728 91.0603 277.909 84.8617 279.511 77.8092C281.112 70.7566 280.018 63.3601 276.443 57.0733C272.868 50.7866 267.071 46.0644 260.191 43.8349C253.311 41.6053 245.846 42.0297 239.263 45.0245C232.68 48.0193 227.455 53.3681 224.616 60.0194C221.776 66.6708 221.527 74.1437 223.918 80.9693L221.563 88.7485Z" fill="white"/>
<path d="M221.563 88.7492C221.563 88.7492 221.563 88.5828 221.696 88.25L222.12 86.7607C222.52 85.4212 223.094 83.4327 223.834 80.9367L223.884 80.762L223.992 80.9118L223.834 80.9866C222.247 76.5315 221.778 71.7544 222.47 67.0756C222.938 64.0031 223.881 61.0222 225.265 58.2398C226.87 55.1067 229.026 52.2884 231.63 49.9198C234.536 47.3049 237.928 45.289 241.614 43.9876C245.606 42.5446 249.87 42.013 254.094 42.4318C258.572 42.8825 262.89 44.3418 266.724 46.6999C270.746 49.1937 274.085 52.6472 276.442 56.7505C277.652 58.8312 278.61 61.0489 279.295 63.3566C279.462 63.9306 279.57 64.513 279.703 65.0954C279.857 65.6641 279.974 66.2422 280.053 66.826C280.127 67.4084 280.194 67.9991 280.269 68.5732L280.369 69.4052V70.2372C280.516 74.7881 279.614 79.3117 277.731 83.4577C275.971 87.3756 273.346 90.8433 270.052 93.5998C267.034 96.1308 263.544 98.0395 259.785 99.2158C256.378 100.263 252.808 100.677 249.252 100.439L246.814 100.156C245.982 100.039 245.25 99.8314 244.493 99.6817C243.035 99.346 241.607 98.8896 240.225 98.3172C235.862 96.5223 232.006 93.6857 228.993 90.0554H229.043L223.46 89.0986L222.037 88.8407L221.563 88.7492L222.07 88.8158L223.526 89.0404L229.076 89.8724C232.096 93.4467 235.939 96.2334 240.275 97.9927C241.647 98.5528 243.064 98.998 244.51 99.3239C245.267 99.4654 246.024 99.6734 246.814 99.7815L249.227 100.048C252.733 100.269 256.249 99.846 259.602 98.7998C263.308 97.6289 266.746 95.7373 269.719 93.2337C272.953 90.5327 275.54 87.1409 277.29 83.3079C279.136 79.2165 280.018 74.7564 279.87 70.2705V69.4385L279.77 68.6065C279.695 68.0407 279.628 67.4666 279.553 66.8842C279.472 66.3098 279.358 65.7403 279.212 65.1786C279.071 64.6129 278.963 64.0305 278.805 63.5146C278.132 61.2382 277.188 59.051 275.992 57.0001C273.67 52.9603 270.382 49.5587 266.424 47.0993C262.64 44.7576 258.372 43.3066 253.944 42.8561C249.825 42.4469 245.666 42.9526 241.764 44.337C238.127 45.6123 234.777 47.5913 231.905 50.161C229.319 52.5017 227.179 55.2926 225.59 58.3978C224.211 61.1394 223.265 64.0779 222.786 67.1089C222.081 71.7464 222.512 76.4859 224.042 80.9201L224.259 81.5358L223.893 81.0033H224.042C223.269 83.4993 222.661 85.4295 222.254 86.7524C222.046 87.4014 221.887 87.9006 221.779 88.2583C221.671 88.6161 221.563 88.7492 221.563 88.7492Z" fill="#263238"/>
<path d="M257.372 58.0484C255.409 56.7895 253.132 56.109 250.8 56.0849C248.666 56.0592 246.562 56.5774 244.684 57.5908C243.385 58.3209 242.301 59.3796 241.54 60.6609C240.59 62.362 240.094 64.2788 240.1 66.227C240.105 66.5391 240.23 66.8373 240.45 67.059C240.558 67.1704 240.687 67.2594 240.83 67.3207C240.973 67.3821 241.126 67.4148 241.282 67.4167H245.508C245.807 67.4283 246.099 67.3295 246.329 67.1392C246.559 66.9488 246.711 66.6804 246.756 66.3851C246.823 65.3585 247.292 64.3997 248.061 63.7173C248.831 63.0348 249.839 62.6839 250.866 62.7409C251.664 62.7076 252.453 62.9237 253.122 63.359C253.792 63.7944 254.309 64.4275 254.602 65.1703C254.853 65.8003 254.951 66.4807 254.889 67.156C254.827 67.8312 254.606 68.4822 254.244 69.0558C253.774 69.7588 253.13 70.3283 252.375 70.7088C251.62 71.0893 250.779 71.268 249.934 71.2273C249.31 71.2339 248.713 71.4866 248.274 71.9306C247.834 72.3745 247.588 72.9739 247.588 73.5985V78.1495C247.59 78.4681 247.718 78.7728 247.944 78.9972C248.17 79.2217 248.476 79.3476 248.795 79.3476H252.955C253.113 79.3476 253.269 79.3164 253.415 79.2556C253.561 79.1949 253.693 79.1059 253.805 78.9938C253.916 78.8816 254.004 78.7486 254.064 78.6023C254.124 78.4559 254.154 78.2992 254.153 78.1412V77.1511C254.152 77.1392 254.157 77.1276 254.164 77.1185C254.172 77.1093 254.182 77.1032 254.194 77.1012C255.829 76.5049 257.314 75.5594 258.546 74.3307C259.571 73.2827 260.373 72.0373 260.902 70.6699C261.431 69.3026 261.677 67.842 261.624 66.3767C261.689 64.7405 261.332 63.1152 260.587 61.6567C259.843 60.1983 258.736 58.9557 257.372 58.0484Z" fill="#00A7FF"/>
<path d="M251.124 80.4785H250.766C249.965 80.5248 249.213 80.8769 248.664 81.462C248.116 82.0471 247.813 82.8205 247.818 83.6224C247.824 84.4244 248.137 85.1937 248.693 85.7714C249.249 86.3492 250.006 86.6912 250.808 86.7268H251.174C252.001 86.7202 252.792 86.3852 253.372 85.7954C253.953 85.2056 254.275 84.4093 254.269 83.5819C254.262 82.7544 253.927 81.9634 253.337 81.383C252.747 80.8026 251.951 80.4802 251.124 80.4868V80.4785Z" fill="#00A7FF"/>
<path d="M262.605 126.257C242.962 113.045 219.608 108.336 204.299 108.336C189.955 108.336 168.864 110.599 149.77 121.365C138.174 127.798 128.474 137.166 121.64 148.53C113.586 161.958 109.218 178.573 108.677 197.909C108.639 199.338 108.888 200.761 109.41 202.092C109.931 203.424 110.714 204.637 111.712 205.661C112.71 206.685 113.904 207.498 115.221 208.053C116.539 208.608 117.955 208.893 119.385 208.891H156.983C159.561 208.882 162.049 207.947 163.995 206.256C165.94 204.566 167.214 202.232 167.583 199.681C169.247 187.892 176.252 168.065 204.382 167.558C225.806 167.192 234.65 182.708 237.462 189.398C242.03 200.28 240.865 213.185 234.359 223.917C224.358 240.449 205.988 242.945 195.879 242.945C190.316 242.96 184.985 245.174 181.047 249.102C177.109 253.031 174.883 258.357 174.854 263.92V304.372C174.859 307.213 175.989 309.936 177.998 311.944C180.007 313.953 182.73 315.084 185.571 315.088H222.179C225.019 315.084 227.742 313.953 229.751 311.944C231.76 309.936 232.89 307.213 232.895 304.372V295.902C232.896 295.803 232.928 295.707 232.986 295.626C233.044 295.546 233.125 295.485 233.219 295.453C247.792 290.265 261.055 281.956 272.082 271.108C290.569 252.721 299.946 228.993 299.946 200.58C300.004 159.92 279.645 137.714 262.605 126.257Z" fill="#008AD2"/>
<path d="M202.96 333.982H205.922C212.836 334.105 219.427 336.938 224.273 341.872C229.12 346.806 231.836 353.445 231.836 360.361C231.836 367.277 229.12 373.916 224.273 378.85C219.427 383.784 212.836 386.617 205.922 386.74H202.96C196.045 386.617 189.455 383.784 184.608 378.85C179.761 373.916 177.045 367.277 177.045 360.361C177.045 353.445 179.761 346.806 184.608 341.872C189.455 336.938 196.045 334.105 202.96 333.982Z" fill="#008AD2"/>
<path d="M185.429 322.942H222.037C224.832 322.982 227.528 321.913 229.535 319.968C231.543 318.023 232.697 315.362 232.745 312.567V296.027C232.748 295.93 232.781 295.837 232.839 295.76C232.897 295.682 232.978 295.625 233.069 295.594C239.099 293.432 244.876 290.623 250.3 287.216C226.913 287.05 184.281 286.817 174.721 287.158V312.567C174.769 315.362 175.924 318.023 177.931 319.968C179.938 321.913 182.634 322.982 185.429 322.942Z" fill="#263238"/>
<path d="M215.581 139.694L192.085 71.4701C187.093 54.3891 173.049 43.0323 156.11 48.4653L154.579 49.0643C147.124 51.9426 141.026 57.5221 137.499 64.6925C133.971 71.863 133.273 80.0986 135.542 87.7607C139.927 102.545 144.952 118.819 148.022 126.474C154.371 142.282 170.986 137.872 170.986 137.872C170.986 137.872 174.688 148.43 176.286 153.181L184.897 161.684L188.449 157.798L215.581 139.694Z" fill="#FFBF9D"/>
<path d="M170.986 137.871C170.986 137.871 181.253 134.543 189.348 123.727C189.348 123.727 188.99 137.621 172.55 142.322L170.986 137.871Z" fill="#FF9A6C"/>
<path d="M147.033 98.5341C147.258 99.1276 147.704 99.6105 148.279 99.8806C148.853 100.151 149.51 100.187 150.111 99.9817C150.409 99.8936 150.687 99.7466 150.928 99.5493C151.168 99.3521 151.367 99.1086 151.512 98.8333C151.657 98.558 151.746 98.2564 151.772 97.9464C151.799 97.6363 151.763 97.3241 151.667 97.0281C151.445 96.4317 150.999 95.9456 150.424 95.6735C149.849 95.4015 149.19 95.3651 148.588 95.5721C148.29 95.6612 148.012 95.8091 147.771 96.0072C147.53 96.2052 147.332 96.4494 147.187 96.7254C147.042 97.0014 146.953 97.3036 146.927 97.6142C146.9 97.9248 146.936 98.2375 147.033 98.5341Z" fill="#263238"/>
<path d="M141.383 92.7101C141.774 92.9015 143.047 90.9546 145.46 90.0227C147.873 89.0909 150.169 89.6151 150.319 89.1907C150.402 89.0077 149.903 88.5834 148.904 88.3587C147.563 88.0321 146.152 88.131 144.869 88.6416C143.597 89.1253 142.511 89.999 141.766 91.1376C141.242 91.9946 141.192 92.6352 141.383 92.7101Z" fill="#263238"/>
<path d="M167.491 90.4224C167.891 90.6055 169.155 88.6669 171.568 87.7267C173.981 86.7866 176.285 87.3191 176.435 86.8947C176.51 86.7117 176.019 86.2874 175.021 86.0627C173.676 85.7377 172.264 85.8365 170.977 86.3456C169.709 86.8318 168.626 87.7051 167.882 88.8416C167.35 89.7069 167.3 90.3392 167.491 90.4224Z" fill="#263238"/>
<path d="M164.072 106.206C164.03 106.065 162.408 106.389 159.82 107.038C159.171 107.213 158.531 107.321 158.264 106.938C157.96 106.314 157.855 105.611 157.965 104.925C157.965 103.183 157.965 101.358 157.965 99.4504C157.915 91.6879 157.615 85.3979 157.308 85.4063C157 85.4146 156.783 91.7045 156.833 99.4671C156.833 101.381 156.858 103.206 156.908 104.942C156.809 105.848 157.029 106.76 157.532 107.521C157.709 107.705 157.925 107.846 158.164 107.936C158.403 108.025 158.659 108.059 158.913 108.037C159.297 107.995 159.675 107.906 160.037 107.77C162.574 106.93 164.113 106.348 164.072 106.206Z" fill="#263238"/>
<path d="M161.834 76.6694C162.408 77.1603 164.529 75.5878 167.4 74.4064C170.27 73.2249 172.841 72.7424 172.891 71.9936C172.891 71.6358 172.192 71.2614 170.977 71.1616C169.396 71.0764 167.815 71.3529 166.356 71.9699C164.897 72.5869 163.598 73.5283 162.558 74.7225C161.792 75.6544 161.576 76.4281 161.834 76.6694Z" fill="#263238"/>
<path d="M138.488 85.5637C139.212 85.9298 140.984 84.6069 143.397 83.6917C145.809 82.7765 147.981 82.4271 148.239 81.67C148.339 81.3122 147.806 80.8379 146.725 80.6715C145.253 80.463 143.753 80.6555 142.382 81.229C140.998 81.7532 139.784 82.645 138.871 83.8082C138.23 84.6901 138.163 85.3723 138.488 85.5637Z" fill="#263238"/>
<path d="M195.081 82.9929C195.305 82.7683 204.773 75.5049 208.626 86.5455C212.478 97.5862 200.63 99.167 200.497 98.8592C200.364 98.5513 195.081 82.9929 195.081 82.9929Z" fill="#FFBF9D"/>
<path d="M202.402 93.5008C202.402 93.4508 202.643 93.5673 203.018 93.6089C203.543 93.643 204.062 93.4731 204.465 93.1347C205.48 92.3027 205.813 90.1062 205.172 88.1427C204.868 87.1869 204.353 86.3114 203.667 85.5801C203.443 85.2735 203.148 85.0256 202.807 84.8576C202.467 84.6895 202.091 84.6063 201.711 84.615C201.47 84.6332 201.243 84.7357 201.069 84.9046C200.896 85.0734 200.788 85.2978 200.763 85.5385C200.721 85.8963 200.871 86.096 200.813 86.1292C200.755 86.1625 200.513 86.0294 200.447 85.5468C200.414 85.2558 200.481 84.9621 200.638 84.7148C200.862 84.3787 201.208 84.143 201.603 84.0576C202.087 83.989 202.581 84.0456 203.036 84.2218C203.492 84.3981 203.895 84.6881 204.207 85.0643C205.007 85.8558 205.604 86.8292 205.946 87.9014C206.653 90.1478 206.246 92.6272 204.806 93.6422C204.541 93.8316 204.237 93.959 203.916 94.0152C203.595 94.0713 203.265 94.0548 202.951 93.9667C202.518 93.7587 202.369 93.534 202.402 93.5008Z" fill="#FF9A6C"/>
<path d="M172.384 105.091C172.001 105.2 172.841 107.746 171.269 110.275C169.696 112.804 166.901 113.436 167.001 113.794C167.001 113.969 167.766 114.085 168.923 113.736C170.421 113.261 171.703 112.27 172.542 110.94C173.341 109.665 173.615 108.129 173.307 106.656C173.049 105.557 172.558 105.025 172.384 105.091Z" fill="#263238"/>
<path d="M108.028 80.0225C107.998 79.3062 108.246 78.606 108.719 78.0673C109.717 76.8775 111.215 76.4615 112.604 75.9457C116.075 74.6346 119.203 72.5554 121.756 69.8638C120.478 69.7174 119.231 69.3692 118.062 68.8321C115.658 67.6839 113.678 65.3211 113.653 62.6587C113.627 62.4103 113.659 62.1594 113.743 61.9246C113.828 61.6899 113.965 61.4772 114.144 61.3025C114.784 60.8283 115.658 61.3025 116.357 61.6935C118.636 62.9499 120.433 63.1995 122.788 62.0929C124.227 61.4827 125.51 60.5556 126.54 59.3806C126.54 59.314 126.59 59.2391 126.624 59.1726C126.99 58.3406 127.347 57.6251 127.705 56.8846C130.401 51.3185 132.963 47.2167 136.108 44.4046C140.726 40.3444 149.42 36.3009 155.527 35.8017C161.634 35.3025 168.29 38.0647 171.094 43.5393C173.299 39.7703 178.024 38.1313 182.401 38.3227L182.476 38.2478C187.276 38.2478 191.287 41.9169 194.082 45.819L194.523 46.4679C196.77 48.2637 199.415 49.4935 202.236 50.0539C202.735 50.1454 203.309 50.2702 203.525 50.7278C203.595 50.9696 203.602 51.2256 203.543 51.4706C203.485 51.7156 203.364 51.9412 203.192 52.1255C202.422 53.2174 201.415 54.1216 200.247 54.7713C201.006 55.6732 201.841 56.5083 202.743 57.2673C203.517 57.9163 204.407 58.69 204.307 59.6884C204.225 60.0678 204.029 60.4129 203.745 60.6775C203.461 60.9422 203.102 61.1138 202.718 61.1694C201.945 61.2649 201.159 61.1969 200.414 60.9697L203.043 63.8817C201.588 64.6896 199.963 65.1456 198.3 65.2129C198.824 69.5975 200.796 77.3684 200.721 80.4884C197.818 81.57 196.994 81.5035 195.729 82.5102C194.065 83.8164 195.962 86.9364 193.142 86.8532C191.711 86.8116 188.083 82.6932 187.21 81.57C181.383 73.9829 177.255 65.2325 175.104 55.9111C172.67 54.6474 170.014 53.865 167.283 53.6065L167.533 53.7063C162.474 53.7063 156.842 53.9892 153.314 57.6084C150.577 60.4123 149.845 64.539 148.322 68.1582C145.46 75.0139 141.125 79.6564 134.228 82.427C135.31 87.5105 137.93 95.5227 139.287 100.149L132.215 92.4276V92.4692C131.732 92.0545 131.271 91.6157 130.833 91.1547L130.684 91.0215C129.985 90.2977 129.303 89.5739 128.504 88.8916V88.9499C126.84 91.9783 122.023 89.9399 123.029 86.6203C123.226 85.9574 123.523 85.3288 123.911 84.7566C123.545 85.4894 122.996 86.115 122.316 86.5728C121.637 87.0305 120.851 87.3048 120.034 87.3691C119.215 87.4033 118.408 87.1667 117.737 86.6959C117.067 86.2252 116.57 85.5465 116.323 84.7649C116.2 84.2227 116.221 83.6577 116.385 83.1263C116.548 82.5948 116.849 82.1156 117.255 81.7364C115.314 82.6028 113.158 82.8666 111.065 82.4935C109.634 82.2606 108.145 81.5867 108.028 80.0225Z" fill="#263238"/>
<path d="M166.701 47.209C167.438 47.4505 168.153 47.7539 168.839 48.1159C170.653 49.2058 172.153 50.7482 173.191 52.592C173.945 53.8527 174.567 55.1883 175.046 56.5773C175.579 58.0583 176.02 59.689 176.494 61.4112C176.966 63.2203 177.55 64.9986 178.241 66.736C178.621 67.6556 179.068 68.5456 179.581 69.3984C180.073 70.3294 180.795 71.1196 181.677 71.6947C182.063 71.9158 182.501 72.0322 182.946 72.0322C183.391 72.0322 183.828 71.9158 184.215 71.6947C184.967 71.275 185.554 70.6119 185.879 69.8144C186.333 68.305 186.37 66.7008 185.987 65.1719L185.662 65.3299C186.578 66.3739 187.64 67.2792 188.816 68.0173C189.937 68.691 191.276 68.9056 192.551 68.6163C193.138 68.4854 193.679 68.1979 194.116 67.7843C194.506 67.3681 194.762 66.8429 194.848 66.2784C194.935 65.755 194.881 65.2177 194.69 64.7226C194.502 64.2686 194.164 63.8927 193.733 63.6576L193.608 63.8656C194.956 64.6299 196.45 65.1006 197.993 65.2467C198.397 65.2678 198.803 65.2678 199.207 65.2467C199.346 65.2591 199.485 65.2591 199.623 65.2467C199.485 65.2271 199.345 65.2271 199.207 65.2467C198.804 65.2369 198.401 65.2035 198.001 65.1469C196.496 64.9496 195.045 64.4546 193.733 63.6909L193.616 63.9072C194 64.1524 194.297 64.5109 194.467 64.9329C194.637 65.3549 194.671 65.8194 194.565 66.2618C194.483 66.7668 194.248 67.2344 193.891 67.6013C193.501 67.9881 193.011 68.2589 192.477 68.3834C191.281 68.6321 190.035 68.4181 188.99 67.7843C187.854 67.0521 186.827 66.1644 185.937 65.1469L185.529 64.7143L185.613 65.305C185.975 66.7657 185.941 68.2967 185.513 69.7395C185.225 70.4424 184.709 71.0284 184.048 71.4035C183.719 71.5918 183.346 71.6908 182.967 71.6908C182.587 71.6908 182.215 71.5918 181.885 71.4035C181.068 70.8601 180.401 70.1189 179.947 69.2487C179.431 68.3877 178.981 67.4894 178.599 66.5613C177.911 64.8398 177.327 63.0783 176.852 61.2864C176.361 59.5725 175.911 57.9584 175.362 56.4442C174.863 55.0375 174.216 53.6877 173.432 52.4173C172.355 50.5493 170.794 49.006 168.914 47.9495C168.223 47.5808 167.475 47.3305 166.701 47.209Z" fill="#455A64"/>
<path d="M122.372 80.4545C122.372 80.4545 122.422 80.4545 122.538 80.5211L123.046 80.6709C123.319 80.7547 123.597 80.8214 123.878 80.8705C124.262 80.9499 124.651 81.0055 125.043 81.0369C127.548 81.261 130.069 80.8608 132.381 79.8721C135.818 78.3979 138.755 75.9587 140.834 72.8501C143.337 69.0432 145.036 64.7652 145.826 60.2785C146.309 57.9156 146.558 55.5777 146.966 53.3563C147.287 51.2185 147.917 49.1388 148.838 47.1829C149.661 45.4178 150.914 43.8874 152.482 42.7317C153.194 42.2339 153.98 41.852 154.812 41.6001C155.588 41.374 156.391 41.2537 157.2 41.2424C158.602 41.2265 159.992 41.5102 161.276 42.0744C162.246 42.4965 163.14 43.0756 163.922 43.7883C164.551 44.4342 165.109 45.1454 165.586 45.9099C165.586 45.9099 165.586 45.8517 165.511 45.7518L165.262 45.2859C164.908 44.7027 164.486 44.1636 164.005 43.6801C163.225 42.9321 162.325 42.3192 161.343 41.8664C160.038 41.2671 158.619 40.955 157.183 40.9512C156.339 40.9548 155.499 41.0723 154.687 41.3006C153.814 41.5547 152.988 41.948 152.241 42.4654C150.613 43.6424 149.309 45.2104 148.447 47.0248C147.524 48.9992 146.885 51.0945 146.55 53.2481C146.142 55.4862 145.893 57.8158 145.41 60.1621C144.639 64.607 142.98 68.8512 140.535 72.6421C138.503 75.7106 135.632 78.1306 132.265 79.6142C130.001 80.6236 127.525 81.0663 125.051 80.9038C124.15 80.8067 123.255 80.6567 122.372 80.4545Z" fill="#455A64"/>
<path d="M118.403 73.8916C118.636 73.9866 118.879 74.0536 119.127 74.0913C119.791 74.2309 120.464 74.3199 121.141 74.3575C122.15 74.4201 123.163 74.3978 124.169 74.291C125.399 74.1465 126.613 73.8903 127.797 73.5255C128.974 73.1456 130.114 72.6553 131.199 72.0612C132.078 71.5791 132.913 71.0224 133.695 70.3972C134.227 69.9786 134.724 69.5197 135.185 69.0244C135.509 68.6666 135.684 68.467 135.659 68.442C135.634 68.4171 134.877 69.1658 133.521 70.1726C132.73 70.7647 131.896 71.2959 131.025 71.7617C128.88 72.9096 126.542 73.6514 124.127 73.9498C123.13 74.0572 122.126 74.0905 121.124 74.0497C119.46 74.0497 118.42 73.8167 118.403 73.8916Z" fill="#455A64"/>
<path d="M148.58 189.223C148.438 189.223 150.327 198.708 152.174 208.5H152.756C150.909 198.708 148.73 189.181 148.58 189.223Z" fill="#263238"/>
<path d="M156.55 208.975C161.892 208.975 166.809 205.131 167.558 199.889C169.222 188.117 175.953 168.199 204.266 167.708C225.839 167.342 234.916 182.609 237.462 189.406C241.498 200.181 240.998 213.268 234.442 223.984C224.375 240.449 205.846 242.945 195.704 243.012C190.128 243.003 184.773 245.2 180.81 249.123C176.846 253.046 174.595 258.377 174.547 263.953V307.941L232.978 306.835V295.861C232.98 295.76 233.013 295.663 233.073 295.583C233.132 295.502 233.215 295.442 233.311 295.411C244.619 291.477 255.146 285.582 264.411 277.998L260.609 227.345C260.609 227.345 271.724 205.971 271.175 201.162C266.141 157.233 251.207 132.373 245.125 130.051C238.311 127.455 211.987 128.72 211.987 128.72C211.987 128.72 200.613 149.761 184.664 152.116C175.786 153.414 172.55 142.332 172.55 142.332L151.908 154.421C137.231 161.825 134.386 190.613 134.12 208.975H156.55Z" fill="#455A64"/>
<g opacity="0.3">
<path d="M224.292 234.857C236.065 237.853 247.68 241.647 259.461 244.642C260.356 244.779 261.189 245.185 261.849 245.807C262.722 246.813 262.522 248.303 262.131 249.6C260.769 253.639 258.316 257.221 255.043 259.951C252.48 262.197 249.41 264.111 246.007 264.36C242.222 264.66 238.577 262.904 235.383 260.857C227.076 255.534 220.324 248.108 215.814 239.334C215.814 239.334 218.576 238.194 220.689 237.062C221.929 236.392 223.131 235.656 224.292 234.857Z" fill="black"/>
</g>
<path d="M237.221 189.697C241.93 200.563 240.732 213.451 234.018 224.175C230.671 229.625 225.974 234.119 220.381 237.221C225.447 242.904 231.081 248.053 237.196 252.588C243.211 256.856 257.081 255.641 262.339 246.298C268.829 234.758 269.37 205.305 269.37 205.305L270.601 187.542L234.326 181.984L234.034 182.983C235.306 185.116 236.372 187.364 237.221 189.697Z" fill="#FFBF9D"/>
<path d="M174.056 182.209L171.993 185.537C170.42 186.627 168.931 186.028 167.957 184.015L145.626 150.028L151.068 146.566L175.728 179.164C175.728 179.164 176.078 180.853 174.056 182.209Z" fill="#455A64"/>
<path d="M122.472 149.404C119.065 147.475 116.163 144.769 114.001 141.507C111.838 138.244 110.477 134.517 110.028 130.628C109.579 126.74 110.055 122.801 111.417 119.131C112.779 115.461 114.988 112.165 117.865 109.511C120.742 106.857 124.205 104.92 127.973 103.858C131.74 102.796 135.705 102.639 139.545 103.399C143.384 104.16 146.99 105.817 150.068 108.234C153.146 110.652 155.609 113.763 157.257 117.313C159.477 122.088 160.122 127.443 159.1 132.608C158.079 137.773 155.442 142.479 151.572 146.049C147.702 149.618 142.798 151.866 137.568 152.467C132.337 153.069 127.051 151.993 122.472 149.395V149.404ZM146.134 107.604C141.323 104.885 135.699 103.974 130.276 105.035C124.854 106.097 119.988 109.06 116.557 113.392C113.127 117.724 111.356 123.139 111.565 128.661C111.775 134.182 113.949 139.448 117.698 143.508C121.447 147.568 126.522 150.155 132.01 150.803C137.498 151.451 143.036 150.117 147.627 147.042C152.218 143.967 155.56 139.353 157.05 134.032C158.539 128.711 158.079 123.032 155.752 118.021C153.714 113.628 150.35 109.985 146.134 107.604Z" fill="#263238"/>
<path d="M123.528 148.363C120.122 146.434 117.22 143.728 115.057 140.466C112.895 137.203 111.534 133.476 111.085 129.587C110.636 125.699 111.112 121.76 112.474 118.09C113.835 114.42 116.045 111.124 118.922 108.47C121.799 105.816 125.262 103.879 129.029 102.817C132.797 101.755 136.762 101.598 140.601 102.358C144.441 103.119 148.046 104.775 151.125 107.193C154.203 109.611 156.666 112.722 158.314 116.272C160.531 121.047 161.174 126.402 160.151 131.565C159.128 136.729 156.493 141.434 152.624 145.003C148.755 148.572 143.852 150.821 138.623 151.424C133.394 152.028 128.109 150.956 123.528 148.363ZM147.19 106.563C142.381 103.846 136.76 102.936 131.339 103.997C125.918 105.058 121.055 108.021 117.626 112.351C114.197 116.682 112.428 122.094 112.637 127.614C112.846 133.134 115.02 138.397 118.767 142.455C122.514 146.513 127.588 149.1 133.073 149.748C138.559 150.396 144.095 149.063 148.685 145.989C153.274 142.916 156.615 138.304 158.104 132.985C159.594 127.666 159.134 121.99 156.808 116.98C154.769 112.588 151.406 108.945 147.19 106.563Z" fill="#455A64"/>
<path d="M156.442 127.088C156.432 126.953 156.432 126.816 156.442 126.681C156.446 126.292 156.43 125.903 156.393 125.516C156.289 124.086 156.009 122.675 155.561 121.314C155.263 120.375 154.901 119.458 154.479 118.569C153.995 117.551 153.439 116.57 152.815 115.632C152.119 114.597 151.339 113.62 150.485 112.711C149.575 111.722 148.576 110.82 147.498 110.016C146.422 109.215 145.268 108.524 144.054 107.952C142.919 107.431 141.742 107.008 140.535 106.688C138.482 106.16 136.361 105.947 134.245 106.055C132.814 106.125 131.395 106.342 130.01 106.704C129.519 106.821 129.178 106.97 128.895 107.037C128.765 107.082 128.631 107.115 128.496 107.137C128.616 107.078 128.742 107.028 128.87 106.987C129.128 106.896 129.494 106.738 129.985 106.604C131.367 106.199 132.79 105.95 134.228 105.864C136.368 105.727 138.515 105.927 140.593 106.455C141.82 106.769 143.017 107.189 144.17 107.711C145.398 108.291 146.566 108.99 147.657 109.799C148.743 110.617 149.754 111.53 150.677 112.528C151.539 113.452 152.324 114.446 153.023 115.498C153.647 116.451 154.203 117.446 154.687 118.477C155.106 119.38 155.462 120.312 155.752 121.264C156.184 122.64 156.436 124.067 156.501 125.507C156.501 126.015 156.501 126.414 156.501 126.681C156.49 126.818 156.471 126.954 156.442 127.088Z" fill="white"/>
<path d="M130.509 147.323C130.509 147.256 131.657 147.681 133.571 147.947L134.328 148.038C134.586 148.038 134.86 148.038 135.16 148.038C135.725 148.088 136.333 148.038 136.965 148.038C139.738 147.909 142.45 147.177 144.911 145.892C145.447 145.616 145.969 145.313 146.475 144.985C146.716 144.827 146.949 144.685 147.165 144.527L147.764 144.078C149.287 142.888 150.061 141.948 150.102 141.998C149.943 142.228 149.762 142.443 149.562 142.639C149.35 142.894 149.119 143.133 148.871 143.354C148.556 143.648 148.225 143.926 147.881 144.186L147.282 144.66C147.074 144.827 146.833 144.968 146.6 145.135C146.093 145.476 145.568 145.79 145.027 146.075C142.542 147.393 139.793 148.136 136.982 148.246C136.333 148.246 135.717 148.246 135.151 148.246C134.86 148.246 134.586 148.246 134.319 148.18L133.562 148.072C133.127 148.012 132.697 147.926 132.273 147.814C131.947 147.749 131.628 147.66 131.316 147.547C131.041 147.495 130.771 147.42 130.509 147.323Z" fill="white"/>
<path d="M147.607 131.399C147.557 131.449 144.279 128.213 140.368 124.161C136.458 120.109 133.271 116.781 133.329 116.731C133.388 116.681 136.657 119.918 140.559 123.969C144.462 128.021 147.665 131.349 147.607 131.399Z" fill="white"/>
<path d="M143.779 137.912C143.696 137.84 143.618 137.762 143.546 137.679L142.906 136.989L140.593 134.41C138.637 132.23 135.933 129.226 132.905 125.94C129.876 122.653 127.081 119.716 125.092 117.62L122.713 115.124C122.447 114.841 122.23 114.616 122.072 114.433C121.995 114.354 121.923 114.271 121.856 114.184C121.948 114.245 122.032 114.317 122.106 114.4L122.779 115.057C123.37 115.631 124.202 116.472 125.226 117.553C127.272 119.65 130.068 122.545 133.105 125.873C136.141 129.201 138.812 132.18 140.734 134.393C141.691 135.499 142.465 136.398 142.989 137.03L143.588 137.754C143.657 137.8 143.721 137.853 143.779 137.912Z" fill="white"/>
<g opacity="0.3">
<path d="M123.512 107.471L154.038 140.609C154.038 140.609 151.542 144.062 149.304 145.601L118.137 111.656C119.641 109.926 121.467 108.505 123.512 107.471Z" fill="white"/>
</g>
<g opacity="0.3">
<path d="M115.516 115.475L145.535 147.781C145.535 147.781 145.809 147.931 143.746 148.455L114.667 117.114C114.822 116.51 115.112 115.949 115.516 115.475Z" fill="white"/>
</g>
<path d="M194.531 168.773C188.117 163.623 172.409 151.026 171.685 150.693C170.786 150.269 156.958 145.36 154.304 146.933C151.65 148.505 144.553 157.432 144.553 157.432C144.553 157.432 145.227 162.974 151.426 159.005L156.967 155.461L163.556 157C163.556 157 155.519 160.328 153.822 162.117C152.124 163.905 149.412 170.636 151.076 172.225C152.082 173.145 153.35 173.727 154.704 173.889C154.704 173.889 151.376 178.599 157.266 181.444C157.266 181.444 158.098 185.396 161.027 186.952C163.955 188.508 169.347 187.95 169.347 187.95C169.683 187.765 169.973 187.506 170.195 187.192C170.417 186.879 170.564 186.519 170.627 186.14C170.689 185.761 170.665 185.373 170.556 185.005C170.446 184.637 170.255 184.298 169.996 184.015C168.132 181.519 164.696 181.211 164.696 181.211L168.956 178.715C170.95 179.477 172.805 180.562 174.447 181.927C176.729 179.041 179.337 176.427 182.218 174.139C186.586 170.986 194.531 168.773 194.531 168.773Z" fill="#FFBF9D"/>
<path d="M167.275 170.859C167.065 170.828 166.852 170.828 166.643 170.859C166.078 170.94 165.522 171.068 164.979 171.242C163.15 171.832 161.506 172.886 160.205 174.3C158.905 175.714 157.993 177.441 157.557 179.312C157.428 179.873 157.347 180.444 157.316 181.018C157.285 181.228 157.285 181.441 157.316 181.65C157.382 181.65 157.391 180.752 157.765 179.371C158.244 177.559 159.157 175.892 160.426 174.513C161.694 173.135 163.28 172.086 165.045 171.458C166.385 171.009 167.283 170.918 167.275 170.859Z" fill="#FF9A6C"/>
<path d="M167.558 163.698C167.332 163.681 167.105 163.698 166.884 163.748C166.621 163.771 166.359 163.813 166.102 163.872C165.757 163.936 165.415 164.016 165.078 164.114C164.194 164.357 163.334 164.68 162.508 165.079C161.501 165.58 160.543 166.174 159.645 166.851C158.761 167.543 157.945 168.317 157.208 169.164C156.61 169.859 156.078 170.609 155.619 171.402C155.411 171.726 155.261 172.051 155.119 172.325C154.997 172.56 154.889 172.802 154.795 173.049C154.7 173.254 154.627 173.469 154.579 173.69C154.637 173.69 154.986 172.858 155.81 171.518C156.287 170.754 156.827 170.03 157.424 169.355C158.16 168.534 158.967 167.779 159.837 167.101C160.753 166.364 161.727 165.702 162.749 165.12C163.517 164.769 164.316 164.49 165.137 164.288C166.609 163.906 167.566 163.756 167.558 163.698Z" fill="#FF9A6C"/>
<path d="M168.764 155.469C168.489 155.32 168.178 155.248 167.866 155.261C167.119 155.227 166.374 155.36 165.686 155.652C164.977 155.912 164.354 156.364 163.889 156.958C163.523 157.391 163.381 157.724 163.414 157.741C164.088 156.991 164.902 156.38 165.811 155.943C166.754 155.592 167.758 155.43 168.764 155.469Z" fill="#FF9A6C"/>
<path d="M242.596 129.393C242.596 129.393 262.888 131.339 269.328 148.97C274.437 162.964 277.215 204.88 275.934 205.737L240.1 204.589C239.634 194.372 236.88 186.484 233.02 181.384L242.596 129.393Z" fill="#455A64"/>
<path d="M240.632 204.59C240.885 204.687 241.123 204.819 241.339 204.981C241.772 205.255 242.396 205.68 243.137 206.229C245.069 207.668 246.891 209.251 248.586 210.963C250.285 212.67 251.872 214.485 253.337 216.396C253.894 217.128 254.327 217.735 254.618 218.168C254.785 218.378 254.923 218.611 255.026 218.859C254.341 218.138 253.696 217.38 253.096 216.587C251.914 215.173 250.258 213.259 248.278 211.262C246.591 209.568 244.81 207.968 242.945 206.47C241.514 205.322 240.599 204.673 240.632 204.59Z" fill="#FF9A6C"/>
<path d="M236.364 161.467C236.481 161.467 235.824 165.968 234.9 171.451C233.977 176.934 233.12 181.377 233.003 181.377C232.887 181.377 233.544 176.884 234.467 171.393C235.391 165.901 236.248 161.45 236.364 161.467Z" fill="#263238"/>
<path d="M191.278 287.19C191.471 287.137 191.669 287.106 191.869 287.099L193.583 286.924L199.89 286.325C205.206 285.818 212.544 285.052 220.64 284.029C228.735 283.006 236.032 281.916 241.306 281.092L247.563 280.094L249.227 279.836C249.425 279.798 249.625 279.778 249.826 279.777C249.638 279.847 249.442 279.897 249.244 279.927L247.58 280.26C246.115 280.551 243.986 280.934 241.348 281.391C236.082 282.298 228.777 283.43 220.681 284.462C212.586 285.493 205.231 286.2 199.881 286.633C197.219 286.849 195.056 287.007 193.566 287.091L191.844 287.182C191.656 287.196 191.467 287.199 191.278 287.19Z" fill="#263238"/>
<path d="M188.108 281.832C188.598 281.749 189.093 281.704 189.589 281.699L193.616 281.483L206.928 280.801L220.24 280.035L224.267 279.802C224.76 279.764 225.255 279.764 225.748 279.802C225.266 279.91 224.777 279.977 224.284 280.002C223.335 280.093 221.962 280.218 220.265 280.36C216.862 280.643 212.162 280.975 206.953 281.258C201.745 281.541 197.052 281.724 193.641 281.816C191.977 281.857 190.563 281.882 189.606 281.891C189.106 281.907 188.606 281.888 188.108 281.832Z" fill="#263238"/>
<path d="M131.05 205.97C131.174 205.459 131.394 204.976 131.699 204.547C132.091 203.962 132.625 203.486 133.25 203.161C133.875 202.836 134.571 202.674 135.276 202.689C135.98 202.704 136.669 202.896 137.28 203.246C137.89 203.597 138.403 204.096 138.771 204.697C138.772 204.126 138.962 203.572 139.311 203.121C139.66 202.669 140.149 202.346 140.701 202.201C141.203 202.082 141.727 202.096 142.222 202.242C142.716 202.388 143.164 202.661 143.521 203.033C144.26 203.64 144.773 204.478 144.977 205.412C145.851 203.449 150.335 203.69 150.885 205.163C150.885 205.163 154.745 200.936 156.709 203.016C157.541 203.848 157.183 205.204 156.634 206.527C155.91 208.299 155.436 209.023 154.487 210.995L150.826 211.186C150.518 212.335 149.87 217.01 149.736 218.167C149.656 219.353 149.315 220.506 148.738 221.545C148.444 222.06 148.024 222.493 147.518 222.803C147.012 223.113 146.436 223.29 145.843 223.317C145.249 223.317 144.679 223.086 144.254 222.673C143.828 222.26 143.58 221.697 143.563 221.104C143.353 222.097 142.872 223.013 142.174 223.75C141.819 224.108 141.381 224.373 140.898 224.518C140.416 224.663 139.905 224.685 139.411 224.582C138.921 224.456 138.492 224.157 138.206 223.739C137.92 223.321 137.795 222.813 137.855 222.31C136.558 223.217 134.627 222.41 133.804 221.062C132.98 219.714 132.972 218.025 132.972 216.445C133.146 214.997 133.015 213.529 132.589 212.135C132.478 211.938 132.383 211.732 132.306 211.519C132.264 211.174 132.248 210.827 132.256 210.479C132.211 209.741 132.062 209.013 131.815 208.316C131.757 208.158 131.699 208.008 131.632 207.858C131.457 207.467 131.191 207.135 130.991 206.76C130.945 206.681 130.914 206.593 130.9 206.502C130.919 206.318 130.969 206.137 131.05 205.97Z" fill="#FFBF9D"/>
<path d="M126.948 203.94C126.462 203.887 125.97 203.94 125.506 204.095C125.042 204.25 124.617 204.504 124.26 204.839C123.487 205.671 123.304 207.767 123.428 208.924C124.785 209.182 125.508 208.882 126.856 209.132C127.147 209.19 127.38 209.132 127.622 209.281C128.246 209.731 128.146 211.22 128.395 211.944C128.659 212.555 129.147 213.041 129.758 213.303C130.37 213.564 131.058 213.581 131.682 213.35C132.296 213.089 132.822 212.657 133.197 212.105C133.572 211.553 133.779 210.905 133.795 210.238C133.81 208.895 133.32 207.594 132.422 206.594C131.743 205.797 130.906 205.149 129.964 204.692C129.021 204.235 127.994 203.979 126.948 203.94Z" fill="#FFBF9D"/>
<path d="M150.002 216.246C149.861 216.246 150.418 213.75 150.776 210.655C150.931 209.344 150.979 208.022 150.918 206.703C150.849 206.151 150.815 205.595 150.818 205.039C151.064 205.561 151.203 206.127 151.226 206.703C151.383 208.043 151.383 209.398 151.226 210.738C151.079 212.069 150.845 213.389 150.527 214.69C150.428 215.232 150.252 215.756 150.002 216.246Z" fill="#FF9A6C"/>
<path d="M143.405 221.57C143.464 220.774 143.587 219.984 143.771 219.207C144.029 217.759 144.403 215.763 144.686 213.541C144.938 211.644 145.055 209.731 145.036 207.817C145.036 206.353 144.911 205.446 144.977 205.438C145.21 206.207 145.334 207.005 145.343 207.809C145.454 209.753 145.376 211.703 145.11 213.633C144.865 215.544 144.517 217.441 144.07 219.315C143.923 220.087 143.7 220.842 143.405 221.57Z" fill="#FF9A6C"/>
<path d="M137.822 222.527C137.926 221.642 138.078 220.765 138.28 219.897C138.659 217.79 138.912 215.662 139.037 213.524C139.148 211.387 139.128 209.245 138.979 207.11C138.872 206.226 138.816 205.337 138.812 204.447C138.907 204.67 138.969 204.906 138.995 205.146C139.087 205.595 139.187 206.261 139.287 207.085C139.524 209.231 139.585 211.393 139.47 213.549C139.352 215.706 139.054 217.849 138.579 219.956C138.396 220.788 138.222 221.412 138.08 221.853C138.035 222.091 137.948 222.319 137.822 222.527Z" fill="#FF9A6C"/>
<path d="M130.467 206.229C130.893 206.316 131.287 206.517 131.607 206.811C132.44 207.458 133.079 208.321 133.454 209.307C133.861 210.281 133.948 211.359 133.704 212.385C133.462 213.217 132.955 213.467 132.938 213.417C133.145 213.072 133.302 212.7 133.404 212.31C133.547 211.348 133.426 210.365 133.055 209.465C132.688 208.551 132.119 207.732 131.391 207.069C130.858 206.528 130.434 206.337 130.467 206.229Z" fill="#FF9A6C"/>
</g>
</g>
<defs>
<clipPath id="clip0_8272_64923">
<rect width="856" height="432" rx="32" fill="white"/>
</clipPath>
<clipPath id="clip1_8272_64923">
<rect width="360" height="360" fill="white" transform="translate(21.5 36)"/>
</clipPath>
</defs>
</svg>
