<svg width="40" height="40" viewBox="0 0 40 40" fill="none" xmlns="http://www.w3.org/2000/svg">
<circle cx="20" cy="20" r="20" fill="white"/>
<circle cx="20" cy="20" r="19.75" stroke="black" stroke-opacity="0.05" stroke-width="0.5"/>
<path fill-rule="evenodd" clip-rule="evenodd" d="M20 2C15.2261 2 10.6477 3.89642 7.27208 7.27208C3.89642 10.6477 2 15.2261 2 20C2 24.7739 3.89642 29.3523 7.27208 32.7279C10.6477 36.1036 15.2261 38 20 38C24.7739 38 29.3523 36.1036 32.7279 32.7279C36.1036 29.3523 38 24.7739 38 20C38 15.2261 36.1036 10.6477 32.7279 7.27208C29.3523 3.89642 24.7739 2 20 2ZM17.4286 26.4286C17.4286 25.7466 17.6995 25.0925 18.1817 24.6103C18.664 24.1281 19.318 23.8571 20 23.8571C20.682 23.8571 21.336 24.1281 21.8183 24.6103C22.3005 25.0925 22.5714 25.7466 22.5714 26.4286C22.5714 27.1106 22.3005 27.7646 21.8183 28.2468C21.336 28.7291 20.682 29 20 29C19.318 29 18.664 28.7291 18.1817 28.2468C17.6995 27.7646 17.4286 27.1106 17.4286 26.4286ZM20 20.6429C19.4885 20.6429 18.998 20.4397 18.6363 20.078C18.2746 19.7163 18.0714 19.2258 18.0714 18.7143V12.2857C18.0714 11.7742 18.2746 11.2837 18.6363 10.922C18.998 10.5603 19.4885 10.3571 20 10.3571C20.5115 10.3571 21.002 10.5603 21.3637 10.922C21.7254 11.2837 21.9286 11.7742 21.9286 12.2857V18.7143C21.9286 19.2258 21.7254 19.7163 21.3637 20.078C21.002 20.4397 20.5115 20.6429 20 20.6429Z" fill="#FF0000"/>
</svg>
