<svg width="42" height="42" viewBox="0 0 42 42" fill="none" xmlns="http://www.w3.org/2000/svg">
<circle cx="21" cy="21" r="21" fill="url(#paint0_linear_2804_90)" fill-opacity="0.5"/>
<path d="M24.6589 11.7507L31.0875 17.965C31.1497 18.025 31.1992 18.0969 31.233 18.1764C31.2668 18.2559 31.2842 18.3415 31.2842 18.4279C31.2842 18.5143 31.2668 18.5998 31.233 18.6794C31.1992 18.7589 31.1497 18.8308 31.0875 18.8907L24.6589 25.105C24.6001 25.1629 24.5305 25.2086 24.454 25.2395C24.3775 25.2704 24.2957 25.2859 24.2132 25.285C24.0427 25.285 23.8792 25.2173 23.7586 25.0967C23.638 24.9762 23.5703 24.8127 23.5703 24.6422V21.4365C17.8275 21.6679 15.4103 24.8822 15.3075 25.0193C15.2256 25.127 15.1127 25.207 14.9839 25.2484C14.8551 25.2898 14.7167 25.2906 14.5875 25.2507C14.4585 25.2092 14.346 25.128 14.266 25.0187C14.1859 24.9094 14.1424 24.7776 14.1417 24.6422C14.1417 17.7679 19.7903 15.6593 23.5703 15.445V12.2136C23.5706 12.0872 23.6081 11.9636 23.6783 11.8584C23.7484 11.7532 23.848 11.6711 23.9646 11.6222C24.08 11.5724 24.2077 11.558 24.3313 11.5809C24.4549 11.6038 24.5689 11.6629 24.6589 11.7507ZM15.6417 12.4279C14.5619 12.4279 13.5263 12.8568 12.7628 13.6204C11.9993 14.3839 11.5703 15.4195 11.5703 16.4993V26.3565C11.5703 27.4363 11.9993 28.4719 12.7628 29.2354C13.5263 29.9989 14.5619 30.4279 15.6417 30.4279H25.4989C26.5787 30.4279 27.6143 29.9989 28.3778 29.2354C29.1414 28.4719 29.5703 27.4363 29.5703 26.3565V25.9279C29.5703 25.7574 29.5026 25.5939 29.382 25.4733C29.2615 25.3528 29.0979 25.285 28.9275 25.285C28.757 25.285 28.5934 25.3528 28.4729 25.4733C28.3523 25.5939 28.2846 25.7574 28.2846 25.9279V26.3565C28.2846 27.0953 27.9911 27.8038 27.4687 28.3263C26.9463 28.8487 26.2377 29.1422 25.4989 29.1422H15.6417C14.9029 29.1422 14.1944 28.8487 13.6719 28.3263C13.1495 27.8038 12.856 27.0953 12.856 26.3565V16.4993C12.856 15.7605 13.1495 15.0519 13.6719 14.5295C14.1944 14.0071 14.9029 13.7136 15.6417 13.7136H19.4989C19.6694 13.7136 19.8329 13.6459 19.9535 13.5253C20.074 13.4048 20.1417 13.2412 20.1417 13.0707C20.1417 12.9002 20.074 12.7367 19.9535 12.6162C19.8329 12.4956 19.6694 12.4279 19.4989 12.4279H15.6417Z" fill="white"/>
<defs>
<linearGradient id="paint0_linear_2804_90" x1="21" y1="0" x2="21" y2="42" gradientUnits="userSpaceOnUse">
<stop stop-color="#696969"/>
<stop offset="1" stop-color="#232B34"/>
</linearGradient>
</defs>
</svg>
