<svg width="72" height="72" viewBox="0 0 72 72" fill="none" xmlns="http://www.w3.org/2000/svg">
<path fill-rule="evenodd" clip-rule="evenodd" d="M15.8897 9.07031L0.15625 24.3633L9.22227 33.5961L24.6161 19.2335C19.6833 18.9757 16.2625 13.715 15.8897 9.07031Z" fill="#0076BE"/>
<path fill-rule="evenodd" clip-rule="evenodd" d="M21.2773 45.7152L36.3043 60.4165C36.7748 54.8838 40.2228 53.7885 44.4175 51.5157L30.1532 37.0312L21.2773 45.7152Z" fill="#009035"/>
<path fill-rule="evenodd" clip-rule="evenodd" d="M9.63281 35.7501C14.6995 36.3767 17.6516 39.6876 18.9862 43.9358L33.3355 29.4342L24.426 21.2773L9.63281 35.7501Z" fill="#009035"/>
<path fill-rule="evenodd" clip-rule="evenodd" d="M27.8867 20.3558L41.9277 35.0572L50.8088 25.9115L35.7766 11.6719C35.3303 16.9162 32.5772 19.2864 27.8867 20.3558Z" fill="#009035"/>
<path fill-rule="evenodd" clip-rule="evenodd" d="M9.73828 57.0997L25.2187 70.7674L34.2858 61.6809L18.9389 47.8516C18.4927 53.0958 14.4289 56.0303 9.73828 57.0997Z" fill="#0076BE"/>
<path fill-rule="evenodd" clip-rule="evenodd" d="M62.1686 14.9412L46.6883 1.27344L37.6211 10.36L52.968 24.1894C53.4142 18.9451 57.4781 16.0106 62.1686 14.9412Z" fill="#0076BE"/>
<path fill-rule="evenodd" clip-rule="evenodd" d="M56.7928 62.3983L70.7633 47.2534L61.4756 38.3828L47.3398 53.3971C52.7003 53.8337 55.6998 57.8095 56.7928 62.3983Z" fill="#0076BE"/>
<path fill-rule="evenodd" clip-rule="evenodd" d="M38.3555 41.859L47.2485 50.5575L61.8031 35.8514C56.4428 35.4149 54.0199 32.7214 52.7051 27.9141L38.3555 41.859Z" fill="#009035"/>
<path fill-rule="evenodd" clip-rule="evenodd" d="M8.69864 36.9961C9.84098 36.9961 10.9721 37.2281 12.0275 37.6788C13.0829 38.1296 14.0418 38.7902 14.8496 39.6231C15.6574 40.456 16.2981 41.4448 16.7353 42.533C17.1724 43.6212 17.3974 44.7875 17.3974 45.9654C17.3974 47.7394 16.8872 49.4735 15.9314 50.9485C14.9756 52.4235 13.6171 53.5731 12.0276 54.252C10.4381 54.9308 8.68908 55.1085 7.0017 54.7624C5.31432 54.4163 3.76436 53.5621 2.54782 52.3077C1.33128 51.0533 0.502804 49.4551 0.167155 47.7153C-0.168493 45.9754 0.00375896 44.172 0.662134 42.533C1.32051 40.8941 2.43544 39.4933 3.86593 38.5077C5.29641 37.5222 6.9782 36.9961 8.69864 36.9961Z" fill="#009035"/>
<path fill-rule="evenodd" clip-rule="evenodd" d="M45.7886 54.0625C48.0956 54.0625 50.3082 55.0075 51.9395 56.6896C53.5708 58.3716 54.4873 60.653 54.4873 63.0318C54.4873 64.8058 53.9771 66.5399 53.0213 68.0149C52.0654 69.4899 50.7069 70.6395 49.1174 71.3184C47.5279 71.9972 45.7789 72.1749 44.0915 71.8288C42.4041 71.4827 40.8542 70.6285 39.6377 69.3741C38.4211 68.1197 37.5926 66.5215 37.257 64.7816C36.9213 63.0418 37.0936 61.2383 37.752 59.5994C38.4104 57.9605 39.5253 56.5597 40.9558 55.5741C42.3863 54.5885 44.0681 54.0625 45.7886 54.0625Z" fill="#009035"/>
<path fill-rule="evenodd" clip-rule="evenodd" d="M63.3002 16.8672C64.4425 16.8672 65.5737 17.0992 66.6291 17.5499C67.6845 18.0007 68.6434 18.6613 69.4512 19.4942C70.2589 20.3271 70.8997 21.3159 71.3368 22.4041C71.774 23.4923 71.999 24.6586 71.999 25.8365C71.999 27.6105 71.4888 29.3446 70.533 30.8196C69.5772 32.2946 68.2186 33.4442 66.6291 34.1231C65.0397 34.8019 63.2906 34.9795 61.6033 34.6335C59.9159 34.2874 58.3659 33.4332 57.1494 32.1788C55.9328 30.9244 55.1044 29.3262 54.7687 27.5864C54.4331 25.8465 54.6053 24.0431 55.2637 22.4042C55.9221 20.7652 57.037 19.3644 58.4675 18.3788C59.898 17.3933 61.5798 16.8672 63.3002 16.8672Z" fill="#009035"/>
<path fill-rule="evenodd" clip-rule="evenodd" d="M26.4878 0C27.6301 0 28.7612 0.232004 29.8166 0.682754C30.872 1.1335 31.8309 1.79418 32.6387 2.62706C33.4464 3.45994 34.0872 4.4487 34.5243 5.53691C34.9615 6.62512 35.1865 7.79145 35.1865 8.96932C35.1865 10.7433 34.6763 12.4774 33.7205 13.9524C32.7647 15.4274 31.4061 16.577 29.8166 17.2559C28.2271 17.9347 26.4781 18.1124 24.7907 17.7663C23.1034 17.4202 21.5534 16.566 20.3369 15.3116C19.1203 14.0572 18.2919 12.459 17.9562 10.7191C17.6206 8.97927 17.7928 7.17584 18.4512 5.53691C19.1096 3.89798 20.2245 2.49717 21.655 1.51161C23.0855 0.526046 24.7673 0 26.4878 0Z" fill="#009035"/>
<path fill-rule="evenodd" clip-rule="evenodd" d="M26.4933 4.02344C27.6643 4.02344 28.7874 4.50308 29.6154 5.35685C30.4434 6.21062 30.9086 7.36858 30.9086 8.57599C30.9086 9.4764 30.6496 10.3566 30.1645 11.1053C29.6793 11.8539 28.9898 12.4374 28.183 12.782C27.3762 13.1266 26.4884 13.2167 25.632 13.0411C24.7755 12.8654 23.9888 12.4318 23.3713 11.7951C22.7538 11.1584 22.3333 10.3473 22.163 9.46415C21.9926 8.58104 22.08 7.66568 22.4142 6.83381C22.7484 6.00194 23.3143 5.29092 24.0404 4.79068C24.7665 4.29044 25.6201 4.02344 26.4933 4.02344Z" fill="white"/>
<path fill-rule="evenodd" clip-rule="evenodd" d="M8.68866 41.5234C9.85965 41.5234 10.9827 42.0031 11.8107 42.8568C12.6387 43.7106 13.1039 44.8686 13.1039 46.076C13.1039 46.9764 12.8449 47.8566 12.3598 48.6053C11.8746 49.3539 11.1851 49.9374 10.3783 50.282C9.57152 50.6266 8.68377 50.7167 7.8273 50.5411C6.97083 50.3654 6.18411 49.9318 5.56663 49.2951C4.94915 48.6584 4.52864 47.8473 4.35828 46.9642C4.18791 46.081 4.27535 45.1657 4.60953 44.3338C4.94371 43.5019 5.50962 42.7909 6.2357 42.2907C6.96178 41.7904 7.81541 41.5234 8.68866 41.5234Z" fill="white"/>
<path fill-rule="evenodd" clip-rule="evenodd" d="M63.2941 21.3125C63.874 21.3125 64.4481 21.4303 64.9838 21.6591C65.5195 21.8878 66.0062 22.2232 66.4162 22.6459C66.8262 23.0687 67.1514 23.5706 67.3733 24.1229C67.5952 24.6753 67.7094 25.2673 67.7094 25.8651C67.7093 26.7655 67.4504 27.6457 66.9652 28.3944C66.4801 29.143 65.7905 29.7265 64.9837 30.0711C64.1769 30.4157 63.2892 30.5058 62.4327 30.3301C61.5763 30.1545 60.7895 29.7209 60.1721 29.0842C59.5546 28.4475 59.1341 27.6363 58.9637 26.7532C58.7934 25.8701 58.8808 24.9547 59.215 24.1229C59.5492 23.291 60.1151 22.58 60.8412 22.0797C61.5672 21.5795 62.4209 21.3125 63.2941 21.3125Z" fill="white"/>
<path fill-rule="evenodd" clip-rule="evenodd" d="M45.7941 58.707C46.9651 58.707 48.0882 59.1867 48.9162 60.0404C49.7442 60.8942 50.2093 62.0522 50.2093 63.2596C50.2093 64.16 49.9504 65.0402 49.4653 65.7888C48.9801 66.5375 48.2905 67.121 47.4838 67.4656C46.677 67.8102 45.7892 67.9003 44.9328 67.7247C44.0763 67.549 43.2896 67.1154 42.6721 66.4787C42.0546 65.842 41.6341 65.0309 41.4637 64.1477C41.2934 63.2646 41.3808 62.3493 41.715 61.5174C42.0492 60.6855 42.6151 59.9745 43.3412 59.4743C44.0672 58.974 44.9209 58.707 45.7941 58.707Z" fill="white"/>
</svg>
