<svg width="201" height="205" viewBox="0 0 201 205" fill="none" xmlns="http://www.w3.org/2000/svg">
<path fill-rule="evenodd" clip-rule="evenodd" d="M44.0985 25.7812L0.390625 69.2073L25.5762 95.4249L68.3407 54.6407C54.6372 53.9086 45.1342 38.9704 44.0985 25.7812Z" fill="#0076BE"/>
<path fill-rule="evenodd" clip-rule="evenodd" d="M59.1797 129.737L100.925 171.483C102.232 155.772 111.811 152.662 123.464 146.208L83.8371 105.078L59.1797 129.737Z" fill="#009035"/>
<path fill-rule="evenodd" clip-rule="evenodd" d="M26.7578 101.644C40.8331 103.423 49.0342 112.825 52.7419 124.888L92.6044 83.7093L67.8537 60.5469L26.7578 101.644Z" fill="#009035"/>
<path fill-rule="evenodd" clip-rule="evenodd" d="M77.5391 57.8621L116.545 99.6082L141.217 73.6382L99.4572 33.2031C98.2176 48.0949 90.5694 54.8255 77.5391 57.8621Z" fill="#009035"/>
<path fill-rule="evenodd" clip-rule="evenodd" d="M27.1484 162.199L70.1533 201.01L95.3419 175.207L52.7079 135.938C51.4683 150.829 40.1789 159.162 27.1484 162.199Z" fill="#0076BE"/>
<path fill-rule="evenodd" clip-rule="evenodd" d="M172.686 42.3268L129.681 3.51562L104.492 29.3178L147.126 68.5879C148.366 53.6962 159.655 45.3633 172.686 42.3268Z" fill="#0076BE"/>
<path fill-rule="evenodd" clip-rule="evenodd" d="M157.706 177.179L196.516 134.173L170.715 108.984L131.445 151.619C146.337 152.859 154.67 164.148 157.706 177.179Z" fill="#0076BE"/>
<path fill-rule="evenodd" clip-rule="evenodd" d="M106.641 118.895L131.346 143.595L171.779 101.836C156.888 100.596 150.157 92.9479 146.504 79.2969L106.641 118.895Z" fill="#009035"/>
<path fill-rule="evenodd" clip-rule="evenodd" d="M24.165 105.078C27.3385 105.078 30.4808 105.737 33.4127 107.017C36.3446 108.297 39.0086 110.173 41.2525 112.538C43.4965 114.903 45.2765 117.711 46.4909 120.801C47.7053 123.891 48.3304 127.203 48.3304 130.547C48.3304 135.585 46.9131 140.509 44.2578 144.697C41.6025 148.886 37.8285 152.15 33.4129 154.078C28.9973 156.006 24.1385 156.51 19.4509 155.527C14.7633 154.545 10.4575 152.119 7.07789 148.557C3.69832 144.995 1.3968 140.457 0.464361 135.516C-0.468078 130.576 0.0104425 125.455 1.83942 120.801C3.6684 116.147 6.76571 112.169 10.7396 109.371C14.7136 106.572 19.3856 105.078 24.165 105.078Z" fill="#009035"/>
<path fill-rule="evenodd" clip-rule="evenodd" d="M127.29 153.516C133.699 153.516 139.846 156.199 144.378 160.975C148.909 165.752 151.455 172.23 151.455 178.985C151.455 184.022 150.038 188.947 147.383 193.135C144.728 197.323 140.953 200.588 136.538 202.516C132.122 204.443 127.263 204.948 122.576 203.965C117.888 202.982 113.582 200.556 110.203 196.995C106.823 193.433 104.522 188.894 103.589 183.954C102.657 179.013 103.135 173.892 104.964 169.238C106.793 164.584 109.891 160.607 113.865 157.808C117.839 155.009 122.511 153.516 127.29 153.516Z" fill="#009035"/>
<path fill-rule="evenodd" clip-rule="evenodd" d="M175.923 48.0469C179.096 48.0469 182.239 48.7056 185.171 49.9856C188.102 51.2655 190.766 53.1416 193.01 55.5066C195.254 57.8717 197.034 60.6794 198.249 63.7695C199.463 66.8596 200.088 70.1715 200.088 73.5162C200.088 78.5536 198.671 83.4778 196.016 87.6662C193.36 91.8546 189.586 95.1191 185.171 97.0468C180.755 98.9746 175.896 99.4789 171.209 98.4962C166.521 97.5135 162.215 95.0878 158.836 91.5258C155.456 87.9639 153.155 83.4257 152.222 78.4852C151.29 73.5446 151.768 68.4236 153.597 63.7697C155.426 59.1158 158.524 55.138 162.497 52.3394C166.471 49.5407 171.143 48.0469 175.923 48.0469Z" fill="#009035"/>
<path fill-rule="evenodd" clip-rule="evenodd" d="M73.5793 0C76.7527 0 79.895 0.6588 82.8269 1.93875C85.7588 3.21871 88.4227 5.09477 90.6666 7.45982C92.9106 9.82487 94.6906 12.6326 95.905 15.7227C97.1194 18.8127 97.7445 22.1247 97.7445 25.4694C97.7445 30.5067 96.3272 35.4309 93.6719 39.6193C91.0166 43.8078 87.2425 47.0722 82.8269 49C78.4113 50.9277 73.5525 51.432 68.8649 50.4493C64.1773 49.4666 59.8715 47.0408 56.4919 43.4789C53.1123 39.9169 50.8108 35.3787 49.8784 30.4382C48.946 25.4976 49.4245 20.3766 51.2535 15.7227C53.0825 11.0687 56.1799 7.09098 60.1538 4.29237C64.1278 1.49376 68.7998 0 73.5793 0Z" fill="#009035"/>
<path fill-rule="evenodd" clip-rule="evenodd" d="M73.5937 11.3281C76.8467 11.3281 79.9665 12.6901 82.2668 15.1145C84.567 17.5389 85.8593 20.827 85.8593 24.2556C85.8593 26.8124 85.14 29.3118 83.7922 31.4377C82.4444 33.5636 80.5288 35.2206 78.2876 36.199C76.0463 37.1775 73.5801 37.4335 71.2008 36.9347C68.8215 36.4359 66.636 35.2046 64.9206 33.3967C63.2053 31.5888 62.0371 29.2853 61.5638 26.7776C61.0905 24.2699 61.3334 21.6707 62.2618 19.3085C63.1901 16.9463 64.7623 14.9273 66.7793 13.5068C68.7964 12.0863 71.1678 11.3281 73.5937 11.3281Z" fill="white"/>
<path fill-rule="evenodd" clip-rule="evenodd" d="M24.1796 117.969C27.4327 117.969 30.5525 119.331 32.8527 121.755C35.153 124.179 36.4452 127.468 36.4452 130.896C36.4452 133.453 35.7259 135.952 34.3781 138.078C33.0304 140.204 31.1147 141.861 28.8735 142.84C26.6322 143.818 24.1661 144.074 21.7868 143.575C19.4075 143.077 17.222 141.845 15.5066 140.037C13.7912 138.229 12.623 135.926 12.1497 133.418C11.6765 130.911 11.9194 128.311 12.8477 125.949C13.7761 123.587 15.3482 121.568 17.3653 120.147C19.3823 118.727 21.7537 117.969 24.1796 117.969Z" fill="white"/>
<path fill-rule="evenodd" clip-rule="evenodd" d="M175.742 60.5469C177.353 60.5469 178.948 60.8813 180.436 61.5309C181.924 62.1806 183.276 63.1329 184.415 64.3333C185.554 65.5337 186.458 66.9589 187.074 68.5274C187.691 70.0958 188.008 71.7769 188.008 73.4746C188.008 76.0314 187.288 78.5307 185.941 80.6566C184.593 82.7825 182.677 84.4394 180.436 85.4179C178.195 86.3963 175.728 86.6523 173.349 86.1534C170.97 85.6546 168.784 84.4233 167.069 82.6154C165.354 80.8074 164.185 78.504 163.712 75.9963C163.239 73.4886 163.482 70.8894 164.41 68.5272C165.339 66.165 166.911 64.146 168.928 62.7255C170.945 61.3051 173.316 60.5469 175.742 60.5469Z" fill="white"/>
<path fill-rule="evenodd" clip-rule="evenodd" d="M127.109 166.797C130.362 166.797 133.482 168.159 135.782 170.583C138.083 173.008 139.375 176.296 139.375 179.724C139.375 182.281 138.656 184.781 137.308 186.906C135.96 189.032 134.044 190.689 131.803 191.668C129.562 192.646 127.096 192.902 124.716 192.403C122.337 191.905 120.152 190.673 118.436 188.865C116.721 187.058 115.553 184.754 115.079 182.246C114.606 179.739 114.849 177.139 115.777 174.777C116.706 172.415 118.278 170.396 120.295 168.976C122.312 167.555 124.683 166.797 127.109 166.797Z" fill="white"/>
</svg>
