<svg width="34" height="34" viewBox="0 0 34 34" fill="none" xmlns="http://www.w3.org/2000/svg">
<path d="M33.668 16.9988C33.6671 13.3448 32.4655 9.79233 30.248 6.88812C28.0305 3.98391 24.92 1.88893 21.3953 0.925589C17.8706 -0.0377513 14.1269 0.183943 10.7405 1.55655C7.35414 2.92916 4.51267 5.37662 2.65344 8.52224C0.794201 11.6679 0.0202408 15.3373 0.450672 18.9659C0.881104 22.5945 2.49207 25.981 5.03564 28.6044C7.57921 31.2277 10.9144 32.9425 14.528 33.4847C18.1415 34.027 21.8331 33.3667 25.0346 31.6055L31.5146 33.5788C31.8037 33.6668 32.1112 33.6747 32.4043 33.6014C32.6975 33.5282 32.9652 33.3766 33.1788 33.163C33.3925 32.9493 33.544 32.6816 33.6173 32.3885C33.6905 32.0954 33.6827 31.7878 33.5946 31.4988L31.6213 25.0088C32.9654 22.5531 33.6693 19.7983 33.668 16.9988ZM23.668 15.3321C23.668 15.7742 23.4924 16.1981 23.1798 16.5106C22.8673 16.8232 22.4433 16.9988 22.0013 16.9988H12.0013C11.5593 16.9988 11.1354 16.8232 10.8228 16.5106C10.5102 16.1981 10.3346 15.7742 10.3346 15.3321C10.3346 14.8901 10.5102 14.4662 10.8228 14.1536C11.1354 13.8411 11.5593 13.6655 12.0013 13.6655H22.0013C22.4433 13.6655 22.8673 13.8411 23.1798 14.1536C23.4924 14.4662 23.668 14.8901 23.668 15.3321ZM22.0013 20.3321C22.4433 20.3321 22.8673 20.5077 23.1798 20.8203C23.4924 21.1328 23.668 21.5568 23.668 21.9988C23.668 22.4408 23.4924 22.8647 23.1798 23.1773C22.8673 23.4899 22.4433 23.6655 22.0013 23.6655H15.3346C14.8926 23.6655 14.4687 23.4899 14.1561 23.1773C13.8436 22.8647 13.668 22.4408 13.668 21.9988C13.668 21.5568 13.8436 21.1328 14.1561 20.8203C14.4687 20.5077 14.8926 20.3321 15.3346 20.3321H22.0013Z" fill="#0076BE"/>
</svg>
