<svg width="22" height="22" viewBox="0 0 22 22" fill="none" xmlns="http://www.w3.org/2000/svg">
<path fill-rule="evenodd" clip-rule="evenodd" d="M7.5625 11C7.5625 10.0883 7.92466 9.21398 8.56932 8.56932C9.21398 7.92466 10.0883 7.5625 11 7.5625C11.9117 7.5625 12.786 7.92466 13.4307 8.56932C14.0753 9.21398 14.4375 10.0883 14.4375 11C14.4375 11.9117 14.0753 12.786 13.4307 13.4307C12.786 14.0753 11.9117 14.4375 11 14.4375C10.0883 14.4375 9.21398 14.0753 8.56932 13.4307C7.92466 12.786 7.5625 11.9117 7.5625 11ZM11 8.9375C10.453 8.9375 9.92839 9.1548 9.54159 9.54159C9.1548 9.92839 8.9375 10.453 8.9375 11C8.9375 11.547 9.1548 12.0716 9.54159 12.4584C9.92839 12.8452 10.453 13.0625 11 13.0625C11.547 13.0625 12.0716 12.8452 12.4584 12.4584C12.8452 12.0716 13.0625 11.547 13.0625 11C13.0625 10.453 12.8452 9.92839 12.4584 9.54159C12.0716 9.1548 11.547 8.9375 11 8.9375Z" fill="#C8C8C8"/>
<path fill-rule="evenodd" clip-rule="evenodd" d="M3.96275 9.75883C3.57867 10.3125 3.4375 10.7461 3.4375 11C3.4375 11.2539 3.57867 11.6875 3.96275 12.2412C4.33492 12.7756 4.88675 13.3558 5.58525 13.8921C6.985 14.9664 8.90358 15.8125 11 15.8125C13.0964 15.8125 15.015 14.9664 16.4148 13.8921C17.1132 13.3558 17.6651 12.7756 18.0373 12.2412C18.4213 11.6875 18.5625 11.2539 18.5625 11C18.5625 10.7461 18.4213 10.3125 18.0373 9.75883C17.6651 9.22442 17.1132 8.64417 16.4148 8.10792C15.015 7.03358 13.0964 6.1875 11 6.1875C8.90358 6.1875 6.985 7.03358 5.58525 8.10792C4.88675 8.64417 4.33492 9.22442 3.96275 9.75883ZM4.74742 7.01708C6.33417 5.79975 8.53967 4.8125 11 4.8125C13.4603 4.8125 15.6658 5.79975 17.2517 7.01708C18.0464 7.62667 18.7028 8.30683 19.1666 8.97508C19.6176 9.625 19.9375 10.3372 19.9375 11C19.9375 11.6627 19.6167 12.375 19.1666 13.0249C18.7028 13.6932 18.0464 14.3724 17.2526 14.9829C15.6667 16.2002 13.4603 17.1875 11 17.1875C8.53967 17.1875 6.33417 16.2002 4.74833 14.9829C3.95358 14.3733 3.29725 13.6932 2.83342 13.0249C2.38333 12.375 2.0625 11.6627 2.0625 11C2.0625 10.3372 2.38333 9.625 2.83342 8.97508C3.29725 8.30683 3.95358 7.62758 4.74742 7.01708Z" fill="#C8C8C8"/>
</svg>
