<svg width="72" height="40" viewBox="0 0 72 40" fill="none" xmlns="http://www.w3.org/2000/svg">
<g clip-path="url(#clip0_8348_57229)">
<path fill-rule="evenodd" clip-rule="evenodd" d="M67.8847 6.6991C68.6015 7.88429 69.1135 8.99218 69.5999 10.2289C70.1119 11.6202 70.4959 13.0888 70.8287 14.5316C71.3919 17.4431 71.4943 20.2772 71.2127 23.1886C70.8287 26.8215 69.8303 29.9906 68.3199 33.2885C67.1423 33.9068 65.9903 34.4479 64.7615 34.9632C61.8175 36.1484 58.8223 37.0759 55.7759 37.8746C50.0671 39.1629 44.4095 39.8328 38.5215 39.9873C34.2975 40.0904 30.1503 39.8843 25.9263 39.472C20.8831 38.8022 15.9423 37.8489 11.1551 36.2772C10.0543 35.8907 3.78231 33.3658 3.65431 32.8762C3.37271 32.3094 3.21911 31.8199 2.98871 31.253C2.80951 30.8666 2.70711 30.5316 2.55351 30.1452C2.32311 29.5268 2.11831 28.8569 1.88791 28.2386C1.70871 27.7233 1.60631 27.1822 1.45271 26.6669C1.35031 26.1516 1.22231 25.6105 1.11991 25.0952C1.01751 24.5284 0.96631 23.9873 0.88951 23.472C0.78711 22.9052 0.710311 22.3642 0.710311 21.8489C0.659111 21.282 0.60791 20.741 0.60791 20.1741C0.60791 19.6073 0.60791 19.0663 0.65911 18.4994C0.65911 17.9326 0.71031 17.3915 0.76151 16.8762C0.81271 16.3094 0.86391 15.7683 0.99191 15.2015C1.04311 14.712 1.14551 14.1452 1.27351 13.6299C1.37591 13.063 1.55511 12.5735 1.65751 12.0582C1.83671 11.4914 1.93911 11.0018 2.16951 10.4865C2.34871 9.97124 2.50231 9.48171 2.73271 8.96641C2.91191 8.45111 3.11671 7.96158 3.34711 7.52358L3.73111 6.6991L4.95991 6.13227L5.72791 5.79733L6.49591 5.41086L7.26391 5.07591L8.10871 4.74097L8.92791 4.40602L10.6431 3.78767L12.4863 3.22084L14.3295 2.73131L16.2751 2.21601L18.2719 1.77801L20.2687 1.39153L22.3679 1.05659L24.4671 0.721645L26.6943 0.489761L28.8703 0.309407L31.1487 0.154817L33.4783 0.103287L35.8079 0.0517578L38.1375 0.103287L40.4159 0.154817L42.6943 0.309407L44.9215 0.489761L47.0975 0.721645L49.2735 1.05659L51.3215 1.39153L53.3695 1.77801L55.3663 2.21601L57.2607 2.73131L59.1551 3.22084L60.9215 3.78767L62.6367 4.40602L63.5327 4.74097L64.3007 5.07591L65.1199 5.41086L65.8879 5.79733L66.6559 6.13227L67.8847 6.6991Z" fill="black"/>
<path fill-rule="evenodd" clip-rule="evenodd" d="M35.8078 0H38.1374L40.4158 0.103059L42.6942 0.283414L44.9214 0.463768L47.0974 0.695652L49.2734 1.0306L51.3214 1.36554L53.3694 1.75201L55.3662 2.19002L57.3118 2.62802L59.155 3.19485L60.9214 3.76167L62.6878 4.38003L63.507 4.71498L64.3518 5.04992L65.1198 5.38486L65.8878 5.71981L66.6558 6.10628L67.9358 6.72464C68.1662 7.29147 68.4478 7.781 68.6526 8.34783C68.8318 8.68277 68.9854 9.06924 69.0878 9.45572C69.3694 10.0741 69.5998 10.6924 69.7534 11.3623C69.8558 11.7488 69.9838 12.1353 70.0862 12.5475C70.2398 13.1659 70.419 13.8358 70.5214 14.5056C70.6238 15.0725 70.7006 15.562 70.803 16.1288C70.8542 16.6957 70.9054 17.1852 70.9054 17.752C70.9566 18.3188 71.0078 18.8599 71.0078 19.4267C71.0078 19.9936 71.0078 20.5346 70.9566 21.1015C70.9566 21.6683 70.9054 22.2093 70.8542 22.7762C70.803 23.2657 70.7518 23.8325 70.6238 24.3994C70.5726 24.9147 70.4446 25.4557 70.3422 25.971C70.2398 26.5378 70.1118 27.0274 69.9582 27.5427C69.8046 28.1095 69.6766 28.599 69.523 29.1143C69.3694 29.6296 69.139 30.1192 68.9598 30.6345C68.7294 31.1498 68.5246 31.6393 68.2942 32.0773L67.9102 32.9791L66.6302 33.5974L65.8622 33.9839L65.0942 34.3188L64.3262 34.6538L63.4814 34.9887L62.6622 35.3237L60.8958 35.942L59.1294 36.5089L57.2862 37.0242L55.3406 37.5395L53.3438 37.9775L51.2958 38.3639L49.2478 38.6989L47.0718 39.0338L44.8958 39.2657L42.6686 39.4976L40.3902 39.6006L38.1118 39.7037H33.4526L31.1742 39.6006L28.8958 39.4976L26.6686 39.2657L24.4926 39.0338L22.3166 38.6989L20.2174 38.3639L18.2206 37.9775L16.2238 37.5395L14.2782 37.0242L12.435 36.5089L10.5918 35.942L8.87657 35.3237L8.03177 34.9887L7.18697 34.6538L6.41897 34.3188L5.65097 33.9839L4.88297 33.5974L3.60297 32.9791C3.32137 32.4122 3.09097 31.9227 2.83497 31.3559C2.73257 30.9694 2.55337 30.6345 2.45097 30.248C2.16937 29.6296 1.96457 29.0113 1.78537 28.3414C1.63177 27.8261 1.45257 27.3366 1.35017 26.7697C1.24777 26.2544 1.06857 25.7134 1.01737 25.1981C0.914971 24.6312 0.786971 24.1417 0.735771 23.5749C0.684571 23.0081 0.633371 22.5185 0.556571 21.9517C0.556571 21.3849 0.505371 20.8438 0.505371 20.277V18.6023C0.556571 18.0354 0.556571 17.4944 0.658971 16.9791C0.658971 16.4122 0.761371 15.8712 0.812571 15.3043C0.914971 14.8148 1.04297 14.248 1.14537 13.7327C1.24777 13.1659 1.37577 12.6763 1.52937 12.161C1.63177 11.5942 1.81097 11.1047 1.96457 10.5894C2.11817 10.0741 2.34857 9.58454 2.52777 9.06924C2.75817 8.55395 2.91177 8.06441 3.14217 7.62641L3.57737 6.72464L4.85737 6.10628L5.62537 5.71981L6.39337 5.38486L7.16137 5.04992L8.00617 4.71498L8.85097 4.38003L10.5662 3.76167L12.4094 3.19485L14.2526 2.62802L16.1982 2.19002L18.195 1.75201L20.1918 1.36554L22.291 1.0306L24.467 0.695652L26.643 0.463768L28.8702 0.283414L31.1486 0.103059L33.427 0H35.8078Z" fill="#FFF200"/>
<path fill-rule="evenodd" clip-rule="evenodd" d="M35.8076 0.489746H38.086L39.238 0.541276L40.3644 0.618571L41.5164 0.670101L42.6428 0.72163L43.7436 0.82469L44.8444 0.953515L45.894 1.05657L47.0204 1.15963L48.07 1.33999L49.1196 1.49458L50.1692 1.6234L51.1676 1.77799L52.2172 2.00987L53.2156 2.21599L54.2396 2.39635L55.238 2.62823L56.1596 2.88588L57.1068 3.11777L58.054 3.40118L58.95 3.63306L59.8972 3.89071L60.7676 4.25142L61.6124 4.50907L62.4316 4.79248L63.2764 5.12743L64.0956 5.46237L64.8892 5.79732L65.6572 6.13226L66.4252 6.51873L67.5516 7.08556L67.8844 7.75545L68.038 8.14192L68.2172 8.47686L68.3196 8.86334L68.4988 9.19828L68.6524 9.61052L68.7548 9.94546L68.934 10.3835L69.0364 10.7184L69.1644 11.1049L69.2668 11.4914L69.3692 11.8263L69.4972 12.2128L69.5996 12.625L69.702 13.0115L69.83 13.398L69.8812 13.7844L69.9836 14.1709L70.0348 14.5831L70.086 14.9696L70.214 15.3561L70.2652 15.7426L70.3164 16.129V16.5155L70.3676 16.9277L70.4188 17.3658V17.7522L70.4956 18.1387V18.5252L70.5468 18.9889V20.6121L70.4956 20.9986V21.4366L70.4188 21.8231V22.2096L70.3676 22.6218L70.3164 23.0598V23.4463L70.2652 23.8327L70.214 24.2192L70.086 24.6315L70.0348 25.0179L69.9836 25.4044L69.8812 25.7909L69.83 26.1773L69.702 26.5896L69.5996 26.9761L69.4972 27.3625L69.3692 27.6975L69.2668 28.084L69.1644 28.4704L69.0364 28.8569L68.934 29.1918L68.7548 29.6556L68.6524 29.9906L68.4988 30.377L68.3196 30.712L68.2172 31.0984L68.038 31.4334L67.8844 31.8199L67.5516 32.4897L66.4252 33.0566L65.6572 33.4431L64.8892 33.778L64.0956 34.1129L63.2764 34.4479L62.4316 34.7313L61.6124 35.0662L60.7676 35.3497L59.8972 35.6846L58.95 35.968L58.054 36.1741L57.1068 36.4575L56.1596 36.6894L55.238 36.8955L54.2396 37.1274L53.2156 37.3593L52.2172 37.5654L51.1676 37.7458L50.1692 37.9777L49.1196 38.0807L48.07 38.2611L47.0204 38.4157L45.894 38.5187L44.8444 38.6476L43.7436 38.7506L42.6428 38.8022L41.5164 38.931L40.3644 38.9825L39.238 39.034L38.086 39.0856H33.478L32.3004 39.034L31.1996 38.9825L30.022 38.931L28.9212 38.8022L27.8716 38.7506L26.7708 38.6476L25.6444 38.5187L24.5948 38.4157L23.494 38.2611L22.4444 38.0807L21.446 37.9777L20.3708 37.7458L19.3724 37.5654L18.3228 37.3593L17.3244 37.1274L16.3772 36.8955L15.43 36.6894L14.4316 36.4575L13.5612 36.1741L12.614 35.968L11.718 35.6846L10.8476 35.3497L9.95156 35.0662L9.10676 34.7313L8.28756 34.4479L7.44276 34.1129L6.67476 33.778L5.90676 33.4431L5.11316 33.0566L4.06356 32.4897L3.67956 31.8199L3.57716 31.4334L3.39796 31.0984L3.24436 30.712L3.06516 30.377L2.96276 29.9906L2.78356 29.6556L2.68116 29.1918L2.50196 28.8569L2.39956 28.4704L2.29716 28.084L2.16916 27.6975L2.06676 27.3625L1.96436 26.9761L1.91316 26.5896L1.78516 26.1773L1.68276 25.7909L1.63156 25.4044L1.50356 25.0179L1.45236 24.6315L1.40116 24.2192L1.34996 23.8327L1.29876 23.4463L1.24756 23.0598L1.17076 22.6218L1.11956 22.2096V21.8231L1.06836 21.4366V18.1387L1.11956 17.7522V17.3658L1.17076 16.9277L1.24756 16.5155L1.29876 16.129L1.34996 15.7426L1.40116 15.3561L1.45236 14.9696L1.50356 14.5831L1.63156 14.1709L1.68276 13.7844L1.78516 13.398L1.91316 13.0115L1.96436 12.625L2.06676 12.2128L2.16916 11.8263L2.29716 11.4914L2.39956 11.1049L2.50196 10.7184L2.68116 10.3835L2.78356 9.94546L2.96276 9.61052L3.06516 9.19828L3.24436 8.86334L3.39796 8.47686L3.57716 8.14192L3.67956 7.75545L4.06356 7.08556L5.11316 6.51873L5.90676 6.13226L6.67476 5.79732L7.44276 5.46237L8.28756 5.12743L9.10676 4.79248L9.95156 4.50907L10.8476 4.25142L11.718 3.89071L12.614 3.63306L13.5612 3.40118L14.4316 3.11777L15.43 2.88588L16.3772 2.62823L17.3244 2.39635L18.3228 2.21599L19.3724 2.00987L20.3708 1.77799L21.446 1.6234L22.4444 1.49458L23.494 1.33999L24.5948 1.15963L25.6444 1.05657L26.7708 0.953515L27.8716 0.82469L28.9212 0.72163L30.022 0.670101L31.1996 0.618571L32.3004 0.541276L33.478 0.489746H34.63H35.8076Z" fill="#ED1C24"/>
<path fill-rule="evenodd" clip-rule="evenodd" d="M35.8076 1.62331L38.086 1.67484L40.3644 1.72637L42.5916 1.90672L44.7676 2.06131L46.8668 2.29319L48.966 2.62814L51.014 2.96308L53.0108 3.34956L54.9564 3.73603L56.8508 4.22556L58.6684 4.74086L60.3836 5.30769L62.0476 5.92604L62.8924 6.20946L63.6604 6.5444L64.4284 6.87935L65.1964 7.21429L65.9132 7.54923L66.63 7.93571C66.8604 8.37371 67.0652 8.83748 67.2444 9.32701C67.4748 9.76501 67.6284 10.2288 67.8076 10.7183C67.9868 11.1048 68.0892 11.4397 68.1916 11.8262C68.3708 12.393 68.5244 13.0114 68.7036 13.604C68.806 14.1193 68.934 14.6088 68.9852 15.1241C69.0876 15.6394 69.1644 16.1805 69.2156 16.6958C69.2668 17.1853 69.318 17.7006 69.3692 18.2159V21.4107C69.318 21.9003 69.2668 22.4156 69.2156 22.9309C69.1644 23.4462 69.1132 23.9357 68.9852 24.5025C68.934 24.8375 68.8316 25.224 68.7548 25.6104C68.6524 26.2288 68.4732 26.8471 68.3196 27.4397C68.1404 27.8777 67.9868 28.393 67.8076 28.8826C67.654 29.3206 67.4748 29.8359 67.3212 30.2739C67.0908 30.7892 66.886 31.2272 66.6556 31.6652L65.9388 32.0516L65.222 32.3866L64.454 32.7215L63.686 33.0565L62.0732 33.6748L60.4092 34.2932L58.694 34.86L56.8764 35.3753L54.982 35.8649L53.0364 36.2513L51.0396 36.6378L48.9916 36.9727L46.8924 37.2562L44.7932 37.5396L42.6172 37.7199L40.39 37.8745L38.1116 37.926L35.8332 37.9776L33.5548 37.926L31.2764 37.8745L29.0492 37.7199L26.8732 37.5396L24.6972 37.2562L22.598 36.9727L20.6012 36.6378L18.6044 36.2513L16.6588 35.8649L14.7644 35.3753L12.9212 34.86L11.206 34.2932L9.54196 33.6748L8.69716 33.3914L7.92916 33.0565L7.08436 32.7215L6.36756 32.3866L5.65076 32.0516L4.88276 31.6652C4.65236 31.2272 4.49875 30.7634 4.26835 30.2739C4.11475 29.8359 3.88436 29.3206 3.70516 28.8826C3.52596 28.393 3.42356 27.8777 3.26996 27.4397C3.09076 26.9244 2.98836 26.4349 2.88596 25.9196C2.78356 25.4043 2.65555 24.9663 2.60435 24.4768C2.50195 23.9099 2.45076 23.4204 2.37396 22.9051C2.27156 22.4156 2.27155 21.9003 2.19475 21.385C2.19475 20.8182 2.14355 20.3286 2.14355 19.7618C2.14355 19.2465 2.19475 18.757 2.19475 18.1901C2.24595 17.8037 2.24596 17.4687 2.29716 17.005C2.34836 16.3866 2.47635 15.7682 2.57875 15.0983C2.62995 14.5831 2.73235 14.0935 2.86035 13.5782C2.96275 13.1402 3.09075 12.6249 3.24435 12.1354C3.39795 11.6459 3.52595 11.1821 3.67955 10.6926C3.83315 10.203 4.06356 9.73925 4.24276 9.30125C4.47316 8.81171 4.62676 8.34795 4.85716 7.90994L5.62516 7.52347L6.34196 7.18853L7.05876 6.85358L7.90356 6.51864L8.67156 6.18369L10.2844 5.56534L11.9996 4.99851L13.8428 4.43168L15.686 3.91638L17.5804 3.47838L19.526 3.09191L21.574 2.70543L23.622 2.42202L25.7212 2.1386L27.8972 1.90672L30.1244 1.72637L32.3516 1.62331L34.63 1.57178H35.8076V1.62331Z" fill="#FFF200"/>
<path fill-rule="evenodd" clip-rule="evenodd" d="M35.8078 1.62319L38.0862 1.67472L40.3646 1.72625L41.6958 1.82931L42.5918 1.88084L44.7678 2.03543L46.867 2.26732L48.9662 2.60226L51.0142 2.9372L53.011 3.32368L54.9566 3.71015L56.851 4.19968L58.6686 4.71498L60.3838 5.28181L62.099 5.92593L62.867 6.20934L63.7118 6.54429L64.4286 6.87923L65.1966 7.21418L65.9134 7.54912L66.6814 7.93559C66.7326 8.11595 66.8606 8.32207 66.9118 8.50242V8.45089L65.9646 8.01289L65.1966 7.67794L64.4798 7.343L63.7118 7.00806L62.9438 6.67311L62.1246 6.3897L60.4606 5.77134L58.7454 5.28181L56.9022 4.76651L55.059 4.25121L53.1134 3.81321L51.1166 3.47827L49.0686 3.14332L47.0206 2.85991L44.8446 2.57649L42.6686 2.4219L40.4926 2.31885L38.2142 2.21579H34.835L32.5566 2.26732L30.3294 2.37038L28.1022 2.52496L26.003 2.70532L23.9038 2.98873L21.8558 3.32368L19.859 3.65862L17.8622 4.04509L15.9678 4.4831L14.1246 4.99839L12.3582 5.56522L10.643 6.13205L9.03023 6.69888L8.26223 7.03382L7.49423 7.36876L6.72623 7.70371L6.00943 7.98712L5.29263 8.3736C5.06223 8.8116 4.85743 9.27537 4.62703 9.71337C4.44783 10.1514 4.29423 10.6667 4.11503 11.1047C3.93583 11.5427 3.78223 12.058 3.67983 12.496C3.50063 12.9855 3.39823 13.5008 3.24463 13.9388C3.14223 14.4541 3.06543 14.9436 2.96303 15.4332C2.86063 16.0515 2.78383 16.6699 2.73263 17.3398C2.68143 17.7263 2.63023 18.1127 2.63023 18.525C2.57903 19.0145 2.57903 19.5298 2.57903 20.0451C2.57903 20.5604 2.57903 21.0499 2.63023 21.6168C2.63023 22.132 2.68143 22.6216 2.73263 23.1369C2.78383 23.6264 2.91183 24.1417 2.96303 24.6312C3.34703 26.5894 3.91023 28.5475 4.62703 30.3768C4.85743 30.8148 5.11343 31.3816 5.34383 31.8196L4.90863 31.6393C4.67823 31.2013 4.52463 30.686 4.29423 30.248C4.14063 29.81 3.91023 29.2947 3.73103 28.8567C3.55183 28.3672 3.44943 27.8519 3.29583 27.4139C3.11663 26.8986 3.01423 26.409 2.91183 25.8937C2.80943 25.3784 2.68143 24.9404 2.63023 24.4509C2.52783 23.8841 2.47663 23.3945 2.39983 22.8792C2.29743 22.3897 2.29743 21.8744 2.22063 21.3591C2.22063 20.7923 2.16943 20.3027 2.16943 19.7359C2.16943 19.2206 2.22063 18.7311 2.22063 18.1643C2.27183 17.7778 2.27183 17.4428 2.32303 16.9791C2.37423 16.3607 2.50223 15.6908 2.60463 15.0725C2.65583 14.5572 2.75823 14.0676 2.88623 13.5523C2.98863 13.0628 3.11663 12.599 3.27023 12.1095C3.42383 11.62 3.55183 11.1562 3.70543 10.6667C3.85903 10.1771 4.08943 9.71337 4.26863 9.27537C4.49903 8.78583 4.65263 8.32207 4.88303 7.88406L5.65103 7.49759L6.36783 7.16265L7.08463 6.8277L7.92943 6.49276L8.69743 6.15781L10.3102 5.53946L12.0254 4.97263L13.8686 4.4058L15.7118 3.8905L17.6062 3.4525L19.603 3.06603L21.5998 2.67955L23.6478 2.39614L25.747 2.11273L27.923 1.88084L30.1502 1.70049L32.3774 1.59743L34.6558 1.5459H35.8078V1.62319Z" fill="black"/>
<path fill-rule="evenodd" clip-rule="evenodd" d="M66.7071 7.93555C66.8607 8.37355 67.0911 8.83732 67.3215 9.32685C67.5007 9.76486 67.7055 10.2286 67.8847 10.7182C67.9871 11.0531 68.1151 11.4396 68.2175 11.7745C68.3967 12.3929 68.5503 13.0112 68.7039 13.6296C68.8063 14.1449 68.9343 14.6344 68.9855 15.1497C69.0879 15.665 69.1647 16.2061 69.2159 16.7214C69.2671 17.2109 69.3183 17.7262 69.3695 18.2157V21.4106C69.3183 21.9001 69.2671 22.4154 69.2159 22.9307C69.1647 23.4203 69.1135 23.9355 68.9855 24.5024C68.9343 24.8373 68.8831 25.2238 68.7551 25.6103C68.6527 26.2286 68.4735 26.847 68.3199 27.4653C68.1407 27.9033 67.9871 28.4186 67.8847 28.9082C67.7055 29.3462 67.5007 29.8615 67.3215 30.2995C67.0911 30.8148 66.8863 31.2528 66.7071 31.6908L65.9391 32.0773L65.2223 32.4122L64.4543 32.7471L63.6863 33.0821L62.0735 33.7004L60.4095 34.3188L58.6943 34.8856L56.8767 35.4009L54.9823 35.8905L53.0367 36.2769L51.0399 36.6634L48.9919 36.9984L46.8927 37.2818L44.7935 37.5652L42.6175 37.7455L40.3903 37.9001L38.1119 37.9517L35.8335 38.0032L33.5551 37.9517L31.2767 37.9001L29.0495 37.7455L26.8735 37.5652L24.6975 37.2818L22.5983 36.9984L20.5503 36.6634L18.6047 36.2769L16.6591 35.8905L14.7647 35.4009L12.9215 34.8856L11.2063 34.3188L9.49109 33.7004L8.72309 33.417L7.87829 33.0821L7.11029 32.7471L6.39349 32.4122L5.67669 32.0773L4.90869 31.6908L5.08789 31.3558L5.65109 31.6393L6.36789 31.9742L7.13589 32.3091L7.90389 32.6441L8.67189 32.9275L9.51669 33.2624L11.1807 33.8293L12.8959 34.3961L14.7391 34.9114L16.5823 35.4267L18.5279 35.8132L20.5247 36.1996L22.5215 36.5346L24.6207 36.818L26.7199 37.0499L28.8959 37.2818L31.1231 37.3848L33.3503 37.4879H36.7807L39.0591 37.4364L41.2863 37.3333L43.4623 37.1529L45.6383 36.9211L47.7375 36.6892L49.7855 36.3542L51.7823 36.0193L53.7791 35.6328L55.6735 35.1948L57.5167 34.6795L59.2831 34.1127L60.9983 33.5459L62.6111 32.9275L63.3791 32.6441L64.1471 32.3091L64.8639 31.9742L65.6319 31.6393L66.3487 31.2528C66.5791 30.8148 66.7839 30.351 66.9631 29.8615C67.1935 29.4235 67.3471 28.9597 67.5263 28.5217C67.7055 28.0064 67.8591 27.5684 67.9615 27.0789C68.1151 26.6409 68.2431 26.1256 68.3455 25.636C68.4479 25.1207 68.5759 24.6312 68.6783 24.1932C68.7807 23.5233 68.8575 22.905 68.9087 22.2866C68.9599 21.9001 68.9599 21.5136 69.0111 21.1014C69.0623 20.6119 69.0623 20.0966 69.0623 19.607C69.0623 19.0402 69.0623 18.5507 69.0111 18.0354C68.9599 17.5201 68.9599 17.0306 68.8319 16.5153C68.7807 16.0257 68.7295 15.5104 68.6527 14.9436C68.5503 14.5056 68.4223 13.9903 68.3199 13.5008C68.2175 12.9855 68.0895 12.5475 67.9359 12.0579C67.8335 11.6199 67.6543 11.1046 67.5007 10.6151C67.3215 10.1771 67.1679 9.71333 66.9375 9.27532C66.8351 8.94038 66.6559 8.60543 66.5535 8.32202L66.7071 7.93555Z" fill="white"/>
<path fill-rule="evenodd" clip-rule="evenodd" d="M42.08 14.8919C41.8496 15.6133 40.6976 16.1801 39.52 14.3766C40.1344 14.0416 40.5696 13.9386 40.9024 13.8097C41.3376 13.7582 41.9008 13.7582 42.08 14.2477C42.1824 14.5054 42.1312 14.6857 42.08 14.8919ZM37.7024 15.1238L38.1376 13.1656L38.8544 14.2735C38.752 14.3508 38.24 14.6857 37.7024 15.1238ZM39.136 8.60523C39.52 8.27029 40.1344 8.60523 40.1856 9.37818C40.2368 9.86771 40.1344 10.6149 39.9552 11.0529C39.6736 11.8258 39.1872 12.3927 38.4448 12.2896H38.2912L39.136 8.60523ZM32.864 18.602C32.352 18.2671 32.4288 17.2107 32.8128 16.8242C33.5296 16.1028 34.7584 16.8758 35.4752 17.2107C35.04 17.7002 33.8624 19.3234 32.864 18.602ZM40.9792 13.3975C40.4672 13.449 39.9808 13.6294 39.3152 14.0159L38.6496 12.8307C40.3648 12.5473 41.2096 11.5424 41.4144 10.4861C41.568 9.42971 41.312 8.52794 40.4672 8.19299C39.52 7.90958 38.4704 8.42488 37.5232 8.57947C38.0352 8.68253 37.9072 9.19783 37.8048 9.76465C37.7536 10.1511 36.9856 13.7324 36.576 15.5618C35.3984 15.8452 35.1936 14.8919 33.8112 14.8919C32.7104 14.8919 31.9936 15.4072 31.3024 16.2832C31.2512 16.2832 30.8672 16.85 30.8672 16.85C30.9696 16.9531 31.0976 17.0819 31.2512 17.1849C31.4304 16.9531 31.5328 16.6954 31.7632 16.5151C32.0448 16.0771 32.4288 15.7421 32.992 15.5618C34.7584 14.9949 35.04 16.4635 36.4224 16.1801V16.2316C36.2432 16.3862 36.0384 16.5666 35.9104 16.7469C34.8096 16.3089 33.6832 15.5102 32.6336 16.2316C32.0192 16.6181 31.8656 17.3395 31.968 18.0094C32.0704 18.5247 32.3008 18.9627 32.8128 19.1946C34.1952 19.7099 35.1424 18.2928 35.9872 17.4168C36.6528 17.7002 37.3696 18.0352 38.0352 18.1382C38.4192 18.1898 39.3664 18.1382 39.648 17.8033C39.7504 17.7002 39.6992 17.4168 39.4176 17.4684C38.5728 17.9064 37.5744 17.5714 36.4224 17.0304C37.6512 15.7421 38.8032 14.8403 39.136 14.6857C39.6992 15.5875 40.0832 15.8709 40.8 16.0771C42.3616 16.3605 43.1808 14.5054 42.2848 13.6809C41.9008 13.346 41.4656 13.346 40.9792 13.3975Z" fill="black"/>
<path fill-rule="evenodd" clip-rule="evenodd" d="M36.0383 3.96777C31.9423 3.96777 28.6143 7.31721 28.6143 11.4396C28.6143 13.2947 29.2799 14.9694 30.3807 16.3092L30.4319 16.3607C30.5855 16.2061 30.8159 15.9227 30.9439 15.6393C29.9967 14.5314 29.4335 13.0628 29.4335 11.4396C29.4335 7.80674 32.4287 4.84378 36.0383 4.84378C39.6991 4.84378 42.6431 7.80674 42.6431 11.4396C42.6431 11.7745 42.5919 12.1095 42.5919 12.4444C41.5423 12.2125 39.8783 12.5475 39.0847 13.1658L39.3151 13.5008C40.0319 12.934 42.5919 12.4444 43.2575 13.3462C43.2575 13.2947 43.3087 13.0628 43.3087 13.0628C43.4111 12.5732 43.4623 12.0064 43.4623 11.4396C43.4623 7.31721 40.1343 3.96777 36.0383 3.96777Z" fill="black"/>
<path fill-rule="evenodd" clip-rule="evenodd" d="M34.144 10.1513C34.2464 10.2029 34.4256 10.3317 34.528 10.3832C34.4256 10.4348 34.2976 10.5636 34.0416 10.6151L34.144 10.1513ZM32.9152 10.8728C31.2512 11.2077 31.4816 8.57968 33.1968 9.63604L32.9152 10.8728ZM33.2992 9.09498C32.6336 8.65697 31.7376 8.65697 31.3024 9.53298C30.9184 10.4348 31.4816 11.5426 32.8128 11.4396L32.4288 13.2947C32.2496 14.0676 31.8144 14.9178 31.3792 14.9178C32.992 14.8663 33.3248 13.913 33.3248 13.913C33.4272 13.6296 33.8112 11.6199 33.9392 11.2335C34.3744 11.0789 34.7072 10.847 34.9376 10.5636C35.2192 10.7182 35.5008 10.7955 35.7824 10.7955L35.2192 13.372C35.2192 13.372 34.9376 14.2737 36.32 14.7633C36.1408 14.5314 36.0896 14.248 36.1408 13.9903L37.9072 5.95166L36.2432 6.38966C36.7552 6.38966 36.6784 6.67308 36.5248 7.34297L35.9104 10.2029C35.7568 10.2544 35.5264 10.3059 35.2448 10.2029C35.2448 10.2029 35.424 9.97098 35.5264 9.68757C35.4752 9.68757 35.3472 9.63604 35.296 9.63604L34.912 10.0225C34.7328 9.91946 34.4768 9.7391 34.2464 9.63604L35.0144 5.95166L33.4016 6.38966C33.9136 6.38966 33.8368 6.67308 33.6832 7.34297L33.2992 9.09498Z" fill="black"/>
<path fill-rule="evenodd" clip-rule="evenodd" d="M41.9008 14.6857C41.6704 15.4586 40.5184 15.9739 39.392 14.1704C39.9552 13.8355 40.3904 13.7324 40.7232 13.6036C41.1584 13.552 41.7216 13.552 41.9008 14.0416C42.0288 14.2992 42.0288 14.5053 41.9008 14.6857ZM37.5232 14.9176L37.9584 12.9595L38.6752 14.0673C38.5728 14.1189 38.0864 14.4538 37.5232 14.9176ZM38.9568 8.3733C39.3408 8.03836 39.9552 8.3733 40.0064 9.14625C40.1088 9.66154 39.9552 10.383 39.776 10.821C39.4944 11.5939 39.0592 12.1607 38.2656 12.0577H38.112L38.9568 8.3733ZM32.7104 18.4216C32.224 18.0351 32.2752 16.9788 32.7104 16.5665C33.4272 15.8451 34.6048 16.6181 35.3216 16.953C34.8608 17.4683 33.7088 19.0915 32.7104 18.4216ZM40.8 13.1656C40.3648 13.2171 39.8016 13.449 39.136 13.7839L38.4704 12.5987C40.2368 12.3153 41.0304 11.3105 41.2352 10.2541C41.3888 9.19778 41.1328 8.296 40.288 7.96106C39.3408 7.67765 38.2912 8.19295 37.344 8.34753C37.9072 8.45059 37.728 8.96589 37.6256 9.53272C37.5744 9.91919 36.8064 13.5005 36.3968 15.3298C35.296 15.6132 35.0144 14.6599 33.632 14.6599C32.5312 14.6599 31.8656 15.1752 31.1232 16.0512C31.072 16.0512 30.688 16.6181 30.688 16.6181C30.7904 16.7211 30.9696 16.85 31.072 16.953C31.2256 16.7211 31.4048 16.515 31.5584 16.2831C31.84 15.8451 32.224 15.5617 32.7872 15.3298C34.5536 14.763 34.8352 16.2316 36.2176 15.9482V15.9997C36.0384 16.1543 35.8848 16.3862 35.7312 16.515C34.6304 16.077 33.504 15.2783 32.4544 15.9997C31.8912 16.3862 31.6864 17.1076 31.7888 17.7775C31.8912 18.267 32.1216 18.7308 32.6336 18.9627C34.016 19.478 34.9632 18.0609 35.8592 17.1849C36.4736 17.4683 37.1904 17.8033 37.856 17.9063C38.24 17.9578 39.1872 17.9063 39.4688 17.5714C39.6224 17.4683 39.52 17.1849 39.2384 17.2364C38.4192 17.6744 37.3952 17.3395 36.2432 16.7984C37.472 15.5617 38.624 14.6084 38.9568 14.5053C39.52 15.3298 39.904 15.6132 40.6208 15.8451C42.1824 16.1285 43.0016 14.2735 42.1312 13.449C41.7472 13.114 41.2864 13.114 40.8 13.1656Z" fill="#ED1C24"/>
<path fill-rule="evenodd" clip-rule="evenodd" d="M35.8591 3.73584C31.7631 3.73584 28.4351 7.08528 28.4351 11.2077C28.4351 13.0627 29.1007 14.7375 30.2015 16.0772L30.2527 16.1288C30.4831 15.9742 30.6367 15.6908 30.7391 15.4589C29.8431 14.2994 29.3055 12.8308 29.3055 11.2077C29.3055 7.57481 32.2495 4.61185 35.8591 4.61185C39.5199 4.61185 42.4639 7.57481 42.4639 11.2077C42.4639 11.5426 42.4639 11.8775 42.4127 12.2125C41.3631 11.9806 39.6991 12.3155 38.9055 12.9339L39.1359 13.2689C39.9039 12.702 42.4127 12.2125 43.0783 13.0885C43.0783 13.037 43.1295 12.8051 43.1295 12.8051C43.2319 12.2898 43.2831 11.7487 43.2831 11.1819C43.3087 7.08528 39.9551 3.73584 35.8591 3.73584Z" fill="#ED1C24"/>
<path fill-rule="evenodd" clip-rule="evenodd" d="M33.9648 9.94517C34.0672 9.9967 34.2464 10.0998 34.3488 10.1771C34.2464 10.2286 34.1184 10.3574 33.8624 10.4089L33.9648 9.94517ZM32.7616 10.6666C31.0976 11.0015 31.328 8.37351 33.0432 9.42987L32.7616 10.6666ZM33.1456 8.86304C32.48 8.42504 31.584 8.47657 31.1488 9.30105C30.816 10.2028 31.3024 11.3107 32.6592 11.2076L32.2752 13.0627C32.096 13.8357 31.6608 14.6859 31.2256 14.6859C32.8384 14.6344 33.1712 13.6811 33.1712 13.6811C33.2736 13.3977 33.6832 11.388 33.7856 11.0015C34.2208 10.8212 34.5536 10.6151 34.8352 10.3832C35.0656 10.4862 35.3472 10.5635 35.68 10.5635L35.1168 13.14C35.1168 13.14 34.784 14.0418 36.1664 14.5313C36.0128 14.2994 35.936 14.0418 36.0128 13.7584L37.7792 5.71973L36.1664 6.15773C36.6016 6.15773 36.5504 6.44114 36.3968 7.11103L35.7824 9.97093C35.6032 10.0225 35.3984 10.074 35.1168 9.97093C35.1168 9.97093 35.2704 9.73905 35.3984 9.4814C35.3472 9.4814 35.2448 9.42987 35.168 9.42987C35.1168 9.53293 34.8352 9.81634 34.8352 9.81634C34.6048 9.71328 34.3488 9.53293 34.1184 9.42987L34.8864 5.74549L33.2736 6.18349C33.7856 6.18349 33.7088 6.46691 33.5552 7.1368L33.1456 8.86304Z" fill="#ED1C24"/>
<path fill-rule="evenodd" clip-rule="evenodd" d="M21.7791 29.1914C21.3951 29.6294 20.8831 30.0932 20.4991 30.0932C19.9359 30.0932 19.8847 29.3718 20.0127 28.7019C20.2431 27.1818 21.3951 26.5119 22.3423 26.4088L21.7791 29.1914ZM23.3663 28.9338L24.1343 25.2494C24.1855 24.966 24.2367 24.7599 24.2879 24.4765C24.3391 23.9096 24.3391 23.2397 23.8527 22.8533C23.5711 22.6214 22.9567 22.4668 22.5727 22.4668C20.7295 22.4668 19.7311 23.755 19.6287 24.528C19.6287 24.966 19.7311 25.5328 20.1151 25.5328C20.5503 25.5328 21.0111 24.8114 21.1647 24.2961C21.3439 23.7293 21.7279 22.9563 22.2655 22.9563C23.0335 22.9563 22.7519 24.2446 22.6495 24.8629C22.3167 26.2027 18.8095 25.8162 18.2207 28.9853C17.9903 30.3766 18.5023 31.1753 19.3727 31.1753C20.0895 31.1753 20.7551 30.7889 21.4719 30.119C21.4719 30.7373 21.8559 31.1753 22.3167 31.1753C22.8031 31.1753 23.3663 30.66 23.6991 30.119V29.8356C23.6479 29.8871 23.4687 29.9386 23.4175 29.9386C23.1103 29.9386 23.2639 29.4233 23.3663 28.9338Z" fill="black"/>
<path fill-rule="evenodd" clip-rule="evenodd" d="M10.2848 24.4508C9.72155 24.6054 8.28795 24.4508 7.95515 23.4975C7.72475 23.0595 8.00635 22.4412 8.56955 22.1062C9.18395 21.7197 10.2336 21.6682 10.848 22.0032L10.2848 24.4508ZM19.2704 23.884C19.3216 24.2189 18.2208 24.8888 17.76 24.5024C17.8624 24.0643 19.6032 16.1803 19.5264 16.2318L16.5823 16.6183L16.48 17.0048C17.248 17.0048 17.5296 17.2367 17.3248 18.2415C16.9408 20.1481 16.48 22.1062 16.0448 24.0386C14.7648 23.7036 13.9968 22.3123 12.6656 21.797L13.8944 16.2061L10.8992 16.6441L10.848 17.0305C11.616 17.0305 11.8976 17.2624 11.6927 18.19L11.0272 21.1529C10.3104 20.921 9.59355 20.8695 8.79995 21.3333C7.80155 21.9516 7.46875 22.7761 7.46875 23.8582C7.64795 25.636 9.18395 25.971 10.0288 25.971L9.41435 28.7536C9.13275 29.9387 8.69755 30.5313 7.98075 30.5313L7.87835 30.9178H11.8208L11.872 30.5313C10.9248 30.5313 10.9247 30.0933 11.2063 28.7536L12.5376 22.6215C13.7664 23.2399 14.6368 24.6827 15.9167 25.0176L15.072 28.7536C14.8416 29.9387 14.4064 30.5313 13.6896 30.5313L13.5872 30.9178H17.4783L17.5808 30.5313C16.8128 30.5313 16.6336 30.0418 16.864 28.7536L17.5808 25.4557C18.4256 25.6875 19.9872 23.884 19.2704 23.884ZM59.1552 23.0595C59.7696 22.4927 60.8704 21.1014 61.1008 20.1996C61.2032 19.7616 61.0495 19.1948 60.5375 19.0144C59.3088 18.5764 58.6944 20.5346 60.0512 20.921C60.1535 20.921 59.0528 23.0338 59.0528 23.0338C59.0528 23.0338 59.104 23.111 59.1552 23.0595ZM36.8064 22.2093C37.1904 22.2093 37.6512 21.694 37.8048 20.9726C37.9072 20.4057 37.7535 19.7358 37.2416 19.7358C36.7295 19.7358 36.3456 20.4057 36.2432 20.9726C36.1408 21.5394 36.3712 22.1577 36.8064 22.2093ZM61.8176 23.2914C62.7647 22.7246 63.7631 23.3945 63.9935 24.3478H64.4288C64.4288 23.111 64.4288 23.111 64.3264 22.9049C64.224 22.7503 63.8912 22.5185 63.3792 22.4669C62.6112 22.235 61.8176 22.4154 61.2032 22.9049C60.5376 23.3945 60.0511 24.2962 59.8719 25.198C59.5903 26.8727 60.8704 27.3107 61.7664 27.5941C61.9456 27.6457 62.1503 27.6457 62.3295 27.826C62.5599 28.0579 62.7135 28.6763 62.5599 29.5007C62.3295 30.1706 61.8432 30.454 61.3824 30.5571C60.4352 30.6086 59.872 30.1706 59.5392 29.1143L59.1552 29.1658C59.104 30.789 59.0528 30.6859 59.104 30.7375C59.2064 30.8405 59.872 31.0724 60.7168 31.1755C61.2288 31.227 61.7663 31.1755 62.2271 30.9436C62.7904 30.6602 62.9951 30.3252 63.3279 29.9387C63.6607 29.4234 63.9935 28.8309 63.9935 28.161C63.9935 26.5893 62.8927 26.0482 62.0992 25.8679C61.8688 25.8164 61.8175 25.8164 61.6639 25.636C61.3823 25.3526 61.1008 24.7858 61.2288 24.1932C61.28 23.7809 61.4847 23.4975 61.8176 23.2914ZM36.4224 28.9854L37.9072 22.1062C37.1904 22.7246 36.3456 23.3429 35.296 23.3429C35.808 23.7809 35.9616 23.9098 35.6288 25.5329L34.8608 28.9854C34.5792 30.1706 34.1952 30.5571 33.8112 30.5571L33.7088 30.9436H36.704L36.8064 30.5571C36.4736 30.5313 36.1408 30.3252 36.4224 28.9854ZM43.36 24.1674C43.6416 23.7809 43.6415 23.446 43.5135 23.008C43.4111 22.6215 43.2319 22.235 42.8992 22.235C42.2336 22.235 41.3376 23.5748 40.8 24.2962L41.2864 22.1062C40.4416 22.7246 39.7248 23.3429 38.6752 23.3429C39.1616 23.7809 39.2896 23.9098 38.9568 25.5329L38.24 28.9854C37.9584 30.1706 37.5744 30.5571 37.1904 30.5571L37.088 30.9436H40.0832L40.1343 30.5571C39.8528 30.5571 39.52 30.3252 39.8016 28.9854L40.5695 25.5329C40.7487 25.1465 41.3376 24.3478 41.6191 24.3478C41.8495 24.3478 42.2336 24.8631 42.5664 24.8631C42.7968 24.8373 43.1296 24.5024 43.36 24.1674ZM26.6944 28.9854L28.8703 18.9887C27.9743 19.607 27.36 19.9935 26.2592 19.9935C26.8736 20.2769 26.9248 20.5603 26.592 22.1062L25.0816 28.9854C24.8512 30.1706 24.4672 30.5571 24.0832 30.5571L23.9808 30.9436H26.976L27.0272 30.5571C26.6944 30.5313 26.4384 30.3252 26.6944 28.9854ZM45.5616 29.1916C45.2287 29.6296 44.7168 30.0933 44.3328 30.0933C43.8208 30.0933 43.7696 29.3719 43.8208 28.702C44.0512 27.1819 45.2032 26.512 46.1504 26.409L45.5616 29.1916ZM47.6352 29.8099C47.5327 29.8614 47.4047 29.913 47.3535 29.913C46.9695 29.913 47.1231 29.3977 47.2512 28.9081L48.0191 25.2238C48.0704 24.9404 48.1216 24.7342 48.1984 24.4508C48.2496 23.884 48.1983 23.2141 47.7631 22.8276C47.4304 22.5957 46.8671 22.4412 46.4832 22.4412C44.6399 22.4412 43.6416 23.7294 43.5392 24.5024C43.5392 24.9404 43.6416 25.5072 44.0512 25.5072C44.4864 25.5072 44.9984 24.7858 45.1007 24.2705C45.3312 23.7036 45.6639 22.9307 46.2015 22.9307C46.9695 22.9307 46.7136 24.2189 46.5344 24.8373C46.2528 26.1771 42.7712 25.7906 42.208 28.9597C41.9264 30.351 42.4384 31.1497 43.3088 31.1497C44.0256 31.1497 44.6912 30.7632 45.408 30.0933C45.408 30.7117 45.792 31.1497 46.2271 31.1497C46.7392 31.1497 47.2255 30.6344 47.6096 30.0933V29.8099H47.6352ZM31.4816 28.9854C31.0975 29.5523 30.7136 30.0933 30.2015 30.0933C29.2544 30.0933 29.4335 27.7487 29.6384 26.6408C30.0736 24.1932 31.1232 23.446 31.5328 23.446C31.9168 23.446 32.3008 23.884 32.48 24.2962L31.4816 28.9854ZM32.864 29.9387L33.0175 28.9854L35.2448 18.9887C34.2976 19.607 33.6832 19.9935 32.5824 19.9935C33.1968 20.2769 33.2992 20.5603 32.9664 22.1062L32.6848 23.3429C32.352 22.7761 31.9167 22.4412 31.3535 22.4412C30.3552 22.4412 28.512 23.7809 27.9232 26.9758C27.5392 29.2173 27.9232 31.1755 29.4848 31.1755C30.0992 31.1755 30.7136 30.8405 31.2 30.1706C30.9696 31.4073 32.7104 31.2785 33.4272 30.9436L33.5296 30.5571C32.7616 30.5313 32.7616 30.3252 32.864 29.9387ZM56.9024 22.4412C56.1856 22.4412 55.1871 23.3429 54.6752 23.884C54.5728 23.0338 54.1632 22.4412 53.5744 22.4412C52.8576 22.4412 51.9616 23.3429 51.4752 23.884L51.8591 22.1062C50.9119 22.7246 50.2976 23.3429 49.248 23.3429C49.76 23.7809 49.8624 23.9098 49.5295 25.5329L48.8128 28.9854C48.5312 30.1706 48.1472 30.5571 47.7631 30.5571L47.6608 30.9436H50.656L50.7584 30.5571C50.4256 30.5571 50.0928 30.3252 50.3744 28.9854L51.3215 24.7342C51.6544 24.3478 52.1663 23.9098 52.6015 23.9098C53.1647 23.9098 53.0368 24.9146 52.9344 25.5329L52.1664 28.9854C51.936 30.1706 51.5008 30.5571 51.1168 30.5571L51.0655 30.9436H54.0095L54.112 30.5571C53.7792 30.5571 53.4464 30.3252 53.7792 28.9854L54.6752 24.7342C55.0079 24.3993 55.4944 23.9098 55.8528 23.9098C56.2368 23.9098 56.5184 24.5796 56.288 25.5329L55.5712 28.9854C55.2896 30.1706 54.9055 30.5571 54.5215 30.5571L54.4192 30.9436H57.4144L57.4655 30.5571C57.1839 30.5571 56.8 30.3252 57.1328 28.9854L57.9008 25.5329C58.2336 23.7294 57.824 22.4412 56.9024 22.4412Z" fill="black"/>
<path fill-rule="evenodd" clip-rule="evenodd" d="M45.4077 28.9854C45.0749 29.4234 44.5885 29.8872 44.1789 29.8872C43.6669 29.8872 43.6157 29.1658 43.6669 28.4959C43.8973 26.9758 45.0493 26.3059 45.9965 26.2028L45.4077 28.9854ZM47.0717 28.702L47.8397 25.0176C47.8909 24.7342 47.9421 24.5281 47.9933 24.2447C48.0445 23.6778 47.9933 23.008 47.5581 22.6215C47.2765 22.3896 46.6621 22.235 46.2781 22.235C44.4349 22.235 43.4365 23.5233 43.3853 24.2962C43.3341 24.7342 43.4877 25.301 43.8205 25.301C44.2557 25.301 44.7677 24.5796 44.9213 24.0643C45.1005 23.4975 45.4333 22.7245 45.9709 22.7245C46.7389 22.7245 46.4829 24.0128 46.3037 24.6311C46.0221 25.9709 42.5405 25.5845 41.9773 28.7535C41.6957 30.1448 42.2077 30.9436 43.0781 30.9436C43.7949 30.9436 44.4605 30.6086 45.1773 29.8872C45.2285 30.5055 45.5613 30.9436 45.9965 30.9436C46.5085 30.9436 46.9949 30.5055 47.3789 29.8872V29.6038C47.3277 29.6553 47.1485 29.7068 47.0973 29.7068C46.7901 29.7068 46.9693 29.1915 47.0717 28.702ZM64.1469 22.673C64.0445 22.4927 63.7629 22.2865 63.1997 22.235C62.4317 22.0031 61.6893 22.1835 61.0237 22.673C60.4093 23.1883 59.8461 24.0643 59.6925 24.9661C59.4109 26.6408 60.6909 27.0788 61.5869 27.3622C61.7405 27.4138 61.9709 27.4138 62.1501 27.5941C62.3805 27.826 62.5341 28.4444 62.3805 29.2688C62.2013 29.9387 61.7149 30.2221 61.2797 30.3252C60.2813 30.3767 59.7181 29.9387 59.3853 28.8824L59.0013 28.9339C58.9501 30.5571 58.8989 30.5055 58.9501 30.5055C59.0525 30.6086 59.7181 30.8405 60.5629 30.9436C61.0749 30.9951 61.6125 30.9435 62.0733 30.7117C62.6365 30.4798 62.8413 30.0933 63.1741 29.7068C63.5069 29.1915 63.8397 28.5989 63.8397 27.9291C63.8397 26.3574 62.7389 25.8163 61.9453 25.636C61.7661 25.5845 61.6637 25.5845 61.5101 25.4041C61.2285 25.1207 60.9469 24.5796 61.0749 23.9613C61.1261 23.6263 61.3565 23.2914 61.6893 23.0595C62.6365 22.4927 63.6349 23.1625 63.8653 24.1159H64.3005C64.3261 22.8791 64.3261 22.8791 64.1469 22.673ZM21.5997 28.9854C21.2157 29.4234 20.7037 29.8872 20.3197 29.8872C19.7565 29.8872 19.7053 29.1658 19.8077 28.4959C20.0381 26.9758 21.1901 26.3059 22.1373 26.2028L21.5997 28.9854ZM23.2125 28.702L23.9805 25.0176C24.0317 24.7342 24.1341 24.5281 24.1341 24.2447C24.2365 23.6778 24.1853 23.008 23.7501 22.6215C23.4173 22.3896 22.8541 22.235 22.4701 22.235C20.5757 22.235 19.5773 23.5233 19.5261 24.2962C19.4749 24.7342 19.6285 25.301 19.9613 25.301C20.3965 25.301 20.8573 24.5796 21.0109 24.0643C21.1645 23.4975 21.6253 22.7245 22.1117 22.7245C22.8797 22.7245 22.5981 24.0128 22.4957 24.6311C22.1629 25.9709 18.6557 25.5845 18.1181 28.7535C17.8365 30.1448 18.3485 30.9436 19.2189 30.9436C19.9357 30.9436 20.6013 30.6086 21.3181 29.8872C21.3181 30.5055 21.7021 30.9436 22.1629 30.9436C22.6493 30.9436 23.2125 30.5055 23.5965 29.8872V29.6038C23.4941 29.6553 23.3661 29.7068 23.2637 29.7068C22.9309 29.7068 23.1101 29.1915 23.2125 28.702Z" fill="#ED1C24"/>
<path fill-rule="evenodd" clip-rule="evenodd" d="M10.1821 24.2189C9.56769 24.3992 8.13409 24.2189 7.80129 23.2656C7.57089 22.8276 7.85249 22.2092 8.41569 21.8743C9.03009 21.4878 10.0797 21.4363 10.7453 21.7712L10.1821 24.2189ZM19.1165 23.6778C19.1677 24.0128 18.0669 24.6826 17.6061 24.2962C17.7085 23.8582 19.4493 15.9741 19.4493 16.0256L16.4541 16.4121L16.4029 16.7986C17.1197 16.7986 17.4525 17.0305 17.2477 18.0353C16.8125 19.9419 16.3517 21.9 15.9677 23.8324C14.6365 23.4975 13.8685 22.1062 12.5373 21.5909L13.7149 16.0256L10.7197 16.4121L10.6685 16.7986C11.4365 16.7986 11.7181 17.0305 11.5133 17.958L10.8989 20.9467C10.1821 20.7149 9.38849 20.6633 8.62049 21.1013C7.62209 21.7197 7.28929 22.5442 7.34049 23.6263C7.44289 25.4041 9.00449 25.739 9.90049 25.739L9.23489 28.5216C8.95329 29.7068 8.51809 30.2994 7.80129 30.2994L7.69889 30.6859H11.6413L11.6925 30.2994C10.7453 30.2994 10.7453 29.8614 11.0269 28.5216L12.3581 22.3896C13.5869 23.0079 14.4573 24.4508 15.7373 24.7857L14.8925 28.5216C14.6621 29.7068 14.2269 30.2994 13.5101 30.2994L13.4077 30.6859H17.2989L17.4013 30.2994C16.6333 30.2994 16.4541 29.8099 16.7357 28.5216L17.4525 25.2237C18.2717 25.4556 19.8333 23.6778 19.1165 23.6778ZM36.6269 22.0031C37.0109 22.0031 37.5229 21.4878 37.6253 20.7664C37.7277 20.1996 37.5741 19.5812 37.0621 19.5297C36.5501 19.5297 36.1661 20.1996 36.0637 20.7664C35.9613 21.3332 36.1917 21.9516 36.6269 22.0031ZM26.5405 28.7535L28.7165 18.7567C27.8973 19.3751 27.2061 19.7616 26.1565 19.7616C26.7197 20.045 26.8221 20.3284 26.4893 21.8743L24.9789 28.7535C24.6973 29.9387 24.3133 30.3252 23.9293 30.3252L23.8269 30.7116H26.8221L26.8733 30.3252C26.5917 30.3252 26.2589 30.0933 26.5405 28.7535ZM59.0013 22.8276C59.6157 22.2607 60.7165 20.8694 60.9469 19.9677C61.0493 19.5297 60.8957 18.9628 60.3837 18.7825C59.1549 18.3445 58.5405 20.3026 59.8717 20.6891C59.9741 20.6891 58.8733 22.8018 58.8733 22.8018C58.9501 22.8276 58.9501 22.8791 59.0013 22.8276ZM43.1805 23.9612C43.4621 23.5748 43.4621 23.2398 43.3597 22.776C43.3085 22.3896 43.0781 22.0031 42.7965 22.0031C42.0797 22.0031 41.1837 23.3429 40.6973 24.0643L41.1325 21.8743C40.2877 22.4926 39.5709 23.111 38.5213 23.111C39.0077 23.549 39.1869 23.6778 38.8029 25.301L38.0861 28.7535C37.8045 29.9387 37.4205 30.3252 37.0365 30.3252L36.9341 30.7116H39.9293L39.9805 30.3252C39.6989 30.3252 39.3661 30.0933 39.6477 28.7535L40.4157 25.301C40.5693 24.9145 41.1837 24.1158 41.4653 24.1158C41.6957 24.1158 42.0797 24.6311 42.4125 24.6311C42.6941 24.6311 42.9757 24.2962 43.1805 23.9612ZM56.7741 22.2092C56.0061 22.2092 55.0589 23.111 54.4957 23.6521C54.3933 22.8018 53.9837 22.2092 53.3949 22.2092C52.6781 22.2092 51.7821 23.111 51.2957 23.6521L51.6797 21.8743C50.7837 22.5442 50.1181 23.111 49.0685 23.111C49.5805 23.549 49.7341 23.6778 49.3501 25.301L48.6333 28.7535C48.3517 29.9387 47.9677 30.3252 47.5837 30.3252L47.5325 30.7116H50.4765L50.5789 30.3252C50.2461 30.3252 49.9133 30.0933 50.2461 28.7535L51.1421 24.5023C51.4749 24.1158 52.0381 23.6521 52.4221 23.6521C52.9853 23.6521 52.8573 24.6569 52.7549 25.2752L51.9869 28.7277C51.7565 29.9129 51.3213 30.2994 50.9373 30.2994L50.8861 30.6859H53.8813L53.9325 30.2994C53.5997 30.2994 53.2669 30.0675 53.5997 28.7277L54.4957 24.4765C54.8285 24.1416 55.3405 23.6263 55.6733 23.6263C56.0573 23.6263 56.3389 24.2962 56.1853 25.2495L55.4173 28.702C55.1357 29.8872 54.7517 30.2736 54.3677 30.2736L54.3165 30.6601H57.2605L57.3629 30.2736C57.0301 30.2736 56.6461 30.0417 56.9789 28.702L57.7469 25.2495C58.0541 23.4975 57.7213 22.2092 56.7741 22.2092ZM36.2429 28.7535L37.7533 21.8743C37.0365 22.5442 36.1917 23.111 35.1421 23.111C35.6541 23.549 35.8077 23.6778 35.4749 25.301L34.7069 28.7535C34.4765 29.9387 34.0413 30.3252 33.6573 30.3252L33.5549 30.7116H36.5501L36.6525 30.3252C36.2941 30.3252 35.9613 30.0933 36.2429 28.7535ZM31.3021 28.7535C30.9181 29.3203 30.5341 29.8614 30.0221 29.8614C29.0749 29.8614 29.3053 27.5168 29.4589 26.4604C29.8941 23.9355 30.9693 23.214 31.3533 23.214C31.7373 23.214 32.1213 23.6521 32.3517 24.0643L31.3021 28.7535ZM32.7101 29.7068L32.8637 28.7535L35.0909 18.7567C34.1437 19.3751 33.5293 19.7616 32.4797 19.7616C33.0429 20.045 33.1453 20.3284 32.8125 21.8743L32.5309 23.111C32.2493 22.5442 31.7629 22.2092 31.1997 22.2092C30.2013 22.2092 28.3581 23.549 27.8205 26.7438C27.3853 28.9854 27.8205 30.9435 29.3309 30.9435C29.9453 30.9435 30.5597 30.6086 31.0973 29.9387C30.8157 31.1754 32.5309 31.0466 33.2733 30.7116L33.3757 30.3252C32.5821 30.3252 32.5821 30.0933 32.7101 29.7068Z" fill="#ED1C24"/>
</g>
<defs>
<clipPath id="clip0_8348_57229">
<rect width="72" height="40" fill="white"/>
</clipPath>
</defs>
</svg>
