<svg width="79" height="79" viewBox="0 0 79 79" fill="none" xmlns="http://www.w3.org/2000/svg">
<rect width="79" height="79" rx="39.5" fill="url(#paint0_linear_3379_9060)" fill-opacity="0.8"/>
<path d="M54.5 46.8667V52.76C54.5002 53.182 54.3403 53.5883 54.0527 53.897C53.765 54.2057 53.3709 54.3938 52.95 54.4233C52.2222 54.4744 51.6278 54.5 51.1667 54.5C36.4383 54.5 24.5 42.5617 24.5 27.8333C24.5 27.3733 24.5256 26.7789 24.5767 26.05C24.6062 25.6291 24.7943 25.235 25.103 24.9473C25.4117 24.6597 25.818 24.4998 26.24 24.5H32.1333C32.3401 24.4998 32.5395 24.5764 32.6929 24.715C32.8463 24.8536 32.9427 25.0443 32.9633 25.25C33.0011 25.6322 33.0367 25.9389 33.07 26.17C33.4012 28.4815 34.08 30.7297 35.0833 32.8383C35.2417 33.1717 35.1383 33.57 34.8383 33.7833L31.2417 36.3533C33.4412 41.4771 37.5245 45.5605 42.6483 47.76L45.215 44.17C45.3195 44.0228 45.4725 43.9172 45.6472 43.8718C45.8219 43.8263 46.0071 43.844 46.17 43.9217C48.2784 44.9231 50.526 45.6002 52.8367 45.93C53.0678 45.9633 53.3733 45.9989 53.7533 46.0367C53.9587 46.0577 54.149 46.1543 54.2873 46.3076C54.4255 46.461 54.5002 46.6602 54.5 46.8667Z" fill="white"/>
<defs>
<linearGradient id="paint0_linear_3379_9060" x1="39.5" y1="0" x2="39.5" y2="79" gradientUnits="userSpaceOnUse">
<stop stop-color="#00587E"/>
<stop offset="0.847681" stop-color="#001D2A"/>
</linearGradient>
</defs>
</svg>
