<svg width="42" height="42" viewBox="0 0 42 42" fill="none" xmlns="http://www.w3.org/2000/svg">
<circle cx="21" cy="21" r="21" fill="url(#paint0_linear_3379_9088)" fill-opacity="0.5"/>
<g clip-path="url(#clip0_3379_9088)">
<path d="M30.75 9.56259H11.25C10.8076 9.55808 10.3814 9.72928 10.065 10.0386C9.74867 10.348 9.56794 10.7702 9.5625 11.2126V30.7913C9.56892 31.2331 9.75009 31.6544 10.0663 31.9629C10.3826 32.2714 10.8082 32.4421 11.25 32.4376H30.75C31.1925 32.4411 31.6183 32.2693 31.9345 31.9598C32.2507 31.6503 32.4316 31.2282 32.4375 30.7857V11.207C32.4296 10.7658 32.2479 10.3456 31.9319 10.0377C31.6159 9.72981 31.1912 9.55906 30.75 9.56259Z" fill="#0076B2"/>
<path d="M12.9497 18.1367H16.3453V29.0623H12.9497V18.1367ZM14.6484 12.6992C15.0379 12.6992 15.4186 12.8147 15.7424 13.0311C16.0662 13.2476 16.3186 13.5551 16.4675 13.915C16.6165 14.2748 16.6553 14.6708 16.5792 15.0527C16.5031 15.4347 16.3154 15.7855 16.0399 16.0607C15.7644 16.336 15.4134 16.5234 15.0314 16.5991C14.6493 16.6749 14.2534 16.6356 13.8937 16.4863C13.534 16.337 13.2267 16.0844 13.0106 15.7604C12.7945 15.4364 12.6793 15.0556 12.6797 14.6661C12.6802 14.1443 12.8878 13.644 13.257 13.2752C13.6261 12.9064 14.1266 12.6992 14.6484 12.6992ZM18.4753 18.1367H21.7303V19.6367H21.7753C22.2291 18.778 23.3353 17.8723 24.9872 17.8723C28.4259 17.8648 29.0634 20.128 29.0634 23.0623V29.0623H25.6678V23.7467C25.6678 22.4811 25.6453 20.8517 23.9034 20.8517C22.1616 20.8517 21.8653 22.2317 21.8653 23.6642V29.0623H18.4753V18.1367Z" fill="white"/>
</g>
<defs>
<linearGradient id="paint0_linear_3379_9088" x1="21" y1="0" x2="21" y2="42" gradientUnits="userSpaceOnUse">
<stop stop-color="#696969"/>
<stop offset="1" stop-color="#232B34"/>
</linearGradient>
<clipPath id="clip0_3379_9088">
<rect width="24" height="24" fill="white" transform="translate(9 9)"/>
</clipPath>
</defs>
</svg>
