<svg width="42" height="42" viewBox="0 0 42 42" fill="none" xmlns="http://www.w3.org/2000/svg">
<circle cx="21" cy="21" r="21" fill="url(#paint0_linear_3379_9098)" fill-opacity="0.5"/>
<g clip-path="url(#clip0_3379_9098)">
<path d="M32.47 15.6515C32.3323 15.139 32.0638 14.6718 31.6911 14.2964C31.3185 13.9209 30.8547 13.6504 30.346 13.5117C28.4835 13 20.9878 13 20.9878 13C20.9878 13 13.4918 13.0155 11.6293 13.5272C11.1206 13.6659 10.6568 13.9365 10.2842 14.3119C9.9115 14.6873 9.64298 15.1546 9.50533 15.6671C8.94199 19.0008 8.72346 24.0806 9.5208 27.2809C9.65846 27.7934 9.92699 28.2607 10.2996 28.6361C10.6723 29.0115 11.1361 29.2821 11.6448 29.4208C13.5072 29.9325 21.0031 29.9325 21.0031 29.9325C21.0031 29.9325 28.4989 29.9325 30.3612 29.4208C30.87 29.2821 31.3338 29.0116 31.7064 28.6361C32.0791 28.2607 32.3477 27.7935 32.4853 27.2809C33.0795 23.9425 33.2626 18.8659 32.47 15.6515Z" fill="#FF0000"/>
<path d="M18.6016 25.0927L24.8198 21.4643L18.6016 17.8359V25.0927Z" fill="white"/>
</g>
<defs>
<linearGradient id="paint0_linear_3379_9098" x1="21" y1="0" x2="21" y2="42" gradientUnits="userSpaceOnUse">
<stop stop-color="#696969"/>
<stop offset="1" stop-color="#232B34"/>
</linearGradient>
<clipPath id="clip0_3379_9098">
<rect width="24" height="17" fill="white" transform="translate(9 13)"/>
</clipPath>
</defs>
</svg>
