<svg width="42" height="42" viewBox="0 0 42 42" fill="none" xmlns="http://www.w3.org/2000/svg">
<circle cx="21" cy="21" r="21" fill="url(#paint0_linear_3379_9093)" fill-opacity="0.5"/>
<g clip-path="url(#clip0_3379_9093)">
<path d="M31.6944 8.98145H10.3074C9.57481 8.98145 8.98096 9.5753 8.98096 10.3079V31.6949C8.98096 32.4274 9.57481 33.0213 10.3074 33.0213H31.6944C32.427 33.0213 33.0208 32.4274 33.0208 31.6949V10.3079C33.0208 9.5753 32.427 8.98145 31.6944 8.98145Z" fill="#3D5A98"/>
<path d="M25.5663 33.0187V23.7094H28.6904L29.1575 20.0816H25.5663V17.766C25.5663 16.7158 25.8588 15.9988 27.3639 15.9988H29.2855V12.7488C28.355 12.652 27.4199 12.6059 26.4844 12.6107C23.7179 12.6107 21.8125 14.2966 21.8125 17.4065V20.0816H18.6885V23.7094H21.8125V33.0187H25.5663Z" fill="white"/>
</g>
<defs>
<linearGradient id="paint0_linear_3379_9093" x1="21" y1="0" x2="21" y2="42" gradientUnits="userSpaceOnUse">
<stop stop-color="#696969"/>
<stop offset="1" stop-color="#232B34"/>
</linearGradient>
<clipPath id="clip0_3379_9093">
<rect width="26" height="26" fill="white" transform="translate(8 8)"/>
</clipPath>
</defs>
</svg>
