<svg width="42" height="42" viewBox="0 0 42 42" fill="none" xmlns="http://www.w3.org/2000/svg">
<circle cx="21" cy="21" r="21" fill="url(#paint0_linear_3379_9080)" fill-opacity="0.5"/>
<g clip-path="url(#clip0_3379_9080)">
<path d="M27.375 9H14.625C11.5184 9 9 11.5184 9 14.625V27.375C9 30.4816 11.5184 33 14.625 33H27.375C30.4816 33 33 30.4816 33 27.375V14.625C33 11.5184 30.4816 9 27.375 9Z" fill="url(#paint1_radial_3379_9080)"/>
<path d="M27.375 9H14.625C11.5184 9 9 11.5184 9 14.625V27.375C9 30.4816 11.5184 33 14.625 33H27.375C30.4816 33 33 30.4816 33 27.375V14.625C33 11.5184 30.4816 9 27.375 9Z" fill="url(#paint2_radial_3379_9080)"/>
<path d="M21.0008 11.625C18.4548 11.625 18.1352 11.6362 17.1353 11.6816C16.1372 11.7274 15.4559 11.8853 14.8598 12.1172C14.2432 12.3566 13.7201 12.677 13.1991 13.1982C12.6775 13.7194 12.3572 14.2424 12.117 14.8588C11.8845 15.4551 11.7263 16.1366 11.6814 17.1342C11.6367 18.1342 11.625 18.4539 11.625 21.0001C11.625 23.5463 11.6363 23.8648 11.6816 24.8647C11.7276 25.8628 11.8855 26.5441 12.1172 27.1402C12.3568 27.7568 12.6772 28.2799 13.1984 28.8009C13.7194 29.3225 14.2424 29.6436 14.8586 29.883C15.4552 30.1148 16.1365 30.2728 17.1344 30.3186C18.1344 30.364 18.4538 30.3752 20.9997 30.3752C23.5461 30.3752 23.8646 30.364 24.8646 30.3186C25.8626 30.2728 26.5447 30.1148 27.1412 29.883C27.7576 29.6436 28.2799 29.3225 28.8007 28.8009C29.3223 28.2799 29.6425 27.7568 29.8828 27.1404C30.1133 26.5441 30.2715 25.8626 30.3184 24.8649C30.3633 23.865 30.375 23.5463 30.375 21.0001C30.375 18.4539 30.3633 18.1344 30.3184 17.1344C30.2715 16.1363 30.1133 15.4552 29.8828 14.8591C29.6425 14.2424 29.3223 13.7194 28.8007 13.1982C28.2793 12.6768 27.7578 12.3564 27.1406 12.1173C26.543 11.8853 25.8613 11.7273 24.8632 11.6816C23.8632 11.6362 23.5448 11.625 20.9979 11.625H21.0008ZM20.1598 13.3145C20.4095 13.3141 20.688 13.3145 21.0008 13.3145C23.5041 13.3145 23.8007 13.3235 24.7892 13.3684C25.7032 13.4102 26.1994 13.5629 26.5298 13.6913C26.9674 13.8611 27.2793 14.0643 27.6072 14.3925C27.9353 14.7206 28.1384 15.0331 28.3088 15.4706C28.4371 15.8006 28.59 16.2968 28.6316 17.2108C28.6765 18.1991 28.6863 18.4959 28.6863 20.9979C28.6863 23.4999 28.6765 23.7968 28.6316 24.7851C28.5898 25.6991 28.4371 26.1952 28.3088 26.5253C28.1389 26.9629 27.9353 27.2744 27.6072 27.6023C27.2791 27.9305 26.9676 28.1335 26.5298 28.3035C26.1997 28.4324 25.7032 28.5848 24.7892 28.6266C23.8009 28.6715 23.5041 28.6812 21.0008 28.6812C18.4975 28.6812 18.2008 28.6715 17.2126 28.6266C16.2985 28.5844 15.8024 28.4317 15.4717 28.3033C15.0342 28.1333 14.7217 27.9303 14.3935 27.6022C14.0654 27.274 13.8623 26.9623 13.692 26.5246C13.5637 26.1945 13.4108 25.6984 13.3691 24.7843C13.3242 23.796 13.3152 23.4992 13.3152 20.9956C13.3152 18.492 13.3242 18.1968 13.3691 17.2085C13.4109 16.2944 13.5637 15.7983 13.692 15.4678C13.862 15.0303 14.0654 14.7178 14.3936 14.3897C14.7218 14.0616 15.0342 13.8584 15.4717 13.6882C15.8022 13.5592 16.2985 13.4069 17.2126 13.3649C18.0774 13.3258 18.4126 13.3141 20.1598 13.3121V13.3145ZM26.0052 14.8711C25.3841 14.8711 24.8802 15.3745 24.8802 15.9957C24.8802 16.6168 25.3841 17.1207 26.0052 17.1207C26.6263 17.1207 27.1302 16.6168 27.1302 15.9957C27.1302 15.3746 26.6263 14.8707 26.0052 14.8707V14.8711ZM21.0008 16.1856C18.3421 16.1856 16.1864 18.3413 16.1864 21.0001C16.1864 23.6589 18.3421 25.8136 21.0008 25.8136C23.6597 25.8136 25.8146 23.6589 25.8146 21.0001C25.8146 18.3413 23.6595 16.1856 21.0007 16.1856H21.0008ZM21.0008 17.875C22.7267 17.875 24.1259 19.2741 24.1259 21.0001C24.1259 22.7259 22.7267 24.1252 21.0008 24.1252C19.275 24.1252 17.8759 22.7259 17.8759 21.0001C17.8759 19.2741 19.2749 17.875 21.0008 17.875Z" fill="white"/>
</g>
<defs>
<linearGradient id="paint0_linear_3379_9080" x1="21" y1="0" x2="21" y2="42" gradientUnits="userSpaceOnUse">
<stop stop-color="#696969"/>
<stop offset="1" stop-color="#232B34"/>
</linearGradient>
<radialGradient id="paint1_radial_3379_9080" cx="0" cy="0" r="1" gradientUnits="userSpaceOnUse" gradientTransform="translate(15.375 34.8485) rotate(-90) scale(23.7858 22.1227)">
<stop stop-color="#FFDD55"/>
<stop offset="0.1" stop-color="#FFDD55"/>
<stop offset="0.5" stop-color="#FF543E"/>
<stop offset="1" stop-color="#C837AB"/>
</radialGradient>
<radialGradient id="paint2_radial_3379_9080" cx="0" cy="0" r="1" gradientUnits="userSpaceOnUse" gradientTransform="translate(4.97991 10.7288) rotate(78.681) scale(10.6324 43.827)">
<stop stop-color="#3771C8"/>
<stop offset="0.128" stop-color="#3771C8"/>
<stop offset="1" stop-color="#6600FF" stop-opacity="0"/>
</radialGradient>
<clipPath id="clip0_3379_9080">
<rect width="24" height="24" fill="white" transform="translate(9 9)"/>
</clipPath>
</defs>
</svg>
