<svg width="40" height="40" viewBox="0 0 40 40" fill="none" xmlns="http://www.w3.org/2000/svg">
<circle cx="20" cy="20" r="20" fill="white"/>
<path d="M19.9989 2.66553C10.4482 2.66553 2.66553 10.4482 2.66553 19.9989C2.66553 29.5495 10.4482 37.3322 19.9989 37.3322C29.5495 37.3322 37.3322 29.5495 37.3322 19.9989C37.3322 10.4482 29.5495 2.66553 19.9989 2.66553ZM28.2842 16.0122L18.4562 25.8402C18.2135 26.0829 17.8842 26.2215 17.5375 26.2215C17.1909 26.2215 16.8615 26.0829 16.6189 25.8402L11.7135 20.9349C11.2109 20.4322 11.2109 19.6002 11.7135 19.0975C12.2162 18.5949 13.0482 18.5949 13.5509 19.0975L17.5375 23.0842L26.4469 14.1749C26.9495 13.6722 27.7815 13.6722 28.2842 14.1749C28.7869 14.6775 28.7869 15.4922 28.2842 16.0122Z" fill="#06A03F"/>
</svg>
