<svg width="26" height="26" viewBox="0 0 26 26" fill="none" xmlns="http://www.w3.org/2000/svg">
<rect width="26" height="26" rx="13" fill="#F7F7F7"/>
<path d="M9.24229 20C8.86115 20 8.53515 19.8594 8.26429 19.5783C7.99343 19.2972 7.85772 18.9601 7.85715 18.5672V7.57134H7.42858C7.30686 7.57134 7.20515 7.52873 7.12343 7.4435C7.04172 7.35828 7.00058 7.25263 7.00001 7.12657C6.99943 7.00051 7.04058 6.89516 7.12343 6.81053C7.20629 6.72589 7.30801 6.68358 7.42858 6.68358H10.4286C10.4286 6.50011 10.4943 6.34031 10.6257 6.20419C10.7571 6.06806 10.9114 6 11.0886 6H14.9114C15.0886 6 15.2429 6.06806 15.3743 6.20419C15.5057 6.34031 15.5714 6.50011 15.5714 6.68358H18.5714C18.6931 6.68358 18.7949 6.72619 18.8766 6.81141C18.9583 6.89664 18.9994 7.00228 19 7.12834C19.0006 7.25441 18.9594 7.35975 18.8766 7.44439C18.7937 7.52902 18.692 7.57134 18.5714 7.57134H18.1429V18.5663C18.1429 18.9604 18.0071 19.2978 17.7357 19.5783C17.4643 19.8588 17.1386 19.9994 16.7586 20H9.24229ZM11.5497 17.3367C11.6714 17.3367 11.7734 17.2941 11.8557 17.2089C11.938 17.1237 11.9789 17.0183 11.9783 16.8928V9.79074C11.9783 9.66468 11.9371 9.55933 11.8549 9.4747C11.7726 9.39007 11.6706 9.34745 11.5489 9.34686C11.4271 9.34627 11.3254 9.38888 11.2437 9.4747C11.162 9.56052 11.1211 9.66586 11.1211 9.79074V16.8928C11.1211 17.0189 11.1623 17.1242 11.2446 17.2089C11.3269 17.2941 11.4286 17.3367 11.5497 17.3367ZM14.4511 17.3367C14.5729 17.3367 14.6746 17.2941 14.7563 17.2089C14.838 17.1237 14.8789 17.0183 14.8789 16.8928V9.79074C14.8789 9.66468 14.8377 9.55933 14.7554 9.4747C14.6731 9.38947 14.5714 9.34686 14.4503 9.34686C14.3286 9.34686 14.2266 9.38947 14.1443 9.4747C14.062 9.55992 14.0211 9.66527 14.0217 9.79074V16.8928C14.0217 17.0189 14.0629 17.1242 14.1451 17.2089C14.2274 17.2935 14.3294 17.3361 14.4511 17.3367Z" fill="#0C65B2"/>
</svg>
