<svg width="32" height="32" viewBox="0 0 32 32" fill="none" xmlns="http://www.w3.org/2000/svg">
<g clip-path="url(#clip0_6889_9978)">
<path d="M20 10.666H20.0133" stroke="white" stroke-width="2" strokeLinecap="round" strokeLinejoin="round"/>
<path d="M22.6663 5.33398H9.33301C7.12387 5.33398 5.33301 7.12485 5.33301 9.33398V22.6673C5.33301 24.8765 7.12387 26.6673 9.33301 26.6673H22.6663C24.8755 26.6673 26.6663 24.8765 26.6663 22.6673V9.33398C26.6663 7.12485 24.8755 5.33398 22.6663 5.33398Z" stroke="white" stroke-width="2" strokeLinecap="round" strokeLinejoin="round"/>
<path d="M5.33301 19.9999L10.6663 14.6666C11.2744 14.0815 11.9642 13.7734 12.6663 13.7734C13.3685 13.7734 14.0583 14.0815 14.6663 14.6666L21.333 21.3333" stroke="white" stroke-width="2" strokeLinecap="round" strokeLinejoin="round"/>
<path d="M18.667 18.666L20.0003 17.3326C20.6084 16.7475 21.2982 16.4395 22.0003 16.4395C22.7025 16.4395 23.3922 16.7475 24.0003 17.3326L26.667 19.9993" stroke="white" stroke-width="2" strokeLinecap="round" strokeLinejoin="round"/>
</g>
<defs>
<clipPath id="clip0_6889_9978">
<rect width="32" height="32" fill="white"/>
</clipPath>
</defs>
</svg>
