<svg width="46" height="46" viewBox="0 0 46 46" fill="none" xmlns="http://www.w3.org/2000/svg">
<rect x="-0.00390625" width="46" height="46.0002" rx="12" fill="#09678A"/>
<path d="M31.9921 31.9992V31.9984H31.9966V25.3969C31.9966 22.1674 31.3013 19.6797 27.5258 19.6797C25.7108 19.6797 24.4928 20.6757 23.9955 21.6199H23.943V19.9812H20.3633V31.9984H24.0908V26.0479C24.0908 24.4812 24.3878 22.9662 26.328 22.9662C28.2398 22.9662 28.2683 24.7542 28.2683 26.1484V31.9992H31.9921Z" fill="white"/>
<path d="M14.293 19.9824H18.025V31.9997H14.293V19.9824Z" fill="white"/>
<path d="M16.1576 14C14.9643 14 13.9961 14.9683 13.9961 16.1615C13.9961 17.3548 14.9643 18.3433 16.1576 18.3433C17.3508 18.3433 18.3191 17.3548 18.3191 16.1615C18.3183 14.9683 17.3501 14 16.1576 14V14Z" fill="white"/>
</svg>
