<svg width="16" height="16" viewBox="0 0 16 16" fill="none" xmlns="http://www.w3.org/2000/svg">
<path d="M10 8C10 8.53043 9.78929 9.03914 9.41421 9.41421C9.03914 9.78929 8.53043 10 8 10C7.46957 10 6.96086 9.78929 6.58579 9.41421C6.21071 9.03914 6 8.53043 6 8C6 7.46957 6.21071 6.96086 6.58579 6.58579C6.96086 6.21071 7.46957 6 8 6C8.53043 6 9.03914 6.21071 9.41421 6.58579C9.78929 6.96086 10 7.46957 10 8Z" stroke="white" stroke-opacity="0.9" strokeLinecap="round" strokeLinejoin="round"/>
<path d="M1.3335 7.9987C2.40016 5.26736 4.89083 3.33203 8.00016 3.33203C11.1095 3.33203 13.6002 5.26736 14.6668 7.9987C13.6002 10.73 11.1095 12.6654 8.00016 12.6654C4.89083 12.6654 2.40016 10.73 1.3335 7.9987Z" stroke="white" stroke-opacity="0.9" strokeLinecap="round" strokeLinejoin="round"/>
</svg>
