<svg width="206" height="40" viewBox="0 0 206 40" fill="none" xmlns="http://www.w3.org/2000/svg">
<g clip-path="url(#clip0_8348_57758)">
<mask id="mask0_8348_57758" style="mask-type:luminance" maskUnits="userSpaceOnUse" x="0" y="0" width="206" height="40">
<path d="M206 0.90918H0V39.091H206V0.90918Z" fill="white"/>
</mask>
<g mask="url(#mask0_8348_57758)">
<path d="M38.0687 19.1745L27.7405 3.7197H31.8596L42.1878 19.1745L30.0006 37.4399H33.3785L45.5658 19.1745L33.3785 0.90918H22.4792L34.6847 19.1745L24.3564 34.6294H20.2555L30.5838 19.1745L18.3783 0.90918H7.49709L19.6844 19.1745L9.35618 34.6294H5.25526L15.5835 19.1745L3.37794 0.90918H0L12.1874 19.1745L0 37.4399H10.8811L23.0867 19.1745L12.7585 3.7197H16.8776L27.2058 19.1745L15.0002 37.4399H25.8814L38.0687 19.1745Z" fill="url(#paint0_linear_8348_57758)"/>
<path d="M60.1472 2.50556C62.3161 2.50556 64.0051 3.02761 65.2019 4.07168C65.8148 4.62442 66.2965 5.30689 66.6118 6.06931C66.9272 6.83174 67.0682 7.65488 67.0246 8.47868C67.0717 9.34255 66.9334 10.2065 66.6191 11.0126C66.3047 11.8187 65.8216 12.5485 65.2019 13.1527C63.9869 14.2636 62.3161 14.816 60.1472 14.816H57.1094V19.5266H52.6865V2.52985L60.1472 2.50556ZM59.9285 11.271C60.6945 11.3358 61.456 11.1031 62.0549 10.6215C62.3112 10.3651 62.5099 10.0571 62.6378 9.71798C62.7656 9.37881 62.8195 9.01634 62.7961 8.65471C62.8187 8.30227 62.7641 7.94913 62.636 7.61993C62.508 7.29073 62.3097 6.99339 62.0549 6.74867C61.4626 6.27079 60.7124 6.03248 59.9528 6.08093H57.1094V11.3013L59.9285 11.271ZM73.5131 8.57581C73.9356 7.84785 74.5435 7.24466 75.275 6.82757C76.03 6.41356 76.8805 6.20428 77.7417 6.22055V10.1784C77.5231 10.1663 77.304 10.1663 77.0855 10.1784C76.2027 10.1364 75.3308 10.3883 74.6067 10.8946C74.2974 11.1256 74.0401 11.4189 73.8518 11.7557C73.6633 12.0925 73.548 12.465 73.5131 12.8492V19.5266H69.1874V6.3723H73.5131V8.57581ZM85.7369 6.24483C87.0417 6.21745 88.3338 6.5048 89.5037 7.08252C90.5554 7.60831 91.4329 8.4261 92.0311 9.43778C92.6541 10.5009 92.9735 11.7145 92.9546 12.9464C92.9826 14.1839 92.6717 15.4055 92.0554 16.4792C91.4573 17.4909 90.5797 18.3087 89.528 18.8346C88.3581 19.4123 87.0659 19.6996 85.7613 19.6722C84.4565 19.6996 83.1644 19.4123 81.9944 18.8346C80.9438 18.3117 80.0694 17.4929 79.4792 16.4792C78.8726 15.4021 78.5662 14.1821 78.5922 12.9464C78.5676 11.7186 78.874 10.5066 79.4792 9.43778C80.0758 8.42057 80.9592 7.60142 82.0187 7.08252C83.1886 6.5048 84.4808 6.21745 85.7855 6.24483H85.7369ZM85.7369 9.74131C85.3563 9.72874 84.9778 9.80122 84.6288 9.9535C84.2799 10.1058 83.9693 10.334 83.7199 10.6215C83.1803 11.2846 82.9036 12.1229 82.9422 12.9767C82.9009 13.8383 83.1777 14.685 83.7199 15.3563C83.9701 15.6504 84.2838 15.8839 84.6374 16.0395C84.9909 16.1951 85.3752 16.2686 85.7613 16.2546C86.151 16.2702 86.5393 16.1974 86.897 16.0418C87.2548 15.8863 87.5726 15.6519 87.8269 15.3563C88.3691 14.685 88.6458 13.8383 88.6045 12.9767C88.6451 12.1206 88.3632 11.2804 87.8147 10.6215C87.5612 10.3282 87.2451 10.0953 86.8899 9.93979C86.5345 9.78436 86.1489 9.71036 85.7613 9.72312L85.7369 9.74131ZM103.453 6.24483C104.58 6.2215 105.69 6.51153 106.661 7.08252C107.592 7.65135 108.34 8.47787 108.811 9.46206C109.354 10.5792 109.624 11.8083 109.601 13.0496C109.627 14.2566 109.373 15.4531 108.86 16.5461C108.399 17.5133 107.664 18.3239 106.745 18.877C105.785 19.4399 104.687 19.7257 103.574 19.7026C102.799 19.7133 102.031 19.5516 101.326 19.2291C100.659 18.9038 100.08 18.4228 99.6375 17.8268V24.237H95.3118V6.3723H99.6375V8.07197C100.088 7.48028 100.674 7.0058 101.346 6.68877C102.019 6.37174 102.758 6.22153 103.502 6.2509L103.453 6.24483ZM102.383 16.1758C102.771 16.1886 103.157 16.1145 103.512 15.959C103.867 15.8036 104.184 15.5706 104.437 15.2773C104.986 14.6185 105.267 13.7782 105.227 12.9221C105.266 12.0625 104.985 11.2187 104.437 10.5547C104.186 10.2586 103.87 10.0228 103.514 9.86522C103.159 9.7076 102.772 9.63198 102.383 9.64417C102.001 9.63312 101.619 9.70931 101.27 9.86712C100.92 10.0248 100.611 10.26 100.367 10.5547C99.8282 11.2233 99.5516 12.0648 99.5888 12.9221C99.5507 13.7759 99.8272 14.6142 100.367 15.2773C100.613 15.5695 100.923 15.8021 101.272 15.9577C101.621 16.1133 102.002 16.1878 102.383 16.1758ZM117.572 6.24483C119.711 6.24483 121.355 6.87613 122.505 8.13875C123.656 9.40136 124.231 11.1334 124.231 13.3348C124.231 13.6748 124.231 13.9419 124.231 14.1119H115.118C115.284 14.787 115.668 15.3887 116.211 15.8237C116.757 16.2329 117.425 16.4468 118.107 16.4307C118.671 16.4298 119.229 16.3142 119.747 16.0907C120.289 15.8553 120.78 15.5172 121.193 15.0952L123.453 17.3534C122.775 18.1133 121.931 18.7073 120.987 19.0895C119.948 19.5033 118.836 19.7095 117.718 19.6965C116.438 19.7272 115.169 19.4438 114.024 18.8709C113.001 18.3521 112.155 17.5406 111.594 16.54C111.023 15.4669 110.738 14.2647 110.768 13.0496C110.744 11.8108 111.037 10.5866 111.618 9.49241C112.175 8.47665 113.021 7.64858 114.049 7.11287C115.158 6.53714 116.395 6.2491 117.645 6.27518L117.572 6.24483ZM115.021 11.8355H120.075C120.102 11.1642 119.862 10.5094 119.407 10.0145C119.178 9.78246 118.903 9.60103 118.6 9.48187C118.296 9.36268 117.971 9.30836 117.645 9.32245C117.329 9.3139 117.013 9.36976 116.718 9.48663C116.425 9.6035 116.157 9.77893 115.931 10.0023C115.448 10.5016 115.13 11.1373 115.021 11.8234V11.8355ZM126.613 19.5266V1.51611H130.938V19.5266H126.613ZM156.989 19.5266H152.25L151.084 16.4914H143.745L142.53 19.5266H137.961L145.252 2.52985H149.82L156.989 19.5266ZM147.464 7.0461L145.081 13.1164H149.797L147.464 7.0461ZM166.856 6.24483C167.983 6.2215 169.093 6.51153 170.064 7.08252C170.996 7.65135 171.743 8.47787 172.214 9.46206C172.748 10.5812 173.011 11.8103 172.98 13.0496C173.006 14.2566 172.752 15.4531 172.239 16.5461C171.77 17.5038 171.031 18.3035 170.112 18.8466C169.152 19.4095 168.054 19.6953 166.941 19.6722C166.166 19.6829 165.398 19.5212 164.693 19.1987C164.02 18.8853 163.433 18.4148 162.981 17.8268V24.237H158.655V6.3723H162.981V8.07197C163.43 7.48028 164.016 7.0058 164.689 6.68877C165.362 6.37174 166.101 6.22153 166.844 6.2509L166.856 6.24483ZM165.787 16.1758C166.175 16.1886 166.56 16.1145 166.916 15.959C167.271 15.8036 167.587 15.5706 167.841 15.2773C168.389 14.6185 168.67 13.7782 168.63 12.9221C168.669 12.0625 168.388 11.2187 167.841 10.5547C167.589 10.2586 167.273 10.0228 166.917 9.86522C166.563 9.7076 166.175 9.63198 165.787 9.64417C165.404 9.63312 165.022 9.70931 164.673 9.86712C164.324 10.0248 164.015 10.26 163.77 10.5547C163.231 11.2233 162.955 12.0648 162.992 12.9221C162.954 13.7759 163.23 14.6142 163.77 15.2773C164.016 15.5695 164.326 15.8021 164.675 15.9577C165.024 16.1133 165.405 16.1878 165.787 16.1758ZM183.527 6.24483C184.653 6.2215 185.765 6.51153 186.735 7.08252C187.667 7.65135 188.414 8.47787 188.886 9.46206C189.419 10.5812 189.681 11.8103 189.651 13.0496C189.677 14.2566 189.423 15.4531 188.91 16.5461C188.449 17.5133 187.714 18.3239 186.796 18.877C185.835 19.4399 184.737 19.7257 183.624 19.7026C182.849 19.7133 182.081 19.5516 181.377 19.2291C180.703 18.9157 180.116 18.4451 179.664 17.8572V24.237H175.338V6.3723H179.664V8.07197C180.113 7.48028 180.699 7.0058 181.372 6.68877C182.045 6.37174 182.784 6.22153 183.527 6.2509V6.24483ZM182.458 16.1758C182.845 16.1886 183.232 16.1145 183.586 15.959C183.942 15.8036 184.258 15.5706 184.511 15.2773C185.06 14.6185 185.342 13.7782 185.301 12.9221C185.341 12.0625 185.059 11.2187 184.511 10.5547C184.26 10.2586 183.944 10.0228 183.589 9.86522C183.233 9.7076 182.847 9.63198 182.458 9.64417C182.075 9.63312 181.694 9.70931 181.344 9.86712C180.995 10.0248 180.686 10.26 180.441 10.5547C179.902 11.2233 179.626 12.0648 179.664 12.9221C179.625 13.7759 179.901 14.6142 180.441 15.2773C180.687 15.5695 180.997 15.8021 181.346 15.9577C181.696 16.1133 182.076 16.1878 182.458 16.1758ZM200.684 10.5426C199.413 9.78074 197.982 9.32359 196.504 9.20711C196.191 9.19184 195.88 9.26326 195.605 9.41349C195.5 9.47518 195.412 9.56398 195.352 9.67074C195.293 9.77741 195.262 9.89827 195.265 10.0206C195.274 10.1776 195.33 10.3283 195.426 10.4536C195.521 10.579 195.651 10.6733 195.799 10.7246C196.348 10.9763 196.917 11.1794 197.501 11.3317C198.298 11.556 199.081 11.8276 199.846 12.1451C200.474 12.416 201.028 12.8321 201.462 13.3591C201.937 13.9624 202.179 14.7167 202.142 15.4837C202.166 16.0911 202.038 16.6949 201.768 17.2399C201.499 17.7848 201.096 18.2538 200.599 18.6039C199.407 19.4057 197.988 19.7997 196.553 19.7268C195.466 19.7314 194.384 19.5718 193.346 19.2533C192.361 18.955 191.439 18.4821 190.624 17.8572L191.985 15.0649C192.708 15.5743 193.496 15.9827 194.33 16.2789C195.074 16.5498 195.859 16.6934 196.65 16.7039C196.998 16.7206 197.345 16.6497 197.659 16.4975C197.774 16.4442 197.871 16.3582 197.938 16.2504C198.005 16.1425 198.039 16.0173 198.036 15.8905C198.03 15.7246 197.976 15.5641 197.878 15.4298C197.78 15.2956 197.645 15.1938 197.488 15.1377C196.935 14.8876 196.362 14.6846 195.776 14.5307C194.997 14.3085 194.234 14.0367 193.49 13.7173C192.88 13.4417 192.343 13.0257 191.924 12.5032C191.459 11.9088 191.223 11.1685 191.255 10.4151C191.231 9.8115 191.356 9.21117 191.618 8.66707C191.882 8.12299 192.274 7.6518 192.762 7.29498C193.899 6.50182 195.265 6.105 196.65 6.16592C197.608 6.16504 198.56 6.29576 199.482 6.55442C200.409 6.81198 201.296 7.19599 202.118 7.69562L200.684 10.5426Z" fill="black"/>
<path d="M52.9658 30.2405V29.2754H58.9319V30.2405H56.5017V36.9178H55.4264V30.2405H52.9658ZM61.0704 32.3894C61.2385 32.0015 61.5203 31.6735 61.8785 31.4485C62.2559 31.2272 62.6863 31.1118 63.1239 31.1146V32.098C62.8666 32.0746 62.6072 32.1028 62.361 32.181C62.1148 32.2592 61.8867 32.3858 61.6901 32.5533C61.323 32.8986 61.1051 33.3734 61.0826 33.8766V36.9118H60.0497V31.145H61.0704V32.3894ZM68.768 36.9238H67.7595V36.1165C67.5165 36.4118 67.2056 36.6438 66.8532 36.7929C66.5009 36.9419 66.1177 37.0036 65.7364 36.9724C65.3726 36.98 65.0123 36.901 64.6853 36.7418C64.3971 36.6048 64.1545 36.3878 63.9866 36.1165C63.8203 35.8443 63.734 35.5309 63.7375 35.212C63.7356 34.9761 63.7897 34.7431 63.8953 34.532C64.0008 34.3211 64.1551 34.138 64.3451 33.998C64.812 33.6719 65.3739 33.5097 65.943 33.5367H67.7656V33.2635C67.7752 33.0878 67.7465 32.9121 67.6815 32.7486C67.6164 32.5851 67.5166 32.4377 67.3889 32.3165C67.076 32.0738 66.6844 31.955 66.2893 31.9827C65.6457 31.9974 65.0222 32.2093 64.5031 32.5898L64.0778 31.8917C64.4362 31.6428 64.8239 31.439 65.2321 31.2846C65.6414 31.1598 66.0679 31.1004 66.4958 31.1086C67.099 31.0709 67.6947 31.2592 68.1665 31.6367C68.3693 31.8248 68.5286 32.0547 68.6335 32.3104C68.7384 32.5662 68.7863 32.8417 68.7741 33.1178L68.768 36.9238ZM65.949 36.1165C66.3802 36.1304 66.805 36.0095 67.1641 35.7705C67.3235 35.6697 67.4599 35.5365 67.5645 35.3797C67.6692 35.2228 67.7397 35.0458 67.7716 34.8599V34.2955H66.0766C65.722 34.271 65.3673 34.3422 65.0498 34.5018C64.94 34.5707 64.851 34.668 64.7921 34.7835C64.7333 34.8989 64.7069 35.0281 64.7156 35.1575C64.7114 35.2943 64.74 35.4303 64.7992 35.5539C64.8584 35.6776 64.9464 35.7851 65.0559 35.8677C65.3215 36.0549 65.6426 36.1469 65.9672 36.1287L65.949 36.1165ZM73.7984 31.1025C74.0923 31.0888 74.3856 31.1357 74.6606 31.24C74.9354 31.3445 75.1859 31.5043 75.3964 31.7096C75.6017 31.9298 75.7612 32.1886 75.8655 32.4711C75.9697 32.7535 76.0168 33.0538 76.0039 33.3545V36.9238H74.9892V33.6278C74.9993 33.4153 74.9651 33.2031 74.8887 33.0045C74.8124 32.8059 74.6956 32.6255 74.5458 32.4744C74.3951 32.3329 74.2172 32.2234 74.023 32.1524C73.8289 32.0815 73.6222 32.0506 73.4157 32.0616C73.1825 32.0562 72.9506 32.0975 72.7335 32.183C72.5166 32.2684 72.3189 32.3964 72.1521 32.5594C71.8205 32.8992 71.6239 33.348 71.5992 33.8219V36.9118H70.5845V31.145H71.5992V32.3591C71.7955 31.9518 72.1109 31.6138 72.5035 31.3895C72.8961 31.1652 73.3477 31.0651 73.7984 31.1025ZM80.9493 32.4137C80.7011 32.2649 80.436 32.1467 80.1594 32.0616C79.8916 31.9796 79.6134 31.9367 79.3333 31.9341C79.0759 31.9224 78.8202 31.979 78.592 32.098C78.5016 32.1506 78.4276 32.2274 78.3783 32.3195C78.3289 32.4117 78.3062 32.5158 78.3125 32.62C78.3084 32.7292 78.3361 32.8372 78.3921 32.9309C78.4482 33.0246 78.5303 33.1001 78.6285 33.1481C78.9279 33.3056 79.2437 33.4298 79.5702 33.5184C79.906 33.6106 80.2348 33.7262 80.5544 33.8644C80.8098 33.9813 81.0328 34.1583 81.2044 34.3804C81.3972 34.6368 81.4939 34.9525 81.4778 35.2728C81.4917 35.5157 81.4431 35.758 81.3368 35.9769C81.2305 36.1958 81.0698 36.3838 80.8703 36.5232C80.4141 36.82 79.8771 36.9684 79.3333 36.9481C78.9074 36.9498 78.4844 36.8799 78.0817 36.7418C77.702 36.6143 77.3541 36.4074 77.061 36.1347L77.4438 35.3941C77.7017 35.6255 78.0032 35.803 78.3307 35.9162C78.6601 36.0446 79.01 36.1124 79.3636 36.1165C79.6471 36.1301 79.9289 36.065 80.1777 35.9283C80.276 35.8719 80.3566 35.7892 80.4103 35.6894C80.4639 35.5897 80.4886 35.4769 80.4814 35.3638C80.4886 35.2429 80.4622 35.1223 80.4055 35.0153C80.3488 34.9082 80.2636 34.8188 80.1594 34.7568C79.8503 34.5883 79.5219 34.4579 79.1813 34.3683C78.8568 34.283 78.5399 34.1714 78.2335 34.0344C77.9948 33.9183 77.7867 33.7478 77.626 33.5367C77.4421 33.2903 77.3497 32.9878 77.3647 32.6808C77.3501 32.4429 77.3986 32.2054 77.5052 31.9921C77.6119 31.779 77.773 31.5978 77.9723 31.4667C78.4106 31.1822 78.9263 31.0401 79.4486 31.06C79.8001 31.0598 80.1497 31.1089 80.4875 31.2057C80.7966 31.2973 81.0912 31.4322 81.3623 31.6063L80.9493 32.4137ZM84.9529 29.6457C84.7109 29.6375 84.4752 29.7246 84.2968 29.8884C84.2068 29.9775 84.1369 30.0848 84.0918 30.2031C84.0467 30.3215 84.0276 30.448 84.0356 30.5744V31.3332H85.6638V32.1041H84.066V36.9118H83.0453V32.1162H82.2616V31.3453H83.0149V30.7383C83.0041 30.3617 83.0988 29.9896 83.2884 29.6638C83.4547 29.3787 83.6992 29.147 83.993 28.9961C84.2818 28.8458 84.6031 28.7687 84.9287 28.7716C85.2808 28.7775 85.6265 28.867 85.9372 29.0325L85.6942 29.8641C85.4649 29.7453 85.2113 29.6808 84.9529 29.676V29.6457ZM88.9688 31.1025C89.5046 31.0916 90.0341 31.2192 90.506 31.4728C90.9441 31.7122 91.3061 32.0698 91.551 32.5047C91.806 32.9673 91.9358 33.4882 91.9276 34.0162C91.9379 34.5483 91.808 35.0738 91.551 35.5398C91.313 35.9784 90.9575 36.3421 90.5242 36.59C90.0523 36.8437 89.5228 36.9712 88.9871 36.9603C88.4474 36.9719 87.9138 36.8444 87.4378 36.59C86.9964 36.35 86.632 35.9902 86.3867 35.5519C86.1297 35.0858 85.9998 34.5604 86.0101 34.0283C86.0019 33.5003 86.1317 32.9794 86.3867 32.5169C86.6321 32.0803 86.9966 31.7224 87.4378 31.4849C87.9138 31.2305 88.4474 31.103 88.9871 31.1146L88.9688 31.1025ZM88.9688 31.9888C88.6131 31.9814 88.2622 32.0717 87.9543 32.2498C87.6615 32.4206 87.4233 32.6711 87.2677 32.9721C87.0986 33.2982 87.013 33.6611 87.0187 34.0283C87.0132 34.4014 87.0988 34.7701 87.2677 35.1028C87.4216 35.405 87.6601 35.6559 87.9543 35.8252C88.2622 36.0033 88.6131 36.0936 88.9688 36.0861C89.3186 36.0921 89.6633 36.0018 89.9652 35.8252C90.261 35.656 90.5014 35.4052 90.6578 35.1028C90.8249 34.7697 90.9084 34.4009 90.9008 34.0283C90.9084 33.6617 90.8248 33.2988 90.6578 32.9721C90.4989 32.6715 90.2591 32.4213 89.9652 32.2498C89.6633 32.0731 89.3186 31.9828 88.9688 31.9888ZM94.3699 32.3773C94.5381 31.9894 94.8198 31.6613 95.178 31.4363C95.5555 31.2151 95.9856 31.0997 96.4233 31.1025V32.0858C96.1658 32.0624 95.9064 32.0906 95.6604 32.1688C95.4143 32.247 95.1862 32.3736 94.9896 32.5412C94.6226 32.8865 94.4046 33.3612 94.382 33.8644V36.8996H93.3614V31.145H94.382L94.3699 32.3773ZM104.996 31.1025C105.285 31.0882 105.574 31.1349 105.844 31.2395C106.114 31.344 106.359 31.5042 106.563 31.7096C106.958 32.1614 107.161 32.7495 107.129 33.3485V36.9178H106.102V33.6278C106.129 33.2071 105.99 32.7924 105.712 32.4744C105.569 32.3315 105.397 32.2202 105.208 32.1481C105.018 32.0759 104.816 32.0444 104.613 32.0556C104.366 32.056 104.123 32.1106 103.898 32.2155C103.675 32.3204 103.477 32.473 103.319 32.6625C102.996 33.0685 102.83 33.577 102.851 34.0951V36.942H101.824V33.6278C101.849 33.2082 101.707 32.796 101.429 32.4804C101.285 32.3364 101.113 32.2246 100.922 32.1524C100.731 32.0801 100.527 32.0492 100.324 32.0616C100.077 32.062 99.8328 32.1167 99.6097 32.2216C99.3855 32.3264 99.1881 32.4791 99.0298 32.6686C98.6979 33.0704 98.5272 33.5808 98.5501 34.1012V36.9481H97.5354V31.145H98.5501V32.3591C98.7389 31.9565 99.047 31.6215 99.4332 31.399C99.8185 31.1766 100.263 31.0774 100.706 31.1146C101.179 31.0982 101.645 31.2321 102.037 31.4971C102.393 31.7595 102.646 32.1371 102.754 32.5655C102.915 32.1091 103.223 31.719 103.63 31.4564C104.037 31.1938 104.519 31.0737 105.002 31.1146L104.996 31.1025ZM110.925 30.2284V29.2754H116.91V30.2405H114.437V36.9178H113.386V30.2405L110.925 30.2284ZM120.416 31.1025C120.951 31.0908 121.481 31.2183 121.952 31.4728C122.394 31.7102 122.758 32.0681 123.003 32.5047C123.259 32.9673 123.388 33.4882 123.38 34.0162C123.39 34.5483 123.261 35.0738 123.003 35.5398C122.758 35.978 122.394 36.3379 121.952 36.5778C121.481 36.8323 120.951 36.9598 120.416 36.9481C119.878 36.9604 119.346 36.8328 118.873 36.5778C118.431 36.3379 118.067 35.978 117.822 35.5398C117.564 35.0738 117.434 34.5483 117.445 34.0162C117.436 33.4882 117.566 32.9673 117.822 32.5047C118.067 32.0681 118.431 31.7102 118.873 31.4728C119.346 31.2178 119.878 31.0902 120.416 31.1025ZM120.416 31.9888C120.062 31.9821 119.713 32.0724 119.407 32.2498C119.114 32.4206 118.875 32.6711 118.72 32.9721C118.551 33.2982 118.465 33.6611 118.471 34.0283C118.465 34.4014 118.551 34.7701 118.72 35.1028C118.874 35.405 119.113 35.6559 119.407 35.8252C119.713 36.0025 120.062 36.0928 120.416 36.0861C120.767 36.0922 121.114 36.002 121.418 35.8252C121.714 35.6602 121.957 35.4138 122.116 35.1149C122.284 34.7818 122.367 34.4131 122.359 34.0405C122.367 33.6738 122.283 33.3109 122.116 32.9842C121.958 32.6837 121.717 32.4334 121.424 32.2619C121.119 32.0851 120.773 31.9948 120.421 32.0009L120.416 31.9888ZM132.275 31.1025C132.563 31.0879 132.851 31.1345 133.12 31.2392C133.39 31.3438 133.633 31.504 133.836 31.7096C134.236 32.1591 134.441 32.7482 134.407 33.3485V36.9178H133.375V33.6278C133.398 33.2082 133.257 32.796 132.98 32.4804C132.836 32.3375 132.663 32.2263 132.474 32.1542C132.285 32.082 132.082 32.0505 131.88 32.0616C131.633 32.062 131.389 32.1167 131.165 32.2216C130.942 32.3264 130.743 32.4791 130.586 32.6686C130.263 33.0746 130.097 33.5831 130.118 34.1012V36.9481H129.092V33.6278C129.115 33.2082 128.974 32.796 128.696 32.4804C128.552 32.3364 128.379 32.2246 128.188 32.1524C127.998 32.0801 127.794 32.0492 127.59 32.0616C127.343 32.062 127.099 32.1167 126.876 32.2216C126.652 32.3264 126.455 32.4791 126.296 32.6686C125.969 33.0727 125.801 33.5819 125.822 34.1012V36.9481H124.802V31.145H125.822V32.3591C126.01 31.9564 126.317 31.6211 126.702 31.3985C127.087 31.1759 127.53 31.0769 127.973 31.1146C128.446 31.0965 128.912 31.2306 129.304 31.4971C129.657 31.7604 129.908 32.1379 130.015 32.5655C130.177 32.1086 130.486 31.7183 130.894 31.4558C131.301 31.1933 131.785 31.0733 132.268 31.1146L132.275 31.1025ZM138.624 31.1025C139.159 31.0908 139.689 31.2183 140.16 31.4728C140.602 31.7102 140.966 32.0681 141.211 32.5047C141.467 32.9673 141.596 33.4882 141.588 34.0162C141.598 34.5483 141.469 35.0738 141.211 35.5398C140.966 35.978 140.602 36.3379 140.16 36.5778C139.689 36.8323 139.159 36.9598 138.624 36.9481C138.086 36.9604 137.554 36.8328 137.081 36.5778C136.639 36.3379 136.275 35.978 136.029 35.5398C135.772 35.0738 135.643 34.5483 135.653 34.0162C135.644 33.4882 135.774 32.9673 136.029 32.5047C136.275 32.0681 136.639 31.7102 137.081 31.4728C137.554 31.2178 138.086 31.0902 138.624 31.1025ZM138.624 31.9888C138.27 31.9821 137.921 32.0724 137.615 32.2498C137.322 32.4206 137.084 32.6711 136.928 32.9721C136.759 33.2982 136.673 33.6611 136.679 34.0283C136.673 34.4014 136.759 34.7701 136.928 35.1028C137.083 35.405 137.321 35.6559 137.615 35.8252C137.921 36.0025 138.27 36.0928 138.624 36.0861C138.975 36.0922 139.322 36.002 139.626 35.8252C139.928 35.6631 140.178 35.4162 140.342 35.1149C140.51 34.7818 140.593 34.4131 140.586 34.0405C140.593 33.6738 140.51 33.3109 140.342 32.9842C140.184 32.6837 139.944 32.4334 139.65 32.2619C139.346 32.0851 139 31.9948 138.648 32.0009L138.624 31.9888ZM144.03 32.3773C144.196 31.988 144.479 31.6596 144.839 31.4363C145.207 31.2202 145.626 31.1051 146.054 31.1025V32.0858C145.797 32.0624 145.537 32.0906 145.291 32.1688C145.044 32.247 144.816 32.3736 144.62 32.5412C144.253 32.8865 144.035 33.3612 144.012 33.8644V36.8996H142.992V31.145H144.012L144.03 32.3773ZM148.205 32.3773C148.373 31.9894 148.654 31.6613 149.012 31.4363C149.392 31.2139 149.824 31.0986 150.264 31.1025V32.0858C150.006 32.0624 149.747 32.0906 149.501 32.1688C149.255 32.247 149.027 32.3736 148.83 32.5412C148.466 32.8883 148.249 33.3619 148.223 33.8644V36.8996H147.208V31.145H148.223L148.205 32.3773ZM153.77 31.1025C154.306 31.0908 154.835 31.2183 155.307 31.4728C155.748 31.7102 156.112 32.0681 156.358 32.5047C156.613 32.9673 156.742 33.4882 156.735 34.0162C156.745 34.5483 156.614 35.0738 156.358 35.5398C156.113 35.978 155.748 36.3379 155.307 36.5778C154.835 36.8323 154.306 36.9598 153.77 36.9481C153.232 36.9604 152.699 36.8328 152.226 36.5778C151.785 36.3379 151.421 35.978 151.175 35.5398C150.918 35.0738 150.788 34.5483 150.799 34.0162C150.79 33.4882 150.92 32.9673 151.175 32.5047C151.421 32.0681 151.785 31.7102 152.226 31.4728C152.699 31.2178 153.232 31.0902 153.77 31.1025ZM153.77 31.9888C153.416 31.9821 153.067 32.0724 152.761 32.2498C152.468 32.4206 152.23 32.6711 152.075 32.9721C151.905 33.2982 151.82 33.6611 151.825 34.0283C151.82 34.4014 151.905 34.7701 152.075 35.1028C152.228 35.405 152.467 35.6559 152.761 35.8252C153.067 36.0025 153.416 36.0928 153.77 36.0861C154.121 36.0922 154.468 36.002 154.772 35.8252C155.068 35.656 155.308 35.4052 155.464 35.1028C155.632 34.7697 155.715 34.4009 155.707 34.0283C155.715 33.6617 155.631 33.2988 155.464 32.9721C155.306 32.6715 155.066 32.4213 154.772 32.2498C154.468 32.0729 154.121 31.9826 153.77 31.9888ZM159.341 36.9118L157.196 31.1329H158.253L159.875 35.9101L161.474 31.1329H162.53L164.14 35.9101L165.739 31.1329H166.783L164.645 36.9238H163.587L161.99 32.3833L160.392 36.9238L159.341 36.9118ZM167.877 35.7584C167.956 35.7558 168.034 35.7697 168.108 35.7989C168.18 35.8281 168.247 35.8722 168.302 35.9283C168.359 35.9878 168.404 36.0581 168.434 36.1354C168.462 36.2126 168.476 36.2951 168.472 36.3776C168.477 36.4611 168.464 36.5446 168.435 36.6229C168.405 36.7013 168.36 36.7727 168.302 36.8328C168.248 36.8918 168.183 36.9385 168.109 36.9698C168.036 37.0013 167.957 37.0166 167.877 37.0149C167.797 37.0158 167.718 37.0002 167.645 36.9688C167.572 36.9375 167.506 36.8911 167.451 36.8328C167.393 36.7722 167.348 36.7008 167.318 36.6227C167.287 36.5446 167.273 36.4613 167.275 36.3776C167.272 36.2946 167.286 36.2119 167.317 36.1347C167.347 36.0575 167.393 35.9872 167.451 35.9283C167.566 35.8184 167.718 35.7575 167.877 35.7584ZM171.978 30.2284V29.2754H177.962V30.2405H175.489V36.9178H174.438V30.2405L171.978 30.2284ZM181.474 31.1025C182.01 31.0916 182.539 31.2192 183.011 31.4728C183.449 31.7139 183.813 32.0709 184.062 32.5047C184.317 32.9673 184.446 33.4882 184.439 34.0162C184.448 34.5483 184.319 35.0738 184.062 35.5398C183.813 35.9755 183.45 36.3346 183.011 36.5778C182.539 36.8315 182.01 36.9591 181.474 36.9481C180.934 36.9598 180.4 36.8322 179.924 36.5778C179.483 36.3379 179.118 35.978 178.873 35.5398C178.616 35.0738 178.487 34.5483 178.496 34.0162C178.489 33.4882 178.618 32.9673 178.873 32.5047C179.119 32.0681 179.483 31.7102 179.924 31.4728C180.4 31.2184 180.934 31.0909 181.474 31.1025ZM181.474 31.9888C181.118 31.9814 180.767 32.0717 180.459 32.2498C180.166 32.4206 179.928 32.6711 179.772 32.9721C179.603 33.2982 179.518 33.6611 179.523 34.0283C179.518 34.4014 179.603 34.7701 179.772 35.1028C179.919 35.407 180.152 35.6621 180.441 35.8373C180.749 36.0155 181.1 36.1058 181.456 36.0983C181.807 36.1044 182.154 36.0141 182.458 35.8373C182.75 35.6649 182.987 35.4148 183.145 35.1149C183.311 34.7818 183.394 34.4131 183.387 34.0405C183.394 33.6738 183.311 33.3109 183.145 32.9842C182.987 32.6844 182.75 32.4342 182.458 32.2619C182.154 32.0851 181.807 31.9948 181.456 32.0009L181.474 31.9888ZM190.234 28.8322H191.249V36.9238H190.234V35.7766C190.03 36.1509 189.725 36.4602 189.353 36.6689C188.958 36.882 188.514 36.9887 188.066 36.9785C187.558 36.9878 187.058 36.8576 186.62 36.6021C186.199 36.3526 185.861 35.9881 185.641 35.5519C185.398 35.0794 185.277 34.5536 185.289 34.0223C185.278 33.495 185.399 32.9733 185.641 32.5047C185.863 32.0749 186.202 31.7169 186.62 31.4728C187.055 31.2202 187.551 31.0921 188.053 31.1025C188.507 31.0927 188.956 31.1971 189.36 31.406C189.729 31.6126 190.032 31.92 190.234 32.2922V28.8322ZM188.272 36.1165C188.627 36.1239 188.978 36.0337 189.286 35.8555C189.581 35.6824 189.821 35.4299 189.979 35.1271C190.152 34.8 190.24 34.4347 190.234 34.0648C190.241 33.6928 190.153 33.3251 189.979 32.9964C189.822 32.6913 189.582 32.4367 189.286 32.2619C188.978 32.0838 188.627 31.9935 188.272 32.0009C187.918 31.9961 187.569 32.0885 187.264 32.2679C186.968 32.4427 186.728 32.6974 186.571 33.0025C186.398 33.3295 186.31 33.6949 186.316 34.0648C186.31 34.4347 186.398 34.8 186.571 35.1271C186.729 35.4299 186.969 35.6824 187.264 35.8555C187.57 36.0328 187.918 36.1231 188.272 36.1165ZM197.834 36.936H196.845V36.1165C196.601 36.4118 196.29 36.6438 195.939 36.7929C195.586 36.9419 195.202 37.0036 194.822 36.9724C194.448 36.9766 194.08 36.8913 193.746 36.7236C193.461 36.5899 193.219 36.3798 193.047 36.1165C192.883 35.8438 192.799 35.5303 192.805 35.212C192.798 34.9792 192.847 34.7481 192.946 34.5374C193.045 34.3265 193.192 34.1418 193.375 33.998C193.844 33.6718 194.409 33.5098 194.979 33.5367H196.802V33.2635C196.811 33.0878 196.783 32.9121 196.718 32.7486C196.653 32.5851 196.553 32.4377 196.425 32.3165C196.113 32.0728 195.721 31.9538 195.325 31.9827C194.683 31.9966 194.062 32.2087 193.546 32.5898L193.12 31.8917C193.477 31.6404 193.865 31.4364 194.274 31.2846C194.682 31.1602 195.106 31.1009 195.532 31.1086C196.138 31.0694 196.736 31.2578 197.209 31.6367C197.412 31.8248 197.571 32.0547 197.676 32.3104C197.781 32.5662 197.829 32.8417 197.816 33.1178L197.834 36.936ZM195.022 36.1165C195.453 36.1304 195.877 36.0095 196.237 35.7705C196.397 35.6705 196.534 35.5376 196.639 35.3806C196.743 35.2237 196.814 35.0461 196.845 34.8599V34.2955H195.15C194.797 34.2718 194.444 34.343 194.128 34.5018C194.019 34.5707 193.93 34.668 193.871 34.7835C193.812 34.8989 193.786 35.0281 193.795 35.1575C193.79 35.2943 193.818 35.4303 193.878 35.5539C193.938 35.6776 194.025 35.7851 194.135 35.8677C194.395 36.0458 194.706 36.1333 195.022 36.1165ZM201.705 37.7312C201.559 38.1258 201.309 38.4738 200.982 38.7389C200.672 38.9659 200.297 39.0854 199.913 39.0788C199.683 39.082 199.455 39.0451 199.238 38.9696C199.018 38.8919 198.812 38.7769 198.631 38.6296L199.068 37.8344C199.292 38.0054 199.564 38.1011 199.846 38.1076C200.067 38.1019 200.282 38.0269 200.458 37.8929C200.635 37.7589 200.765 37.5728 200.83 37.3609L201.048 36.851L198.655 31.1329H199.724L201.547 35.7644L203.284 31.1329H204.323L201.705 37.7312ZM205.447 35.7584C205.525 35.7567 205.602 35.7709 205.674 35.8001C205.746 35.8294 205.812 35.873 205.867 35.9283C205.924 35.9878 205.969 36.0581 205.998 36.1354C206.027 36.2126 206.04 36.2951 206.036 36.3776C206.041 36.4611 206.029 36.5446 205.999 36.6229C205.97 36.7013 205.925 36.7727 205.867 36.8328C205.813 36.891 205.748 36.9373 205.677 36.9686C205.604 37 205.526 37.0158 205.447 37.0149C205.368 37.0158 205.289 37.0002 205.215 36.9688C205.142 36.9375 205.076 36.8911 205.022 36.8328C204.964 36.7722 204.919 36.7008 204.888 36.6227C204.859 36.5446 204.844 36.4613 204.846 36.3776C204.843 36.2946 204.857 36.2119 204.887 36.1347C204.918 36.0575 204.963 35.9872 205.022 35.9283C205.136 35.8184 205.289 35.7575 205.447 35.7584Z" fill="#A26100"/>
</g>
</g>
<defs>
<linearGradient id="paint0_linear_8348_57758" x1="-0.151886" y1="19.3164" x2="45.4139" y2="19.3164" gradientUnits="userSpaceOnUse">
<stop offset="0.01" stop-color="#FFAD00"/>
<stop offset="1" stop-color="#FF6600"/>
</linearGradient>
<clipPath id="clip0_8348_57758">
<rect width="206" height="40" fill="white"/>
</clipPath>
</defs>
</svg>
