<svg width="27" height="27" viewBox="0 0 27 27" fill="none" xmlns="http://www.w3.org/2000/svg">
<path d="M18.5625 19.4062L21.78 21.3075L20.9363 22.68L16.875 20.25V14.625H18.5625V19.4062ZM25.875 19.125C25.875 23.4788 22.3538 27 18 27C15.8512 27 13.9162 26.145 12.4987 24.75H6.75C5.50125 24.75 4.5 23.7488 4.5 22.5V4.5C4.5 3.90326 4.73705 3.33097 5.15901 2.90901C5.58097 2.48705 6.15326 2.25 6.75 2.25H7.875V10.125L10.6875 8.4375L13.5 10.125V2.25H20.25C20.8467 2.25 21.419 2.48705 21.841 2.90901C22.2629 3.33097 22.5 3.90326 22.5 4.5V12.6675C24.5362 14.0963 25.875 16.4475 25.875 19.125ZM23.625 19.125C23.625 16.02 21.105 13.5 18 13.5C14.895 13.5 12.375 16.02 12.375 19.125C12.375 22.23 14.895 24.75 18 24.75C21.105 24.75 23.625 22.23 23.625 19.125Z" fill="white"/>
</svg>
