<svg width="32" height="32" viewBox="0 0 32 32" fill="none" xmlns="http://www.w3.org/2000/svg">
<path d="M21.3332 22.6669V25.3335H2.6665V22.6669C2.6665 22.6669 2.6665 17.3335 11.9998 17.3335C21.3332 17.3335 21.3332 22.6669 21.3332 22.6669ZM16.6665 10.0002C16.6665 9.07723 16.3928 8.17498 15.88 7.40755C15.3672 6.64012 14.6384 6.04198 13.7857 5.68877C12.933 5.33557 11.9947 5.24315 11.0894 5.42321C10.1842 5.60328 9.35265 6.04774 8.70001 6.70038C8.04736 7.35303 7.6029 8.18455 7.42284 9.08979C7.24278 9.99504 7.33519 10.9333 7.6884 11.7861C8.04161 12.6388 8.63975 13.3676 9.40718 13.8804C10.1746 14.3932 11.0769 14.6669 11.9998 14.6669C13.2375 14.6669 14.4245 14.1752 15.2997 13.3C16.1748 12.4249 16.6665 11.2379 16.6665 10.0002ZM21.2532 17.3335C22.0728 17.9679 22.7435 18.7741 23.2181 19.6956C23.6926 20.617 23.9595 21.6312 23.9998 22.6669V25.3335H29.3332V22.6669C29.3332 22.6669 29.3332 17.8269 21.2532 17.3335ZM19.9998 5.33355C19.0822 5.32928 18.1849 5.60359 17.4265 6.12021C18.2364 7.25186 18.6719 8.60859 18.6719 10.0002C18.6719 11.3918 18.2364 12.7486 17.4265 13.8802C18.1849 14.3968 19.0822 14.6711 19.9998 14.6669C21.2375 14.6669 22.4245 14.1752 23.2997 13.3C24.1748 12.4249 24.6665 11.2379 24.6665 10.0002C24.6665 8.76253 24.1748 7.57555 23.2997 6.70038C22.4245 5.82521 21.2375 5.33355 19.9998 5.33355Z" fill="white"/>
</svg>
