<svg width="27" height="27" viewBox="0 0 27 27" fill="none" xmlns="http://www.w3.org/2000/svg">
<path d="M9.28125 2.95312V5.0625H17.7188V2.95312C17.7188 2.72109 17.5289 2.53125 17.2969 2.53125H9.70312C9.47109 2.53125 9.28125 2.72109 9.28125 2.95312ZM6.75 5.0625V2.95312C6.75 1.32363 8.07363 0 9.70312 0H17.2969C18.9264 0 20.25 1.32363 20.25 2.95312V25.3125H6.75V5.0625ZM3.375 5.0625H5.0625V25.3125H3.375C1.51348 25.3125 0 23.799 0 21.9375V8.4375C0 6.57598 1.51348 5.0625 3.375 5.0625ZM23.625 25.3125H21.9375V5.0625H23.625C25.4865 5.0625 27 6.57598 27 8.4375V21.9375C27 23.799 25.4865 25.3125 23.625 25.3125Z" fill="white"/>
</svg>
