<svg width="24" height="24" viewBox="0 0 24 24" fill="none" xmlns="http://www.w3.org/2000/svg">
<path d="M20 16V20C17.242 20 14.93 19.505 13 18.675C9.159 17.023 6.824 14.045 5.5 11C4.4 8.472 4 5.898 4 4H8L9 8L5.5 11C6.824 14.045 9.159 17.023 13 18.675L16 15L20 16Z" fill="white"/>
<path d="M13 18.675C14.93 19.505 17.242 20 20 20V16L16 15L13 18.675ZM13 18.675C9.159 17.023 6.824 14.045 5.5 11M5.5 11C4.4 8.472 4 5.898 4 4H8L9 8L5.5 11Z" stroke="white" stroke-width="2" strokeLinecap="round" strokeLinejoin="round"/>
</svg>
