<svg width="28" height="28" viewBox="0 0 28 28" fill="none" xmlns="http://www.w3.org/2000/svg">
<path d="M2.33301 22.1666C2.33301 24.15 3.84967 25.6666 5.83301 25.6666H22.1663C24.1497 25.6666 25.6663 24.15 25.6663 22.1666V12.8333H2.33301V22.1666ZM22.1663 4.66665H19.833V3.49998C19.833 2.79998 19.3663 2.33331 18.6663 2.33331C17.9663 2.33331 17.4997 2.79998 17.4997 3.49998V4.66665H10.4997V3.49998C10.4997 2.79998 10.033 2.33331 9.33301 2.33331C8.63301 2.33331 8.16634 2.79998 8.16634 3.49998V4.66665H5.83301C3.84967 4.66665 2.33301 6.18331 2.33301 8.16665V10.5H25.6663V8.16665C25.6663 6.18331 24.1497 4.66665 22.1663 4.66665Z" fill="white"/>
</svg>
