<svg width="25" height="25" viewBox="0 0 25 25" fill="none" xmlns="http://www.w3.org/2000/svg">
<path d="M12.7871 16.3618C12.6538 16.3618 12.5288 16.3411 12.4121 16.2998C12.2954 16.2585 12.1871 16.1875 12.0871 16.0868L8.48711 12.4868C8.28711 12.2868 8.19111 12.0535 8.19911 11.7868C8.20711 11.5201 8.30311 11.2868 8.48711 11.0868C8.68711 10.8868 8.92478 10.7828 9.20011 10.7748C9.47544 10.7668 9.71278 10.8625 9.91211 11.0618L11.7871 12.9368V5.78681C11.7871 5.50347 11.8831 5.26614 12.0751 5.07481C12.2671 4.88347 12.5044 4.78747 12.7871 4.78681C13.0698 4.78614 13.3074 4.88214 13.5001 5.07481C13.6928 5.26747 13.7884 5.50481 13.7871 5.78681V12.9368L15.6621 11.0618C15.8621 10.8618 16.0998 10.7658 16.3751 10.7738C16.6504 10.7818 16.8878 10.8861 17.0871 11.0868C17.2704 11.2868 17.3664 11.5201 17.3751 11.7868C17.3838 12.0535 17.2878 12.2868 17.0871 12.4868L13.4871 16.0868C13.3871 16.1868 13.2788 16.2578 13.1621 16.2998C13.0454 16.3418 12.9204 16.3625 12.7871 16.3618ZM6.78711 20.7868C6.23711 20.7868 5.76644 20.5911 5.37511 20.1998C4.98378 19.8085 4.78778 19.3375 4.78711 18.7868V16.7868C4.78711 16.5035 4.88311 16.2661 5.07511 16.0748C5.26711 15.8835 5.50444 15.7875 5.78711 15.7868C6.06978 15.7861 6.30744 15.8821 6.50011 16.0748C6.69278 16.2675 6.78844 16.5048 6.78711 16.7868V18.7868H18.7871V16.7868C18.7871 16.5035 18.8831 16.2661 19.0751 16.0748C19.2671 15.8835 19.5044 15.7875 19.7871 15.7868C20.0698 15.7861 20.3074 15.8821 20.5001 16.0748C20.6928 16.2675 20.7884 16.5048 20.7871 16.7868V18.7868C20.7871 19.3368 20.5914 19.8078 20.2001 20.1998C19.8088 20.5918 19.3378 20.7875 18.7871 20.7868H6.78711Z" fill="black"/>
</svg>
