<svg width="24" height="24" viewBox="0 0 24 24" fill="none" xmlns="http://www.w3.org/2000/svg">
<path d="M4.31992 1.92004C3.00015 1.92004 1.91992 3.00028 1.91992 4.32004V19.68C1.91992 20.9998 3.00015 22.08 4.31992 22.08H12.3993C12.4511 22.0886 12.504 22.0886 12.5559 22.08H15.2793C15.3311 22.0886 15.384 22.0886 15.4359 22.08H19.6799C20.9997 22.08 22.0799 20.9998 22.0799 19.68V4.32004C22.0799 3.00028 20.9997 1.92004 19.6799 1.92004H4.31992ZM4.31992 2.88004H19.6799C20.4808 2.88004 21.1199 3.51917 21.1199 4.32004V19.68C21.1199 20.4809 20.4808 21.12 19.6799 21.12H15.8399V14.4H17.6737L18.3459 11.04H15.8399V10.08C15.8399 9.81245 15.8654 9.79153 15.9552 9.73317C16.0451 9.67481 16.3227 9.60004 16.7999 9.60004H18.2399V6.89723L17.9662 6.76692C17.9662 6.76692 16.8636 6.24004 15.3599 6.24004C14.2799 6.24004 13.3927 6.67034 12.8249 7.38004C12.2572 8.08975 11.9999 9.04004 11.9999 10.08V11.04H10.5599V14.4H11.9999V21.12H4.31992C3.51905 21.12 2.87992 20.4809 2.87992 19.68V4.32004C2.87992 3.51917 3.51905 2.88004 4.31992 2.88004ZM15.3599 7.20004C16.3579 7.20004 16.9859 7.4201 17.2799 7.53661V8.64004H16.7999C16.2475 8.64004 15.8049 8.68574 15.4321 8.92786C15.0594 9.16998 14.8799 9.62956 14.8799 10.08V12H17.174L16.8862 13.44H14.8799V21.12H12.9599V13.44H11.5199V12H12.9599V10.08C12.9599 9.20004 13.1827 8.47034 13.5749 7.98004C13.9672 7.48975 14.5199 7.20004 15.3599 7.20004Z" fill="white" fill-opacity="0.8"/>
</svg>
