<svg width="48" height="48" viewBox="0 0 48 48" fill="none" xmlns="http://www.w3.org/2000/svg">
<path d="M7.99974 22C8.5095 22.0006 8.9998 22.1958 9.37047 22.5457C9.74115 22.8956 9.96421 23.3739 9.99408 23.8828C10.024 24.3917 9.85839 24.8928 9.53121 25.2837C9.20403 25.6746 8.73993 25.9258 8.23374 25.986L7.99974 26H5.99974C5.48998 25.9994 4.99967 25.8042 4.629 25.4543C4.25833 25.1044 4.03527 24.6261 4.00539 24.1172C3.97552 23.6083 4.14109 23.1072 4.46827 22.7163C4.79545 22.3254 5.25955 22.0742 5.76574 22.014L5.99974 22H7.99974ZM23.9997 4C24.4896 4.00006 24.9624 4.17991 25.3285 4.50543C25.6946 4.83095 25.9284 5.2795 25.9857 5.766L25.9997 6V8C25.9992 8.50976 25.804 9.00006 25.454 9.37074C25.1041 9.74141 24.6258 9.96447 24.1169 9.99434C23.6081 10.0242 23.107 9.85865 22.7161 9.53147C22.3252 9.20429 22.0739 8.74019 22.0137 8.234L21.9997 8V6C21.9997 5.46957 22.2105 4.96086 22.5855 4.58579C22.9606 4.21071 23.4693 4 23.9997 4ZM41.9997 22C42.5095 22.0006 42.9998 22.1958 43.3705 22.5457C43.7411 22.8956 43.9642 23.3739 43.9941 23.8828C44.024 24.3917 43.8584 24.8928 43.5312 25.2837C43.204 25.6746 42.7399 25.9258 42.2337 25.986L41.9997 26H39.9997C39.49 25.9994 38.9997 25.8042 38.629 25.4543C38.2583 25.1044 38.0353 24.6261 38.0054 24.1172C37.9755 23.6083 38.1411 23.1072 38.4683 22.7163C38.7955 22.3254 39.2595 22.0742 39.7657 22.014L39.9997 22H41.9997ZM9.78574 9.786C10.1301 9.44165 10.5883 9.23478 11.0744 9.20422C11.5604 9.17366 12.0409 9.3215 12.4257 9.62L12.6137 9.786L14.0137 11.186C14.3724 11.5459 14.5807 12.0289 14.5962 12.5368C14.6117 13.0447 14.4333 13.5394 14.0972 13.9206C13.7612 14.3017 13.2926 14.5406 12.7868 14.5888C12.2809 14.637 11.7757 14.4908 11.3737 14.18L11.1857 14.014L9.78574 12.614C9.4108 12.2389 9.20016 11.7303 9.20016 11.2C9.20016 10.6697 9.4108 10.1611 9.78574 9.786ZM35.3857 9.786C35.7457 9.4273 36.2286 9.21905 36.7365 9.20354C37.2444 9.18803 37.7392 9.36643 38.1203 9.7025C38.5014 10.0386 38.7404 10.5071 38.7885 11.0129C38.8367 11.5188 38.6906 12.024 38.3797 12.426L38.2137 12.614L36.8137 14.014C36.4538 14.3727 35.9709 14.5809 35.463 14.5965C34.9551 14.612 34.4603 14.4336 34.0792 14.0975C33.6981 13.7614 33.4591 13.2929 33.4109 12.7871C33.3628 12.2812 33.5089 11.776 33.8197 11.374L33.9857 11.186L35.3857 9.786ZM27.9997 36C28.5302 36 29.0389 36.2107 29.414 36.5858C29.789 36.9609 29.9997 37.4696 29.9997 38C29.9997 39.5913 29.3676 41.1174 28.2424 42.2426C27.1172 43.3679 25.591 44 23.9997 44C22.4084 44 20.8823 43.3679 19.7571 42.2426C18.6319 41.1174 17.9997 39.5913 17.9997 38C17.9998 37.5101 18.1797 37.0373 18.5052 36.6713C18.8307 36.3052 19.2792 36.0713 19.7657 36.014L19.9997 36H27.9997ZM23.9997 12C26.5183 12 28.9731 12.7924 31.0163 14.2651C33.0595 15.7377 34.5875 17.8159 35.3839 20.2053C36.1804 22.5946 36.2049 25.174 35.4539 27.578C34.7029 29.982 33.2146 32.0888 31.1997 33.6C30.9241 33.807 30.5996 33.9393 30.2577 33.984L29.9997 34H17.9997C17.567 34 17.1459 33.8596 16.7997 33.6C14.7849 32.0888 13.2965 29.982 12.5456 27.578C11.7946 25.174 11.8191 22.5946 12.6155 20.2053C13.412 17.8159 14.94 15.7377 16.9832 14.2651C19.0264 12.7924 21.4811 12 23.9997 12Z" fill="white"/>
</svg>
