<svg width="28" height="28" viewBox="0 0 28 28" fill="none" xmlns="http://www.w3.org/2000/svg">
<path d="M22.1667 21H10.5C9.88116 21 9.28767 20.7542 8.85008 20.3166C8.4125 19.879 8.16667 19.2855 8.16667 18.6667V4.66668C8.16667 4.04784 8.4125 3.45435 8.85008 3.01676C9.28767 2.57918 9.88116 2.33334 10.5 2.33334H11.6667V8.16668L14 6.41668L16.3333 8.16668V2.33334H22.1667C22.7855 2.33334 23.379 2.57918 23.8166 3.01676C24.2542 3.45435 24.5 4.04784 24.5 4.66668V18.6667C24.5 19.2855 24.2542 19.879 23.8166 20.3166C23.379 20.7542 22.7855 21 22.1667 21ZM19.8333 23.3333V25.6667H5.83333C5.21449 25.6667 4.621 25.4208 4.18342 24.9833C3.74583 24.5457 3.5 23.9522 3.5 23.3333V7.00001H5.83333V23.3333H19.8333Z" fill="#FFFEFC"/>
</svg>
