<svg width="24" height="24" viewBox="0 0 24 24" fill="none" xmlns="http://www.w3.org/2000/svg">
<path d="M7.67945 1.44043C4.23905 1.44043 1.43945 4.24002 1.43945 7.68043V16.3204C1.43945 19.7608 4.23905 22.5604 7.67945 22.5604H16.3195C19.7599 22.5604 22.5595 19.7608 22.5595 16.3204V7.68043C22.5595 4.24002 19.7599 1.44043 16.3195 1.44043H7.67945ZM7.67945 2.40043H16.3195C19.241 2.40043 21.5995 4.75892 21.5995 7.68043V16.3204C21.5995 19.2419 19.241 21.6004 16.3195 21.6004H7.67945C4.75794 21.6004 2.39945 19.2419 2.39945 16.3204V7.68043C2.39945 4.75892 4.75794 2.40043 7.67945 2.40043ZM17.7595 5.28043C17.5048 5.28043 17.2607 5.38157 17.0806 5.56161C16.9006 5.74164 16.7995 5.98582 16.7995 6.24043C16.7995 6.49504 16.9006 6.73922 17.0806 6.91925C17.2607 7.09929 17.5048 7.20043 17.7595 7.20043C18.0141 7.20043 18.2582 7.09929 18.4383 6.91925C18.6183 6.73922 18.7195 6.49504 18.7195 6.24043C18.7195 5.98582 18.6183 5.74164 18.4383 5.56161C18.2582 5.38157 18.0141 5.28043 17.7595 5.28043ZM11.9995 6.72043C9.08907 6.72043 6.71945 9.09005 6.71945 12.0004C6.71945 14.9108 9.08907 17.2804 11.9995 17.2804C14.9098 17.2804 17.2795 14.9108 17.2795 12.0004C17.2795 9.09005 14.9098 6.72043 11.9995 6.72043ZM11.9995 7.68043C14.391 7.68043 16.3195 9.60887 16.3195 12.0004C16.3195 14.392 14.391 16.3204 11.9995 16.3204C9.6079 16.3204 7.67945 14.392 7.67945 12.0004C7.67945 9.60887 9.6079 7.68043 11.9995 7.68043Z" fill="white" fill-opacity="0.8"/>
</svg>
