<svg width="27" height="27" viewBox="0 0 27 27" fill="none" xmlns="http://www.w3.org/2000/svg">
<g clip-path="url(#clip0_929_2485)">
<path fill-rule="evenodd" clip-rule="evenodd" d="M10.9852 1.20486L9.84272 2.04355C9.64143 2.20412 9.42819 2.34911 9.20484 2.47724C9.05443 2.55719 8.89679 2.62274 8.73403 2.67299C8.55009 2.72868 8.35941 2.75736 7.97634 2.81643L6.57572 3.03074C5.47041 3.19949 4.91691 3.28555 4.48322 3.54374C4.09509 3.77155 3.77278 4.09555 3.54328 4.48368C3.28509 4.92243 3.20072 5.47593 3.03028 6.57618L2.81597 7.9768C2.75691 8.35986 2.72822 8.55224 2.67253 8.73618C2.62191 8.8993 2.55666 9.05568 2.47678 9.2053C2.38566 9.37405 2.27259 9.53099 2.04309 9.84318L1.20441 10.9856C0.542905 11.8867 0.212155 12.3373 0.0839052 12.825C-0.0266663 13.2608 -0.0266663 13.7173 0.0839052 14.1531C0.210468 14.6458 0.542905 15.0981 1.20441 15.9924L2.04309 17.1349C2.27259 17.4471 2.38734 17.604 2.47678 17.7727C2.55553 17.9235 2.62078 18.081 2.67253 18.2452C2.72822 18.4275 2.75691 18.6182 2.81597 19.0012L3.03028 20.4019C3.19903 21.5072 3.28509 22.059 3.54328 22.4944C3.77109 22.8825 4.09509 23.2048 4.48322 23.4343C4.92197 23.6925 5.47547 23.7769 6.57572 23.9473L7.97634 24.1616C8.35941 24.2207 8.55178 24.2511 8.73403 24.3067C8.89716 24.3562 9.05409 24.4215 9.20484 24.5025C9.37359 24.5919 9.53053 24.705 9.84272 24.9362L10.9852 25.7749C11.8863 26.4364 12.3368 26.7671 12.8245 26.8954C13.2599 27.0084 13.7172 27.0084 14.1526 26.8954C14.6453 26.7671 15.0976 26.4364 15.992 25.7749L17.1344 24.9362C17.4466 24.7067 17.6035 24.5919 17.7723 24.5025C17.923 24.4215 18.08 24.3562 18.2431 24.3067C18.427 24.2511 18.6177 24.2224 19.0008 24.1616L20.4014 23.9473C21.5067 23.7785 22.0585 23.6942 22.4939 23.4343C22.882 23.2065 23.206 22.8825 23.4338 22.4944C23.692 22.0556 23.7764 21.5021 23.9468 20.4019L24.1612 19.0012C24.2202 18.6182 24.2489 18.4275 24.3046 18.2435C24.3552 18.0804 24.4205 17.9235 24.5003 17.7727C24.5915 17.604 24.7045 17.4471 24.934 17.1349L25.7727 15.9924C26.4342 15.0913 26.765 14.6424 26.8932 14.1531C27.0038 13.7173 27.0038 13.2608 26.8932 12.825C26.7667 12.3322 26.4342 11.88 25.7727 10.9856L24.934 9.84318C24.7735 9.64189 24.6285 9.42865 24.5003 9.2053C24.4204 9.05489 24.3548 8.89725 24.3046 8.73449C24.2376 8.48594 24.1896 8.23264 24.1612 7.9768L23.9468 6.57618C23.7781 5.47086 23.692 4.91736 23.4338 4.48368C23.2038 4.09693 22.8807 3.77382 22.4939 3.54374C22.0552 3.28555 21.5017 3.20118 20.4014 3.03074L19.0008 2.81643C18.7449 2.78795 18.4916 2.73999 18.2431 2.67299C18.08 2.62375 17.9222 2.55817 17.7723 2.47724C17.5489 2.34911 17.3357 2.20412 17.1344 2.04355L15.992 1.20486C15.0908 0.543363 14.6403 0.212613 14.1526 0.084363C13.7168 -0.0262086 13.2603 -0.0262086 12.8245 0.084363C12.3318 0.212613 11.8795 0.543363 10.9852 1.20486ZM19.9795 10.3342C20.0772 10.2151 20.15 10.0776 20.1936 9.92987C20.2372 9.78213 20.2508 9.62714 20.2335 9.47407C20.2162 9.321 20.1683 9.17295 20.0928 9.03868C20.0173 8.9044 19.9157 8.78662 19.7939 8.6923C19.5462 8.49849 19.2325 8.40908 18.9199 8.44312C18.6072 8.47716 18.3201 8.63197 18.1199 8.87455L12.5343 15.7258L9.54741 13.4308C9.30341 13.2322 8.99151 13.1368 8.67818 13.1648C8.36485 13.1929 8.07486 13.3422 7.87003 13.581C7.76996 13.6981 7.69438 13.8341 7.64775 13.9809C7.60111 14.1277 7.58438 14.2823 7.59854 14.4357C7.6127 14.5891 7.65746 14.7381 7.73018 14.8739C7.80289 15.0097 7.90209 15.1295 8.02191 15.2263L11.9369 18.2807C12.1841 18.4818 12.5009 18.5769 12.818 18.5453C13.1351 18.5137 13.4268 18.3579 13.6295 18.1119L19.9745 10.3157L19.9795 10.3342Z" fill="white"/>
</g>
<defs>
<clipPath id="clip0_929_2485">
<rect width="27" height="27" fill="white"/>
</clipPath>
</defs>
</svg>
