<svg width="48" height="48" viewBox="0 0 48 48" fill="none" xmlns="http://www.w3.org/2000/svg">
<path fill-rule="evenodd" clip-rule="evenodd" d="M24 32C27.713 32 31.274 30.525 33.8995 27.8995C36.525 25.274 38 21.713 38 18C38 14.287 36.525 10.726 33.8995 8.1005C31.274 5.475 27.713 4 24 4C20.287 4 16.726 5.475 14.1005 8.1005C11.475 10.726 10 14.287 10 18C10 21.713 11.475 25.274 14.1005 27.8995C16.726 30.525 20.287 32 24 32ZM24 12C23.432 12 23.052 12.68 22.292 14.046L22.096 14.398C21.88 14.786 21.772 14.978 21.604 15.106C21.434 15.234 21.224 15.282 20.804 15.376L20.424 15.464C18.948 15.798 18.21 15.964 18.034 16.528C17.858 17.092 18.362 17.682 19.368 18.858L19.628 19.162C19.914 19.496 20.058 19.662 20.122 19.87C20.186 20.078 20.164 20.3 20.122 20.746L20.082 21.152C19.93 22.722 19.854 23.508 20.312 23.856C20.772 24.204 21.464 23.886 22.846 23.25L23.202 23.086C23.596 22.906 23.792 22.816 24 22.816C24.208 22.816 24.404 22.906 24.798 23.086L25.154 23.25C26.536 23.888 27.228 24.204 27.688 23.856C28.148 23.508 28.07 22.722 27.918 21.152L27.878 20.746C27.836 20.3 27.814 20.078 27.878 19.87C27.942 19.662 28.086 19.496 28.372 19.162L28.632 18.858C29.638 17.682 30.142 17.094 29.966 16.528C29.79 15.964 29.052 15.798 27.576 15.464L27.196 15.376C26.776 15.282 26.566 15.236 26.396 15.106C26.228 14.978 26.12 14.786 25.904 14.398L25.708 14.046C24.948 12.68 24.568 12 24 12Z" fill="white"/>
<path d="M14.1857 31.882L13.4277 34.646C12.1717 39.23 11.5437 41.522 12.3817 42.776C12.6757 43.216 13.0697 43.568 13.5277 43.802C14.8317 44.466 16.8477 43.416 20.8777 41.316C22.2177 40.616 22.8897 40.268 23.6017 40.192C23.8664 40.1655 24.133 40.1655 24.3977 40.192C25.1097 40.268 25.7797 40.618 27.1217 41.316C31.1517 43.416 33.1677 44.466 34.4717 43.802C34.9297 43.568 35.3237 43.216 35.6177 42.776C36.4577 41.522 35.8277 39.23 34.5717 34.646L33.8137 31.882C30.9458 33.9157 27.5155 35.0055 23.9997 35C20.4839 35.0055 17.0536 33.9157 14.1857 31.882Z" fill="white"/>
</svg>
