<svg width="36" height="36" viewBox="0 0 36 36" fill="none" xmlns="http://www.w3.org/2000/svg">
<path d="M13.6954 2.00966C13.5168 2.03621 13.3463 2.10174 13.1959 2.2016C13.1959 2.2016 11.6394 3.18099 9.96606 4.24037C8.29272 5.29851 6.43113 6.46493 6.00541 6.70116L5.9279 6.73807C4.38252 7.69163 4.06138 9.24932 4.00602 10.1229C4.00232 10.1635 4.00602 10.1967 4.00602 10.2398C3.99248 10.5671 4.00602 10.7775 4.00602 10.7775V26.8502C4.00602 29.1854 6.72889 30.3088 9.31272 30.3088C10.174 30.3088 11.0353 30.1698 11.7735 29.9237C12.2657 29.6776 12.6188 29.1855 12.6188 28.6933V15.7741C12.6188 12.9442 13.234 11.6154 15.0796 10.508C15.5718 10.2619 20.732 6.69993 20.732 6.69993C20.9781 6.45385 21.2316 5.95431 21.2316 5.58519V5.46953C21.2316 4.97738 20.9855 4.60087 20.6164 4.35479C20.2473 4.10871 19.7551 4.10871 19.386 4.35479C19.2629 4.47783 11.7575 9.53108 10.158 10.3924C8.55849 11.3767 7.06601 11.6141 6.69689 11.122C6.58247 11.0076 6.48281 10.6569 6.46681 10.3148V10.2373C6.46804 9.90266 6.55417 9.27269 7.23581 8.85313C7.92729 8.46801 9.6437 7.37173 11.3121 6.31605C12.0171 5.86941 12.1045 5.82143 12.6569 5.46953C12.7297 5.77011 12.9129 6.03228 13.1702 6.20386C13.4275 6.37543 13.74 6.44383 14.0454 6.39543C14.3508 6.34703 14.6269 6.18539 14.8185 5.94268C15.0101 5.69996 15.1034 5.39399 15.0796 5.08565V3.24005C15.081 3.06468 15.0448 2.89104 14.9736 2.73077C14.9024 2.5705 14.7977 2.4273 14.6667 2.31079C14.5356 2.19427 14.3811 2.10712 14.2136 2.05519C14.0461 2.00325 13.8694 1.98773 13.6954 2.00966ZM23.5386 6.31605C23.3429 6.34859 23.158 6.42795 22.9997 6.54736C22.9997 6.54736 16.8058 10.7147 15.7329 11.4296L15.6948 11.469C14.804 12.1371 14.2761 12.9319 14.0411 13.6591C13.9102 14.0695 13.8454 14.4981 13.8492 14.9288V15.3139C13.8474 15.3521 13.8474 15.3903 13.8492 15.4284V30.3088C13.8492 32.6466 16.5413 34 19.0021 34C20.1095 34 21.1085 33.7613 21.8468 33.2691C23.3233 32.4079 30.4596 26.8489 30.4596 26.8489C30.8287 26.6028 31.0748 26.2559 31.0748 25.8868V9.89158C31.0748 9.27638 30.8361 8.90727 30.3439 8.66119C29.9748 8.41511 29.3682 8.53076 28.9991 8.77684C27.0304 10.2533 21.7311 14.4219 20.5007 15.1601C18.7782 16.1445 17.1553 16.3905 16.5401 15.7753C16.294 15.5293 16.31 15.298 16.31 14.9288C16.3166 14.7156 16.3424 14.5359 16.3875 14.3899C16.4564 14.1758 16.5967 13.9125 17.1171 13.5065C17.1417 13.4868 17.1294 13.488 17.1553 13.4684C18.0449 12.8741 20.7653 11.0199 22.5395 9.81407C22.64 10.0837 22.8319 10.3096 23.0817 10.4525C23.3316 10.5953 23.6236 10.646 23.9069 10.5959C24.1903 10.5457 24.4471 10.3978 24.6327 10.1778C24.8183 9.95787 24.921 9.67983 24.9228 9.39204V7.54645C24.9242 7.37107 24.888 7.19743 24.8168 7.03716C24.7456 6.87689 24.6409 6.7337 24.5099 6.61718C24.3788 6.50066 24.2243 6.41352 24.0568 6.36158C23.8893 6.30964 23.7126 6.29412 23.5386 6.31605ZM28.614 15.3139V17.7747L22.462 22.5413V20.0805L28.614 15.3139Z" fill="white"/>
</svg>
