<svg width="24" height="24" viewBox="0 0 24 24" fill="none" xmlns="http://www.w3.org/2000/svg">
<path d="M4.31992 1.92004C3.00015 1.92004 1.91992 3.00028 1.91992 4.32004V19.68C1.91992 20.9998 3.00015 22.08 4.31992 22.08H19.6799C20.9997 22.08 22.0799 20.9998 22.0799 19.68V4.32004C22.0799 3.00028 20.9997 1.92004 19.6799 1.92004H4.31992ZM4.31992 2.88004H19.6799C20.4808 2.88004 21.1199 3.51917 21.1199 4.32004V19.68C21.1199 20.4809 20.4808 21.12 19.6799 21.12H4.31992C3.51905 21.12 2.87992 20.4809 2.87992 19.68V4.32004C2.87992 3.51917 3.51905 2.88004 4.31992 2.88004ZM6.71992 5.28567C6.19422 5.28567 5.72115 5.4428 5.37086 5.73754C5.02057 6.03229 4.80555 6.47261 4.80555 6.94411C4.80555 7.84035 5.58294 8.53906 6.5718 8.60817C6.57242 8.60848 6.57305 8.6088 6.57367 8.60911C6.62079 8.62517 6.67015 8.63371 6.71992 8.63442C7.81097 8.63442 8.6343 7.87016 8.6343 6.94411C8.63421 6.93566 8.6339 6.92722 8.63336 6.91879C8.58452 6.00668 7.77133 5.28567 6.71992 5.28567ZM6.71992 6.23442C7.38819 6.23442 7.65207 6.53286 7.68086 6.95629C7.67503 7.36729 7.42077 7.68567 6.71992 7.68567C6.05493 7.68567 5.7543 7.34511 5.7543 6.94411C5.7543 6.7436 5.82746 6.59251 5.98117 6.46317C6.13488 6.33383 6.38163 6.23442 6.71992 6.23442ZM5.27992 9.12004C5.15262 9.12006 5.03054 9.17063 4.94052 9.26065C4.85051 9.35066 4.79993 9.47274 4.79992 9.60004V18.72C4.79993 18.8473 4.85051 18.9694 4.94052 19.0594C5.03054 19.1495 5.15262 19.2 5.27992 19.2H8.15992C8.28722 19.2 8.4093 19.1495 8.49932 19.0594C8.58933 18.9694 8.63991 18.8473 8.63992 18.72V15.9047V9.60004C8.63991 9.47274 8.58933 9.35066 8.49932 9.26065C8.4093 9.17063 8.28722 9.12006 8.15992 9.12004H5.27992ZM9.59992 9.12004C9.47262 9.12006 9.35054 9.17063 9.26052 9.26065C9.17051 9.35066 9.11993 9.47274 9.11992 9.60004V18.72C9.11993 18.8473 9.17051 18.9694 9.26052 19.0594C9.35054 19.1495 9.47262 19.2 9.59992 19.2H12.4799C12.6072 19.2 12.7293 19.1495 12.8193 19.0594C12.9093 18.9694 12.9599 18.8473 12.9599 18.72V13.92C12.9599 13.5218 13.0686 13.1257 13.2599 12.8663C13.4513 12.6069 13.6926 12.4513 14.1515 12.4594C14.6246 12.4676 14.8751 12.6296 15.0646 12.8841C15.2541 13.1386 15.3599 13.52 15.3599 13.92V18.72C15.3599 18.8473 15.4105 18.9694 15.5005 19.0594C15.5905 19.1495 15.7126 19.2 15.8399 19.2H18.7199C18.8472 19.2 18.9693 19.1495 19.0593 19.0594C19.1493 18.9694 19.1999 18.8473 19.1999 18.72V13.5657C19.1999 12.1441 18.7789 11.0181 18.0571 10.2563C17.3354 9.49446 16.3315 9.12004 15.2699 9.12004C14.261 9.12004 13.4931 9.45839 12.9599 9.80348V9.60004C12.9599 9.47274 12.9093 9.35066 12.8193 9.26065C12.7293 9.17063 12.6072 9.12006 12.4799 9.12004H9.59992ZM5.75992 10.08H7.67992V15.9047V18.24H5.75992V10.08ZM10.0799 10.08H11.9999V10.8291C12 10.9298 12.0316 11.0278 12.0904 11.1095C12.1493 11.1912 12.2323 11.2523 12.3277 11.2842C12.4232 11.3162 12.5262 11.3173 12.6224 11.2874C12.7185 11.2576 12.8028 11.1982 12.8634 11.1179C12.8634 11.1179 13.6171 10.08 15.2699 10.08C16.1115 10.08 16.8332 10.3597 17.3605 10.9163C17.8879 11.4729 18.2399 12.3304 18.2399 13.5657V18.24H16.3199V13.92C16.3199 13.36 16.1857 12.7811 15.8352 12.3104C15.4847 11.8397 14.8952 11.5119 14.1684 11.4994C13.4378 11.4864 12.8387 11.821 12.4874 12.2972C12.1361 12.7735 11.9999 13.3583 11.9999 13.92V18.24H10.0799V10.08Z" fill="white" fill-opacity="0.8"/>
</svg>
