<svg width="48" height="39" viewBox="0 0 48 39" fill="none" xmlns="http://www.w3.org/2000/svg">
<g clip-path="url(#clip0_929_2258)">
<path d="M24.255 6.38999L16.995 12.27C15.7875 13.245 15.555 15 16.47 16.2525C17.4375 17.5875 19.32 17.85 20.6175 16.8375L28.065 11.0475C28.59 10.6425 29.34 10.7325 29.7525 11.2575C30.165 11.7825 30.0675 12.5325 29.5425 12.945L27.975 14.16L38.4 23.76V9.59999H38.3475L38.055 9.41249L32.61 5.92499C31.4625 5.18999 30.12 4.79999 28.755 4.79999C27.12 4.79999 25.53 5.36249 24.255 6.38999ZM25.965 15.72L22.0875 18.735C19.725 20.58 16.2975 20.1 14.5275 17.67C12.8625 15.3825 13.2825 12.1875 15.48 10.41L21.72 5.36249C20.85 4.99499 19.9125 4.80749 18.96 4.80749C17.55 4.79999 16.1775 5.21999 15 5.99999L9.6 9.59999V26.4H11.715L18.57 32.655C20.04 33.9975 22.3125 33.8925 23.655 32.4225C24.0675 31.965 24.345 31.4325 24.4875 30.8775L25.7625 32.0475C27.225 33.39 29.505 33.2925 30.8475 31.83C31.185 31.4625 31.4325 31.035 31.59 30.5925C33.045 31.5675 35.025 31.365 36.2475 30.03C37.59 28.5675 37.4925 26.2875 36.03 24.945L25.965 15.72ZM1.2 9.59999C0.54 9.59999 0 10.14 0 10.8V26.4C0 27.7275 1.0725 28.8 2.4 28.8H4.8C6.1275 28.8 7.2 27.7275 7.2 26.4V9.59999H1.2ZM3.6 24C3.91826 24 4.22348 24.1264 4.44853 24.3515C4.67357 24.5765 4.8 24.8817 4.8 25.2C4.8 25.5182 4.67357 25.8235 4.44853 26.0485C4.22348 26.2736 3.91826 26.4 3.6 26.4C3.28174 26.4 2.97652 26.2736 2.75147 26.0485C2.52643 25.8235 2.4 25.5182 2.4 25.2C2.4 24.8817 2.52643 24.5765 2.75147 24.3515C2.97652 24.1264 3.28174 24 3.6 24ZM40.8 9.59999V26.4C40.8 27.7275 41.8725 28.8 43.2 28.8H45.6C46.9275 28.8 48 27.7275 48 26.4V10.8C48 10.14 47.46 9.59999 46.8 9.59999H40.8ZM43.2 25.2C43.2 24.8817 43.3264 24.5765 43.5515 24.3515C43.7765 24.1264 44.0817 24 44.4 24C44.7183 24 45.0235 24.1264 45.2485 24.3515C45.4736 24.5765 45.6 24.8817 45.6 25.2C45.6 25.5182 45.4736 25.8235 45.2485 26.0485C45.0235 26.2736 44.7183 26.4 44.4 26.4C44.0817 26.4 43.7765 26.2736 43.5515 26.0485C43.3264 25.8235 43.2 25.5182 43.2 25.2Z" fill="white"/>
</g>
<defs>
<clipPath id="clip0_929_2258">
<rect width="48" height="38.4" fill="white"/>
</clipPath>
</defs>
</svg>
