<svg width="40" height="40" viewBox="0 0 40 40" fill="none" xmlns="http://www.w3.org/2000/svg">
<path d="M19.9997 3.33325C16.7033 3.33325 13.481 4.31073 10.7402 6.14209C7.99936 7.97345 5.86315 10.5764 4.60169 13.6219C3.34023 16.6673 3.01017 20.0184 3.65326 23.2514C4.29635 26.4844 5.88369 29.4542 8.21457 31.785C10.5454 34.1159 13.5152 35.7033 16.7482 36.3463C19.9812 36.9894 23.3323 36.6594 26.3777 35.3979C29.4232 34.1365 32.0261 32.0002 33.8575 29.2594C35.6889 26.5186 36.6663 23.2963 36.6663 19.9999C36.6663 17.8112 36.2353 15.644 35.3977 13.6219C34.5601 11.5998 33.3324 9.76245 31.7848 8.21481C30.2372 6.66716 28.3998 5.4395 26.3777 4.60193C24.3556 3.76435 22.1884 3.33325 19.9997 3.33325ZM16.6663 27.4999V12.4999L26.6663 19.9999L16.6663 27.4999Z" fill="white"/>
</svg>
