<svg width="30" height="30" viewBox="0 0 30 30" fill="none" xmlns="http://www.w3.org/2000/svg">
<path d="M18.3837 9.11626C18.2684 8.99687 18.1305 8.90164 17.978 8.83613C17.8255 8.77062 17.6615 8.73614 17.4955 8.7347C17.3295 8.73325 17.1649 8.76488 17.0113 8.82773C16.8577 8.89058 16.7181 8.9834 16.6008 9.10077C16.4834 9.21813 16.3906 9.3577 16.3277 9.51132C16.2649 9.66494 16.2332 9.82954 16.2347 9.99551C16.2361 10.1615 16.2706 10.3255 16.3361 10.478C16.4016 10.6305 16.4969 10.7685 16.6163 10.8838L19.4825 13.75L7.5 13.75C7.16848 13.75 6.85054 13.8817 6.61612 14.1161C6.3817 14.3505 6.25 14.6685 6.25 15C6.25 15.3315 6.3817 15.6495 6.61612 15.8839C6.85054 16.1183 7.16848 16.25 7.5 16.25L19.4825 16.25L16.6163 19.1163C16.3886 19.352 16.2626 19.6678 16.2654 19.9955C16.2683 20.3233 16.3997 20.6368 16.6315 20.8685C16.8632 21.1003 17.1768 21.2318 17.5045 21.2346C17.8322 21.2375 18.148 21.1115 18.3837 20.8838L23.3838 15.8838C23.6181 15.6493 23.7497 15.3315 23.7497 15C23.7497 14.6686 23.6181 14.3507 23.3838 14.1163L18.3837 9.11626Z" fill="black"/>
</svg>
