<svg width="31" height="29" viewBox="0 0 31 29" fill="none" xmlns="http://www.w3.org/2000/svg">
<path d="M8.74044 27.8089C7.22732 28.7217 5.36057 27.3673 5.75882 25.6456L7.26614 19.1294C7.43309 18.4076 7.18743 17.6528 6.62771 17.1675L1.56996 12.7826C0.234898 11.6251 0.946794 9.4317 2.70712 9.2789L9.39975 8.69794C10.1381 8.63384 10.7805 8.1667 11.069 7.48403L13.6578 1.35883C14.3461 -0.269705 16.6539 -0.269705 17.3422 1.35883L19.931 7.48403C20.2195 8.1667 20.8619 8.63384 21.6002 8.69794L28.2929 9.2789C30.0532 9.4317 30.7651 11.6251 29.43 12.7826L24.3723 17.1675C23.8126 17.6528 23.5669 18.4076 23.7339 19.1294L25.2412 25.6456C25.6394 27.3673 23.7727 28.7217 22.2596 27.8089L16.5331 24.3544C15.8977 23.9711 15.1023 23.9711 14.4669 24.3544L8.74044 27.8089Z" fill="#F8BD00"/>
</svg>
