<svg width="38" height="26" viewBox="0 0 38 26" fill="none" xmlns="http://www.w3.org/2000/svg">
<path fill-rule="evenodd" clip-rule="evenodd" d="M7.01562 5.90856C7.61755 5.76243 8.23282 5.68886 8.85 5.68923C13.7375 5.68923 17.6984 10.2366 17.6984 15.8438C17.6984 21.4526 13.7375 26 8.85 26C3.9625 26 0 21.4543 0 15.8438C0 15.6797 0.003125 15.5139 0.0109375 15.3499H0C0 6.88634 6 0 13.375 0V3.40885C10.9828 3.40885 8.77656 4.3431 7.01562 5.90856ZM26.8187 5.90856C27.4094 5.76457 28.0219 5.68923 28.65 5.68923C33.5375 5.68923 37.5 10.2366 37.5 15.8438C37.5 21.4526 33.5375 26 28.65 26C23.7625 26 19.8016 21.4543 19.8016 15.8438C19.8016 15.6797 19.8047 15.5139 19.8125 15.3499H19.8016C19.8016 6.88634 25.8016 0 33.1766 0V3.40885C30.7828 3.40885 28.5797 4.3431 26.8187 5.90856Z" fill="url(#paint0_linear_929_2662)" fill-opacity="0.4"/>
<defs>
<linearGradient id="paint0_linear_929_2662" x1="0" y1="13" x2="37.5" y2="13" gradientUnits="userSpaceOnUse">
<stop stop-color="#D9D9D9"/>
<stop offset="1" stop-color="white"/>
</linearGradient>
</defs>
</svg>
