<svg width="46" height="46" viewBox="0 0 46 46" fill="none" xmlns="http://www.w3.org/2000/svg">
<rect x="-0.00390625" width="46" height="46" rx="12" fill="#09678A"/>
<path d="M22.9961 17C23.0321 17 28.635 17.0015 30.0391 17.3857C30.8098 17.5934 31.4174 18.2009 31.625 18.9717C32.0106 20.3801 31.9961 23.3164 31.9961 23.3164C31.9961 23.3377 31.9943 26.2421 31.625 27.6455C31.4174 28.4164 30.8101 29.0249 30.0391 29.2324C28.6326 29.6027 23.0128 29.6025 22.9961 29.6025C22.9961 29.6025 17.3764 29.6033 15.9531 29.2178C15.1821 29.0101 14.5748 28.4018 14.3672 27.6309C13.9987 26.2453 13.9961 23.3358 13.9961 23.3018C13.9961 23.3018 13.9965 20.3801 14.3672 18.9717C14.5748 18.201 15.1972 17.5786 15.9531 17.3711C17.3617 17.0003 22.9961 17 22.9961 17ZM21.2021 26L25.8877 23.3018L21.2021 20.6035V26Z" fill="white"/>
</svg>
