<svg width="16" height="16" viewBox="0 0 16 16" fill="none" xmlns="http://www.w3.org/2000/svg">
<path d="M8.00016 1.33398C11.6822 1.33398 14.6668 4.31865 14.6668 8.00065C14.6668 11.6827 11.6822 14.6673 8.00016 14.6673C4.31816 14.6673 1.3335 11.6827 1.3335 8.00065C1.3335 4.31865 4.31816 1.33398 8.00016 1.33398ZM8.00016 2.66732C6.58567 2.66732 5.22912 3.22922 4.22893 4.22941C3.22873 5.22961 2.66683 6.58616 2.66683 8.00065C2.66683 9.41514 3.22873 10.7717 4.22893 11.7719C5.22912 12.7721 6.58567 13.334 8.00016 13.334C9.41465 13.334 10.7712 12.7721 11.7714 11.7719C12.7716 10.7717 13.3335 9.41514 13.3335 8.00065C13.3335 6.58616 12.7716 5.22961 11.7714 4.22941C10.7712 3.22922 9.41465 2.66732 8.00016 2.66732ZM8.00016 4.00065C8.16345 4.00067 8.32105 4.06062 8.44308 4.16913C8.5651 4.27763 8.64306 4.42715 8.66216 4.58932L8.66683 4.66732V7.72465L10.4715 9.52932C10.5911 9.64929 10.6605 9.81027 10.6656 9.97957C10.6708 10.1489 10.6114 10.3138 10.4993 10.4408C10.3873 10.5679 10.2311 10.6475 10.0625 10.6636C9.8939 10.6796 9.72549 10.6309 9.5915 10.5273L9.52883 10.472L7.52883 8.47198C7.42522 8.36828 7.35867 8.23332 7.3395 8.08798L7.3335 8.00065V4.66732C7.3335 4.49051 7.40373 4.32094 7.52876 4.19591C7.65378 4.07089 7.82335 4.00065 8.00016 4.00065Z" fill="white"/>
</svg>
