<svg width="64" height="64" viewBox="0 0 64 64" fill="none" xmlns="http://www.w3.org/2000/svg">
<circle cx="32" cy="32" r="32" fill="#EFEFEF" fill-opacity="0.22"/>
<path d="M44 34.1012V43H39.0702V34.697C39.0702 32.6107 38.3569 31.1877 36.573 31.1877C35.2109 31.1877 34.3997 32.1476 34.0436 33.075C33.9134 33.4066 33.88 33.8685 33.88 34.3328V43H28.9478C28.9478 43 29.0147 28.9385 28.9478 27.4805H33.88V29.6802L33.8477 29.7309H33.88V29.6802C34.5345 28.625 35.7041 27.1163 38.3235 27.1163C41.5674 27.1163 44 29.3353 44 34.1012ZM23.7899 20C22.104 20 21 21.1577 21 22.6808C21 24.1702 22.0717 25.3629 23.7253 25.3629H23.7576C25.4781 25.3629 26.5463 24.1702 26.5463 22.6808C26.5164 21.1577 25.4781 20 23.7899 20ZM21.2927 43H26.2225V27.4805H21.2927V43Z" fill="white"/>
</svg>
