<svg width="64" height="64" viewBox="0 0 64 64" fill="none" xmlns="http://www.w3.org/2000/svg">
<circle cx="32" cy="32" r="32" fill="#EFEFEF" fill-opacity="0.22"/>
<path d="M40.4054 23.4875C38.1607 21.2375 35.1714 20 31.9946 20C25.4375 20 20.1018 25.3357 20.1018 31.8929C20.1018 33.9875 20.6482 36.0339 21.6875 37.8393L20 44L26.3054 42.3446C28.0411 43.2929 29.9964 43.7911 31.9893 43.7911H31.9946C38.5464 43.7911 44 38.4554 44 31.8982C44 28.7214 42.65 25.7375 40.4054 23.4875V23.4875ZM31.9946 41.7875C30.2161 41.7875 28.475 41.3107 26.9589 40.4107L26.6 40.1964L22.8607 41.1768L23.8571 37.5286L23.6214 37.1536C22.6304 35.5786 22.1107 33.7625 22.1107 31.8929C22.1107 26.4446 26.5464 22.0089 32 22.0089C34.6411 22.0089 37.1214 23.0375 38.9857 24.9071C40.85 26.7768 41.9964 29.2571 41.9911 31.8982C41.9911 37.3518 37.4429 41.7875 31.9946 41.7875V41.7875ZM37.4161 34.3839C37.1214 34.2339 35.6589 33.5161 35.3857 33.4196C35.1125 33.3179 34.9143 33.2696 34.7161 33.5696C34.5179 33.8696 33.95 34.5339 33.7732 34.7375C33.6018 34.9357 33.425 34.9625 33.1304 34.8125C31.3839 33.9393 30.2375 33.2536 29.0857 31.2768C28.7804 30.7518 29.3911 30.7893 29.9589 29.6536C30.0554 29.4554 30.0071 29.2839 29.9321 29.1339C29.8571 28.9839 29.2625 27.5214 29.0161 26.9268C28.775 26.3482 28.5286 26.4286 28.3464 26.4179C28.175 26.4071 27.9768 26.4071 27.7786 26.4071C27.5804 26.4071 27.2589 26.4821 26.9857 26.7768C26.7125 27.0768 25.9464 27.7946 25.9464 29.2571C25.9464 30.7196 27.0125 32.1339 27.1571 32.3321C27.3071 32.5304 29.2518 35.5304 32.2357 36.8214C34.1214 37.6357 34.8607 37.7054 35.8036 37.5661C36.3768 37.4804 37.5607 36.8482 37.8071 36.1518C38.0536 35.4554 38.0536 34.8607 37.9786 34.7375C37.9089 34.6036 37.7107 34.5286 37.4161 34.3839Z" fill="white"/>
</svg>
