<svg width="300" height="300" viewBox="0 0 300 300" fill="none" xmlns="http://www.w3.org/2000/svg">
<path d="M171.098 70.3436C165.93 62.7731 155.819 63.8201 147.816 63.8756C129.168 64.0001 51.7951 63.9041 46.3621 64.1756C37.9936 64.6061 29.5906 67.9961 28.2316 76.3256C27.4981 80.8256 28.1476 85.6361 28.3156 90.1706C28.9906 108.528 29.4946 131.236 31.7551 147.594C32.3686 152.043 33.1741 156.502 35.9416 160.179C40.3096 165.984 48.9661 168.024 56.2291 168.145C56.3146 168.288 122.774 169.852 146.798 168.052C153.786 167.527 162.297 167.002 167.009 161.02C169.37 158.02 169.571 153.696 170.043 150.054C171.743 136.986 172.877 114.871 174.362 91.1561C174.786 84.3836 175.116 76.2281 171.098 70.3436ZM172.935 86.8436C172.886 89.5556 170.865 121.624 170.733 123.57C170.283 130.149 168.836 150.846 166.965 157.309C165.116 163.689 156.806 165.259 151.16 165.859C146.376 166.377 141.56 166.674 136.749 166.83C112.059 167.628 58.4296 167.46 56.2816 167.403C47.5816 167.002 37.8211 164.452 34.5421 155.427C33.3292 151.324 32.6599 147.08 32.5516 142.803C30.9151 123.118 31.1671 117.177 29.9131 86.8766C29.7361 82.5386 28.8511 77.4386 30.8401 73.3841C35.2021 64.5191 48.3766 65.7626 56.4481 65.6741C65.9416 65.5706 146.511 65.5106 151.499 65.4701C155.933 65.4341 160.719 65.2091 164.849 67.1336C172.298 70.6001 173.064 79.6091 172.935 86.8376V86.8436Z" fill="white"/>
<path d="M101.283 174.07C102.446 176.695 106.799 175.367 105.279 171.862C105.152 171.561 104.959 171.292 104.715 171.075C104.471 170.858 104.182 170.697 103.868 170.605C103.555 170.513 103.225 170.492 102.902 170.542C102.579 170.593 102.272 170.715 102.002 170.899C101.076 171.533 100.266 173.237 101.312 174.143C101.354 174.186 101.407 174.215 101.466 174.226C101.524 174.238 101.585 174.232 101.64 174.209C101.695 174.186 101.742 174.148 101.775 174.098C101.808 174.048 101.825 173.99 101.825 173.93C101.889 173.237 101.753 172.499 102.33 171.98C102.476 171.834 102.653 171.721 102.848 171.652C103.042 171.583 103.25 171.558 103.456 171.58C103.662 171.602 103.86 171.67 104.036 171.778C104.212 171.887 104.361 172.034 104.472 172.208C104.709 172.539 104.811 172.947 104.759 173.351C104.707 173.754 104.503 174.122 104.19 174.382C103.785 174.608 103.309 174.672 102.859 174.561C102.409 174.449 102.017 174.171 101.765 173.782C101.576 173.47 101.139 173.746 101.283 174.07Z" fill="white"/>
<path d="M95.3561 190.233C97.6953 190.632 100.069 190.793 102.441 190.715C105.031 190.791 107.634 190.88 110.223 190.865C110.394 190.857 110.555 190.783 110.673 190.659C110.791 190.535 110.857 190.371 110.857 190.2C110.857 190.029 110.791 189.864 110.673 189.74C110.555 189.616 110.394 189.543 110.223 189.534C107.634 189.429 105.031 189.422 102.441 189.41C100.077 189.248 97.7034 189.327 95.3561 189.645C95.2931 189.665 95.2381 189.704 95.1989 189.757C95.1598 189.81 95.1387 189.874 95.1387 189.939C95.1387 190.005 95.1598 190.069 95.1989 190.122C95.2381 190.175 95.2931 190.214 95.3561 190.233Z" fill="white"/>
<path d="M182.582 64.085C180.873 60.2889 177.743 57.3144 173.865 55.8005C168.926 53.864 163.424 54.17 158.22 54.218C136.056 54.422 45.0661 54.3545 38.8036 54.614C33.9144 54.678 29.125 56.0066 24.9016 58.4705C15.4516 64.439 17.6086 74.3945 17.9866 85.559C18.7126 107.024 19.2661 133.667 21.6721 152.744C22.3051 157.768 23.0026 162.856 25.7011 167.258C30.5191 175.114 40.2751 178.079 49.4536 178.042C49.8076 178.042 70.2121 178.531 93.6121 178.705C93.6481 179.939 93.8926 181.303 94.0306 182.605C93.5206 182.543 79.7806 182.887 75.7426 183.461C75.6587 183.478 75.5796 183.513 75.5109 183.564C75.4422 183.615 75.3857 183.68 75.3452 183.756C75.3048 183.831 75.2816 183.915 75.2771 184C75.2727 184.086 75.2872 184.171 75.3196 184.25C73.2496 185.999 71.4196 188.168 69.5326 190.081C67.2106 192.422 64.7611 194.695 62.5921 197.177C62.5022 197.271 62.4527 197.396 62.454 197.526C62.4554 197.656 62.5076 197.78 62.5994 197.872C62.6913 197.964 62.8154 198.016 62.9453 198.017C63.0751 198.018 63.2003 197.969 63.2941 197.879C65.7241 195.649 67.9321 193.144 70.2181 190.766C72.1201 188.785 74.2996 186.866 76.0141 184.7C82.0358 184.162 88.0818 183.943 94.1266 184.045C94.1386 185.03 94.0861 186.197 95.0641 186.697C95.2141 186.776 95.4766 186.721 95.5051 186.515C95.5771 185.213 95.5233 183.907 95.3446 182.615C95.3154 181.284 95.0697 179.967 94.6171 178.715C100.071 178.754 105.674 178.774 111.21 178.765C110.498 181.008 110.395 183.401 110.91 185.698C110.932 185.769 110.977 185.832 111.038 185.877C111.098 185.922 111.172 185.946 111.247 185.946C111.322 185.946 111.395 185.922 111.456 185.877C111.517 185.832 111.561 185.769 111.584 185.698C111.778 185.045 111.894 184.372 111.93 183.692C114.999 184.102 117.542 183.815 125.81 184.331C127.065 184.411 128.856 184.429 129.914 184.423C131.47 186.566 133.302 188.496 135.363 190.16C137.38 192.143 139.506 194.012 141.731 195.758C142.268 196.163 142.931 195.277 142.448 194.828C140.307 192.871 138.057 191.039 135.921 189.07C134.293 187.327 132.555 185.69 130.719 184.168C130.748 184.079 130.746 183.983 130.714 183.895C130.682 183.807 130.621 183.733 130.541 183.685C129.275 183.209 127.925 182.997 126.575 183.061C124.787 182.948 122.997 182.861 121.206 182.8C118.149 182.496 115.076 182.389 112.005 182.479C112.089 181.15 112.32 179.921 112.331 178.763C128.13 178.729 143.279 178.454 152.784 177.7C160.851 177.058 170.723 176.588 176.247 169.75C179.106 166.214 179.375 161.323 179.936 156.976C182.307 138.625 183.3 110.272 184.8 89.2685C185.402 81.0275 186.11 71.807 182.582 64.085ZM183.555 82.985C183.467 85.52 181.239 122.177 181.005 125.834C180.498 133.534 178.836 157.558 176.739 165.086C174.714 172.36 165.761 174.488 159.266 175.277C153.701 175.955 148.068 176.312 142.466 176.501C113.979 177.467 50.6431 177.115 49.5121 177.073C39.1801 176.623 28.1896 173.278 24.6451 162.484C23.0776 157.712 22.8886 152.497 22.4926 147.517C20.9266 127.757 21.0316 121.442 19.6426 82.9085C19.4536 77.801 18.5476 72.128 20.0026 67.145C23.4226 55.457 38.8231 56.222 48.3256 56.0975C59.5636 55.9475 155.645 55.8335 161.382 55.7975C166.551 55.7705 172.119 55.9025 176.498 59.0255C183.752 64.1945 183.836 74.978 183.555 82.9805V82.985Z" fill="white"/>
<path d="M8.77768 238.259C9.68518 236.974 30.9057 213.059 31.9602 211.87C32.624 211.082 33.4681 210.466 34.4207 210.075C35.3733 209.683 36.4064 209.527 37.4322 209.62C51.8862 209.536 66.3447 209.444 80.7987 209.677C107.769 210.118 167.097 208.606 169.086 208.627C171.036 208.646 173.551 208.198 175.039 209.629C176.458 210.995 191.137 230.959 196.269 236.306C197.067 237.136 198.325 235.874 197.532 235.043C192.508 229.804 179.967 212.92 177.918 210.367C177.182 209.175 176.212 208.146 175.068 207.34C172.507 206.063 142.804 207.62 130.107 207.908C115.077 208.252 118.942 207.985 39.0252 207.964C35.4897 207.964 32.9877 208.114 30.6582 211.007C27.9792 214.339 8.93818 236.423 8.08468 237.85C7.81918 238.303 8.48518 238.673 8.77768 238.259Z" fill="white"/>
<path d="M194.95 243.928C196.261 241.699 198.975 238.051 197.673 237.628C195.66 236.986 9.14201 238.705 9.14201 238.705C9.14201 238.705 5.55401 238.798 8.99201 241.997C12.43 245.197 12.592 246.014 18.799 245.774C25.006 245.534 177.288 245.048 181.533 245.116C185.778 245.183 194.119 245.339 194.95 243.928Z" fill="white"/>
<path d="M28.588 223.166C27.268 224.801 21.4075 230.825 21.1705 232.316C21.1386 232.448 21.1489 232.587 21.2 232.713C21.2512 232.839 21.3405 232.946 21.4555 233.018C22.2565 233.531 46.5745 233.018 51.994 232.999C63.442 232.951 144.612 233.449 146.665 233.476C148.236 233.495 149.347 233.162 148.578 231.403C145.954 225.403 143.349 219.403 140.683 213.421C140.005 211.904 139.464 211.7 137.833 211.708C137.833 211.708 40.4575 211.708 37.378 211.672C37.2356 211.679 37.1015 211.741 37.0033 211.844C36.9051 211.948 36.8504 212.085 36.8504 212.228C36.8504 212.37 36.9051 212.507 37.0033 212.611C37.1015 212.714 37.2356 212.776 37.378 212.783C56.6275 212.971 133.347 212.731 138.748 213.052C139.185 213.079 138.598 212.063 147.172 231.395C147.292 231.664 147.261 232.145 145.84 232.18C144.855 232.201 50.674 231.803 29.1025 231.964C27.9565 231.964 23.0935 232.168 23.1295 231.88C23.2495 230.914 30.745 222.949 37.141 213.148C37.3615 212.81 36.841 212.534 36.613 212.839C36.601 212.834 31.5175 219.536 28.588 223.166Z" fill="white"/>
<path d="M151.19 228.879C151.683 230.323 152.314 231.717 153.076 233.04C153.526 233.656 153.826 233.649 154.576 233.673C158.758 233.803 170.392 233.272 182.026 233.5C182.795 233.517 185.968 234.001 185.926 232.75C185.864 230.914 180.287 224.428 172.598 212.43C171.721 211.059 171.343 210.975 169.607 211.051C166.769 211.171 150.053 211.773 144.536 211.951C143.803 211.975 143.798 213.118 144.536 213.094C173.008 212.194 170.816 212.125 170.99 212.236C171.551 212.593 172.114 213.973 172.474 214.525C173.276 215.745 183.043 230.286 183.929 231.558C184.459 232.315 183.941 232.272 182.879 232.251C181.679 232.224 155.62 232.392 154.772 232.384C153.722 232.371 153.209 230.323 152.78 229.408C147.281 217.654 146.405 215.844 144.902 213.391C144.665 213.006 144.052 213.123 144.22 213.516C146.851 219.675 148.801 223.474 151.19 228.879Z" fill="white"/>
<path d="M85.3338 97.3525C84.8418 90.946 87.5838 84.3625 90.2838 81.6025C93.0706 78.9997 96.7091 77.4997 100.52 77.3824C104.332 77.2651 108.056 78.5385 110.997 80.965C114.923 84.3939 117.468 89.1334 118.158 94.3C118.451 95.527 119.508 98.6275 115.308 98.911C115.008 98.932 114.149 98.1745 114.029 97.942C112.829 95.6155 112.629 92.9335 111.615 90.5275C110.416 87.4569 108.124 84.9379 105.18 83.455C103.705 82.7455 102.065 82.4509 100.435 82.6028C98.8057 82.7548 97.2482 83.3475 95.9298 84.3175C93.5165 86.4842 91.9461 89.4337 91.4958 92.6455C90.1248 101.394 93.5448 107.592 94.4148 107.965C94.9079 108.135 95.4315 108.198 95.9508 108.15C100.076 108.049 116.478 107.4 120.383 107.479C120.797 107.488 121.719 107.629 121.979 108.349C122.913 110.935 122.384 117.214 122.333 117.856C122.133 120.331 120.617 118.728 118.082 120.322C109.607 119.272 106.641 118.851 105.032 119.316C104.7 119.395 104.387 119.542 104.113 119.747C103.84 119.952 103.611 120.21 103.44 120.507C103.22 121.142 103.256 121.839 103.541 122.449C103.825 123.058 104.336 123.533 104.964 123.774C106.194 124.32 107.675 124.492 108.665 125.025C108.581 126.675 108.777 127.302 108.696 128.958C108.645 129.374 108.686 129.797 108.816 130.197C108.962 130.486 109.178 130.735 109.446 130.918C109.713 131.102 110.022 131.215 110.345 131.247C110.991 131.302 111.642 131.246 112.269 131.082C112.253 129.017 112.597 126.965 113.288 125.019C114.534 125.227 115.929 125.733 117.176 125.941C117.326 125.974 116.082 130.092 116.315 131.755C116.399 132.345 117.389 132.184 117.485 132.304C118.941 134.152 119.498 134.53 120.504 134.775C121.635 135.051 121.808 135.564 122.019 136.92C123.519 146.478 113.85 155.11 103.898 155.283C98.3208 155.383 88.6653 155.283 81.6768 145.203C80.0853 143.011 79.1961 140.389 79.1268 137.682C79.306 137.033 79.6035 136.422 80.0043 135.882C82.4148 133.578 84.3033 131.58 83.9778 127.366C83.7093 123.87 82.2783 120.706 78.9423 120.081C78.6543 120.03 77.9958 119.038 77.9523 118.746C77.4706 115.653 77.399 112.511 77.7393 109.401C77.8709 109.159 78.0743 108.964 78.3213 108.843C80.2008 108.442 84.9528 108.718 86.8203 108.366C86.9994 108.179 87.1366 107.956 87.223 107.712C87.3094 107.468 87.3429 107.209 87.3213 106.951C86.2157 103.86 85.5467 100.629 85.3338 97.3525Z" fill="#38A1FF"/>
<path d="M141.496 105.918C141.325 108.735 139.608 142.745 140.305 145.506C140.329 145.584 140.377 145.652 140.443 145.701C140.508 145.749 140.587 145.775 140.668 145.775C140.75 145.775 140.829 145.749 140.894 145.701C140.96 145.652 141.008 145.584 141.031 145.506C141.835 142.886 141.859 109.238 141.817 105.918C141.817 105.876 141.801 105.835 141.77 105.805C141.74 105.775 141.7 105.758 141.657 105.758C141.614 105.758 141.574 105.775 141.544 105.805C141.513 105.835 141.496 105.876 141.496 105.918Z" fill="white"/>
<path d="M216.328 118.772C212.139 117.507 207.626 117.872 203.694 119.794C198.594 122.285 195.265 127.493 193.272 133.024C192.6 131.881 191.558 131.002 190.318 130.531C188.086 129.701 183.627 130.531 183.504 133.499C183.504 133.588 183.531 133.676 183.58 133.75C183.63 133.824 183.7 133.881 183.783 133.915C183.865 133.949 183.956 133.958 184.043 133.94C184.131 133.922 184.211 133.879 184.273 133.816C185.841 132.56 187.54 131.278 189.673 132.071C190.329 132.312 190.91 132.722 191.356 133.26C191.802 133.798 192.097 134.445 192.211 135.134C192.286 135.997 192.095 136.863 191.663 137.614C191.232 138.364 190.58 138.965 189.796 139.334C188.708 139.703 187.528 139.7 186.442 139.325C185.355 138.949 184.425 138.224 183.796 137.261C183.723 137.173 183.541 137.185 183.555 137.321C183.871 140.689 188.599 142.121 191.374 140.278C189.961 148.505 191.73 158.203 199.188 161.999C201.044 162.963 203.075 163.543 205.16 163.705C207.244 163.866 209.341 163.605 211.322 162.938C213.304 162.27 215.131 161.21 216.694 159.821C218.256 158.431 219.523 156.741 220.417 154.85C220.894 153.875 219.447 153.014 218.95 153.992C217.498 157.093 214.944 159.544 211.787 160.869C208.629 162.193 205.091 162.297 201.861 161.161C194.407 158.761 192.082 150.263 192.664 143.219C193.108 138.703 194.37 134.306 196.389 130.241C197.768 126.956 200.068 124.14 203.013 122.134C206.562 119.992 210.797 119.289 214.848 120.169C221.379 121.576 225.208 129.238 224.611 135.38C224.578 135.701 225.043 135.716 225.141 135.449C227.467 129.071 222.546 120.913 216.328 118.772Z" fill="white"/>
<path d="M214.652 150.061C212.385 151.81 210.177 153.783 207.174 153.961C201.87 154.284 196.712 147.87 200.33 138.264C202.113 133.533 206.007 126.954 211.712 126.774C212.927 126.727 214.132 127.019 215.191 127.616C216.25 128.214 217.123 129.094 217.712 130.158C218.45 131.613 218.057 133.149 218.586 134.595C218.736 135.012 219.42 135.229 219.645 134.736C221.081 131.577 218.867 127.686 216.077 126.127C211.877 123.783 207.096 125.677 204.089 129.019C198.581 135.148 193.484 148.279 202.277 154.024C206.667 156.895 212.096 154.35 215.063 150.604C215.291 150.33 214.991 149.799 214.652 150.061Z" fill="white"/>
<path d="M106.223 119.792C108.362 119.523 110.532 119.631 112.634 120.113C122.514 121.331 132.354 123.874 138.686 123.442C138.918 123.425 139.011 123.059 138.743 123.008C134.355 122.171 129.842 122.035 125.432 121.276C121.209 120.551 117.003 119.717 112.758 119.152C110.592 118.655 108.365 118.476 106.148 118.621C105.714 118.006 105.123 117.52 104.437 117.212C103.751 116.904 102.995 116.786 102.248 116.87C97.2031 116.902 96.1216 122.371 98.0176 125.602C98.6167 126.623 99.3764 127.541 100.268 128.321C100.45 128.477 100.58 128.685 100.64 128.918C100.7 129.15 100.687 129.395 100.604 129.62C100.035 131.143 98.7601 134.515 97.7176 136.856C97.6743 136.953 97.6557 137.059 97.6633 137.165C97.6709 137.271 97.7046 137.373 97.7613 137.463C97.8179 137.553 97.8959 137.627 97.9882 137.68C98.0806 137.732 98.1844 137.761 98.2906 137.764C101.237 137.843 104.309 137.959 107.247 137.896C107.35 137.893 107.451 137.866 107.541 137.816C107.631 137.766 107.708 137.695 107.765 137.609C107.822 137.524 107.858 137.425 107.869 137.323C107.88 137.221 107.866 137.117 107.829 137.021C106.826 134.431 106.262 132.013 105.234 129.511C105.138 129.282 105.118 129.029 105.177 128.789C105.237 128.549 105.373 128.334 105.564 128.177C106.032 127.77 106.402 127.262 106.646 126.692C106.891 126.122 107.003 125.504 106.976 124.885C109.376 125.8 106.715 129.298 107.628 130.984C108.153 131.957 110.727 132.358 111.698 132.122C113.436 131.699 112.961 127.259 113.526 126.316C113.876 125.726 116.337 126.493 116.426 126.649C116.385 127.122 116.289 127.589 116.141 128.041C115.896 129.391 114.791 131.816 116.486 132.427C117.13 132.531 117.782 132.585 118.436 132.59C118.937 132.746 119.452 132.853 119.975 132.908C121.656 132.779 121.259 130.192 121.535 128.878C121.923 127.001 122.894 127.495 124.418 127.78C128.987 128.799 133.605 129.589 138.254 130.145C138.887 130.198 139.044 129.119 138.404 129.023C134.654 128.456 130.953 127.907 127.25 127.09C125.491 126.514 123.672 126.144 121.829 125.987C120.714 126.035 120.662 126.845 120.479 127.82C120.454 128.935 120.275 130.041 119.945 131.107C119.48 131.801 118.806 131.407 118.058 131.341C116.265 131.18 116.922 130.301 116.963 130.057C117.126 129.074 118.106 126.545 117.207 125.719C116.025 125.194 114.75 124.906 113.457 124.873C112.823 124.969 112.722 125.282 112.539 125.831C112.327 126.648 112.159 127.477 112.037 128.312C111.929 128.822 112.158 131.291 110.169 130.712C109.05 130.271 108.909 130.112 108.777 128.897C108.645 127.682 109.331 126.374 109.187 125.18C109.079 124.265 108.806 124.181 107.888 123.965C106.902 123.733 105.746 123.836 104.921 123.143C103.268 121.757 104.723 120.178 106.223 119.792Z" fill="white"/>
<path d="M179.65 121.061V121.327C179.65 121.351 179.69 121.351 179.69 121.327C179.69 121.239 179.69 121.149 179.702 121.061C179.701 121.033 179.65 121.03 179.65 121.061Z" fill="white"/>
<path d="M62.5198 198.381C62.5198 198.381 141.81 197.358 142.579 197.526C143.349 197.694 142.39 202.823 140.029 202.808C137.668 202.793 66.8368 203.364 65.6908 202.911C64.5448 202.458 61.2973 198.398 62.5198 198.381Z" fill="white"/>
<path d="M227.765 127.536C230.446 127.568 249.308 125.42 251.954 125.688C254.665 125.964 289.342 132.969 292.037 132.852C292.241 132.852 292.37 132.528 292.153 132.428C289.645 131.286 255.499 124.628 252.296 124.341C249.533 124.1 232.529 125.403 227.738 127.292C227.71 127.3 227.685 127.317 227.668 127.342C227.651 127.366 227.644 127.396 227.647 127.426C227.65 127.455 227.664 127.482 227.686 127.503C227.707 127.523 227.736 127.535 227.765 127.536Z" fill="white"/>
<path d="M216.02 140.292C236.57 141.221 245.87 131.217 260.36 134.142C261 134.27 261.903 134.262 262.04 133.625C262.19 132.947 261.258 132.674 260.58 132.527C255.168 131.151 249.46 131.506 244.259 133.541C235.22 137.085 225.702 139.259 216.02 139.991C215.98 139.991 215.942 140.006 215.913 140.035C215.885 140.063 215.869 140.101 215.869 140.141C215.869 140.181 215.885 140.22 215.913 140.248C215.942 140.276 215.98 140.292 216.02 140.292Z" fill="white"/>
<path d="M217.766 144.414C224.45 152.04 236.984 148.881 245.459 147.398C253.807 145.934 260.551 149.663 268.634 150.698C271.457 151.064 275.041 151.376 277.672 150.065C278.144 149.828 277.847 149.228 277.43 149.175C275.63 148.955 272.879 149.877 266.998 148.661C263.362 147.911 259.97 146.561 256.414 145.598C247.478 143.198 238.714 148.448 229.876 147.719C219.101 146.837 215.722 140.219 215.509 140.219C216.014 141.737 216.778 143.156 217.766 144.414Z" fill="white"/>
<path d="M221.937 159.105C228.147 159.425 234.375 159.728 240.537 160.581C249.121 161.768 257.277 165.689 266.062 165.164C274.848 164.639 283.189 161.075 292.035 161.003C292.136 161 292.233 160.965 292.313 160.902C292.392 160.84 292.45 160.753 292.476 160.656C292.503 160.558 292.497 160.455 292.46 160.361C292.424 160.266 292.357 160.187 292.272 160.133C287.596 157.698 283.623 160.16 277.255 161.432C271.815 162.513 266.53 164.013 260.998 163.272C254.173 162.357 247.722 159.716 240.867 158.853C234.571 157.96 228.184 157.906 221.874 158.693C221.64 158.733 221.712 159.095 221.937 159.105Z" fill="white"/>
<path d="M35.1553 230.672C35.1587 230.671 35.1616 230.669 35.1638 230.666C35.1659 230.664 35.167 230.66 35.167 230.657C35.167 230.653 35.1659 230.65 35.1638 230.647C35.1616 230.644 35.1587 230.642 35.1553 230.641C35.1519 230.642 35.1489 230.644 35.1468 230.647C35.1447 230.65 35.1436 230.653 35.1436 230.657C35.1436 230.66 35.1447 230.664 35.1468 230.666C35.1489 230.669 35.1519 230.671 35.1553 230.672Z" fill="white"/>
<path d="M140.779 225.032C139.429 225.011 137.158 224.994 134.157 224.982C133.434 223.175 134.472 225.863 131.547 218.489C134.175 218.489 136.189 218.489 137.422 218.504C137.545 218.504 137.664 218.455 137.751 218.367C137.838 218.28 137.887 218.162 137.887 218.039C137.887 217.915 137.838 217.797 137.751 217.71C137.664 217.623 137.545 217.574 137.422 217.574C136.161 217.556 134.002 217.539 131.16 217.527C130.476 215.877 130.251 215.624 129.705 215.333C129.661 215.308 129.613 215.294 129.563 215.291C129.514 215.287 129.464 215.295 129.418 215.313C129.372 215.332 129.33 215.36 129.297 215.397C129.263 215.433 129.238 215.477 129.223 215.525C129.048 216.027 129.025 216.333 129.438 217.521C124.179 217.503 117.063 217.493 109.113 217.491C108.801 216.556 108.392 215.657 107.893 214.808C107.858 214.752 107.806 214.708 107.744 214.684C107.683 214.66 107.615 214.656 107.552 214.672C107.488 214.689 107.431 214.726 107.389 214.777C107.348 214.828 107.323 214.892 107.32 214.958C107.34 215.808 107.44 216.654 107.62 217.485C100.854 217.485 93.5426 217.485 86.2946 217.502C86.2586 216.865 86.2211 216.227 86.1821 215.588C86.1762 215.499 86.1368 215.415 86.0718 215.354C86.0067 215.293 85.9209 215.259 85.8318 215.259C85.7427 215.259 85.6569 215.293 85.5919 215.354C85.5268 215.415 85.4874 215.499 85.4816 215.588C85.4171 216.227 85.3526 216.866 85.2926 217.503C77.7401 217.514 70.2926 217.53 63.6251 217.551C63.6796 216.971 63.6016 216.385 63.3971 215.84C63.3326 215.679 63.1211 215.573 62.9891 215.727C62.5653 216.255 62.2898 216.886 62.1911 217.556C54.6041 217.581 48.1436 217.613 43.8836 217.649C44.3216 216.97 44.6857 216.246 44.9696 215.49C45.1946 214.85 44.2331 214.265 43.7906 214.809C43.0507 215.735 42.3472 216.69 41.6816 217.671C40.6619 217.677 39.6423 217.696 38.6231 217.728C38.5423 217.728 38.4649 217.76 38.4078 217.817C38.3506 217.874 38.3186 217.952 38.3186 218.033C38.3186 218.113 38.3506 218.191 38.4078 218.248C38.4649 218.305 38.5423 218.337 38.6231 218.337C39.3206 218.39 40.1621 218.436 41.1326 218.48C37.5701 223.773 37.8626 223.205 36.5906 225.123C35.2164 225.128 33.8423 225.149 32.4686 225.186C32.3878 225.186 32.3104 225.218 32.2532 225.275C32.1961 225.332 32.1641 225.41 32.1641 225.491C32.1641 225.571 32.1961 225.649 32.2532 225.706C32.3104 225.763 32.3878 225.795 32.4686 225.795C33.3071 225.855 34.5206 225.906 36.0536 225.945C35.2939 227.121 34.6197 228.35 34.0361 229.623C34.0189 229.653 34.0078 229.685 34.0033 229.719C33.9987 229.753 34.0009 229.787 34.0097 229.82C34.0274 229.887 34.0709 229.944 34.1306 229.979C34.1902 230.013 34.2612 230.023 34.3279 230.005C34.3946 229.987 34.4515 229.944 34.4861 229.884C35.3861 228.576 36.3866 227.267 37.4186 225.984C42.5186 226.1 50.3441 226.146 59.4806 226.154C59.0647 227.299 58.8019 228.494 58.6991 229.709C58.6706 230.145 59.2361 230.205 59.4491 229.913C60.2329 228.761 60.8359 227.496 61.2371 226.163C68.5286 226.163 76.5671 226.145 84.6746 226.115C84.5259 227.385 84.6701 228.673 85.0961 229.88C85.1418 229.958 85.2075 230.024 85.2865 230.069C85.3654 230.115 85.455 230.138 85.5461 230.138C85.6372 230.138 85.7267 230.115 85.8057 230.069C85.8846 230.024 85.9503 229.958 85.9961 229.88C86.4757 228.683 86.6723 227.392 86.5706 226.107C94.5536 226.076 102.549 226.037 109.906 226.004C110.231 227.175 110.693 228.304 111.283 229.367C111.337 229.452 111.417 229.518 111.511 229.555C111.605 229.592 111.708 229.598 111.806 229.571C111.904 229.544 111.99 229.487 112.053 229.408C112.115 229.328 112.15 229.231 112.153 229.13C112.102 228.07 111.937 227.02 111.661 225.996C119.86 225.959 127.174 225.929 132.661 225.927C133.16 227.312 133.843 228.624 134.691 229.827C134.904 230.111 135.513 230.075 135.465 229.619C135.304 228.354 134.989 227.114 134.527 225.926C137.206 225.926 139.339 225.939 140.785 225.962C140.846 225.961 140.907 225.949 140.963 225.925C141.019 225.901 141.07 225.867 141.113 225.823C141.156 225.78 141.19 225.728 141.213 225.672C141.236 225.615 141.247 225.555 141.247 225.494C141.247 225.432 141.234 225.372 141.211 225.316C141.187 225.26 141.152 225.209 141.109 225.166C141.065 225.123 141.014 225.089 140.957 225.066C140.901 225.043 140.84 225.031 140.779 225.032ZM38.1206 225.116C40.0166 222.786 41.9246 220.551 43.2881 218.565C47.8631 218.715 54.3686 218.781 61.8596 218.807C61.3156 220.911 60.6551 222.984 59.8811 225.015C50.8136 225.042 43.0796 225.077 38.1206 225.116ZM61.5926 225.011C63.0056 220.253 63.1526 220.211 63.4466 218.811C70.1861 218.828 77.6456 218.811 85.1726 218.777C84.8336 222.546 84.9431 222.717 84.7556 224.961C77.0345 224.972 69.3136 224.989 61.5926 225.011ZM86.5196 224.958C86.4326 222.956 86.5376 222.408 86.3606 218.771C93.7106 218.736 101.082 218.685 107.887 218.637C108.262 220.1 107.823 218.252 109.6 224.937C102.322 224.943 94.4111 224.948 86.5196 224.958ZM111.363 224.945L109.479 218.625C117.466 218.568 124.578 218.516 129.798 218.495C130.969 221.565 130.597 220.389 132.294 224.975C126.861 224.955 119.56 224.946 111.363 224.945Z" fill="white"/>
<path d="M177.213 226.199C176.404 225.909 175.686 225.794 172.188 225.842C170.819 223.171 169.31 220.574 167.667 218.063C169.163 218.144 170.662 218.011 172.12 217.667C172.216 217.637 172.301 217.577 172.36 217.496C172.42 217.415 172.452 217.317 172.452 217.217C172.452 217.116 172.42 217.018 172.36 216.937C172.301 216.856 172.216 216.796 172.12 216.767C170.322 216.368 168.469 216.276 166.639 216.494C166.147 215.757 165.647 215.026 165.139 214.301C165.084 214.21 164.995 214.146 164.892 214.12C164.789 214.095 164.68 214.11 164.589 214.164C164.498 214.217 164.43 214.304 164.402 214.406C164.374 214.508 164.386 214.617 164.437 214.71L165.46 216.534C162.96 216.626 158.913 216.798 156.261 216.918C155.634 215.912 154.889 214.985 154.041 214.157C153.999 214.118 153.946 214.094 153.889 214.088C153.832 214.081 153.775 214.093 153.726 214.122C153.676 214.151 153.638 214.195 153.615 214.247C153.592 214.299 153.587 214.357 153.6 214.413C153.845 215.302 154.171 216.166 154.573 216.996C152.786 216.975 151 217.129 149.242 217.457C149.179 217.475 149.123 217.514 149.083 217.567C149.044 217.621 149.022 217.685 149.022 217.751C149.022 217.818 149.044 217.882 149.083 217.935C149.123 217.988 149.179 218.027 149.242 218.046C151.226 218.455 153.259 218.565 155.275 218.373C156.076 219.848 156.985 221.285 157.737 222.674C158.344 223.793 158.916 224.993 159.526 226.173C157.6 226.092 155.67 226.237 153.777 226.605C153.708 226.618 153.646 226.655 153.602 226.708C153.557 226.762 153.533 226.83 153.533 226.9C153.533 226.97 153.557 227.037 153.602 227.091C153.646 227.145 153.708 227.182 153.777 227.195C155.919 227.596 158.103 227.718 160.276 227.559C160.876 228.655 161.593 229.682 162.414 230.624C162.637 230.873 162.994 230.603 162.937 230.324C162.741 229.374 162.447 228.447 162.061 227.558C165.25 227.544 169.47 227.507 171.511 227.477C171.982 228.325 172.519 229.134 173.118 229.898C173.346 230.198 173.892 230.048 173.767 229.626C173.544 228.888 173.275 228.165 172.96 227.462C174.393 227.562 175.833 227.44 177.228 227.1C177.324 227.069 177.408 227.008 177.467 226.926C177.526 226.844 177.557 226.745 177.555 226.644C177.553 226.543 177.519 226.445 177.457 226.365C177.396 226.284 177.31 226.226 177.213 226.199ZM161.386 226.122C160.654 224.666 159.799 223.256 159.054 221.904C158.433 220.782 157.806 219.545 157.116 218.337C159.366 218.288 162.34 218.205 166.327 218.096C168.499 221.996 169.765 224.334 170.607 225.87C168.621 225.899 166.678 225.965 161.386 226.116V226.122Z" fill="white"/>
</svg>
