<svg width="300" height="300" viewBox="0 0 300 300" fill="none" xmlns="http://www.w3.org/2000/svg">
<path d="M35.0752 143.334C32.1112 118.566 33.4447 93.695 38.8642 69.209C39.6517 65.6525 42.9112 68.888 65.8897 63.7415C67.6477 63.3485 69.3907 62.9375 71.1172 62.513C71.8912 61.0805 72.7492 59.654 73.7032 58.25C53.6947 63.0005 37.9927 64.6145 37.4332 65.102C36.4402 65.966 36.1312 66.332 35.4367 69.308C28.7497 97.973 28.5757 128.343 33.9472 157.454C34.2127 152.823 34.5892 148.067 35.0737 143.333L35.0752 143.334Z" fill="white"/>
<path d="M259.261 84.075C255.331 80.313 248.705 76.2795 245.891 75.279C241.973 73.884 207.176 70.548 157.913 41.2005C139.505 30.2355 141.799 28.2975 134.953 33.195C132.556 34.9095 130.046 36.534 127.45 38.0715C128.581 38.244 129.703 38.445 130.817 38.676C139.826 33.096 138.451 31.941 140.572 33.531C162.034 49.626 200.383 68.676 237.562 76.2435C241.573 77.0595 243.826 75.918 243.194 79.677C242.258 85.2465 240.056 118.946 223.912 158.165C202.796 209.46 159.209 256.604 117.959 278.466C114.829 280.125 111.673 282.402 107.399 279.065C97.6431 271.445 90.7476 265.455 81.7371 254.715C66.0756 236.048 60.9036 226.967 54.0201 210.714C52.9266 210.297 51.7656 209.85 50.4486 209.357C50.2956 209.3 50.1441 209.243 49.9941 209.186C60.5841 232.805 75.1311 253.952 92.9466 270.506C96.2766 273.6 119.54 293.789 124.178 292.439C138.106 288.385 177.28 262.26 204.502 228.585C253.675 167.754 262.028 86.7285 259.259 84.078L259.261 84.075ZM257.287 86.115C250.778 164.739 208.529 240.726 137.462 283.125C122.017 292.34 123.049 290.944 119.891 288.599C119.09 288.003 114.658 284.66 114.547 284.547C113.2 283.191 112.739 284.906 123.476 278.948C159.949 258.711 191.071 224.012 211.366 190.493C228.316 162.498 235.927 139.047 241.418 111.792C248.906 74.6355 243.781 76.851 249.073 79.791C251.72 81.261 254.12 83.1075 256.636 84.777C257.309 85.224 257.305 85.239 257.287 86.115Z" fill="white"/>
<path d="M94.7974 89.7734C145.164 91.0649 144.539 97.3214 145.154 91.4114C147.159 72.1229 136.56 61.2869 119.436 60.2969C110.805 64.5539 102.035 67.7744 93.8163 70.2299C91.6398 73.2149 90.0034 76.8284 88.8034 81.0209C87.9289 84.0779 87.6738 86.3099 87.6798 89.0414C87.6813 90.0239 87.6154 89.5889 94.7974 89.7734Z" fill="white"/>
<path d="M61.8143 90.8575C64.0763 90.8155 63.3473 89.6965 63.4523 89.1565C63.8603 87.058 64.3118 82.3375 65.7683 76.5625C58.2668 77.7805 53.4113 78.253 52.8848 78.646C52.2998 79.081 51.7898 79.618 51.6323 80.398C50.6423 85.27 49.8353 90.052 49.1963 94.741C52.9073 92.4445 58.0613 90.928 61.8143 90.8575Z" fill="white"/>
<path d="M222.446 87.7334C220.54 87.0719 198.004 84.1229 168.668 69.5384C168.277 69.3449 167.893 69.1514 167.512 68.9609C168.037 70.6274 168.464 72.3569 168.787 74.1479C171.913 91.5014 166.454 97.2359 169.027 97.9394C181.762 101.427 187.934 103.723 190.265 118.068C193.006 134.935 186.532 178.311 180.574 202.165C199.889 174.831 218.968 128.797 224.045 90.4244C224.071 88.5029 223.876 88.2284 222.448 87.7334H222.446Z" fill="white"/>
<path d="M144.802 223.964C127.057 223.964 113.225 225.43 73.0869 216.312C91.0389 245.958 112.3 261.179 115.447 260.219C123.208 257.852 133.999 249.239 138.455 245.852C150.125 236.984 157.547 230.06 164.51 222.227C158.194 223.571 150.746 223.634 144.802 223.964Z" fill="white"/>
<path d="M190.265 118.07C187.934 103.726 181.762 101.429 169.027 97.9418C166.454 97.2368 171.913 91.5038 168.787 74.1503C162.86 41.2478 121.633 29.4038 92.2331 42.6893C66.2096 54.4493 64.6421 83.0183 63.4511 89.1563C63.3461 89.6963 64.0751 90.8138 61.8131 90.8558C56.1686 90.9623 47.3531 94.3373 45.0506 98.7173C34.5821 118.634 30.6776 180.491 35.5781 195.412C36.9596 199.618 36.2951 204.062 50.4476 209.357C57.6731 212.06 60.2201 213.383 72.4541 216.176C113.082 225.452 126.964 223.972 144.802 223.972C156.274 223.336 173.348 223.691 177.08 213.919C183.515 197.066 193.562 138.37 190.264 118.072L190.265 118.07ZM66.7556 90.0098C66.8456 85.8818 70.1231 71.3363 74.8211 63.1988C79.6811 54.7793 84.5411 50.6723 91.1321 46.9463C99.3596 42.2963 114.636 40.4843 116.458 40.4483C126.973 40.2398 137.26 43.3868 145.387 47.6963C157.114 53.9138 161.963 61.2758 164.341 70.6898C166.487 79.1903 166.42 89.3408 165.262 95.6753C164.824 98.0678 165.176 96.9068 148.906 94.5668C148.33 94.4843 148.191 94.3373 148.278 93.6878C154.181 49.6358 100.483 48.0098 88.0376 73.6658C84.5156 80.9258 84.6881 89.4848 84.6821 89.5253C84.5336 90.3638 77.7596 89.7548 77.7596 89.9843C66.2906 89.9843 66.7421 90.6713 66.7556 90.0098ZM145.155 91.4138C144.54 97.3238 145.165 91.0673 94.7981 89.7758C87.6161 89.5913 87.6806 90.0278 87.6791 89.0438C87.6746 86.3123 87.9281 84.0788 88.8026 81.0233C92.7041 67.3853 101.236 59.8583 117.876 60.2363C135.913 60.6458 147.219 71.5463 145.153 91.4123L145.155 91.4138ZM176.908 202.135C173.993 214.894 174.154 216.08 162.386 218.767C155.962 220.234 126.79 220.939 120.255 220.108C115.479 219.5 115.236 221.93 81.5126 214.918C31.5701 204.535 40.5626 200.432 37.0376 183.73C35.0051 138.593 44.3996 104.927 47.2016 101.077C49.4816 97.9448 51.3971 97.5353 53.2781 96.1868C53.8691 95.7638 53.6261 96.0353 56.6306 95.0378C58.7996 94.3178 62.1791 94.2068 62.2151 94.2068C93.1631 91.6643 119.214 94.2698 149.98 98.4578C165.19 100.528 183.17 101.995 185.957 113.689C190.577 133.075 181.114 183.731 176.909 202.133L176.908 202.135Z" fill="white"/>
<path d="M90.0667 128.201C85.3597 136.877 86.9182 148.428 95.5327 155.948C95.8972 156.266 96.0397 156.621 95.9722 157.082C95.3032 161.691 94.2502 172.547 94.2757 178.286C94.3192 187.874 94.7227 193.175 102.832 196.599C108.572 199.025 114.56 196.778 116.966 189.318C117.973 186.195 118.037 183.896 119.231 173.07C120.727 159.521 119.557 159.942 120.913 159.354C127.388 156.546 133.664 148.488 133.505 138.959C134.426 117.477 101.426 107.262 90.0652 128.199L90.0667 128.201ZM103.202 166.034C100.303 193.41 104.405 196.248 99.7687 192.542C96.6187 190.023 96.4822 184.019 96.5302 179.631C96.7252 161.853 99.9967 156.678 98.0272 154.952C90.8092 148.631 87.1327 138.288 93.4657 128.048C94.9402 125.664 98.3302 123.122 98.5582 122.906C101.102 120.501 104.965 120.242 103.481 121.881C93.7402 132.657 97.4842 144.567 104.486 149.987C105.839 151.034 104.825 150.689 103.199 166.032L103.202 166.034Z" fill="white"/>
<path d="M169.507 119.508C169.03 138.891 162.03 216.014 158.833 207.011C158.023 204.731 167.328 121.542 167.268 118.167C167.14 111.015 165.379 110.183 166.437 109.607C167.205 109.188 168.093 110.45 168.37 111.182C169.378 113.843 169.579 116.663 169.509 119.51L169.507 119.508Z" fill="white"/>
<path d="M28.3451 257.101C27.4841 256.808 35.4536 248.6 35.3081 247.076C35.1866 245.801 33.6701 245.065 32.6426 245.978C31.2446 247.223 28.6301 249.976 26.5961 252.05C25.7381 252.926 26.1881 245.711 23.2211 240.167C22.5146 238.847 20.7836 239.162 20.7341 240.766C20.6336 244.033 22.2791 252.697 22.8371 255.31C20.0171 254.596 11.9127 252.364 11.8452 255.31C11.8302 255.968 12.2067 256.357 12.7137 256.607C18.7886 259.6 20.4206 258.917 19.7846 259.763C16.3976 264.271 15.3221 265.454 14.7402 267.188C14.3247 268.423 14.6517 269.798 16.0151 269.809C17.5076 269.821 18.0026 268.585 21.3191 264.578C25.7096 259.274 23.3876 260.668 26.2976 268.718C27.0221 270.722 27.2036 271.225 28.1456 271.084C29.7716 270.841 28.6916 265.469 28.3526 262.538C28.1891 261.127 36.3746 265.792 37.5416 262.808C38.5151 260.321 34.1531 259.072 28.3451 257.098V257.101Z" fill="white"/>
<path d="M230.479 24.5532C229.312 24.1977 233.344 22.4097 236.268 18.3477C237.111 17.1762 236.053 15.9342 233.178 17.7237C227.253 21.4107 227.179 22.7802 227.002 21.8712C226.357 18.5742 226.009 16.0497 224.973 14.1941C223.879 12.2351 220.999 11.6546 221.875 17.8677C222.958 25.5402 224.223 22.5657 217.843 22.8912C214.935 23.0397 213.892 24.7917 214.776 25.9437C215.296 26.6232 216.166 26.7567 217.954 27.1377C221.44 27.8802 220.765 26.5752 215.178 32.0607C214.59 32.6382 213.841 33.9267 214.63 34.8102C216.007 36.3507 218.373 33.9912 223.524 29.9352C224.218 29.3877 223.642 29.9202 225.342 34.7442C225.912 36.3597 226.266 37.4532 227.442 37.4607C228.432 37.4682 229.456 36.4032 229.194 34.4442C227.787 23.9682 226.947 31.0617 236.179 28.0467C239.361 27.0072 233.47 25.4652 230.479 24.5532Z" fill="white"/>
<path d="M227.688 275.967C226.468 280.592 233.701 280.776 233.295 276.75C233.568 273.893 228.715 272.067 227.688 275.967Z" fill="white"/>
<path d="M63.5873 7.50912C61.5248 7.38312 55.3898 9.70363 57.5813 14.2846C59.2748 17.8246 64.1948 18.7276 67.0583 15.5266C70.2788 11.9266 66.9998 7.26612 63.5873 7.50912ZM62.8568 14.5906C59.6738 14.8156 59.1488 11.1256 60.2618 10.7461C61.2968 10.3936 62.2913 9.85813 63.4373 9.93313C66.7043 10.1476 65.7473 14.8411 62.8568 14.5906Z" fill="white"/>
<path d="M287.739 177.259C285.297 171.775 277.119 173.91 274.684 176.638C269.808 182.1 277.174 192.726 284.712 186.289C287.262 184.111 288.99 180.069 287.739 177.259ZM279.622 185.199C278.572 185.343 276.018 182.878 276.666 179.98C277.09 178.077 278.953 176.598 279.837 176.757C280.407 176.86 281.005 176.775 281.589 176.815C287.151 177.201 284.199 184.987 279.622 185.199Z" fill="white"/>
</svg>
