<svg width="22" height="23" viewBox="0 0 22 23" fill="none" xmlns="http://www.w3.org/2000/svg">
<path d="M11.0006 19.5C15.3683 19.5 18.9986 15.8765 18.9986 11.5C18.9986 7.13122 15.3602 3.5 10.9926 3.5C6.61752 3.5 3.00293 7.13122 3.00293 11.5C3.00293 15.8765 6.62521 19.5 11.0006 19.5ZM10.9932 12.6766C10.5774 12.6766 10.3502 12.4333 10.3341 12.0174L10.2244 8.14352C10.2087 7.71183 10.5379 7.4063 10.9849 7.4063C11.4241 7.4063 11.761 7.71986 11.7457 8.15122L11.6356 12.018C11.6199 12.4414 11.3847 12.6769 10.9929 12.6769M10.9929 15.5632C10.5379 15.5632 10.1143 15.2025 10.1143 14.7159C10.1143 14.2294 10.5302 13.8693 10.9929 13.8693C11.4476 13.8693 11.8708 14.222 11.8708 14.7159C11.8708 15.2102 11.4395 15.5632 10.9929 15.5632Z" fill="#FF5656"/>
</svg>
