<svg width="300" height="300" viewBox="0 0 300 300" fill="none" xmlns="http://www.w3.org/2000/svg">
<path d="M94.5156 72.6562H197.588C200.158 72.6562 202.622 73.6772 204.44 75.4944C206.257 77.3117 207.278 79.7763 207.278 82.3463V226.831C207.278 228.103 207.028 229.363 206.54 230.539C206.054 231.713 205.34 232.781 204.44 233.681C203.54 234.581 202.472 235.295 201.298 235.781C200.122 236.269 198.862 236.519 197.59 236.519H94.5171C93.2447 236.519 91.9845 236.269 90.809 235.781C89.6333 235.295 88.5652 234.581 87.6653 233.681C86.7655 232.781 86.0517 231.713 85.5647 230.537C85.0778 229.361 84.8271 228.101 84.8271 226.829V82.3463C84.827 81.0738 85.0774 79.8138 85.5643 78.6381C86.051 77.4626 86.7647 76.3943 87.6642 75.4944C88.5639 74.5947 89.6321 73.8809 90.8076 73.394C91.9832 72.9069 93.2432 72.6562 94.5156 72.6562Z" fill="white"/>
<path fill-rule="evenodd" clip-rule="evenodd" d="M202.898 83.7621C202.888 82.0592 202.202 80.43 200.99 79.2329C199.78 78.0357 198.142 77.3685 196.439 77.3781L160.232 77.4216C158.774 80.2341 158.842 80.2986 158.447 80.3001L136.621 80.4006C136.295 80.4891 136.306 80.3286 134.428 77.4171L95.6665 77.3751C94.8232 77.37 93.9872 77.5311 93.2062 77.8491C92.4253 78.1673 91.7146 78.6362 91.1149 79.229C90.5152 79.8219 90.0382 80.5271 89.7112 81.3044C89.3842 82.0817 89.2135 82.9158 89.209 83.7591V224.746C89.2135 225.589 89.3842 226.423 89.7112 227.2C90.0382 227.978 90.5152 228.683 91.1149 229.276C91.7146 229.868 92.4253 230.338 93.2062 230.656C93.9872 230.974 94.8232 231.134 95.6665 231.13H196.439C197.282 231.134 198.119 230.974 198.899 230.656C199.681 230.338 200.392 229.868 200.99 229.276C201.59 228.683 202.067 227.978 202.396 227.2C202.723 226.423 202.894 225.589 202.898 224.746V83.7621Z" fill="#045070"/>
<path d="M174.978 127.669H117.13C115.317 127.688 113.518 127.347 111.837 126.666C110.156 125.985 108.627 124.978 107.338 123.702C106.049 122.427 105.026 120.908 104.327 119.234C103.629 117.561 103.27 115.765 103.27 113.952C103.27 112.138 103.629 110.343 104.327 108.669C105.026 106.996 106.049 105.477 107.338 104.202C108.627 102.926 110.156 101.919 111.837 101.238C113.518 100.557 115.317 100.216 117.13 100.235H174.978C176.791 100.216 178.59 100.557 180.271 101.238C181.951 101.919 183.481 102.926 184.77 104.202C186.06 105.477 187.083 106.996 187.78 108.669C188.479 110.343 188.839 112.138 188.839 113.952C188.839 115.765 188.479 117.561 187.78 119.234C187.083 120.908 186.06 122.427 184.77 123.702C183.481 124.978 181.951 125.985 180.271 126.666C178.59 127.347 176.791 127.688 174.978 127.669ZM117.13 101.212C113.775 101.248 110.57 102.606 108.211 104.992C105.851 107.377 104.528 110.597 104.528 113.952C104.528 117.307 105.851 120.527 108.211 122.912C110.57 125.297 113.775 126.656 117.13 126.692H174.978C178.333 126.656 181.537 125.297 183.897 122.912C186.258 120.527 187.581 117.307 187.581 113.952C187.581 110.597 186.258 107.377 183.897 104.992C181.537 102.606 178.333 101.248 174.978 101.212H117.13Z" fill="white"/>
<path d="M174.978 164.122H117.13C115.317 164.141 113.518 163.799 111.837 163.12C110.156 162.439 108.627 161.431 107.338 160.156C106.049 158.879 105.026 157.361 104.327 155.687C103.629 154.013 103.27 152.218 103.27 150.406C103.27 148.591 103.629 146.796 104.327 145.122C105.026 143.449 106.049 141.93 107.338 140.655C108.627 139.379 110.156 138.372 111.837 137.691C113.518 137.01 115.317 136.669 117.13 136.688H174.978C176.791 136.669 178.59 137.01 180.271 137.691C181.951 138.372 183.481 139.379 184.77 140.655C186.06 141.93 187.083 143.449 187.78 145.122C188.479 146.796 188.839 148.591 188.839 150.406C188.839 152.218 188.479 154.013 187.78 155.687C187.083 157.361 186.06 158.879 184.77 160.156C183.481 161.431 181.951 162.439 180.271 163.12C178.59 163.799 176.791 164.141 174.978 164.122ZM117.13 137.665C113.775 137.701 110.57 139.059 108.211 141.445C105.851 143.83 104.528 147.05 104.528 150.406C104.528 153.76 105.851 156.98 108.211 159.365C110.57 161.75 113.775 163.109 117.13 163.145H174.978C178.333 163.109 181.537 161.75 183.897 159.365C186.258 156.98 187.581 153.76 187.581 150.406C187.581 147.05 186.258 143.83 183.897 141.445C181.537 139.059 178.333 137.701 174.978 137.665H117.13Z" fill="white"/>
<path d="M145.276 196.321C132.756 196.321 122.947 192.881 122.947 188.488C122.947 184.094 132.756 180.656 145.276 180.656C157.797 180.656 167.602 184.096 167.602 188.488C167.602 192.88 157.803 196.321 145.276 196.321ZM145.276 181.633C132.504 181.633 123.925 185.177 123.925 188.488C123.925 191.798 132.504 195.344 145.276 195.344C158.049 195.344 166.624 191.798 166.624 188.488C166.624 185.177 158.046 181.633 145.276 181.633Z" fill="white"/>
<path d="M125.413 117.329L120.589 114.029L125.413 110.729C125.52 110.656 125.593 110.543 125.617 110.415C125.641 110.287 125.613 110.156 125.539 110.049C125.466 109.942 125.353 109.868 125.226 109.844C125.098 109.821 124.966 109.848 124.859 109.922L120.209 113.105V107.463C120.202 107.338 120.148 107.22 120.057 107.134C119.965 107.048 119.845 107 119.719 107C119.594 107 119.473 107.048 119.382 107.134C119.291 107.22 119.237 107.338 119.23 107.463V113.102L114.58 109.919C114.527 109.882 114.467 109.857 114.404 109.843C114.341 109.83 114.276 109.829 114.213 109.841C114.15 109.853 114.089 109.877 114.036 109.912C113.982 109.947 113.935 109.992 113.899 110.045C113.862 110.098 113.837 110.157 113.823 110.22C113.81 110.283 113.809 110.348 113.821 110.411C113.832 110.475 113.856 110.535 113.891 110.589C113.926 110.643 113.972 110.689 114.025 110.726L118.849 114.026L114.025 117.326C113.939 117.385 113.875 117.471 113.842 117.569C113.808 117.668 113.806 117.774 113.837 117.873C113.868 117.973 113.93 118.06 114.013 118.122C114.097 118.184 114.198 118.218 114.302 118.218C114.52 118.218 114.176 118.409 119.225 114.95V120.582C119.232 120.708 119.287 120.825 119.378 120.911C119.469 120.998 119.59 121.046 119.715 121.046C119.84 121.046 119.961 120.998 120.052 120.911C120.143 120.825 120.198 120.708 120.205 120.582V114.953C125.264 118.419 124.909 118.221 125.128 118.221C125.233 118.223 125.336 118.191 125.421 118.13C125.507 118.069 125.57 117.981 125.602 117.881C125.634 117.781 125.633 117.673 125.599 117.574C125.565 117.474 125.5 117.388 125.413 117.329Z" fill="white"/>
<path d="M125.413 153.11L120.589 149.81L125.413 146.51C125.52 146.437 125.593 146.324 125.617 146.196C125.641 146.069 125.613 145.937 125.539 145.83C125.466 145.723 125.353 145.649 125.226 145.626C125.098 145.602 124.966 145.63 124.859 145.703L120.209 148.886V143.245C120.202 143.119 120.148 143.002 120.057 142.915C119.965 142.829 119.845 142.781 119.719 142.781C119.594 142.781 119.473 142.829 119.382 142.915C119.291 143.002 119.237 143.119 119.23 143.245V148.877L114.58 145.694C114.473 145.62 114.341 145.592 114.213 145.616C114.085 145.64 113.972 145.713 113.899 145.82C113.825 145.927 113.797 146.059 113.821 146.187C113.844 146.314 113.918 146.427 114.025 146.501L118.849 149.801L114.025 153.101C113.94 153.161 113.875 153.247 113.842 153.344C113.808 153.443 113.806 153.55 113.837 153.649C113.868 153.748 113.93 153.835 114.013 153.898C114.097 153.959 114.198 153.992 114.302 153.994C114.52 153.994 114.176 154.184 119.225 150.725V156.358C119.232 156.482 119.287 156.601 119.378 156.686C119.469 156.773 119.59 156.821 119.715 156.821C119.84 156.821 119.961 156.773 120.052 156.686C120.143 156.601 120.198 156.482 120.205 156.358V150.725C125.264 154.192 124.909 153.994 125.128 153.994C125.23 153.992 125.33 153.959 125.413 153.899C125.496 153.838 125.558 153.752 125.589 153.655C125.621 153.557 125.621 153.452 125.589 153.355C125.557 153.256 125.496 153.17 125.413 153.11Z" fill="white"/>
<path d="M142.448 117.331L137.624 114.031L142.448 110.731C142.555 110.658 142.628 110.545 142.652 110.417C142.676 110.29 142.648 110.158 142.575 110.051C142.501 109.944 142.388 109.87 142.261 109.847C142.133 109.823 142.001 109.851 141.894 109.924L137.253 113.104V107.466C137.253 107.336 137.202 107.211 137.11 107.12C137.019 107.028 136.894 106.977 136.764 106.977C136.635 106.977 136.51 107.028 136.419 107.12C136.327 107.211 136.275 107.336 136.275 107.466V113.104L131.625 109.921C131.518 109.848 131.387 109.82 131.259 109.844C131.131 109.867 131.019 109.941 130.945 110.048C130.872 110.155 130.844 110.287 130.868 110.414C130.891 110.542 130.965 110.655 131.072 110.728L135.896 114.028L131.072 117.328C130.987 117.388 130.923 117.473 130.889 117.571C130.855 117.67 130.854 117.776 130.885 117.876C130.915 117.975 130.977 118.062 131.061 118.124C131.144 118.186 131.245 118.22 131.349 118.221C131.565 118.221 131.223 118.411 136.272 114.952V120.585C136.272 120.714 136.324 120.839 136.416 120.93C136.507 121.022 136.632 121.074 136.761 121.074C136.891 121.074 137.016 121.022 137.107 120.93C137.199 120.839 137.25 120.714 137.25 120.585V114.955C142.31 118.422 141.956 118.224 142.173 118.224C142.277 118.222 142.378 118.188 142.461 118.126C142.544 118.064 142.605 117.977 142.636 117.877C142.666 117.778 142.665 117.672 142.631 117.574C142.597 117.476 142.533 117.39 142.448 117.331Z" fill="white"/>
<path d="M142.447 153.112L137.623 149.812L142.447 146.512C142.554 146.439 142.628 146.326 142.651 146.199C142.675 146.071 142.647 145.939 142.574 145.832C142.501 145.725 142.388 145.652 142.26 145.628C142.132 145.604 142.001 145.632 141.894 145.705L137.244 148.888V143.247C137.244 143.117 137.192 142.993 137.1 142.901C137.009 142.809 136.884 142.758 136.755 142.758C136.625 142.758 136.501 142.809 136.409 142.901C136.317 142.993 136.266 143.117 136.266 143.247V148.879L131.616 145.696C131.563 145.66 131.503 145.634 131.44 145.621C131.377 145.608 131.312 145.607 131.249 145.619C131.186 145.631 131.126 145.655 131.072 145.69C131.018 145.725 130.972 145.77 130.935 145.823C130.899 145.876 130.873 145.936 130.86 145.999C130.847 146.061 130.846 146.126 130.858 146.189C130.87 146.253 130.894 146.313 130.929 146.367C130.964 146.421 131.009 146.467 131.062 146.503L135.886 149.803L131.062 153.103C130.977 153.163 130.913 153.249 130.879 153.346C130.845 153.445 130.844 153.552 130.875 153.651C130.906 153.75 130.967 153.837 131.051 153.9C131.134 153.961 131.236 153.996 131.34 153.996C131.556 153.996 131.214 154.186 136.263 150.727V156.36C136.263 156.489 136.314 156.613 136.406 156.706C136.498 156.798 136.622 156.849 136.752 156.849C136.881 156.849 137.006 156.798 137.097 156.706C137.189 156.613 137.241 156.489 137.241 156.36V150.727C142.3 154.194 141.946 153.996 142.164 153.996C142.266 153.994 142.365 153.96 142.447 153.898C142.529 153.838 142.59 153.753 142.621 153.655C142.652 153.558 142.652 153.453 142.621 153.355C142.59 153.259 142.529 153.174 142.447 153.112Z" fill="white"/>
<path d="M159.481 117.329L154.657 114.029L159.481 110.729C159.534 110.693 159.58 110.646 159.615 110.592C159.649 110.538 159.673 110.478 159.685 110.415C159.697 110.352 159.696 110.287 159.684 110.224C159.67 110.161 159.645 110.102 159.609 110.049C159.571 109.996 159.525 109.95 159.471 109.915C159.418 109.88 159.357 109.856 159.294 109.844C159.231 109.833 159.166 109.833 159.103 109.847C159.04 109.86 158.98 109.886 158.928 109.922L154.278 113.105V107.463C154.27 107.338 154.216 107.22 154.125 107.134C154.035 107.048 153.913 107 153.787 107C153.663 107 153.541 107.048 153.451 107.134C153.36 107.22 153.306 107.338 153.298 107.463V113.102L148.648 109.919C148.595 109.882 148.535 109.857 148.473 109.843C148.41 109.83 148.345 109.829 148.281 109.841C148.218 109.853 148.158 109.877 148.104 109.912C148.05 109.947 148.003 109.992 147.967 110.045C147.931 110.098 147.905 110.157 147.892 110.22C147.878 110.283 147.877 110.348 147.889 110.411C147.901 110.475 147.925 110.535 147.96 110.589C147.995 110.643 148.04 110.689 148.093 110.726L152.917 114.026L148.093 117.326C148.008 117.385 147.944 117.471 147.91 117.569C147.876 117.668 147.875 117.774 147.906 117.873C147.937 117.973 147.998 118.06 148.082 118.122C148.165 118.184 148.266 118.218 148.371 118.218C148.587 118.218 148.245 118.409 153.294 114.95V120.582C153.301 120.708 153.355 120.825 153.447 120.911C153.537 120.998 153.658 121.046 153.784 121.046C153.909 121.046 154.03 120.998 154.12 120.911C154.212 120.825 154.266 120.708 154.273 120.582V114.953C159.333 118.419 158.977 118.221 159.196 118.221C159.301 118.223 159.405 118.191 159.49 118.13C159.576 118.069 159.639 117.981 159.67 117.881C159.703 117.781 159.702 117.673 159.667 117.574C159.633 117.474 159.568 117.388 159.481 117.329Z" fill="white"/>
<path d="M159.481 153.11L154.657 149.81L159.481 146.51C159.534 146.474 159.58 146.427 159.615 146.373C159.649 146.32 159.673 146.259 159.685 146.196C159.697 146.133 159.696 146.068 159.684 146.005C159.67 145.943 159.645 145.883 159.609 145.83C159.571 145.777 159.525 145.732 159.471 145.697C159.418 145.661 159.357 145.637 159.294 145.626C159.231 145.614 159.166 145.615 159.103 145.628C159.04 145.641 158.98 145.667 158.928 145.703L154.278 148.886V143.245C154.27 143.119 154.216 143.002 154.125 142.915C154.035 142.829 153.913 142.781 153.789 142.781C153.663 142.781 153.541 142.829 153.451 142.915C153.36 143.002 153.306 143.119 153.298 143.245V148.877L148.648 145.694C148.541 145.62 148.409 145.592 148.281 145.616C148.154 145.64 148.041 145.713 147.967 145.82C147.893 145.927 147.865 146.059 147.889 146.187C147.913 146.314 147.986 146.427 148.093 146.501L152.917 149.801L148.093 153.101C148.008 153.161 147.944 153.247 147.91 153.344C147.876 153.443 147.875 153.55 147.906 153.649C147.937 153.748 147.998 153.835 148.082 153.898C148.165 153.959 148.266 153.992 148.371 153.994C148.587 153.994 148.245 154.184 153.294 150.725V156.358C153.301 156.482 153.355 156.601 153.447 156.686C153.537 156.773 153.658 156.821 153.784 156.821C153.909 156.821 154.03 156.773 154.12 156.686C154.212 156.601 154.266 156.482 154.273 156.358V150.725C159.333 154.192 158.977 153.994 159.196 153.994C159.3 153.992 159.399 153.959 159.481 153.899C159.565 153.838 159.627 153.752 159.658 153.655C159.69 153.557 159.69 153.452 159.658 153.355C159.625 153.256 159.564 153.17 159.481 153.11Z" fill="white"/>
<path d="M176.516 117.331L171.692 114.031L176.516 110.731C176.623 110.658 176.696 110.545 176.72 110.417C176.744 110.29 176.716 110.158 176.644 110.051C176.57 109.944 176.456 109.87 176.329 109.847C176.201 109.823 176.069 109.851 175.963 109.924L171.313 113.107V107.466C171.313 107.336 171.262 107.211 171.17 107.12C171.077 107.028 170.953 106.977 170.824 106.977C170.695 106.977 170.57 107.028 170.477 107.12C170.386 107.211 170.335 107.336 170.335 107.466V113.104L165.685 109.921C165.578 109.848 165.446 109.82 165.319 109.844C165.191 109.867 165.077 109.941 165.005 110.048C164.932 110.155 164.903 110.287 164.927 110.414C164.951 110.542 165.025 110.655 165.131 110.728L169.955 114.028L165.131 117.328C165.046 117.387 164.98 117.472 164.945 117.571C164.911 117.669 164.909 117.776 164.941 117.876C164.971 117.976 165.034 118.063 165.118 118.125C165.202 118.187 165.302 118.221 165.407 118.221C165.625 118.221 165.283 118.411 170.332 114.952V120.585C170.332 120.714 170.383 120.839 170.474 120.93C170.567 121.022 170.692 121.074 170.821 121.074C170.95 121.074 171.074 121.022 171.167 120.93C171.259 120.839 171.31 120.714 171.31 120.585V114.955C176.369 118.422 176.015 118.224 176.233 118.224C176.338 118.224 176.44 118.191 176.524 118.13C176.608 118.068 176.671 117.981 176.702 117.882C176.734 117.782 176.734 117.675 176.699 117.576C176.666 117.477 176.602 117.391 176.516 117.331Z" fill="white"/>
<path d="M176.645 156.883H165.819C165.695 156.875 165.578 156.821 165.491 156.731C165.405 156.64 165.357 156.52 165.357 156.394C165.357 156.269 165.405 156.149 165.491 156.058C165.578 155.968 165.695 155.914 165.819 155.906H176.645C176.769 155.914 176.886 155.968 176.973 156.058C177.059 156.149 177.107 156.269 177.107 156.394C177.107 156.52 177.059 156.64 176.973 156.731C176.886 156.821 176.769 156.875 176.645 156.883Z" fill="white"/>
<path fill-rule="evenodd" clip-rule="evenodd" d="M85.3149 188.55C88.3899 184.564 89.6424 181.104 92.9364 181.632C96.2739 182.169 99.7869 187.842 96.9279 194.817C94.0689 201.792 93.4614 201.417 91.7289 207.405C90.5301 211.918 89.6325 216.505 89.0424 221.137C93.1594 225.748 96.8322 230.739 100.012 236.04L118.643 236.19C125.029 250.318 117.763 270.186 117.763 270.186C119.473 287.22 119.422 286.942 119.516 287.227C106.362 292.699 91.8334 293.952 77.9364 290.814C77.9364 290.814 79.8204 279.678 79.9449 274.374C80.0694 269.07 72.0579 246.957 69.3819 241.018C66.7059 235.08 61.4439 226.234 62.7594 218.715C64.0749 211.195 71.1339 201.378 71.1339 201.378C71.1339 201.378 75.5724 194.32 78.4674 190.099C80.2758 187.506 82.5571 185.275 85.1919 183.526L85.3149 188.55Z" fill="#045070"/>
<path d="M118.26 270.237C118.824 268.629 125.238 249.588 119.088 235.98C119.05 235.895 118.988 235.823 118.91 235.772C118.832 235.721 118.741 235.694 118.648 235.692L100.263 235.542C97.1355 230.373 93.5523 225.494 89.5558 220.962C90.1404 216.431 91.0237 211.944 92.2003 207.53C93.9163 201.594 94.5073 201.999 97.3813 194.991C100.345 187.757 96.7063 181.731 93.0148 181.139C89.7148 180.608 88.2463 183.642 85.7698 187.104L85.6828 183.504C85.6809 183.417 85.656 183.333 85.6108 183.26C85.5657 183.186 85.5018 183.125 85.4256 183.084C85.3494 183.042 85.2636 183.023 85.1772 183.026C85.0906 183.027 85.0063 183.053 84.9328 183.099C82.2357 184.88 79.9033 187.158 78.0613 189.813C75.1933 193.994 70.7608 201.038 70.7323 201.083C70.4428 201.488 63.5938 211.077 62.2753 218.621C61.1503 225.048 64.6348 232.256 67.4353 238.046C71.7208 246.914 79.5733 269.238 79.4533 274.346C79.3303 279.554 77.4688 290.604 77.4508 290.717C77.4369 290.841 77.4711 290.966 77.5464 291.066C77.6217 291.165 77.7324 291.233 77.8557 291.254C77.979 291.275 78.1056 291.248 78.2094 291.177C78.3132 291.108 78.3864 291 78.4138 290.879C78.4333 290.768 80.3053 279.648 80.4313 274.37C80.5588 268.898 72.3613 246.434 69.8233 240.803C67.0363 234.614 61.9588 226.085 63.2383 218.783C64.5178 211.481 71.4583 201.746 71.5423 201.623C71.5888 201.552 76.0108 194.525 78.8668 190.359C80.4741 188.069 82.4511 186.062 84.7168 184.419L84.8128 188.378C83.0763 190.601 81.5596 192.987 80.2843 195.503C78.4363 198.942 79.0138 197.555 77.2948 200.979C75.1078 205.329 74.2288 207.117 66.6838 213.854C66.5926 213.941 66.5386 214.059 66.5328 214.185C66.5269 214.311 66.5698 214.434 66.6526 214.529C66.7353 214.623 66.8515 214.683 66.9769 214.695C67.1023 214.706 67.2273 214.668 67.3258 214.59C69.7573 212.459 72.0642 210.189 74.2348 207.794C75.8056 205.839 77.1268 203.697 78.1678 201.417C79.8688 198.032 79.2868 199.421 81.1468 195.966C82.4452 193.403 83.9976 190.977 85.7803 188.724C85.9695 189.746 86.4754 190.683 87.2266 191.402C87.9778 192.119 88.9359 192.582 89.9653 192.726C92.8378 193.026 95.6293 189.75 97.2193 187.326C98.7103 193.721 93.8908 198.144 91.2508 207.254C90.0477 211.793 89.1457 216.405 88.5508 221.063C88.5424 221.133 88.5495 221.205 88.5715 221.273C88.5934 221.342 88.6299 221.403 88.6783 221.456C88.8448 221.636 105.478 239.645 108.178 258.387C108.187 258.45 108.209 258.512 108.242 258.567C108.274 258.621 108.318 258.669 108.369 258.708C108.42 258.747 108.479 258.774 108.541 258.791C108.603 258.806 108.668 258.81 108.731 258.801C108.795 258.791 108.856 258.77 108.911 258.737C108.966 258.704 109.014 258.662 109.052 258.609C109.091 258.558 109.119 258.5 109.134 258.438C109.15 258.375 109.153 258.311 109.144 258.248C107.774 250.545 104.955 243.171 100.836 236.52L118.312 236.657C124.312 250.422 117.363 269.807 117.292 270C117.231 270.161 117.256 270 118.975 287.25C118.989 287.379 119.052 287.498 119.153 287.58C119.253 287.661 119.382 287.7 119.512 287.688C119.641 287.675 119.759 287.61 119.841 287.51C119.923 287.409 119.962 287.28 119.949 287.151L118.26 270.237ZM90.0808 191.762C87.1918 191.451 86.6728 188.411 86.5873 187.65C88.9423 184.35 90.2128 181.686 92.8588 182.111C93.7999 182.397 94.6561 182.912 95.3518 183.606C96.0477 184.302 96.5617 185.159 96.8488 186.099C96.2233 187.134 93.0718 192.072 90.0808 191.762Z" fill="white"/>
<path fill-rule="evenodd" clip-rule="evenodd" d="M264.946 276.962C259.742 291.879 229.672 292.497 229.672 292.497C226.558 289.667 223.001 287.367 219.143 285.687C213.293 283.317 197.114 273.15 190.391 265.952C181.013 255.912 184.855 252.578 176.56 235.152C174.937 231.746 169.81 220.859 173.492 217.814C177.175 214.769 183.814 214.379 192.107 233.649C192.107 233.649 190.807 225.072 189.749 220.202C188.692 215.331 183.208 205.752 181.318 199.176C179.428 192.6 177.884 191.219 176.452 186.401C175.019 181.583 173.017 171.687 176.434 167.51C179.851 163.332 184.394 165.693 186.31 171.428C188.225 177.162 190.36 185.951 193.177 189.458C198.172 195.666 200.309 204.923 203.392 208.508C203.392 208.508 209.105 207.95 211.715 207.608C214.325 207.266 220.43 205.71 224.684 210.147C224.684 210.147 231.64 212.229 233.768 215.429C233.768 215.429 236.458 215.949 239.374 221.543C242.29 227.136 259.217 270.962 264.946 276.962Z" fill="#045070"/>
<path d="M265.298 276.628C259.649 270.711 242.738 226.954 239.807 221.328C237.243 216.412 234.794 215.262 234.071 215.019C231.908 211.995 225.915 210.03 224.948 209.727C220.973 205.677 215.52 206.536 212.576 206.995C210.66 207.295 205.904 207.775 203.609 208.002C202.329 206.19 201.275 204.228 200.469 202.161C192.593 183.205 194.169 195.441 188.18 175.771C187.695 174.177 187.227 172.641 186.773 171.271C184.799 165.36 179.82 162.594 176.055 167.197C171.992 172.165 175.281 184.18 175.982 186.538C177.345 191.124 179.045 193.035 180.846 199.309C182.757 205.956 188.228 215.488 189.273 220.309C189.884 223.125 190.583 227.226 191.058 230.151C187.016 221.682 182.958 216.907 178.976 215.944C177.96 215.71 176.904 215.724 175.895 215.985C174.887 216.246 173.955 216.747 173.181 217.444C170.481 219.676 171.435 225.544 176.118 235.372C184.322 252.622 180.563 256.158 190.032 266.293C196.967 273.717 213.384 283.888 218.96 286.149C222.759 287.811 226.263 290.077 229.337 292.861C229.431 292.944 229.556 292.987 229.682 292.981C229.808 292.975 229.926 292.921 230.013 292.83C230.1 292.738 230.148 292.615 230.148 292.489C230.147 292.363 230.097 292.242 230.009 292.152C226.854 289.273 223.245 286.939 219.326 285.243C213.819 283.009 197.597 272.959 190.748 265.626C181.562 255.793 185.267 252.316 177 234.951C174.062 228.783 172.907 224.785 172.706 222.201C174.024 224.616 176.373 227.892 179.006 227.115C182.979 225.934 182.625 221.715 181.008 217.912C183.731 219.681 187.319 223.9 191.442 233.34C193.104 236.73 194.277 240.339 194.927 244.057C195.36 248.134 194.654 249.669 194.634 249.706C194.604 249.763 194.586 249.826 194.582 249.889C194.576 249.954 194.583 250.018 194.603 250.08C194.622 250.141 194.654 250.198 194.694 250.248C194.736 250.296 194.787 250.336 194.844 250.366C194.901 250.396 194.964 250.414 195.027 250.419C195.092 250.425 195.156 250.417 195.218 250.398C195.279 250.378 195.336 250.347 195.386 250.306C195.434 250.264 195.474 250.213 195.504 250.156C195.54 250.087 196.374 248.419 195.9 243.957C195.278 240.34 194.162 236.826 192.585 233.512C192.456 232.669 191.235 224.7 190.233 220.107C189.201 216.622 187.862 213.235 186.23 209.988C180.24 196.81 182.607 199.503 178.941 191.446C178.139 189.774 177.465 188.044 176.925 186.27C175.094 180.103 173.954 171.706 176.658 168.033C177.108 170.425 178.545 176.049 182.075 176.049C183.774 176.049 185.406 174.939 186.069 172.257C187.916 177.957 190.011 186.309 192.801 189.772C198.038 196.282 199.89 205.806 203.522 209.314C214.199 219.628 212.949 221.101 213.887 221.101C213.971 221.101 214.052 221.079 214.125 221.038C214.197 220.998 214.259 220.939 214.302 220.867C214.346 220.797 214.371 220.716 214.374 220.633C214.379 220.549 214.361 220.467 214.323 220.392C212.553 216.882 206.637 210.973 204.5 208.899C207.024 208.647 210.86 208.257 212.733 207.964C215.718 207.496 220.71 206.716 224.337 210.499C224.396 210.559 224.468 210.604 224.549 210.63C224.618 210.649 231.36 212.697 233.366 215.713C233.436 215.817 233.543 215.89 233.666 215.92C233.693 215.92 236.201 216.531 238.938 221.782C241.839 227.349 258.783 271.225 264.588 277.308C264.678 277.402 264.802 277.456 264.932 277.459C265.062 277.462 265.188 277.413 265.283 277.323C265.377 277.233 265.431 277.108 265.434 276.979C265.437 276.849 265.388 276.723 265.298 276.628ZM178.721 226.177C176.288 226.903 173.66 222.187 172.779 220.146C172.875 219.394 173.238 218.701 173.802 218.196C174.564 217.491 175.512 217.018 176.534 216.835C177.554 216.651 178.607 216.763 179.567 217.159C181.298 220.515 182.42 225.081 178.721 226.177ZM182.087 175.066C179.244 175.066 177.842 169.563 177.485 167.103C180.425 164.377 183.645 166.552 185.334 170.284C185.016 172.626 184.536 175.066 182.087 175.066Z" fill="white"/>
<path d="M46.7805 266.018C39.1665 258.782 3.02696 219.133 25.1655 160.559L31.4895 162.659C31.554 162.68 31.6224 162.688 31.69 162.682C31.7577 162.676 31.8234 162.655 31.8826 162.622C31.9419 162.587 31.9936 162.542 32.0344 162.488C32.0752 162.434 32.1042 162.371 32.1195 162.305L37.0005 141.122C37.0216 141.03 37.0156 140.934 36.9832 140.845C36.9508 140.756 36.8934 140.678 36.8178 140.622C36.7423 140.565 36.6519 140.531 36.5575 140.525C36.4633 140.518 36.3691 140.539 36.2865 140.585C28.4848 145.017 21.0337 150.04 13.998 155.608C13.9317 155.662 13.8811 155.734 13.8511 155.815C13.8211 155.894 13.8128 155.981 13.8271 156.067C13.8414 156.151 13.8777 156.23 13.9325 156.296C13.9872 156.362 14.0584 156.413 14.139 156.443L18.9495 158.228C4.76096 203.528 12.0495 239.311 41.9835 270.701C45.141 274.013 50.049 269.126 46.7805 266.018Z" fill="white"/>
<path d="M284.673 127.277C284.469 126.933 284.481 127.035 279.115 127.103C276.042 79.7296 256.363 48.9691 217.135 30.4636C216.648 30.2344 216.112 30.1244 215.574 30.1426C215.034 30.1609 214.507 30.3068 214.036 30.5686C213.484 30.8674 213.028 31.3165 212.721 31.864C212.413 32.4113 212.268 33.0346 212.299 33.6616C212.332 34.2886 212.541 34.8935 212.904 35.4064C213.265 35.9192 213.765 36.3191 214.345 36.5596C223.995 40.7101 272.043 64.5496 272.476 127.169L265.822 127.487C265.755 127.49 265.687 127.508 265.627 127.538C265.566 127.569 265.512 127.612 265.47 127.664C265.426 127.717 265.393 127.778 265.375 127.843C265.357 127.909 265.353 127.977 265.362 128.045L268.434 149.564C268.447 149.657 268.486 149.745 268.549 149.816C268.611 149.888 268.692 149.94 268.783 149.966C268.873 149.991 268.971 149.99 269.061 149.962C269.151 149.934 269.232 149.881 269.292 149.808C274.975 142.865 280.119 135.496 284.677 127.767C284.721 127.692 284.742 127.607 284.742 127.521C284.74 127.435 284.716 127.35 284.673 127.277Z" fill="white"/>
<path d="M136.576 28.501C136.167 27.5363 135.518 26.6921 134.691 26.0483C133.864 25.4044 132.887 24.9821 131.851 24.8215C131.772 24.8059 131.69 24.8107 131.614 24.8353C131.537 24.86 131.468 24.9038 131.413 24.9625L111.543 45.343C111.482 45.4051 111.439 45.4822 111.419 45.5662C111.398 45.6503 111.4 45.7384 111.424 45.8215C111.665 46.8146 112.203 47.7106 112.967 48.3893C113.731 49.0681 114.685 49.4974 115.699 49.6195C116.035 49.6735 115.927 49.6705 119.11 46.606L123.303 50.656C123.394 50.7446 123.516 50.7941 123.644 50.7941C123.771 50.7941 123.894 50.7446 123.985 50.656L128.701 46.027C128.79 45.9395 128.842 45.8213 128.847 45.6965C128.851 45.5719 128.808 45.4501 128.725 45.3565L124.954 41.032L125.776 40.1245L128.058 42.1345C128.15 42.2165 128.27 42.2602 128.393 42.2569C128.517 42.2536 128.634 42.2033 128.722 42.1165L130.822 40.066C130.912 39.9787 130.964 39.8602 130.969 39.7351C130.974 39.61 130.93 39.4879 130.848 39.394L128.736 36.9835L136.48 29.0425C136.549 28.9724 136.595 28.8832 136.612 28.7866C136.629 28.69 136.616 28.5905 136.576 28.501ZM127.726 36.628C127.64 36.716 127.591 36.8333 127.588 36.9563C127.585 37.0792 127.628 37.1989 127.71 37.291L129.81 39.691L128.368 41.101L126.067 39.073C125.97 38.9887 125.845 38.9455 125.717 38.9524C125.589 38.9594 125.468 39.0161 125.382 39.1105L123.942 40.6975C123.862 40.7869 123.818 40.9025 123.818 41.0222C123.818 41.1421 123.862 41.2577 123.942 41.347L127.692 45.652L123.642 49.6255L119.82 45.9295L122.701 43.201C122.795 43.1119 122.85 42.989 122.854 42.8593C122.858 42.7297 122.81 42.6038 122.721 42.5095C122.632 42.4153 122.508 42.3602 122.379 42.3566C122.249 42.3529 122.123 42.4009 122.029 42.49L116.551 47.719C116.478 46.9369 116.121 46.2085 115.548 45.6712C114.975 45.1337 114.225 44.8244 113.44 44.8015L131.925 25.8355C132.701 25.984 133.433 26.3117 134.061 26.7926C134.689 27.2737 135.195 27.8945 135.541 28.606L127.726 36.628Z" fill="white"/>
<path d="M143.03 22.0654C142.67 22.0654 143.271 22.7179 135.734 12.2119C135.664 12.1063 135.638 11.9777 135.66 11.8532C135.684 11.7287 135.754 11.618 135.857 11.5444C135.96 11.4707 136.088 11.4399 136.213 11.4584C136.338 11.4768 136.451 11.5432 136.529 11.6434L143.429 21.2929C143.481 21.3661 143.511 21.4522 143.518 21.5417C143.524 21.6314 143.506 21.721 143.465 21.8008C143.423 21.8806 143.361 21.9475 143.284 21.9941C143.207 22.0409 143.119 22.0655 143.03 22.0654Z" fill="white"/>
<path d="M151.755 22.067C151.66 22.0668 151.567 22.0394 151.489 21.9879C151.41 21.9363 151.347 21.863 151.309 21.7767C151.27 21.6905 151.258 21.5948 151.272 21.5015C151.287 21.4082 151.329 21.3212 151.392 21.251L161.53 9.99046C161.619 9.90039 161.739 9.8479 161.865 9.84399C161.991 9.84006 162.114 9.88501 162.207 9.96943C162.3 10.0539 162.358 10.1712 162.367 10.297C162.376 10.4228 162.337 10.5473 162.256 10.6445C151.882 22.184 152.101 22.067 151.755 22.067Z" fill="white"/>
<path d="M146.904 17.9596L146.83 7.50463C146.83 7.37494 146.882 7.25055 146.973 7.15884C147.065 7.06715 147.189 7.01562 147.319 7.01562C147.449 7.01562 147.573 7.06715 147.665 7.15884C147.757 7.25055 147.808 7.37494 147.808 7.50463L147.882 17.9551C147.882 18.0849 147.831 18.2094 147.74 18.3016C147.649 18.3937 147.525 18.4458 147.395 18.4464C147.265 18.447 147.141 18.396 147.048 18.3048C146.956 18.2134 146.904 18.0894 146.904 17.9596Z" fill="white"/>
<path d="M170.273 37.8522L160.007 29.3382C158.571 27.4092 153.689 33.2742 155.583 34.8357L165.678 43.2087C162.737 47.9322 162.228 52.6662 164.655 54.5322C169.155 57.9822 178.947 49.2627 180.509 41.2302C181.8 34.5567 176.379 32.7162 170.273 37.8522ZM175.989 42.6027C174.269 48.3957 166.089 54.3027 167.831 48.4527C169.529 42.6942 177.726 36.7257 175.989 42.6057V42.6027ZM156.98 34.7232C158.481 33.8138 159.605 32.3927 160.142 30.7212L169.532 38.5092C168.287 39.6749 167.175 40.9749 166.217 42.3852L156.98 34.7232Z" fill="white"/>
<path d="M239.975 185.846C239.643 185.846 240.125 186.314 233.579 178.308C233.498 178.211 233.459 178.085 233.469 177.959C233.48 177.833 233.538 177.716 233.634 177.632L243.813 168.695C243.911 168.612 244.038 168.57 244.166 168.579C244.293 168.588 244.413 168.648 244.497 168.744C244.583 168.842 244.626 168.968 244.619 169.095C244.611 169.223 244.553 169.344 244.458 169.43L234.633 178.055L240.353 185.046C240.411 185.118 240.449 185.205 240.461 185.297C240.471 185.388 240.456 185.481 240.417 185.565C240.377 185.649 240.315 185.72 240.237 185.769C240.158 185.82 240.068 185.846 239.975 185.846Z" fill="white"/>
<path d="M287.828 215.343L256.302 182.421C260.088 171.108 259.959 171.819 259.691 171.517L249.746 160.459C249.704 160.411 249.651 160.372 249.593 160.345C249.536 160.317 249.473 160.3 249.408 160.297C249.344 160.294 249.281 160.303 249.219 160.324C249.159 160.345 249.104 160.378 249.056 160.422L229.929 177.624C229.881 177.666 229.842 177.718 229.815 177.775C229.787 177.834 229.772 177.897 229.767 177.96C229.764 178.024 229.773 178.089 229.794 178.149C229.817 178.209 229.85 178.264 229.892 178.312C240.263 189.958 239.564 189.346 239.973 189.273L251.159 187.084L269.135 205.933L263.285 211.527C263.238 211.57 263.201 211.624 263.175 211.683C263.148 211.741 263.135 211.804 263.133 211.869C263.132 211.933 263.142 211.998 263.166 212.058C263.189 212.118 263.223 212.172 263.268 212.218C269.643 218.88 269.171 218.487 269.456 218.49C269.741 218.493 269.306 218.835 275.655 212.764L277.625 214.83L274.175 218.13C274.128 218.173 274.091 218.227 274.064 218.286C274.038 218.344 274.025 218.409 274.023 218.472C274.022 218.536 274.032 218.601 274.056 218.661C274.08 218.721 274.115 218.775 274.16 218.821C277.679 222.508 277.493 222.402 277.79 222.402C278.061 222.402 277.836 222.552 281.573 218.977C283.046 220.521 282.906 220.488 283.334 220.488C286.184 220.488 287.784 218.838 287.966 215.715C287.97 215.647 287.96 215.578 287.936 215.514C287.912 215.451 287.876 215.392 287.828 215.343ZM277.803 221.217L275.201 218.493L278.181 215.643L280.782 218.365L277.803 221.217ZM251.103 186.1L240.063 188.26L230.948 178.026L249.348 161.476L258.777 171.96L255.327 182.268L251.103 186.1ZM252.029 186.579L255.725 183.226L257.177 184.743L253.41 188.028L252.029 186.579ZM269.481 217.309L264.311 211.896L269.813 206.646L274.979 212.064L269.481 217.309ZM283.431 219.504L254.087 188.736L257.853 185.449L286.971 215.859C286.775 218.308 285.644 219.472 283.428 219.504H283.431Z" fill="white"/>
<path fill-rule="evenodd" clip-rule="evenodd" d="M56.3797 83.2885L50.0932 79.6285C50.0932 79.6285 55.4767 68.899 56.2687 64.2385C57.0607 59.578 53.5777 57.463 48.8362 56.08C47.6161 55.6387 46.2733 55.6817 45.084 56.2C43.8946 56.7184 42.949 57.6728 42.4417 58.867L37.4917 69.2935L29.0527 65.7715C29.0527 65.7715 35.2552 54.256 38.2657 51.1225C46.5007 42.5485 64.4842 52.273 63.8002 64.078C63.3787 71.278 56.3797 83.2885 56.3797 83.2885Z" fill="#0A5392"/>
<path d="M43.1592 111.218C34.1665 105.906 24.5523 101.724 14.5347 98.7683C14.4135 98.7305 14.3118 98.647 14.251 98.5355C14.1903 98.4241 14.1753 98.2933 14.2092 98.171C14.2431 98.0486 14.3232 97.9442 14.4327 97.8799C14.5421 97.8157 14.6723 97.7963 14.7957 97.8263C24.8937 100.806 34.5853 105.02 43.6512 110.374C43.7515 110.444 43.8217 110.55 43.848 110.67C43.8741 110.79 43.8544 110.916 43.7925 111.022C43.7307 111.128 43.6314 111.207 43.5141 111.243C43.3968 111.28 43.2702 111.271 43.1592 111.218Z" fill="white"/>
<path d="M38.6843 83.323C37.9853 82.8951 37.1605 82.7203 36.3479 82.8277C35.5354 82.935 34.7843 83.3182 34.2205 83.913C33.6565 84.5079 33.314 85.2783 33.2501 86.0953C33.1862 86.9125 33.4048 87.7267 33.8693 88.402L31.0058 95.152C30.9806 95.2111 30.9674 95.2746 30.9668 95.3388C30.9662 95.403 30.9784 95.4667 31.0025 95.5261C31.0265 95.5857 31.0622 95.6398 31.1074 95.6856C31.1524 95.7313 31.2061 95.7676 31.2653 95.7925C32.1413 96.2572 33.0613 96.6336 34.0118 96.916C34.108 96.9159 34.202 96.8872 34.2821 96.8338C34.3621 96.7806 34.4246 96.7047 34.4618 96.616L37.3118 89.9125C38.0401 89.8086 38.7185 89.4826 39.2551 88.9792C39.7915 88.4758 40.1597 87.8194 40.3097 87.0993C40.4597 86.3791 40.3841 85.6302 40.0933 84.9544C39.8024 84.2788 39.3104 83.7091 38.6843 83.323Z" fill="white"/>
<path d="M37.9068 50.7818C34.8873 53.9318 28.8723 65.0648 28.6173 65.5388C27.3993 67.8023 36.8343 72.0743 37.9173 69.5108L42.9018 59.0453C43.3555 57.9569 44.2147 57.0877 45.2979 56.6216C46.381 56.1556 47.6029 56.129 48.7053 56.5478C54.3003 58.1798 56.4198 60.4478 55.7913 64.1543C55.1148 68.1488 50.9163 76.8578 49.8888 78.9503C35.4693 70.6553 24.3663 70.5503 24.2103 70.5503C24.1276 70.5503 24.0463 70.5713 23.974 70.6112C23.9016 70.651 23.8405 70.7086 23.7963 70.7783C23.1393 71.8283 7.74628 96.5153 13.9143 102.046C20.1018 107.602 33.1998 112.522 39.0018 113.128C43.4808 113.594 46.6053 111.886 47.6598 110.326L59.0598 85.6013C59.1072 85.4992 59.1181 85.384 59.0908 85.2748C59.0635 85.1656 58.9996 85.0691 58.9098 85.0013C58.2097 84.4663 57.5182 83.9498 56.8353 83.4518C57.4758 82.3418 63.8673 71.1173 64.2738 64.1018C64.9968 51.8108 46.4403 41.9018 37.9068 50.7818ZM58.0068 85.5458L46.8168 109.832C46.7268 109.951 44.5968 112.729 39.0978 112.156C33.5478 111.577 20.5188 106.663 14.5563 101.318C9.99178 97.2278 20.0238 78.6683 24.4653 71.5343C26.5983 71.6198 41.1633 72.6743 58.0128 85.5458H58.0068ZM63.3018 64.0478C62.9208 70.6178 56.8413 81.4778 56.0388 82.8878C54.2313 81.6128 52.4553 80.4698 50.7243 79.4378C51.7218 77.4143 56.0268 68.5328 56.7438 64.3133C57.6663 58.8728 53.0718 56.8013 48.9648 55.6028C47.6328 55.1419 46.176 55.2002 44.8852 55.7663C43.5945 56.3324 42.5647 57.3647 42.0018 58.6568L37.5618 68.0048C35.5911 66.0361 32.9595 64.8697 30.1773 64.7318C31.8768 61.6568 36.2718 53.8988 38.6148 51.4598C46.4568 43.2908 63.9723 52.5668 63.3018 64.0478Z" fill="white"/>
</svg>
