<svg width="300" height="300" viewBox="0 0 300 300" fill="none" xmlns="http://www.w3.org/2000/svg">
<path d="M72.751 211.5C73.321 211.59 76.441 211.74 76.441 211.2C76.441 210.885 75.871 210.9 75.871 210.9C75.946 208.5 78.991 207.9 81.166 209.16C81.7655 209.505 82.3197 209.923 82.816 210.405C79.741 210.57 75.661 212.67 75.931 215.715C76.086 216.509 76.419 217.258 76.9048 217.905C77.3906 218.551 78.0167 219.08 78.736 219.45C79.6351 220.123 80.6592 220.61 81.7486 220.883C82.838 221.156 83.9708 221.209 85.081 221.04C87.0583 220.536 88.7981 219.358 90.001 217.71C92.7198 217.797 95.3799 216.908 97.501 215.205C97.5905 215.134 97.6646 215.046 97.7188 214.945C97.7729 214.844 97.806 214.734 97.816 214.62C97.816 214.095 97.816 214.125 94.816 210.795C94.7311 210.7 94.6246 210.627 94.5056 210.582C94.3866 210.537 94.2585 210.521 94.1321 210.536C94.0057 210.551 93.8847 210.596 93.7792 210.667C93.6738 210.738 93.5869 210.833 93.526 210.945C93.4742 211.011 93.429 211.081 93.391 211.155C93.1527 211.603 92.7676 211.954 92.3004 212.151C91.8332 212.348 91.3125 212.377 90.826 212.235C89.326 211.8 87.391 207.825 83.866 205.455C80.791 203.385 76.666 202.77 73.756 205.23C72.5035 206.305 71.6131 207.74 71.206 209.34C71.044 209.833 71.0762 210.37 71.296 210.84C71.69 211.222 72.2042 211.455 72.751 211.5ZM78.391 217.065C77.9797 216.771 77.6943 216.333 77.5914 215.839C77.4886 215.344 77.5759 214.828 77.836 214.395C78.5012 213.476 79.4256 212.776 80.491 212.385C79.6315 213.842 78.9277 215.386 78.391 216.99V217.065ZM92.521 214.695C92.881 213.615 92.521 213.99 93.121 213.72C93.5756 213.494 93.9868 213.189 94.336 212.82L95.701 214.44C94.5706 215.157 93.3208 215.665 92.011 215.94C92.161 215.55 92.401 214.95 92.521 214.62V214.695ZM87.091 210.87C88.516 212.655 89.701 214.245 91.876 214.065C91.5657 214.711 91.3146 215.384 91.126 216.075C90.031 216.15 89.881 215.895 89.446 216.075C88.591 216.405 87.181 219.48 83.761 219.465C83.9739 218.989 84.1105 218.483 84.166 217.965C85.1337 217.77 86.0396 217.342 86.806 216.72C87.1344 216.435 87.3478 216.041 87.406 215.61C87.406 215.085 87.226 214.41 86.116 213.525C86.5295 212.649 86.8561 211.735 87.091 210.795V210.87ZM82.051 216.54C80.731 215.835 82.981 214.59 84.436 214.635C84.7703 214.638 85.097 214.735 85.3784 214.915C85.6598 215.096 85.8843 215.352 86.026 215.655C85.8256 215.978 85.5614 216.256 85.2497 216.473C84.938 216.69 84.5852 216.841 84.2131 216.917C83.8409 216.993 83.4572 216.992 83.0854 216.914C82.7136 216.836 82.3616 216.684 82.051 216.465V216.54ZM83.821 207.36C84.8396 208.226 85.7646 209.196 86.581 210.255C86.1063 211.121 85.7434 212.043 85.501 213C84.8706 212.819 84.2098 212.77 83.5596 212.855C82.9093 212.94 82.2835 213.158 81.721 213.495C78.976 214.995 79.621 218.28 83.431 217.905C83.2071 218.337 83.0407 218.795 82.936 219.27C81.4149 218.967 79.9925 218.292 78.796 217.305C79.8593 215.653 80.6873 213.861 81.256 211.98C81.8391 211.712 82.47 211.564 83.1114 211.543C83.7528 211.522 84.3918 211.63 84.991 211.86L85.306 210.675L84.976 210.525C84.271 210.045 83.956 209.67 83.146 209.025C83.4466 208.477 83.6736 207.892 83.821 207.285V207.36ZM78.001 204.96C79.8781 204.994 81.6957 205.625 83.191 206.76C82.9224 207.371 82.7212 208.01 82.591 208.665C81.872 208.101 81.0238 207.724 80.1229 207.57C79.2221 207.415 78.2969 207.488 77.431 207.78C77.7475 206.87 77.9392 205.922 78.001 204.96ZM74.566 206.13C75.3975 205.483 76.3969 205.087 77.446 204.99C76.9806 205.998 76.6914 207.079 76.591 208.185C76.1441 208.453 75.7783 208.838 75.5326 209.297C75.2869 209.757 75.1706 210.275 75.196 210.795C74.145 210.853 73.0933 210.695 72.106 210.33C72.3291 208.664 73.2028 207.154 74.536 206.13H74.566ZM52.156 203.625C49.456 202.455 43.456 205.92 42.361 207.78C42.2026 208.19 42.2026 208.645 42.361 209.055C43.306 212.64 52.126 225.3 53.761 227.265C54.046 227.625 54.436 227.13 54.181 226.71C53.401 225.42 53.491 228.015 57.481 215.1C57.8506 214.955 58.1949 214.753 58.501 214.5C58.6401 214.346 58.7171 214.145 58.7171 213.938C58.7171 213.73 58.6401 213.529 58.501 213.375C58.3648 213.207 58.2086 213.056 58.036 212.925L58.981 209.43L62.731 211.5C61.9726 213.396 61.4195 215.367 61.081 217.38C59.5686 217.925 58.1513 218.705 56.881 219.69C55.996 220.665 57.391 222.465 58.261 223.545C59.131 224.625 59.866 225.36 60.031 225.525C60.196 225.69 60.721 225.525 60.676 225.255C60.5807 225.038 60.4544 224.836 60.301 224.655C59.4882 223.39 58.7904 222.055 58.216 220.665C59.3818 219.968 60.6126 219.385 61.891 218.925C62.356 218.76 63.796 218.31 64.186 218.55C66.1104 219.564 68.1176 220.412 70.186 221.085C70.2695 221.125 70.3654 221.13 70.4527 221.099C70.5399 221.068 70.6112 221.004 70.651 220.92C70.6908 220.837 70.6957 220.741 70.6648 220.653C70.6338 220.566 70.5695 220.495 70.486 220.455L67.891 218.88C68.4434 217.628 68.7977 216.297 68.941 214.935L75.346 218.4C75.736 218.625 76.036 218.01 75.751 217.845C75.466 217.68 56.026 205.32 52.156 203.625ZM49.876 205.215C50.3994 205.058 50.9575 205.058 51.481 205.215C51.826 205.365 52.666 205.815 53.806 206.445C53.4214 207.507 53.1597 208.609 53.026 209.73C52.021 209.16 51.421 208.725 50.626 208.86C50.1927 208.957 49.7873 209.152 49.441 209.43C49.591 208.26 49.726 207.36 49.876 205.215ZM43.876 208.515C45.4317 207.032 47.319 205.942 49.381 205.335C48.5804 208.873 48.0192 212.461 47.701 216.075C46.1884 213.68 44.9124 211.143 43.891 208.5L43.876 208.515ZM50.686 221.13C50.686 221.13 48.961 218.25 48.106 216.765C48.616 214.62 48.781 213.63 49.096 211.605C49.9167 213.029 50.8656 214.374 51.931 215.625C51.3262 217.411 50.9139 219.257 50.701 221.13H50.686ZM53.311 225.45C52.771 224.595 52.081 223.44 51.181 221.955C51.7504 220.073 52.1273 218.138 52.306 216.18C52.636 216.975 55.576 215.835 56.371 215.535C55.786 217.38 53.746 223.8 53.326 225.45H53.311ZM52.861 215.715C51.9314 214.106 51.1096 212.438 50.401 210.72L50.866 210.465C51.076 210.585 56.206 213.615 56.581 213.855C55.4119 214.599 54.1706 215.222 52.876 215.715H52.861ZM57.361 212.415C56.236 211.665 54.706 210.75 53.536 210.075C53.9363 209.013 54.1984 207.904 54.316 206.775L58.576 209.175C58.501 209.745 57.991 210.915 57.451 212.415H57.361ZM67.291 218.415L64.981 217.02C63.9545 216.615 62.8124 216.615 61.786 217.02C62.3673 215.267 62.7891 213.464 63.046 211.635L68.476 214.635C67.9212 215.858 67.5522 217.158 67.381 218.49L67.291 218.415Z" fill="white"/>
<path d="M291.526 223.755C289.096 201.135 268.156 166.35 255.646 147.345C262.631 147.904 269.642 148.079 276.646 147.87C278.641 147.87 283.861 147.51 284.866 147.315C285.451 147.195 285.541 146.64 284.656 146.61C283.771 146.58 277.471 146.28 276.616 146.265H261.361C259.021 146.355 255.361 146.565 255.151 146.565C250.651 139.71 247.516 135.42 247.486 135.405C247.452 135.37 247.41 135.343 247.364 135.325C247.319 135.308 247.27 135.3 247.22 135.303C247.171 135.306 247.124 135.319 247.08 135.342C247.037 135.365 246.999 135.397 246.968 135.436C246.938 135.474 246.917 135.519 246.905 135.567C246.894 135.615 246.893 135.664 246.902 135.712C246.911 135.761 246.931 135.806 246.959 135.846C246.987 135.887 247.024 135.92 247.066 135.945C247.756 136.5 278.071 180.795 287.341 211.305C291.016 223.41 293.191 238.605 281.341 242.805C253.201 252.855 32.8063 256.125 11.9713 244.305C9.0763 242.67 8.4013 239.265 8.9713 234.675C9.8563 228.3 13.2913 219.675 17.4313 210.015C22.0963 214.515 60.7963 250.05 67.0663 248.715C73.3363 247.38 108.601 231 110.056 227.865C110.902 225.687 111.349 223.376 111.376 221.04C111.554 220.796 111.637 220.495 111.609 220.194C111.581 219.893 111.445 219.613 111.226 219.405C108.901 217.095 62.7763 180.525 59.8063 180.63C57.7363 180.72 53.9863 182.85 52.2013 183.9C51.6226 182.953 50.7609 182.212 49.7381 181.781C48.7153 181.351 47.5831 181.252 46.5013 181.5C45.4814 181.912 44.5681 182.55 43.8302 183.366C43.0924 184.181 42.5491 185.154 42.2413 186.21C42.2581 186.291 42.3023 186.364 42.3666 186.416C42.4308 186.468 42.511 186.497 42.5938 186.497C42.6766 186.497 42.7568 186.468 42.8211 186.416C42.8853 186.364 42.9295 186.291 42.9463 186.21C43.8485 184.684 45.2788 183.542 46.9663 183C47.668 182.892 48.3858 182.986 49.0364 183.27C49.6869 183.554 50.2435 184.017 50.6413 184.605L33.9613 191.73C33.0757 190.82 31.97 190.153 30.7513 189.795C27.9013 189.045 25.9813 190.92 24.8413 193.665C24.8162 193.744 24.8191 193.829 24.8495 193.906C24.8799 193.983 24.936 194.048 25.0082 194.088C25.0805 194.129 25.1645 194.143 25.2462 194.129C25.3278 194.115 25.402 194.073 25.4563 194.01C27.3763 191.235 29.5963 190.29 32.2513 192.51C29.0413 193.935 24.5563 195.96 21.4063 197.52C21.6313 197.16 54.0013 138.54 54.0013 138.39C55.4263 135.75 58.2913 131.025 61.2463 130.41C62.5819 130.119 63.9443 129.968 65.3113 129.96C63.2263 133.41 46.3063 161.46 46.2763 165.42C46.2763 169.92 47.0563 169.215 49.4563 169.92C51.8563 170.625 186.151 169.8 186.391 169.8C188.716 169.8 197.806 169.5 198.646 168.885C201.256 166.965 200.671 164.1 199.531 161.085C199.261 160.365 197.896 157.38 196.066 153.39C203.941 151.02 209.866 154.035 210.406 166.89C210.946 178.005 206.566 181.395 198.181 180.915C191.446 180.525 186.796 178.545 185.326 181.17C183.676 184.095 188.236 190.665 190.216 193.395C189.931 193.395 177.376 193.14 174.211 193.005C169.751 192.832 165.286 192.887 160.831 193.17C157.764 193.238 154.714 193.655 151.741 194.415C150.616 194.97 149.161 197.865 148.546 199.08C147.331 201.465 141.796 216.435 140.266 220.755C139.366 223.245 136.321 231.495 138.361 232.95C138.286 234.555 138.541 236.7 139.951 237.45C141.361 238.2 160.741 238.74 162.226 238.77C164.851 238.845 191.386 239.19 208.321 238.44C225.256 237.69 232.651 236.07 232.216 236.115C232.646 235.988 233.033 235.744 233.332 235.411C233.632 235.077 233.832 234.666 233.911 234.225C234.143 233.116 234.07 231.966 233.701 230.895C235.591 227.22 221.296 196.71 217.336 194.565C217.102 194.433 216.84 194.361 216.571 194.355C215.776 194.355 197.986 193.605 191.071 193.38C189.571 191.265 184.696 183.3 186.571 181.605C189.421 179.115 213.226 191.595 211.951 166.755C211.291 155.52 206.116 148.935 195.616 152.745C194.701 150.765 187.021 134.355 184.966 129.99C192.927 130.466 200.914 130.291 208.846 129.465C208.96 130.865 209.363 132.226 210.029 133.463C210.695 134.699 211.61 135.785 212.716 136.65C218.716 141.15 242.596 140.475 246.931 134.97C248.146 133.309 248.986 131.404 249.392 129.386C249.799 127.369 249.763 125.287 249.286 123.285C249.685 123.031 249.995 122.659 250.171 122.22C250.411 121.755 250.171 121.17 249.136 120.96C247.801 120.76 246.451 120.68 245.101 120.72C245.101 119.49 245.176 117.195 245.101 114.585C245.236 114.495 246.211 113.325 246.316 113.19C247.512 111.793 248.456 110.199 249.106 108.48C249.601 107.085 249.796 105.48 248.491 104.7C246.481 103.605 245.071 105.615 244.396 107.865C243.766 104.4 242.311 99.315 238.831 99.825C232.921 100.725 237.001 115.05 238.921 120.72C237.235 120.483 235.523 120.483 233.836 120.72C235.711 116.01 236.671 109.92 231.856 109.005C231.126 108.844 230.365 108.9 229.667 109.166C228.968 109.433 228.363 109.898 227.926 110.505C227.83 110.165 227.649 109.856 227.4 109.606C227.152 109.355 226.844 109.172 226.505 109.073C226.166 108.974 225.808 108.963 225.464 109.04C225.119 109.117 224.8 109.281 224.536 109.515C222.331 111.105 223.591 114.75 226.156 115.95C226.021 117.492 226.021 119.043 226.156 120.585C224.559 120.392 222.943 120.427 221.356 120.69C221.267 117.027 220.866 113.379 220.156 109.785C221.068 109.136 221.835 108.306 222.408 107.345C222.981 106.384 223.348 105.315 223.486 104.205C223.696 102.21 222.991 100.545 221.326 100.11C219.241 99.57 218.011 101.025 217.651 103.11C215.806 100.56 212.191 99.645 210.436 102.57C204.811 96.72 202.096 99.99 203.521 102.57C204.586 104.55 207.361 105.66 209.521 106.275C209.521 109.635 211.021 112.47 212.881 115.365C214.126 117.315 215.521 119.19 216.601 120.57C214.267 120.495 211.931 120.646 209.626 121.02C208.216 121.395 207.991 122.415 209.296 123.15C208.884 124.908 208.732 126.718 208.846 128.52C200.789 128.091 192.71 128.282 184.681 129.09C184.171 127.995 182.656 124.8 182.476 124.425C182.296 124.05 183.736 119.7 185.761 79.26C195.061 78.48 236.881 79.41 240.721 77.925C240.941 77.846 241.137 77.7099 241.287 77.5306C241.437 77.3514 241.537 77.1355 241.576 76.905C242.851 72.72 243.721 36.75 241.576 33.405C241.051 32.58 239.176 32.325 238.141 32.175C224.776 30.225 169.006 31.065 166.141 32.58C163.276 34.095 164.491 48.885 165.031 51.825C136.066 50.895 69.1813 52.71 62.8813 55.065C61.3813 55.605 60.8263 57.66 60.5263 59.205C58.0363 72.06 65.0263 113.43 67.3663 126.21C67.2163 126.21 67.3663 126.21 65.5363 129.06C63.9874 128.945 62.4301 129.026 60.9013 129.3C57.4813 129.825 54.3313 134.55 52.5913 137.49C52.5163 137.64 48.0913 144.99 47.4313 146.19C43.6663 145.605 26.1613 145.83 23.9413 145.95C21.7213 146.07 19.4413 146.235 17.4313 146.385C17.0713 146.385 17.0413 147.075 17.4313 147.09C21.6313 147.345 23.1763 147.435 26.4313 147.48C34.3963 147.6 46.1413 147.93 46.5163 147.885C45.7363 149.25 34.1863 169.8 32.6413 172.71C25.9213 185.31 20.6413 196.845 20.3263 197.82C18.5826 198.613 16.9449 199.621 15.4513 200.82C14.9695 202.142 14.6815 203.526 14.5963 204.93C14.5213 207.345 15.3913 207.93 16.7263 209.28C13.1442 216.955 10.1992 224.912 7.9213 233.07C7.17764 236.37 7.14696 239.792 7.8313 243.105C8.44376 246.417 9.58858 249.609 11.2213 252.555C11.9547 253.3 12.9051 253.793 13.9363 253.965C17.8813 255.075 30.1063 256.5 34.2013 256.965C33.8926 258.798 33.807 260.661 33.9463 262.515C33.9503 264.425 34.2282 266.324 34.7713 268.155C34.7762 268.2 34.79 268.244 34.8119 268.284C34.8338 268.324 34.8634 268.359 34.8989 268.388C34.9344 268.417 34.9752 268.438 35.0189 268.451C35.0627 268.463 35.1085 268.467 35.1538 268.462C35.1991 268.458 35.243 268.444 35.283 268.422C35.3229 268.4 35.3582 268.37 35.3868 268.335C35.4153 268.299 35.4366 268.259 35.4494 268.215C35.4622 268.171 35.4662 268.125 35.4613 268.08C35.7013 266.21 35.7666 264.322 35.6563 262.44C35.6464 260.628 35.4402 258.822 35.0413 257.055C37.1113 257.235 39.1063 257.385 40.8463 257.445C40.5696 259.196 40.4941 260.972 40.6213 262.74C40.6264 264.65 40.9042 266.549 41.4463 268.38C41.4463 268.471 41.4827 268.559 41.5474 268.624C41.6121 268.689 41.6998 268.725 41.7913 268.725C41.8828 268.725 41.9706 268.689 42.0353 268.624C42.1 268.559 42.1363 268.471 42.1363 268.38C42.3844 266.511 42.4547 264.622 42.3463 262.74C42.336 260.988 42.1348 259.243 41.7463 257.535C45.0913 257.61 94.3213 262.035 179.341 260.355C202.126 259.905 229.516 258.855 252.076 256.38C251.779 258.189 251.693 260.026 251.821 261.855C251.829 263.761 252.111 265.655 252.661 267.48C252.651 267.53 252.651 267.582 252.663 267.632C252.675 267.682 252.698 267.729 252.731 267.769C252.763 267.809 252.804 267.841 252.85 267.863C252.897 267.885 252.947 267.897 252.999 267.897C253.05 267.897 253.101 267.885 253.147 267.863C253.194 267.841 253.235 267.809 253.267 267.769C253.299 267.729 253.322 267.682 253.334 267.632C253.346 267.582 253.347 267.53 253.336 267.48C253.598 265.612 253.669 263.722 253.546 261.84C253.53 259.987 253.314 258.141 252.901 256.335C254.566 256.155 258.421 255.675 258.751 255.63C258.456 257.429 258.375 259.257 258.511 261.075C258.512 262.985 258.79 264.885 259.336 266.715C259.346 266.806 259.392 266.89 259.464 266.948C259.536 267.006 259.627 267.032 259.719 267.022C259.81 267.013 259.894 266.967 259.952 266.895C260.009 266.823 260.036 266.731 260.026 266.64C260.273 264.776 260.339 262.892 260.221 261.015C260.212 259.167 259.995 257.325 259.576 255.525C266.341 254.61 287.026 251.82 289.846 246.045C293.176 239.46 292.906 230.895 291.526 223.755ZM155.026 199.605C155.191 199.2 160.216 198.105 165.706 199.605C165.757 199.594 165.809 199.595 165.859 199.607C165.908 199.619 165.955 199.642 165.995 199.674C166.035 199.707 166.067 199.748 166.089 199.794C166.111 199.84 166.123 199.891 166.123 199.942C166.123 199.994 166.111 200.045 166.089 200.091C166.067 200.137 166.035 200.178 165.995 200.211C165.955 200.243 165.908 200.266 165.859 200.278C165.809 200.29 165.757 200.291 165.706 200.28C162.973 200.766 160.181 200.836 157.426 200.49C156.136 200.28 154.501 200.265 154.981 199.605H155.026ZM232.141 235.275C218.266 237.915 141.616 237.315 140.461 236.775C139.306 236.235 139.201 234.495 139.171 233.355C147.481 236.055 228.676 233.97 233.191 231.585C233.431 232.905 233.491 235.02 232.096 235.275H232.141ZM203.026 199.77C203.026 199.26 206.326 198.975 206.476 198.96C208.438 198.809 210.409 198.809 212.371 198.96C213.466 199.08 214.981 199.23 214.861 199.695C214.741 200.16 212.476 200.355 212.086 200.415C210.62 200.55 209.148 200.61 207.676 200.595C206.686 200.565 202.921 200.385 202.981 199.77H203.026ZM222.301 204.765C226.054 211.916 229.205 219.366 231.721 227.04C232.041 228.009 232.218 229.02 232.246 230.04C225.481 232.14 147.511 234.3 139.621 232.035C139.246 231.93 139.141 232.035 139.051 231.405C138.481 227.325 145.156 211.11 146.701 207.33C175.081 206.385 222.001 204.93 222.256 204.765H222.301ZM209.671 105.6C208.031 104.699 206.542 103.545 205.261 102.18C204.676 101.295 204.811 100.68 206.536 101.52C207.616 102.015 209.131 102.9 210.151 103.515C209.889 104.182 209.727 104.885 209.671 105.6ZM245.671 108.285C246.871 106.125 248.056 105.51 247.936 106.785C247.292 109.067 246.375 111.262 245.206 113.325C245.116 111.825 245.011 110.82 244.891 109.83C244.951 109.62 245.251 108.99 245.626 108.285H245.671ZM239.296 121.335C239.596 122.19 239.791 122.7 239.806 122.73C239.823 122.772 239.848 122.811 239.879 122.844C239.911 122.877 239.949 122.903 239.991 122.921C240.032 122.94 240.077 122.949 240.123 122.95C240.169 122.95 240.214 122.942 240.256 122.925C240.916 122.67 239.941 122.055 238.381 113.01C237.916 110.31 236.536 101.985 239.266 101.595C241.486 101.265 242.686 106.77 243.106 108.945C243.885 113.137 244.386 117.377 244.606 121.635C244.605 121.718 244.634 121.799 244.688 121.862C244.741 121.926 244.816 121.968 244.898 121.98C244.98 121.993 245.064 121.976 245.135 121.932C245.205 121.888 245.257 121.819 245.281 121.74C245.286 121.655 245.286 121.57 245.281 121.485C246.637 121.525 247.985 121.711 249.301 122.04C249.134 122.236 248.923 122.39 248.686 122.49C245.536 124.11 236.011 123.795 232.726 123.735C233.176 122.835 233.491 122.145 233.836 121.32C235.629 121.615 237.457 121.62 239.251 121.335H239.296ZM227.596 118.05C227.941 115.05 228.706 110.265 231.736 110.835C234.766 111.405 234.001 115.8 233.341 118.74C232.934 120.427 232.434 122.089 231.841 123.72H227.341C227.305 121.828 227.375 119.935 227.551 118.05H227.596ZM225.691 111C225.761 110.934 225.844 110.882 225.935 110.85C226.025 110.817 226.122 110.804 226.218 110.811C226.314 110.818 226.408 110.846 226.493 110.891C226.578 110.936 226.652 110.999 226.711 111.075C226.95 111.314 227.166 111.575 227.356 111.855C226.93 112.812 226.633 113.82 226.471 114.855C225.691 113.775 224.686 111.81 225.691 111ZM220.966 101.88C222.916 102.495 221.386 107.625 220.081 109.185C219.721 107.571 219.182 106.001 218.476 104.505C218.911 103.185 219.646 101.46 220.966 101.865V101.88ZM217.276 121.5C218.011 122.43 218.491 123 218.491 123C218.551 123.059 218.63 123.094 218.713 123.099C218.797 123.104 218.879 123.078 218.945 123.027C219.012 122.975 219.057 122.902 219.072 122.82C219.088 122.737 219.074 122.652 219.031 122.58C219.031 122.58 216.376 118.8 214.186 114.885C212.536 111.885 210.961 108.885 211.396 105.57C211.741 102.96 213.121 101.85 215.446 103.365C218.806 105.525 220.336 118.845 220.816 122.865C220.821 122.97 220.858 123.071 220.923 123.155C220.987 123.238 221.076 123.299 221.176 123.33C221.581 123.33 221.521 122.895 221.506 122.685C221.491 122.475 221.506 121.425 221.506 121.32C223.1 121.522 224.713 121.522 226.306 121.32C226.396 122.415 226.501 123.27 226.576 123.72C221.251 123.72 214.816 124.08 210.406 122.355C212.673 121.907 214.969 121.621 217.276 121.5ZM210.091 123.705C212.285 124.555 214.598 125.061 216.946 125.205C219.601 125.445 237.676 125.475 239.731 125.37C242.83 125.319 245.898 124.746 248.806 123.675C249.085 125.517 248.98 127.397 248.498 129.196C248.015 130.995 247.165 132.675 246.001 134.13C242.356 138.405 219.301 139.38 213.766 135.48C210.121 132.975 209.461 127.965 210.091 123.69V123.705ZM198.001 167.745C198.316 168.75 55.2913 168.795 55.1413 168.78C49.1413 168.78 50.6413 168.78 48.6313 168.285C48.0913 168.165 47.9863 168.165 47.8813 167.64C47.7541 166.816 47.7189 165.981 47.7763 165.15C47.8078 165.212 47.8586 165.261 47.9209 165.291C47.9832 165.321 48.0537 165.329 48.1213 165.315C48.1213 165.315 197.956 163.275 198.931 163.245C199.336 165 199.396 166.635 198.001 167.745ZM240.196 76.71C240.196 76.71 240.286 76.56 240.316 76.605C240.346 76.65 240.196 76.695 240.121 76.71H240.196ZM165.601 38.88C165.601 37.905 165.991 34.215 166.861 33.765C168.841 32.775 231.766 31.935 240.361 34.62C241.861 37.77 241.381 73.155 240.121 76.71C232.741 77.865 195.601 77.775 185.941 78.765C186.526 66.96 186.781 57.015 186.301 55.08C186.209 54.8276 186.059 54.6002 185.864 54.4154C185.669 54.2306 185.433 54.0936 185.176 54.015C181.891 52.59 169.531 52.185 165.931 52.065C165.464 47.6862 165.354 43.2767 165.601 38.88ZM61.8763 76.65C61.6513 73.5 60.5413 57.6 63.5413 56.49C65.0413 55.965 70.3213 55.44 77.9863 54.99C92.6713 54.075 115.816 53.34 136.876 53.19C141.556 53.19 181.096 52.845 184.966 55.5C186.106 60.69 182.461 118.35 181.651 123.915C146.206 125.07 104.206 126.81 68.4613 125.94C67.8613 122.505 63.2713 96 61.8763 76.65ZM67.9963 126.945C67.9992 126.91 67.9992 126.875 67.9963 126.84C93.2713 127.62 172.366 125.025 181.996 124.965C183.061 127.44 198.016 160.62 198.646 162.465C198.481 162.465 48.0013 164.505 47.8063 164.655C49.6963 158.325 65.3263 131.565 67.9963 126.945ZM109.231 227.445C108.121 229.605 74.4913 244.635 67.5763 246.72C67.7104 246.029 67.7608 245.323 67.7263 244.62C77.9413 241.08 100.111 231.735 110.056 225.12C109.867 225.928 109.59 226.712 109.231 227.46V227.445ZM110.266 224.13C107.266 225.9 104.401 227.13 67.7113 243.81C67.7127 243.131 67.6219 242.455 67.4413 241.8C72.2413 239.55 104.791 226.935 110.596 221.91C110.521 222.555 110.416 223.335 110.266 224.145V224.13ZM33.0013 193.35C33.7226 194.2 34.169 195.248 34.2815 196.357C34.394 197.466 34.1673 198.583 33.6313 199.56C33.3913 199.935 33.9613 200.325 34.2013 199.935C35.1069 198.948 35.6422 197.677 35.716 196.34C35.7899 195.002 35.3977 193.681 34.6063 192.6C41.8963 189.255 49.0663 186.105 51.0313 185.25C51.5229 186.249 51.786 187.344 51.8016 188.457C51.8172 189.57 51.5848 190.673 51.1213 191.685C50.9413 192.165 51.4813 192.345 51.7363 192.03C52.5613 190.982 53.0747 189.723 53.218 188.396C53.3612 187.07 53.1285 185.73 52.5463 184.53C54.1663 183.615 57.9463 181.53 59.7913 181.53C62.1013 181.53 108.976 219.66 109.846 220.53C105.931 224.565 69.5863 238.95 66.5263 240.42C60.0763 238.92 20.7163 205.065 17.0263 201.585C19.3213 199.68 30.4213 194.55 33.0013 193.35ZM15.8863 202.275C20.5663 206.85 59.6113 240.93 66.1513 242.01C66.0201 242.575 65.9596 243.155 65.9713 243.735C55.4713 238.605 25.4713 212.625 15.5413 204.27C15.5863 204.27 15.8113 202.8 15.9313 202.275H15.8863ZM16.1113 207.42C15.6882 206.776 15.4783 206.015 15.5113 205.245C25.3213 215.145 53.0113 239.49 65.9563 244.56C65.9296 245.362 66.0103 246.164 66.1963 246.945C58.5013 245.22 17.1313 208.65 16.1563 207.42H16.1113ZM289.111 245.55C279.421 264.78 16.4713 259.755 12.2113 252.255C10.4056 249.116 9.18573 245.675 8.6113 242.1C9.18995 243.367 10.1565 244.418 11.3713 245.1C33.4513 257.955 253.126 254.595 281.806 244.29C287.881 242.1 290.941 237.375 291.631 230.79C292.038 235.846 291.161 240.923 289.081 245.55H289.111Z" fill="white"/>
<path d="M64.5 143.535C170.565 145.035 180.69 144.12 183.66 143.655C184.365 143.55 184.815 143.31 184.785 142.485C184.785 140.31 179.685 130.335 178.335 129.645C177.735 129.33 70.335 130.845 69.96 130.965C69.8902 130.982 69.8247 131.013 69.7678 131.057C69.7109 131.101 69.664 131.157 69.63 131.22C68.61 132.885 63.63 141.105 63.855 142.965C63.8794 143.12 63.9572 143.262 64.0749 143.366C64.1926 143.47 64.343 143.53 64.5 143.535ZM70.395 132C71.475 131.865 177.135 130.815 177.78 130.875C178.9 132.486 179.902 134.175 180.78 135.93C178.32 135.93 68.37 136.515 67.8 136.53C68.46 135.21 69.33 133.71 70.395 132ZM67.395 137.25C67.98 137.25 179.235 136.68 181.14 136.635C182.127 138.473 182.907 140.415 183.465 142.425C178.125 143.28 129.465 142.86 65.04 142.425C65.642 140.608 66.4207 138.855 67.365 137.19L67.395 137.25ZM147.285 148.635C146.986 147.973 146.497 147.414 145.88 147.03C145.263 146.645 144.546 146.452 143.82 146.475C140.01 146.475 108.015 145.59 105.135 146.76C103.296 148.988 101.874 151.528 100.935 154.26C100.845 154.92 101.175 155.22 101.58 155.265C110.58 156.24 140.415 157.17 148.155 155.745C149.115 155.565 149.235 154.545 149.04 153.57C148.576 151.885 147.989 150.235 147.285 148.635ZM102 154.26C102.862 151.826 104.031 149.512 105.48 147.375C107.76 146.625 137.415 148.185 143.865 148.17C144.249 148.156 144.629 148.254 144.959 148.451C145.289 148.648 145.555 148.936 145.725 149.28C146.454 150.838 147.022 152.467 147.42 154.14C139.815 155.325 107.52 154.65 102 154.26ZM251.46 150.555C249.345 147.645 238.74 147.78 235.185 147.885C232.185 147.885 221.28 148.38 221.28 151.32C221.293 151.558 221.362 151.79 221.482 151.996C221.602 152.202 221.769 152.377 221.97 152.505C222.255 152.73 220.29 172.5 222.99 183.105C223.875 186.615 225.015 188.355 228.36 189.81C234.78 192.6 245.43 191.985 249.705 186.03C250.56 184.29 250.38 179.22 250.455 177.675C257.1 178.995 262.545 176.295 263.955 169.14C264.84 164.535 263.7 161.52 261.735 159.69C260.422 158.621 258.87 157.886 257.212 157.546C255.553 157.207 253.837 157.273 252.21 157.74C252.153 157.759 252.093 157.765 252.033 157.755C251.974 157.746 251.918 157.723 251.869 157.688C251.821 157.653 251.782 157.606 251.755 157.553C251.728 157.499 251.714 157.44 251.715 157.38C251.715 156.585 252 151.2 251.46 150.555ZM222.96 150.87C227.01 148.5 243.51 148.32 248.835 150.735C249.015 150.825 249.69 151.17 249.69 151.32C249.69 151.47 249 151.83 248.835 151.905C244.815 153.72 230.46 154.545 222.915 151.785C222.39 151.5 222.915 150.93 222.915 150.87H222.96ZM252.63 159.27C253.993 158.877 255.431 158.821 256.821 159.105C258.211 159.39 259.511 160.008 260.61 160.905C262.23 162.405 263.04 164.985 262.29 168.81C262.141 170.14 261.68 171.416 260.945 172.534C260.21 173.652 259.222 174.581 258.06 175.245C255.6 176.352 252.83 176.564 250.23 175.845C250.102 175.799 249.966 175.779 249.831 175.788C249.695 175.796 249.562 175.832 249.441 175.894C249.32 175.956 249.213 176.042 249.127 176.147C249.041 176.253 248.977 176.374 248.94 176.505C248.535 177.645 249.105 182.25 248.28 185.16C244.485 190.305 234.78 190.77 229.035 188.355C226.125 187.11 225.315 185.82 224.535 182.715C222.525 175.35 222.405 160.35 222.855 152.97C227.58 155.205 243.945 155.85 250.38 152.55C250.38 157.2 249.81 157.98 250.98 158.925C251.206 159.096 251.467 159.215 251.744 159.275C252.022 159.334 252.309 159.333 252.585 159.27H252.63ZM106.92 191.055C102.981 187.714 98.7429 184.741 94.26 182.175C92.5331 181.156 90.6964 180.336 88.785 179.73C87.18 179.31 86.505 180.135 86.835 181.23C87.5112 182.802 88.405 184.272 89.49 185.595C92.9414 189.964 96.9105 193.898 101.31 197.31C108 202.905 116.67 209.685 123 214.5C123.323 214.736 123.689 214.905 124.078 214.997C124.466 215.089 124.869 215.103 125.263 215.037C125.657 214.971 126.034 214.828 126.372 214.614C126.71 214.401 127.001 214.123 127.23 213.795C128.34 212.58 129.03 210.45 127.785 209.295C126.345 208.005 117.54 199.71 106.92 191.055ZM92.55 187.725L90.495 184.41C91.2266 184.106 91.8453 183.582 92.265 182.91L95.52 184.23C94.7033 184.392 93.9653 184.826 93.4261 185.46C92.8869 186.095 92.5781 186.893 92.55 187.725ZM97.155 191.55C96.071 190.638 95.0673 189.634 94.155 188.55C94.26 186.735 94.83 185.925 96.645 185.865C97.8543 186.443 98.9962 187.152 100.05 187.98C99.2434 188.177 98.5235 188.632 98.0006 189.277C97.4777 189.922 97.1807 190.72 97.155 191.55ZM122.805 213.375C121.14 211.98 99 193.2 97.635 192C97.7495 191.16 98.1163 190.375 98.6868 189.748C99.2573 189.122 100.005 188.683 100.83 188.49C106.005 192.33 113.445 198.69 126.42 209.49C125.915 209.464 125.41 209.55 124.942 209.74C124.473 209.93 124.052 210.22 123.707 210.59C123.363 210.96 123.103 211.402 122.948 211.883C122.792 212.364 122.743 212.873 122.805 213.375ZM241.665 229.995C243.54 231.27 244.845 230.685 246.06 228.915C249.06 224.655 259.56 205.8 259.56 205.65C259.56 205.5 259.68 205.785 259.185 199.725C259.164 199.497 259.081 199.279 258.947 199.094C258.812 198.909 258.63 198.764 258.42 198.673C258.21 198.583 257.979 198.55 257.752 198.58C257.525 198.609 257.31 198.699 257.13 198.84L252 202.575C252 202.575 240.615 226.11 240.495 226.32C240.289 226.979 240.291 227.685 240.5 228.342C240.71 229 241.116 229.577 241.665 229.995ZM257.55 200.67C257.64 201.765 257.76 203.22 257.85 204.225C256.736 203.692 255.57 203.275 254.37 202.98L257.55 200.67ZM253.26 204C254.56 204.922 256.062 205.518 257.64 205.74C257.415 206.13 245.955 227.04 245.835 227.25C245.487 226.541 244.914 225.968 244.206 225.618C243.498 225.268 242.695 225.161 241.92 225.315C243.09 223.14 252.84 204.75 253.26 204Z" fill="white"/>
<path d="M246.361 174.255C246.199 174.028 245.994 173.835 245.757 173.689C245.52 173.542 245.257 173.444 244.981 173.4C244.094 173.163 243.192 172.982 242.281 172.86C242.791 176.43 243.091 180.36 243.076 180.705C243.053 180.933 242.941 181.143 242.764 181.289C242.587 181.436 242.36 181.506 242.131 181.485C241.902 181.458 241.691 181.343 241.546 181.164C241.4 180.984 241.33 180.755 241.351 180.525C241.351 180.27 241.261 179.235 241.186 172.71C238.186 172.335 223.741 171.21 224.311 174.09C224.311 174.24 223.126 181.59 227.716 185.115C232.306 188.64 241.486 187.95 244.696 184.365C245.607 183.274 246.208 181.958 246.436 180.555C246.79 178.467 246.765 176.333 246.361 174.255ZM249.961 160.68C249.961 161.355 249.061 166.515 248.461 173.445L249.181 173.595C251.82 174.155 254.57 173.855 257.026 172.74C257.883 172.264 258.592 171.562 259.076 170.71C259.56 169.858 259.801 168.889 259.771 167.91C259.873 166.692 259.661 165.469 259.156 164.356C258.651 163.244 257.87 162.279 256.886 161.554C255.902 160.829 254.75 160.368 253.538 160.215C252.325 160.062 251.094 160.222 249.961 160.68ZM250.636 161.19C251.594 161.038 252.572 161.094 253.506 161.352C254.441 161.611 255.308 162.067 256.051 162.69C256.764 163.344 257.317 164.154 257.665 165.057C258.014 165.96 258.15 166.931 258.061 167.895C257.926 171.75 253.966 172.485 250.171 172.095C250.351 169.365 250.501 166.23 250.636 161.19ZM234.571 73.1398C234.567 73.407 234.616 73.6723 234.715 73.9205C234.814 74.1687 234.962 74.3948 235.148 74.5858C235.335 74.7769 235.558 74.929 235.804 75.0335C236.05 75.1381 236.314 75.1929 236.581 75.1948C236.989 75.2038 237.391 75.0909 237.735 74.8706C238.079 74.6503 238.349 74.3326 238.512 73.9579C238.674 73.5833 238.721 73.1688 238.647 72.7672C238.573 72.3657 238.381 71.9953 238.095 71.7034C237.81 71.4115 237.444 71.2112 237.044 71.1282C236.644 71.0452 236.229 71.0832 235.851 71.2373C235.472 71.3915 235.149 71.6547 234.921 71.9936C234.693 72.3324 234.571 72.7315 234.571 73.1398ZM70.3962 122.625C70.7412 123.3 71.1912 123.375 71.4762 123.165C71.7612 122.955 166.756 122.13 173.821 121.755C175.341 121.778 176.856 121.586 178.321 121.185C181.696 118.185 183.016 62.0998 181.696 59.5048C178.321 52.7698 72.6912 57.1048 66.1962 59.0698C61.0212 60.6298 68.0112 117.84 70.3962 122.625ZM65.9112 61.4998C65.9112 61.2298 66.2412 60.1798 66.4962 60.1048C73.6812 57.9448 178.006 54.3898 180.841 60.0298C181.083 61.1583 181.194 62.311 181.171 63.4648C181.426 70.0048 181.171 84.0148 180.496 96.5698C180.361 98.9698 179.296 118.635 177.736 120.42C171.511 121.74 75.5862 122.04 71.3262 122.205C68.8962 116.565 63.6462 71.3998 65.9112 61.4998ZM236.776 40.0648C237.184 40.0737 237.585 39.9612 237.928 39.7416C238.272 39.5219 238.542 39.2051 238.705 38.8313C238.868 38.4576 238.916 38.0438 238.843 37.6427C238.77 37.2416 238.58 36.8712 238.296 36.5787C238.011 36.2862 237.647 36.0848 237.248 36.0002C236.849 35.9155 236.434 35.9513 236.056 36.1031C235.678 36.2549 235.353 36.5159 235.123 36.8527C234.894 37.1896 234.769 37.5871 234.766 37.9948C234.76 38.2633 234.808 38.5302 234.906 38.7801C235.004 39.03 235.151 39.2579 235.338 39.4506C235.525 39.6432 235.748 39.7967 235.995 39.9022C236.242 40.0076 236.508 40.0629 236.776 40.0648Z" fill="white"/>
<path d="M95.2663 99.3H113.086C115.148 99.292 117.123 98.4663 118.577 97.0039C120.031 95.5416 120.845 93.5621 120.841 91.5V77.04C120.841 74.9735 120.028 72.99 118.576 71.5189C117.125 70.0479 115.153 69.2076 113.086 69.18H95.2663C94.233 69.176 93.2091 69.3766 92.2537 69.7702C91.2983 70.1638 90.4303 70.7426 89.6996 71.4733C88.9689 72.2039 88.3901 73.072 87.9965 74.0274C87.6029 74.9828 87.4023 76.0067 87.4063 77.04V91.5C87.4102 92.5282 87.6167 93.5456 88.0138 94.4941C88.4109 95.4426 88.991 96.3036 89.7209 97.0279C90.4507 97.7522 91.3161 98.3256 92.2676 98.7155C93.2191 99.1053 94.2381 99.3039 95.2663 99.3ZM88.6813 77.04C88.7086 75.3062 89.4126 73.6518 90.6429 72.4299C91.8732 71.208 93.5324 70.5154 95.2663 70.5H113.086C113.962 70.4901 114.831 70.6538 115.643 70.9816C116.455 71.3094 117.194 71.7948 117.818 72.4099C118.441 73.0249 118.936 73.7574 119.275 74.565C119.614 75.3725 119.789 76.2392 119.791 77.115V91.5C119.787 92.3766 119.611 93.2438 119.272 94.0521C118.933 94.8605 118.438 95.5941 117.815 96.2112C117.192 96.8282 116.454 97.3166 115.643 97.6484C114.832 97.9802 113.963 98.1489 113.086 98.145H95.2663C94.3976 98.1411 93.5382 97.9661 92.7371 97.63C91.9361 97.2939 91.209 96.8034 90.5976 96.1863C89.9861 95.5693 89.5021 94.8378 89.1733 94.0337C88.8446 93.2297 88.6774 92.3687 88.6813 91.5V77.04ZM143.446 110.01C143.746 110.895 144.496 110.7 144.706 110.145C144.991 109.35 146.656 103.635 146.866 102.645C148.021 102.285 144.766 103.41 154.831 99.75C154.936 99.7095 155.025 99.6385 155.089 99.5461C155.152 99.4538 155.186 99.3444 155.186 99.2325C155.186 99.1205 155.152 99.0112 155.089 98.9189C155.025 98.8265 154.936 98.7554 154.831 98.715L139.411 92.55C139.317 92.5052 139.212 92.486 139.107 92.4943C139.003 92.5026 138.902 92.538 138.816 92.5972C138.73 92.6564 138.66 92.7371 138.614 92.8315C138.569 92.9258 138.549 93.0305 138.556 93.135C138.556 93.135 142.621 107.625 143.446 110.01ZM140.101 94.155L153.091 99.27C151.351 99.915 148.411 101.025 147.001 101.595C146.371 101.835 146.116 101.94 145.966 102.135C145.816 102.33 146.341 101.16 144.136 107.955L140.101 94.155ZM175.501 50.175C175.519 50.265 175.568 50.3458 175.639 50.4035C175.71 50.4611 175.8 50.4917 175.891 50.49C176.206 50.49 185.911 51.42 187.891 50.895C189.166 50.55 189.391 48.3 189.511 46.98C189.661 44.985 189.511 40.095 188.671 38.43C187.531 36.18 179.116 36.93 176.671 37.365C176.022 37.4563 175.402 37.6921 174.856 38.055C174.538 38.4238 174.354 38.8886 174.331 39.375C174.316 43.0074 174.709 46.63 175.501 50.175ZM175.936 39.21C178.306 38.475 185.056 38.19 187.201 39.21C187.936 41.16 188.326 47.865 187.441 49.425C186.046 49.785 177.526 49.785 176.101 49.8C176.056 48.63 175.366 42.315 175.936 39.21ZM195.631 50.115C195.652 50.2037 195.701 50.2829 195.772 50.3401C195.842 50.3972 195.93 50.4289 196.021 50.43C196.336 50.43 206.041 51.36 208.021 50.835C209.296 50.49 209.521 48.24 209.656 46.92C209.791 44.925 209.656 40.035 208.801 38.37C207.661 36.105 199.246 36.87 196.801 37.305C196.154 37.4025 195.535 37.6378 194.986 37.995C194.675 38.3679 194.491 38.8303 194.461 39.315C194.447 42.9474 194.84 46.5699 195.631 50.115ZM196.066 39.15C198.436 38.4 205.186 38.13 207.331 39.15C208.066 41.1 208.456 47.805 207.571 49.35C206.176 49.725 197.656 49.725 196.231 49.74C196.186 48.57 195.496 42.255 196.066 39.15ZM216.691 50.775C216.709 50.865 216.758 50.9459 216.829 51.0035C216.9 51.0611 216.99 51.0917 217.081 51.09C217.396 51.09 227.101 52.02 229.081 51.495C230.356 51.15 230.581 48.9 230.701 47.58C230.851 45.585 230.701 40.695 229.861 39.03C228.721 36.78 220.306 37.53 217.861 37.965C217.213 38.0602 216.594 38.2956 216.046 38.655C215.729 39.0238 215.544 39.4886 215.521 39.975C215.506 43.6074 215.899 47.23 216.691 50.775ZM217.126 39.81C219.496 39.075 226.246 38.79 228.391 39.81C229.126 41.76 229.516 48.465 228.631 50.025C227.236 50.385 218.716 50.385 217.291 50.4C217.246 49.23 216.556 42.915 217.126 39.81ZM195.766 73.185C195.871 73.485 196.111 73.515 196.156 73.5C196.486 73.5 206.176 74.43 208.156 73.905C209.431 73.56 209.656 71.31 209.791 69.99C209.926 67.995 209.791 63.105 208.951 61.455C207.796 59.19 199.381 59.955 196.951 60.375C196.298 60.468 195.673 60.7036 195.121 61.065C194.807 61.4419 194.623 61.9101 194.596 62.4C194.582 66.0274 194.975 69.645 195.766 73.185ZM196.216 62.22C198.586 61.485 205.321 61.2 207.466 62.22C208.201 64.17 208.591 70.875 207.706 72.435C206.311 72.795 197.806 72.795 196.381 72.81C196.321 71.64 195.631 65.325 196.216 62.22ZM230.836 60.84C233.236 57.3 235.336 54.105 235.411 53.955C235.486 53.805 234.391 52.455 233.746 53.415C229.156 60.48 229.786 59.805 229.456 59.685C226.816 58.725 218.296 59.055 216.961 60.3C216.061 61.14 216.406 64.185 216.511 65.49C215.551 64.95 214.816 64.56 214.546 64.455C213.856 64.185 213.901 64.86 214.276 65.1L216.616 66.6C216.806 68.5713 217.111 70.5297 217.531 72.465C217.546 72.5564 217.594 72.6391 217.666 72.6972C217.738 72.7554 217.829 72.7849 217.921 72.78C218.236 72.78 227.941 73.71 229.921 73.185C232.501 72.465 231.706 63 230.836 60.84ZM217.966 61.455C221.495 60.6521 225.151 60.5857 228.706 61.26L223.501 69.465C222.976 69.165 220.171 67.515 217.831 66.195C217.733 64.6292 217.778 63.0576 217.966 61.5V61.455ZM229.471 71.655C228.061 72.03 219.556 72.03 218.131 72.045C218.131 71.445 217.906 69.48 217.801 67.305L223.501 70.845C223.645 70.8607 223.791 70.8353 223.921 70.7715C224.051 70.7078 224.16 70.6084 224.236 70.485C224.716 69.87 227.131 66.36 229.591 62.745C230.056 65.445 230.206 70.365 229.501 71.655H229.471ZM169.831 39.57C170.238 39.5759 170.638 39.4608 170.979 39.2393C171.321 39.0178 171.589 38.6999 171.75 38.3258C171.91 37.9518 171.956 37.5384 171.881 37.1383C171.807 36.7381 171.615 36.3691 171.33 36.0782C171.046 35.7872 170.681 35.5873 170.282 35.5038C169.884 35.4204 169.47 35.4572 169.092 35.6095C168.715 35.7618 168.391 36.0228 168.162 36.3594C167.933 36.6959 167.809 37.0929 167.806 37.5C167.806 38.0413 168.018 38.5611 168.397 38.948C168.775 39.3349 169.29 39.5582 169.831 39.57Z" fill="white"/>
</svg>
