<svg width="300" height="300" viewBox="0 0 300 300" fill="none" xmlns="http://www.w3.org/2000/svg">
<path d="M109.431 267.006C76.5915 268.68 22.3275 272.69 22.212 275.205C22.098 277.677 31.437 273.632 94.515 269.877C98.6625 269.63 102.874 269.411 107.125 269.213C107.752 268.584 108.502 267.87 109.431 267.006Z" fill="white"/>
<path d="M181.328 265.719C181.748 266.231 182.183 266.768 182.653 267.366C182.75 267.491 182.831 267.602 182.927 267.725C232.111 267.779 272.365 269.382 273.304 268.941C278.578 266.463 226.844 265.67 181.328 265.721V265.719Z" fill="white"/>
<path d="M247.525 74.2244C247.253 74.2004 246.904 74.1644 246.511 74.1224C246.89 79.0349 247.199 84.7169 247.477 90.3269C247.159 109.671 249.818 195.387 243.886 196.253C227.78 198.605 170.221 201.033 163.045 201.425C130.891 203.178 69.9861 203.337 37.5156 200.552C27.4686 199.689 28.5201 200.277 28.2846 194.007C24.1761 84.7484 29.6961 64.5794 29.7246 63.0374C29.7576 61.2269 30.1821 57.5474 30.8421 55.8194C31.1016 55.1399 31.4991 54.5999 32.3571 54.4844C34.5726 54.1874 32.3076 53.5784 50.5311 52.1519C91.2336 48.9614 154.447 45.2744 203.953 48.3704C202.963 44.1269 202.862 39.6884 203.644 35.3474C142.057 32.0819 39.2316 35.2634 22.7931 44.3054C19.6806 46.0169 18.9996 48.4109 18.0366 51.0659C10.0356 73.1444 13.2216 202.547 18.1941 224.295C19.3161 229.205 19.9431 231.854 22.7781 233.922C26.2056 236.424 36.0921 237.704 37.9656 237.78C39.2781 237.833 43.8831 238.818 49.4241 239.534C53.8881 240.11 61.1976 240.474 61.4046 240.501C75.2646 242.217 91.7346 242.289 117.595 242.642C118.361 242.652 118.283 242.561 118.013 246.146C116.99 259.706 117.898 259.928 116.255 260.76C105.233 270.818 106.48 269.532 101.29 276.27C99.7896 278.219 97.8846 281.051 98.0106 283.302C98.0811 284.556 98.2101 288.618 98.7276 289.683C100.724 293.789 136.817 292.298 141.931 291.951C152.987 291.201 178.852 291.081 188.507 288.885C189.421 288.677 189.967 288.155 190.273 287.292C190.832 285.72 191.32 280.931 190.546 279.453C189.056 276.605 186.979 272.892 182.65 267.366C171.947 253.709 174.242 263.649 172.756 252.707C171.211 241.326 171.311 241.92 171.839 241.931C171.5 241.941 225.023 239.448 246.257 234.335C249.851 233.469 253.264 232.58 255.236 228.834C262.691 214.676 263.627 114.646 260.866 72.6404C257.458 73.5629 256.813 73.5839 247.522 74.2244H247.525ZM173.825 268.164C174.259 269.379 174.553 269.411 175.025 269.37C176.3 269.262 175.24 266.681 174.076 260.967C179.255 265.491 184.892 273.902 188.312 278.789C189.563 280.577 186.23 280.347 165.413 281.648C165.125 281.666 110.456 284.201 102.037 283.07C98.3421 282.573 98.1846 283.244 107.155 271.893C109.732 268.631 115.66 263.223 116.882 262.43C117.452 262.061 116.909 263.033 116.602 269.66C116.56 270.578 117.359 271.343 117.601 270.723C119.512 265.818 120.281 247.892 120.035 247.892C120.035 242.607 119.846 242.648 120.49 242.646C142.897 242.591 121.985 243.468 159.49 242.421C168.844 242.16 165.62 242.351 168.844 242.099C169.283 242.064 169.141 242.346 169.312 244.113C170.296 254.28 172.843 265.4 173.827 268.163L173.825 268.164ZM253.864 226.895C252.175 231.219 249.355 231.81 236.803 234.422C229.01 236.043 180.733 239.411 180.697 239.414C175.853 239.841 137.96 240.84 137.959 240.786C70.4841 240.786 57.0561 237.8 43.1646 236.171C27.4446 234.327 22.9101 234.422 21.0831 227.388C20.2146 224.043 18.7881 218.382 18.7086 214.928C18.6666 213.033 18.2976 212.318 18.8676 212.547C25.5756 215.238 122.954 215.988 167.404 214.439C190.466 213.635 185.014 213.255 204.472 212.442C245.197 210.74 251.873 208.215 257.015 208.206C257.143 213.258 255.409 222.933 253.861 226.896L253.864 226.895Z" fill="white"/>
<path d="M176.874 92.9672C176.229 86.2457 173.885 74.1662 165.444 67.9157C165.963 66.8252 165.521 65.5037 164.442 64.9487C160.625 62.9867 147.164 56.8307 134.318 59.9747C122.178 62.9447 114.114 70.2437 111.21 73.2437C110.307 74.1782 110.381 75.6737 111.36 76.5167C111.497 76.6337 111.641 76.7567 111.788 76.8827C107.943 83.4947 107.229 91.8677 109.511 103.182C109.664 103.94 109.712 104.187 110.001 104.339C110.331 104.513 110.703 104.316 111.192 104.103C111.87 103.809 111.842 103.536 111.656 102.791C109.877 95.6177 109.92 84.6872 113.501 78.3122C114.594 79.1942 115.865 78.9917 116.631 78.1907C119.12 75.5897 126.09 69.3392 137.033 67.4537C148.025 65.5607 157.724 69.3782 161.382 71.1062C162.498 71.6312 163.802 71.1827 164.354 70.0832L164.384 70.0232C170.561 75.1037 174.306 85.2092 174.386 92.3867C174.401 93.6032 175.085 93.5027 176.531 93.3752C176.736 93.3572 176.891 93.1742 176.871 92.9657L176.874 92.9672ZM162.026 69.7517C158.238 67.9622 148.199 64.0112 136.781 65.9777C125.399 67.9382 118.142 74.4482 115.55 77.1557C115.283 77.4347 114.84 77.4647 114.54 77.2217C113.861 76.6757 113.013 75.9572 112.34 75.3782C112.011 75.0962 111.987 74.5967 112.29 74.2847C119.676 66.6542 131.315 60.5912 141.935 60.5912C151.77 60.5912 160.782 64.7522 163.758 66.2807C164.123 66.4682 164.27 66.9182 164.085 67.2827L163.019 69.4082C162.834 69.7742 162.401 69.9242 162.027 69.7487L162.026 69.7517Z" fill="white"/>
<path d="M72.5916 140.596C72.3681 141.706 71.5476 141.541 71.2986 140.757C70.1721 137.211 70.6731 135.906 67.4256 133.488C67.0761 133.228 65.4261 131.973 65.2266 131.533C64.9761 130.983 65.5821 130.434 66.0336 130.644C70.4871 132.724 73.5591 135.775 72.5916 140.596Z" fill="white"/>
<path d="M166.883 101.016C166.516 108.789 166.565 109.566 159.416 111.22C150.844 113.203 151.385 112.029 149.725 107.82C148.252 104.083 148.83 103.014 147.97 102.687C147.357 102.454 147.469 101.866 145.71 101.718C142.09 101.413 141.129 102.378 138.891 104.463C138.631 104.704 138.742 106.365 138.765 106.582C139.071 109.552 138.837 110.85 138.727 112.594C138.549 115.42 135.439 115.992 132.429 116.314C126.903 116.907 124.521 118.438 122.181 111.909C121.344 109.575 118.974 103.413 121.114 102.163C124.183 100.372 133.179 98.3832 133.543 98.3247C139.912 97.3182 137.68 102.04 138.906 101.035C143.716 97.0932 146.611 99.6732 147.189 99.3657C147.487 99.2067 146.466 96.5112 149.272 95.4462C150.925 94.8192 151.913 94.6047 158.894 93.5847C166.757 92.4357 166.541 93.7017 166.883 101.016ZM164.354 100.914C164.102 94.7142 164.891 95.4642 160.064 95.9202C160.028 95.9232 151.619 97.0452 150.478 97.5012C149.689 97.8162 149.878 98.3367 150.293 99.9852C151.502 104.778 152.549 109.918 154.333 109.59C161.684 108.237 161.12 108.166 162.659 107.679C163.996 107.254 163.874 106.146 164.354 100.914ZM136.18 107.965C136.128 105.933 136.437 106.609 135.648 101.113C135.523 100.243 134.809 99.9927 123.36 103.504C122.478 103.774 122.119 103.869 122.517 105.22C125.223 114.414 125.725 114.961 129.168 114.25C136.68 112.696 136.356 114.766 136.18 107.965Z" fill="white"/>
<path d="M153.494 135.17C152.046 137.964 148.876 138.578 147.767 137.889C146.981 137.4 147.629 136.901 148.522 136.749C152.43 136.086 153.419 131.33 153.104 127.377C152.054 128.256 149.254 131.78 144.214 130.923C143.437 130.791 142.636 129.438 144.977 129.506C147.61 129.582 150.434 128.172 151.688 125.762C152.375 124.44 152.406 123.695 153.425 123.548C155.996 123.176 155.423 131.444 153.494 135.17Z" fill="white"/>
<path d="M143.438 105.667C144.61 105.894 143.251 107.842 143.089 113.53C143.053 114.816 143.243 116.103 143.629 117.324C145.121 122.053 150.716 116.776 152.432 117.057C155.648 117.582 143.678 126.642 141.319 117.82C140.479 114.681 142.036 105.397 143.44 105.669L143.438 105.667Z" fill="white"/>
<path d="M156.255 86.6968C156.803 87.7348 155.474 88.2748 154.671 88.0543C152.582 87.4783 150.662 87.0223 148.772 87.3103C147.952 87.4348 147.031 86.5843 147.689 85.7353C148.967 84.0868 155.282 84.8518 156.255 86.6968Z" fill="white"/>
<path d="M129.829 88.1127C131.335 88.0287 131.527 89.1162 130.63 89.8047C129.1 90.9792 128.137 90.7992 125.944 93.2022C125.392 93.8082 124.94 94.3167 124.222 93.8877C122.239 92.7027 126.485 88.2987 129.829 88.1127Z" fill="white"/>
<path d="M157.534 103.006C157.518 101.152 155.629 100.477 154.642 101.938C154.005 102.874 154.552 104.863 155.988 104.863C156.877 104.863 157.657 104.026 157.534 103.006Z" fill="white"/>
<path d="M130.311 106.224C130.001 106.944 130.251 108.267 130.79 108.75C131.397 109.296 132.425 109.268 132.836 108.482C134.192 105.894 131.159 104.241 130.311 106.224Z" fill="white"/>
<path d="M233.106 182.889L231.988 184.35C238.489 189.816 241.068 193.264 242.163 192.66C243.48 191.934 238.011 186.979 233.106 182.889Z" fill="white"/>
<path d="M213.361 169.155C192.469 157.866 172.665 155.742 172.105 150.66C172.101 150.623 171.543 147.782 171.435 145.874C171.187 141.476 171.715 141.561 172.699 133.128C172.731 132.861 173.665 124.937 173.838 124.731C173.848 124.719 176.4 124.151 176.937 124.011C177.973 123.743 178.972 123.329 180.07 123.309C180.352 123.303 180.64 123.14 180.907 123.012C186.99 120.114 186.277 117.759 186.033 110.166C186.033 110.13 185.349 103.551 185.194 102.875C184.602 100.295 184.108 97.8135 182.565 95.91C180.541 93.4125 179.227 92.916 177.915 92.6355C176.82 92.4015 173.637 91.9395 172.557 92.232C170.59 92.7645 172.786 87.0885 166.762 79.074C160.335 70.5225 151.378 70.179 145.168 69.3855C144.793 69.3375 144.4 69.474 144.013 69.4905C143.328 69.522 142.965 69.06 142.888 68.6595C141.613 61.9185 142.269 61.851 142.038 58.9845C141.942 57.792 140.769 57.918 139.9 58.7415C137.077 61.419 137.443 61.2405 135.816 63.8955C134.944 65.3175 134.977 64.8075 135.073 57.843C135.093 56.4405 133.986 56.154 133.258 56.769C132.366 57.5235 131.409 58.2075 130.561 59.0085C128.772 60.6975 126.462 63.4905 126.09 66.504C125.872 68.271 125.434 70.695 126.306 73.2555C126.757 74.5815 126.487 73.479 122.602 76.338C120.139 78.1515 117.276 81.7215 116.887 82.2825C108.562 94.2855 114.991 101.043 113.373 101.598C110.709 102.513 109.615 102.905 108.133 103.661C103.515 106.014 103.137 112.092 104.254 117.234C105.12 121.217 106.303 126.743 108.016 130.08C111.462 136.794 121.729 131.612 122.65 133.472C125.215 138.65 127.098 141.62 131.716 145.094C132.382 145.595 132.966 146.219 133.78 146.514C134.007 146.597 134.014 146.784 133.929 147.033C131.781 153.303 133.003 152.888 131.43 153.161C117.097 155.652 88.4832 164.709 78.6177 170.88C72.4332 174.75 72.5412 174.839 72.5922 174.384C72.9057 171.642 74.9097 160.133 76.5552 155.214C76.6272 154.998 78.7137 148.871 79.3557 148.275C86.7162 141.443 86.1057 143.093 90.5832 131.603C92.7267 126.102 93.3117 125.378 93.1932 124.071C93.0282 122.25 90.9957 122.6 89.7507 123.936C86.8827 127.014 86.4267 129.027 85.1697 131.034C84.8652 131.52 84.5307 131.487 83.4702 131.642C82.8477 131.733 83.1732 131.13 83.0172 130.14C81.7587 122.138 85.3542 119.421 87.5232 108.914C87.8427 107.37 85.6932 105.156 83.7087 108.071C78.6792 115.454 77.3037 123.537 76.2702 122.414C76.1577 122.291 76.0407 122.117 76.0362 121.962C75.9852 119.987 76.5987 114.575 76.6062 114.537C76.8582 113.378 77.2617 105.099 76.3827 103.614C75.3192 101.814 73.4847 102.516 72.8382 104.357C70.2687 111.678 71.1357 110.039 69.5337 119.598C69.4737 119.957 69.3597 120.044 68.9097 120.096C68.6082 120.131 68.3622 120.089 68.2812 119.75C66.1272 110.843 67.3782 107.702 65.0202 105.948C64.0467 105.225 62.6442 105.48 62.2722 106.686C60.9747 110.889 61.8957 113.705 62.4627 119.843C62.7132 122.561 62.7042 122.537 62.3952 122.685C61.6917 123.023 61.7067 122.537 56.1012 113.696C54.7467 111.56 53.1507 111.81 52.6182 113C51.5817 115.308 55.7727 123.839 57.1572 125.747C57.9417 126.828 57.8202 127.485 58.1487 131.054C59.1372 141.831 63.2277 144.716 62.8137 145.647C62.4882 146.379 62.3697 147.191 61.8837 147.864C57.2487 154.283 59.1027 152.957 49.5402 161.984C45.4677 165.828 36.3882 173.57 32.4552 180.539C31.9572 181.419 32.6322 181.973 33.4557 181.346C33.5487 181.275 35.1867 179.648 35.8587 178.898C51.5592 161.381 57.0447 161.25 64.3722 146.312C65.0112 145.008 64.4412 143.852 63.6117 142.647C60.7227 138.453 60.5427 133.881 60.2832 132.086C59.3052 125.324 57.2652 123.531 53.9517 114.903C53.5287 113.801 54.1932 113.277 54.4647 113.595C55.5717 114.902 54.6192 113.501 58.0137 119.097C61.5042 124.851 61.2522 124.883 63.5802 123.804C65.6682 122.837 62.1837 111.716 63.5187 107.184C63.6747 106.658 63.8157 106.62 64.2702 106.889C66.1347 107.988 65.7237 117.015 67.0842 120.839C67.3242 121.514 68.0307 121.694 68.7237 121.635C69.1902 121.596 69.6432 121.394 70.0992 121.253C70.4352 121.149 70.6707 120.926 70.7727 120.585C71.7717 117.246 72.9972 103.934 74.7417 104.573C76.4907 105.213 75.2337 111.638 74.5722 119.466C74.2347 123.465 74.1072 123.584 77.0157 124.091C77.9892 124.26 78.3252 121.656 84.1872 109.95C84.8457 108.635 85.8192 108.165 85.8087 109.638C85.7892 112.379 80.8047 121.316 80.9262 127.688C80.9292 127.88 80.9097 127.692 81.5937 131.66C81.7662 132.656 81.2322 131.567 77.1462 135.005C75.1782 136.661 75.2577 138.119 76.0857 137.603C76.9767 137.049 77.8902 136.523 78.7242 135.893C83.9697 131.931 85.3917 134.462 86.6637 131.907C88.6152 127.988 89.1717 127.286 91.2432 124.748C91.3152 124.659 91.5012 124.662 91.6332 124.623C91.8867 125.498 90.2232 128.666 89.1132 131.706C84.1302 145.35 78.6327 144.473 76.9467 149.355C75.1662 154.512 74.0847 157.067 71.3412 171.144C71.3322 171.186 66.1242 199.232 66.1077 199.818C66.0762 200.888 66.8862 201.188 67.3512 200.091C68.0262 198.497 69.4977 191.837 69.7797 190.559C71.3997 183.21 71.6142 177.359 72.5247 176.613C81.5067 169.257 108.195 161.201 119.431 157.743C120.465 157.425 119.836 158.024 121.662 160.716C131.581 175.347 140.656 179.522 150.39 184.203C151.245 184.614 152.683 185.223 154.131 184.319C156.972 182.543 163.312 176.723 168.201 172.746C180.579 162.68 180.36 157.896 181.597 158.307C192.819 162.027 202.297 165.503 211.765 170.646L213.36 169.154L213.361 169.155ZM178.501 94.752C185.028 97.896 183.718 113.99 184.299 114.05C183.889 117.71 184.156 119.748 181.101 120.756C180.586 120.926 181.638 120.507 180.292 108.653C179.695 103.391 179.88 100.961 178.782 97.1415C178.305 95.484 177.13 94.092 178.501 94.752ZM173.82 94.3065C176.71 94.425 177.556 97.1175 178.96 115.968C179.029 116.903 178.918 117.863 179.007 117.863C179.007 121.406 179.023 121.211 174.268 122.385C174.004 122.45 173.937 122.339 173.946 122.126C175.26 92.145 168.202 94.077 173.82 94.3065ZM109.087 127.523C106.942 121.857 103.147 107.723 108.454 105.714C108.466 106.019 108.502 105.723 108.303 106.844C107.455 111.606 113.728 131.535 113.73 131.571C111.063 131.481 110.167 130.377 109.087 127.523ZM118.183 131.262C114.948 131.729 114.736 128.501 112.885 120.84C109.12 105.252 108.943 104.813 114.628 103.451C115.567 103.226 115.263 103.197 115.585 105.374C118.111 122.408 119.839 124.872 121.372 130.47C121.543 131.096 121.318 130.809 118.183 131.262ZM178.828 157.911C169.81 169.17 164.319 174.161 152.728 182.748C152.419 182.978 152.166 183.014 151.824 182.852C136.393 175.598 131.38 170.576 123.636 160.2C121.221 156.965 121.324 157.227 122.122 157.028C129.145 155.267 132.666 155.187 133.177 154.4C133.999 153.138 135.102 150.615 135.508 149.553C135.825 148.725 135.976 147.833 136.171 146.963C136.293 146.418 136.11 145.989 135.64 145.637C124.77 137.493 122.304 128.588 117.897 109.157C115.585 98.961 117.631 92.7135 121.815 87.573C124.221 84.618 125.947 82.965 129.039 81.015C131.088 79.722 131.253 79.3545 131.812 79.5105C135.634 80.5755 140.535 78.885 143.982 76.92C145.306 76.1655 150.097 76.8855 151.566 77.2935C163.504 80.6085 168.51 88.842 170.839 99.576C173.553 112.077 172.062 119.775 171.282 126.648C170.064 137.367 168.513 138.897 169.105 146.741C169.671 154.229 171.217 154.548 174.676 155.879C178.921 157.512 179.374 157.229 178.827 157.91L178.828 157.911Z" fill="white"/>
<path d="M90.1628 172.208C78.4793 175.407 75.5228 190.238 85.1033 197.312C92.9363 203.096 104.65 199.52 107.743 190.515C111.683 179.043 101.249 169.172 90.1628 172.208ZM95.5358 198.23C78.4868 199.586 75.6623 177.146 91.2803 173.52C96.7628 172.247 103.52 174.758 106.315 181.463C109.493 189.087 103.493 197.597 95.5358 198.23Z" fill="white"/>
<path d="M181.837 169.328C174.856 170.33 169.141 176.786 169.689 184.607C170.656 198.435 189.468 202.385 196.737 190.581C202.797 180.743 195.361 167.387 181.837 169.328ZM187.278 195.425C178.162 197.643 170.217 189.954 171.247 181.938C172.224 174.333 179.707 169.353 187.12 170.991C200.766 174.006 200.695 192.159 187.278 195.425Z" fill="white"/>
<path d="M231.91 174.188C223.747 160.962 202.181 168.804 205.064 184.553C208.012 200.652 233.27 199.953 234.005 181.301C233.782 179.222 233.722 177.125 231.91 174.188ZM221.38 194.076C213.551 195.419 206.147 188.822 206.294 182.262C206.603 168.426 224.362 164.489 230.764 175.388C235.565 183.563 230.168 192.57 221.38 194.076Z" fill="white"/>
<path d="M82.8281 186.588C82.9436 188.685 83.0486 190.142 85.0361 190.847C87.1271 191.589 90.1706 190.898 90.7961 188.856C91.3016 187.208 90.3371 186.807 91.1606 186.455C91.8146 186.174 92.6291 185.724 94.7291 185.676C97.3136 185.97 97.6286 185.829 97.6331 186.807C97.6406 188.37 97.3631 189.17 98.5226 189.893C99.5831 190.554 101.521 190.763 103.533 189.858C105.559 188.948 106.642 184.649 103.407 182.24C96.2921 176.942 82.5116 180.854 82.8296 186.587L82.8281 186.588ZM103.944 186.708C103.692 188.481 101.791 188.519 100.119 188.43C98.1236 188.325 102.07 184.061 94.6916 183.941C93.1556 183.915 90.2891 184.403 89.4041 185.82C89.0666 186.36 89.1581 187.401 89.1851 188.013C89.2466 189.449 86.8781 189.506 85.5176 189.047C84.4046 188.672 83.6186 186.822 85.1066 184.329C85.2221 184.136 87.1406 182.63 88.3391 182.3C91.0481 181.556 93.4511 181.109 97.7501 181.467C100.858 181.727 104.379 183.642 103.944 186.708Z" fill="white"/>
<path d="M190.303 181.082C189.647 180.839 189.133 181.758 189.16 182.252C189.323 185.244 189.398 184.302 189.05 186.057C188.513 188.769 184.466 187.91 183.448 188.153C182.417 188.399 181.504 188.088 180.574 187.76C178.381 186.986 179.165 181.796 178.306 181.476C177.713 181.257 177.098 181.724 177.118 182.405C177.128 182.79 177.211 183.174 177.256 183.558C177.668 187.158 177.419 189.692 182.585 190.013C183.184 190.05 183.188 189.983 183.211 190.526C183.238 191.19 183.37 191.538 182.882 191.537C181.577 191.532 180.758 191.441 179.701 191.865C179.236 192.051 179.137 192.863 179.749 193.028C180.473 193.223 180.302 193.181 184.231 193.181C184.231 193.004 188.152 193.514 189.026 192.849C189.788 192.27 189.002 191.492 188.236 191.504C186.892 191.526 185.611 191.558 185.599 191.381C185.501 189.894 185.596 189.944 185.882 189.878C189.715 189 191.248 188.451 190.828 181.751C190.807 181.404 190.585 181.184 190.306 181.08L190.303 181.082Z" fill="white"/>
<path d="M182.466 186.768C189.708 189.06 187.235 180.449 187.776 180.447C187.776 176.982 187.863 176.759 187.391 175.187C186.819 173.286 183.963 172.746 182.48 173.529C180.524 174.561 180.605 175.871 180.564 181.344C180.545 184.031 180.474 186.138 182.468 186.77L182.466 186.768ZM183.542 174.78C186.044 174.387 185.982 175.815 186.335 179.597C186.032 185.018 186.338 185.325 184.313 185.382C181.436 185.463 182.628 183.998 182.154 178.976C182.006 177.407 181.985 175.025 183.542 174.78Z" fill="white"/>
<path d="M229.103 177.761C228.266 176.961 227.566 177.786 225.343 179.475C224.616 180.027 225.223 178.056 223.527 177.455C223.267 177.362 223.426 177.218 223.478 177.108C223.88 176.258 224.122 175.419 223.894 174.437C222.768 169.574 215.841 172.362 217.885 176.852C218.055 177.225 218.041 177.231 217.676 177.276C216.751 177.39 216.739 177.386 217.021 176.516C217.561 174.846 216.738 172.946 214.74 172.407C212.845 171.897 210.851 173.594 210.812 175.706C210.779 177.546 212.081 177.731 211.249 178.056C210.596 178.311 210.087 178.629 209.955 179.312C209.536 181.458 209.854 186.065 210.167 186.894C210.437 187.605 210.898 188.187 211.688 188.262C213.113 188.399 214.54 188.622 215.983 188.325C216.629 188.192 224.401 189.032 224.771 187.214C225.221 185.004 225.1 185.139 225.571 185.387C230.158 187.797 229.63 187.872 229.63 182.757C229.666 182.757 229.817 178.443 229.103 177.761ZM220.771 173.111C221.686 173.102 222.581 174.032 222.587 174.998C222.593 175.935 221.73 176.882 220.852 176.826C217.887 176.637 218.878 173.13 220.771 173.111ZM215.655 175.502C215.685 177.419 212.269 177.852 212.267 175.463C212.267 173.166 215.614 172.965 215.655 175.502ZM223.333 184.658C223.303 186.305 223.464 186.311 222.226 186.558C221.823 186.639 214.069 186.779 212.442 186.644C211.47 186.563 211.479 185.094 211.404 183.209C211.272 179.882 211.235 179.585 212.242 179.247C213.668 178.769 218.581 178.847 218.581 178.883C223.378 178.883 222.985 178.706 223.252 179.664C223.688 181.235 223.391 181.466 223.333 184.656V184.658ZM228.192 183.227C228.192 185.456 228.573 185.348 225.825 183.854C225.138 183.48 225.037 183.15 225.059 182.342C225.079 181.668 225.31 181.235 225.881 180.887C227.219 180.072 227.932 178.961 228.002 180.011C228.218 183.224 228.25 183.222 228.192 183.227Z" fill="white"/>
<path d="M274.138 15.8775C263.619 7.992 244.242 5.9115 231.442 8.64C197.245 15.933 193.407 56.3865 219.4 69.5625C222.169 70.9665 222.3 70.7715 222.118 71.2545C221.22 73.656 216.871 83.5035 215.074 85.773C211.866 89.826 228.298 87.054 238.287 75.1995C239.262 74.0415 244.923 74.871 246.871 75.039C257.037 74.3385 256.84 74.3835 261.253 73.1715C287.751 65.8965 296.334 32.514 274.137 15.876L274.138 15.8775ZM261.292 70.0875C254.82 71.799 257.322 71.55 249.666 72.363C239.514 73.4415 239.442 71.595 237.454 73.4715C232.801 77.862 231.228 79.074 224.932 82.437C222.85 83.55 219.091 84.966 217.909 84.978C218.296 84.0135 219.163 83.712 222.597 75.534C225.427 68.793 224.596 70.107 220.347 67.323C214.968 63.798 210.525 60.6015 207.316 53.373C201.1 39.3735 205.608 13.56 239.362 10.836C241.186 10.689 243.015 10.6185 244.842 10.5135C244.855 10.8915 249.147 10.3155 254.316 11.4165C257.137 12.0165 255.744 11.3775 258.885 12.2385C262.791 13.3095 268.167 14.559 273.603 19.119C292.884 35.2965 284.527 63.945 261.294 70.089L261.292 70.0875Z" fill="white"/>
<path d="M243.822 39.3824C241.259 39.3719 239.682 41.8364 239.703 43.6649C239.762 49.0484 247.841 49.3319 247.986 43.3919C248.045 40.9949 246.18 39.3914 243.824 39.3824H243.822Z" fill="white"/>
<path d="M227.856 39.1486C225.573 39.0271 223.638 41.4691 223.61 43.4281C223.578 45.5716 225.489 47.5966 227.637 47.5006C232.628 47.8396 233.904 39.4711 227.858 39.1486H227.856Z" fill="white"/>
<path d="M259.286 38.9506C257.076 38.7496 255.206 41.2426 255.207 43.2316C255.21 45.3991 257.159 47.2876 259.29 47.2936C264.534 47.3056 265.274 38.8516 259.284 38.9521L259.286 38.9506Z" fill="white"/>
</svg>
