<svg width="54" height="54" viewBox="0 0 54 54" fill="none" xmlns="http://www.w3.org/2000/svg">
<g clip-path="url(#clip0_5369_10639)">
<path d="M48.001 9H6.00098C5.20533 9 4.44227 9.31607 3.87966 9.87868C3.31705 10.4413 3.00098 11.2044 3.00098 12V42C3.00098 42.7957 3.31705 43.5587 3.87966 44.1213C4.44227 44.6839 5.20533 45 6.00098 45H48.001C48.7966 45 49.5597 44.6839 50.1223 44.1213C50.6849 43.5587 51.001 42.7957 51.001 42V12C51.001 11.2044 50.6849 10.4413 50.1223 9.87868C49.5597 9.31607 48.7966 9 48.001 9ZM45.691 42H8.49098L18.991 31.14L16.831 29.055L6.00098 40.26V14.28L24.646 32.835C25.2081 33.3938 25.9684 33.7074 26.761 33.7074C27.5535 33.7074 28.3139 33.3938 28.876 32.835L48.001 13.815V40.065L36.961 29.025L34.846 31.14L45.691 42ZM7.96598 12H45.571L26.761 30.705L7.96598 12Z" fill="white"/>
</g>
<defs>
<clipPath id="clip0_5369_10639">
<rect width="54" height="54" fill="white" transform="translate(0.000976562)"/>
</clipPath>
</defs>
</svg>
