<svg width="300" height="300" viewBox="0 0 300 300" fill="none" xmlns="http://www.w3.org/2000/svg">
<path fill-rule="evenodd" clip-rule="evenodd" d="M209.355 143.34C218.659 140.087 226.513 133.647 231.525 125.16C235.545 117.96 237.405 108.57 234.285 96.66C227.595 71.505 209.22 62.415 181.275 73.59C174.48 76.305 160.935 84.285 156.99 98.58C153.705 110.43 158.07 122.445 164.685 132.81C174.99 148.995 191.445 149.385 209.355 143.34ZM157.875 98.895C161.595 84.825 174.795 76.8 181.47 74.13C206.775 64.02 226.305 70.44 233.145 97.035C236.145 108.51 234.33 117.585 230.43 124.545C225.569 132.764 217.962 139.001 208.95 142.155C191.61 148.02 175.695 147.81 165.675 132.24C159.195 122.205 154.8 110.445 157.875 98.895Z" fill="white"/>
<path fill-rule="evenodd" clip-rule="evenodd" d="M198.167 83.4899C209.822 86.7299 216.602 97.2749 219.782 108.99C219.853 109.355 219.999 109.701 220.211 110.007C220.424 110.312 220.698 110.57 221.015 110.763C221.333 110.957 221.688 111.081 222.057 111.13C222.425 111.178 222.8 111.149 223.157 111.044C223.514 110.939 223.845 110.761 224.129 110.52C224.413 110.28 224.643 109.983 224.806 109.648C224.968 109.314 225.059 108.949 225.072 108.577C225.085 108.206 225.02 107.835 224.882 107.49C220.622 94.0799 212.597 83.6399 198.617 81.4649C198.476 81.4182 198.326 81.4017 198.177 81.4166C198.029 81.4316 197.885 81.4775 197.755 81.5516C197.626 81.6256 197.513 81.726 197.425 81.8464C197.337 81.9667 197.275 82.1042 197.243 82.2501C197.211 82.3959 197.21 82.5468 197.241 82.6929C197.271 82.839 197.332 82.9771 197.419 83.0983C197.506 83.2194 197.618 83.3209 197.747 83.3961C197.876 83.4713 198.019 83.5186 198.167 83.5349V83.4899ZM202.502 44.2799C202.521 44.343 202.552 44.4017 202.593 44.4528C202.635 44.5038 202.686 44.5463 202.744 44.5776C202.801 44.6089 202.865 44.6286 202.93 44.6354C202.996 44.6423 203.062 44.6361 203.125 44.6174C203.188 44.5987 203.246 44.5678 203.298 44.5264C203.349 44.485 203.391 44.4339 203.422 44.3761C203.454 44.3183 203.473 44.2549 203.48 44.1895C203.487 44.1241 203.481 44.058 203.462 43.9949C200.942 33.0749 202.262 38.4149 199.457 27.7949C199.411 27.6354 199.334 27.4865 199.23 27.3568C199.126 27.2271 198.998 27.1191 198.852 27.039C198.707 26.959 198.547 26.9083 198.382 26.89C198.216 26.8717 198.049 26.8861 197.89 26.9324C197.73 26.9787 197.581 27.056 197.452 27.1598C197.322 27.2636 197.214 27.392 197.134 27.5376C197.054 27.6831 197.003 27.843 196.985 28.0081C196.967 28.1733 196.981 28.3404 197.027 28.4999C200.282 38.9999 198.602 33.7199 202.502 44.2799ZM112.367 89.9999C123.032 92.5649 117.602 91.2899 128.717 93.4199C128.838 93.4322 128.96 93.4008 129.06 93.3314C129.159 93.262 129.231 93.1592 129.262 93.0416C129.293 92.9239 129.281 92.7991 129.227 92.6897C129.174 92.5803 129.084 92.4935 128.972 92.4449C118.292 88.9799 123.572 90.6149 113.012 87.5549C112.688 87.4694 112.343 87.5162 112.053 87.685C111.764 87.8537 111.553 88.1307 111.467 88.4549C111.382 88.7792 111.428 89.1241 111.597 89.4138C111.766 89.7036 112.043 89.9144 112.367 89.9999ZM213.542 43.4999C214.637 32.2949 214.352 37.8599 214.907 26.8499C214.886 26.5351 214.749 26.2393 214.522 26.0197C214.296 25.8001 213.996 25.6724 213.68 25.6612C213.365 25.65 213.057 25.7561 212.815 25.9591C212.573 26.162 212.416 26.4474 212.372 26.7599C212.147 37.8299 212.252 32.2049 212.537 43.4699C212.554 43.5891 212.612 43.6986 212.702 43.7789C212.792 43.8593 212.907 43.9053 213.027 43.9089C213.147 43.9125 213.265 43.8734 213.359 43.7986C213.454 43.7237 213.518 43.6179 213.542 43.4999ZM134.702 81.2399C134.799 81.3263 134.926 81.3723 135.056 81.3685C135.186 81.3647 135.31 81.3113 135.402 81.2193C135.494 81.1274 135.547 81.0037 135.551 80.8737C135.555 80.7437 135.509 80.6172 135.422 80.5199C128.072 72.1499 131.792 76.0199 124.202 68.1449C123.963 67.9068 123.64 67.7731 123.302 67.7731C122.965 67.7731 122.641 67.9068 122.402 68.1449C122.285 68.262 122.192 68.4011 122.128 68.5542C122.064 68.7074 122.032 68.8716 122.032 69.0374C122.032 69.2033 122.064 69.3675 122.128 69.5206C122.192 69.6738 122.285 69.8129 122.402 69.9299C130.232 77.5649 126.392 73.8299 134.702 81.2399ZM77.0872 56.4149C76.8172 55.1399 75.5872 54.9149 74.3422 54.9149C73.9025 54.9415 73.4782 55.0871 73.1148 55.3363C72.7514 55.5854 72.4626 55.9286 72.2792 56.3292C72.0959 56.7298 72.0249 57.1727 72.0739 57.6106C72.1228 58.0484 72.2899 58.4647 72.5572 58.8149C74.2822 60.8099 78.3772 59.2649 77.0872 56.4149ZM73.5022 56.8049C73.6082 56.5977 73.761 56.418 73.9484 56.28C74.1359 56.142 74.3529 56.0496 74.5822 56.0099C75.4522 55.7849 76.3072 55.7699 76.6822 56.5799C77.1772 59.2199 72.4372 58.9949 73.5022 56.8049ZM77.2372 90.1049C76.7367 89.8628 76.1994 89.7056 75.6472 89.6399C74.4348 89.5614 73.2192 89.735 72.0772 90.1499C71.5822 90.3749 71.2372 90.5849 71.0122 90.7049C70.4422 91.0499 70.6672 91.3499 71.0122 91.3199C72.1414 91.2672 73.2648 91.1268 74.3722 90.8999C74.5222 90.8999 76.7422 90.5999 77.1172 90.5999C77.1815 90.6121 77.2479 90.5991 77.3029 90.5636C77.3578 90.5282 77.397 90.473 77.4124 90.4095C77.4278 90.3459 77.4182 90.2789 77.3856 90.2222C77.353 90.1655 77.2999 90.1236 77.2372 90.1049ZM87.6922 89.2499C87.6246 89.2639 87.5653 89.3041 87.5273 89.3617C87.4893 89.4194 87.4758 89.4898 87.4897 89.5574C87.5037 89.6251 87.5439 89.6844 87.6015 89.7224C87.6592 89.7603 87.7296 89.7739 87.7972 89.7599H89.7022C92.0722 89.7599 90.5122 89.9399 93.6922 89.7599C93.7475 89.7462 93.7966 89.7144 93.8317 89.6695C93.8668 89.6247 93.8858 89.5694 93.8858 89.5124C93.8858 89.4555 93.8668 89.4002 93.8317 89.3553C93.7966 89.3105 93.7475 89.2786 93.6922 89.2649C92.7683 88.7705 91.74 88.5031 90.6922 88.4849C89.6409 88.4591 88.6028 88.7238 87.6922 89.2499ZM76.6972 93.5999C76.6853 93.4329 76.6075 93.2773 76.4809 93.1676C76.3543 93.0579 76.1893 93.003 76.0222 93.0149C75.8551 93.0269 75.6996 93.1047 75.5899 93.2313C75.4802 93.3579 75.4253 93.5229 75.4372 93.6899L75.5422 95.0999C75.5481 95.1827 75.5703 95.2634 75.6074 95.3376C75.6445 95.4118 75.6959 95.4779 75.7586 95.5322C75.8212 95.5866 75.894 95.628 75.9727 95.6542C76.0514 95.6804 76.1345 95.6908 76.2172 95.6849C76.3 95.679 76.3807 95.6569 76.4549 95.6198C76.5291 95.5826 76.5952 95.5313 76.6495 95.4686C76.7038 95.4059 76.7453 95.3331 76.7715 95.2544C76.7977 95.1758 76.8081 95.0927 76.8022 95.0099L76.6972 93.5999ZM90.0022 92.1749C89.8378 92.1475 89.6691 92.1833 89.53 92.2751C89.3909 92.3669 89.2916 92.508 89.2522 92.6699C89.2142 93.2093 89.2142 93.7506 89.2522 94.2899C89.2757 94.4422 89.3528 94.5811 89.4697 94.6814C89.5867 94.7817 89.7357 94.8369 89.8897 94.8369C90.0438 94.8369 90.1928 94.7817 90.3097 94.6814C90.4266 94.5811 90.5038 94.4422 90.5272 94.2899V92.9249C90.5445 92.841 90.5444 92.7544 90.527 92.6705C90.5097 92.5866 90.4754 92.5071 90.4262 92.4369C90.3771 92.3667 90.3141 92.3072 90.2412 92.2622C90.1683 92.2172 90.087 92.1875 90.0022 92.1749ZM80.1772 109.275C80.8277 109.768 81.5699 110.127 82.3606 110.33C83.1512 110.534 83.9744 110.578 84.7822 110.46C85.5601 110.324 86.3102 110.06 87.0022 109.68C87.0364 109.674 87.0688 109.661 87.0974 109.642C87.126 109.622 87.1501 109.597 87.1679 109.567C87.1857 109.537 87.1969 109.504 87.2007 109.47C87.2044 109.435 87.2007 109.4 87.1898 109.367C87.1788 109.335 87.1609 109.304 87.1372 109.279C87.1135 109.254 87.0847 109.234 87.0526 109.221C87.0205 109.208 86.986 109.202 86.9515 109.204C86.9169 109.205 86.883 109.214 86.8522 109.23C85.4675 109.469 84.052 109.469 82.6672 109.23C81.341 108.825 80.125 108.122 79.1122 107.175C78.9322 106.92 78.5422 107.175 78.7372 107.445C79.0931 108.143 79.5823 108.765 80.1772 109.275ZM125.582 196.77C126.047 196.77 123.962 176.745 121.487 159.69C121.232 157.89 120.902 158.475 120.917 158.625C122.147 174.165 124.607 192.705 125.417 196.53C125.422 196.581 125.44 196.629 125.469 196.671C125.498 196.713 125.537 196.747 125.582 196.77Z" fill="white"/>
<path fill-rule="evenodd" clip-rule="evenodd" d="M291.796 187.17C289.201 182.16 281.416 173.085 272.011 163.02C277.351 160.185 280.831 157.875 281.431 156.495C281.836 155.565 280.501 154.635 279.661 154.065C275.461 151.185 263.281 145.455 248.296 138.735C245.776 136.23 243.331 133.83 241.051 131.58C248.311 119.88 249.181 106.71 245.686 93.39C236.491 58.605 210.736 50.295 176.941 63.78C168.121 67.29 150.571 77.595 145.441 95.97C143.772 101.957 143.475 108.243 144.571 114.36C134.821 118.095 122.326 122.895 106.456 128.625C102.541 126.66 100.951 126.285 100.981 126.075C101.005 125.955 100.998 125.83 100.958 125.714C100.918 125.598 100.849 125.495 100.756 125.415C97.756 123.555 92.776 122.97 92.011 123.615C91.6221 123.898 91.2868 124.249 91.021 124.65L88.816 117.51C90.181 116.94 93.541 115.005 95.9109 109.14C97.6151 104.482 98.4489 99.5497 98.371 94.59C99.0098 93.6173 99.3183 92.4647 99.2508 91.3029C99.1833 90.1412 98.7432 89.0321 97.996 88.14C97.996 87.78 97.891 87.435 97.846 87.075C98.1623 85.9911 98.4128 84.8891 98.596 83.775C98.596 82.02 99.016 79.275 98.206 77.625C98.0992 76.8386 98.0992 76.0414 98.206 75.255C98.206 72.705 94.996 71.55 92.701 69.39C92.701 67.665 92.836 65.775 92.851 64.23C97.4129 62.9452 101.879 61.3412 106.216 59.43C106.996 59.025 108.196 58.365 108.211 57.54C108.211 54.015 77.416 45.87 73.621 46.755C73.486 46.335 45.031 56.67 40.6209 61.08C40.5241 61.1685 40.4467 61.2763 40.3938 61.3964C40.3409 61.5165 40.3135 61.6463 40.3135 61.7775C40.3135 61.9087 40.3409 62.0385 40.3938 62.1586C40.4467 62.2787 40.5241 62.3864 40.6209 62.475C40.1595 64.7067 40.2419 67.0167 40.861 69.21C40.3973 69.2452 39.9537 69.4136 39.5834 69.6948C39.2131 69.976 38.9318 70.3582 38.7734 70.7954C38.615 71.2326 38.5862 71.7062 38.6904 72.1593C38.7946 72.6125 39.0275 73.0259 39.361 73.35C37.861 75.435 38.0859 79.845 39.1959 82.11C39.1983 82.1479 39.2092 82.1849 39.2277 82.2181C39.2462 82.2513 39.2719 82.28 39.3029 82.302C39.3339 82.324 39.3695 82.3388 39.4069 82.3453C39.4444 82.3518 39.4829 82.3498 39.5195 82.3395C39.5561 82.3292 39.59 82.3109 39.6185 82.2858C39.6472 82.2607 39.6698 82.2296 39.6848 82.1946C39.6998 82.1597 39.7068 82.1218 39.7052 82.0838C39.7037 82.0458 39.6937 82.0086 39.676 81.975C39.5117 79.219 39.582 76.4541 39.886 73.71C40.1811 73.8587 40.5018 73.9503 40.8309 73.98C40.2259 76.5911 40.3927 79.3219 41.311 81.84C41.3247 81.8953 41.3565 81.9444 41.4013 81.9794C41.4462 82.0145 41.5015 82.0336 41.5584 82.0336C41.6154 82.0336 41.6707 82.0145 41.7156 81.9794C41.7604 81.9444 41.7922 81.8953 41.806 81.84C42.046 77.64 41.581 77.805 41.5359 74.055C43.576 73.83 41.431 72.18 43.651 81.555C43.6416 81.5926 43.641 81.6318 43.6491 81.6696C43.6572 81.7075 43.6738 81.743 43.6976 81.7735C43.7215 81.804 43.7519 81.8286 43.7867 81.8456C43.8215 81.8626 43.8597 81.8714 43.8984 81.8714C43.9372 81.8714 43.9754 81.8626 44.0102 81.8456C44.045 81.8286 44.0754 81.804 44.0993 81.7735C44.1231 81.743 44.1397 81.7075 44.1478 81.6696C44.1559 81.6318 44.1553 81.5926 44.146 81.555C44.3782 78.8008 44.0412 76.0283 43.156 73.41C43.3766 73.2207 43.5597 72.9918 43.6959 72.735C44.701 73.635 44.4759 76.77 45.721 81.57C45.7347 81.6253 45.7665 81.6744 45.8113 81.7094C45.8562 81.7445 45.9115 81.7636 45.9685 81.7636C46.0254 81.7636 46.0807 81.7445 46.1256 81.7094C46.1704 81.6744 46.2022 81.6253 46.216 81.57C46.216 79.035 46.306 73.02 43.8759 72.21C43.9366 71.865 43.9219 71.5111 43.833 71.1723C43.744 70.8336 43.5829 70.5181 43.3607 70.2474C43.1385 69.9767 42.8603 69.7573 42.5454 69.6041C42.2304 69.451 41.8861 69.3677 41.5359 69.36C41.6737 67.4224 41.6737 65.4775 41.5359 63.54C41.431 62.655 40.741 64.11 55.486 66.78C55.591 68.445 55.771 70.965 55.996 73.23C54.5672 74.7333 53.3873 76.4549 52.5009 78.33C51.121 81.57 52.501 84.57 53.521 87.645C53.731 88.245 53.776 88.92 53.926 89.55C54.166 90.66 54.541 90.645 54.436 91.755C54.331 92.865 53.6259 94.395 54.076 95.685C54.8721 97.2518 55.8817 98.7006 57.076 99.99C57.904 100.921 58.4275 102.083 58.576 103.32C58.576 104.46 61.006 106.005 61.726 106.065L62.656 108.495C63.451 110.535 68.866 115.605 70.486 117.09C70.651 118.41 70.996 121.59 71.071 123.81C70.541 123.649 69.9994 123.528 69.451 123.45C62.581 123.345 30.0759 136.05 18.6909 156.81C1.27595 188.67 16.0359 210.27 16.0959 210.42C6.25595 220.245 0.435947 243.375 23.8509 253.5C32.548 257.117 41.672 259.608 51.0009 260.91C50.866 263.505 50.6859 274.305 53.2659 274.41C54.1509 274.41 54.856 273.315 55.321 272.46C56.8042 269.336 58.0137 266.088 58.936 262.755C63.436 262.455 63.286 262.53 63.436 262.305C85.7783 263.995 108.248 262.363 130.111 257.46C130.291 257.46 130.291 257.535 130.591 256.215L133.321 255.75C148.321 279.39 142.801 251.655 138.196 245.01C137.673 244.048 136.796 243.327 135.751 243C139.131 241.13 142.387 239.046 145.501 236.76C154.201 242.125 163.217 246.959 172.501 251.235C179.311 254.235 273.601 217.56 276.991 209.655C277.396 208.725 276.061 207.795 275.236 207.225C273.066 205.831 270.818 204.564 268.501 203.43L268.681 202.065C283.306 212.22 295.621 194.565 291.796 187.17ZM42.9759 70.875C43.546 73.5 38.806 73.29 39.796 71.1C39.9001 70.89 40.0521 70.7073 40.2397 70.5666C40.4272 70.426 40.6452 70.3312 40.8759 70.29C41.7459 70.08 42.6009 70.065 42.9759 70.875ZM246.601 181.5C225.766 189.81 195.946 200.37 179.581 203.775C179.544 203.776 179.507 203.784 179.474 203.8C179.441 203.816 179.411 203.839 179.388 203.868C179.364 203.897 179.347 203.93 179.338 203.966C179.329 204.002 179.327 204.039 179.334 204.076C179.341 204.112 179.355 204.147 179.376 204.177C179.398 204.207 179.425 204.232 179.457 204.251C179.49 204.269 179.525 204.281 179.562 204.284C179.599 204.287 179.636 204.282 179.671 204.27C197.401 200.985 226.411 191.1 247.411 182.34C248.791 183.765 250.156 185.175 251.491 186.525C230.791 195.42 197.716 207.945 180.226 211.875C180.19 211.878 180.155 211.889 180.123 211.906C180.092 211.924 180.064 211.948 180.043 211.977C180.021 212.006 180.006 212.039 179.998 212.075C179.99 212.11 179.99 212.147 179.998 212.182C180.005 212.217 180.02 212.251 180.042 212.28C180.063 212.309 180.09 212.333 180.122 212.351C180.153 212.369 180.188 212.38 180.224 212.383C180.26 212.386 180.297 212.382 180.331 212.37C199.411 208.5 231.331 196.8 252.241 187.275L254.206 189.255C229.546 199.935 180.976 220.395 174.211 221.325C172.711 213.03 174.916 202.77 177.991 198.315C184.996 198.45 215.851 187.605 242.086 176.745C243.606 178.305 245.111 179.89 246.601 181.5ZM174.721 230.205C169.921 228.15 164.221 225.255 157.921 221.82C158.3 220.735 158.591 219.622 158.791 218.49C164.071 221.25 169.291 223.845 174.631 226.17C179.536 228.33 232.156 208.98 260.746 195.54C261.646 196.365 262.501 197.145 263.326 197.865C235.726 211.11 179.536 232.2 174.721 230.13V230.205ZM264.346 198.705C265.486 199.665 266.536 200.52 267.481 201.24C267.298 203.577 266.855 205.886 266.161 208.125C261.361 210.525 178.036 246.525 171.661 246.525C170.401 241.035 172.186 235.95 175.411 231.36C186.211 231.54 242.041 209.565 264.346 198.69V198.705ZM93.001 174.675C93.3372 174.453 93.6534 174.202 93.946 173.925C95.281 172.605 94.666 171.105 93.316 170.925C94.591 169.53 93.841 167.55 91.171 168.165C89.6849 168.537 88.3398 169.334 87.301 170.46C86.836 169.2 86.401 167.805 85.486 167.34C84.901 160.44 84.496 154.785 84.616 153.525C85.8767 153.395 87.1495 153.445 88.396 153.675C135.076 155.85 109.756 162.24 141.301 143.76C142.171 147.045 143.041 151.95 143.851 157.365C142.592 156.992 141.271 156.875 139.966 157.02C137.236 157.26 137.146 159.375 138.781 160.275C138.49 160.397 138.245 160.608 138.081 160.877C137.917 161.146 137.841 161.461 137.866 161.775C137.986 162.87 139.201 163.38 140.266 163.68C139.141 164.52 138.691 166.05 140.116 166.845C141.712 167.605 143.494 167.886 145.246 167.655C146.086 174.42 146.746 180.87 147.151 184.98C144.001 188.415 131.536 201 127.111 202.5C125.761 202.965 89.836 198.345 88.4109 198.15C88.261 196.65 87.511 189.075 86.716 180.57C89.836 180.09 94.216 178.785 94.651 176.85C94.861 175.845 93.976 175.005 93.001 174.675ZM144.691 164.7C145.456 164.7 146.011 163.2 143.011 163.2C141.991 162.9 141.031 162.825 140.011 162.435C137.686 161.52 140.206 160.935 142.606 161.475C144.106 161.97 144.631 160.575 142.936 160.26C142.711 160.26 137.821 159.315 139.036 158.565C139.355 158.402 139.7 158.295 140.056 158.25C141.797 157.934 143.593 158.277 145.096 159.21C146.776 160.44 146.296 164.55 145.726 166.71C145.531 167.265 144.976 167.4 144.316 167.385C143.005 167.25 141.729 166.879 140.551 166.29C140.056 165.99 140.071 165.705 140.266 165.36C141.241 163.5 143.641 164.745 144.736 164.7H144.691ZM148.231 185.7C148.516 185.4 148.396 185.205 148.126 182.7C157.324 188.334 166.84 193.432 176.626 197.97C172.261 204.735 171.256 217.245 173.626 224.31C167.416 221.505 163.996 219.81 158.911 216.93C160.216 205.155 151.846 193.38 143.671 190.29C145.711 188.355 147.331 186.69 148.276 185.7H148.231ZM175.336 225.075C174.901 224.111 174.564 223.106 174.331 222.075C182.686 221.01 231.031 200.595 255.121 190.17C256.711 191.67 258.256 193.17 259.726 194.67C231.886 207.525 181.396 226.335 175.381 225.075H175.336ZM146.251 96.21C151.231 78.075 168.436 67.71 177.136 64.245C210.316 51.015 235.636 59.37 244.546 93.69C248.431 108.585 246.046 120.405 240.856 129.465C233.581 142.245 220.861 149.535 212.761 152.265C190.156 159.915 169.261 159.765 156.241 139.545C147.781 126.465 142.111 111.225 146.251 96.21ZM144.661 115.29C146.577 124.183 150.171 132.629 155.251 140.175C162.481 151.41 171.961 156.21 181.441 157.68C193.531 159.555 205.651 156 213.166 153.465C215.119 152.796 217.028 152.004 218.881 151.095C225.136 158.22 233.161 167.16 241.126 175.65C238.996 176.55 236.826 177.45 234.616 178.35C208.681 188.85 180.721 198.465 177.376 197.025C167.298 192.435 157.5 187.251 148.036 181.5C148.036 181.5 147.346 175.08 146.236 166.86C147.046 164.28 147.841 160.125 145.756 158.43C145.505 158.223 145.234 158.042 144.946 157.89C144.25 152.904 143.273 147.961 142.021 143.085C142.005 143.028 141.976 142.974 141.937 142.929C141.899 142.883 141.851 142.847 141.797 142.821C141.743 142.796 141.684 142.782 141.625 142.781C141.565 142.78 141.506 142.791 141.451 142.815C141.271 142.815 140.386 143.43 139.081 144.315L135.241 142.995C135.031 142.92 135.241 142.68 128.341 146.865C122.812 139.319 115.567 133.196 107.206 129C122.596 123.585 135.001 118.935 144.661 115.29ZM120.406 151.875C120.556 151.875 134.881 143.265 135.091 143.34L138.526 144.555C112.606 161.055 129.811 154.845 89.026 152.655C91.486 150.795 92.026 150.405 92.116 150.315C93.736 149.28 119.686 151.725 120.406 151.875ZM96.811 88.14C97.1133 90.2457 97.2337 92.3736 97.171 94.5C95.9319 95.7204 94.2746 96.423 92.5359 96.465C89.956 96.6 87.136 96.285 86.191 93.87C83.431 87.075 93.421 85.5 96.811 88.14ZM94.501 84.6C95.206 85.68 95.836 86.52 96.226 87.03C92.911 85.71 84.151 86.46 84.946 92.505C83.8092 92.2805 82.6318 92.3899 81.556 92.82C80.7309 86.415 69.121 87.84 67.576 92.28C67.2154 92.0352 66.8075 91.8687 66.3786 91.7912C65.9498 91.7137 65.5094 91.7269 65.086 91.83C64.831 89.055 65.176 85.11 67.396 84.03C68.026 83.715 69.211 85.425 70.201 85.68C72.4476 86.2575 74.7809 86.4202 77.086 86.16C79.7265 85.9311 82.3512 85.5454 84.946 85.005C88.636 84.12 88.336 83.295 90.871 81.765C91.156 81.6 92.071 81.09 92.371 81.225C93.841 81.975 93.391 82.92 94.501 84.6ZM80.731 93.75C80.641 96.75 77.866 98.37 74.986 98.52C72.406 98.67 69.5859 98.34 68.6409 95.94C68.2353 95.2053 68.0533 94.368 68.1173 93.5312C68.1812 92.6944 68.4884 91.8945 69.001 91.23C71.821 87.93 81.001 87.735 80.731 93.75ZM57.376 77.46C56.6259 73.9244 56.1246 70.3407 55.876 66.735C65.026 68.37 75.031 69.555 76.186 69.135C77.566 68.64 84.4959 66.75 91.516 64.635C91.4409 69.36 91.156 72.405 91.126 73.365C79.7459 73.2588 68.4004 74.6354 57.376 77.46ZM41.401 61.77C45.316 58.11 69.691 48.12 73.6509 47.235C77.2059 46.5 103.186 54 106.906 57.54C104.356 60.165 78.661 66.915 75.781 67.935C74.236 68.49 44.716 64.395 41.401 61.77ZM66.256 111.705C64.3174 109.997 62.9289 107.752 62.2659 105.255C62.146 103.755 61.096 100.17 60.031 99.675C58.7145 98.6498 57.5831 97.4068 56.686 96C55.306 93.915 55.441 91.35 57.751 90.165C61.636 88.185 62.6409 93.465 63.526 94.38C64.0359 94.89 65.431 94.215 65.206 92.685C65.891 92.9684 66.6246 93.1161 67.366 93.12C67.2708 94.1661 67.425 95.22 67.816 96.195C68.896 99.045 71.986 99.57 75.031 99.42C78.586 99.225 81.691 97.065 81.616 93.555C82.3366 93.72 83.0853 93.72 83.806 93.555C84.046 94.35 85.861 101.49 85.201 101.985C84.8925 102.211 84.5543 102.392 84.196 102.525C82.471 103.23 82.021 102.975 82.066 103.35C82.0677 103.377 82.0751 103.403 82.0876 103.427C82.1001 103.452 82.1176 103.473 82.1387 103.49C82.1599 103.507 82.1844 103.519 82.2106 103.526C82.2368 103.533 82.2642 103.534 82.291 103.53C83.791 103.53 86.521 103.125 86.446 101.7C86.3287 98.8271 85.608 96.0111 84.331 93.435C84.5851 93.3529 84.8312 93.2474 85.066 93.12C85.921 96.735 88.816 97.545 92.566 97.35C94.1921 97.2867 95.761 96.7324 97.066 95.76C97.0115 100.157 96.1944 104.512 94.651 108.63C91.906 115.41 87.781 116.46 87.781 116.46C87.6986 116.479 87.6211 116.515 87.5531 116.565C87.4852 116.615 87.4283 116.679 87.3861 116.752C87.3439 116.825 87.3172 116.906 87.3077 116.99C87.2982 117.074 87.3061 117.159 87.331 117.24L90.001 125.91C87.556 129.51 88.336 129.315 87.766 129.075C85.741 128.235 76.666 125.37 72.076 124.08C71.9681 121.64 71.7379 119.207 71.386 116.79C71.371 116.295 70.396 116.01 66.256 111.705ZM60.256 127.38C63.7809 130.38 79.756 139.89 84.466 141.525C84.9303 141.756 85.4602 141.82 85.966 141.705C86.461 141.48 86.236 142.11 88.276 130.575C89.041 131.445 91.021 133.575 96.106 138.84C96.1795 138.922 96.2726 138.983 96.3767 139.019C96.4807 139.055 96.5921 139.063 96.7003 139.044C96.8085 139.024 96.91 138.977 96.995 138.907C97.0799 138.838 97.1457 138.747 97.186 138.645C98.4962 135.021 99.598 131.325 100.486 127.575C100.992 127.685 101.493 127.82 101.986 127.98C101.716 134.73 101.791 147.885 95.551 149.565C94.338 149.493 93.1208 149.553 91.921 149.745C82.156 149.145 70.921 141 64.261 134.265C62.131 132.15 60.001 130.275 58.021 128.1L60.256 127.38ZM35.056 182.235C47.221 171.315 64.951 168.93 81.031 172.275C81.766 172.5 81.556 172.41 82.336 174.72C83.1714 174.095 83.9404 173.387 84.631 172.605C85.156 172.11 84.001 170.73 84.106 168.9C84.106 168.54 84.196 168.225 84.541 168.165C86.041 167.91 86.041 171.675 86.896 171.99C87.751 172.305 87.781 171.135 89.701 170.025C96.511 166.05 88.486 172.71 88.486 172.89C88.4817 172.978 88.4958 173.066 88.5275 173.148C88.5591 173.23 88.6076 173.304 88.6697 173.366C88.7319 173.428 88.8064 173.477 88.8884 173.508C88.9704 173.54 89.0581 173.554 89.146 173.55C89.836 173.55 90.016 172.785 92.146 172.275C92.491 172.185 93.271 172.05 93.331 172.395C93.481 173.115 90.751 174.48 90.106 174.915C87.196 175.92 88.201 177.135 88.936 176.94C90.121 176.64 91.141 175.275 92.566 175.725C92.941 175.845 93.571 176.235 93.496 176.625C93.421 177.015 92.836 177.45 92.506 177.705C89.986 179.58 84.391 180.18 84.241 180.255C84.361 181.635 85.456 183.54 85.186 184.125C80.9162 192.932 75.0698 200.883 67.936 207.585C67.771 207.66 61.936 213.285 60.7659 213.09C59.596 212.895 61.186 212.67 64.696 209.625C72.7223 202.335 79.2669 193.564 83.971 183.795C83.521 182.295 80.971 175.02 80.521 173.475C71.9784 171.688 63.1585 171.688 54.616 173.475C38.311 177.06 32.461 186.075 31.666 186.21C30.676 186.24 34.291 183 35.131 182.235H35.056ZM53.371 273.105C52.411 271.815 51.9759 266.295 52.1709 261.105C53.9409 261.36 55.696 261.57 57.466 261.765C57.736 262.41 57.6609 262.35 57.796 262.5C57.2259 264.51 54.961 271.5 53.446 273.105H53.371ZM129.871 256.86C117.279 259.265 104.532 260.769 91.726 261.36C69.976 262.425 44.416 260.985 24.3309 252.27C12.4209 247.125 8.46095 238.545 8.76095 230.235C9.10779 223.306 11.9039 216.725 16.6509 211.665C17.4807 213.782 18.5529 215.795 19.8459 217.665C21.5409 219.645 49.9809 220.965 78.631 221.025C80.5608 219.133 82.5993 217.355 84.736 215.7C94.891 219.51 99.736 221.7 133.081 242.49L129.871 256.86ZM135.751 243.93C139.126 245.115 143.071 261.27 141.646 263.865C140.536 263.565 137.311 259.71 134.146 254.865C134.085 254.769 133.997 254.693 133.892 254.648C133.788 254.602 133.673 254.589 133.561 254.61L130.891 255.165C131.296 253.335 131.971 250.11 133.201 244.38C133.553 244.09 133.975 243.896 134.424 243.817C134.874 243.738 135.336 243.777 135.766 243.93H135.751ZM133.501 242.835C133.501 242.58 133.636 242.385 133.501 242.265C133.651 242.265 102.796 222.63 94.651 218.88C91.9809 217.65 89.131 216.45 86.146 215.265C92.6232 210.217 99.4783 205.674 106.651 201.675C116.446 202.875 126.556 203.985 127.501 203.655C130.771 202.575 137.686 196.245 142.831 191.205C148.366 193.005 155.326 200.205 157.366 209.34C159.076 216.96 157.216 225.705 148.156 233.16C143.597 236.853 138.688 240.093 133.501 242.835ZM275.671 209.295C271.081 216.9 179.041 252.795 172.861 250.185C163.715 246.026 154.824 241.328 146.236 236.115C151.096 232.47 155.236 228.615 157.486 222.75C159.931 224.1 172.831 231.015 174.676 231.3C171.316 236.055 169.561 241.275 170.881 246.915C171.811 250.8 262.051 211.425 266.221 209.415C266.641 209.22 267.016 209.07 267.151 208.8C267.674 207.484 268.032 206.109 268.216 204.705C272.386 206.85 275.056 208.5 275.731 209.295H275.671ZM271.051 162.075C264.616 155.22 257.476 147.945 250.771 141.255C266.581 148.395 278.611 154.17 280.126 156.135C279.121 157.92 272.821 161.325 271.111 162.075H271.051Z" fill="white"/>
</svg>
