<svg width="300" height="300" viewBox="0 0 300 300" fill="none" xmlns="http://www.w3.org/2000/svg">
<path d="M106.156 225.15C108.657 224.264 111.218 223.562 113.821 223.05L114.136 224.205C114.171 224.341 114.254 224.46 114.37 224.54C114.486 224.62 114.626 224.655 114.766 224.64L125.071 223.44C127.906 216.975 133.111 207.18 133.186 207.03C133.111 204.585 133.186 202.53 133.186 200.19C127.291 202.38 116.386 206.535 110.686 209.19C110.557 209.273 110.458 209.394 110.401 209.537C110.345 209.679 110.334 209.836 110.371 209.985C110.371 209.985 110.476 210.36 110.611 210.9C107.821 210.9 99.4661 210.495 97.4561 212.4C97.1436 212.835 96.9901 213.365 97.0211 213.9C96.9011 215.97 97.9361 232.05 99.5861 236.775C100.441 239.25 102.241 238.98 103.471 236.61C104.895 233.041 105.809 229.289 106.186 225.465C106.186 225.27 106.141 225.285 106.156 225.15ZM104.431 211.725C106.261 211.575 106.831 211.605 110.761 211.485C111.466 214.155 112.921 219.645 113.671 222.45C111.025 222.86 108.412 223.467 105.856 224.265C105.06 220.128 104.583 215.935 104.431 211.725Z" fill="white"/>
<path d="M244.214 80.4446C244.589 79.9196 244.109 79.2446 243.704 78.7196C244.851 77.5396 246.124 76.4884 247.499 75.5846C249.82 74.4281 251.941 72.909 253.784 71.0846C254.549 70.2896 255.989 68.6546 255.449 67.6946C254.909 66.7346 253.949 66.6746 252.644 67.2296C253.209 66.636 253.671 65.9515 254.009 65.2046C254.429 64.0346 253.439 63.0896 251.294 63.9596C252.074 62.7146 252.254 61.4096 250.934 60.7796C249.869 60.2696 248.309 61.4846 247.409 62.2796C245.642 63.8238 243.983 65.4877 242.444 67.2596C241.499 65.2796 239.999 62.9996 238.124 63.7196C236.249 64.4396 237.704 67.6646 238.664 69.4196L235.259 71.7746C234.744 71.4968 234.163 71.367 233.579 71.3996C229.709 72.0596 211.934 85.5896 210.134 85.5896C208.754 85.5896 189.044 76.1396 172.004 73.4096C171.971 73.3074 171.91 73.2166 171.828 73.1476C171.745 73.0786 171.645 73.0343 171.539 73.0196C168.567 72.5125 165.553 72.2865 162.539 72.3446C162.448 72.3508 162.359 72.3768 162.278 72.4208C162.198 72.4649 162.128 72.5259 162.074 72.5996H160.814C160.514 71.3846 159.404 68.5796 159.014 67.4996C160.034 66.6146 161.444 66.1646 162.179 64.7396C163.529 62.0996 163.469 57.5096 163.094 54.5696C164.789 53.2796 164.834 51.2096 164.444 49.0946C164.294 48.2396 163.829 46.3046 163.109 45.8246C162.704 45.5546 161.849 45.8246 161.114 46.0946C160.379 44.3846 160.379 45.1646 160.679 44.4746C160.818 44.1566 160.899 43.8163 160.919 43.4696C161.714 43.7096 163.364 42.1196 162.794 40.0196C162.495 39.2679 162.129 38.5449 161.699 37.8596C161.909 37.3496 162.359 36.7346 160.949 34.8596C160.342 34.2046 159.553 33.7451 158.684 33.5396H157.994C157.496 32.817 156.766 32.2874 155.924 32.0396C154.653 31.7157 153.307 31.9043 152.174 32.5646C151.874 32.7896 151.634 33.0896 151.334 33.2996C150.656 32.8878 149.877 32.67 149.084 32.67C148.29 32.67 147.512 32.8878 146.834 33.2996C146.437 33.4554 146.075 33.6899 145.771 33.9889C145.467 34.2879 145.226 34.6453 145.064 35.0396C144.329 34.7861 143.549 34.6884 142.774 34.753C142 34.8176 141.247 35.0429 140.564 35.4146C137.973 36.8198 136.034 39.1834 135.164 41.9996C135.14 42.4243 135.14 42.85 135.164 43.2746H134.999C132.749 42.9446 129.884 48.2846 132.179 52.4396C132.449 52.9346 132.794 53.3996 133.124 53.9396C134.084 55.4396 133.709 55.8896 135.854 57.7196C136.484 58.2596 136.589 58.2146 136.979 58.5446C137.369 58.8746 137.219 58.7096 137.444 59.5496C137.567 60.0445 137.786 60.5101 138.09 60.9194C138.394 61.3288 138.776 61.6739 139.214 61.9346C139.373 63.4018 139.999 64.7792 140.999 65.8646C141.316 66.219 141.685 66.5226 142.094 66.7646C142.204 66.8268 142.327 66.8627 142.454 66.8696C142.904 69.6596 143.459 73.2896 143.699 74.8346L142.364 75.5546C140.617 76.2574 138.919 77.0742 137.279 77.9996C137.15 78.0887 137.059 78.2223 137.024 78.3746C135.434 79.2146 133.934 80.0096 133.079 80.5196C121.169 87.5846 87.3439 134.16 86.9989 136.29C86.9608 136.412 86.9608 136.543 86.9989 136.665C87.4837 137.438 88.0745 138.14 88.7539 138.75C88.5445 139.132 88.293 139.489 88.0039 139.815C85.0039 141.78 80.5039 144.705 78.0889 147.315C77.9195 147.466 77.7925 147.658 77.7202 147.873C77.648 148.088 77.6331 148.319 77.677 148.541C77.7209 148.764 77.8221 148.971 77.9707 149.143C78.1192 149.314 78.3099 149.444 78.5239 149.52C78.9739 149.67 79.0489 149.625 81.9739 148.02C81.17 148.725 80.5126 149.581 80.0389 150.54C79.8439 151.365 80.5939 151.845 81.5389 151.695C82.0706 151.555 82.5769 151.332 83.0389 151.035C82.7684 151.452 82.6244 151.939 82.6244 152.437C82.6244 152.935 82.7684 153.422 83.0389 153.84C84.5389 155.73 88.4689 149.775 90.5389 148.305C91.3789 149.37 92.5189 151.86 94.3339 151.2C95.9089 150.615 94.1839 147.15 94.3339 146.145C94.9442 145.559 95.5959 145.017 96.2839 144.525C97.441 145.383 98.7641 145.991 100.169 146.31C102.644 146.31 128.474 120.24 130.439 118.155C129.734 124.785 126.179 153.24 126.929 158.775C127.274 161.28 133.289 161.64 135.824 161.775C135.059 179.775 134.549 207.045 134.414 207.33C130.439 215.895 129.359 218.235 128.024 220.83C125.594 225.48 115.364 242.64 114.209 246.54C114.044 247.155 114.029 247.395 114.674 248.535C112.741 250.567 110.947 252.727 109.304 255C108.479 256.5 112.019 270.48 114.524 275.43C115.094 276.54 116.024 278.25 117.269 278.205C121.019 278.07 121.004 264.6 120.899 260.835C120.898 260.719 120.856 260.607 120.779 260.52C121.459 259.505 122.2 258.533 122.999 257.61C123.476 257.938 123.977 258.229 124.499 258.48C125.009 258.705 125.579 258.315 125.999 257.97C130.994 254.04 157.934 220.47 163.709 204.63C166.334 197.4 169.829 187.41 170.819 180.33C171.424 175.853 171.48 171.32 170.984 166.83C170.984 166.766 171.009 166.705 171.054 166.66C171.099 166.615 171.16 166.59 171.224 166.59C171.288 166.59 171.349 166.615 171.394 166.66C171.439 166.705 171.464 166.766 171.464 166.83C172.215 171.345 172.361 175.941 171.899 180.495C170.789 190.32 163.034 210.795 158.894 218.325C162.464 217.665 169.724 216.225 173.234 215.175C184.934 211.62 195.734 201.015 196.679 189.105C196.985 183.494 196.985 177.87 196.679 172.26C196.578 164.514 195.571 156.806 193.679 149.295C196.859 147.57 199.769 145.545 200.714 143.685C202.739 139.71 197.384 116.835 196.214 110.415C202.619 111.12 213.524 112.395 218.609 108.42C224.429 103.74 236.999 90.5696 244.214 80.4446ZM120.089 260.01C117.389 258.375 113.609 254.49 113.039 251.445C113.654 250.665 114.299 249.945 114.899 249.135C116.932 252.237 119.466 254.979 122.399 257.25C121.575 258.123 120.804 259.045 120.089 260.01ZM239.339 69.8396C239.416 69.7901 239.472 69.7128 239.494 69.6235C239.517 69.5343 239.504 69.4398 239.459 69.3596C238.934 68.3846 237.359 64.9496 238.454 64.5596C239.084 64.3196 239.639 64.7096 240.104 65.2346C240.814 66.1354 241.367 67.1497 241.739 68.2346C241.767 68.3229 241.818 68.4018 241.887 68.4632C241.956 68.5245 242.041 68.5658 242.132 68.5828C242.223 68.5997 242.317 68.5917 242.403 68.5594C242.49 68.5271 242.566 68.4719 242.624 68.3996C244.124 66.7346 247.634 62.9396 249.614 61.9196C251.114 61.1396 251.474 62.5796 247.799 65.9396C246.955 66.5833 246.144 67.2691 245.369 67.9946C245.326 68.0535 245.303 68.1244 245.303 68.1971C245.303 68.2699 245.326 68.3407 245.369 68.3996C245.369 68.7896 245.684 69.2246 246.224 68.8196C247.528 67.6751 248.906 66.6178 250.349 65.6546C251.086 65.1314 251.942 64.8013 252.839 64.6946C252.389 66.0746 248.204 69.8246 247.844 70.2446C247.73 70.347 247.66 70.4901 247.651 70.6431C247.641 70.7961 247.692 70.9468 247.792 71.0628C247.892 71.1788 248.034 71.2507 248.187 71.2633C248.34 71.2758 248.491 71.2278 248.609 71.1296C250.274 70.0496 253.184 67.5296 254.189 67.9046C255.194 68.2796 252.209 71.0696 251.459 71.7296C247.154 75.4646 248.264 73.0646 243.284 78.1346C241.116 75.76 238.627 73.7001 235.889 72.0146L239.339 69.8396ZM174.164 141.585C173.909 139.515 173.594 137.28 173.204 134.955L173.849 134.1C176.849 130.245 177.749 124.11 177.464 119.295C179.069 126.33 180.344 133.245 181.319 140.115L174.164 141.585ZM151.859 90.2246C147.914 87.2246 141.569 82.0496 137.879 78.5096L143.879 75.5096C149.388 80.6559 154.105 86.5904 157.874 93.1196C163.637 103.707 167.912 115.039 170.579 126.795L149.189 96.5396L151.979 90.7496C152.016 90.6605 152.024 90.5621 152.003 90.468C151.981 90.3739 151.931 90.2889 151.859 90.2246ZM161.999 73.2146C162.089 73.3796 163.124 75.5846 164.699 79.4396C164.699 79.6046 164.414 83.3546 164.279 84.6746C162.364 83.9158 160.559 82.907 158.909 81.6746C159.239 80.3696 160.724 74.4446 160.829 73.1096L161.999 73.2146ZM156.674 89.3246C156.779 89.0546 156.884 88.6946 157.004 88.2746L158.009 88.7996C158.579 89.1746 158.354 88.0346 158.864 91.3346C158.864 91.8896 159.014 92.5046 159.044 93.1796C158.354 91.9346 157.499 90.5996 156.689 89.3246H156.674ZM155.834 88.0646C153 84.0452 149.774 80.3169 146.204 76.9346L157.499 81.8396C157.064 82.8746 156.434 86.0396 155.849 88.0646H155.834ZM167.369 96.8546C165.869 92.7596 164.714 88.1846 164.144 86.9846C164.178 86.6104 164.178 86.2339 164.144 85.8596C164.361 85.9404 164.588 85.9909 164.819 86.0096C164.964 86.0113 165.104 85.9606 165.214 85.8668C165.325 85.7731 165.397 85.6427 165.419 85.4996C165.539 85.0046 165.734 82.4996 165.764 81.9446C170.127 92.9614 173.77 104.25 176.669 115.74C168.194 97.7096 169.499 102.93 167.384 96.8546H167.369ZM179.774 125.49C176.354 109.095 170.339 88.6496 163.499 73.4996C166.011 73.501 168.519 73.7017 170.999 74.0996C172.274 85.4996 171.209 85.1096 172.064 85.5596C172.919 86.0096 178.064 88.0796 178.829 88.3946C178.754 89.5496 179.834 122.58 179.789 125.49H179.774ZM162.509 46.7846C163.291 48.4911 163.567 50.3861 163.304 52.2446C163.182 52.7177 162.931 53.1475 162.579 53.4864C162.227 53.8253 161.788 54.0598 161.311 54.164C160.833 54.2682 160.336 54.2379 159.875 54.0764C159.414 53.915 159.007 53.6288 158.699 53.2496C157.983 51.7419 157.445 50.1564 157.094 48.5246C157.499 47.9996 161.819 46.9496 162.509 46.7846ZM141.869 61.7846C141.321 61.5352 140.76 61.3149 140.189 61.1246C139.805 60.9671 139.463 60.7238 139.188 60.4134C138.914 60.1031 138.714 59.7339 138.603 59.3343C138.493 58.9346 138.476 58.515 138.554 58.1078C138.631 57.7005 138.8 57.3163 139.049 56.9846C139.994 56.1896 140.849 56.2346 141.629 57.4196C142.124 58.3346 142.109 58.4096 142.334 58.4996C142.398 58.5281 142.468 58.5424 142.539 58.5416C142.609 58.5409 142.679 58.5251 142.743 58.4952C142.807 58.4654 142.864 58.4223 142.909 58.3687C142.955 58.3151 142.989 58.2524 143.009 58.1846C143.231 57.2457 143.267 56.2723 143.114 55.3196C142.934 54.2846 142.904 49.6946 142.934 49.5446C143.372 49.7756 143.864 49.8844 144.359 49.8596C147.074 49.7546 147.614 48.3596 148.694 47.2196C149.939 47.3396 150.194 47.9396 151.604 47.2196C152.264 46.8441 152.87 46.3797 153.404 45.8396C153.835 46.0161 154.251 46.2268 154.649 46.4696C155.548 46.902 156.562 47.0347 157.542 46.8484C158.522 46.6622 159.416 46.1667 160.094 45.4346C160.259 45.7496 160.409 46.0646 160.544 46.3946C159.166 46.8224 157.868 47.4763 156.704 48.3296C156.449 48.6446 156.824 50.3546 156.914 50.7596C155.657 50.9177 154.441 51.3095 153.329 51.9146C153.104 51.1346 152.609 49.6796 151.829 49.2746C151.594 49.2028 151.344 49.2028 151.109 49.2746C149.759 49.4846 144.914 50.9396 144.329 51.7346C143.819 52.2896 145.274 56.5796 145.724 57.2846C147.449 59.9546 152.504 59.1746 153.449 56.0546C153.683 55.0076 153.683 53.9217 153.449 52.8746C153.884 52.8746 155.189 52.4096 155.339 52.3646C156.374 54.6896 156.674 54.8246 157.874 57.3296C157.709 57.4646 157.439 57.6896 157.214 57.8396C156.149 58.5446 155.924 58.4246 155.984 58.7246C156.001 58.7842 156.04 58.8353 156.092 58.8685C156.145 58.9016 156.208 58.9145 156.269 58.9046C156.898 58.8147 157.514 58.6432 158.099 58.3946C158.449 58.264 158.738 58.0072 158.909 57.6746C159.329 56.7296 157.004 53.1746 156.089 52.1096C156.269 52.1096 156.689 51.8096 157.004 51.6446C157.424 53.3246 157.709 54.6446 159.329 55.3046C159.797 55.4814 160.296 55.5619 160.796 55.5413C161.296 55.5206 161.787 55.3994 162.239 55.1846C162.479 57.8246 162.434 62.1146 161.174 64.4546C160.529 65.6696 158.939 66.1346 157.919 67.1396C157.619 67.4246 157.814 67.8296 157.919 68.2646C159.584 72.8996 159.614 72.8846 159.524 73.4846C159.082 75.975 158.466 78.431 157.679 80.8346C157.304 80.6696 153.089 78.4346 144.839 75.2246C144.584 73.5296 143.219 64.4846 142.784 62.8196C142.814 62.2346 142.739 62.0996 141.869 61.7096V61.7846ZM152.369 55.6646C151.889 57.2996 149.624 58.0046 148.004 57.5546C146.384 57.1046 146.279 56.2796 145.514 54.3296C145.155 53.5847 144.908 52.7913 144.779 51.9746C145.274 51.4346 150.689 50.3246 151.364 50.2196C152.311 51.8392 152.666 53.7373 152.369 55.5896V55.6646ZM93.6739 145.725C93.1039 146.28 93.8689 148.095 93.9889 149.67C93.9889 149.805 93.9889 150.39 93.8989 150.435C93.0739 150.705 92.3089 149.46 91.8439 148.71C91.3789 147.96 90.9139 146.94 90.1789 147.21C88.6789 147.915 85.1989 152.535 83.8339 153.015C83.1439 151.695 87.0889 147.93 87.2239 147.72C87.2818 147.623 87.3121 147.513 87.3116 147.4C87.3111 147.288 87.2797 147.178 87.2209 147.082C87.1622 146.986 87.0782 146.908 86.9783 146.856C86.8783 146.805 86.7661 146.782 86.6539 146.79C86.3839 146.79 86.2039 147.03 85.7839 147.405C84.5064 148.651 83.0442 149.694 81.4489 150.495C82.8953 148.835 84.4433 147.267 86.0839 145.8C86.1649 145.716 86.2219 145.613 86.2489 145.5C86.2489 145.5 85.9339 144.705 85.3189 145.02C84.4489 145.5 80.2189 147.945 78.8839 148.575C78.7039 148.455 78.8089 148.275 78.8839 148.095C80.9989 145.5 85.6489 142.35 88.4989 140.355C88.8334 140.01 89.1118 139.615 89.3239 139.185C91.2977 141.021 93.4033 142.711 95.6239 144.24C94.9398 144.688 94.2882 145.184 93.6739 145.725ZM128.579 159.36C128.249 159.15 128.009 158.955 127.964 158.685C127.139 152.565 131.729 117.885 131.654 116.52C131.654 116.44 131.638 116.36 131.607 116.287C131.576 116.213 131.53 116.146 131.473 116.09C131.416 116.034 131.348 115.99 131.273 115.961C131.199 115.932 131.119 115.918 131.039 115.92C130.274 115.92 131.624 115.92 112.514 134.22C111.254 135.405 101.624 144.615 100.019 145.23C97.8139 145.065 89.5189 138.45 88.1689 136.365C90.7789 131.085 122.429 87.6446 133.379 80.9996C134.219 80.4896 135.659 79.6946 137.234 78.8546C137.779 79.3683 138.366 79.835 138.989 80.2496C142.469 83.5496 147.314 87.6596 150.989 90.7496L148.124 96.4346C148.08 96.5099 148.058 96.5953 148.058 96.6821C148.058 96.769 148.08 96.8544 148.124 96.9296C171.389 130.305 171.044 129.93 171.194 129.93C172.685 137.642 173.613 145.453 173.969 153.3C173.969 155.415 173.969 155.235 174.059 155.085C174.149 154.935 174.059 155.19 174.059 155.19C170.429 159.15 134.504 162.84 128.579 159.36ZM211.499 109.665C204.704 110.61 197.024 109.2 195.539 109.14C194.714 105.141 193.069 101.356 190.709 98.0246C190.673 97.9761 190.62 97.9429 190.56 97.9318C190.501 97.9207 190.439 97.9324 190.388 97.9646C190.337 97.9968 190.3 98.0472 190.284 98.1056C190.269 98.164 190.276 98.2261 190.304 98.2796C191.174 100.05 194.084 107.685 194.804 109.545C194.579 110.265 201.584 139.23 199.604 143.13C197.834 146.655 187.529 151.095 183.809 152.37C183.073 144.019 181.872 135.716 180.209 127.5C180.719 123.18 180.059 97.4996 179.864 88.0046C179.858 87.8943 179.821 87.7879 179.758 87.6976C179.694 87.6074 179.606 87.537 179.504 87.4946L172.769 84.6596C172.738 81.095 172.513 77.5347 172.094 73.9946C188.909 76.9046 208.499 86.5196 210.134 86.5346C212.504 86.5346 230.114 73.0346 233.759 72.4946C235.379 72.2396 242.339 78.3146 243.149 79.9946C236.039 89.9246 223.544 102.975 217.754 107.49C215.889 108.737 213.735 109.486 211.499 109.665Z" fill="white"/>
<path d="M150.825 52.6648C150.806 52.5663 150.769 52.4724 150.714 52.3886C150.659 52.3048 150.588 52.2326 150.505 52.1762C150.422 52.1198 150.329 52.0802 150.231 52.0598C150.132 52.0394 150.031 52.0386 149.933 52.0573C149.834 52.076 149.74 52.1139 149.657 52.1689C149.573 52.2239 149.501 52.2948 149.444 52.3777C149.388 52.4606 149.348 52.5538 149.328 52.6519C149.307 52.7501 149.306 52.8513 149.325 52.9498C149.625 54.4498 149.685 54.7948 150.345 54.7948C150.47 54.7952 150.593 54.7645 150.703 54.7055C150.813 54.6464 150.906 54.5609 150.975 54.4567C151.043 54.3524 151.085 54.2327 151.095 54.1084C151.106 53.9841 151.085 53.8591 151.035 53.7448C150.99 53.5048 150.855 52.7998 150.825 52.6648ZM155.415 62.5948C156.39 62.8798 157.32 62.4148 157.29 62.1748C157.26 61.9348 157.29 62.0548 155.97 61.5598C155.085 61.2298 154.11 60.0598 153.765 60.2398C153.42 60.4198 153.945 61.3798 154.065 61.5598C154.386 62.0467 154.862 62.4113 155.415 62.5948ZM182.85 48.3448C180.885 56.5798 179.445 63.5698 179.205 64.9648C179.046 65.5717 179.015 66.2053 179.115 66.8248C179.91 68.5198 190.185 71.8648 191.49 71.2048C192.795 70.5448 196.185 62.9098 200.13 55.0348C202.547 55.112 204.965 54.936 207.345 54.5098C209.851 54.05 212.29 53.279 214.605 52.2148C219.675 49.8748 225.225 39.8548 225.975 34.8148C226.538 29.3428 225.379 23.8318 222.66 19.0498C210.075 -2.77522 173.16 8.96978 176.16 33.2098C177.017 38.7563 179.325 43.9778 182.85 48.3448ZM192 66.2098C192 66.4498 191.73 66.4198 190.5 66.2098C187.984 65.8936 185.548 65.1156 183.315 63.9148C182.265 63.3448 181.98 63.2248 182.085 62.9698C182.19 62.7148 182.415 62.8048 184.035 63.2548C184.185 63.2548 188.835 64.7548 190.17 65.2198C191.895 65.9998 192 65.9998 192 66.2098ZM191.73 41.8048C193.332 41.8878 194.928 41.5572 196.365 40.8448C197.701 41.4918 199.146 41.8836 200.625 41.9998C198.105 46.6948 192.99 56.2648 191.34 61.3648L184.98 59.6098C186.48 55.9198 189.795 47.2798 191.7 41.8048H191.73ZM191.205 40.5598C190.085 40.3906 189.052 39.8588 188.264 39.046C187.475 38.2331 186.975 37.1841 186.84 36.0598C186.42 33.0598 188.34 29.6998 191.235 30.4948C193.05 30.9898 193.275 32.4298 192.96 34.2448C192.69 35.5648 191.715 38.8798 191.175 40.4998L191.205 40.5598ZM195.285 36.9598C195.445 35.9782 195.814 35.0423 196.365 34.2148C196.628 33.7637 197.011 33.3952 197.473 33.1513C197.934 32.9073 198.455 32.7977 198.975 32.8348C200.085 33.1648 200.565 35.2648 199.65 36.5848C198.771 37.7518 197.676 38.7395 196.425 39.4948C195.995 39.2422 195.652 38.8639 195.443 38.4107C195.234 37.9575 195.168 37.4512 195.255 36.9598H195.285ZM181.5 17.8948C188.22 9.80978 200.865 6.59978 210 9.92978C214.963 11.6332 219.137 15.0824 221.745 19.6348C224.331 24.1851 225.438 29.4275 224.91 34.6348C224.22 39.2998 218.91 48.9898 214.245 51.1348C209.98 53.0803 205.326 54.0244 200.64 53.8948C200.13 53.8948 199.59 53.8948 199.395 54.2548C198.51 56.0548 196.89 59.5348 195.3 62.8048C194.202 62.2746 193.064 61.8332 191.895 61.4848C193.635 56.5048 199.125 46.7248 201.735 41.9848C203.997 42.1785 206.27 41.7859 208.335 40.8448C208.893 40.551 209.356 40.1042 209.669 39.5568C209.982 39.0093 210.132 38.384 210.102 37.7541C210.072 37.1242 209.863 36.5159 209.5 36.0005C209.136 35.4852 208.634 35.0843 208.05 34.8448C205.725 33.7048 203.64 36.4348 202.425 38.7298C202.095 39.3298 201.72 40.0348 201.3 40.8298C200.087 40.75 198.891 40.5027 197.745 40.0948C198.886 39.2931 199.898 38.3219 200.745 37.2148C201.22 36.4976 201.461 35.6507 201.434 34.7909C201.407 33.9311 201.114 33.1009 200.595 32.4148C200.188 31.9415 199.622 31.6332 199.003 31.5476C198.384 31.462 197.756 31.605 197.235 31.9498C196.185 32.5953 195.343 33.5302 194.811 34.6424C194.279 35.7546 194.079 36.9968 194.235 38.2198C194.398 38.9101 194.77 39.5334 195.3 40.0048C194.316 40.4123 193.26 40.6164 192.195 40.6048C192.795 38.8348 193.77 35.6398 194.025 34.3348C194.185 33.5908 194.221 32.8254 194.13 32.0698C194.014 31.4211 193.713 30.8198 193.263 30.3381C192.814 29.8565 192.234 29.515 191.595 29.3548C187.95 28.3198 185.265 32.3548 185.79 36.1198C185.938 37.469 186.518 38.7346 187.442 39.7288C188.366 40.7231 189.585 41.3932 190.92 41.6398C189 47.0398 186 55.7548 184.5 59.4748L181.2 58.6198C183.315 47.9998 183.57 48.2548 183.27 48.1198C179.862 43.7743 177.681 38.5944 176.955 33.1198C176.602 30.4052 176.824 27.6465 177.607 25.0234C178.39 22.4002 179.716 19.9713 181.5 17.8948ZM202.32 40.9198C203.37 39.0148 205.47 34.8448 207.51 35.8648C207.918 36.0292 208.274 36.3019 208.538 36.6535C208.802 37.0051 208.966 37.4222 209.01 37.8598C208.98 40.4998 204.87 40.9648 202.26 40.9198H202.32ZM259.74 47.5348C261.548 46.4717 263.683 46.1088 265.74 46.5148C268 46.5552 270.159 47.4588 271.774 49.0403C273.389 50.6217 274.337 52.7612 274.425 55.0198C273.066 54.2312 271.477 53.9346 269.925 54.1798C266.16 54.5098 261.24 56.5498 261.9 60.1798C262.44 63.1798 266.4 62.7748 269.4 61.9648C272.4 61.1548 274.785 59.6848 275.4 56.7898C279.045 59.4448 279.9 64.0948 280.05 68.6398C280.05 68.7034 280.075 68.7645 280.12 68.8095C280.165 68.8545 280.227 68.8798 280.29 68.8798C280.354 68.8798 280.415 68.8545 280.46 68.8095C280.505 68.7645 280.53 68.7034 280.53 68.6398C280.635 63.5548 279.72 58.5748 275.565 55.6798C275.608 54.3774 275.386 53.08 274.913 51.8659C274.439 50.6519 273.725 49.5465 272.812 48.6168C271.899 47.687 270.807 46.9522 269.601 46.4568C268.396 45.9615 267.103 45.7158 265.8 45.7348C263.718 45.4307 261.595 45.8659 259.8 46.9648C259.245 47.2348 259.5 47.6398 259.74 47.5348ZM273.42 58.2898C271.725 60.5098 266.925 61.6648 264.705 61.2898C263.88 61.1548 263.205 60.8098 263.025 59.9548C262.485 56.9548 267.66 55.3198 270.75 55.2148C272.008 55.1183 273.263 55.44 274.32 56.1298C274.207 56.914 273.897 57.657 273.42 58.2898ZM252.87 29.9998C254.475 28.0198 253.395 24.5698 248.91 24.5548C247.17 24.5548 246.33 26.3248 246.45 28.0198C246.72 32.0548 251.265 31.9348 252.87 29.9998ZM247.5 27.9448C247.5 26.9548 247.965 25.6648 249 25.6798C251.415 25.6798 252.525 26.8048 252.525 28.0498C252.465 30.8848 247.305 32.3548 247.5 27.9448ZM246.885 198C233.7 192.735 227.58 218.22 216.81 240.12C216.742 241.04 216.772 241.966 216.9 242.88C216.9 245.175 217.155 260.37 218.49 262.095C218.85 262.785 220.365 262.095 221.07 261.66C227.058 257.953 232.701 253.716 237.93 249C237.975 248.949 238.008 248.889 238.029 248.825C238.05 248.76 238.057 248.692 238.05 248.625C240.84 244.65 251.295 223.95 253.83 213.57C255.6 206.22 253.845 200.745 246.885 198ZM251.595 217.05C244.536 216.145 237.712 213.916 231.48 210.48C234.99 203.835 239.325 196.26 246.48 199.11C254.445 202.275 254.28 208.83 251.595 217.005V217.05ZM226.635 256.05C226.175 255.664 225.671 255.331 225.135 255.06C223.108 254.029 220.766 253.804 218.58 254.43C218.43 252.645 217.575 241.035 217.575 240.93C228.81 245.04 225.345 243.255 236.475 248.79C235.305 249.9 230.91 252.975 226.635 256.02V256.05ZM234.375 212.64C235.838 213.439 237.34 214.165 238.875 214.815C235.437 220.215 232.399 225.86 229.785 231.705C227.265 236.97 227.355 236.94 224.79 242.685C223.29 242.205 221.79 241.755 220.29 241.305C221.91 238.08 233.43 214.5 234.375 212.61V212.64ZM225.375 242.835C230.25 234.09 235.215 223.215 239.475 215.01C240.975 215.64 242.475 216.15 243.975 216.6C243.18 218.1 240.855 222.09 240.24 223.245C239.625 224.4 233.46 236.55 233.025 237.48C232.335 238.98 230.445 243.165 229.86 244.5C228.33 243.825 226.86 243.315 225.315 242.805L225.375 242.835ZM230.4 244.695C231.315 243.03 235.08 236.04 235.545 235.14C236.25 233.745 244.11 217.68 244.545 216.75C245.925 217.14 247.38 217.47 248.31 217.65C245.565 225.15 237.66 239.595 234.81 246.72C232.215 245.505 231.63 245.205 230.34 244.665L230.4 244.695ZM231.315 210.915L234 212.415C228.589 221.629 223.876 231.236 219.9 241.155L217.65 240.465C226.365 221.895 226.77 219.465 231.255 210.885L231.315 210.915ZM237.495 248.025L235.23 246.945C237.675 242.145 245.325 229.83 248.82 217.755C249.66 217.905 250.485 218.04 251.28 218.145C247.426 228.43 242.797 238.409 237.435 247.995L237.495 248.025ZM190.5 257.76C191.098 257.265 191.525 256.595 191.722 255.844C191.918 255.093 191.874 254.299 191.595 253.575C191.468 252.53 190.989 251.559 190.236 250.822C189.484 250.086 188.503 249.628 187.455 249.523C186.408 249.418 185.356 249.673 184.472 250.246C183.589 250.819 182.927 251.675 182.595 252.675C180.675 251.43 178.59 250.11 176.595 248.85C178.095 246.855 182.505 247.74 182.955 249.375C182.965 249.438 183 249.495 183.052 249.533C183.104 249.571 183.169 249.587 183.233 249.577C183.296 249.567 183.353 249.532 183.391 249.48C183.429 249.428 183.445 249.363 183.435 249.3C183.21 246.69 177.78 245.16 175.59 248.235C173.655 247.05 171.255 245.61 169.245 244.515C170.97 243.015 174.825 243.855 175.245 245.415C175.265 245.468 175.303 245.513 175.353 245.541C175.402 245.569 175.46 245.578 175.516 245.567C175.572 245.556 175.622 245.526 175.658 245.482C175.693 245.437 175.712 245.382 175.71 245.325C175.515 242.895 170.49 241.26 168.21 243.93C167.255 243.394 166.25 242.952 165.21 242.61C165.02 242.531 164.811 242.509 164.609 242.546C164.407 242.583 164.22 242.678 164.07 242.82C160.275 247.545 147.48 259.815 141.57 261.24C141.422 261.262 141.282 261.323 141.164 261.417C141.047 261.511 140.956 261.634 140.901 261.774C140.847 261.914 140.83 262.065 140.852 262.214C140.875 262.363 140.936 262.502 141.03 262.62C142.328 263.937 143.814 265.054 145.44 265.935C143.94 267.435 142.77 268.785 141.9 269.76C141.45 270.24 141.21 279.42 141.6 281.445C141.658 281.643 141.786 281.813 141.96 281.925C143.85 283.215 168.195 293.745 170.685 292.335C172.35 291.39 192.225 270.705 192.54 270.075C193.02 269.085 192.855 262.485 192.825 259.845C192.705 259.05 191.22 258.195 190.5 257.76ZM142.5 277.575V274.23C148.725 277.23 162.975 283.35 168.375 285.06C169.755 285.51 169.875 285.45 170.595 285.06C174.72 282.42 189.285 266.01 191.955 263.505V266.67C183.855 274.785 170.1 289.005 169.845 288.195C168.36 288.105 143.79 278.175 142.5 277.575ZM190.125 252.705C190.664 253.613 190.954 254.648 190.965 255.705C190.96 256.041 190.877 256.371 190.724 256.671C190.57 256.97 190.35 257.229 190.08 257.43C188.82 256.59 186.435 255.03 183.615 253.2C185.16 250.155 188.595 250.11 190.065 252.705H190.125ZM142.125 262.305C148.515 260.415 160.65 248.715 164.73 243.645C165.712 243.918 166.659 244.306 167.55 244.8C166.05 247.59 167.655 250.65 168.225 250.215C168.54 249.975 167.97 249.885 167.88 248.415C167.842 247.341 168.085 246.276 168.585 245.325C170.655 246.405 173.085 247.815 175.14 249C173.88 251.805 175.395 254.58 175.92 254.175C176.445 253.77 175.68 253.86 175.59 252.39C175.554 251.426 175.738 250.466 176.13 249.585C178.245 250.83 180.405 252.12 182.385 253.335C182.08 254.082 181.959 254.892 182.032 255.696C182.105 256.5 182.37 257.275 182.805 257.955C182.825 257.98 182.849 258.002 182.877 258.018C182.905 258.034 182.936 258.045 182.968 258.049C183 258.053 183.033 258.051 183.064 258.042C183.095 258.034 183.125 258.019 183.15 258C183.176 257.98 183.197 257.956 183.213 257.928C183.23 257.9 183.24 257.869 183.244 257.837C183.248 257.805 183.246 257.772 183.238 257.741C183.229 257.71 183.215 257.68 183.195 257.655C182.926 257.059 182.792 256.41 182.805 255.756C182.818 255.102 182.977 254.46 183.27 253.875C186.765 256.005 189.585 257.79 190.455 258.375C190.29 258.525 174.645 272.445 169.32 276.585C165.825 275.67 147.48 266.565 142.125 262.305ZM142.695 270.66C149.49 273.66 164.925 280.62 168.48 281.295C169.095 281.415 169.335 281.46 170.505 280.53C175.5 276.525 191.745 259.53 191.895 259.71C191.902 259.754 191.902 259.8 191.895 259.845V262.845C188.55 265.53 169.95 285.06 169.65 284.13C168.15 284.13 143.775 274.185 142.53 273.63C142.5 273 142.635 271.32 142.695 270.66ZM170.01 291.33C168.51 292.185 145.665 282.9 142.605 281.01C142.49 280.054 142.435 279.092 142.44 278.13C149.01 281.37 168.12 289.44 169.875 289.365C172.44 289.23 190.575 268.815 191.865 267.39C191.88 268.156 191.805 268.921 191.64 269.67C191.385 270.165 171 290.775 170.01 291.33ZM45.7352 206.775C45.8402 208.38 45.9152 209.775 45.9152 211.08C45.9152 211.279 45.9942 211.469 46.1349 211.61C46.2755 211.751 46.4663 211.83 46.6652 211.83C46.8641 211.83 47.0549 211.751 47.1955 211.61C47.3362 211.469 47.4152 211.279 47.4152 211.08C47.4152 209.685 47.3402 208.305 47.2352 206.67C47.2213 206.471 47.1289 206.286 46.9784 206.155C46.8279 206.024 46.6316 205.958 46.4327 205.972C46.2338 205.986 46.0485 206.079 45.9177 206.229C45.7869 206.38 45.7213 206.576 45.7352 206.775ZM274.29 176.7C274.192 176.705 274.096 176.731 274.008 176.774C273.92 176.817 273.842 176.878 273.778 176.952C273.713 177.026 273.664 177.112 273.634 177.205C273.603 177.299 273.592 177.397 273.6 177.495C273.69 178.875 273.78 180.36 273.78 181.8C273.78 181.999 273.859 182.189 274 182.33C274.14 182.471 274.331 182.55 274.53 182.55C274.729 182.55 274.92 182.471 275.06 182.33C275.201 182.189 275.28 181.999 275.28 181.8C275.28 180.3 275.19 178.8 275.085 177.39C275.079 177.292 275.054 177.196 275.011 177.108C274.968 177.02 274.907 176.941 274.833 176.877C274.759 176.813 274.673 176.764 274.58 176.734C274.486 176.703 274.388 176.692 274.29 176.7ZM41.8502 203.04C42.0491 203.04 42.2399 202.961 42.3805 202.82C42.5212 202.679 42.6002 202.489 42.6002 202.29C42.6002 202.091 42.5212 201.9 42.3805 201.759C42.2399 201.619 42.0491 201.54 41.8502 201.54C40.0352 201.54 38.5202 201.675 37.0202 201.645C36.8199 201.645 36.6275 201.723 36.4845 201.863C36.3414 202.004 36.2591 202.194 36.2552 202.395C36.2552 202.594 36.3342 202.784 36.4749 202.925C36.6155 203.066 36.8063 203.145 37.0052 203.145C38.5502 203.175 40.2452 203.115 41.8502 203.04ZM269.64 172.26C267.84 172.26 266.325 172.365 264.81 172.38C264.611 172.38 264.42 172.459 264.28 172.599C264.139 172.74 264.06 172.931 264.06 173.13C264.06 173.329 264.139 173.519 264.28 173.66C264.42 173.801 264.611 173.88 264.81 173.88C266.43 173.88 268.11 173.88 269.73 173.76C269.929 173.748 270.115 173.657 270.247 173.508C270.38 173.359 270.447 173.164 270.435 172.965C270.423 172.766 270.333 172.58 270.184 172.448C270.035 172.315 269.839 172.248 269.64 172.26ZM45.3302 193.77C45.4202 195.15 45.5102 196.635 45.5102 198.075C45.514 198.272 45.5943 198.461 45.7341 198.601C45.8739 198.741 46.0625 198.821 46.2602 198.825C46.4591 198.825 46.6499 198.746 46.7905 198.605C46.9312 198.464 47.0102 198.274 47.0102 198.075C47.0102 196.575 46.9202 195.075 46.8302 193.665C46.8163 193.466 46.7239 193.281 46.5734 193.15C46.4229 193.019 46.2266 192.953 46.0277 192.967C45.8288 192.981 45.6435 193.074 45.5127 193.224C45.3819 193.375 45.3163 193.571 45.3302 193.77ZM274.875 168.795C274.875 167.295 274.785 165.795 274.68 164.385C274.666 164.186 274.574 164.001 274.423 163.87C274.273 163.739 274.077 163.673 273.878 163.687C273.679 163.701 273.494 163.794 273.363 163.944C273.232 164.095 273.166 164.291 273.18 164.49C273.27 165.87 273.36 167.355 273.36 168.795C273.36 168.994 273.439 169.184 273.58 169.325C273.72 169.466 273.911 169.545 274.11 169.545C274.31 169.545 274.503 169.466 274.646 169.326C274.789 169.186 274.871 168.995 274.875 168.795ZM56.4002 202.845C56.4987 202.841 56.5955 202.818 56.685 202.776C56.7745 202.735 56.855 202.676 56.9219 202.604C56.9888 202.532 57.0407 202.447 57.0747 202.354C57.1088 202.262 57.1242 202.163 57.1202 202.065C57.105 201.868 57.0162 201.685 56.8716 201.552C56.7269 201.418 56.5371 201.344 56.3402 201.345C54.5252 201.42 53.0102 201.48 51.4952 201.45C51.2963 201.45 51.1055 201.529 50.9649 201.669C50.8242 201.81 50.7452 202.001 50.7452 202.2C50.7452 202.399 50.8242 202.589 50.9649 202.73C51.1055 202.871 51.2963 202.95 51.4952 202.95C53.1002 202.98 54.7802 202.92 56.4002 202.845ZM284.19 172.065C282.69 172.14 281.025 172.185 279.36 172.185C279.261 172.181 279.162 172.197 279.07 172.232C278.977 172.267 278.892 172.32 278.821 172.389C278.749 172.458 278.693 172.54 278.654 172.631C278.615 172.723 278.595 172.821 278.595 172.92C278.595 173.12 278.674 173.312 278.814 173.455C278.954 173.599 279.145 173.681 279.345 173.685C281.055 173.685 282.435 173.685 284.25 173.565C284.349 173.561 284.445 173.538 284.535 173.496C284.625 173.455 284.705 173.396 284.772 173.324C284.839 173.252 284.891 173.167 284.925 173.074C284.959 172.982 284.974 172.883 284.97 172.785C284.952 172.59 284.862 172.408 284.718 172.276C284.574 172.143 284.386 172.068 284.19 172.065ZM21.9302 158.4C22.1252 158.55 64.4252 152.28 66.2402 151.17C66.3407 151.096 66.4209 150.999 66.4734 150.886C66.5259 150.773 66.5489 150.649 66.5402 150.525C66.5402 148.59 64.0052 130.425 62.7902 125.895C62.6402 125.34 62.4902 124.785 62.1452 124.59C59.8502 123.21 19.4102 130.83 16.9952 132.39C16.9297 132.428 16.8732 132.481 16.8293 132.543C16.7853 132.605 16.755 132.675 16.7402 132.75C16.2302 134.565 20.6252 157.5 21.9302 158.4ZM17.6552 133.11C20.5352 131.805 57.2402 125.085 61.4402 125.61C62.4602 128.235 65.1902 147.465 65.3702 150.285C63.2852 150.9 22.5002 157.905 22.3502 157.935C22.2002 157.965 22.1852 158.145 21.8702 157.2C20.5502 153.24 17.5802 136.5 17.6552 133.11Z" fill="white"/>
<path d="M69.5403 152.505C69.6219 152.353 69.6583 152.182 69.6453 152.01C69.6453 149.625 66.2253 123.15 65.0103 121.035C64.915 120.879 64.7802 120.751 64.6195 120.664C64.4588 120.577 64.2779 120.534 64.0953 120.54C59.0703 119.925 16.6803 128.205 13.8903 130.14C13.5003 130.41 13.5603 131.085 13.6053 131.805C13.8453 135.75 18.1053 161.7 19.6053 161.55C19.7703 161.55 19.7103 161.43 19.3203 162.225C16.9803 167.04 12.5403 182.46 12.6303 185.565C12.6303 186.87 12.9303 188.565 14.2203 188.475C23.4753 187.335 68.8503 180.135 81.9003 177.45C82.4102 177.345 82.7403 176.88 82.7253 176.115C82.5713 174.84 82.1849 173.605 81.5853 172.47C79.7552 169.035 72.1653 155.43 69.5403 152.505ZM19.6953 161.085C18.5253 159.585 14.2203 133.74 14.5503 130.875C17.8503 129.165 59.6703 121.08 64.0503 121.74C65.2503 125.04 68.3553 148.875 68.5503 151.74C63.2403 153.57 26.4753 159.51 19.6953 161.085ZM20.3553 161.535C21.6153 161.22 64.5303 154.035 68.4603 153C70.6053 154.995 80.2953 172.23 80.9253 173.7C72.3153 175.2 21.2403 183.735 13.7253 184.875C13.8303 180.33 18.4953 164.445 20.3553 161.535Z" fill="white"/>
<path d="M25.9943 177.09C27.2993 176.895 54.9893 173.565 64.9943 170.85C65.056 170.834 65.1088 170.794 65.1411 170.739C65.1735 170.684 65.1827 170.619 65.1668 170.557C65.1509 170.496 65.1111 170.443 65.0563 170.41C65.0014 170.378 64.936 170.369 64.8743 170.385C62.9093 170.79 38.9393 173.985 25.9643 176.625C25.9284 176.618 25.8916 176.62 25.8566 176.63C25.8215 176.64 25.7892 176.658 25.762 176.682C25.7348 176.706 25.7135 176.736 25.6997 176.77C25.6859 176.804 25.68 176.84 25.6823 176.876C25.6846 176.913 25.6952 176.948 25.7133 176.98C25.7313 177.011 25.7563 177.039 25.7863 177.059C25.8164 177.08 25.8507 177.093 25.8868 177.098C25.9228 177.104 25.9596 177.101 25.9943 177.09ZM46.2293 72.7198C45.6689 73.9853 45.1978 75.2885 44.8193 76.6198C44.797 76.8334 44.8559 77.0476 44.9843 77.2198C46.4993 79.4998 62.0243 97.0048 66.0743 99.4648C66.6293 99.8098 67.2893 100.05 67.6943 99.5548C70.6363 95.894 74.4759 93.057 78.8393 91.3198C82.3907 90.0633 86.1142 89.3601 89.8793 89.2348C92.8793 88.9648 93.4043 88.6648 94.5593 86.6998C95.9217 84.1138 97.7294 81.7882 99.8993 79.8298C102.666 77.4106 105.737 75.3633 109.034 73.7398C109.183 73.6557 109.299 73.5244 109.364 73.3667C109.429 73.2091 109.44 73.0342 109.394 72.8698C108.887 71.5795 108.217 70.3595 107.399 69.2398C107.939 69.0598 108.539 68.8948 108.539 68.3548C108.539 66.8548 95.4593 47.9248 91.8293 44.3548C91.4543 43.9798 90.9143 43.4848 90.4193 43.5148C82.9193 43.9348 75.6143 51.0148 71.3843 57.1948C66.5393 57.0148 63.4043 56.5798 57.8843 58.9048C53.9874 60.5589 50.4741 62.9999 47.5643 66.0748C47.1143 66.5398 44.0543 69.7798 44.0093 70.0348C43.9643 70.2898 44.0543 70.2898 46.2293 72.7198ZM106.229 72.2998C99.9743 73.3648 95.9843 78.5698 93.0443 84.2248C91.7393 86.7448 91.8593 86.8648 90.4793 86.8348C88.0662 86.6981 85.6455 86.7885 83.2493 87.1048C81.4917 87.3675 79.7637 87.7995 78.0893 88.3948C74.2793 89.7448 69.9143 94.0648 67.5893 97.2748C67.5399 97.3408 67.4771 97.3957 67.405 97.4357C67.333 97.4758 67.2532 97.5001 67.1711 97.5072C67.0889 97.5143 67.0062 97.5039 66.9284 97.4768C66.8505 97.4497 66.7793 97.4064 66.7193 97.3498C61.8443 92.3248 53.2193 83.5048 48.8843 78.4348C48.6743 78.2098 49.0343 77.8798 49.2443 78.1198C52.0493 81.1198 59.2943 88.3048 67.0643 96.1198C69.6893 92.7748 73.7393 88.7248 77.7443 87.3148C79.9282 86.5358 82.2007 86.0319 84.5093 85.8148C86.6712 85.6506 88.8424 85.6506 91.0043 85.8148C91.8893 84.7948 96.2693 73.2148 106.199 71.9248C106.228 71.9461 106.252 71.9737 106.269 72.0056C106.286 72.0374 106.296 72.0726 106.297 72.1087C106.299 72.1447 106.292 72.1806 106.278 72.2137C106.263 72.2468 106.242 72.2762 106.214 72.2998H106.229ZM90.4043 44.7298C93.4043 46.8298 105.614 64.9048 107.204 68.0698C104.445 68.944 101.782 70.0948 99.2543 71.5048C96.8608 72.7046 94.7652 74.4233 93.12 76.5355C91.4749 78.6478 90.3216 81.1004 89.7443 83.7148C84.3593 74.9548 76.8443 65.3098 71.8493 58.2148C72.1493 58.0198 80.5793 45.3148 90.4043 44.7298ZM58.2143 59.7298C63.6893 57.5248 66.7193 58.0348 71.2493 58.2298C75.7493 65.9098 83.8343 76.7398 89.1593 83.8348C84.2445 82.6718 79.0726 83.3831 74.6543 85.8298C71.9993 87.3298 68.7593 90.9298 66.7643 93.1648C63.8843 90.8548 47.2643 73.1548 44.5943 70.1548C48.7043 65.5048 52.4993 62.0098 58.2143 59.6698V59.7298ZM30.7643 97.8748C30.3936 97.6146 29.9553 97.4676 29.5026 97.4516C29.05 97.4357 28.6025 97.5514 28.2143 97.7848C27.9316 97.9109 27.6766 98.0914 27.4636 98.316C27.2507 98.5407 27.0842 98.805 26.9734 99.0941C26.8627 99.3831 26.81 99.6911 26.8183 100C26.8266 100.31 26.8957 100.615 27.0218 100.897C27.1479 101.18 27.3284 101.435 27.553 101.648C27.7777 101.861 28.042 102.027 28.3311 102.138C28.6201 102.249 28.9281 102.302 29.2375 102.293C29.5469 102.285 29.8516 102.216 30.1343 102.09C30.5859 101.991 30.9968 101.757 31.3125 101.42C31.6282 101.082 31.8339 100.657 31.9022 100.199C31.9705 99.7423 31.8983 99.2752 31.6951 98.86C31.4919 98.4448 31.1673 98.1012 30.7643 97.8748ZM29.7743 100.875C28.7243 101.205 28.0943 100.875 27.8393 100.365C27.3593 99.2998 27.9593 97.6648 29.5193 98.1448C30.6143 98.5498 31.4993 100.395 29.7743 100.95V100.875ZM107.039 29.2348C107.474 30.1198 109.499 29.7898 110.384 29.5048C110.849 29.3548 111.149 29.1898 111.194 28.7398C111.329 27.6148 111.479 17.8648 110.969 16.9198C110.917 16.8207 110.836 16.7394 110.737 16.686C110.638 16.6326 110.526 16.6096 110.414 16.6198C108.814 16.6153 107.222 16.8479 105.689 17.3098C105.074 17.6848 106.499 28.2448 107.039 29.2348ZM106.004 17.6698C107.39 17.4716 108.791 17.4063 110.189 17.4748C110.279 18.5848 110.039 28.1998 110.024 28.3498C109.391 28.5769 108.714 28.6589 108.044 28.5898C107.939 28.2448 107.759 27.3148 107.534 26.1448C106.873 23.3491 106.363 20.5201 106.004 17.6698ZM29.3093 85.2148C29.4532 85.2885 29.6126 85.327 29.7743 85.327C29.936 85.327 30.0954 85.2885 30.2393 85.2148C30.8188 84.8573 31.2784 84.335 31.5593 83.7148C31.5974 83.6155 31.6092 83.5081 31.5934 83.4029C31.5777 83.2978 31.5349 83.1985 31.4693 83.1148C30.7493 82.2598 22.8893 73.1548 21.9293 73.7248C20.7506 74.4878 19.6323 75.3403 18.5843 76.2748C18.5421 76.3126 18.5082 76.3588 18.485 76.4105C18.4617 76.4621 18.4496 76.5181 18.4493 76.5748C18.4193 77.3548 27.1493 84.3448 29.3093 85.2148ZM22.1093 74.1148C23.2043 74.9098 26.8943 79.4698 30.3143 83.5048C30.1672 83.7365 29.985 83.9439 29.7743 84.1198C26.1786 81.8184 22.7455 79.2724 19.4993 76.4998C20.3131 75.6454 21.1852 74.8484 22.1093 74.1148ZM45.6743 41.0248C46.0043 35.2048 49.3943 32.5048 52.9343 31.8148C51.9293 35.5048 52.0943 40.3048 55.7393 40.9198C57.4793 41.2048 58.3343 40.3048 59.5943 39.2548C64.9793 34.7548 60.6293 30.2548 54.5543 30.5698C56.8193 24.3598 62.0543 19.3048 68.9993 19.1398C69.0629 19.1398 69.124 19.1145 69.169 19.0695C69.214 19.0245 69.2393 18.9634 69.2393 18.8998C69.2393 18.8361 69.214 18.7751 69.169 18.7301C69.124 18.6851 69.0629 18.6598 68.9993 18.6598C61.4993 18.5098 55.6043 23.9098 53.2793 30.6598C49.2743 31.3498 45.2993 34.3498 45.1943 40.9348C45.1884 40.9663 45.1887 40.9987 45.1953 41.0301C45.2019 41.0614 45.2147 41.0912 45.2328 41.1177C45.2509 41.1441 45.274 41.1668 45.3009 41.1843C45.3277 41.2018 45.3578 41.2139 45.3893 41.2198C45.4208 41.2257 45.4532 41.2253 45.4846 41.2187C45.5159 41.2121 45.5457 41.1994 45.5722 41.1813C45.5986 41.1632 45.6213 41.1401 45.6388 41.1132C45.6563 41.0863 45.6684 41.0563 45.6743 41.0248ZM54.2093 31.6348C56.4443 31.4848 59.7743 32.1748 60.6893 34.1998C61.2143 35.3548 60.6893 36.7798 58.8293 38.3398C58.3243 38.8457 57.7483 39.2752 57.1193 39.6148C54.8693 40.5748 52.3793 37.7998 54.2093 31.6348ZM58.4993 243.78C57.0501 243.392 55.5379 243.297 54.0517 243.502C52.5654 243.707 51.1352 244.207 49.8452 244.973C48.5551 245.739 47.4313 246.755 46.5398 247.962C45.6484 249.169 45.0073 250.542 44.6543 252C43.9879 255.029 44.5523 258.199 46.2233 260.813C47.8942 263.426 50.5349 265.268 53.5643 265.935C56.5937 266.601 59.7638 266.037 62.3771 264.366C64.9904 262.695 66.8329 260.054 67.4993 257.025C67.7839 255.564 67.7766 254.061 67.4776 252.602C67.1786 251.144 66.594 249.759 65.7573 248.528C64.9207 247.297 63.8486 246.243 62.6029 245.429C61.3572 244.614 59.9626 244.053 58.4993 243.78ZM63.1343 256.005C62.5324 258.405 61.0916 260.511 59.0723 261.942C57.053 263.372 54.5884 264.033 52.1243 263.805C49.8623 262.921 47.9844 261.268 46.8211 259.136C45.6578 257.004 45.2836 254.53 45.7643 252.15C46.3256 249.691 47.753 247.517 49.7857 246.024C51.8183 244.531 54.3203 243.82 56.8343 244.02C59.1186 244.964 60.9968 246.683 62.1383 248.875C63.2797 251.067 63.6111 253.592 63.0743 256.005H63.1343Z" fill="white"/>
<path d="M78.4812 248.055C77.1754 247.604 75.7759 247.496 74.4162 247.74C73.8527 246.447 73.1591 245.216 72.3462 244.065C73.3212 243.18 75.9912 240.72 75.3462 239.565C73.0507 236.819 70.3254 234.463 67.2762 232.59C66.003 231.876 64.6009 231.423 63.1512 231.255C62.1912 231.39 59.9112 235.125 59.4012 235.965C59.0712 235.965 57.9012 235.59 57.8112 235.545C57.8112 234.465 57.4962 230.565 56.5212 230.115C55.4309 229.713 54.2987 229.436 53.1462 229.29C52.0812 229.125 42.4962 230.88 41.7912 232.17C41.3262 233.04 42.4062 236.325 42.7212 237.24C41.9122 237.685 41.1353 238.186 40.3962 238.74C38.8962 239.805 39.3012 239.76 39.0312 239.64C38.7049 239.484 38.3553 239.382 37.9962 239.34C36.798 238.637 35.3931 238.372 34.0212 238.59C32.6412 239.04 29.3862 246.45 28.8612 248.355C28.6894 248.835 28.6429 249.351 28.7262 249.855C29.0862 250.845 31.4862 251.64 32.4912 251.955C32.2137 253.885 32.2137 255.844 32.4912 257.775C31.1712 258.135 28.4262 258.945 28.5762 260.295C28.7262 261.645 32.2362 270.555 33.6912 271.26C34.4883 271.705 35.3697 271.98 36.2789 272.065C37.1882 272.15 38.1052 272.044 38.9712 271.755C39.459 271.511 39.93 271.235 40.3812 270.93C40.9812 271.38 41.6112 271.785 42.2562 272.175C41.7912 273.33 40.7562 275.91 41.0862 277.08C41.2512 277.695 41.7462 277.89 42.4362 278.145C44.3412 278.835 54.6012 281.295 56.1612 281.025C56.7462 280.935 57.0612 280.32 57.2412 279.735C57.5745 278.403 57.7705 277.041 57.8262 275.67C58.5966 275.593 59.3626 275.478 60.1212 275.325C60.5845 276.14 61.1773 276.874 61.8762 277.5C62.6412 278.04 63.2862 277.77 64.1562 277.215C64.5762 277.755 65.2062 278.505 65.8812 278.58C67.5762 278.775 74.5812 272.175 75.3012 270.825C75.9012 269.7 73.7112 267.69 72.7362 266.805C73.791 265.217 74.6189 263.491 75.1962 261.675C76.2781 261.838 77.373 261.898 78.4662 261.855C78.9612 261.855 79.5312 261.675 79.7412 261.21C80.6562 259.125 80.3862 251.22 79.7412 249.21C79.6512 248.625 78.9762 248.235 78.4812 248.055ZM78.8412 249.435C79.3512 251.385 79.5162 258.75 78.7662 260.655C77.4693 260.782 76.1607 260.722 74.8812 260.475C74.7446 260.451 74.6042 260.48 74.4876 260.555C74.371 260.63 74.2867 260.746 74.2512 260.88C73.6539 262.907 72.7264 264.823 71.5062 266.55C71.4193 266.664 71.3801 266.808 71.3969 266.95C71.4137 267.093 71.4851 267.223 71.5962 267.315C72.6486 268.149 73.5428 269.165 74.2362 270.315C73.4862 271.545 67.6212 276.915 66.0012 277.365C65.7612 277.365 65.1012 276.465 64.9362 276.225C64.3821 275.392 63.8811 274.525 63.4362 273.63C63.3713 273.499 63.2599 273.397 63.1239 273.345C62.988 273.292 62.8372 273.292 62.7012 273.345C58.3512 274.98 56.7012 274.02 56.7012 275.1C56.7032 276.717 56.4397 278.323 55.9212 279.855C52.3961 279.471 48.9247 278.696 45.5712 277.545C45.7332 275.943 46.1802 274.384 46.8912 272.94C47.3412 271.935 45.5412 272.22 42.1812 268.8C42.0731 268.699 41.9311 268.644 41.7837 268.644C41.6363 268.644 41.4944 268.699 41.3862 268.8C39.8862 270.03 37.9362 271.23 37.5462 271.035C36.7812 270.66 33.2562 262.665 33.0462 261.045C34.1131 260.301 35.3243 259.79 36.6012 259.545C36.7374 259.506 36.855 259.419 36.9322 259.301C37.0095 259.182 37.0411 259.04 37.0212 258.9C36.6536 256.775 36.6536 254.604 37.0212 252.48C37.0441 252.349 37.0167 252.214 36.9443 252.103C36.8719 251.991 36.7601 251.912 36.6312 251.88C35.5004 251.583 34.4117 251.145 33.3912 250.575C33.0612 250.335 33.0912 250.35 33.1212 250.095C34.0921 246.593 35.6491 243.281 37.7262 240.3C38.5362 240.075 40.7262 241.68 41.4762 242.25C41.5546 242.326 41.6595 242.368 41.7687 242.368C41.8779 242.368 41.9828 242.326 42.0612 242.25C42.7504 241.535 43.4925 240.873 44.2812 240.27C46.5612 238.545 47.1762 238.77 46.9812 238.17C46.2917 236.665 45.9043 235.039 45.8412 233.385C46.0737 233.191 46.3375 233.039 46.6212 232.935C48.0216 232.381 49.4604 231.93 50.9262 231.585C52.703 231.089 54.5291 230.793 56.3712 230.7C56.6862 230.835 56.9712 232.2 57.0462 232.62C57.6012 235.62 57.2262 236.235 57.6612 236.28C61.9362 236.7 62.8062 237.885 63.1062 237.36C63.938 235.905 64.9074 234.534 66.0012 233.265C66.3162 232.95 66.3012 232.8 67.2462 233.34C70.0694 235.184 72.5979 237.445 74.7462 240.045C74.9712 240.435 73.0212 242.505 71.5962 243.72C71.1012 244.155 71.8062 244.35 73.0962 246.81C74.3862 249.27 74.0862 249.96 74.7762 249.81C76.1064 249.491 77.4753 249.365 78.8412 249.435ZM287.026 124.095C283.882 122.81 280.584 121.938 277.216 121.5C274.756 121.11 271.861 120.72 269.416 120.405C271.771 117.075 278.746 108.645 279.916 106.59C280.246 106.035 279.616 105.255 279.151 104.79C276.541 102 271.501 100.95 267.631 100.35C265.411 99.9895 256.141 98.8495 254.566 99.5995C252.676 100.5 238.696 121.5 238.276 124.695C238.276 125.235 238.456 125.445 238.981 125.64C241.186 126.45 251.131 127.71 253.351 128.235C250.351 133.485 237.016 151.23 235.711 153.735C235.396 154.365 235.591 154.74 235.966 154.86C237.316 155.395 238.705 155.827 240.121 156.15C240.661 156.315 241.846 155.58 243.571 154.53C251.311 149.88 284.521 127.95 287.071 125.115C287.142 125.048 287.197 124.967 287.233 124.877C287.27 124.788 287.286 124.691 287.282 124.594C287.278 124.497 287.253 124.403 287.208 124.317C287.164 124.23 287.102 124.155 287.026 124.095ZM254.791 142.095C242.041 150.51 237.736 152.97 237.586 153.075C239.641 149.94 252.406 132.45 254.596 128.265C254.634 128.184 254.654 128.095 254.654 128.006C254.653 127.917 254.633 127.828 254.594 127.748C254.555 127.667 254.499 127.597 254.429 127.541C254.359 127.485 254.278 127.445 254.191 127.425C252.691 126.885 241.771 125.715 239.191 124.8C239.521 122.01 253.141 100.92 254.791 100.08C256.441 99.2395 272.446 101.145 275.446 103.29C273.871 106.365 265.171 117.135 263.761 119.64C263.476 120.15 263.386 120.645 263.941 120.78C264.496 120.915 278.596 122.565 281.671 123.57C277.921 126.705 258.991 139.275 254.791 142.035V142.095ZM158.566 50.3845C158.566 50.5195 158.656 50.6845 158.881 51.5545C158.94 51.7433 159.07 51.9018 159.243 51.9969C159.417 52.092 159.62 52.1162 159.811 52.0645C160.002 52.0088 160.163 51.8796 160.259 51.7052C160.354 51.5307 160.377 51.3255 160.321 51.1345C160.171 50.5495 160.036 50.0545 159.946 49.8145C159.859 49.6498 159.713 49.5236 159.538 49.4604C159.362 49.3972 159.17 49.4016 158.997 49.4728C158.825 49.544 158.685 49.6768 158.606 49.8454C158.526 50.014 158.512 50.2062 158.566 50.3845Z" fill="white"/>
</svg>
