<svg width="166" height="76" viewBox="0 0 166 76" fill="none" xmlns="http://www.w3.org/2000/svg">
<path fill-rule="evenodd" clip-rule="evenodd" d="M73.7129 4.28125L66.4443 11.5032L70.6327 15.8633L77.7443 9.08072C75.4654 8.95897 73.8851 6.47467 73.7129 4.28125Z" fill="#0076BE"/>
<path fill-rule="evenodd" clip-rule="evenodd" d="M76.1973 21.5853L83.1394 28.5279C83.3568 25.9151 84.9497 25.3979 86.8876 24.3245L80.2978 17.4844L76.1973 21.5853Z" fill="#009035"/>
<path fill-rule="evenodd" clip-rule="evenodd" d="M70.8193 16.8815C73.16 17.1774 74.5239 18.7409 75.1404 20.7471L81.7695 13.8989L77.6535 10.0469L70.8193 16.8815Z" fill="#009035"/>
<path fill-rule="evenodd" clip-rule="evenodd" d="M79.252 9.61653L85.7386 16.5591L89.8415 12.2402L82.8969 5.51562C82.6908 7.99219 81.4189 9.11153 79.252 9.61653Z" fill="#009035"/>
<path fill-rule="evenodd" clip-rule="evenodd" d="M70.8691 26.9689L78.0208 33.4234L82.2096 29.1324L75.1196 22.6016C74.9135 25.0781 73.0361 26.4639 70.8691 26.9689Z" fill="#0076BE"/>
<path fill-rule="evenodd" clip-rule="evenodd" d="M95.0905 7.05606L87.9389 0.601562L83.75 4.89259L90.84 11.4234C91.0461 8.94684 92.9235 7.56103 95.0905 7.05606Z" fill="#0076BE"/>
<path fill-rule="evenodd" clip-rule="evenodd" d="M92.6083 29.4661L99.0624 22.3141L94.7716 18.125L88.2412 25.2154C90.7176 25.4215 92.1034 27.2991 92.6083 29.4661Z" fill="#0076BE"/>
<path fill-rule="evenodd" clip-rule="evenodd" d="M84.0908 19.7651L88.1992 23.8729L94.9232 16.928C92.4468 16.7219 91.3275 15.4499 90.7201 13.1797L84.0908 19.7651Z" fill="#009035"/>
<path fill-rule="evenodd" clip-rule="evenodd" d="M70.3887 17.4688C70.9165 17.4687 71.439 17.5783 71.9266 17.7912C72.4142 18.004 72.8572 18.316 73.2303 18.7093C73.6035 19.1027 73.8995 19.5696 74.1015 20.0835C74.3034 20.5974 74.4074 21.1482 74.4074 21.7044C74.4074 22.5422 74.1717 23.3611 73.7301 24.0576C73.2885 24.7542 72.6609 25.2971 71.9266 25.6177C71.1923 25.9383 70.3843 26.0222 69.6048 25.8587C68.8252 25.6953 68.1092 25.2919 67.5472 24.6995C66.9851 24.1071 66.6024 23.3524 66.4473 22.5308C66.2923 21.7091 66.3719 20.8575 66.676 20.0835C66.9802 19.3096 67.4952 18.648 68.1561 18.1826C68.817 17.7172 69.5939 17.4688 70.3887 17.4688Z" fill="#009035"/>
<path fill-rule="evenodd" clip-rule="evenodd" d="M87.5196 25.5312C88.5854 25.5312 89.6076 25.9775 90.3612 26.7719C91.1148 27.5662 91.5382 28.6436 91.5382 29.7669C91.5382 30.6047 91.3025 31.4236 90.861 32.1201C90.4194 32.8167 89.7918 33.3596 89.0575 33.6802C88.3232 34.0008 87.5152 34.0847 86.7356 33.9212C85.9561 33.7578 85.24 33.3544 84.678 32.762C84.116 32.1696 83.7333 31.4149 83.5782 30.5933C83.4231 29.7716 83.5027 28.92 83.8069 28.146C84.111 27.372 84.6261 26.7105 85.287 26.2451C85.9478 25.7797 86.7248 25.5313 87.5196 25.5312Z" fill="#009035"/>
<path fill-rule="evenodd" clip-rule="evenodd" d="M95.6124 7.96875C96.1401 7.96875 96.6627 8.0783 97.1502 8.29117C97.6378 8.50403 98.0808 8.81603 98.454 9.20935C98.8271 9.60266 99.1231 10.0696 99.3251 10.5835C99.5271 11.0974 99.631 11.6482 99.631 12.2044C99.631 13.0422 99.3953 13.8611 98.9538 14.5576C98.5122 15.2542 97.8846 15.7971 97.1503 16.1177C96.4159 16.4383 95.6079 16.5221 94.8284 16.3587C94.0489 16.1953 93.3328 15.7919 92.7708 15.1995C92.2088 14.6071 91.826 13.8524 91.671 13.0308C91.5159 12.2091 91.5955 11.3575 91.8996 10.5835C92.2038 9.80956 92.7189 9.14804 93.3797 8.68261C94.0406 8.21718 94.8175 7.96876 95.6124 7.96875Z" fill="#009035"/>
<path fill-rule="evenodd" clip-rule="evenodd" d="M78.6055 0C79.1333 0 79.6558 0.109562 80.1434 0.322424C80.631 0.535287 81.074 0.847286 81.4471 1.2406C81.8203 1.63392 82.1163 2.10086 82.3183 2.61476C82.5202 3.12865 82.6242 3.67944 82.6242 4.23568C82.6242 5.07342 82.3885 5.89234 81.9469 6.58889C81.5053 7.28544 80.8777 7.82835 80.1434 8.14893C79.4091 8.46952 78.6011 8.5534 77.8216 8.38997C77.042 8.22653 76.326 7.82312 75.7639 7.23075C75.2019 6.63838 74.8192 5.88366 74.6641 5.06202C74.5091 4.24038 74.5887 3.38872 74.8928 2.61476C75.197 1.84079 75.7121 1.17926 76.3729 0.713842C77.0338 0.24842 77.8107 0 78.6055 0Z" fill="#009035"/>
<path fill-rule="evenodd" clip-rule="evenodd" d="M78.6101 1.89844C79.151 1.89844 79.6698 2.12494 80.0524 2.52813C80.4349 2.93131 80.6498 3.47815 80.6498 4.04834C80.6498 4.47355 80.5302 4.88921 80.306 5.24276C80.0819 5.59631 79.7634 5.87187 79.3906 6.03459C79.0179 6.19731 78.6078 6.23989 78.2121 6.15694C77.8164 6.07398 77.453 5.86922 77.1677 5.56855C76.8825 5.26788 76.6882 4.88481 76.6095 4.46777C76.5308 4.05073 76.5712 3.61845 76.7256 3.22561C76.88 2.83277 77.1414 2.497 77.4768 2.26076C77.8123 2.02453 78.2066 1.89844 78.6101 1.89844Z" fill="white"/>
<path fill-rule="evenodd" clip-rule="evenodd" d="M70.3854 19.6094C70.9264 19.6094 71.4452 19.8359 71.8278 20.2391C72.2103 20.6423 72.4252 21.1891 72.4252 21.7593C72.4252 22.1845 72.3056 22.6001 72.0814 22.9537C71.8573 23.3072 71.5387 23.5828 71.166 23.7455C70.7933 23.9083 70.3832 23.9508 69.9875 23.8679C69.5918 23.7849 69.2284 23.5802 68.9431 23.2795C68.6579 22.9788 68.4636 22.5957 68.3849 22.1787C68.3062 21.7617 68.3466 21.3294 68.501 20.9365C68.6554 20.5437 68.9168 20.2079 69.2522 19.9717C69.5877 19.7355 69.982 19.6094 70.3854 19.6094Z" fill="white"/>
<path fill-rule="evenodd" clip-rule="evenodd" d="M95.6091 10.0625C95.8769 10.0625 96.1422 10.1181 96.3897 10.2262C96.6371 10.3342 96.862 10.4926 97.0514 10.6922C97.2408 10.8918 97.3911 11.1289 97.4936 11.3897C97.5961 11.6505 97.6488 11.9301 97.6488 12.2124C97.6488 12.6376 97.5292 13.0533 97.3051 13.4069C97.0809 13.7604 96.7624 14.036 96.3896 14.1987C96.0169 14.3614 95.6068 14.404 95.2111 14.321C94.8155 14.238 94.452 14.0333 94.1668 13.7326C93.8815 13.4319 93.6872 13.0489 93.6085 12.6318C93.5298 12.2148 93.5702 11.7825 93.7246 11.3897C93.879 10.9968 94.1404 10.6611 94.4759 10.4248C94.8113 10.1886 95.2057 10.0625 95.6091 10.0625Z" fill="white"/>
<path fill-rule="evenodd" clip-rule="evenodd" d="M87.5251 27.7266C88.0661 27.7266 88.5849 27.9531 88.9674 28.3563C89.3499 28.7594 89.5648 29.3063 89.5648 29.8765C89.5648 30.3017 89.4452 30.7173 89.2211 31.0709C88.997 31.4244 88.6784 31.7 88.3057 31.8627C87.933 32.0254 87.5228 32.068 87.1272 31.9851C86.7315 31.9021 86.368 31.6973 86.0828 31.3967C85.7975 31.096 85.6033 30.7129 85.5245 30.2959C85.4458 29.8789 85.4862 29.4466 85.6406 29.0537C85.795 28.6609 86.0564 28.3251 86.3919 28.0889C86.7273 27.8527 87.1217 27.7266 87.5251 27.7266Z" fill="white"/>
<path d="M9.54898 49.396V62.892C9.54898 64.572 10.025 65.132 11.229 65.132H11.649V66H4.14498V65.132H4.53698C5.74098 65.132 6.21698 64.572 6.21698 62.892V49.396C5.34898 49.368 3.97698 49.536 2.85698 50.404C2.18498 50.964 1.65298 52.056 1.65298 53.512H0.448977V47.912H1.31698C1.31698 48.108 1.37298 48.248 1.45698 48.388C1.59698 48.472 1.70898 48.528 1.84898 48.528H13.833C14.253 48.528 14.477 48.332 14.477 47.912H15.317V53.512H14.113C14.113 50.768 12.601 49.396 9.54898 49.396ZM27.1634 58.72H18.3994C18.7074 61.66 19.9954 63.004 21.1994 63.564C22.0674 64.012 22.5434 64.04 23.0754 64.04C24.4474 64.04 25.9594 63.368 27.6394 62.052V63.172C26.8834 63.816 26.2394 64.32 25.7634 64.684C25.2594 65.048 24.5874 65.44 23.7194 65.804C22.8514 66.196 22.0114 66.392 21.1994 66.392C19.6594 66.392 18.3714 65.804 17.3354 64.628C16.2994 63.48 15.7674 62.052 15.7674 60.4C15.7674 58.412 16.4394 56.704 17.8114 55.248C19.1554 53.82 20.6954 53.092 22.4034 53.092C25.0914 53.092 27.1634 55.136 27.1634 58.72ZM18.4274 57.852H24.1394C24.0554 55.08 22.9074 54.044 21.5914 54.044C20.2194 54.044 18.6794 55.248 18.4274 57.852ZM39.5956 53.96V57.628H38.3636C38.1116 55.976 37.4116 54.884 36.6276 54.492C35.8156 54.1 35.4796 54.044 35.0596 54.044C34.0236 54.044 33.1836 54.492 32.5396 55.416C31.8956 56.34 31.5596 57.46 31.5596 58.832C31.5596 60.316 31.9516 61.548 32.7356 62.528C33.4916 63.508 34.4996 64.012 35.7316 64.012C37.0476 64.012 38.0836 63.452 40.0156 62.108V63.172C37.7476 65.328 35.7596 66.392 34.0236 66.392C32.5396 66.392 31.2796 65.804 30.2716 64.6C29.2636 63.396 28.7596 61.968 28.7596 60.316C28.7596 58.356 29.4596 56.648 30.8876 55.22C32.2876 53.792 33.9676 53.092 35.8996 53.092C37.0476 53.092 38.2796 53.372 39.5956 53.96ZM41.2531 49.116L46.7691 46.848V47.66C46.4051 47.856 46.2371 48.192 46.2371 48.668V56.844C47.6371 55.36 48.7011 54.38 49.4571 53.848C50.2131 53.344 50.9971 53.092 51.8371 53.092C53.1811 53.092 54.2171 54.1 54.2171 55.78V63.144C54.2171 64.684 54.7771 65.132 55.8971 65.132H56.3171V66H50.7171V65.132C51.1931 65.048 51.3051 64.964 51.3051 64.404V57.096C51.3051 55.892 50.8291 55.304 49.9051 55.304C48.9251 55.304 48.0291 55.976 47.1891 57.348C46.3771 58.692 45.9571 60.26 45.9571 62.024C45.9571 64.096 46.6011 65.132 47.8891 65.132H48.3371V66H41.2531V65.132H41.6451C42.7651 65.132 43.3251 64.628 43.3251 63.144V51.104C43.3251 50.18 43.0171 49.732 42.3731 49.732C42.1211 49.732 41.7571 49.816 41.2531 50.012V49.116ZM76.4348 66H65.8508V65.132H66.2428C67.4748 65.132 67.9228 64.544 67.9228 62.892V51.636C67.9228 49.956 67.4468 49.396 66.2428 49.396H65.8508V48.528H73.3268V49.396H72.9068C71.7028 49.396 71.2548 49.928 71.2548 51.636V65.132H72.2628C75.7068 65.132 77.4428 63.116 77.8068 60.624H79.0108L77.8068 66.672H76.9388C76.9948 66.42 76.9668 66.224 76.8268 66.14C76.7428 66.056 76.6308 66 76.4348 66ZM90.9454 58.72H82.1814C82.4894 61.66 83.7774 63.004 84.9814 63.564C85.8494 64.012 86.3254 64.04 86.8574 64.04C88.2294 64.04 89.7414 63.368 91.4214 62.052V63.172C90.6654 63.816 90.0214 64.32 89.5454 64.684C89.0414 65.048 88.3694 65.44 87.5014 65.804C86.6334 66.196 85.7934 66.392 84.9814 66.392C83.4414 66.392 82.1534 65.804 81.1174 64.628C80.0814 63.48 79.5494 62.052 79.5494 60.4C79.5494 58.412 80.2214 56.704 81.5934 55.248C82.9374 53.82 84.4774 53.092 86.1854 53.092C88.8734 53.092 90.9454 55.136 90.9454 58.72ZM82.2094 57.852H87.9214C87.8374 55.08 86.6894 54.044 85.3734 54.044C84.0014 54.044 82.4614 55.248 82.2094 57.852ZM102.65 56.984V63.004C102.65 63.648 102.874 63.984 103.322 63.984C103.714 63.984 104.33 63.62 105.198 62.92V63.984C103.546 65.58 102.258 66.392 101.306 66.392C100.41 66.392 99.9896 65.972 99.8496 65.132C99.7376 64.488 99.7376 64.04 99.7376 63.032L98.1976 64.572C98.0016 64.768 97.7496 64.992 97.4416 65.244C96.5736 65.972 95.8736 66.392 94.9496 66.392C94.1936 66.392 93.6336 66.112 93.2416 65.524C92.8496 64.964 92.6536 64.376 92.6536 63.788C92.6536 61.884 95.0056 59.784 99.7376 57.516V55.92C99.7376 54.828 99.2056 54.156 98.4216 54.156C96.7416 54.156 95.3976 55.92 95.0616 58.496H93.8576V55.22C96.2376 53.792 98.2816 53.092 99.9616 53.092C101.026 53.092 101.782 53.428 102.258 54.128C102.51 54.492 102.65 55.444 102.65 56.984ZM99.9896 58.72C96.9656 59.588 95.4536 60.792 95.4536 62.276C95.4536 63.2 96.0416 63.788 96.9376 63.788C97.9456 63.788 98.7296 63.144 99.2896 61.884C99.7096 60.932 99.9616 59.868 99.9896 58.72ZM113.472 49.116L118.988 46.848V47.66C118.624 47.828 118.456 48.136 118.456 48.556V62.892C118.456 63.732 118.792 64.152 119.464 64.152C119.688 64.152 119.996 64.068 120.36 63.928C120.444 63.928 120.5 63.872 120.584 63.872V64.74L116.496 66.364H115.544V62.584C114.228 63.984 113.192 64.964 112.408 65.524C111.624 66.112 110.812 66.392 110 66.392C108.796 66.392 107.844 65.86 107.116 64.796C106.36 63.732 105.996 62.472 105.996 61.044C105.996 58.972 106.724 57.124 108.18 55.5C109.636 53.904 111.232 53.092 112.968 53.092C113.752 53.092 114.62 53.288 115.544 53.68V50.74C115.544 50.152 115.18 49.704 114.648 49.704C114.368 49.704 113.976 49.816 113.472 50.012V49.116ZM115.544 55.528C114.564 54.548 113.5 54.044 112.408 54.044C111.26 54.044 110.364 54.604 109.72 55.696C109.16 56.648 108.88 57.88 108.88 59.42C108.88 62.304 110.14 64.068 111.848 64.068C112.968 64.068 113.92 63.368 114.704 61.968C115.46 60.624 115.824 59.112 115.824 57.432C115.824 56.452 115.74 55.864 115.6 55.724C115.6 55.64 115.572 55.556 115.544 55.528ZM130.153 53.624V57.264H128.865C128.753 55.024 127.437 54.044 126.401 54.044C125.617 54.044 124.945 54.576 124.945 55.5C124.945 56.088 125.141 56.508 125.841 57.04C126.177 57.292 126.485 57.516 126.765 57.656C127.017 57.824 127.493 58.076 128.137 58.44C129.845 59.336 130.993 60.288 130.993 61.856C130.993 63.004 130.489 64.04 129.509 64.964C128.529 65.916 127.157 66.392 125.449 66.392C124.441 66.392 123.237 66.112 121.809 65.552V61.548H123.013C123.181 62.696 123.489 63.592 123.965 64.236C124.553 65.048 125.309 65.44 126.177 65.44C127.325 65.44 128.249 64.516 128.249 63.424C128.249 62.5 127.521 61.632 126.905 61.24C126.597 61.044 126.177 60.82 125.645 60.568C124.385 59.924 123.937 59.672 123.209 59.056C122.481 58.44 122.201 57.796 122.201 56.9C122.201 55.864 122.677 54.968 123.601 54.212C124.525 53.456 125.757 53.092 127.269 53.092C128.221 53.092 129.173 53.26 130.153 53.624ZM141.039 66V65.132H141.487C142.691 65.132 143.167 64.572 143.167 62.892V51.664C143.167 49.956 142.691 49.396 141.487 49.396H141.039V48.528H148.571V49.396H148.179C146.975 49.396 146.499 49.984 146.499 51.664V62.892C146.499 64.572 146.975 65.132 148.179 65.132H148.571V66H141.039ZM159.022 49.396V62.892C159.022 64.572 159.498 65.132 160.702 65.132H161.122V66H153.618V65.132H154.01C155.214 65.132 155.69 64.572 155.69 62.892V49.396C154.822 49.368 153.45 49.536 152.33 50.404C151.658 50.964 151.126 52.056 151.126 53.512H149.922V47.912H150.79C150.79 48.108 150.846 48.248 150.93 48.388C151.07 48.472 151.182 48.528 151.322 48.528H163.306C163.726 48.528 163.95 48.332 163.95 47.912H164.79V53.512H163.586C163.586 50.768 162.074 49.396 159.022 49.396Z" fill="white"/>
</svg>
