<svg width="20" height="18" viewBox="0 0 20 18" fill="none" xmlns="http://www.w3.org/2000/svg">
<path d="M7.98863 3.04017C8.62077 2.87311 9.29207 2.77778 10.001 2.77778C15.7282 2.77778 19.001 9 19.001 9C19.001 9 18.2549 10.4185 16.8518 11.9009M3.11518 6.1362C1.73466 7.6051 1.00098 9 1.00098 9C1.00098 9 4.2737 15.2222 10.001 15.2222C10.7228 15.2222 11.4057 15.1234 12.048 14.9506M9.55098 11.6298C8.57522 11.4681 7.77692 10.7895 7.45461 9.88889M10.451 6.3702C11.5816 6.55755 12.474 7.43889 12.6636 8.55556M1.90098 1L18.101 17" stroke="#949CA9" stroke-width="1.5" strokeLinecap="round" strokeLinejoin="round"/>
</svg>
