<svg width="22" height="23" viewBox="0 0 22 23" fill="none" xmlns="http://www.w3.org/2000/svg">
<path fill-rule="evenodd" clip-rule="evenodd" d="M20.1673 11.4948C20.1673 16.5575 16.0634 20.6615 11.0007 20.6615C5.9379 20.6615 1.83398 16.5575 1.83398 11.4948C1.83398 6.43204 5.9379 2.32812 11.0007 2.32812C16.0634 2.32812 20.1673 6.43204 20.1673 11.4948ZM14.6948 8.71729C14.8236 8.8462 14.8959 9.02094 14.8959 9.20312C14.8959 9.38531 14.8236 9.56005 14.6948 9.68896L10.1115 14.2723C9.98258 14.401 9.80784 14.4734 9.62565 14.4734C9.44346 14.4734 9.26872 14.401 9.13982 14.2723L7.30648 12.439C7.23894 12.376 7.18476 12.3001 7.14719 12.2158C7.10961 12.1315 7.0894 12.0404 7.08778 11.9481C7.08615 11.8558 7.10313 11.7641 7.13771 11.6785C7.17228 11.5929 7.22375 11.5151 7.28903 11.4498C7.35432 11.3846 7.43208 11.3331 7.51769 11.2985C7.60329 11.2639 7.69499 11.247 7.7873 11.2486C7.87961 11.2502 7.97064 11.2704 8.05498 11.308C8.13931 11.3456 8.21521 11.3997 8.27815 11.4673L9.62565 12.8148L11.6744 10.766L13.7232 8.71729C13.8521 8.58855 14.0268 8.51623 14.209 8.51623C14.3912 8.51623 14.5659 8.58855 14.6948 8.71729Z" fill="#30BF00"/>
</svg>
