<svg width="80" height="81" viewBox="0 0 80 81" fill="none" xmlns="http://www.w3.org/2000/svg">
<circle cx="40" cy="40.5" r="40" fill="#0C6688"/>
<path d="M24.8943 21.75C23.3748 21.75 21.9176 22.3536 20.8431 23.428C19.7687 24.5025 19.1651 25.9597 19.1651 27.4792V38.4167C20.8227 36.2065 23.2904 34.7454 26.0253 34.3547C28.7602 33.964 31.5383 34.6757 33.7484 36.3333C35.9586 37.9909 37.4197 40.4586 37.8104 43.1935C38.2011 45.9284 37.4894 48.7065 35.8318 50.9167V53H55.1026C56.6221 53 58.0793 52.3964 59.1537 51.322C60.2282 50.2475 60.8318 48.7903 60.8318 47.2708V27.4792C60.8318 25.9597 60.2282 24.5025 59.1537 23.428C58.0793 22.3536 56.6221 21.75 55.1026 21.75H24.8943ZM29.0609 30.0833H50.9359C51.3503 30.0833 51.7478 30.248 52.0408 30.541C52.3338 30.834 52.4984 31.2314 52.4984 31.6458C52.4984 32.0602 52.3338 32.4577 52.0408 32.7507C51.7478 33.0437 51.3503 33.2083 50.9359 33.2083H29.0609C28.6465 33.2083 28.2491 33.0437 27.9561 32.7507C27.6631 32.4577 27.4984 32.0602 27.4984 31.6458C27.4984 31.2314 27.6631 30.834 27.9561 30.541C28.2491 30.248 28.6465 30.0833 29.0609 30.0833ZM39.9984 42.0625C39.9984 41.6481 40.1631 41.2507 40.4561 40.9576C40.7491 40.6646 41.1465 40.5 41.5609 40.5H50.9359C51.3503 40.5 51.7478 40.6646 52.0408 40.9576C52.3338 41.2507 52.4984 41.6481 52.4984 42.0625C52.4984 42.4769 52.3338 42.8743 52.0408 43.1674C51.7478 43.4604 51.3503 43.625 50.9359 43.625H41.5609C41.1465 43.625 40.7491 43.4604 40.4561 43.1674C40.1631 42.8743 39.9984 42.4769 39.9984 42.0625ZM27.4984 36.3333C25.288 36.3333 23.1681 37.2114 21.6051 38.7744C20.0421 40.3374 19.1641 42.4573 19.1641 44.6677C19.1641 46.8781 20.0421 48.998 21.6051 50.561C23.1681 52.124 25.288 53.0021 27.4984 53.0021C29.7088 53.0021 31.8287 52.124 33.3917 50.561C34.9547 48.998 35.8328 46.8781 35.8328 44.6677C35.8328 42.4573 34.9547 40.3374 33.3917 38.7744C31.8287 37.2114 29.7088 36.3333 27.4984 36.3333ZM33.7484 53.0021C32.0089 54.3104 29.8443 55.0854 27.4984 55.0854C25.2446 55.0896 23.0506 54.3598 21.2484 53.0062V59.7687C21.2484 60.9562 22.5089 61.6854 23.5193 61.1625L23.7068 61.0479L27.4984 58.4L31.2901 61.05C31.5091 61.2029 31.7636 61.2971 32.0293 61.3237C32.2951 61.3502 32.5632 61.3082 32.8081 61.2016C33.053 61.0951 33.2665 60.9275 33.4282 60.715C33.5899 60.5024 33.6944 60.2519 33.7318 59.9875L33.7484 59.7687V53.0021Z" fill="white"/>
</svg>
