<svg width="80" height="80" viewBox="0 0 80 80" fill="none" xmlns="http://www.w3.org/2000/svg">
<circle cx="40" cy="40" r="40" fill="#0C6688"/>
<path fill-rule="evenodd" clip-rule="evenodd" d="M22.218 22.2165C19.168 25.2707 19.168 30.179 19.168 39.9998C19.168 49.8207 19.168 54.7311 22.218 57.7811C25.2721 60.8332 30.1805 60.8332 40.0013 60.8332C49.8221 60.8332 54.7326 60.8332 57.7826 57.7811C60.8346 54.7332 60.8346 49.8207 60.8346 39.9998C60.8346 30.179 60.8346 25.2686 57.7826 22.2165C54.7346 19.1665 49.8221 19.1665 40.0013 19.1665C30.1805 19.1665 25.2701 19.1665 22.218 22.2165ZM51.618 36.8332C51.8715 36.5136 51.99 36.1076 51.9482 35.7019C51.9064 35.2961 51.7076 34.9228 51.3942 34.6616C51.0809 34.4005 50.6778 34.2723 50.2712 34.3043C49.8645 34.3364 49.4865 34.5262 49.218 34.8332L45.4742 39.3248C44.7034 40.2519 44.2263 40.8165 43.8367 41.1686C43.7348 41.2674 43.6207 41.3528 43.4971 41.4228L43.4742 41.4332L43.4576 41.4248L43.4513 41.4228C43.327 41.353 43.2122 41.2676 43.1096 41.1686C42.7201 40.8144 42.2451 40.2519 41.4721 39.3248L40.8638 38.5957C40.1805 37.7728 39.5617 37.0332 38.9867 36.5123C38.3596 35.9457 37.5701 35.4415 36.5284 35.4415C35.4867 35.4415 34.6992 35.9457 34.0701 36.5123C33.4951 37.0332 32.8784 37.7728 32.1951 38.5957L28.3826 43.1665C28.2512 43.3242 28.1523 43.5063 28.0913 43.7022C28.0303 43.8982 28.0086 44.1043 28.0272 44.3087C28.0649 44.7214 28.2651 45.1023 28.5836 45.3675C28.9021 45.6328 29.313 45.7606 29.7258 45.7229C30.1385 45.6852 30.5194 45.485 30.7846 45.1665L34.5284 40.6748C35.2992 39.7478 35.7763 39.1832 36.1659 38.8311C36.2678 38.7322 36.3819 38.6468 36.5055 38.5769L36.5201 38.5707L36.5284 38.5665L36.5513 38.5769C36.6756 38.6467 36.7904 38.7321 36.893 38.8311C37.2826 39.1853 37.7576 39.7478 38.5305 40.6748L39.1388 41.404C39.8242 42.2269 40.4409 42.9665 41.0159 43.4873C41.643 44.054 42.4326 44.5582 43.4742 44.5582C44.5159 44.5582 45.3034 44.054 45.9326 43.4873C46.5076 42.9665 47.1242 42.2269 47.8076 41.404L51.618 36.8332Z" fill="white"/>
</svg>
