<svg width="80" height="80" viewBox="0 0 80 80" fill="none" xmlns="http://www.w3.org/2000/svg">
<circle cx="40" cy="40" r="40" fill="#0C6688"/>
<path d="M51.6182 24.2332L47.4516 22.0457C43.7932 20.1269 41.9641 19.1665 39.9974 19.1665C38.0307 19.1665 36.2016 20.1248 32.5432 22.0457L31.8745 22.3978L50.4641 33.0207L58.8307 28.8332C57.4849 27.3082 55.3141 26.1686 51.6182 24.229M60.3057 31.5915L51.9766 35.7582V42.0832C51.9766 42.4976 51.8119 42.895 51.5189 43.188C51.2259 43.4811 50.8285 43.6457 50.4141 43.6457C49.9997 43.6457 49.6022 43.4811 49.3092 43.188C49.0162 42.895 48.8516 42.4976 48.8516 42.0832V37.3207L41.5599 40.9665V60.6332C43.0557 60.2603 44.7578 59.3686 47.4516 57.954L51.6182 55.7665C56.0995 53.4144 58.3411 52.2394 59.587 50.1248C60.8307 48.0123 60.8307 45.3811 60.8307 40.1248V39.8811C60.8307 35.9373 60.8307 33.4707 60.3057 31.5915ZM38.4349 60.6332V40.9665L19.6891 31.5915C19.1641 33.4707 19.1641 35.9373 19.1641 39.8769V40.1207C19.1641 45.3811 19.1641 48.0123 20.4078 50.1248C21.6536 52.2394 23.8953 53.4165 28.3766 55.7686L32.5432 57.954C35.237 59.3686 36.9391 60.2603 38.4349 60.6332ZM21.1641 28.8353L39.9974 38.2519L47.1036 34.6998L28.5911 24.1207L28.3766 24.2332C24.6828 26.1707 22.5099 27.3103 21.1641 28.8373" fill="white"/>
</svg>
