<svg width="33" height="32" viewBox="0 0 33 32" fill="none" xmlns="http://www.w3.org/2000/svg">
<path d="M22.4987 22.9998L26.312 25.2532L25.312 26.8798L20.4987 23.9998V17.3332H22.4987V22.9998ZM31.1654 22.6665C31.1654 27.8265 26.992 31.9998 21.832 31.9998C19.2854 31.9998 16.992 30.9865 15.312 29.3332H8.4987C7.0187 29.3332 5.83203 28.1465 5.83203 26.6665V5.33317C5.83203 4.62593 6.11298 3.94765 6.61308 3.44755C7.11318 2.94746 7.79145 2.6665 8.4987 2.6665H9.83203V11.9998L13.1654 9.99984L16.4987 11.9998V2.6665H24.4987C25.2059 2.6665 25.8842 2.94746 26.3843 3.44755C26.8844 3.94765 27.1654 4.62593 27.1654 5.33317V15.0132C29.5787 16.7065 31.1654 19.4932 31.1654 22.6665ZM28.4987 22.6665C28.4987 18.9865 25.512 15.9998 21.832 15.9998C18.152 15.9998 15.1654 18.9865 15.1654 22.6665C15.1654 26.3465 18.152 29.3332 21.832 29.3332C25.512 29.3332 28.4987 26.3465 28.4987 22.6665Z" fill="white"/>
</svg>
