<svg width="44" height="44" viewBox="0 0 44 44" fill="none" xmlns="http://www.w3.org/2000/svg">
<g clip-path="url(#clip0_4362_16536)">
<path fill-rule="evenodd" clip-rule="evenodd" d="M23.9681 0.866357C23.7119 0.60359 23.4057 0.39476 23.0676 0.252175C22.7294 0.10959 22.3661 0.0361328 21.9991 0.0361328C21.6321 0.0361328 21.2689 0.10959 20.9307 0.252175C20.5925 0.39476 20.2863 0.60359 20.0301 0.866357L18.2756 2.66761C17.9303 3.02242 17.4956 3.27741 17.0174 3.40568C16.5391 3.53395 16.0352 3.53073 15.5586 3.39636L13.1386 2.71436C12.7854 2.61496 12.4158 2.58725 12.0517 2.63288C11.6876 2.67851 11.3364 2.79655 11.0186 2.98004C10.7008 3.16353 10.4229 3.40877 10.2014 3.7013C9.97987 3.99383 9.81912 4.32774 9.72863 4.68336L9.10713 7.11986C8.98528 7.5995 8.73626 8.03738 8.38633 8.38731C8.0364 8.73724 7.59852 8.98626 7.11888 9.10811L4.68238 9.72686C4.32676 9.81735 3.99285 9.9781 3.70032 10.1996C3.40779 10.4212 3.16256 10.699 2.97906 11.0168C2.79557 11.3346 2.67753 11.6859 2.63191 12.05C2.58628 12.4141 2.61398 12.7836 2.71338 13.1369L3.39538 15.5596C3.52975 16.0361 3.53297 16.5401 3.4047 17.0183C3.27644 17.4966 3.02144 17.9313 2.66663 18.2766L0.86538 20.0311C0.602613 20.2873 0.393784 20.5935 0.251199 20.9317C0.108613 21.2698 0.0351562 21.6331 0.0351562 22.0001C0.0351562 22.3671 0.108613 22.7304 0.251199 23.0685C0.393784 23.4067 0.602613 23.7129 0.86538 23.9691L2.66663 25.7264C3.02096 26.0714 3.27566 26.5057 3.40392 26.9834C3.53217 27.461 3.52922 27.9645 3.39538 28.4406L2.71338 30.8606C2.61398 31.2138 2.58628 31.5834 2.63191 31.9475C2.67753 32.3116 2.79557 32.6629 2.97906 32.9807C3.16256 33.2984 3.40779 33.5763 3.70032 33.7978C3.99285 34.0194 4.32676 34.1801 4.68238 34.2706L7.11888 34.8921C7.59852 35.014 8.0364 35.263 8.38633 35.6129C8.73626 35.9628 8.98528 36.4007 9.10713 36.8804L9.72588 39.3169C9.81607 39.6727 9.97661 40.0069 10.198 40.2998C10.4194 40.5926 10.6972 40.8381 11.015 41.0219C11.3328 41.2057 11.6842 41.3239 12.0485 41.3697C12.4127 41.4156 12.7825 41.388 13.1359 41.2886L15.5586 40.6066C16.0349 40.4719 16.5388 40.4682 17.017 40.596C17.4952 40.7238 17.93 40.9783 18.2756 41.3326L20.0301 43.1339C20.2863 43.3966 20.5925 43.6054 20.9307 43.748C21.2689 43.8906 21.6321 43.9641 21.9991 43.9641C22.3661 43.9641 22.7294 43.8906 23.0676 43.748C23.4057 43.6054 23.7119 43.3966 23.9681 43.1339L25.7254 41.3326C26.0707 40.9788 26.5051 40.7246 26.9828 40.5968C27.4604 40.469 27.9637 40.4724 28.4396 40.6066L30.8596 41.2886C31.213 41.388 31.5828 41.4156 31.947 41.3697C32.3113 41.3239 32.6627 41.2057 32.9805 41.0219C33.2983 40.8381 33.5761 40.5926 33.7975 40.2998C34.0189 40.0069 34.1794 39.6727 34.2696 39.3169L34.8911 36.8804C35.013 36.4007 35.262 35.9628 35.6119 35.6129C35.9619 35.263 36.3997 35.014 36.8794 34.8921L39.3159 34.2734C39.6717 34.1832 40.0059 34.0226 40.2988 33.8012C40.5916 33.5798 40.8372 33.302 41.0209 32.9842C41.2047 32.6664 41.323 32.315 41.3688 31.9508C41.4146 31.5865 41.387 31.2168 41.2876 30.8634L40.6056 28.4434C40.4709 27.9671 40.4673 27.4632 40.595 26.985C40.7228 26.5068 40.9773 26.072 41.3316 25.7264L43.1329 23.9691C43.3956 23.7129 43.6045 23.4067 43.7471 23.0685C43.8896 22.7304 43.9631 22.3671 43.9631 22.0001C43.9631 21.6331 43.8896 21.2698 43.7471 20.9317C43.6045 20.5935 43.3956 20.2873 43.1329 20.0311L41.3316 18.2766C40.9773 17.931 40.7228 17.4961 40.595 17.0179C40.4673 16.5397 40.4709 16.0359 40.6056 15.5596L41.2876 13.1396C41.387 12.7862 41.4146 12.4165 41.3688 12.0522C41.323 11.688 41.2047 11.3366 41.0209 11.0188C40.8372 10.7009 40.5916 10.4231 40.2988 10.2017C40.0059 9.98033 39.6717 9.8198 39.3159 9.72961L36.8794 9.10811C36.3997 8.98626 35.9619 8.73724 35.6119 8.38731C35.262 8.03738 35.013 7.5995 34.8911 7.11986L34.2724 4.68336C34.1819 4.32774 34.0211 3.99383 33.7996 3.7013C33.5781 3.40877 33.3002 3.16353 32.9824 2.98004C32.6647 2.79655 32.3134 2.67851 31.9493 2.63288C31.5852 2.58725 31.2156 2.61496 30.8624 2.71436L28.4424 3.39636C27.9654 3.53126 27.4609 3.53475 26.9822 3.40647C26.5034 3.27819 26.0682 3.0229 25.7226 2.66761L23.9681 0.866357ZM32.3749 17.2976C32.7687 16.9176 32.9955 16.3967 33.0053 15.8496C33.0151 15.3024 32.8071 14.7737 32.4271 14.3799C32.0471 13.986 31.5263 13.7592 30.9791 13.7494C30.4319 13.7396 29.9032 13.9476 29.5094 14.3276L18.1409 25.3056L14.5191 21.6894C14.1315 21.3028 13.6062 21.0861 13.0587 21.0868C12.5113 21.0876 11.9866 21.3058 11.6 21.6935C11.2135 22.0811 10.9967 22.6065 10.9975 23.1539C10.9983 23.7013 11.2165 24.2261 11.6041 24.6126L16.6614 29.6561C17.0433 30.0377 17.5596 30.2543 18.0995 30.2595C18.6394 30.2646 19.1598 30.0579 19.5489 29.6836L32.3749 17.2976Z" fill="#00A7FF"/>
</g>
<defs>
<clipPath id="clip0_4362_16536">
<rect width="44" height="44" fill="white"/>
</clipPath>
</defs>
</svg>
