<svg width="15" height="15" viewBox="0 0 15 15" fill="none" xmlns="http://www.w3.org/2000/svg">
<path d="M1.25 11.875C1.25 12.9375 2.0625 13.75 3.125 13.75H11.875C12.9375 13.75 13.75 12.9375 13.75 11.875V6.875H1.25V11.875ZM11.875 2.5H10.625V1.875C10.625 1.5 10.375 1.25 10 1.25C9.625 1.25 9.375 1.5 9.375 1.875V2.5H5.625V1.875C5.625 1.5 5.375 1.25 5 1.25C4.625 1.25 4.375 1.5 4.375 1.875V2.5H3.125C2.0625 2.5 1.25 3.3125 1.25 4.375V5.625H13.75V4.375C13.75 3.3125 12.9375 2.5 11.875 2.5Z" fill="white"/>
</svg>
