<svg width="32" height="32" viewBox="0 0 32 32" fill="none" xmlns="http://www.w3.org/2000/svg">
<path fill-rule="evenodd" clip-rule="evenodd" d="M16.4538 1.66424C16.3103 1.60196 16.1555 1.56982 15.999 1.56982C15.8425 1.56982 15.6877 1.60196 15.5441 1.66424L0.686986 8.1031C0.482853 8.19189 0.309096 8.33837 0.187054 8.52455C0.0650128 8.71072 0 8.92849 0 9.1511C0 9.37371 0.0650128 9.59147 0.187054 9.77765C0.309096 9.96382 0.482853 10.1103 0.686986 10.1991L2.72813 11.0837V23.8631C2.13369 24.126 1.64766 24.5852 1.35148 25.1637C1.05531 25.7423 0.966989 26.4051 1.10133 27.041C1.23566 27.677 1.58449 28.2474 2.08935 28.6568C2.59422 29.0661 3.22444 29.2895 3.87441 29.2895C4.52439 29.2895 5.15461 29.0661 5.65947 28.6568C6.16434 28.2474 6.51317 27.677 6.6475 27.041C6.78184 26.4051 6.69352 25.7423 6.39735 25.1637C6.10117 24.5852 5.61514 24.126 5.0207 23.8631V12.0757L15.5418 16.6357C15.6854 16.698 15.8402 16.7301 15.9967 16.7301C16.1532 16.7301 16.308 16.698 16.4516 16.6357L31.3087 10.1991C31.5128 10.1103 31.6866 9.96382 31.8086 9.77765C31.9307 9.59147 31.9957 9.37371 31.9957 9.1511C31.9957 8.92849 31.9307 8.71072 31.8086 8.52455C31.6866 8.33837 31.5128 8.19189 31.3087 8.1031L16.4538 1.66424ZM6.75556 21.3785L6.74413 15.9385L14.4081 19.2574C14.9099 19.4747 15.451 19.5869 15.9978 19.5869C16.5447 19.5869 17.0857 19.4747 17.5876 19.2574L25.2538 15.9362V21.3762C25.2547 21.6261 25.1736 21.8694 25.023 22.0688L24.111 21.3762L25.0207 22.0688V22.0734L25.0138 22.078L25.0024 22.094L24.9681 22.1374L24.8516 22.2745C24.7164 22.4263 24.5745 22.5719 24.4264 22.7111C23.92 23.1886 23.3654 23.6122 22.7716 23.9751C21.2858 24.8848 19.0527 25.7671 15.999 25.7671C12.9453 25.7671 10.7121 24.8848 9.23327 23.9728C8.63856 23.612 8.08383 23.189 7.57841 22.7111C7.3877 22.5296 7.20759 22.3373 7.03899 22.1351L7.0047 22.0894L6.99327 22.0757L6.9887 22.0711C6.98641 22.0688 6.98641 22.0665 7.89842 21.3762L6.98413 22.0665C6.83576 21.8687 6.75556 21.6258 6.75556 21.3785Z" fill="white"/>
</svg>
