<svg width="71" height="56" viewBox="0 0 71 56" fill="none" xmlns="http://www.w3.org/2000/svg">
<g clip-path="url(#clip0_4926_11701)">
<path d="M35.5017 3.5C34.6157 3.5 33.7407 3.65312 32.9095 3.94844L2.22981 15.0281C1.19075 15.4109 0.501684 16.3953 0.501684 17.5C0.501684 18.6047 1.19075 19.5891 2.22981 19.9719L8.56262 22.2578C6.76887 25.0797 5.75168 28.4156 5.75168 31.9266V35C5.75168 38.1063 4.57043 41.3109 3.31262 43.8375C2.60168 45.2594 1.79231 46.6594 0.851684 47.95C0.501684 48.4203 0.403246 49.0328 0.600121 49.5906C0.796996 50.1484 1.25637 50.5641 1.82512 50.7062L8.82512 52.4562C9.28449 52.5766 9.77668 52.4891 10.1814 52.2375C10.5861 51.9859 10.8704 51.5703 10.9579 51.1C11.8986 46.4188 11.4282 42.2188 10.7282 39.2109C10.3782 37.6578 9.90793 36.0719 9.25168 34.6172V31.9266C9.25168 28.6234 10.3673 25.5062 12.3032 23.0125C13.7142 21.3172 15.5407 19.95 17.6845 19.1078L34.8564 12.3594C35.7532 12.0094 36.7704 12.4469 37.1204 13.3438C37.4704 14.2406 37.0329 15.2578 36.1361 15.6078L18.9642 22.3562C17.6079 22.8922 16.4157 23.7125 15.4423 24.7188L32.8986 31.0188C33.7298 31.3141 34.6048 31.4672 35.4907 31.4672C36.3767 31.4672 37.2517 31.3141 38.0829 31.0188L68.7736 19.9719C69.8126 19.6 70.5017 18.6047 70.5017 17.5C70.5017 16.3953 69.8126 15.4109 68.7736 15.0281L38.0939 3.94844C37.2626 3.65312 36.3876 3.5 35.5017 3.5ZM14.5017 44.625C14.5017 48.4859 23.9079 52.5 35.5017 52.5C47.0954 52.5 56.5017 48.4859 56.5017 44.625L54.8282 28.7219L39.2751 34.3438C38.0611 34.7812 36.7814 35 35.5017 35C34.222 35 32.9314 34.7812 31.7282 34.3438L16.1751 28.7219L14.5017 44.625Z" fill="white"/>
</g>
<defs>
<clipPath id="clip0_4926_11701">
<rect width="70" height="56" fill="white" transform="translate(0.5)"/>
</clipPath>
</defs>
</svg>
