<svg width="57" height="56" viewBox="0 0 57 56" fill="none" xmlns="http://www.w3.org/2000/svg">
<path d="M37.8333 32.667C40.9275 32.667 43.895 33.8962 46.0829 36.0841C48.2708 38.272 49.5 41.2395 49.5 44.3337V46.667C49.5 47.9047 49.0083 49.0917 48.1332 49.9668C47.258 50.842 46.071 51.3337 44.8333 51.3337H12.1667C10.929 51.3337 9.742 50.842 8.86683 49.9668C7.99167 49.0917 7.5 47.9047 7.5 46.667V44.3337C7.5 41.2395 8.72916 38.272 10.9171 36.0841C13.105 33.8962 16.0725 32.667 19.1667 32.667H37.8333ZM50.466 21.1893C50.8849 20.7664 51.4497 20.5196 52.0446 20.4994C52.6396 20.4792 53.2197 20.6872 53.6664 21.0807C54.113 21.4743 54.3923 22.0237 54.4471 22.6164C54.502 23.2092 54.3282 23.8005 53.9613 24.2693L53.7653 24.491L47.1667 31.0897C46.7649 31.4914 46.2303 31.7327 45.6633 31.7684C45.0962 31.8041 44.5356 31.6316 44.0867 31.2833L43.8673 31.0897L40.568 27.7903C40.1451 27.3714 39.8983 26.8067 39.8781 26.2117C39.8579 25.6168 40.0659 25.0366 40.4594 24.59C40.853 24.1433 41.4024 23.864 41.9951 23.8092C42.5879 23.7543 43.1792 23.9281 43.648 24.295L43.8673 24.491L45.517 26.1407L50.466 21.1893ZM28.5 4.66699C31.5942 4.66699 34.5617 5.89616 36.7496 8.08408C38.9375 10.272 40.1667 13.2395 40.1667 16.3337C40.1667 19.4279 38.9375 22.3953 36.7496 24.5832C34.5617 26.7712 31.5942 28.0003 28.5 28.0003C25.4058 28.0003 22.4383 26.7712 20.2504 24.5832C18.0625 22.3953 16.8333 19.4279 16.8333 16.3337C16.8333 13.2395 18.0625 10.272 20.2504 8.08408C22.4383 5.89616 25.4058 4.66699 28.5 4.66699Z" fill="white"/>
</svg>
