<svg width="16" height="17" viewBox="0 0 16 17" fill="none" xmlns="http://www.w3.org/2000/svg">
<path fill-rule="evenodd" clip-rule="evenodd" d="M5.5 8.64844C5.5 7.9854 5.76339 7.34951 6.23223 6.88067C6.70107 6.41183 7.33696 6.14844 8 6.14844C8.66304 6.14844 9.29893 6.41183 9.76777 6.88067C10.2366 7.34951 10.5 7.9854 10.5 8.64844C10.5 9.31148 10.2366 9.94736 9.76777 10.4162C9.29893 10.885 8.66304 11.1484 8 11.1484C7.33696 11.1484 6.70107 10.885 6.23223 10.4162C5.76339 9.94736 5.5 9.31148 5.5 8.64844ZM8 7.14844C7.60218 7.14844 7.22064 7.30647 6.93934 7.58778C6.65804 7.86908 6.5 8.25061 6.5 8.64844C6.5 9.04626 6.65804 9.42779 6.93934 9.7091C7.22064 9.9904 7.60218 10.1484 8 10.1484C8.39782 10.1484 8.77936 9.9904 9.06066 9.7091C9.34196 9.42779 9.5 9.04626 9.5 8.64844C9.5 8.25061 9.34196 7.86908 9.06066 7.58778C8.77936 7.30647 8.39782 7.14844 8 7.14844Z" fill="#C8C8C8"/>
<path fill-rule="evenodd" clip-rule="evenodd" d="M2.882 7.74577C2.60267 8.14844 2.5 8.46377 2.5 8.64844C2.5 8.8331 2.60267 9.14844 2.882 9.5511C3.15267 9.93977 3.554 10.3618 4.062 10.7518C5.08 11.5331 6.47533 12.1484 8 12.1484C9.52467 12.1484 10.92 11.5331 11.938 10.7518C12.446 10.3618 12.8473 9.93977 13.118 9.5511C13.3973 9.14844 13.5 8.8331 13.5 8.64844C13.5 8.46377 13.3973 8.14844 13.118 7.74577C12.8473 7.3571 12.446 6.9351 11.938 6.5451C10.92 5.76377 9.52467 5.14844 8 5.14844C6.47533 5.14844 5.08 5.76377 4.062 6.5451C3.554 6.9351 3.15267 7.3571 2.882 7.74577ZM3.45267 5.75177C4.60667 4.86644 6.21067 4.14844 8 4.14844C9.78933 4.14844 11.3933 4.86644 12.5467 5.75177C13.1247 6.1951 13.602 6.68977 13.9393 7.17577C14.2673 7.64844 14.5 8.16644 14.5 8.64844C14.5 9.13044 14.2667 9.64844 13.9393 10.1211C13.602 10.6071 13.1247 11.1011 12.5473 11.5451C11.394 12.4304 9.78933 13.1484 8 13.1484C6.21067 13.1484 4.60667 12.4304 3.45333 11.5451C2.87533 11.1018 2.398 10.6071 2.06067 10.1211C1.73333 9.64844 1.5 9.13044 1.5 8.64844C1.5 8.16644 1.73333 7.64844 2.06067 7.17577C2.398 6.68977 2.87533 6.19577 3.45267 5.75177Z" fill="#C8C8C8"/>
</svg>
