<svg width="44" height="44" viewBox="0 0 44 44" fill="none" xmlns="http://www.w3.org/2000/svg">
<path opacity="0.5" d="M34.8346 11H9.16797C7.70928 11 6.31033 11.5795 5.27888 12.6109C4.24743 13.6424 3.66797 15.0413 3.66797 16.5V21.4867L16.2025 25.6667H27.8001L40.3346 21.4867V16.5C40.3346 15.0413 39.7552 13.6424 38.7237 12.6109C37.6923 11.5795 36.2933 11 34.8346 11Z" fill="white"/>
<path d="M18.3346 11V9.16667H25.668V11H29.3346V9.16667C29.3346 8.19421 28.9483 7.26157 28.2607 6.57394C27.5731 5.88631 26.6404 5.5 25.668 5.5H18.3346C17.3622 5.5 16.4295 5.88631 15.7419 6.57394C15.0543 7.26157 14.668 8.19421 14.668 9.16667V11H18.3346ZM16.2025 25.6667L3.66797 21.4867V33C3.66942 34.4582 4.24936 35.8563 5.28049 36.8875C6.31162 37.9186 7.70972 38.4985 9.16797 38.5H34.8346C36.2929 38.4985 37.691 37.9186 38.7221 36.8875C39.7533 35.8563 40.3332 34.4582 40.3346 33V21.4867L27.8001 25.6667H16.2025Z" fill="white"/>
</svg>
