<svg width="57" height="56" viewBox="0 0 57 56" fill="none" xmlns="http://www.w3.org/2000/svg">
<path d="M30.832 21.0003H43.6654L30.832 8.16699V21.0003ZM14.4987 4.66699H33.1654L47.1654 18.667V46.667C47.1654 47.9047 46.6737 49.0917 45.7985 49.9668C44.9234 50.842 43.7364 51.3337 42.4987 51.3337H14.4987C13.261 51.3337 12.074 50.842 11.1989 49.9668C10.3237 49.0917 9.83203 47.9047 9.83203 46.667V9.33366C9.83203 6.74366 11.9087 4.66699 14.4987 4.66699ZM33.1654 46.667V44.3337C33.1654 41.2303 26.9354 39.667 23.832 39.667C20.7287 39.667 14.4987 41.2303 14.4987 44.3337V46.667H33.1654ZM23.832 28.0003C22.5944 28.0003 21.4074 28.492 20.5322 29.3672C19.657 30.2423 19.1654 31.4293 19.1654 32.667C19.1654 33.9047 19.657 35.0917 20.5322 35.9668C21.4074 36.842 22.5944 37.3337 23.832 37.3337C25.0697 37.3337 26.2567 36.842 27.1319 35.9668C28.007 35.0917 28.4987 33.9047 28.4987 32.667C28.4987 31.4293 28.007 30.2423 27.1319 29.3672C26.2567 28.492 25.0697 28.0003 23.832 28.0003Z" fill="white"/>
</svg>
