<svg width="60" height="60" viewBox="0 0 60 60" fill="none" xmlns="http://www.w3.org/2000/svg">
<rect width="60" height="60" rx="8" fill="url(#paint0_linear_2845_36830)" fill-opacity="0.8"/>
<rect x="0.5" y="0.5" width="59" height="59" rx="7.5" stroke="white" stroke-opacity="0.2"/>
<path d="M27.1725 44.7165C28.0815 45.4665 29.0295 46.152 30 46.821C30.9726 46.1609 31.916 45.4587 32.8275 44.7165C34.347 43.4688 35.777 42.116 37.107 40.668C40.173 37.3155 43.5 32.4555 43.5 27C43.5 25.2272 43.1508 23.4717 42.4724 21.8338C41.7939 20.1959 40.7995 18.7076 39.5459 17.4541C38.2923 16.2005 36.8041 15.2061 35.1662 14.5276C33.5283 13.8492 31.7728 13.5 30 13.5C28.2272 13.5 26.4717 13.8492 24.8338 14.5276C23.1959 15.2061 21.7076 16.2005 20.4541 17.4541C19.2005 18.7076 18.2061 20.1959 17.5276 21.8338C16.8492 23.4717 16.5 25.2272 16.5 27C16.5 32.4555 19.827 37.314 22.893 40.668C24.2229 42.1165 25.6529 43.4683 27.1725 44.7165ZM30 31.875C28.7071 31.875 27.4671 31.3614 26.5529 30.4471C25.6386 29.5329 25.125 28.2929 25.125 27C25.125 25.7071 25.6386 24.4671 26.5529 23.5529C27.4671 22.6386 28.7071 22.125 30 22.125C31.2929 22.125 32.5329 22.6386 33.4471 23.5529C34.3614 24.4671 34.875 25.7071 34.875 27C34.875 28.2929 34.3614 29.5329 33.4471 30.4471C32.5329 31.3614 31.2929 31.875 30 31.875Z" fill="#DFDFDF"/>
<defs>
<linearGradient id="paint0_linear_2845_36830" x1="30" y1="0" x2="30" y2="60" gradientUnits="userSpaceOnUse">
<stop stop-color="#09678A"/>
<stop offset="1" stop-color="#004964"/>
</linearGradient>
</defs>
</svg>
