<svg width="20" height="20" viewBox="0 0 20 20" fill="none" xmlns="http://www.w3.org/2000/svg">
<path d="M9.9974 3.125C9.16859 3.125 8.37374 3.45424 7.78769 4.04029C7.20164 4.62634 6.8724 5.4212 6.8724 6.25C6.8724 7.0788 7.20164 7.87366 7.78769 8.45971C8.37374 9.04576 9.16859 9.375 9.9974 9.375C10.8262 9.375 11.6211 9.04576 12.2071 8.45971C12.7932 7.87366 13.1224 7.0788 13.1224 6.25C13.1224 5.4212 12.7932 4.62634 12.2071 4.04029C11.6211 3.45424 10.8262 3.125 9.9974 3.125ZM6.66406 11.0417C5.83526 11.0417 5.0404 11.3709 4.45435 11.957C3.8683 12.543 3.53906 13.3379 3.53906 14.1667V15.1567C3.53906 15.785 3.99406 16.32 4.61406 16.4208C8.17906 17.0033 11.8157 17.0033 15.3807 16.4208C15.6806 16.3715 15.9532 16.2174 16.15 15.9859C16.3469 15.7544 16.4552 15.4605 16.4557 15.1567V14.1667C16.4557 13.3379 16.1265 12.543 15.5404 11.957C14.9544 11.3709 14.1595 11.0417 13.3307 11.0417H13.0474C12.8918 11.0422 12.7407 11.0661 12.5941 11.1133L11.8724 11.3492C10.654 11.7469 9.34075 11.7469 8.1224 11.3492L7.40073 11.1133C7.25446 11.0664 7.10184 11.0422 6.94823 11.0417H6.66406Z" fill="#C8C8C8"/>
</svg>
