<svg width="23" height="24" viewBox="0 0 23 24" fill="none" xmlns="http://www.w3.org/2000/svg">
<path d="M13.418 5.5166C13.691 5.51669 13.9522 5.62277 14.1494 5.81055L14.167 5.82812L19.5889 11.249C19.7878 11.4482 19.8994 11.7185 19.8994 12C19.8994 12.2463 19.8138 12.4839 19.6592 12.6729L19.5889 12.751L14.168 18.1729C13.9687 18.372 13.6987 18.4843 13.417 18.4844C13.1703 18.4844 12.9323 18.3982 12.7432 18.2432L12.665 18.1729C12.4657 17.9735 12.3535 17.7028 12.3535 17.4209C12.3536 17.1744 12.4399 16.9371 12.5947 16.748L12.665 16.6699L16.2725 13.0625H4.3125C4.06589 13.0625 3.82776 12.9772 3.63867 12.8223L3.56152 12.751C3.36228 12.5517 3.25 12.2818 3.25 12C3.25001 11.7537 3.33557 11.5161 3.49023 11.3271L3.56152 11.249C3.76078 11.0498 4.03072 10.9375 4.3125 10.9375H16.2725L15.6318 10.2979L12.666 7.33008C12.4669 7.1308 12.3554 6.86079 12.3555 6.5791L12.3604 6.47363C12.3812 6.26519 12.4629 6.06726 12.5957 5.90527L12.666 5.82812C12.8404 5.65387 13.0694 5.54564 13.3125 5.52148L13.418 5.5166Z" fill="white" stroke="#032B38" stroke-width="0.75"/>
</svg>
