<svg width="46" height="46" viewBox="0 0 46 46" fill="none" xmlns="http://www.w3.org/2000/svg">
<rect width="46" height="46.0002" rx="12" fill="#175C7A"/>
<path d="M31.996 31.9992V31.9984H32.0005V25.3969C32.0005 22.1674 31.3052 19.6797 27.5297 19.6797C25.7147 19.6797 24.4967 20.6757 23.9994 21.6199H23.9469V19.9812H20.3672V31.9984H24.0947V26.0479C24.0947 24.4812 24.3917 22.9662 26.332 22.9662C28.2437 22.9662 28.2722 24.7542 28.2722 26.1484V31.9992H31.996Z" fill="white"/>
<path d="M14.2969 19.9824H18.0289V31.9997H14.2969V19.9824Z" fill="white"/>
<path d="M16.1615 14C14.9683 14 14 14.9683 14 16.1615C14 17.3548 14.9683 18.3433 16.1615 18.3433C17.3547 18.3433 18.323 17.3548 18.323 16.1615C18.3222 14.9683 17.354 14 16.1615 14V14Z" fill="white"/>
</svg>
