<svg width="24" height="24" viewBox="0 0 24 24" fill="none" xmlns="http://www.w3.org/2000/svg">
<g clip-path="url(#clip0_4673_22038)">
<path d="M23.4453 12.2247C23.4453 11.2414 23.3655 10.5239 23.1928 9.77979H11.9648V14.2178H18.5554C18.4226 15.3207 17.7051 16.9816 16.1105 18.0977L16.0882 18.2463L19.6382 20.9965L19.8842 21.021C22.143 18.9349 23.4453 15.8654 23.4453 12.2247Z" fill="#4285F4"/>
<path d="M11.9645 23.9173C15.1933 23.9173 17.9039 22.8543 19.8838 21.0206L16.1101 18.0973C15.1003 18.8016 13.7449 19.2932 11.9645 19.2932C8.80204 19.2932 6.11798 17.2071 5.16119 14.3237L5.02094 14.3356L1.32952 17.1925L1.28125 17.3267C3.24778 21.2332 7.2872 23.9173 11.9645 23.9173Z" fill="#34A853"/>
<path d="M5.15942 14.3238C4.90696 13.5797 4.76085 12.7824 4.76085 11.9586C4.76085 11.1347 4.90696 10.3375 5.14614 9.59342L5.13945 9.43494L1.40177 6.53223L1.27948 6.59039C0.468975 8.21149 0.00390625 10.0319 0.00390625 11.9586C0.00390625 13.8853 0.468975 15.7056 1.27948 17.3267L5.15942 14.3238Z" fill="#FBBC05"/>
<path d="M11.9645 4.62403C14.21 4.62403 15.7248 5.59402 16.5885 6.40461L19.9635 3.10928C17.8907 1.1826 15.1933 0 11.9645 0C7.2872 0 3.24778 2.68406 1.28125 6.59056L5.14791 9.59359C6.11798 6.7102 8.80204 4.62403 11.9645 4.62403Z" fill="#EB4335"/>
</g>
<defs>
<clipPath id="clip0_4673_22038">
<rect width="23.46" height="24" fill="white"/>
</clipPath>
</defs>
</svg>
