<svg width="57" height="56" viewBox="0 0 57 56" fill="none" xmlns="http://www.w3.org/2000/svg">
<g clip-path="url(#clip0_4926_11664)">
<path fill-rule="evenodd" clip-rule="evenodd" d="M32.8561 0.335903C32.4669 0.27497 32.0694 0.291299 31.6865 0.383959C31.3036 0.476619 30.9426 0.643795 30.6243 0.875941C30.306 1.10809 30.0365 1.40066 29.8313 1.73695C29.626 2.07324 29.489 2.44667 29.4281 2.8359C29.3672 3.22514 29.3835 3.62257 29.4762 4.0055C29.5688 4.38842 29.736 4.74935 29.9681 5.06767C30.2003 5.38599 30.4929 5.65547 30.8291 5.86072C31.1654 6.06597 31.5389 6.20297 31.9281 6.2639C37.3851 7.14263 42.3117 10.0426 45.7285 14.3873C49.1454 18.732 50.8022 24.2033 50.3698 29.7137C49.9374 35.2241 47.4474 40.37 43.3947 44.1286C39.342 47.8871 34.0234 49.9831 28.4961 49.9999C24.0847 50.0018 19.7745 48.6774 16.1253 46.1987C12.4761 43.72 9.65631 40.2015 8.03209 36.0999C7.8956 35.7222 7.68466 35.3758 7.41178 35.0811C7.1389 34.7864 6.80964 34.5496 6.44351 34.3845C6.07738 34.2195 5.68184 34.1296 5.28035 34.1203C4.87885 34.111 4.47956 34.1824 4.10617 34.3302C3.73277 34.4781 3.39286 34.6994 3.10659 34.9811C2.82033 35.2628 2.59353 35.599 2.43964 35.97C2.28576 36.3409 2.20792 36.739 2.21075 37.1406C2.21357 37.5422 2.297 37.9392 2.45609 38.3079C4.85916 44.3616 9.29693 49.3886 15.0059 52.5239C20.7149 55.6591 27.3381 56.7067 33.7359 55.4863C40.1338 54.2659 45.9064 50.8539 50.0604 45.8373C54.2144 40.8207 56.4902 34.5131 56.4961 27.9999C56.4974 21.3286 54.1167 14.8759 49.7826 9.80416C45.4486 4.73238 39.4461 1.37473 32.8561 0.335903ZM25.1521 2.6439C25.2507 3.0258 25.273 3.42338 25.2178 3.81391C25.1625 4.20444 25.0309 4.58024 24.8302 4.91982C24.6296 5.25939 24.364 5.55607 24.0486 5.79288C23.7332 6.0297 23.3742 6.20199 22.9921 6.2999C21.9902 6.55836 21.0077 6.88717 20.0521 7.2839C19.6883 7.43519 19.2983 7.51334 18.9044 7.5139C18.5104 7.51446 18.1202 7.43742 17.756 7.28718C17.3918 7.13693 17.0608 6.91642 16.7818 6.63825C16.5028 6.36007 16.2814 6.02967 16.1301 5.6659C15.9788 5.30214 15.9007 4.91214 15.9001 4.51818C15.8995 4.12421 15.9766 3.734 16.1268 3.3698C16.2771 3.00561 16.4976 2.67458 16.7758 2.39561C17.0539 2.11664 17.3843 1.89519 17.7481 1.7439C18.9561 1.23724 20.2068 0.81857 21.5001 0.487903C21.8817 0.389907 22.2789 0.368043 22.669 0.423561C23.0591 0.479078 23.4344 0.61089 23.7735 0.811469C24.1126 1.01205 24.4089 1.27746 24.6455 1.59256C24.882 1.90766 25.0542 2.26227 25.1521 2.6439ZM13.2361 7.5759C13.7895 8.14684 14.0936 8.91412 14.0816 9.70915C14.0696 10.5042 13.7425 11.2619 13.1721 11.8159C11.6844 13.2652 10.4055 14.9143 9.37209 16.7159C9.18194 17.0677 8.92336 17.378 8.61155 17.6285C8.29973 17.8789 7.94099 18.0645 7.55642 18.1743C7.17184 18.2841 6.76919 18.3159 6.37216 18.2678C5.97512 18.2197 5.5917 18.0927 5.24445 17.8943C4.89721 17.6958 4.59314 17.43 4.35014 17.1123C4.10714 16.7947 3.9301 16.4317 3.82944 16.0446C3.72878 15.6575 3.70654 15.2542 3.76401 14.8585C3.82148 14.4627 3.95751 14.0824 4.16409 13.7399C5.47302 11.4464 7.0998 9.34966 8.99609 7.5119C9.56703 6.95851 10.3343 6.6544 11.1293 6.6664C11.9244 6.6784 12.6821 7.00553 13.2361 7.5759ZM4.16009 21.1199C4.9477 21.2309 5.65897 21.6502 6.13753 22.2855C6.61609 22.9209 6.82275 23.7202 6.71209 24.5079C6.5732 25.5355 6.50105 26.571 6.49609 27.6079C6.49609 28.4036 6.18002 29.1666 5.61741 29.7292C5.05481 30.2918 4.29174 30.6079 3.49609 30.6079C2.70044 30.6079 1.93738 30.2918 1.37477 29.7292C0.812164 29.1666 0.496094 28.4036 0.496094 27.6079C0.496094 26.2746 0.588094 24.9626 0.772094 23.6719C0.883137 22.8843 1.30241 22.173 1.93774 21.6945C2.57306 21.2159 3.37243 21.0092 4.16009 21.1199ZM18.4961 35.5279V20.4719C18.4965 19.7903 18.671 19.1202 19.0031 18.525C19.3352 17.9298 19.8138 17.4294 20.3937 17.0711C20.9735 16.7129 21.6352 16.5088 22.3161 16.4781C22.997 16.4474 23.6744 16.5912 24.2841 16.8959L39.3401 24.4239C40.0036 24.7565 40.5615 25.2671 40.9514 25.8986C41.3413 26.5301 41.5478 27.2577 41.5478 27.9999C41.5478 28.7421 41.3413 29.4697 40.9514 30.1012C40.5615 30.7327 40.0036 31.2433 39.3401 31.5759L24.2841 39.1039C23.6744 39.4086 22.997 39.5524 22.3161 39.5217C21.6352 39.4911 20.9735 39.2869 20.3937 38.9287C19.8138 38.5705 19.3352 38.07 19.0031 37.4748C18.671 36.8796 18.4965 36.2095 18.4961 35.5279Z" fill="white"/>
</g>
<defs>
<clipPath id="clip0_4926_11664">
<rect width="56" height="56" fill="white" transform="translate(0.5)"/>
</clipPath>
</defs>
</svg>
