<svg width="57" height="56" viewBox="0 0 57 56" fill="none" xmlns="http://www.w3.org/2000/svg">
<path d="M11.7016 8.40039C10.2164 8.40039 8.79197 8.99039 7.74176 10.0406C6.69156 11.0908 6.10156 12.5152 6.10156 14.0004V24.2792C8.20202 21.6801 11.249 20.0218 14.5721 19.6692C17.8952 19.3166 21.2222 20.2985 23.8214 22.399C26.4205 24.4995 28.0787 27.5464 28.4314 30.8695C28.784 34.1926 27.802 37.5197 25.7016 40.1188V42.0004H45.3016C46.7868 42.0004 48.2112 41.4104 49.2614 40.3602C50.3116 39.31 50.9016 37.8856 50.9016 36.4004V14.0004C50.9016 12.5152 50.3116 11.0908 49.2614 10.0406C48.2112 8.99039 46.7868 8.40039 45.3016 8.40039H11.7016ZM15.9016 19.6004C15.5303 19.6004 15.1742 19.4529 14.9116 19.1903C14.6491 18.9278 14.5016 18.5717 14.5016 18.2004C14.5016 17.8291 14.6491 17.473 14.9116 17.2104C15.1742 16.9479 15.5303 16.8004 15.9016 16.8004H41.1016C41.4729 16.8004 41.829 16.9479 42.0915 17.2104C42.3541 17.473 42.5016 17.8291 42.5016 18.2004C42.5016 18.5717 42.3541 18.9278 42.0915 19.1903C41.829 19.4529 41.4729 19.6004 41.1016 19.6004H15.9016ZM31.3016 29.4004C31.3016 29.0291 31.4491 28.673 31.7116 28.4104C31.9742 28.1479 32.3303 28.0004 32.7016 28.0004H41.1016C41.4729 28.0004 41.829 28.1479 42.0915 28.4104C42.3541 28.673 42.5016 29.0291 42.5016 29.4004C42.5016 29.7717 42.3541 30.1278 42.0915 30.3903C41.829 30.6529 41.4729 30.8004 41.1016 30.8004H32.7016C32.3303 30.8004 31.9742 30.6529 31.7116 30.3903C31.4491 30.1278 31.3016 29.7717 31.3016 29.4004ZM15.9016 42.0004C13.3024 42.0004 10.8098 40.9679 8.97192 39.13C7.13406 37.2922 6.10156 34.7995 6.10156 32.2004C6.10156 29.6013 7.13406 27.1086 8.97192 25.2707C10.8098 23.4329 13.3024 22.4004 15.9016 22.4004C18.5007 22.4004 20.9934 23.4329 22.8312 25.2707C24.6691 27.1086 25.7016 29.6013 25.7016 32.2004C25.7016 34.7995 24.6691 37.2922 22.8312 39.13C20.9934 40.9679 18.5007 42.0004 15.9016 42.0004ZM8.90156 42.678C10.9737 44.0621 13.4097 44.8007 15.9016 44.8004C18.4916 44.8004 20.8996 44.0164 22.9016 42.678V50.4004C22.9016 50.6604 22.8292 50.9152 22.6925 51.1364C22.5558 51.3576 22.3602 51.5363 22.1277 51.6526C21.8951 51.7689 21.6348 51.8181 21.3758 51.7947C21.1169 51.7714 20.8696 51.6764 20.6616 51.5204L16.7416 48.5804C16.4992 48.3986 16.2045 48.3004 15.9016 48.3004C15.5986 48.3004 15.3039 48.3986 15.0616 48.5804L11.1416 51.5204C10.9336 51.6764 10.6862 51.7714 10.4273 51.7947C10.1683 51.8181 9.90801 51.7689 9.67546 51.6526C9.44292 51.5363 9.24734 51.3576 9.11065 51.1364C8.97396 50.9152 8.90156 50.6604 8.90156 50.4004V42.678Z" fill="white"/>
</svg>
