<svg width="57" height="56" viewBox="0 0 57 56" fill="none" xmlns="http://www.w3.org/2000/svg">
<path d="M22.668 36.1667L39.0013 25.6667L22.668 15.1667V36.1667ZM19.168 49V44.3333H9.83464C8.5513 44.3333 7.45308 43.8768 6.53997 42.9637C5.62686 42.0506 5.16952 40.9516 5.16797 39.6667V11.6667C5.16797 10.3833 5.6253 9.28511 6.53997 8.372C7.45464 7.45889 8.55286 7.00156 9.83464 7H47.168C48.4513 7 49.5503 7.45733 50.465 8.372C51.3796 9.28667 51.8362 10.3849 51.8346 11.6667V39.6667C51.8346 40.95 51.3781 42.049 50.465 42.9637C49.5519 43.8783 48.4529 44.3349 47.168 44.3333H37.8346V49H19.168Z" fill="white"/>
</svg>
