<svg width="42" height="42" viewBox="0 0 42 42" fill="none" xmlns="http://www.w3.org/2000/svg">
<rect width="42" height="42" rx="21" fill="white"/>
<path d="M31.62 18.8791H30.7474V18.8341H20.9974V23.1675H27.1199C26.2266 25.69 23.8265 27.5008 20.9974 27.5008C17.4078 27.5008 14.4974 24.5904 14.4974 21.0008C14.4974 17.4112 17.4078 14.5008 20.9974 14.5008C22.6544 14.5008 24.1618 15.1259 25.3096 16.1469L28.3738 13.0827C26.439 11.2795 23.8509 10.1675 20.9974 10.1675C15.0147 10.1675 10.1641 15.0181 10.1641 21.0008C10.1641 26.9835 15.0147 31.8341 20.9974 31.8341C26.9801 31.8341 31.8307 26.9835 31.8307 21.0008C31.8307 20.2744 31.756 19.5654 31.62 18.8791Z" fill="#FFC107"/>
<path d="M11.4141 15.9584L14.9734 18.5687C15.9364 16.1843 18.2689 14.5008 20.9983 14.5008C22.6553 14.5008 24.1627 15.1259 25.3105 16.1469L28.3747 13.0827C26.4399 11.2795 23.8518 10.1675 20.9983 10.1675C16.8372 10.1675 13.2286 12.5167 11.4141 15.9584Z" fill="#FF3D00"/>
<path d="M20.9998 31.8347C23.7981 31.8347 26.3407 30.7638 28.2631 29.0223L24.9101 26.1851C23.7861 27.0404 22.4123 27.5029 20.9998 27.5013C18.1821 27.5013 15.7896 25.7046 14.8882 23.1973L11.3555 25.9191C13.1484 29.4275 16.7895 31.8347 20.9998 31.8347Z" fill="#4CAF50"/>
<path d="M31.6187 18.8789H30.7461V18.834H20.9961V23.1673H27.1186C26.6913 24.3679 25.9217 25.417 24.9048 26.1849L24.9064 26.1839L28.2593 29.0211C28.0221 29.2367 31.8294 26.4173 31.8294 21.0007C31.8294 20.2743 31.7547 19.5652 31.6187 18.8789Z" fill="#1976D2"/>
</svg>
