<svg width="44" height="44" viewBox="0 0 44 44" fill="none" xmlns="http://www.w3.org/2000/svg">
<path d="M10.0833 3.66675H31.1667C32.3822 3.66675 33.548 4.14963 34.4076 5.00918C35.2671 5.86872 35.75 7.03451 35.75 8.25008V20.7406C33.6609 20.0637 31.4254 19.9773 29.2903 20.4908C27.1551 21.0044 25.2034 22.0979 23.6506 23.6507C22.0978 25.2035 21.0043 27.1552 20.4907 29.2904C19.9772 31.4255 20.0636 33.661 20.7405 35.7501H8.25C8.25 36.2363 8.44315 36.7026 8.78697 37.0464C9.13079 37.3903 9.5971 37.5834 10.0833 37.5834H21.5087C22.0332 38.5895 22.6987 39.5155 23.485 40.3334H10.0833C8.86776 40.3334 7.70197 39.8505 6.84243 38.991C5.98289 38.1314 5.5 36.9657 5.5 35.7501V8.25008C5.5 7.03451 5.98289 5.86872 6.84243 5.00918C7.70197 4.14963 8.86776 3.66675 10.0833 3.66675ZM12.8333 9.16675C12.3471 9.16675 11.8808 9.3599 11.537 9.70372C11.1932 10.0475 11 10.5139 11 11.0001V12.8334C11 13.3196 11.1932 13.786 11.537 14.1298C11.8808 14.4736 12.3471 14.6667 12.8333 14.6667H27.5C27.9862 14.6667 28.4525 14.4736 28.7964 14.1298C29.1402 13.786 29.3333 13.3196 29.3333 12.8334V11.0001C29.3333 10.5139 29.1402 10.0475 28.7964 9.70372C28.4525 9.3599 27.9862 9.16675 27.5 9.16675H12.8333ZM42.1667 32.0834C42.1667 29.4091 41.1043 26.8444 39.2133 24.9534C37.3223 23.0624 34.7576 22.0001 32.0833 22.0001C29.4091 22.0001 26.8443 23.0624 24.9533 24.9534C23.0623 26.8444 22 29.4091 22 32.0834C22 34.7577 23.0623 37.3224 24.9533 39.2134C26.8443 41.1044 29.4091 42.1667 32.0833 42.1667C34.7576 42.1667 37.3223 41.1044 39.2133 39.2134C41.1043 37.3224 42.1667 34.7577 42.1667 32.0834ZM31.009 27.6779L36.1533 31.0512C36.3134 31.1539 36.4387 31.2902 36.5292 31.4601C36.6208 31.6263 36.6667 31.8084 36.6667 32.0064C36.6669 32.1964 36.6216 32.3838 36.5347 32.5527C36.4508 32.7194 36.3258 32.862 36.1717 32.9671L31.0255 36.4779C30.9364 36.5389 30.8388 36.5865 30.7358 36.6191C30.4976 36.6953 30.2395 36.6803 30.0117 36.5769C29.8806 36.515 29.761 36.4313 29.6578 36.3294C29.558 36.2217 29.4774 36.0977 29.4195 35.9627C29.3616 35.8253 29.3323 35.6774 29.3333 35.5282V28.6386C29.3319 28.4179 29.3948 28.2015 29.5143 28.016C29.6338 27.8304 29.8047 27.6836 30.0062 27.5936C30.1659 27.5183 30.3426 27.4863 30.5186 27.5008C30.6946 27.5153 30.8637 27.5757 31.009 27.6761" fill="white"/>
</svg>
