<svg width="44" height="44" viewBox="0 0 44 44" fill="none" xmlns="http://www.w3.org/2000/svg">
<path d="M21.9987 22C25.4325 22 28.5437 23.1367 30.8262 24.7262C32.995 26.2387 34.832 28.4863 34.832 30.9045C34.832 32.2318 34.2655 33.3318 33.3727 34.1495C32.533 34.9213 31.4367 35.4218 30.3074 35.7628C28.0505 36.4467 25.0787 36.6667 21.9987 36.6667C18.9187 36.6667 15.9469 36.4467 13.69 35.7628C12.5607 35.4218 11.4644 34.9213 10.6229 34.1495C9.7337 33.3337 9.16537 32.2337 9.16537 30.9063C9.16537 28.4882 11.0024 26.2405 13.1712 24.728C15.4537 23.1367 18.5649 22 21.9987 22ZM34.832 23.8333C36.746 23.8333 38.484 24.4658 39.7692 25.3605C40.9425 26.18 42.1654 27.5422 42.1654 29.2032C42.1654 30.151 41.7529 30.9375 41.1387 31.5003C40.5777 32.0155 39.8847 32.318 39.2522 32.5087C38.3905 32.769 37.373 32.9028 36.317 32.9615C36.5407 32.329 36.6654 31.6415 36.6654 30.9045C36.6654 28.0903 34.9072 25.6997 32.94 24.0405C33.5614 23.9032 34.1957 23.8338 34.832 23.8333ZM9.16537 23.8333C9.8217 23.8358 10.4524 23.9048 11.0574 24.0405C9.09203 25.6997 7.33203 28.0903 7.33203 30.9045C7.33203 31.6415 7.4567 32.329 7.68037 32.9615C6.62437 32.9028 5.6087 32.769 4.7452 32.5087C4.1127 32.318 3.4197 32.0155 2.85686 31.5003C2.53425 31.2113 2.27622 30.8575 2.09963 30.462C1.92303 30.0665 1.83185 29.6381 1.83203 29.205C1.83203 27.5458 3.05303 26.1818 4.2282 25.3623C5.68177 24.3658 7.40301 23.8328 9.16537 23.8333ZM33.9154 12.8333C35.1309 12.8333 36.2967 13.3162 37.1563 14.1758C38.0158 15.0353 38.4987 16.2011 38.4987 17.4167C38.4987 18.6322 38.0158 19.798 37.1563 20.6576C36.2967 21.5171 35.1309 22 33.9154 22C32.6998 22 31.534 21.5171 30.6745 20.6576C29.8149 19.798 29.332 18.6322 29.332 17.4167C29.332 16.2011 29.8149 15.0353 30.6745 14.1758C31.534 13.3162 32.6998 12.8333 33.9154 12.8333ZM10.082 12.8333C11.2976 12.8333 12.4634 13.3162 13.3229 14.1758C14.1825 15.0353 14.6654 16.2011 14.6654 17.4167C14.6654 18.6322 14.1825 19.798 13.3229 20.6576C12.4634 21.5171 11.2976 22 10.082 22C8.86646 22 7.70067 21.5171 6.84113 20.6576C5.98158 19.798 5.4987 18.6322 5.4987 17.4167C5.4987 16.2011 5.98158 15.0353 6.84113 14.1758C7.70067 13.3162 8.86646 12.8333 10.082 12.8333ZM21.9987 5.5C23.9436 5.5 25.8089 6.27262 27.1842 7.64788C28.5594 9.02315 29.332 10.8884 29.332 12.8333C29.332 14.7783 28.5594 16.6435 27.1842 18.0188C25.8089 19.3941 23.9436 20.1667 21.9987 20.1667C20.0538 20.1667 18.1885 19.3941 16.8132 18.0188C15.438 16.6435 14.6654 14.7783 14.6654 12.8333C14.6654 10.8884 15.438 9.02315 16.8132 7.64788C18.1885 6.27262 20.0538 5.5 21.9987 5.5Z" fill="white"/>
</svg>
