<svg width="56" height="56" viewBox="0 0 56 56" fill="none" xmlns="http://www.w3.org/2000/svg">
<rect width="56" height="56" rx="8" fill="url(#paint0_linear_2845_36814)" fill-opacity="0.8"/>
<rect x="0.5" y="0.5" width="55" height="55" rx="7.5" stroke="white" stroke-opacity="0.2"/>
<path d="M38.6641 17.332H17.3307C15.8641 17.332 14.6641 18.532 14.6641 19.9987V35.9987C14.6641 37.4654 15.8641 38.6654 17.3307 38.6654H38.6641C40.1307 38.6654 41.3307 37.4654 41.3307 35.9987V19.9987C41.3307 18.532 40.1307 17.332 38.6641 17.332ZM38.1307 22.9987L29.4107 28.452C28.5441 28.9987 27.4507 28.9987 26.5841 28.452L17.8641 22.9987C17.7304 22.9236 17.6133 22.8222 17.5199 22.7006C17.4265 22.579 17.3588 22.4397 17.3208 22.2912C17.2828 22.1426 17.2754 21.9879 17.2989 21.8364C17.3225 21.6849 17.3765 21.5398 17.4578 21.4098C17.539 21.2797 17.6458 21.1676 17.7717 21.08C17.8976 20.9925 18.0399 20.9314 18.1901 20.9004C18.3402 20.8695 18.4951 20.8693 18.6453 20.9C18.7956 20.9306 18.938 20.9914 19.0641 21.0787L27.9974 26.6654L36.9307 21.0787C37.0568 20.9914 37.1992 20.9306 37.3495 20.9C37.4997 20.8693 37.6546 20.8695 37.8047 20.9004C37.9549 20.9314 38.0972 20.9925 38.2231 21.08C38.349 21.1676 38.4558 21.2797 38.537 21.4098C38.6183 21.5398 38.6723 21.6849 38.6959 21.8364C38.7194 21.9879 38.7119 22.1426 38.674 22.2912C38.636 22.4397 38.5683 22.579 38.4749 22.7006C38.3815 22.8222 38.2644 22.9236 38.1307 22.9987Z" fill="#DFDFDF"/>
<defs>
<linearGradient id="paint0_linear_2845_36814" x1="28" y1="0" x2="28" y2="56" gradientUnits="userSpaceOnUse">
<stop stop-color="#09678A"/>
<stop offset="1" stop-color="#004964"/>
</linearGradient>
</defs>
</svg>
