<svg width="80" height="80" viewBox="0 0 80 80" fill="none" xmlns="http://www.w3.org/2000/svg">
<circle cx="40" cy="40" r="40" fill="#0C6688"/>
<path opacity="0.5" d="M54.5846 27.5H25.418C23.7604 27.5 22.1707 28.1585 20.9986 29.3306C19.8264 30.5027 19.168 32.0924 19.168 33.75V39.4167L33.4117 44.1667H46.5909L60.8346 39.4167V33.75C60.8346 32.0924 60.1762 30.5027 59.0041 29.3306C57.832 28.1585 56.2422 27.5 54.5846 27.5Z" fill="white"/>
<path d="M35.8346 27.5V25.4167H44.168V27.5H48.3346V25.4167C48.3346 24.3116 47.8956 23.2518 47.1142 22.4704C46.3328 21.689 45.273 21.25 44.168 21.25H35.8346C34.7296 21.25 33.6698 21.689 32.8884 22.4704C32.107 23.2518 31.668 24.3116 31.668 25.4167V27.5H35.8346ZM33.4117 44.1667L19.168 39.4167V52.5C19.1696 54.1571 19.8286 55.7458 21.0004 56.9176C22.1721 58.0893 23.7609 58.7483 25.418 58.75H54.5846C56.2417 58.7483 57.8305 58.0893 59.0022 56.9176C60.174 55.7458 60.833 54.1571 60.8346 52.5V39.4167L46.5909 44.1667H33.4117Z" fill="white"/>
</svg>
