<svg width="80" height="80" viewBox="0 0 80 80" fill="none" xmlns="http://www.w3.org/2000/svg">
<circle cx="40" cy="40" r="40" fill="#0C6688"/>
<path d="M50.4154 29.5836C47.0221 29.5824 43.7093 30.617 40.9197 32.5492C38.1302 34.4814 35.9969 37.219 34.805 40.3961L38.7092 41.8606C39.7404 39.1219 41.6996 36.8316 44.2455 35.3886C46.7915 33.9456 49.7629 33.4412 52.6424 33.9634C55.5219 34.4856 58.127 36.0012 60.0042 38.2463C61.8813 40.4914 62.9115 43.3238 62.9154 46.2502C62.9154 49.5654 61.5985 52.7449 59.2543 55.0891C56.9101 57.4333 53.7306 58.7502 50.4154 58.7502H29.5821C26.6305 58.7521 23.7734 57.7094 21.5169 55.8068C19.2603 53.9043 17.7497 51.2645 17.2527 48.3551C16.7557 45.4456 17.3043 42.4541 18.8013 39.9103C20.2984 37.3665 22.6473 35.4346 25.4321 34.4565C25.2537 30.8578 26.4138 27.3204 28.6888 24.5263C30.9638 21.7322 34.1927 19.8793 37.7529 19.3247C41.3131 18.7701 44.9526 19.5531 47.9697 21.5228C50.9868 23.4925 53.1679 26.5094 54.0925 29.9919C52.8858 29.7198 51.6525 29.5828 50.4154 29.5836Z" fill="white"/>
</svg>
