<svg width="80" height="80" viewBox="0 0 80 80" fill="none" xmlns="http://www.w3.org/2000/svg">
<circle cx="40" cy="40" r="40" fill="#0C6688"/>
<g clip-path="url(#clip0_6354_15345)">
<path d="M23.332 29.5833C23.332 24.9792 30.7904 21.25 39.9987 21.25C49.207 21.25 56.6654 24.9792 56.6654 29.5833C56.6654 34.1875 49.207 37.9167 39.9987 37.9167C30.7904 37.9167 23.332 34.1875 23.332 29.5833ZM40.1654 52.5H39.9987C30.7904 52.5 23.332 48.7708 23.332 44.1667V50.4167C23.332 55.0208 30.7904 58.75 39.9987 58.75H40.6029C40.2119 57.3953 40.0086 55.9933 39.9987 54.5833C39.9987 53.875 40.0612 53.1875 40.1654 52.5ZM56.6654 40.1667V33.75C56.6654 38.3542 49.207 42.0833 39.9987 42.0833C30.7904 42.0833 23.332 38.3542 23.332 33.75V40C23.332 44.6042 30.7904 48.3333 39.9987 48.3333H41.4362C43.7904 43.3958 48.7904 40 54.582 40C55.2904 40 55.9779 40.0625 56.6654 40.1667ZM64.582 57.5C64.7904 57.5 64.7904 57.7083 64.582 57.9167L62.4987 61.4583C62.2904 61.6667 62.082 61.6667 61.8737 61.6667L59.3737 60.8333C58.7487 61.25 58.332 61.4583 57.707 61.875L57.2904 64.5833C57.2904 64.7917 57.082 65 56.8737 65H52.707C52.4987 65 52.2904 64.7917 52.082 64.5833L51.6654 61.875C51.0404 61.6667 50.4154 61.25 49.9987 60.8333L47.4987 61.875C47.2904 61.875 47.082 61.875 46.8737 61.6667L44.7904 58.125C44.582 57.9167 44.7904 57.7083 44.9987 57.5L47.2904 55.8333V53.75L44.9987 52.0833C44.7904 51.875 44.7904 51.6667 44.7904 51.4583L46.8737 47.9167C47.082 47.7083 47.2904 47.7083 47.4987 47.7083L49.9987 48.75C50.6237 48.3333 51.0404 48.125 51.6654 47.7083L52.082 45C52.082 44.7917 52.2904 44.5833 52.707 44.5833H56.8737C57.082 44.5833 57.2904 44.7917 57.2904 45L57.707 47.7083C58.332 47.9167 58.957 48.3333 59.582 48.75L62.082 47.7083C62.2904 47.7083 62.707 47.7083 62.707 47.9167L64.7904 51.4583C64.9987 51.6667 64.7904 51.875 64.582 52.0833L62.2904 53.75V55.8333L64.582 57.5ZM57.707 54.5833C57.707 52.9167 56.2487 51.4583 54.582 51.4583C52.9154 51.4583 51.457 52.9167 51.457 54.5833C51.457 56.25 52.9154 57.7083 54.582 57.7083C56.2487 57.7083 57.707 56.25 57.707 54.5833Z" fill="white"/>
</g>
<defs>
<clipPath id="clip0_6354_15345">
<rect width="50" height="50" fill="white" transform="translate(15 15)"/>
</clipPath>
</defs>
</svg>
