<svg width="80" height="80" viewBox="0 0 80 80" fill="none" xmlns="http://www.w3.org/2000/svg">
<circle cx="40" cy="40" r="40" fill="#0C6688"/>
<path d="M60.3125 55.625C60.3125 56.0394 60.1479 56.4368 59.8549 56.7299C59.5618 57.0229 59.1644 57.1875 58.75 57.1875H21.25C20.8356 57.1875 20.4382 57.0229 20.1451 56.7299C19.8521 56.4368 19.6875 56.0394 19.6875 55.625C19.6875 55.2106 19.8521 54.8132 20.1451 54.5201C20.4382 54.2271 20.8356 54.0625 21.25 54.0625H58.75C59.1644 54.0625 59.5618 54.2271 59.8549 54.5201C60.1479 54.8132 60.3125 55.2106 60.3125 55.625ZM60.3125 25.9375V47.8125C60.3125 48.6413 59.9833 49.4362 59.3972 50.0222C58.8112 50.6083 58.0163 50.9375 57.1875 50.9375H22.8125C21.9837 50.9375 21.1888 50.6083 20.6028 50.0222C20.0167 49.4362 19.6875 48.6413 19.6875 47.8125V25.9375C19.6875 25.1087 20.0167 24.3138 20.6028 23.7278C21.1888 23.1417 21.9837 22.8125 22.8125 22.8125H57.1875C58.0163 22.8125 58.8112 23.1417 59.3972 23.7278C59.9833 24.3138 60.3125 25.1087 60.3125 25.9375ZM47.0312 36.875C47.0312 36.6239 46.9706 36.3766 46.8547 36.1539C46.7387 35.9312 46.5709 35.7397 46.3652 35.5957L38.5527 30.127C38.3186 29.963 38.044 29.8663 37.7588 29.8476C37.4736 29.8288 37.1887 29.8886 36.9351 30.0206C36.6815 30.1525 36.469 30.3514 36.3207 30.5958C36.1723 30.8401 36.0938 31.1204 36.0938 31.4062V42.3438C36.0938 42.6296 36.1723 42.9099 36.3207 43.1542C36.469 43.3986 36.6815 43.5975 36.9351 43.7294C37.1887 43.8614 37.4736 43.9212 37.7588 43.9024C38.044 43.8837 38.3186 43.787 38.5527 43.623L46.3652 38.1543C46.5709 38.0103 46.7387 37.8188 46.8547 37.5961C46.9706 37.3734 47.0312 37.1261 47.0312 36.875Z" fill="white"/>
</svg>
