<svg width="32" height="32" viewBox="0 0 32 32" fill="none" xmlns="http://www.w3.org/2000/svg">
<path d="M18.1861 28.2165C18.1861 30.1405 20.2701 31.3432 21.9368 30.3818C22.7101 29.9352 23.1874 29.1085 23.1874 28.2152C23.1874 26.2912 21.1034 25.0885 19.4368 26.0498C18.6634 26.4978 18.1861 27.3232 18.1861 28.2165ZM4.43408 28.2165C4.43408 30.1405 6.51808 31.3432 8.18475 30.3818C8.95808 29.9352 9.43542 29.1085 9.43542 28.2152C9.43542 26.2912 7.35142 25.0885 5.68475 26.0498C4.91142 26.4978 4.43408 27.3232 4.43408 28.2165ZM27.0554 22.8765C26.9881 23.4855 26.6983 24.0482 26.2416 24.4566C25.7849 24.8651 25.1935 25.0906 24.5808 25.0898H1.36075C1.06693 25.0294 0.802948 24.8695 0.613391 24.637C0.423833 24.4046 0.320313 24.1138 0.320312 23.8138C0.320312 23.5139 0.423833 23.2231 0.613391 22.9906C0.802948 22.7581 1.06693 22.5982 1.36075 22.5378H23.4994C23.8133 22.5406 24.1176 22.4302 24.3568 22.227C24.596 22.0238 24.7541 21.7413 24.8021 21.4312L26.8208 3.55116C26.8884 2.94228 27.1783 2.37976 27.6349 1.97135C28.0915 1.56294 28.6828 1.33736 29.2954 1.33782H30.0114C30.2056 1.28085 30.4105 1.26992 30.6096 1.3059C30.8088 1.34188 30.9969 1.42377 31.1589 1.54509C31.3209 1.66641 31.4524 1.82381 31.543 2.00481C31.6336 2.18581 31.6807 2.38542 31.6807 2.58782C31.6807 2.79022 31.6336 2.98984 31.543 3.17084C31.4524 3.35184 31.3209 3.50924 31.1589 3.63055C30.9969 3.75187 30.8088 3.83377 30.6096 3.86974C30.4105 3.90572 30.2056 3.89479 30.0114 3.83782H29.5288C29.4523 3.83723 29.3783 3.86475 29.3208 3.91513C29.2632 3.96552 29.2262 4.03528 29.2167 4.11116L27.0554 22.8765Z" fill="#5B6CC8"/>
<path d="M2.56183 15.7136H11.3138C11.3138 15.7136 12.5645 15.7136 12.5645 16.9642V19.4642C12.5645 19.4642 12.5645 20.7149 11.3138 20.7149H2.56317C2.56317 20.7149 1.3125 20.7149 1.3125 19.4642V16.9642C1.3125 16.9642 1.3125 15.7136 2.56317 15.7136M6.31383 10.0882H11.3138C11.3138 10.0882 12.5645 10.0882 12.5645 11.3376V12.5882C12.5645 12.5882 12.5645 13.8389 11.3138 13.8389H6.31383C6.31383 13.8389 5.06317 13.8389 5.06317 12.5882V11.3376C5.06317 11.3376 5.06317 10.0882 6.31383 10.0882ZM15.6898 6.96289H21.9405C21.9405 6.96289 23.1912 6.96289 23.1912 8.21222V19.4656C23.1912 19.4656 23.1912 20.7149 21.9405 20.7149H15.6898C15.6898 20.7149 14.4392 20.7149 14.4392 19.4642V8.21356C14.4392 8.21356 14.4392 6.96289 15.6898 6.96289Z" fill="#5B6CC8"/>
</svg>
