<svg width="32" height="32" viewBox="0 0 32 32" fill="none" xmlns="http://www.w3.org/2000/svg">
<g clip-path="url(#clip0_9469_49491)">
<path fill-rule="evenodd" clip-rule="evenodd" d="M0.290286 4.22857C0.290286 3.97486 0.416 3.58171 0.962286 3.072C1.51314 2.55771 2.38629 2.02971 3.58629 1.55657C5.97486 0.617143 9.37143 0 13.2 0C17.024 0 20.4229 0.614857 22.8114 1.55657C24.0114 2.02971 24.8846 2.55771 25.4354 3.072C25.984 3.58171 26.1074 3.97486 26.1074 4.22857C26.1074 4.48229 25.9817 4.87543 25.4354 5.38514C24.8869 5.89943 24.0114 6.42743 22.8114 6.90057C20.4229 7.84229 17.024 8.45486 13.2 8.45486C9.376 8.45486 5.97486 7.84229 3.58629 6.90057C2.38629 6.42743 1.51314 5.89714 0.96 5.38514C0.411429 4.87543 0.288 4.48229 0.288 4.22857M26.4 8.25143C25.6036 8.77569 24.753 9.2125 23.8629 9.55429C21.0629 10.6606 17.2937 11.312 13.2023 11.312C9.11086 11.312 5.33943 10.6606 2.53943 9.55429C1.64863 9.21338 0.797226 8.77733 0 8.25371L0 14.1623C0.0914286 14.3749 0.269714 14.6354 0.608 14.944C1.17486 15.4606 2.07771 15.9909 3.312 16.4663C5.75771 17.408 9.232 18.0206 13.1406 18.0274C13.3167 17.3975 13.6258 16.8125 14.0469 16.312C14.468 15.8115 14.9915 15.4069 15.582 15.1256C16.1726 14.8443 16.8166 14.6928 17.4706 14.6811C18.1246 14.6695 18.7735 14.7981 19.3737 15.0583C19.4611 14.2849 19.7446 13.5467 20.1972 12.9135C20.6498 12.2803 21.2565 11.7732 21.9599 11.4402C22.6634 11.1071 23.4402 10.9591 24.2168 11.0103C24.9934 11.0615 25.7441 11.3101 26.3977 11.7326L26.4 8.25143ZM13.2 20.8846H13.2777C13.5817 21.68 14.1097 22.3954 14.832 22.928C14.0638 23.4942 13.492 24.2866 13.1969 25.1941C12.9018 26.1017 12.8981 27.0788 13.1863 27.9886C5.90629 27.984 0 25.4514 0 22.3314V18.0297C0.681143 18.4457 1.45371 18.8137 2.28571 19.1314C5.14971 20.2331 9.00571 20.8846 13.2 20.8846ZM25.6297 15.5703C25.6297 15.1156 25.4491 14.6796 25.1276 14.3581C24.8061 14.0366 24.3701 13.856 23.9154 13.856C23.4608 13.856 23.0247 14.0366 22.7032 14.3581C22.3818 14.6796 22.2011 15.1156 22.2011 15.5703V17.2617C21.331 17.5269 20.5334 17.9883 19.8697 18.6103L18.4046 17.7646C18.0105 17.5372 17.5423 17.4758 17.103 17.5936C16.6636 17.7115 16.289 17.9991 16.0617 18.3931C15.8344 18.7872 15.7729 19.2554 15.8908 19.6948C16.0087 20.1341 16.2963 20.5087 16.6903 20.736L18.1531 21.5794C17.9464 22.4666 17.9464 23.3894 18.1531 24.2766L16.6903 25.1223C16.4952 25.2348 16.3242 25.3847 16.187 25.5634C16.0498 25.7421 15.9491 25.946 15.8908 26.1635C15.8324 26.3811 15.8175 26.608 15.8468 26.8313C15.8761 27.0547 15.9492 27.27 16.0617 27.4651C16.1743 27.6603 16.3242 27.8313 16.5028 27.9685C16.6815 28.1056 16.8854 28.2063 17.103 28.2647C17.3205 28.323 17.5474 28.338 17.7708 28.3086C17.9941 28.2793 18.2095 28.2063 18.4046 28.0937L19.8674 27.248C20.5234 27.8606 21.3189 28.3291 22.2011 28.5966V30.2857C22.2011 30.7404 22.3818 31.1764 22.7032 31.4979C23.0247 31.8194 23.4608 32 23.9154 32C24.3701 32 24.8061 31.8194 25.1276 31.4979C25.4491 31.1764 25.6297 30.7404 25.6297 30.2857V28.5943C26.512 28.3291 27.3074 27.8629 27.9634 27.2457L29.4286 28.0914C29.8221 28.3152 30.2882 28.3742 30.725 28.2556C31.1619 28.137 31.5341 27.8504 31.7605 27.4583C31.9868 27.0663 32.0489 26.6006 31.9332 26.163C31.8175 25.7253 31.5334 25.3512 31.1429 25.1223L29.68 24.2789C29.8871 23.391 29.8871 22.4673 29.68 21.5794L31.1429 20.7337C31.5334 20.5048 31.8175 20.1307 31.9332 19.693C32.0489 19.2554 31.9868 18.7897 31.7605 18.3977C31.5341 18.0056 31.1619 17.719 30.725 17.6004C30.2882 17.4818 29.8221 17.5408 29.4286 17.7646L27.9657 18.6103C27.3007 17.9877 26.5015 17.5263 25.6297 17.2617V15.5703ZM21.7669 21.6823L21.7166 21.7623C21.5116 22.149 21.4122 22.5829 21.4282 23.0203C21.4443 23.4576 21.5753 23.8831 21.808 24.2537C22.2469 24.9509 23.024 25.4149 23.9086 25.4194H23.9246C24.3603 25.4176 24.788 25.3013 25.1646 25.0823C25.5413 24.8632 25.8538 24.5489 26.0708 24.171C26.2878 23.7932 26.4017 23.3649 26.4011 22.9291C26.4005 22.4934 26.2854 22.0654 26.0674 21.6881C25.8493 21.3109 25.5359 20.9975 25.1587 20.7795C24.7814 20.5614 24.3534 20.4463 23.9177 20.4457C23.4819 20.4451 23.0536 20.5591 22.6758 20.7761C22.2979 20.9931 21.9859 21.3056 21.7669 21.6823Z" fill="#2C7756"/>
</g>
<defs>
<clipPath id="clip0_9469_49491">
<rect width="32" height="32" fill="white"/>
</clipPath>
</defs>
</svg>
