<svg width="32" height="32" viewBox="0 0 32 32" fill="none" xmlns="http://www.w3.org/2000/svg">
<path d="M15.9987 16C18.496 16 20.7587 16.8267 22.4187 17.9827C23.996 19.0827 25.332 20.7173 25.332 22.476C25.332 23.4413 24.92 24.2413 24.2707 24.836C23.66 25.3973 22.8627 25.7613 22.0414 26.0093C20.4 26.5067 18.2387 26.6667 15.9987 26.6667C13.7587 26.6667 11.5974 26.5067 9.95603 26.0093C9.1347 25.7613 8.33736 25.3973 7.72536 24.836C7.0787 24.2427 6.66536 23.4427 6.66536 22.4773C6.66536 20.7187 8.00136 19.084 9.5787 17.984C11.2387 16.8267 13.5014 16 15.9987 16ZM25.332 17.3333C26.724 17.3333 27.988 17.7933 28.9227 18.444C29.776 19.04 30.6654 20.0307 30.6654 21.2387C30.6654 21.928 30.3654 22.5 29.9187 22.9093C29.5107 23.284 29.0067 23.504 28.5467 23.6427C27.92 23.832 27.18 23.9293 26.412 23.972C26.5747 23.512 26.6654 23.012 26.6654 22.476C26.6654 20.4293 25.3867 18.6907 23.956 17.484C24.4079 17.3842 24.8693 17.3337 25.332 17.3333ZM6.66536 17.3333C7.1427 17.3351 7.60136 17.3853 8.04136 17.484C6.61203 18.6907 5.33203 20.4293 5.33203 22.476C5.33203 23.012 5.4227 23.512 5.58537 23.972C4.81737 23.9293 4.0787 23.832 3.4507 23.6427C2.9907 23.504 2.4867 23.284 2.07736 22.9093C1.84273 22.6991 1.65508 22.4418 1.52665 22.1542C1.39822 21.8665 1.3319 21.555 1.33203 21.24C1.33203 20.0333 2.22003 19.0413 3.0747 18.4453C4.13184 17.7206 5.38365 17.3329 6.66536 17.3333ZM24.6654 9.33333C25.5494 9.33333 26.3973 9.68452 27.0224 10.3096C27.6475 10.9348 27.9987 11.7826 27.9987 12.6667C27.9987 13.5507 27.6475 14.3986 27.0224 15.0237C26.3973 15.6488 25.5494 16 24.6654 16C23.7813 16 22.9335 15.6488 22.3083 15.0237C21.6832 14.3986 21.332 13.5507 21.332 12.6667C21.332 11.7826 21.6832 10.9348 22.3083 10.3096C22.9335 9.68452 23.7813 9.33333 24.6654 9.33333ZM7.33203 9.33333C8.21609 9.33333 9.06393 9.68452 9.68905 10.3096C10.3142 10.9348 10.6654 11.7826 10.6654 12.6667C10.6654 13.5507 10.3142 14.3986 9.68905 15.0237C9.06393 15.6488 8.21609 16 7.33203 16C6.44798 16 5.60013 15.6488 4.97501 15.0237C4.34989 14.3986 3.9987 13.5507 3.9987 12.6667C3.9987 11.7826 4.34989 10.9348 4.97501 10.3096C5.60013 9.68452 6.44798 9.33333 7.33203 9.33333ZM15.9987 4C17.4132 4 18.7697 4.5619 19.7699 5.5621C20.7701 6.56229 21.332 7.91885 21.332 9.33333C21.332 10.7478 20.7701 12.1044 19.7699 13.1046C18.7697 14.1048 17.4132 14.6667 15.9987 14.6667C14.5842 14.6667 13.2277 14.1048 12.2275 13.1046C11.2273 12.1044 10.6654 10.7478 10.6654 9.33333C10.6654 7.91885 11.2273 6.56229 12.2275 5.5621C13.2277 4.5619 14.5842 4 15.9987 4Z" fill="#BB3D72"/>
</svg>
