<svg width="80" height="80" viewBox="0 0 80 80" fill="none" xmlns="http://www.w3.org/2000/svg">
<circle cx="40" cy="40" r="40" fill="#0C6688"/>
<path d="M40.0007 40C43.9027 40 47.4382 41.2917 50.0319 43.0979C52.4965 44.8167 54.584 47.3708 54.584 50.1187C54.584 51.6271 53.9402 52.8771 52.9257 53.8063C51.9715 54.6833 50.7256 55.2521 49.4423 55.6396C46.8777 56.4167 43.5006 56.6667 40.0007 56.6667C36.5007 56.6667 33.1236 56.4167 30.559 55.6396C29.2757 55.2521 28.0298 54.6833 27.0736 53.8063C26.0632 52.8792 25.4173 51.6292 25.4173 50.1208C25.4173 47.3729 27.5048 44.8187 29.9694 43.1C32.5632 41.2917 36.0986 40 40.0007 40ZM54.584 42.0833C56.759 42.0833 58.734 42.8021 60.1944 43.8187C61.5277 44.75 62.9173 46.2979 62.9173 48.1854C62.9173 49.2625 62.4486 50.1562 61.7507 50.7958C61.1132 51.3812 60.3256 51.725 59.6069 51.9417C58.6277 52.2375 57.4715 52.3896 56.2715 52.4562C56.5256 51.7375 56.6673 50.9562 56.6673 50.1187C56.6673 46.9208 54.6694 44.2042 52.434 42.3187C53.14 42.1628 53.8609 42.0838 54.584 42.0833ZM25.4173 42.0833C26.1632 42.0861 26.8798 42.1646 27.5673 42.3187C25.334 44.2042 23.334 46.9208 23.334 50.1187C23.334 50.9562 23.4757 51.7375 23.7298 52.4562C22.5298 52.3896 21.3757 52.2375 20.3944 51.9417C19.6757 51.725 18.8882 51.3812 18.2486 50.7958C17.882 50.4674 17.5887 50.0653 17.3881 49.6159C17.1874 49.1664 17.0838 48.6797 17.084 48.1875C17.084 46.3021 18.4715 44.7521 19.8069 43.8208C21.4587 42.6884 23.4146 42.0827 25.4173 42.0833ZM53.5423 29.5833C54.9237 29.5833 56.2484 30.1321 57.2252 31.1088C58.2019 32.0856 58.7506 33.4103 58.7506 34.7917C58.7506 36.173 58.2019 37.4978 57.2252 38.4745C56.2484 39.4513 54.9237 40 53.5423 40C52.161 40 50.8362 39.4513 49.8595 38.4745C48.8827 37.4978 48.334 36.173 48.334 34.7917C48.334 33.4103 48.8827 32.0856 49.8595 31.1088C50.8362 30.1321 52.161 29.5833 53.5423 29.5833ZM26.459 29.5833C27.8403 29.5833 29.1651 30.1321 30.1418 31.1088C31.1186 32.0856 31.6673 33.4103 31.6673 34.7917C31.6673 36.173 31.1186 37.4978 30.1418 38.4745C29.1651 39.4513 27.8403 40 26.459 40C25.0776 40 23.7529 39.4513 22.7761 38.4745C21.7994 37.4978 21.2507 36.173 21.2507 34.7917C21.2507 33.4103 21.7994 32.0856 22.7761 31.1088C23.7529 30.1321 25.0776 29.5833 26.459 29.5833ZM40.0007 21.25C42.2108 21.25 44.3304 22.128 45.8932 23.6908C47.456 25.2536 48.334 27.3732 48.334 29.5833C48.334 31.7935 47.456 33.9131 45.8932 35.4759C44.3304 37.0387 42.2108 37.9167 40.0007 37.9167C37.7905 37.9167 35.6709 37.0387 34.1081 35.4759C32.5453 33.9131 31.6673 31.7935 31.6673 29.5833C31.6673 27.3732 32.5453 25.2536 34.1081 23.6908C35.6709 22.128 37.7905 21.25 40.0007 21.25Z" fill="white"/>
</svg>
