<svg width="75" height="61" viewBox="0 0 75 61" fill="none" xmlns="http://www.w3.org/2000/svg">
<path d="M43.8663 9.4376H43.7808V6.77222C43.7808 5.60997 42.838 4.66797 41.6765 4.66797H41.3258C40.1628 4.66797 39.2215 5.60997 39.2215 6.77222V9.4376H32.9963V6.77222C32.9963 5.60997 32.0536 4.66797 30.8921 4.66797H30.5413C29.3784 4.66797 28.4371 5.60997 28.4371 6.77222V9.4376H22.2119V6.77222C22.2119 5.60997 21.2692 4.66797 20.1076 4.66797H19.7569C18.5939 4.66797 17.6526 5.60997 17.6526 6.77222V9.4376H11.4275V6.77222C11.4275 5.60997 10.4848 4.66797 9.3232 4.66797H8.97248C7.80952 4.66797 6.8682 5.60997 6.8682 6.77222V9.4376H6.77492C3.36599 9.4376 0.609375 12.1949 0.609375 15.6031V24.483V52.694C0.609375 56.1029 3.36599 58.8665 6.77492 58.8665H43.8663C47.2753 58.8665 50.0389 56.1036 50.0389 52.694V24.483V15.6031C50.0389 12.1942 47.2753 9.4376 43.8663 9.4376Z" fill="#F29B30"/>
<path d="M68.2962 29.4355H62.8005H44.9008H39.4107C38.6721 29.4355 38.0703 30.0374 38.0703 30.7753V59.661C38.0703 60.3989 38.6721 61.0007 39.4107 61.0007H68.2962C69.0341 61.0007 69.6366 60.3989 69.6366 59.661V30.7753C69.6366 30.0374 69.0341 29.4355 68.2962 29.4355Z" fill="#F29B30"/>
<path d="M55.4334 20.8164V49.0274C55.4334 52.4363 52.6705 55.1999 49.2609 55.1999H12.1694C8.76052 55.1999 6.00391 52.437 6.00391 49.0274V20.8164H55.4334Z" fill="white"/>
<path d="M55.4334 11.937V20.8169H6.00391V11.937C6.00391 8.52876 8.76052 5.77148 12.1694 5.77148H49.2609C52.6705 5.77148 55.4334 8.52876 55.4334 11.937Z" fill="#CF386A"/>
<path d="M55.4334 20.8169V49.0279C55.4334 52.4368 52.6705 55.2004 49.2609 55.2004H12.1694C8.76052 55.2004 6.00391 52.4375 6.00391 49.0279V20.8169V11.937C6.00391 8.52876 8.76052 5.77148 12.1694 5.77148H49.2609C52.6698 5.77148 55.4334 8.52876 55.4334 11.937V20.8169Z" stroke="#402318" stroke-width="2" stroke-miterlimit="10" strokeLinecap="round" strokeLinejoin="round"/>
<path d="M6.00391 20.8164H55.4327" stroke="#402318" stroke-width="2" stroke-miterlimit="10" strokeLinecap="round" strokeLinejoin="round"/>
<path d="M16.821 8.01418C16.821 9.17642 15.8783 10.1184 14.7167 10.1184H14.366C13.203 10.1184 12.2617 9.17642 12.2617 8.01418V3.10425C12.2617 1.942 13.203 1 14.366 1H14.7167C15.8783 1 16.821 1.942 16.821 3.10425V8.01418Z" fill="#45484D" stroke="#402318" stroke-width="2" stroke-miterlimit="10" strokeLinecap="round" strokeLinejoin="round"/>
<path d="M27.6061 8.01418C27.6061 9.17642 26.6634 10.1184 25.5019 10.1184H25.1512C23.9882 10.1184 23.0469 9.17642 23.0469 8.01418V3.10425C23.0469 1.942 23.9882 1 25.1512 1H25.5019C26.6634 1 27.6061 1.942 27.6061 3.10425V8.01418Z" fill="#45484D" stroke="#402318" stroke-width="2" stroke-miterlimit="10" strokeLinecap="round" strokeLinejoin="round"/>
<path d="M38.3913 8.01418C38.3913 9.17642 37.4486 10.1184 36.287 10.1184H35.9363C34.7733 10.1184 33.832 9.17642 33.832 8.01418V3.10425C33.832 1.942 34.7733 1 35.9363 1H36.287C37.4486 1 38.3913 1.942 38.3913 3.10425V8.01418Z" fill="#45484D" stroke="#402318" stroke-width="2" stroke-miterlimit="10" strokeLinecap="round" strokeLinejoin="round"/>
<path d="M49.1726 8.01418C49.1726 9.17642 48.2298 10.1184 47.0683 10.1184H46.7176C45.5546 10.1184 44.6133 9.17642 44.6133 8.01418V3.10425C44.6133 1.942 45.5546 1 46.7176 1H47.0683C48.2298 1 49.1726 1.942 49.1726 3.10425V8.01418Z" fill="#45484D" stroke="#402318" stroke-width="2" stroke-miterlimit="10" strokeLinecap="round" strokeLinejoin="round"/>
<path d="M12.9336 27.6895H17.2081" stroke="#402318" stroke-width="2" stroke-miterlimit="10" strokeLinecap="round" strokeLinejoin="round"/>
<path d="M12.9336 34.5684H17.2081" stroke="#402318" stroke-width="2" stroke-miterlimit="10" strokeLinecap="round" strokeLinejoin="round"/>
<path d="M12.9336 41.4453H17.2081" stroke="#402318" stroke-width="2" stroke-miterlimit="10" strokeLinecap="round" strokeLinejoin="round"/>
<path d="M12.9336 48.3223H17.2081" stroke="#402318" stroke-width="2" stroke-miterlimit="10" strokeLinecap="round" strokeLinejoin="round"/>
<path d="M23.3633 27.6895H27.6378" stroke="#402318" stroke-width="2" stroke-miterlimit="10" strokeLinecap="round" strokeLinejoin="round"/>
<path d="M23.3633 34.5684H27.6378" stroke="#402318" stroke-width="2" stroke-miterlimit="10" strokeLinecap="round" strokeLinejoin="round"/>
<path d="M23.3633 41.4453H27.6378" stroke="#402318" stroke-width="2" stroke-miterlimit="10" strokeLinecap="round" strokeLinejoin="round"/>
<path d="M23.3633 48.3223H27.6378" stroke="#402318" stroke-width="2" stroke-miterlimit="10" strokeLinecap="round" strokeLinejoin="round"/>
<path d="M33.7969 27.6895H38.0714" stroke="#402318" stroke-width="2" stroke-miterlimit="10" strokeLinecap="round" strokeLinejoin="round"/>
<path d="M33.7969 34.5684H38.0714" stroke="#402318" stroke-width="2" stroke-miterlimit="10" strokeLinecap="round" strokeLinejoin="round"/>
<path d="M33.7969 41.4453H38.0714" stroke="#402318" stroke-width="2" stroke-miterlimit="10" strokeLinecap="round" strokeLinejoin="round"/>
<path d="M33.7969 48.3223H38.0714" stroke="#402318" stroke-width="2" stroke-miterlimit="10" strokeLinecap="round" strokeLinejoin="round"/>
<path d="M44.2266 27.6895H48.5018" stroke="#402318" stroke-width="2" stroke-miterlimit="10" strokeLinecap="round" strokeLinejoin="round"/>
<path d="M44.2266 34.5684H48.5018" stroke="#402318" stroke-width="2" stroke-miterlimit="10" strokeLinecap="round" strokeLinejoin="round"/>
<path d="M44.2266 41.4453H48.5018" stroke="#402318" stroke-width="2" stroke-miterlimit="10" strokeLinecap="round" strokeLinejoin="round"/>
<path d="M44.2266 48.3223H48.5018" stroke="#402318" stroke-width="2" stroke-miterlimit="10" strokeLinecap="round" strokeLinejoin="round"/>
<path d="M66.5559 23.3711V25.3428H48.6562V23.3711C48.6562 21.9592 49.8073 20.8145 51.2178 20.8145H63.9992C65.4098 20.8145 66.5559 21.9592 66.5559 23.3711Z" fill="#45484D"/>
<path d="M57.604 28.4707C64.5937 28.4707 70.2606 34.1318 70.2606 41.1208C70.2606 48.1111 64.5937 53.7779 57.604 53.7779C50.6143 53.7779 44.9531 48.1111 44.9531 41.1208C44.9531 34.1325 50.6143 28.4707 57.604 28.4707Z" fill="white"/>
<path d="M73.3905 26.6815V55.5673C73.3905 56.3052 72.788 56.907 72.0501 56.907H43.1646C42.426 56.907 41.8242 56.3052 41.8242 55.5673V26.6815C41.8242 25.9436 42.426 25.3418 43.1646 25.3418H48.6547H66.5544H72.0501C72.788 25.3411 73.3905 25.9436 73.3905 26.6815ZM70.2607 41.1209C70.2607 34.132 64.5939 28.4708 57.6042 28.4708C50.6145 28.4708 44.9533 34.132 44.9533 41.1209C44.9533 48.1112 50.6145 53.778 57.6042 53.778C64.5939 53.7773 70.2607 48.1105 70.2607 41.1209Z" fill="#64C753"/>
<path d="M66.5544 25.3398H72.0501C72.788 25.3398 73.3905 25.9417 73.3905 26.6796V55.5653C73.3905 56.3032 72.788 56.905 72.0501 56.905H43.1646C42.426 56.905 41.8242 56.3032 41.8242 55.5653V26.6796C41.8242 25.9417 42.426 25.3398 43.1646 25.3398H48.6547H66.5544Z" stroke="#402318" stroke-width="2" stroke-miterlimit="10" strokeLinecap="round" strokeLinejoin="round"/>
<path d="M70.2606 41.1208C70.2606 48.1111 64.5937 53.7779 57.604 53.7779C50.6143 53.7779 44.9531 48.1111 44.9531 41.1208C44.9531 34.1318 50.6143 28.4707 57.604 28.4707C64.5937 28.47 70.2606 34.1318 70.2606 41.1208Z" stroke="#402318" stroke-width="2" stroke-miterlimit="10" strokeLinecap="round" strokeLinejoin="round"/>
<path d="M57.6055 30.6426V31.7649" stroke="#402318" stroke-width="2" stroke-miterlimit="10" strokeLinecap="round" strokeLinejoin="round"/>
<path d="M47.125 41.1211H48.2459" stroke="#402318" stroke-width="2" stroke-miterlimit="10" strokeLinecap="round" strokeLinejoin="round"/>
<path d="M57.6055 51.5984V50.4824" stroke="#402318" stroke-width="2" stroke-miterlimit="10" strokeLinecap="round" strokeLinejoin="round"/>
<path d="M68.0847 41.1211H66.9688" stroke="#402318" stroke-width="2" stroke-miterlimit="10" strokeLinecap="round" strokeLinejoin="round"/>
<path d="M57.6055 34.8281V41.1205L60.0254 43.5411" stroke="#402318" stroke-width="2" stroke-miterlimit="10" strokeLinecap="round" strokeLinejoin="round"/>
<path d="M48.6562 25.3408V23.3692C48.6562 21.9572 49.8073 20.8125 51.2178 20.8125H63.9992C65.4098 20.8125 66.5559 21.9572 66.5559 23.3692V25.3408" stroke="#402318" stroke-width="2" stroke-miterlimit="10" strokeLinecap="round" strokeLinejoin="round"/>
</svg>
