<svg width="1500" height="790" viewBox="0 0 1500 790" fill="none" xmlns="http://www.w3.org/2000/svg">
<g clip-path="url(#clip0_7891_114876)">
<mask id="mask0_7891_114876" style="mask-type:luminance" maskUnits="userSpaceOnUse" x="0" y="0" width="1500" height="790">
<path d="M0 789.474L1500 789.474V-6.10352e-05L0 -6.10352e-05V789.474Z" fill="white"/>
</mask>
<g mask="url(#mask0_7891_114876)">
<g opacity="0.16">
<path d="M-56.0681 110.536C-58.3781 183.371 -32.8481 245.929 5.68615 281.181C12.894 287.776 17.5993 298.669 18.5514 310.748C18.6035 311.402 18.6572 312.057 18.7156 312.711C25.7814 392.683 78.6983 448.862 135.064 438.03C188.978 427.667 227.79 387.428 222.057 309.935C222.03 309.57 222 309.04 221.969 308.368C220.968 287.25 232.702 269.495 247.638 268.996C250.77 268.892 253.924 268.607 257.094 268.14C321.416 258.647 368.075 177.002 361.226 85.8506C358.093 44.1616 344.162 7.64845 323.814 -18.72H-11.4754C-36.9612 15.7295 -54.5775 63.5211 -56.0681 110.536Z" fill="#0F5776"/>
</g>
<g opacity="0.16">
<path d="M15.2488 66.4061C13.7267 114.374 30.5425 155.576 55.9193 178.792C60.6672 183.136 63.7651 190.311 64.3919 198.266C64.4251 198.697 64.4614 199.128 64.4993 199.559C69.1525 252.228 104.005 289.229 141.126 282.093C176.633 275.269 202.195 248.767 198.419 197.73C198.402 197.49 198.383 197.141 198.361 196.699C197.701 182.79 205.43 171.098 215.265 170.768C217.329 170.699 219.405 170.512 221.492 170.204C263.854 163.952 294.584 110.181 290.072 50.1492C288.009 22.6929 278.835 -1.35446 265.435 -18.7197H44.6188C27.833 3.96659 16.2309 35.4429 15.2488 66.4061Z" fill="#0F5776"/>
</g>
<path opacity="0.33" d="M712.466 367.762C719.529 331.299 698.132 293.471 661.201 277.124C604.611 252.075 590.456 181.899 634.524 144.87C663.283 120.704 668.773 79.675 647.679 46.5644C615.354 -4.1703 647.186 -66.0966 707.668 -70.1403C747.14 -72.7787 777.419 -101.336 780.217 -138.564C784.504 -195.607 850.164 -225.629 903.959 -195.142C939.067 -175.246 982.569 -180.425 1008.19 -207.548C1047.45 -249.111 1121.86 -235.761 1148.42 -182.389C1165.75 -147.558 1205.86 -127.379 1244.52 -134.039C1303.76 -144.245 1358.5 -92.6229 1347.67 -36.7519C1340.61 -0.289233 1362.01 37.5392 1398.94 53.886C1455.53 78.9344 1469.68 149.111 1425.62 186.14C1396.86 210.306 1391.37 251.335 1412.46 284.445C1444.79 335.18 1412.95 397.107 1352.47 401.15C1313 403.789 1282.72 432.347 1279.92 469.574C1275.64 526.617 1209.98 556.639 1156.18 526.152C1121.07 506.256 1077.57 511.433 1051.95 538.558C1012.69 580.121 938.279 566.771 911.721 513.399C894.389 478.568 854.279 458.389 815.619 465.049C756.378 475.255 701.644 423.633 712.466 367.762Z" stroke="#0F5776" stroke-width="1.57895" stroke-miterlimit="10"/>
<path opacity="0.33" d="M704.296 254.902C711.808 216.115 689.048 175.875 649.762 158.486C589.565 131.842 574.508 57.1922 621.385 17.8022C651.979 -7.90466 657.818 -51.5483 635.378 -86.7699C600.993 -140.74 634.854 -206.612 699.191 -210.913C741.178 -213.72 773.389 -244.098 776.365 -283.698C780.925 -344.377 850.772 -376.313 907.994 -343.883C945.34 -322.718 991.615 -328.226 1018.87 -357.079C1060.64 -401.292 1139.79 -387.09 1168.04 -330.316C1186.48 -293.265 1229.14 -271.799 1270.27 -278.884C1333.28 -289.74 1391.51 -234.828 1380 -175.395C1372.48 -136.608 1395.24 -96.3683 1434.53 -78.9794C1494.73 -52.3347 1509.78 22.3148 1462.91 61.7048C1432.31 87.4117 1426.47 131.055 1448.91 166.277C1483.3 220.247 1449.44 286.119 1385.1 290.42C1343.11 293.227 1310.9 323.605 1307.93 363.205C1303.37 423.884 1233.52 455.82 1176.3 423.39C1138.95 402.225 1092.68 407.733 1065.42 436.586C1023.66 480.798 944.506 466.597 916.255 409.823C897.818 372.772 855.152 351.306 814.026 358.391C751.007 369.247 692.784 314.335 704.296 254.902Z" fill="#0F5776"/>
<path opacity="0.14" d="M69.4334 1238.52C76.6144 1201.44 54.8565 1162.97 17.3012 1146.35C-40.2466 1120.88 -54.6403 1049.51 -9.82665 1011.86C19.4202 987.282 25.0018 945.56 3.5502 911.889C-29.3219 860.296 3.04809 797.322 64.5544 793.211C104.694 790.527 135.485 761.487 138.331 723.63C142.69 665.622 209.461 635.093 264.165 666.094C299.867 686.327 344.104 681.061 370.161 653.479C410.088 611.213 485.754 624.789 512.762 679.064C530.388 714.484 571.177 735.004 610.491 728.232C670.733 717.854 726.394 770.349 715.389 827.164C708.208 864.244 729.965 902.712 767.521 919.335C825.069 944.807 839.462 1016.17 794.649 1053.83C765.402 1078.4 759.819 1120.12 781.272 1153.79C814.144 1205.39 781.774 1268.36 720.268 1272.47C680.128 1275.16 649.337 1304.2 646.491 1342.05C642.132 1400.06 575.361 1430.59 520.657 1399.59C484.955 1379.36 440.718 1384.62 414.661 1412.21C374.734 1454.47 299.068 1440.9 272.06 1386.62C254.434 1351.2 213.647 1330.68 174.331 1337.45C114.089 1347.83 58.4281 1295.34 69.4334 1238.52Z" fill="#0F5776"/>
<path opacity="0.33" d="M109.888 1282.99C116.192 1250.45 97.0942 1216.68 64.1305 1202.09C13.62 1179.73 0.985219 1117.1 40.32 1084.04C65.9905 1062.47 70.8915 1025.85 52.061 996.3C23.2089 951.014 51.6205 895.741 105.606 892.132C140.839 889.776 167.864 864.287 170.362 831.058C174.189 780.142 232.795 753.345 280.811 780.557C312.147 798.315 350.976 793.694 373.847 769.484C408.892 732.386 475.307 744.303 499.012 791.941C514.483 823.031 550.284 841.043 584.792 835.097C637.667 825.988 686.523 872.065 676.865 921.933C670.562 954.478 689.659 988.244 722.623 1002.83C773.133 1025.19 785.768 1087.83 746.433 1120.88C720.763 1142.45 715.863 1179.07 734.692 1208.63C763.544 1253.91 735.133 1309.19 681.147 1312.79C645.914 1315.15 618.889 1340.64 616.391 1373.87C612.564 1424.78 553.958 1451.58 505.942 1424.37C474.606 1406.61 435.777 1411.23 412.906 1435.44C377.861 1472.54 311.446 1460.62 287.741 1412.99C272.27 1381.9 236.469 1363.88 201.962 1369.83C149.086 1378.94 100.23 1332.86 109.888 1282.99Z" stroke="#0F5776" stroke-width="1.57895" stroke-miterlimit="10"/>
<g opacity="0.16">
<path d="M1427.01 678.002C1429.55 614.692 1401.53 560.316 1359.26 529.675C1351.35 523.944 1346.18 514.475 1345.14 503.975C1345.08 503.406 1345.02 502.838 1344.96 502.268C1337.21 432.755 1279.15 383.923 1217.3 393.339C1158.15 402.346 1115.57 437.323 1121.86 504.682C1121.89 504.999 1121.92 505.46 1121.95 506.043C1123.05 524.398 1110.18 539.833 1093.79 540.267C1090.35 540.358 1086.89 540.605 1083.41 541.011C1012.84 549.262 961.648 620.229 969.164 699.458C972.601 735.695 987.886 767.433 1010.21 790.352H1378.08C1406.05 760.408 1425.38 718.866 1427.01 678.002Z" fill="#0F5776"/>
</g>
<g opacity="0.16">
<path d="M1463.53 813.103C1464.82 772.411 1450.56 737.459 1429.03 717.763C1425 714.078 1422.37 707.993 1421.84 701.245C1421.81 700.88 1421.78 700.513 1421.75 700.147C1417.8 655.466 1388.24 624.078 1356.75 630.132C1326.62 635.922 1304.94 658.403 1308.14 701.699C1308.16 701.903 1308.17 702.2 1308.19 702.574C1308.75 714.373 1302.2 724.292 1293.85 724.572C1292.1 724.63 1290.34 724.788 1288.57 725.05C1252.63 730.354 1226.56 775.97 1230.39 826.896C1232.14 850.187 1239.92 870.587 1251.29 885.318H1438.61C1452.86 866.072 1462.7 839.371 1463.53 813.103Z" fill="#0F5776"/>
</g>
</g>
<mask id="mask1_7891_114876" style="mask-type:luminance" maskUnits="userSpaceOnUse" x="0" y="0" width="1500" height="790">
<path d="M1500 0.00537109L0 0.00537109L0 789.479L1500 789.479L1500 0.00537109Z" fill="white"/>
</mask>
<g mask="url(#mask1_7891_114876)">
<path d="M0 789.476L1500 789.476V0.00238037L0 0.00238037V789.476Z" fill="#1D333C"/>
</g>
<g opacity="0.59">
<mask id="mask2_7891_114876" style="mask-type:luminance" maskUnits="userSpaceOnUse" x="0" y="0" width="1500" height="790">
<path d="M0 789.474L1500 789.474V-6.10352e-05L0 -6.10352e-05V789.474Z" fill="white"/>
</mask>
<g mask="url(#mask2_7891_114876)">
<path d="M781.701 1136.94C744.454 1136.94 710.393 1122.4 688.254 1097.05C665.361 1070.84 659.38 1038.19 671.844 1007.48L672.52 1005.84C684.86 976.21 666.097 950.574 646.234 923.433C637.322 911.257 628.106 898.666 622.027 885.739C605.821 851.28 599.045 807.591 603.436 765.874C609.394 709.278 638.806 655.606 684.129 618.621C750.871 564.155 857.101 541.088 968.297 556.908C978.484 558.357 988.813 560.111 998.802 561.809C1029 566.939 1060.22 572.246 1091.61 569.809C1138.27 566.195 1181.39 546.029 1223.09 526.527C1235.83 520.568 1249.01 514.407 1262.07 508.822C1346.15 472.865 1432.85 460.131 1506.18 472.965C1602.93 489.899 1673.71 553.155 1682.33 630.371C1684.16 646.816 1677 668.317 1669.43 691.079C1660.4 718.199 1651.07 746.244 1658.15 765.01C1662.05 775.344 1673.15 791.847 1687.21 812.738C1720.85 862.756 1766.93 931.254 1765.26 988.601C1763 1066.14 1742.26 1093.3 1713.56 1130.88L1709.25 1136.54L1707.51 1135.65L1711.83 1129.98C1740.36 1092.63 1760.97 1065.64 1763.22 988.562C1764.87 931.672 1718.95 863.405 1685.42 813.556C1671.31 792.578 1660.16 776.009 1656.2 765.51C1648.94 746.272 1658.36 717.987 1667.46 690.633C1674.98 668.023 1682.09 646.666 1680.29 630.526C1671.77 554.048 1601.63 491.391 1505.77 474.613C1432.89 461.853 1346.68 474.537 1263.01 510.318C1249.99 515.887 1236.83 522.041 1224.1 527.992C1182.21 547.582 1138.9 567.839 1091.8 571.488C1060.11 573.94 1028.73 568.614 998.393 563.459C988.419 561.765 978.107 560.012 967.952 558.567C857.402 542.838 751.843 565.734 685.569 619.818C640.586 656.527 611.393 709.815 605.475 766.019C601.109 807.488 607.837 850.903 623.934 885.13C629.95 897.921 639.119 910.448 647.985 922.562C667.218 948.839 687.105 976.012 674.456 1006.38L673.783 1008.01C661.531 1038.21 667.411 1070.3 689.914 1096.06C711.664 1120.97 745.12 1135.25 781.703 1135.25V1136.94H781.701Z" fill="#0F5776"/>
</g>
<mask id="mask3_7891_114876" style="mask-type:luminance" maskUnits="userSpaceOnUse" x="0" y="0" width="1500" height="790">
<path d="M0 789.474L1500 789.474V-6.10352e-05L0 -6.10352e-05V789.474Z" fill="white"/>
</mask>
<g mask="url(#mask3_7891_114876)">
<path d="M899.296 1136.94C872.847 1136.94 848.663 1126.38 832.943 1107.97C816.69 1088.94 812.445 1065.24 821.293 1042.94L821.771 1041.75C830.457 1020.43 817.218 1001.93 803.202 982.342C796.889 973.523 790.365 964.405 786.053 955.032C774.57 930.066 769.77 898.413 772.881 868.193C777.102 827.187 797.942 788.297 830.056 761.496C877.344 722.032 952.6 705.317 1031.36 716.776C1038.57 717.826 1045.88 719.095 1052.95 720.323C1074.29 724.031 1096.36 727.861 1118.52 726.107C1151.47 723.497 1181.95 708.92 1211.42 694.823C1220.44 690.511 1229.77 686.052 1239.01 682.009C1298.56 655.969 1359.96 646.743 1411.91 656.043C1480.49 668.318 1530.66 714.175 1536.76 770.153C1538.07 782.097 1533 797.675 1527.63 814.165C1521.26 833.753 1514.67 854.007 1519.65 867.515C1522.4 874.967 1530.25 886.898 1540.18 902C1564 938.215 1596.62 987.81 1595.44 1029.37C1593.83 1085.54 1579.15 1105.21 1558.81 1132.44L1555.76 1136.53L1554.03 1135.62L1557.09 1131.52C1577.24 1104.53 1591.81 1085.03 1593.39 1029.33C1594.57 988.236 1562.1 938.878 1538.39 902.837C1528.4 887.648 1520.51 875.649 1517.7 868.028C1512.54 854.038 1519.21 833.537 1525.66 813.71C1530.98 797.374 1536 781.943 1534.73 770.313C1528.71 715.091 1479.18 669.846 1411.49 657.729C1360 648.511 1299.08 657.677 1239.95 683.539C1230.74 687.567 1221.43 692.018 1212.43 696.322C1182.77 710.509 1152.1 725.179 1118.71 727.823C1096.24 729.605 1074.02 725.744 1052.53 722.011C1045.48 720.786 1038.19 719.518 1031.01 718.475C952.894 707.109 878.309 723.649 831.49 762.721C799.715 789.24 779.094 827.736 774.913 868.342C771.828 898.309 776.58 929.679 787.954 954.41C792.199 963.644 798.679 972.698 804.945 981.453C818.588 1000.52 832.695 1020.23 823.698 1042.31L823.226 1043.49C814.587 1065.26 818.732 1088.4 834.596 1106.97C849.927 1124.92 873.507 1135.21 899.291 1135.21V1136.94H899.296Z" fill="#0F5776"/>
</g>
<mask id="mask4_7891_114876" style="mask-type:luminance" maskUnits="userSpaceOnUse" x="0" y="0" width="1500" height="790">
<path d="M0 789.474L1500 789.474V-6.10352e-05L0 -6.10352e-05V789.474Z" fill="white"/>
</mask>
<g mask="url(#mask4_7891_114876)">
<path d="M799.194 -444.24C836.066 -449.528 871.843 -439.972 897.356 -418.027C923.737 -395.332 934.292 -363.864 926.314 -331.691L925.878 -329.967C917.868 -298.89 940.08 -276.176 963.596 -252.131C974.146 -241.342 985.055 -230.189 992.909 -218.255C1013.84 -186.445 1026.75 -144.161 1028.33 -102.242C1030.46 -45.3745 1008.97 11.9303 969.354 54.9756C911.02 118.364 809.14 156.278 696.825 156.402C686.535 156.415 676.062 156.143 665.933 155.881C635.317 155.089 603.651 154.269 572.929 161.136C527.257 171.338 487.434 197.422 448.922 222.646C437.156 230.354 424.988 238.321 412.856 245.705C334.725 293.236 250.714 318.147 176.301 315.852C78.1347 312.824 -0.913742 260.258 -20.3995 185.044C-24.549 169.026 -20.5179 146.728 -16.2501 123.121C-11.1643 94.994 -5.90796 65.9098 -15.5822 48.3376C-20.9111 38.6619 -34.2406 23.9019 -51.118 5.21661C-91.5232 -39.5181 -146.859 -100.781 -153.345 -157.784C-162.115 -234.859 -145.443 -264.684 -122.368 -305.961L-118.899 -312.177L-117.058 -311.538L-120.528 -305.32C-143.464 -264.292 -160.034 -234.649 -151.318 -158.035C-144.884 -101.487 -89.7358 -40.4292 -49.4664 4.15396C-32.5195 22.915 -19.1348 37.735 -13.7222 47.5656C-3.80638 65.5782 -9.10847 94.9119 -14.2385 123.282C-18.4764 146.733 -22.4822 168.882 -18.4085 184.602C0.889404 259.096 79.2131 311.161 176.486 314.161C250.437 316.446 333.97 291.653 411.713 244.358C423.814 236.995 435.965 229.037 447.717 221.338C486.401 196.001 526.401 169.8 572.501 159.502C603.528 152.575 635.342 153.393 666.108 154.189C676.221 154.449 686.678 154.721 696.934 154.71C808.597 154.585 909.837 116.937 967.763 53.9934C1007.08 11.2703 1028.41 -45.6223 1026.29 -102.098C1024.72 -143.768 1011.9 -185.787 991.109 -217.383C983.339 -229.191 972.484 -240.289 961.988 -251.023C939.22 -274.303 915.676 -298.379 923.887 -330.236L924.321 -331.947C932.162 -363.575 921.787 -394.51 895.854 -416.817C870.788 -438.379 835.646 -447.768 799.433 -442.574L799.194 -444.24Z" fill="#0F5776"/>
</g>
<mask id="mask5_7891_114876" style="mask-type:luminance" maskUnits="userSpaceOnUse" x="0" y="0" width="1500" height="790">
<path d="M0 789.474L1500 789.474V-6.10352e-05L0 -6.10352e-05V789.474Z" fill="white"/>
</mask>
<g mask="url(#mask5_7891_114876)">
<path d="M682.788 -427.546C708.97 -431.3 734.408 -424.285 752.582 -408.297C771.371 -391.767 778.939 -368.907 773.345 -345.576L773.04 -344.33C767.47 -321.988 783.202 -305.556 799.856 -288.158C807.356 -280.325 815.11 -272.226 820.707 -263.559C835.617 -240.475 844.862 -209.825 846.071 -179.469C847.715 -138.278 832.606 -96.8256 804.622 -65.7362C763.418 -19.9593 691.297 7.26959 611.707 7.10696C604.42 7.09119 597.005 6.87173 589.833 6.66016C568.183 6.0191 545.792 5.36069 524.102 10.2428C491.858 17.5028 463.756 36.2591 436.582 54.398C428.269 59.9465 419.672 65.6844 411.098 70.9975C355.846 105.229 296.372 123.076 243.627 121.246C174.005 118.83 117.829 80.5596 103.841 26.0149C100.856 14.3765 103.663 -1.76196 106.636 -18.8477C110.163 -39.142 113.814 -60.1262 106.963 -72.7909C103.183 -79.7777 93.7219 -90.4735 81.744 -104.011C53.0245 -136.478 13.6914 -180.939 8.96557 -222.246C2.57714 -278.075 14.3245 -299.634 30.5845 -329.471L33.024 -333.957L34.8682 -333.297L32.4256 -328.809C16.3045 -299.225 4.65662 -277.852 10.9929 -222.496C15.665 -181.651 54.8103 -137.401 83.3924 -105.091C95.4398 -91.4746 104.954 -80.7172 108.821 -73.5725C115.917 -60.4577 112.222 -39.2177 108.649 -18.6756C105.706 -1.75089 102.926 14.236 105.832 25.5696C119.631 79.3786 175.079 117.133 243.806 119.517C296.083 121.333 355.083 103.611 409.947 69.6175C418.492 64.3233 427.072 58.5965 435.371 53.0575C462.719 34.8033 490.998 15.927 523.668 8.57065C545.662 3.61749 568.202 4.28381 590.001 4.9296C597.155 5.14117 604.554 5.36069 611.808 5.37646C690.747 5.53754 762.228 -21.4214 803.026 -66.7451C830.715 -97.5046 845.662 -138.54 844.036 -179.327C842.836 -209.428 833.678 -239.807 818.909 -262.674C813.395 -271.211 805.696 -279.254 798.25 -287.03C782.039 -303.965 765.277 -321.472 771.046 -344.608L771.346 -345.843C776.806 -368.618 769.42 -390.933 751.08 -407.068C733.355 -422.66 708.553 -429.504 683.029 -425.844L682.788 -427.546Z" fill="#0F5776"/>
</g>
</g>
<path d="M681.119 426.998C675.71 426.998 670.691 426.151 666.064 424.457C661.502 422.697 657.527 420.221 654.138 417.027C650.814 413.834 648.207 410.086 646.317 405.785C644.427 401.418 643.482 396.628 643.482 391.414C643.482 386.201 644.427 381.443 646.317 377.142C648.207 372.775 650.814 368.995 654.138 365.802C657.527 362.608 661.502 360.164 666.064 358.47C670.691 356.71 675.71 355.83 681.119 355.83C687.441 355.83 693.078 356.938 698.031 359.154C703.049 361.37 707.22 364.564 710.544 368.735L698.227 379.879C696.011 377.272 693.567 375.284 690.895 373.916C688.288 372.547 685.355 371.863 682.097 371.863C679.294 371.863 676.72 372.319 674.374 373.231C672.027 374.144 670.007 375.48 668.313 377.24C666.683 378.934 665.38 380.987 664.402 383.398C663.49 385.81 663.034 388.482 663.034 391.414C663.034 394.347 663.49 397.019 664.402 399.431C665.38 401.842 666.683 403.928 668.313 405.687C670.007 407.382 672.027 408.685 674.374 409.598C676.72 410.51 679.294 410.966 682.097 410.966C685.355 410.966 688.288 410.282 690.895 408.913C693.567 407.545 696.011 405.557 698.227 402.95L710.544 414.094C707.22 418.2 703.049 421.394 698.031 423.675C693.078 425.891 687.441 426.998 681.119 426.998ZM752.251 426.998C746.777 426.998 741.726 426.119 737.099 424.359C732.471 422.599 728.431 420.123 724.977 416.929C721.588 413.671 718.948 409.891 717.058 405.589C715.168 401.288 714.223 396.563 714.223 391.414C714.223 386.266 715.168 381.541 717.058 377.24C718.948 372.938 721.588 369.191 724.977 365.997C728.431 362.739 732.471 360.23 737.099 358.47C741.726 356.71 746.777 355.83 752.251 355.83C757.791 355.83 762.842 356.71 767.404 358.47C772.031 360.23 776.039 362.739 779.428 365.997C782.817 369.191 785.456 372.938 787.346 377.24C789.302 381.541 790.279 386.266 790.279 391.414C790.279 396.563 789.302 401.321 787.346 405.687C785.456 409.989 782.817 413.736 779.428 416.929C776.039 420.123 772.031 422.599 767.404 424.359C762.842 426.119 757.791 426.998 752.251 426.998ZM752.251 410.966C754.858 410.966 757.269 410.51 759.485 409.598C761.766 408.685 763.721 407.382 765.351 405.687C767.045 403.928 768.349 401.842 769.261 399.431C770.239 397.019 770.727 394.347 770.727 391.414C770.727 388.417 770.239 385.744 769.261 383.398C768.349 380.987 767.045 378.934 765.351 377.24C763.721 375.48 761.766 374.144 759.485 373.231C757.269 372.319 754.858 371.863 752.251 371.863C749.644 371.863 747.2 372.319 744.919 373.231C742.703 374.144 740.748 375.48 739.054 377.24C737.424 378.934 736.121 380.987 735.143 383.398C734.231 385.744 733.775 388.417 733.775 391.414C733.775 394.347 734.231 397.019 735.143 399.431C736.121 401.842 737.424 403.928 739.054 405.687C740.748 407.382 742.703 408.685 744.919 409.598C747.2 410.51 749.644 410.966 752.251 410.966ZM800.417 425.63V357.199H816.352L844.701 403.732H836.294L863.862 357.199H879.797L879.992 425.63H862.2L862.005 384.278H865.035L844.408 418.885H835.805L814.592 384.278H818.307V425.63H800.417ZM893.688 425.63V357.199H913.044V425.63H893.688ZM926.815 425.63V357.199H942.75L980.485 402.754H972.957V357.199H991.922V425.63H975.988L938.253 380.075H945.781V425.63H926.815ZM1039.79 426.998C1034.38 426.998 1029.36 426.151 1024.74 424.457C1020.11 422.697 1016.1 420.221 1012.71 417.027C1009.39 413.834 1006.78 410.086 1004.89 405.785C1003 401.418 1002.06 396.628 1002.06 391.414C1002.06 386.201 1003 381.443 1004.89 377.142C1006.78 372.775 1009.42 368.995 1012.81 365.802C1016.2 362.608 1020.21 360.164 1024.83 358.47C1029.53 356.71 1034.64 355.83 1040.18 355.83C1046.63 355.83 1052.4 356.906 1057.49 359.056C1062.57 361.207 1066.77 364.303 1070.1 368.344L1057.78 379.488C1055.43 376.946 1052.89 375.056 1050.15 373.818C1047.48 372.515 1044.48 371.863 1041.16 371.863C1038.23 371.863 1035.55 372.319 1033.14 373.231C1030.73 374.144 1028.68 375.48 1026.98 377.24C1025.29 378.934 1023.95 380.987 1022.98 383.398C1022.06 385.744 1021.61 388.417 1021.61 391.414C1021.61 394.282 1022.06 396.922 1022.98 399.333C1023.95 401.744 1025.29 403.83 1026.98 405.589C1028.68 407.284 1030.7 408.62 1033.05 409.598C1035.46 410.51 1038.1 410.966 1040.96 410.966C1043.83 410.966 1046.63 410.51 1049.37 409.598C1052.11 408.62 1054.88 406.991 1057.68 404.71L1068.53 418.298C1064.62 421.1 1060.09 423.251 1054.94 424.75C1049.8 426.249 1044.74 426.998 1039.79 426.998ZM1051.42 415.756V389.948H1068.53V418.298L1051.42 415.756ZM1133.3 426.998C1127.7 426.998 1122.29 426.314 1117.07 424.946C1111.93 423.512 1107.72 421.687 1104.46 419.471L1110.82 405.198C1113.88 407.154 1117.4 408.783 1121.38 410.086C1125.42 411.325 1129.42 411.944 1133.4 411.944C1136.07 411.944 1138.22 411.716 1139.85 411.259C1141.48 410.738 1142.65 410.086 1143.37 409.304C1144.15 408.457 1144.54 407.479 1144.54 406.371C1144.54 404.807 1143.83 403.569 1142.39 402.657C1140.96 401.744 1139.1 400.995 1136.82 400.408C1134.54 399.822 1132 399.235 1129.2 398.649C1126.46 398.062 1123.69 397.313 1120.89 396.4C1118.15 395.488 1115.64 394.315 1113.36 392.881C1111.08 391.382 1109.22 389.459 1107.79 387.113C1106.35 384.702 1105.64 381.671 1105.64 378.022C1105.64 373.916 1106.74 370.201 1108.96 366.877C1111.24 363.553 1114.63 360.881 1119.13 358.861C1123.62 356.841 1129.23 355.83 1135.94 355.83C1140.44 355.83 1144.84 356.352 1149.14 357.395C1153.5 358.372 1157.38 359.839 1160.77 361.794L1154.81 376.164C1151.55 374.405 1148.32 373.101 1145.13 372.254C1141.94 371.341 1138.84 370.885 1135.84 370.885C1133.17 370.885 1131.02 371.178 1129.39 371.765C1127.76 372.286 1126.59 373.003 1125.87 373.916C1125.16 374.828 1124.8 375.871 1124.8 377.044C1124.8 378.543 1125.48 379.749 1126.85 380.661C1128.28 381.508 1130.14 382.225 1132.42 382.812C1134.77 383.333 1137.31 383.887 1140.05 384.474C1142.85 385.06 1145.62 385.81 1148.36 386.722C1151.16 387.569 1153.7 388.742 1155.98 390.241C1158.26 391.675 1160.09 393.598 1161.46 396.009C1162.89 398.355 1163.61 401.321 1163.61 404.905C1163.61 408.881 1162.47 412.563 1160.19 415.952C1157.97 419.276 1154.61 421.948 1150.12 423.968C1145.68 425.988 1140.08 426.998 1133.3 426.998ZM1207.06 426.998C1201.58 426.998 1196.53 426.119 1191.9 424.359C1187.28 422.599 1183.24 420.123 1179.78 416.929C1176.39 413.671 1173.75 409.891 1171.86 405.589C1169.97 401.288 1169.03 396.563 1169.03 391.414C1169.03 386.266 1169.97 381.541 1171.86 377.24C1173.75 372.938 1176.39 369.191 1179.78 365.997C1183.24 362.739 1187.28 360.23 1191.9 358.47C1196.53 356.71 1201.58 355.83 1207.06 355.83C1212.6 355.83 1217.65 356.71 1222.21 358.47C1226.84 360.23 1230.84 362.739 1234.23 365.997C1237.62 369.191 1240.26 372.938 1242.15 377.24C1244.11 381.541 1245.08 386.266 1245.08 391.414C1245.08 396.563 1244.11 401.321 1242.15 405.687C1240.26 409.989 1237.62 413.736 1234.23 416.929C1230.84 420.123 1226.84 422.599 1222.21 424.359C1217.65 426.119 1212.6 426.998 1207.06 426.998ZM1207.06 410.966C1209.66 410.966 1212.07 410.51 1214.29 409.598C1216.57 408.685 1218.53 407.382 1220.16 405.687C1221.85 403.928 1223.15 401.842 1224.07 399.431C1225.04 397.019 1225.53 394.347 1225.53 391.414C1225.53 388.417 1225.04 385.744 1224.07 383.398C1223.15 380.987 1221.85 378.934 1220.16 377.24C1218.53 375.48 1216.57 374.144 1214.29 373.231C1212.07 372.319 1209.66 371.863 1207.06 371.863C1204.45 371.863 1202.01 372.319 1199.72 373.231C1197.51 374.144 1195.55 375.48 1193.86 377.24C1192.23 378.934 1190.93 380.987 1189.95 383.398C1189.04 385.744 1188.58 388.417 1188.58 391.414C1188.58 394.347 1189.04 397.019 1189.95 399.431C1190.93 401.842 1192.23 403.928 1193.86 405.687C1195.55 407.382 1197.51 408.685 1199.72 409.598C1202.01 410.51 1204.45 410.966 1207.06 410.966ZM1289.73 426.998C1284.26 426.998 1279.21 426.119 1274.58 424.359C1269.95 422.599 1265.91 420.123 1262.46 416.929C1259.07 413.671 1256.43 409.891 1254.54 405.589C1252.65 401.288 1251.7 396.563 1251.7 391.414C1251.7 386.266 1252.65 381.541 1254.54 377.24C1256.43 372.938 1259.07 369.191 1262.46 365.997C1265.91 362.739 1269.95 360.23 1274.58 358.47C1279.21 356.71 1284.26 355.83 1289.73 355.83C1295.27 355.83 1300.32 356.71 1304.88 358.47C1309.51 360.23 1313.52 362.739 1316.91 365.997C1320.3 369.191 1322.94 372.938 1324.83 377.24C1326.78 381.541 1327.76 386.266 1327.76 391.414C1327.76 396.563 1326.78 401.321 1324.83 405.687C1322.94 409.989 1320.3 413.736 1316.91 416.929C1313.52 420.123 1309.51 422.599 1304.88 424.359C1300.32 426.119 1295.27 426.998 1289.73 426.998ZM1289.73 410.966C1292.34 410.966 1294.75 410.51 1296.97 409.598C1299.25 408.685 1301.2 407.382 1302.83 405.687C1304.53 403.928 1305.83 401.842 1306.74 399.431C1307.72 397.019 1308.21 394.347 1308.21 391.414C1308.21 388.417 1307.72 385.744 1306.74 383.398C1305.83 380.987 1304.53 378.934 1302.83 377.24C1301.2 375.48 1299.25 374.144 1296.97 373.231C1294.75 372.319 1292.34 371.863 1289.73 371.863C1287.12 371.863 1284.68 372.319 1282.4 373.231C1280.18 374.144 1278.23 375.48 1276.53 377.24C1274.9 378.934 1273.6 380.987 1272.62 383.398C1271.71 385.744 1271.25 388.417 1271.25 391.414C1271.25 394.347 1271.71 397.019 1272.62 399.431C1273.6 401.842 1274.9 403.928 1276.53 405.687C1278.23 407.382 1280.18 408.685 1282.4 409.598C1284.68 410.51 1287.12 410.966 1289.73 410.966ZM1337.9 425.63V357.199H1353.83L1391.57 402.754H1384.04V357.199H1403V425.63H1387.07L1349.33 380.075H1356.86V425.63H1337.9Z" fill="#00A7FF"/>
<path d="M950.547 500.087C948.424 500.087 946.391 499.809 944.446 499.253C942.5 498.672 940.934 497.927 939.747 497.017L941.831 492.394C942.968 493.202 944.307 493.872 945.848 494.402C947.414 494.908 948.993 495.16 950.584 495.16C951.797 495.16 952.77 495.047 953.502 494.819C954.26 494.567 954.816 494.226 955.17 493.796C955.523 493.367 955.7 492.874 955.7 492.318C955.7 491.611 955.422 491.055 954.867 490.651C954.311 490.221 953.578 489.88 952.669 489.628C951.759 489.35 950.749 489.097 949.637 488.87C948.551 488.617 947.452 488.314 946.34 487.96C945.254 487.607 944.256 487.152 943.347 486.596C942.437 486.04 941.692 485.308 941.111 484.398C940.555 483.489 940.277 482.327 940.277 480.912C940.277 479.396 940.681 478.019 941.49 476.781C942.323 475.518 943.561 474.52 945.203 473.788C946.871 473.03 948.955 472.651 951.456 472.651C953.123 472.651 954.766 472.853 956.382 473.257C957.999 473.636 959.427 474.217 960.664 475L958.77 479.661C957.532 478.954 956.294 478.436 955.056 478.108C953.818 477.754 952.606 477.577 951.418 477.577C950.231 477.577 949.258 477.716 948.5 477.994C947.742 478.272 947.199 478.638 946.871 479.093C946.542 479.522 946.378 480.028 946.378 480.609C946.378 481.291 946.656 481.847 947.212 482.276C947.768 482.68 948.5 483.009 949.41 483.261C950.319 483.514 951.317 483.767 952.403 484.019C953.515 484.272 954.614 484.562 955.7 484.891C956.812 485.219 957.822 485.661 958.732 486.217C959.641 486.773 960.374 487.506 960.93 488.415C961.511 489.324 961.801 490.474 961.801 491.863C961.801 493.354 961.384 494.718 960.551 495.956C959.717 497.194 958.467 498.192 956.799 498.95C955.157 499.708 953.073 500.087 950.547 500.087ZM971.121 499.632V478.108H962.632V473.106H985.748V478.108H977.26V499.632H971.121ZM984.233 499.632L996.056 473.106H1002.12L1013.98 499.632H1007.54L997.837 476.213H1000.26L990.523 499.632H984.233ZM990.144 493.948L991.774 489.287H1005.42L1007.08 493.948H990.144ZM1021.7 499.632V488.794L1023.1 492.508L1011.43 473.106H1017.95L1026.89 487.998H1023.14L1032.12 473.106H1038.14L1026.47 492.508L1027.84 488.794V499.632H1021.7ZM1056.94 499.632V478.108H1048.45V473.106H1071.57V478.108H1063.08V499.632H1056.94ZM1086.21 500.087C1082.45 500.087 1079.5 499.038 1077.38 496.941C1075.26 494.844 1074.2 491.851 1074.2 487.96V473.106H1080.34V487.733C1080.34 490.259 1080.85 492.078 1081.89 493.19C1082.93 494.301 1084.38 494.857 1086.25 494.857C1088.12 494.857 1089.57 494.301 1090.61 493.19C1091.64 492.078 1092.16 490.259 1092.16 487.733V473.106H1098.22V487.96C1098.22 491.851 1097.16 494.844 1095.04 496.941C1092.92 499.038 1089.97 500.087 1086.21 500.087ZM1104.29 499.632V473.106H1109.37L1125.02 492.204H1122.55V473.106H1128.62V499.632H1123.58L1107.89 480.533H1110.35V499.632H1104.29ZM1140.54 483.792H1153.31V488.567H1140.54V483.792ZM1141 494.706H1155.43V499.632H1134.89V473.106H1154.94V478.032H1141V494.706ZM1160.32 499.632V473.106H1172.37C1175.25 473.106 1177.79 473.661 1179.99 474.773C1182.18 475.859 1183.9 477.388 1185.14 479.358C1186.38 481.329 1187 483.666 1187 486.369C1187 489.047 1186.38 491.383 1185.14 493.379C1183.9 495.35 1182.18 496.891 1179.99 498.002C1177.79 499.089 1175.25 499.632 1172.37 499.632H1160.32ZM1166.46 494.592H1172.07C1173.83 494.592 1175.36 494.263 1176.65 493.607C1177.96 492.924 1178.97 491.964 1179.68 490.727C1180.41 489.489 1180.78 488.036 1180.78 486.369C1180.78 484.676 1180.41 483.223 1179.68 482.011C1178.97 480.773 1177.96 479.826 1176.65 479.169C1175.36 478.487 1173.83 478.146 1172.07 478.146H1166.46V494.592Z" fill="#00FF6B"/>
<path d="M458.383 751.398H171.324V789.795H458.383V751.398Z" fill="#090909"/>
<path d="M508.847 505.126C516.509 505.325 521.633 497.302 518.23 490.434L464.732 382.478C463.597 379.758 462.296 377.126 460.828 374.598L460.82 374.583V374.585C449.789 355.609 429.743 342.431 406.31 341.114L254.762 332.595L254.714 332.527L253.586 332.549L253.343 332.539C253.179 332.539 253.019 332.561 252.854 332.563L227.745 333.041C183.869 333.877 144.321 362.285 132.195 404.46C131.706 406.161 131.26 407.882 130.858 409.622L99.4319 516.247C97.2751 523.563 102.53 530.972 110.148 531.356L185.642 535.161L161.342 736.856C160.39 744.76 166.561 751.72 174.523 751.72H460.514C466.982 751.72 472.199 746.427 472.105 739.96L471.999 504.084L508.847 505.126Z" fill="#025193"/>
<path d="M460.511 752.506H174.52C170.499 752.506 166.662 750.78 163.995 747.773C161.33 744.765 160.076 740.751 160.556 736.759L184.754 535.905L110.104 532.141C106.231 531.946 102.721 530.018 100.477 526.854C98.2321 523.69 97.5737 519.741 98.6726 516.02L130.097 409.396C130.488 407.696 130.942 405.945 131.433 404.239C143.374 362.702 182.973 333.1 227.726 332.249L253.029 331.761C253.132 331.755 253.234 331.747 253.338 331.747L253.612 331.756L254.695 331.734C254.808 331.722 254.951 331.763 255.064 331.818L406.349 340.322C429.307 341.612 449.925 354.272 461.501 374.184C462.975 376.723 464.303 379.406 465.459 382.171L518.936 490.082C520.659 493.557 520.439 497.584 518.352 500.852C516.265 504.121 512.669 506.041 508.826 505.911H508.823L472.785 504.889L472.891 739.952C472.938 743.28 471.674 746.431 469.329 748.81C466.986 751.196 463.853 752.506 460.511 752.506ZM253.312 333.326L253.143 333.337C253.048 333.343 252.955 333.349 252.858 333.351L227.758 333.829C183.689 334.668 144.702 363.801 132.95 404.677C132.467 406.357 132.022 408.079 131.624 409.799L100.187 516.469C99.2284 519.724 99.8031 523.177 101.766 525.945C103.727 528.711 106.798 530.396 110.185 530.568L185.679 534.373C185.898 534.384 186.102 534.485 186.243 534.653C186.383 534.822 186.448 535.038 186.421 535.256L162.121 736.951C161.693 740.494 162.808 744.057 165.176 746.726C167.543 749.397 170.949 750.929 174.519 750.929H460.509C463.425 750.929 466.158 749.784 468.205 747.709C470.251 745.632 471.355 742.884 471.312 739.969L471.206 504.083C471.206 503.87 471.293 503.664 471.445 503.517C471.598 503.367 471.791 503.284 472.018 503.293L508.866 504.337C512.191 504.476 515.234 502.805 517.021 500.007C518.808 497.209 518.995 493.763 517.52 490.786L464.022 382.829C462.871 380.08 461.573 377.461 460.141 374.994C448.826 355.527 428.685 343.163 406.259 341.901L254.712 333.381C254.62 333.376 254.532 333.354 254.448 333.321L253.597 333.337L253.312 333.326Z" fill="#090909"/>
<path d="M554.259 407.441C563.523 390.461 566.681 369.94 558.353 351.935L547.692 355.821C547.692 355.821 537.486 326.421 535.838 304.952C531.74 297.648 502.094 313.054 502.094 313.054C502.094 313.054 505.037 305.04 506.509 301.033C508.069 296.786 509.652 292.259 508.719 287.831C507.786 283.404 503.243 279.424 498.942 280.83C494.711 282.215 486.694 299.756 484.168 303.883C468.961 328.731 469.148 361.237 471.819 389.329C473.243 404.302 466.468 558.479 469.053 565.325C484.662 606.654 542.829 607.494 559.61 566.626C561.745 558.585 562.969 550.365 563.28 542.119C563.701 530.97 545.226 431.252 544.94 427.868C544.539 423.124 546.788 418.949 549.391 414.976C551.071 412.414 552.9 409.935 554.259 407.441Z" fill="#F8EEE2"/>
<path d="M514.657 597.595C514.402 597.595 514.147 597.593 513.891 597.59C493.12 597.293 475.657 585.037 468.318 565.605C466.945 561.964 467.925 524.573 469.577 467.944C470.657 430.995 471.674 396.094 471.037 389.406C468.524 362.983 467.669 329.338 483.5 303.471C484.108 302.48 485.073 300.629 486.192 298.487C490.941 289.39 495.472 281.137 498.704 280.081C500.575 279.463 502.653 279.732 504.549 280.828C507.012 282.249 508.907 284.87 509.497 287.669C510.506 292.45 508.705 297.361 507.257 301.307L503.534 311.442C510.484 307.984 532.657 297.655 536.532 304.566C536.587 304.667 536.622 304.777 536.631 304.892C538.106 324.11 546.591 350.058 548.185 354.803L558.089 351.193C558.47 351.053 558.904 351.231 559.076 351.604C566.818 368.344 565.318 388.834 554.958 407.821C553.992 409.596 552.773 411.388 551.595 413.12C551.08 413.876 550.563 414.639 550.057 415.409C547.201 419.769 545.374 423.544 545.734 427.802C545.807 428.665 547.19 436.496 549.105 447.336C554.447 477.579 564.388 533.876 564.077 542.148C563.763 550.472 562.52 558.778 560.382 566.829C552.554 585.896 535.094 597.595 514.657 597.595ZM500.753 281.33C500.256 281.33 499.733 281.402 499.191 281.579C496.305 282.523 490.635 293.382 487.589 299.216C486.41 301.474 485.478 303.258 484.845 304.294C469.259 329.762 470.118 363.077 472.608 389.254C473.253 396.039 472.234 430.987 471.154 467.988C469.875 511.785 468.427 561.426 469.795 565.046C476.9 583.858 493.804 595.723 513.912 596.009C534.029 596.226 551.248 584.92 558.884 566.325C560.958 558.482 562.184 550.296 562.493 542.087C562.799 533.982 552.877 477.793 547.545 447.607C545.553 436.321 544.236 428.867 544.157 427.932C543.735 422.947 546.107 418.55 548.733 414.541C549.241 413.764 549.764 412.995 550.283 412.229C551.494 410.45 552.636 408.77 553.567 407.063C563.546 388.769 565.125 369.085 557.938 352.926L547.964 356.562C547.768 356.631 547.547 356.625 547.354 356.533C547.163 356.442 547.016 356.279 546.947 356.079C546.846 355.783 536.748 326.507 535.067 305.199C532.068 300.648 513.549 307.992 502.46 313.753C502.174 313.902 501.819 313.861 501.574 313.646C501.329 313.43 501.243 313.087 501.353 312.781L505.769 300.76C507.148 297.004 508.864 292.332 507.948 287.993C507.456 285.656 505.81 283.379 503.756 282.193C503.006 281.759 501.958 281.33 500.753 281.33Z" fill="#090909"/>
<path d="M496.214 329.528L523.811 357.029L544.43 316.973L540.031 298.775L502.558 312.692L496.214 329.528Z" fill="#090909"/>
<path d="M540 371.054C532.617 372.328 525.599 367.376 524.325 359.993L511.862 287.802C510.588 280.419 515.539 273.401 522.923 272.126C530.306 270.852 537.324 275.804 538.598 283.187L551.061 355.378C552.335 362.761 547.384 369.778 540 371.054Z" fill="#39A8BC"/>
<path d="M537.663 372.044C534.728 372.044 531.866 371.143 529.418 369.415C526.285 367.205 524.199 363.906 523.545 360.128L511.083 287.938C510.431 284.16 511.29 280.353 513.5 277.221C515.709 274.088 519.008 272.002 522.788 271.35C526.564 270.696 530.373 271.555 533.505 273.766C536.638 275.976 538.724 279.275 539.376 283.053L551.839 355.244C553.184 363.044 547.932 370.486 540.134 371.831C539.311 371.973 538.482 372.044 537.663 372.044ZM525.257 272.716C524.526 272.716 523.792 272.779 523.058 272.905C519.694 273.486 516.759 275.342 514.792 278.13C512.824 280.918 512.062 284.307 512.643 287.67L525.105 359.859C525.685 363.223 527.542 366.158 530.33 368.125C533.12 370.093 536.502 370.857 539.87 370.276C546.811 369.077 551.483 362.455 550.287 355.513L537.824 283.322C537.244 279.958 535.389 277.023 532.601 275.056C530.417 273.518 527.87 272.716 525.257 272.716Z" fill="#090909"/>
<path d="M537.869 283.477L512.857 287.795C507.62 288.7 502.64 285.187 501.735 279.948L500.772 274.373C499.867 269.135 503.38 264.155 508.619 263.25L533.631 258.932C538.87 258.027 543.849 261.54 544.753 266.779L545.717 272.355C546.621 277.592 543.108 282.572 537.869 283.477Z" fill="#FFF9F3"/>
<path d="M511.213 288.723C506.243 288.723 501.831 285.142 500.955 280.08L499.993 274.505C499.018 268.846 502.828 263.448 508.485 262.47L533.499 258.153C539.158 257.176 544.554 260.985 545.533 266.643L546.495 272.219C547.471 277.878 543.661 283.276 538.003 284.252L512.99 288.569C512.394 288.675 511.801 288.723 511.213 288.723ZM535.275 259.579C534.778 259.579 534.274 259.622 533.767 259.709L508.753 264.026C503.953 264.855 500.721 269.435 501.552 274.235L502.513 279.81C503.342 284.61 507.92 287.838 512.723 287.013L537.736 282.697C542.536 281.868 545.769 277.287 544.938 272.487L543.976 266.912C543.234 262.619 539.491 259.579 535.275 259.579Z" fill="#090909"/>
<path d="M470.255 250.106L462.968 251.364C459.407 251.978 456.024 249.591 455.409 246.03L455.177 244.688C454.563 241.128 456.951 237.744 460.511 237.13L467.798 235.871L470.255 250.106Z" fill="#F8EEE2"/>
<path d="M461.839 252.25C460.341 252.25 458.879 251.789 457.628 250.906C456.027 249.777 454.963 248.092 454.631 246.163L454.399 244.822C453.713 240.839 456.394 237.037 460.376 236.35L467.662 235.091C467.868 235.055 468.081 235.104 468.251 235.224C468.422 235.346 468.539 235.529 468.575 235.736L471.034 249.971C471.068 250.177 471.021 250.39 470.899 250.56C470.779 250.731 470.596 250.848 470.389 250.884L463.102 252.141C462.681 252.213 462.259 252.25 461.839 252.25ZM467.154 236.782L460.644 237.907C457.519 238.447 455.416 241.428 455.955 244.554L456.187 245.894C456.449 247.41 457.282 248.73 458.539 249.616C459.795 250.503 461.321 250.846 462.834 250.584L469.342 249.461L467.154 236.782Z" fill="#090909"/>
<path d="M545.017 268.312L506.795 274.911C488.121 278.135 470.371 265.609 467.146 246.937L465.931 239.896C462.706 221.222 475.231 203.471 493.905 200.247L532.126 193.649L545.017 268.312Z" fill="#39A8BC"/>
<path d="M500.945 276.204C484.189 276.204 469.318 264.133 466.372 247.071L465.156 240.03C461.866 220.958 474.702 202.762 493.775 199.47L531.996 192.872C532.419 192.801 532.835 193.085 532.909 193.516L545.798 268.178C545.832 268.383 545.785 268.596 545.664 268.767C545.544 268.938 545.36 269.054 545.154 269.091L506.934 275.689C504.922 276.036 502.92 276.204 500.945 276.204ZM531.486 194.563L494.041 201.027C475.828 204.171 463.568 221.549 466.711 239.763L467.926 246.804C471.069 265.017 488.439 277.278 506.662 274.134L544.104 267.67L531.486 194.563Z" fill="#090909"/>
<path d="M532.132 193.65L545.021 268.312C574.61 263.204 605.103 267.587 632.365 280.869L692.706 310.268L657.203 104.607L610.211 152.534C588.979 174.188 561.721 188.542 532.132 193.65Z" fill="#F8EEE2" stroke="#090909" stroke-width="1.57895" stroke-miterlimit="10" strokeLinecap="round" strokeLinejoin="round"/>
<path d="M695.018 310.382C708.866 307.992 712.107 259.793 702.256 202.727C692.406 145.661 673.194 101.338 659.345 103.728C645.497 106.119 642.256 154.318 652.107 211.384C661.958 268.45 681.17 312.773 695.018 310.382Z" fill="#FFF9F3" stroke="#090909" stroke-width="1.57895" stroke-miterlimit="10" strokeLinecap="round" strokeLinejoin="round"/>
<path d="M691.514 288.126C702.644 286.205 705.248 247.468 697.331 201.605C689.414 155.741 673.974 120.119 662.844 122.04C651.715 123.962 649.11 162.699 657.027 208.562C664.944 254.425 680.384 290.047 691.514 288.126Z" fill="#F8EEE2"/>
<mask id="mask6_7891_114876" style="mask-type:luminance" maskUnits="userSpaceOnUse" x="652" y="121" width="50" height="168">
<path d="M691.514 288.126C702.644 286.205 705.248 247.468 697.331 201.605C689.414 155.741 673.974 120.119 662.844 122.04C651.715 123.962 649.11 162.699 657.027 208.562C664.944 254.425 680.384 290.047 691.514 288.126Z" fill="white"/>
</mask>
<g mask="url(#mask6_7891_114876)">
<path d="M634.252 194.086L661.01 189.467C671.938 187.58 682.328 194.91 684.215 205.839C686.101 216.767 678.772 227.157 667.842 229.044L641.084 233.663L634.252 194.086Z" fill="#39A8BC" stroke="#090909" stroke-width="1.57895" stroke-miterlimit="10" strokeLinecap="round" strokeLinejoin="round"/>
</g>
<path d="M691.514 288.126C702.644 286.205 705.248 247.468 697.331 201.605C689.414 155.741 673.974 120.119 662.844 122.04C651.715 123.962 649.11 162.699 657.027 208.562C664.944 254.425 680.384 290.047 691.514 288.126Z" stroke="#090909" stroke-width="1.57891" stroke-miterlimit="10" strokeLinecap="round" strokeLinejoin="round"/>
<path d="M552.538 268.011C552.161 268.011 551.826 267.738 551.762 267.351L539.25 192.184C539.179 191.754 539.469 191.347 539.899 191.276C540.322 191.201 540.734 191.495 540.807 191.925L553.318 267.092C553.389 267.521 553.099 267.929 552.669 268C552.627 268.008 552.583 268.011 552.538 268.011Z" fill="#090909"/>
<path d="M567.696 311.935L567.793 312.24C569.313 317.029 566.64 322.192 561.849 323.712L534.592 332.37C529.803 333.89 524.64 331.217 523.119 326.427L523.021 326.122C521.501 321.333 524.174 316.17 528.965 314.649L556.222 305.992C561.011 304.471 566.174 307.146 567.696 311.935Z" fill="#F8EEE2"/>
<path d="M531.835 333.59C530.266 333.59 528.706 333.213 527.266 332.468C524.905 331.246 523.163 329.185 522.366 326.668L522.268 326.363C520.612 321.147 523.508 315.556 528.724 313.898L555.983 305.242C561.203 303.584 566.791 306.481 568.449 311.698L568.546 312.003C570.202 317.22 567.306 322.811 562.089 324.469L534.83 333.125C533.848 333.436 532.841 333.59 531.835 333.59ZM558.982 306.352C558.147 306.352 557.299 306.478 556.46 306.745L529.201 315.401C524.815 316.793 522.38 321.496 523.773 325.883L523.871 326.188C524.542 328.304 526.006 330.036 527.992 331.064C529.98 332.093 532.238 332.289 534.352 331.618L561.611 322.962C565.997 321.57 568.432 316.868 567.041 312.48L566.944 312.175C565.816 308.624 562.522 306.352 558.982 306.352Z" fill="#090909"/>
<path d="M562.315 293.527L562.411 293.832C563.932 298.621 561.259 303.784 556.468 305.306L529.211 313.963C524.422 315.484 519.259 312.811 517.737 308.02L517.639 307.714C516.118 302.925 518.791 297.762 523.582 296.241L550.839 287.584C555.631 286.063 560.794 288.737 562.315 293.527Z" fill="#F8EEE2"/>
<path d="M526.455 315.181C524.886 315.182 523.328 314.803 521.888 314.058C519.527 312.836 517.785 310.775 516.987 308.259L516.89 307.952C516.09 305.435 516.323 302.75 517.547 300.389C518.769 298.029 520.828 296.289 523.346 295.488L550.604 286.831C555.821 285.173 561.413 288.072 563.07 293.287L563.166 293.592C563.966 296.109 563.733 298.796 562.511 301.156C561.289 303.517 559.228 305.257 556.71 306.057L529.452 314.715C528.469 315.027 527.46 315.181 526.455 315.181ZM553.601 287.944C552.765 287.944 551.918 288.07 551.079 288.335L523.822 296.993C521.706 297.664 519.975 299.127 518.946 301.114C517.917 303.1 517.721 305.358 518.392 307.474L518.49 307.78C519.161 309.896 520.624 311.626 522.611 312.656C524.6 313.685 526.858 313.881 528.971 313.21L556.228 304.553C558.344 303.882 560.076 302.416 561.104 300.432C562.133 298.445 562.329 296.187 561.658 294.072L561.562 293.767C560.434 290.216 557.141 287.944 553.601 287.944Z" fill="#090909"/>
<path d="M567.792 330.814L567.818 330.896C569.322 335.625 566.68 340.724 561.951 342.227L543.356 348.132C538.627 349.634 533.527 346.994 532.025 342.263L531.998 342.181C530.497 337.452 533.138 332.354 537.867 330.851L556.46 324.945C561.188 323.444 566.288 326.084 567.792 330.814Z" fill="#F8EEE2"/>
<path d="M540.632 349.344C536.47 349.344 532.598 346.674 531.273 342.501C529.609 337.262 532.473 331.734 537.629 330.097L556.219 324.193C558.708 323.402 561.367 323.634 563.697 324.842C566.032 326.05 567.752 328.087 568.541 330.576L568.568 330.654C569.359 333.146 569.129 335.8 567.921 338.134C566.711 340.468 564.676 342.187 562.188 342.978L543.594 348.883C542.612 349.196 541.614 349.344 540.632 349.344ZM559.181 325.311C558.349 325.311 557.512 325.439 556.699 325.698L538.109 331.602C533.782 332.976 531.379 337.614 532.753 341.941C534.153 346.349 538.792 348.751 543.117 347.379L561.711 341.473C563.797 340.812 565.505 339.367 566.52 337.408C567.536 335.448 567.728 333.22 567.065 331.134L567.038 331.052C566.375 328.965 564.932 327.258 562.972 326.243C561.779 325.626 560.484 325.311 559.181 325.311Z" fill="#090909"/>
<path d="M572.876 348.269L572.972 348.574C574.492 353.363 571.819 358.526 567.029 360.047L557.823 362.971C553.035 364.492 547.871 361.818 546.349 357.028L546.253 356.723C544.732 351.934 547.406 346.771 552.195 345.25L561.4 342.326C566.192 340.806 571.353 343.48 572.876 348.269Z" fill="#F8EEE2"/>
<path d="M555.067 364.192C553.497 364.192 551.939 363.815 550.497 363.069C548.137 361.847 546.395 359.787 545.598 357.27L545.501 356.963C544.701 354.447 544.935 351.761 546.158 349.399C547.38 347.038 549.439 345.298 551.958 344.498L561.161 341.573C566.38 339.916 571.971 342.813 573.629 348.03L573.63 348.033L573.727 348.338C574.526 350.851 574.292 353.539 573.07 355.899C571.848 358.26 569.789 360.001 567.27 360.8L558.065 363.724C557.08 364.037 556.073 364.192 555.067 364.192ZM564.16 342.688C563.325 342.688 562.477 342.815 561.638 343.081L552.435 346.006C550.319 346.677 548.587 348.142 547.559 350.127C546.529 352.113 546.334 354.372 547.005 356.487L547.101 356.793C547.772 358.909 549.237 360.639 551.222 361.669C553.212 362.698 555.469 362.894 557.582 362.223L566.787 359.299C568.903 358.628 570.634 357.162 571.663 355.178C572.691 353.191 572.887 350.933 572.216 348.818L572.119 348.513C570.995 344.96 567.7 342.688 564.16 342.688Z" fill="#090909"/>
<path d="M501.683 314.606C501.683 314.606 505.04 305.039 506.513 301.033C508.073 296.786 509.657 292.259 508.724 287.832C507.791 283.404 503.248 279.424 498.947 280.831C494.715 282.215 486.699 299.756 484.173 303.883" fill="#F8EEE2"/>
<path d="M502.427 314.866L500.938 314.343C500.938 314.343 504.3 304.769 505.773 300.76C507.151 297.004 508.868 292.331 507.952 287.992C507.459 285.656 505.814 283.379 503.76 282.193C502.699 281.579 501.046 280.977 499.194 281.579C496.307 282.523 490.637 293.381 487.592 299.216C486.412 301.474 485.48 303.258 484.847 304.293C484.617 304.666 484.127 304.778 483.761 304.554C483.388 304.327 483.271 303.84 483.499 303.468C484.107 302.476 485.071 300.626 486.191 298.483C490.94 289.387 495.47 281.134 498.703 280.077C500.574 279.46 502.651 279.728 504.548 280.824C507.011 282.245 508.906 284.866 509.496 287.666C510.505 292.447 508.704 297.357 507.256 301.303C505.783 305.307 502.427 314.866 502.427 314.866Z" fill="#090909"/>
<path d="M494.214 340.936C494.211 340.936 494.208 340.936 494.205 340.936C493.769 340.931 493.42 340.573 493.425 340.137C493.521 331.453 500.658 314.986 500.961 314.288C501.136 313.889 501.602 313.709 502 313.879C502.4 314.053 502.581 314.519 502.407 314.918C502.335 315.086 495.097 331.788 495.004 340.154C494.999 340.589 494.645 340.936 494.214 340.936Z" fill="#090909"/>
<path d="M439.673 134.659C440.041 134.155 440.368 133.626 440.594 133.037C444.852 128.22 447.685 122.066 448.324 115.17C449.93 97.8564 437.196 82.5185 419.883 80.9127C418.422 80.7769 416.984 80.7785 415.558 80.8432C400.29 67.659 389.643 53.3948 362.875 56.8401C352.556 58.168 342.966 63.4859 337.097 72.0769C336.281 73.2722 335.564 74.5574 334.91 75.879C334.384 76.9432 320.731 78.4748 318.915 78.9785C306.159 82.509 289.842 87.7638 283.476 100.399C280.661 105.986 279.772 112.285 279.538 118.58C269.917 126.217 265.998 139.732 269.883 151.965L279.912 183.56C282.012 183.033 284.197 182.722 286.455 182.722H299.245C300.028 184.056 300.811 185.398 301.582 186.759C305.551 193.774 308.122 201.235 307.817 209.393C324.36 186.262 403.542 192.293 421.116 192.293C438.69 192.293 452.936 178.046 452.936 160.473C452.935 149.831 447.693 140.436 439.673 134.659Z" fill="#090909"/>
<path d="M307.817 210.181C307.732 210.181 307.646 210.167 307.563 210.139C307.233 210.027 307.015 209.711 307.027 209.362C307.297 202.181 305.289 194.913 300.893 187.145C300.202 185.921 299.497 184.711 298.793 183.508H286.457C284.396 183.508 282.262 183.783 280.105 184.323C279.697 184.424 279.287 184.194 279.159 183.796L269.129 152.199C265.169 139.723 269.039 126.104 278.763 118.186C278.962 113.318 279.622 106.29 282.772 100.039C288.884 87.9062 303.655 82.3783 318.705 78.213C319.348 78.0346 321.192 77.763 323.527 77.4188C326.939 76.9167 333.227 75.9883 334.266 75.4025C334.986 73.9562 335.699 72.7199 336.446 71.6272C342.249 63.1372 351.844 57.4609 362.777 56.0525C386.139 53.0478 397.676 63.5588 409.878 74.692C411.803 76.4462 413.789 78.2588 415.84 80.0383C417.383 79.9815 418.705 80.0067 419.955 80.1236C428.54 80.9193 436.3 85.0104 441.806 91.6436C447.312 98.2767 449.908 106.656 449.112 115.241C448.482 122.032 445.774 128.327 441.277 133.454C441.138 133.792 440.968 134.125 440.753 134.473C448.891 140.629 453.727 150.29 453.727 160.47C453.727 178.451 439.098 193.08 421.117 193.08C418.792 193.08 415.457 192.977 411.233 192.846C384.704 192.022 322.582 190.105 308.459 209.85C308.308 210.063 308.066 210.181 307.817 210.181ZM286.457 181.931H299.246C299.527 181.931 299.786 182.079 299.928 182.321C300.713 183.658 301.498 185.004 302.27 186.368C306.353 193.584 308.442 200.406 308.62 207.145C325.403 188.616 383.107 190.399 411.284 191.269C415.493 191.4 418.817 191.501 421.119 191.501C438.23 191.501 452.15 177.581 452.15 160.47C452.15 150.541 447.314 141.133 439.217 135.298C439.046 135.175 438.931 134.989 438.898 134.78C438.865 134.574 438.917 134.36 439.042 134.191C439.425 133.667 439.686 133.209 439.861 132.753C439.894 132.665 439.945 132.584 440.006 132.513C444.334 127.62 446.941 121.598 447.543 115.096C448.299 106.933 445.833 98.962 440.595 92.6541C435.359 86.3462 427.978 82.4557 419.815 81.6994C418.548 81.5809 417.209 81.562 415.599 81.6315C415.39 81.6488 415.203 81.573 415.046 81.4404C412.896 79.582 410.821 77.6904 408.817 75.862C396.374 64.5109 385.634 54.7057 362.98 57.6236C352.496 58.972 343.302 64.4036 337.754 72.5225C337.027 73.5836 336.331 74.7962 335.622 76.2283C335.213 77.0557 333.524 77.5436 323.759 78.9836C321.661 79.293 319.678 79.5851 319.13 79.7383C304.428 83.8072 290.02 89.1678 284.183 100.753C281.832 105.42 280.607 111.093 280.33 118.609C280.321 118.839 280.214 119.054 280.032 119.198C270.612 126.677 266.838 139.749 270.639 151.726L280.447 182.623C282.479 182.163 284.5 181.931 286.457 181.931Z" fill="#090909"/>
<path d="M377.18 137.799C373.889 136.045 370.594 134.073 366.904 133.533C357.795 132.202 349.452 139.85 340.251 139.601C333.632 139.421 327.391 134.646 325.483 128.306C330.902 156.224 324.358 186.26 307.815 209.393C308.12 201.233 305.549 193.774 301.58 186.759C300.809 185.398 300.026 184.057 299.243 182.722H286.453C284.194 182.722 282.01 183.033 279.91 183.56C268.153 186.511 259.37 197.169 259.37 209.805V212.448C259.37 227.344 271.558 239.534 286.453 239.534H293.68L286.444 329.952C284.328 356.389 304.043 379.534 330.479 381.65L335.15 382.024C361.586 384.14 384.732 364.425 386.848 337.987L389.574 303.93C413.469 303.533 432.724 284.071 432.724 260.082V154.252C432.724 149.647 431.975 145.228 430.652 141.061C428.519 142.354 426.263 143.428 423.924 144.232C408.618 149.488 391.46 145.413 377.18 137.799Z" fill="#F8EEE2"/>
<path d="M339.062 382.969C337.742 382.969 336.417 382.917 335.086 382.81L330.416 382.435C317.421 381.395 305.607 375.357 297.154 365.432C288.7 355.506 284.617 342.883 285.657 329.886L292.824 240.321H286.453C271.084 240.321 258.58 227.817 258.58 212.447V209.804C258.58 197.024 267.272 185.916 279.717 182.793C281.999 182.22 284.266 181.931 286.455 181.931H299.244C299.525 181.931 299.784 182.08 299.926 182.321C300.711 183.658 301.496 185.004 302.268 186.368C306.296 193.486 308.382 200.22 308.609 206.869C323.885 184.306 329.9 155.19 324.71 128.454C324.629 128.042 324.886 127.637 325.295 127.536C325.709 127.435 326.121 127.674 326.241 128.075C328.06 134.122 333.964 138.636 340.275 138.807C344.48 138.922 348.561 137.299 352.545 135.731C357.189 133.903 361.987 132.014 367.022 132.748C370.422 133.244 373.467 134.891 376.412 136.484L377.555 137.098C387.023 142.148 405.604 149.691 423.673 143.484C425.914 142.715 428.124 141.673 430.246 140.386C430.458 140.26 430.709 140.239 430.935 140.321C431.161 140.406 431.336 140.591 431.41 140.822C432.811 145.224 433.52 149.741 433.52 154.251V260.079C433.52 284.051 414.203 303.917 390.312 304.699L387.642 338.048C386.603 351.044 380.565 362.856 370.638 371.312C361.723 378.902 350.637 382.969 339.062 382.969ZM286.453 183.51C284.393 183.51 282.258 183.785 280.101 184.325C268.36 187.273 260.157 197.749 260.157 209.804V212.447C260.157 226.947 271.954 238.742 286.452 238.742H293.678C293.9 238.742 294.108 238.833 294.258 238.996C294.408 239.157 294.484 239.375 294.465 239.594L287.228 330.013C286.223 342.587 290.173 354.804 298.354 364.407C306.536 374.01 317.966 379.854 330.542 380.86L335.213 381.234C347.784 382.247 360.002 378.291 369.607 370.11C379.21 361.93 385.054 350.498 386.061 337.922L388.788 303.864C388.82 303.46 389.154 303.145 389.562 303.137C412.925 302.749 431.934 283.434 431.934 260.079V154.252C431.934 150.229 431.347 146.196 430.19 142.251C428.24 143.364 426.222 144.28 424.18 144.981C405.547 151.377 386.502 143.664 376.807 138.496L375.656 137.875C372.833 136.348 369.912 134.77 366.79 134.313C362.168 133.642 357.774 135.371 353.12 137.203C348.989 138.829 344.697 140.504 340.229 140.389C335.06 140.248 330.138 137.471 327.121 133.32C330.837 159.843 324.02 188.089 308.456 209.85C308.254 210.134 307.891 210.25 307.561 210.137C307.231 210.025 307.013 209.71 307.025 209.361C307.295 202.18 305.287 194.912 300.891 187.143C300.2 185.92 299.495 184.71 298.791 183.507H286.453V183.51Z" fill="#090909"/>
<path d="M300.112 239.598L291.582 262.928L286.236 239.514L300.112 239.598Z" fill="#090909"/>
<path d="M291.581 263.718C291.564 263.718 291.548 263.716 291.532 263.716C291.182 263.694 290.89 263.444 290.812 263.103L285.466 239.688C285.412 239.452 285.469 239.206 285.621 239.018C285.772 238.83 286.058 238.736 286.241 238.723L300.117 238.807C300.374 238.808 300.613 238.934 300.761 239.146C300.908 239.358 300.941 239.626 300.854 239.868L292.325 263.198C292.208 263.512 291.911 263.718 291.581 263.718ZM287.227 240.31L291.757 260.151L298.983 240.381L287.227 240.31Z" fill="#090909"/>
<path d="M282.69 202.423L292.623 213.475L283.329 219.535" fill="#F8EEE2"/>
<path d="M283.33 220.325C283.073 220.325 282.82 220.198 282.668 219.966C282.431 219.601 282.533 219.112 282.899 218.873L291.42 213.317L282.103 202.95C281.811 202.626 281.838 202.127 282.163 201.835C282.485 201.545 282.986 201.57 283.278 201.895L293.211 212.949C293.366 213.12 293.437 213.35 293.407 213.579C293.375 213.808 293.247 214.012 293.055 214.138L283.761 220.198C283.628 220.284 283.478 220.325 283.33 220.325Z" fill="#090909"/>
<path d="M389.358 224.58H381.766C381.33 224.58 380.977 224.226 380.977 223.79C380.977 223.355 381.33 223.001 381.766 223.001H389.358C391.859 223.001 394.214 221.902 395.822 219.987C397.431 218.072 398.103 215.559 397.671 213.096L392.981 186.453C392.906 186.025 393.193 185.615 393.621 185.539C394.038 185.46 394.461 185.749 394.535 186.18L399.224 212.823C399.739 215.747 398.94 218.728 397.031 221.002C395.122 223.276 392.326 224.58 389.358 224.58Z" fill="#090909"/>
<path d="M414.19 200.444C414.733 203.443 412.742 206.315 409.746 206.856C406.747 207.399 403.877 205.41 403.333 202.411C402.79 199.413 404.78 196.543 407.778 195.998C410.777 195.456 413.647 197.446 414.19 200.444Z" fill="#090909"/>
<path d="M384.56 274.987C384.314 275.053 384.045 275.036 383.791 274.924C383.537 274.809 377.461 272.142 372.951 276.915C372.517 277.376 371.791 277.396 371.328 276.961C370.867 276.526 370.845 275.799 371.281 275.338C376.941 269.353 384.669 272.8 384.748 272.835C385.321 273.099 385.574 273.778 385.31 274.354C385.163 274.679 384.882 274.902 384.56 274.987Z" fill="#090909"/>
<path d="M340.333 180.024C343.082 180.336 346.139 179.081 349.161 178.036C352.185 176.919 355.246 175.874 357.94 175.059C360.638 174.242 363.769 173.408 366.902 172.659C369.997 171.849 373.253 171.191 375.332 169.416C377.35 167.736 377.443 164.646 373.655 162.028C370.065 159.452 362.224 157.841 353.288 160.525C344.377 163.249 338.86 168.908 337.404 173.013C335.817 177.262 337.692 179.755 340.333 180.024Z" fill="#090909"/>
<path d="M425.72 175.515C423.671 175.904 421.405 174.998 419.161 174.265C416.919 173.474 414.647 172.744 412.646 172.189C410.644 171.631 408.32 171.082 405.993 170.602C403.694 170.07 401.276 169.672 399.74 168.285C398.25 166.978 398.201 164.406 401.033 162.045C403.724 159.731 409.568 158.025 416.201 159.851C422.816 161.711 426.887 166.176 427.943 169.533C429.098 173.003 427.688 175.17 425.72 175.515Z" fill="#090909"/>
<path d="M366.164 202.356C365.915 205.681 363.016 208.173 359.691 207.923C356.365 207.674 353.872 204.775 354.123 201.451C354.374 198.126 357.27 195.634 360.595 195.884C363.922 196.133 366.414 199.031 366.164 202.356Z" fill="#090909"/>
<path d="M353.915 208.234C353.915 208.234 359.305 204.359 364.535 208.978L353.915 208.234Z" fill="#F8EEE2"/>
<path d="M364.533 209.767C364.347 209.767 364.161 209.701 364.011 209.568C359.337 205.441 354.573 208.733 354.373 208.875C354.017 209.128 353.525 209.044 353.272 208.692C353.02 208.337 353.1 207.846 353.452 207.593C353.511 207.55 359.424 203.409 365.056 208.387C365.383 208.676 365.414 209.175 365.125 209.502C364.969 209.677 364.751 209.767 364.533 209.767Z" fill="#090909"/>
<path d="M404.469 207.844C404.469 207.844 409.351 205.658 413.856 207.941L404.469 207.844Z" fill="#F8EEE2"/>
<path d="M413.857 208.73C413.737 208.73 413.616 208.703 413.499 208.645C409.383 206.557 404.838 208.544 404.791 208.566C404.393 208.741 403.926 208.566 403.749 208.168C403.57 207.768 403.749 207.303 404.147 207.124C404.36 207.028 409.422 204.808 414.214 207.238C414.603 207.434 414.759 207.91 414.562 208.299C414.423 208.572 414.145 208.73 413.857 208.73Z" fill="#090909"/>
<path d="M352.29 225.805C354.381 224.416 357.16 224.757 359.012 226.453C362.386 229.541 369.727 235.022 380.244 236.092C382.826 236.356 384.16 239.359 383.051 241.705C380.614 246.865 374.086 254.822 360.499 248.451C343.944 240.687 346.841 229.429 352.29 225.805Z" fill="#FFF9F3"/>
<path d="M369.778 251.588C367.047 251.588 363.859 250.898 360.164 249.164C349.493 244.161 347.499 238.017 347.259 234.799C346.975 230.98 348.78 227.19 351.852 225.145H351.854C354.205 223.579 357.371 223.877 359.545 225.869C362.903 228.944 370.07 234.261 380.324 235.306C381.698 235.446 382.89 236.244 383.596 237.494C384.385 238.893 384.448 240.594 383.763 242.042C382.512 244.697 378.413 251.588 369.778 251.588ZM352.73 226.462C350.749 227.777 348.543 230.722 348.835 234.682C349.205 239.643 353.466 244.279 360.835 247.735C374.51 254.149 380.428 245.417 382.339 241.369C382.798 240.396 382.754 239.211 382.223 238.271C381.767 237.461 381.036 236.967 380.166 236.879C369.461 235.787 361.983 230.242 358.481 227.035C356.842 225.534 354.478 225.299 352.73 226.462Z" fill="#090909"/>
<path d="M389.292 304.18C389.292 304.18 339.945 307.365 327.764 287.374C327.764 287.374 338.734 320.339 387.082 331.801L389.292 304.18Z" fill="#090909"/>
<path d="M387.081 332.591C387.021 332.591 386.96 332.584 386.9 332.569C338.682 321.137 327.127 287.957 327.015 287.624C326.889 287.243 327.067 286.828 327.433 286.659C327.792 286.495 328.231 286.621 328.439 286.964C340.232 306.317 388.753 303.427 389.243 303.393C389.473 303.382 389.694 303.462 389.857 303.626C390.018 303.789 390.099 304.015 390.081 304.244L387.871 331.864C387.852 332.095 387.735 332.303 387.549 332.439C387.41 332.539 387.247 332.591 387.081 332.591ZM331.117 292.601C336.544 302.305 351.587 322.294 386.368 330.817L388.434 305.019C382.076 305.333 346.344 306.442 331.117 292.601Z" fill="#090909"/>
<path d="M111.757 645.449L116.15 531.75L235.514 535.584C235.471 536.274 246.876 451.126 246.824 451.816L235.514 535.584L219.622 535.093L218.03 572.921C218.03 572.921 326.245 517.582 335.507 506.425C335.507 506.425 366.827 475.194 379.33 466.716C380.671 465.807 382.062 464.91 383.63 464.503C385.198 464.095 386.996 464.249 388.245 465.278C389.872 466.619 390.145 468.99 390.052 471.096C389.763 477.635 387.175 483.769 384.593 489.826C385.353 489.581 464.444 463.38 468.798 462.283C476.29 460.394 475.93 470.738 470.62 476.351C463.844 483.515 432.348 500.105 430.635 500.504C438.238 500.222 445.509 498.684 447.328 511.068C448.583 519.613 441.022 521.988 433.346 522.875C438.187 523.052 442.343 524.67 442.788 530.424C444.696 540.152 436.613 544.098 428.553 545.094C428.311 545.124 428.273 545.443 428.499 545.531C435.112 548.122 430.537 560.28 420.803 563.814L366.4 586.754C360.817 589.274 215.155 700.079 215.155 700.079C198.284 711.892 178.695 714.526 161.096 710.037C131.878 702.586 111.874 675.6 111.757 645.449Z" fill="#F8EEE2"/>
<path d="M177.554 712.919C172.027 712.919 166.449 712.219 160.897 710.803C131.62 703.336 111.088 676.462 110.968 645.452C110.968 645.441 110.968 645.428 110.968 645.417L115.359 531.717C115.376 531.286 115.703 530.961 116.174 530.959L234.827 534.771L245.594 454.952C245.712 454.082 245.805 453.403 245.884 452.869L246.042 451.709L246.093 451.716C246.276 450.96 246.464 450.984 246.907 451.025C247.332 451.069 247.645 451.45 247.611 451.874L243.025 485.852C242.815 487.41 242.603 488.975 242.395 490.535L236.845 531.731C236.69 532.866 236.573 533.728 236.474 534.382L236.297 535.69C236.273 535.868 236.193 536.024 236.073 536.143C235.921 536.424 235.739 536.405 235.438 536.373C235.428 536.373 235.419 536.372 235.409 536.37L220.378 535.906L218.876 571.601C230.778 565.487 326.368 516.199 334.899 505.922C335.264 505.555 366.465 474.483 378.887 466.063C380.33 465.085 381.764 464.173 383.429 463.738C385.424 463.224 387.41 463.57 388.747 464.67C390.29 465.944 390.974 468.058 390.839 471.131C390.568 477.284 388.337 483.005 386 488.531C386.469 488.375 387.031 488.19 387.68 487.975C451.37 466.912 466.84 461.961 468.603 461.517C472.177 460.607 473.811 462.341 474.464 463.453C476.42 466.794 474.923 472.95 471.192 476.894C465.683 482.719 443.65 494.976 434.601 499.532C440.698 499.328 446.518 500.14 448.108 510.952C448.539 513.895 448 516.377 446.502 518.326C444.585 520.819 441.321 522.136 438.107 522.883C441.479 524.064 443.276 526.538 443.573 530.361C444.273 533.904 443.706 537.028 441.873 539.556C439.163 543.294 434.346 544.93 430.277 545.635C431.68 546.728 432.421 548.424 432.394 550.547C432.333 555.434 428.08 562.011 421.07 564.554L366.704 587.482C362.369 589.437 265.986 662.4 215.628 700.707C204.113 708.772 190.998 712.919 177.554 712.919ZM112.547 645.463C112.671 675.747 132.711 701.984 161.289 709.273C179.884 714.016 198.857 710.523 214.698 699.434C220.624 694.926 360.471 588.562 366.072 586.036L420.494 563.087C426.814 560.792 430.763 554.785 430.815 550.53C430.834 549.059 430.397 547.126 428.208 546.269C427.773 546.096 427.509 545.654 427.566 545.193C427.622 544.734 427.987 544.372 428.45 544.311C434.139 543.608 438.449 541.59 440.594 538.631C442.158 536.471 442.637 533.762 442.011 530.575C441.653 526.034 438.893 523.866 433.313 523.663C432.901 523.647 432.569 523.317 432.554 522.905C432.538 522.493 432.843 522.137 433.251 522.089C439.517 521.365 443.328 519.864 445.25 517.364C446.494 515.746 446.917 513.722 446.543 511.181C444.985 500.566 439.533 500.841 432.606 501.204C431.963 501.235 431.314 501.27 430.66 501.295C430.231 501.284 429.904 501.013 429.849 500.61C429.794 500.207 430.056 499.83 430.45 499.735C432.519 499.175 463.469 482.759 470.043 475.81C473.516 472.139 474.522 466.679 473.098 464.252C472.34 462.959 470.954 462.557 468.986 463.05C467.249 463.487 451.82 468.428 388.173 489.475C386.12 490.154 384.92 490.551 384.83 490.579C384.538 490.675 384.214 490.589 384.006 490.36C383.797 490.131 383.74 489.804 383.862 489.518C386.376 483.624 388.975 477.526 389.26 471.062C389.371 468.518 388.875 466.824 387.74 465.889C386.794 465.109 385.329 464.88 383.826 465.267C382.403 465.636 381.094 466.473 379.771 467.37C367.473 475.707 336.375 506.673 336.063 506.986C326.853 518.084 222.811 571.363 218.387 573.625C218.139 573.75 217.839 573.739 217.602 573.587C217.365 573.436 217.228 573.169 217.239 572.89L218.799 535.838L116.906 532.565L112.547 645.463Z" fill="#090909"/>
<path d="M218.25 553.398L171.323 597.632L218.03 573.751L218.25 553.398Z" fill="#090909"/>
<path d="M383.905 490.835L354.478 504.555C354.478 504.555 382.069 482.651 387.617 480.9L383.905 490.835Z" fill="#090909"/>
<path d="M414.234 505.565C414.234 505.565 432.127 499.633 435.231 499.498L414.234 505.565Z" fill="#F8EEE2"/>
<path d="M414.235 506.353C413.903 506.353 413.595 506.143 413.485 505.811C413.347 505.397 413.573 504.951 413.985 504.813C414.719 504.57 432.018 498.848 435.197 498.707C435.618 498.687 435.999 499.028 436.019 499.462C436.038 499.896 435.7 500.266 435.265 500.286C432.808 500.392 419.431 504.671 414.483 506.312C414.4 506.342 414.315 506.353 414.235 506.353Z" fill="#090909"/>
<path d="M418.328 528.605C417.991 528.605 417.68 528.389 417.573 528.051C417.444 527.634 417.676 527.192 418.091 527.061L434.708 521.874C435.132 521.745 435.567 521.977 435.698 522.392C435.827 522.809 435.594 523.251 435.18 523.382L418.563 528.569C418.486 528.594 418.405 528.605 418.328 528.605Z" fill="#090909"/>
<path d="M418.407 548.599C418.063 548.599 417.748 548.374 417.649 548.029C417.529 547.609 417.771 547.172 418.189 547.052L427.202 544.458C427.628 544.333 428.057 544.579 428.179 544.998C428.299 545.418 428.057 545.855 427.639 545.975L418.626 548.571C418.552 548.59 418.479 548.599 418.407 548.599Z" fill="#090909"/>
</g>
<defs>
<clipPath id="clip0_7891_114876">
<rect width="1500" height="789.474" rx="50.5263" fill="white"/>
</clipPath>
</defs>
</svg>
