<svg width="15" height="15" viewBox="0 0 15 15" fill="none" xmlns="http://www.w3.org/2000/svg">
<path d="M7.28318 0.868164C7.88216 0.868164 8.45583 1.10719 8.87695 1.53042L9.36766 2.02113C9.52555 2.1781 9.73908 2.2663 9.96172 2.26649H10.6648C11.2614 2.26649 11.8336 2.50351 12.2555 2.92541C12.6774 3.34731 12.9144 3.91953 12.9144 4.51619V5.21922C12.9144 5.44138 13.003 5.6551 13.1584 5.81187L13.6491 6.30259C13.8592 6.51154 14.026 6.75993 14.1398 7.03351C14.2536 7.30708 14.3123 7.60045 14.3124 7.89677C14.3126 8.19309 14.2542 8.48651 14.1406 8.76019C14.027 9.03386 13.8604 9.2824 13.6505 9.49154L13.1598 9.98225C13.0028 10.1401 12.9146 10.3537 12.9144 10.5763V11.2793C12.9144 11.876 12.6774 12.4482 12.2555 12.8701C11.8336 13.292 11.2614 13.529 10.6648 13.529H9.96172C9.73977 13.5292 9.52684 13.6169 9.36907 13.773L8.87835 14.2637C8.6694 14.4738 8.42101 14.6406 8.14743 14.7544C7.87386 14.8682 7.58049 14.9269 7.28417 14.927C6.98785 14.9272 6.69443 14.8688 6.42076 14.7552C6.14708 14.6416 5.89854 14.475 5.68941 14.2651L5.19869 13.7744C5.0408 13.6174 4.82727 13.5292 4.60463 13.529H3.9016C3.30494 13.529 2.73272 13.292 2.31082 12.8701C1.88892 12.4482 1.6519 11.876 1.6519 11.2793V10.5763C1.65171 10.3544 1.56406 10.1414 1.40795 9.98366L0.917236 9.49294C0.70713 9.284 0.540372 9.0356 0.426538 8.76202C0.312704 8.48845 0.254037 8.19508 0.253906 7.89876C0.253776 7.60245 0.312184 7.30902 0.425777 7.03535C0.539369 6.76167 0.705909 6.51313 0.91583 6.304L1.40655 5.81328C1.56351 5.65539 1.65171 5.44186 1.6519 5.21922V4.51619L1.65542 4.38824C1.68809 3.81464 1.93899 3.27528 2.35664 2.88076C2.7743 2.48624 3.32707 2.26646 3.9016 2.26649H4.60463C4.82658 2.2663 5.03951 2.17865 5.19728 2.02254L5.688 1.53182C5.89704 1.32154 6.14558 1.15465 6.41934 1.04076C6.6931 0.926862 6.98667 0.868207 7.28318 0.868164ZM9.03372 8.59377C8.75404 8.59377 8.48581 8.70487 8.28804 8.90263C8.09028 9.1004 7.97918 9.36863 7.97918 9.64831C7.97918 9.92799 8.09028 10.1962 8.28804 10.394C8.48581 10.5918 8.75404 10.7029 9.03372 10.7029C9.3134 10.7029 9.58163 10.5918 9.7794 10.394C9.97716 10.1962 10.0883 9.92799 10.0883 9.64831C10.0883 9.36863 9.97716 9.1004 9.7794 8.90263C9.58163 8.70487 9.3134 8.59377 9.03372 8.59377ZM9.88228 5.2846C9.75044 5.1528 9.57165 5.07876 9.38524 5.07876C9.19882 5.07876 9.02003 5.1528 8.88819 5.2846L4.67001 9.50278C4.54195 9.63538 4.47109 9.81296 4.47269 9.9973C4.47429 10.1816 4.54823 10.358 4.67858 10.4883C4.80892 10.6187 4.98525 10.6926 5.16958 10.6942C5.35392 10.6958 5.5315 10.6249 5.6641 10.4969L9.88228 6.27869C10.0141 6.14685 10.0881 5.96806 10.0881 5.78164C10.0881 5.59523 10.0141 5.41644 9.88228 5.2846ZM5.51857 5.07861C5.23889 5.07861 4.97066 5.18972 4.77289 5.38748C4.57513 5.58525 4.46402 5.85348 4.46402 6.13316C4.46402 6.41284 4.57513 6.68107 4.77289 6.87884C4.97066 7.0766 5.23889 7.1877 5.51857 7.1877C5.79825 7.1877 6.06648 7.0766 6.26425 6.87884C6.46201 6.68107 6.57311 6.41284 6.57311 6.13316C6.57311 5.85348 6.46201 5.58525 6.26425 5.38748C6.06648 5.18972 5.79825 5.07861 5.51857 5.07861Z" fill="white"/>
</svg>
