<svg width="16" height="16" viewBox="0 0 16 16" fill="none" xmlns="http://www.w3.org/2000/svg">
<path fill-rule="evenodd" clip-rule="evenodd" d="M7.97196 12.1645C8.04681 12.2103 8.13299 12.2341 8.22071 12.2333C8.30843 12.2341 8.39461 12.2103 8.46946 12.1645L9.17883 11.7389C9.86513 11.3266 10.6375 11.0788 11.4356 11.0148C12.2336 10.9509 13.0356 11.0725 13.7788 11.3701C14.3351 11.5926 14.9395 11.1826 14.9395 10.5845V3.29827C14.9395 2.93702 14.7195 2.61264 14.3838 2.47827C13.4265 2.0953 12.3935 1.93891 11.3657 2.02131C10.3378 2.10371 9.34297 2.42267 8.45883 2.95327L8.22071 3.09452L7.98196 2.95139C7.09782 2.4208 6.10297 2.10184 5.07513 2.01944C4.0473 1.93704 3.01433 2.09343 2.05696 2.47639C1.89266 2.54187 1.75186 2.65527 1.65288 2.80185C1.55389 2.94843 1.50131 3.1214 1.50196 3.29827V10.5858C1.50196 11.1839 2.10633 11.5933 2.66258 11.3708C3.40579 11.0731 4.20781 10.9515 5.00585 11.0155C5.80389 11.0794 6.57629 11.3273 7.26258 11.7395L7.97196 12.1645ZM2.43946 3.33452V10.4514C3.30316 10.1273 4.22892 10.0024 5.14762 10.0862C6.06633 10.17 6.95424 10.4602 7.74508 10.9351L7.75196 10.9389V3.90764L7.50008 3.75639C6.74516 3.30332 5.89627 3.02967 5.01887 2.95652C4.14146 2.88338 3.25898 3.0127 2.43946 3.33452ZM8.69633 10.9345L8.68946 10.9389V3.90764L8.94133 3.75639C9.69626 3.30332 10.5451 3.02967 11.4226 2.95652C12.3 2.88338 13.1824 3.0127 14.002 3.33452V10.4514C13.1383 10.1273 12.2125 10.0024 11.2938 10.0862C10.3751 10.17 9.48717 10.4602 8.69633 10.9351" fill="#E77C40"/>
<path d="M6.5177 12.4225C5.89642 12.0601 5.19007 11.8691 4.47082 11.8691C3.75158 11.8691 3.04523 12.0601 2.42395 12.4225L2.35957 12.46C2.30639 12.491 2.25983 12.5322 2.22257 12.5812C2.18531 12.6302 2.15806 12.6861 2.14239 12.7457C2.12672 12.8052 2.12293 12.8673 2.13124 12.9283C2.13955 12.9893 2.1598 13.048 2.19082 13.1012C2.22185 13.1544 2.26304 13.201 2.31206 13.2382C2.36108 13.2755 2.41695 13.3027 2.4765 13.3184C2.53604 13.3341 2.59809 13.3379 2.6591 13.3296C2.72011 13.3213 2.77889 13.301 2.83207 13.27L2.89645 13.2325C3.37432 12.9538 3.91761 12.8069 4.47082 12.8069C5.02403 12.8069 5.56733 12.9538 6.0452 13.2325L6.7252 13.6287C7.17917 13.8935 7.69529 14.033 8.22082 14.033C8.74636 14.033 9.26248 13.8935 9.71645 13.6287L10.3964 13.2325C10.8743 12.9538 11.4176 12.8069 11.9708 12.8069C12.524 12.8069 13.0673 12.9538 13.5452 13.2325L13.6096 13.27C13.717 13.3326 13.8449 13.3501 13.9651 13.3184C14.0854 13.2868 14.1882 13.2086 14.2508 13.1012C14.3135 12.9938 14.3309 12.8659 14.2993 12.7457C14.2676 12.6254 14.1895 12.5226 14.0821 12.46L14.0177 12.4225C13.3964 12.0601 12.6901 11.8691 11.9708 11.8691C11.2516 11.8691 10.5452 12.0601 9.92395 12.4225L9.24457 12.8187C8.93386 13 8.58057 13.0956 8.22082 13.0956C7.86108 13.0956 7.50779 13 7.19707 12.8187L6.5177 12.4225Z" fill="#E77C40"/>
</svg>
