<svg width="15" height="16" viewBox="0 0 15 16" fill="none" xmlns="http://www.w3.org/2000/svg">
<path d="M7.49719 14.4021C4.40761 14.3614 1.91291 11.8667 1.87219 8.77711C1.91291 5.68753 4.40761 3.19283 7.49719 3.15211C10.5868 3.19283 13.0815 5.68753 13.1222 8.77711C13.0815 11.8667 10.5868 14.3614 7.49719 14.4021ZM7.49719 4.40211C5.09417 4.43375 3.15382 6.37409 3.12219 8.77711C3.15382 11.1801 5.09417 13.1205 7.49719 13.1521C9.90021 13.1205 11.8406 11.1801 11.8722 8.77711C11.8406 6.37409 9.90021 4.43375 7.49719 4.40211ZM10.6222 9.40211H6.87219V5.65211H8.12219V8.15211H10.6222V9.40211ZM12.6797 4.84461L10.7991 2.96961L11.6797 2.08398L13.5609 3.95898L12.6797 4.84398V4.84461ZM2.31406 4.84461L1.42969 3.95898L3.29906 2.08398L4.18344 2.96961L2.31531 4.84461H2.31406Z" fill="#23A6F0"/>
</svg>
