<svg width="16" height="16" viewBox="0 0 16 16" fill="none" xmlns="http://www.w3.org/2000/svg">
<g clip-path="url(#clip0_2929_21986)">
<path d="M0.996582 10.8921V5.44943C0.996582 5.0645 1.1495 4.69533 1.42168 4.42315C1.69387 4.15096 2.06303 3.99805 2.44797 3.99805H8.61634C9.00127 3.99805 9.37044 4.15096 9.64263 4.42315C9.91481 4.69533 10.0677 5.0645 10.0677 5.44943V10.8921C10.0677 11.277 9.91481 11.6462 9.64263 11.9184C9.37044 12.1906 9.00127 12.3435 8.61634 12.3435H2.44797C2.06303 12.3435 1.69387 12.1906 1.42168 11.9184C1.1495 11.6462 0.996582 11.277 0.996582 10.8921ZM13.4553 4.53578L10.5525 7.12142C10.5142 7.1554 10.4836 7.19708 10.4626 7.24373C10.4416 7.29038 10.4307 7.34094 10.4306 7.39211V8.68239C10.4307 8.73355 10.4416 8.78412 10.4626 8.83077C10.4836 8.87742 10.5142 8.9191 10.5525 8.95307L13.4553 11.5387C13.5076 11.5852 13.5722 11.6155 13.6413 11.6261C13.7104 11.6366 13.7812 11.627 13.845 11.5983C13.9087 11.5697 13.9629 11.5232 14.0009 11.4644C14.0389 11.4057 14.059 11.3372 14.059 11.2673V4.80719C14.059 4.73725 14.0389 4.66879 14.0009 4.61006C13.9629 4.55133 13.9087 4.50483 13.845 4.47615C13.7812 4.44747 13.7104 4.43785 13.6413 4.44843C13.5722 4.45901 13.5076 4.48934 13.4553 4.53578Z" stroke="#009035" stroke-width="0.927273" strokeLinecap="round" strokeLinejoin="round"/>
</g>
<defs>
<clipPath id="clip0_2929_21986">
<rect width="15" height="15" fill="white" transform="translate(0.36377 0.654297)"/>
</clipPath>
</defs>
</svg>
