<svg width="52" height="60" viewBox="0 0 52 60" fill="none" xmlns="http://www.w3.org/2000/svg">
<path d="M21.4033 0.729492C21.7142 0.499923 22.1181 0.439829 22.4775 0.561523L22.6289 0.625V0.625977C23.0227 0.824601 23.2744 1.23181 23.2744 1.67383V8.2207H50.04C50.3491 8.2207 50.6527 8.34611 50.8711 8.56445C51.0891 8.78244 51.2148 9.0861 51.2148 9.39453V23.627C51.2148 23.8973 51.1183 24.1637 50.9482 24.3721L50.8711 24.457C50.6524 24.6751 50.349 24.8017 50.04 24.8018H44.2461L44.3457 25.3857C44.5105 26.3521 44.6006 27.3417 44.6006 28.3516C44.6006 31.5094 43.7604 34.4724 42.2988 37.0381L42.0791 37.4229L42.4355 37.6875L48.8096 42.4199C49.0941 42.6313 49.2747 42.9467 49.3145 43.292L49.3223 43.4414V43.4434C49.3221 43.8456 49.1315 44.2221 48.8076 44.4619L28.7617 59.2529C28.4247 59.5007 27.9879 59.5644 27.5996 59.4326L27.4365 59.3643L27.4346 59.3633L27.2822 59.2734C26.9453 59.039 26.7373 58.648 26.7373 58.2305V51.7793H2.05469C1.7633 51.7793 1.47498 51.6751 1.24902 51.4912L1.15625 51.4072C0.920581 51.1705 0.785156 50.8424 0.785156 50.5078V36.2773C0.785156 35.9846 0.889152 35.6959 1.07324 35.4707L1.15625 35.3789C1.3927 35.1427 1.72158 35.0068 2.05469 35.0068H10.6738L10.4307 34.3359C9.75273 32.467 9.38087 30.4523 9.38086 28.3516C9.38086 26.8972 9.56243 25.4845 9.89648 24.1309L9.97559 23.8076L9.70898 23.6094L1.35645 17.4072H1.35547C1.05586 17.1851 0.880859 16.8356 0.880859 16.4619C0.880937 16.1364 1.01616 15.8286 1.25098 15.6084L1.35742 15.5195L21.4033 0.729492ZM26.9912 11.6572C17.787 11.6572 10.2988 19.1443 10.2988 28.3516C10.2989 37.5558 17.787 45.0439 26.9912 45.0439C36.1957 45.0437 43.6825 37.5557 43.6826 28.3516C43.6826 19.1444 36.1958 11.6575 26.9912 11.6572Z" fill="#0076BE" stroke="white"/>
<path d="M10.8008 28.352C10.8008 37.2803 18.0644 44.5449 26.9925 44.5449C35.9211 44.5449 43.1847 37.2803 43.1847 28.352C43.1847 19.4209 35.9211 12.1582 26.9925 12.1582C18.0644 12.1583 10.8008 19.4209 10.8008 28.352ZM39.6142 28.352C39.6142 35.2273 34.0425 40.8026 27.1655 40.8026C20.2909 40.8026 14.7167 35.2272 14.7167 28.352C14.7167 21.4758 20.2909 15.9012 27.1655 15.9012C34.0425 15.9012 39.6142 21.4759 39.6142 28.352Z" fill="white"/>
<path d="M26.7242 37.8479H28.1504C28.5795 37.8479 28.9266 37.5008 28.9266 37.0718V35.7476C30.0677 35.5774 31.0612 35.22 31.9045 34.6676C33.2327 33.7887 33.916 32.5805 33.9468 31.0352C33.9653 30.072 33.6987 29.253 33.1435 28.5812C32.2424 27.5065 30.8372 26.834 28.9267 26.567V23.8833C29.2627 24.0415 29.5878 24.2532 29.8993 24.5235C30.0901 24.6831 30.3129 24.7644 30.5653 24.7647C30.7684 24.7659 31.0503 24.6228 31.0503 24.6228L31.0552 24.6213L32.6518 23.6189C32.8696 23.4811 32.9817 23.3051 32.9854 23.0911C32.9878 22.9188 32.9176 22.7689 32.7774 22.6396C31.7815 21.5061 30.4963 20.8036 28.9267 20.5305V19.0201C28.9267 18.5908 28.5795 18.2422 28.1505 18.2422H26.7243C26.296 18.2422 25.9464 18.5908 25.9464 19.0201V20.4905C25.209 20.5927 24.543 20.7799 23.9497 21.0513C22.0318 21.9241 21.0931 23.2321 21.1251 24.9647C21.1392 25.8181 21.3972 26.5728 21.8933 27.2298C22.7272 28.3467 24.0777 29.0468 25.9464 29.3348V32.6844C25.1401 32.3991 24.3756 31.8676 23.6567 31.0884C23.4997 30.8831 23.2886 30.7806 23.0264 30.7806C22.8836 30.7806 22.6005 30.9043 22.6005 30.9043L22.5956 30.907L21.143 31.7592C20.8942 31.9033 20.7749 32.0947 20.7774 32.3294C20.7811 32.4833 20.8371 32.6203 20.9472 32.744C21.3251 33.2715 21.8336 33.7778 22.4694 34.2607C23.4979 35.0516 24.6588 35.544 25.9464 35.749V37.0717C25.9463 37.5008 26.2959 37.8479 26.7242 37.8479ZM28.9266 29.6937C29.696 29.9363 30.0868 30.3837 30.082 31.0432C30.0751 31.6569 29.7958 32.1323 29.2406 32.469C29.1427 32.5312 29.035 32.5835 28.9267 32.6327L28.9266 29.6937ZM25.007 24.9736C25.0039 24.4936 25.279 24.1193 25.8379 23.8537L25.9462 23.8106V26.1899C25.3258 25.9498 25.0119 25.5455 25.007 24.9736Z" fill="white"/>
<path d="M25.0078 24.9755C25.0127 25.5473 25.3267 25.9517 25.9472 26.1917V23.8125L25.8389 23.8556C25.2799 24.1212 25.0048 24.4954 25.0078 24.9755Z" fill="#FF9200"/>
<path d="M28.9259 32.6343C29.0342 32.5851 29.142 32.5328 29.2397 32.4706C29.7949 32.1338 30.0743 31.6585 30.0811 31.0448C30.086 30.3853 29.6952 29.9379 28.9258 29.6953L28.9259 32.6343Z" fill="#FF9200"/>
<path d="M14.7148 28.3512C14.7148 35.2266 20.289 40.8018 27.1636 40.8018C34.0406 40.8018 39.6123 35.2265 39.6123 28.3512C39.6123 21.475 34.0406 15.9004 27.1636 15.9004C20.2889 15.9004 14.7148 21.4751 14.7148 28.3512ZM28.9258 19.021V20.5315C30.4953 20.8045 31.7806 21.5072 32.7764 22.6406C32.9168 22.7699 32.9869 22.9198 32.9844 23.0921C32.9808 23.306 32.8687 23.482 32.6508 23.6199L31.0542 24.6223L31.0493 24.6238C31.0493 24.6238 30.7675 24.7669 30.5643 24.7657C30.312 24.7654 30.0892 24.6842 29.8984 24.5245C29.5868 24.2543 29.2619 24.0425 28.9258 23.8844V26.568C30.8363 26.8351 32.2415 27.5075 33.1426 28.5822C33.6978 29.2541 33.9642 30.073 33.9458 31.0362C33.9151 32.5815 33.2319 33.7897 31.9035 34.6686C31.0603 35.2211 30.0668 35.5784 28.9257 35.7486V37.0729C28.9257 37.5019 28.5785 37.849 28.1495 37.849H26.7233C26.2949 37.849 25.9454 37.5019 25.9454 37.0729V35.7501C24.6577 35.5452 23.4969 35.0528 22.4684 34.2618C21.8325 33.7789 21.3241 33.2727 20.9462 32.7451C20.836 32.6214 20.78 32.4845 20.7763 32.3306C20.7739 32.0958 20.8933 31.9043 21.142 31.7603L22.5946 30.9082L22.5995 30.9054C22.5995 30.9054 22.8826 30.7817 23.0254 30.7817C23.2876 30.7817 23.4987 30.8843 23.6556 31.0895C24.3746 31.8687 25.139 32.4002 25.9454 32.6855V29.3359C24.0767 29.0478 22.7262 28.3477 21.8922 27.2309C21.3961 26.5738 21.1382 25.8193 21.124 24.9659C21.092 23.2333 22.0306 21.9253 23.9486 21.0524C24.542 20.781 25.2079 20.5939 25.9454 20.4917V19.021C25.9454 18.5918 26.295 18.2431 26.7233 18.2431H28.1495C28.5786 18.243 28.9258 18.5918 28.9258 19.021Z" fill="#FF9200"/>
</svg>
