<svg width="51" height="61" viewBox="0 0 51 61" fill="none" xmlns="http://www.w3.org/2000/svg">
<path d="M39.6085 38.362C39.6351 38.3613 39.6607 38.3653 39.6873 38.3653V0.5H0.242188V53.1956H29.2929C28.8733 52.0421 28.6293 50.8041 28.6199 49.5081C28.5767 43.4063 33.5056 38.4055 39.6085 38.362ZM6.8923 7.9792H36.3745V11.5046H6.8923V7.9792ZM3.556 15.9565H36.3745V19.4819H3.556V15.9565ZM3.556 23.9344H36.3745V27.4598H3.556V23.9344ZM28.2178 43.4134H3.556V39.8889H28.2178V43.4134ZM3.556 35.4361V31.9116H36.3745V35.4361H3.556Z" fill="white"/>
<path d="M36.3728 7.97852H6.89062V11.504H36.3728V7.97852Z" fill="#00A7FF"/>
<path d="M36.3732 15.957H3.55469V19.4825H36.3732V15.957Z" fill="#00A7FF"/>
<path d="M36.3732 23.9336H3.55469V27.459H36.3732V23.9336Z" fill="#00A7FF"/>
<path d="M36.3732 31.9121H3.55469V35.4366H36.3732V31.9121Z" fill="#00A7FF"/>
<path d="M28.2165 39.8887H3.55469V43.4132H28.2165V39.8887Z" fill="#00A7FF"/>
<path d="M39.6099 38.3614C33.5071 38.405 28.5781 43.4057 28.6214 49.5076C28.6307 50.8035 28.8747 52.0416 29.2943 53.1951C30.8497 57.476 34.962 60.5327 39.7692 60.4993C45.871 60.4554 50.7998 55.455 50.7571 49.3515C50.7145 43.2749 45.7567 38.3648 39.6889 38.3648C39.6623 38.3648 39.6365 38.3607 39.6099 38.3614ZM47.93 49.37C47.9621 53.9162 44.2895 57.6381 39.7486 57.6705C35.2023 57.703 31.4818 54.0328 31.4486 49.4881C31.4159 44.9437 35.0866 41.2225 39.63 41.1897C44.1738 41.157 47.8969 44.8275 47.93 49.37Z" fill="white"/>
<path d="M41.8183 46.6074V50.5525H43.9296L39.5859 56.0777L35.2422 50.5525H37.3535V46.6074H41.8183Z" fill="#00A7FF"/>
<path d="M41.8164 45.4316H37.3516V46.3371H41.8164V45.4316Z" fill="#00A7FF"/>
<path opacity="0.8" d="M41.8164 44.2578H37.3516V45.1633H41.8164V44.2578Z" fill="#00A7FF"/>
<path opacity="0.5" d="M41.8164 43.0781H37.3516V43.9836H41.8164V43.0781Z" fill="#00A7FF"/>
</svg>
