<svg width="60" height="60" viewBox="0 0 60 60" fill="none" xmlns="http://www.w3.org/2000/svg">
<path d="M40.4223 38.4857L40.5899 43.3006C40.5904 43.3155 40.5909 43.3306 40.5912 43.3455C40.6436 45.3992 38.8519 47.0383 36.7989 47.1097L25.7648 47.4937C23.7116 47.5651 21.8103 46.0543 21.72 44.0017C21.7193 43.9868 21.7187 43.9722 21.7182 43.9573L21.5507 39.1424C21.5168 38.17 21.6308 37.241 21.8675 36.3565C22.9286 32.5449 26.3825 29.6487 30.5409 29.504L30.7844 29.4955C34.9665 29.35 38.5896 31.9999 39.9119 35.7286C40.2103 36.5943 40.3885 37.513 40.4223 38.4857Z" fill="#0076BE"/>
<path d="M31.7987 26.1704C34.8125 25.377 36.6124 22.2907 35.819 19.277C35.0256 16.2633 31.9393 14.4634 28.9256 15.2568C25.9118 16.0502 24.1119 19.1365 24.9053 22.1502C25.6987 25.1639 28.785 26.9638 31.7987 26.1704Z" fill="#0076BE"/>
<path d="M40.7755 38.0918V42.6138C40.7607 44.2556 39.4847 45.5699 37.913 45.9035C38.4633 45.3181 38.8085 44.5543 38.8174 43.7027V39.1836C38.8174 38.2792 38.6829 37.4187 38.4339 36.6051C37.3246 33.0988 34.0467 30.5203 30.1567 30.5203H29.9285C28.8134 30.5203 27.7451 30.7338 26.7617 31.1232C28.1989 30.0609 29.9755 29.4316 31.8866 29.4316H32.1148C36.0045 29.4316 39.2827 32.0103 40.3919 35.5165C40.6409 36.33 40.7755 37.1874 40.7755 38.0918Z" fill="#478DD9"/>
<path d="M37.2543 20.2622C37.2543 22.633 35.6797 24.638 33.5197 25.2848C34.6084 24.3248 35.2962 22.917 35.2962 21.3511C35.2962 18.4537 32.9488 16.1063 30.0513 16.1063C29.5274 16.1063 29.0241 16.1822 28.5469 16.3258C29.4688 15.5093 30.6806 15.0176 32.0094 15.0176C34.9069 15.0174 37.2543 17.3648 37.2543 20.2622Z" fill="#478DD9"/>
<path d="M36.7846 47.8933H25.7191C23.1393 47.8933 21.0226 45.9102 21.0002 43.473L21 43.421V38.5923C21 37.5712 21.1509 36.5584 21.4488 35.583C22.7755 31.3876 26.7556 28.4629 31.13 28.4629H31.3742C35.8187 28.4629 39.7079 31.3213 41.0516 35.5758C41.3525 36.5559 41.5039 37.5689 41.5039 38.5926L41.5037 43.4744C41.4808 45.9107 39.3639 47.8933 36.7846 47.8933ZM31.1297 30.0406C27.436 30.0406 24.0747 32.5123 22.9556 36.0509C22.7058 36.8693 22.5779 37.727 22.5779 38.5921L22.5782 43.4569C22.5924 45.0069 24.0306 46.3152 25.7188 46.3152H36.7844C38.4726 46.3152 39.9111 45.0071 39.9253 43.4586L39.9255 43.4208V38.5921C39.9255 37.7254 39.7972 36.8682 39.5446 36.0444C38.411 32.4556 35.1267 30.0403 31.3739 30.0403H31.1297V30.0406Z" fill="#F4F9FF"/>
<path d="M31.261 26.8892C27.7075 26.8892 24.8164 23.9984 24.8164 20.4446C24.8164 16.8911 27.7075 14 31.261 14C34.8146 14 37.7055 16.8911 37.7055 20.4446C37.7055 23.9984 34.8146 26.8892 31.261 26.8892ZM31.261 15.5781C28.5775 15.5781 26.3943 17.7613 26.3943 20.4448C26.3943 23.1281 28.5775 25.3113 31.261 25.3113C33.9443 25.3113 36.1275 23.1281 36.1275 20.4448C36.1275 17.7613 33.9443 15.5781 31.261 15.5781Z" fill="#F4F9FF"/>
<path d="M30.0013 8.16667C29.5972 8.16667 29.2695 7.83918 29.2695 7.4349V0.731868C29.2695 0.435956 29.4478 0.169029 29.7212 0.0558984C29.9944 -0.0576646 30.3093 0.00506497 30.5185 0.214453L32.6468 2.34273C32.9325 2.62848 32.9325 3.09182 32.6466 3.37756C32.3611 3.66309 31.8975 3.66331 31.612 3.37735L30.7329 2.49826V7.4349C30.7329 7.83918 30.4054 8.16667 30.0013 8.16667Z" fill="#F4F9FF"/>
<path d="M27.8724 3.59156C27.685 3.59156 27.4977 3.52018 27.3549 3.3772C27.0692 3.09145 27.0692 2.62812 27.3549 2.34259L29.4834 0.21431C29.769 -0.0714365 30.2325 -0.0714365 30.5181 0.21431C30.8038 0.500056 30.8038 0.963392 30.5181 1.24892L28.3898 3.3772C28.247 3.52018 28.0597 3.59156 27.8724 3.59156Z" fill="#F4F9FF"/>
<path d="M45.9583 14.7755C45.7712 14.7755 45.5836 14.7041 45.4409 14.5611C45.1551 14.2754 45.1551 13.812 45.4409 13.5265L50.1807 8.78672C50.3899 8.57733 50.705 8.5146 50.978 8.62816C51.2516 8.74129 51.4297 9.00822 51.4297 9.30413V12.3139C51.4297 12.7179 51.1022 13.0457 50.6979 13.0457C50.2938 13.0457 49.9661 12.7182 49.9661 12.3139V11.0705L46.4753 14.5611C46.3329 14.7041 46.1456 14.7755 45.9583 14.7755Z" fill="#F4F9FF"/>
<path d="M50.6986 10.0358H47.6888C47.2847 10.0358 46.957 9.70833 46.957 9.30404C46.957 8.89976 47.2845 8.57227 47.6888 8.57227H50.6986C51.1026 8.57227 51.4303 8.89976 51.4303 9.30404C51.4303 9.70833 51.1029 10.0358 50.6986 10.0358Z" fill="#F4F9FF"/>
<path d="M57.1427 32.8594C56.9554 32.8594 56.7681 32.788 56.6253 32.645C56.3396 32.3593 56.3396 31.896 56.6253 31.6104L57.5044 30.7311H52.5677C52.1636 30.7311 51.8359 30.4036 51.8359 29.9994C51.8359 29.5953 52.1634 29.2676 52.5677 29.2676H59.2708C59.5667 29.2676 59.8336 29.4458 59.9468 29.7192C60.0601 29.9927 59.9976 30.3074 59.7882 30.5166L57.6599 32.6448C57.5174 32.7878 57.33 32.8594 57.1427 32.8594Z" fill="#F4F9FF"/>
<path d="M59.2702 30.73C59.0831 30.73 58.8958 30.6587 58.7528 30.5159L56.6245 28.3876C56.3387 28.1019 56.3387 27.6385 56.6243 27.353C56.91 27.0673 57.3734 27.0673 57.6591 27.3528L59.7874 29.4811C60.0731 29.7668 60.0731 30.2302 59.7876 30.5157C59.6448 30.6587 59.4573 30.73 59.2702 30.73Z" fill="#F4F9FF"/>
<path d="M50.6979 51.4259H47.6881C47.2841 51.4259 46.9563 51.0985 46.9563 50.6942C46.9563 50.2899 47.2838 49.9624 47.6881 49.9624H48.9315L45.4409 46.4716C45.1551 46.1858 45.1551 45.7225 45.4409 45.437C45.7264 45.1512 46.19 45.1512 46.4755 45.437L51.2153 50.1768C51.4247 50.3859 51.4872 50.7007 51.3739 50.9741C51.2607 51.2479 50.994 51.4259 50.6979 51.4259Z" fill="#F4F9FF"/>
<path d="M50.6966 51.4266C50.2926 51.4266 49.9648 51.0991 49.9648 50.6949V47.6849C49.9648 47.2808 50.2923 46.9531 50.6966 46.9531C51.1007 46.9531 51.4284 47.2806 51.4284 47.6849V50.6949C51.4284 51.0991 51.1009 51.4266 50.6966 51.4266Z" fill="#F4F9FF"/>
<path d="M30.0009 59.9986C29.8105 59.9986 29.6234 59.9242 29.4835 59.7845L27.355 57.6562C27.0692 57.3704 27.0692 56.9071 27.3547 56.6214C27.6405 56.3356 28.1038 56.3356 28.3896 56.6211L29.2689 57.5004V52.5638C29.2689 52.1597 29.5964 51.832 30.0007 51.832C30.4047 51.832 30.7324 52.1595 30.7324 52.5638V59.2668C30.7324 59.5627 30.5542 59.8297 30.2808 59.9428C30.1904 59.9804 30.0952 59.9986 30.0009 59.9986Z" fill="#F4F9FF"/>
<path d="M30.0013 59.9998C29.8139 59.9998 29.6266 59.9284 29.4838 59.7854C29.1981 59.4997 29.1981 59.0363 29.4838 58.7508L31.6121 56.6225C31.8977 56.3368 32.3612 56.3368 32.6467 56.6225C32.9325 56.9083 32.9325 57.3716 32.6467 57.6571L30.5185 59.7854C30.3757 59.9284 30.1884 59.9998 30.0013 59.9998Z" fill="#F4F9FF"/>
<path d="M9.30579 51.4277C9.21148 51.4277 9.11651 51.4095 9.02588 51.3719C8.75225 51.2588 8.57422 50.9918 8.57422 50.6959V47.686C8.57422 47.2819 8.90173 46.9542 9.30601 46.9542C9.7103 46.9542 10.0378 47.2817 10.0378 47.686V48.9295L13.5286 45.4389C13.8142 45.1532 14.2777 45.1532 14.5632 45.4389C14.849 45.7247 14.849 46.188 14.5632 46.4735L9.82342 51.2133C9.68325 51.3535 9.49614 51.4277 9.30579 51.4277Z" fill="#F4F9FF"/>
<path d="M12.316 51.4264H9.30601C8.90194 51.4264 8.57422 51.099 8.57422 50.6947C8.57422 50.2904 8.90173 49.9629 9.30601 49.9629H12.316C12.7201 49.9629 13.0478 50.2904 13.0478 50.6947C13.0478 51.099 12.7201 51.4264 12.316 51.4264Z" fill="#F4F9FF"/>
<path d="M7.43479 30.7302H0.731726C0.435812 30.7302 0.168884 30.552 0.055753 30.2786C-0.0575942 30.0052 0.00514308 29.6904 0.214316 29.4813L2.3426 27.353C2.62813 27.0672 3.09169 27.0672 3.37722 27.353C3.66297 27.6387 3.66297 28.1021 3.37722 28.3876L2.49813 29.2667H7.43457C7.83864 29.2667 8.16635 29.5942 8.16635 29.9985C8.16656 30.4027 7.83886 30.7302 7.43479 30.7302Z" fill="#F4F9FF"/>
<path d="M2.85998 32.8593C2.67266 32.8593 2.48534 32.7879 2.34257 32.6449L0.214286 30.5166C-0.0714613 30.2309 -0.0714664 29.7675 0.214497 29.4818C0.500028 29.1962 0.963588 29.196 1.24912 29.482L3.3774 31.6103C3.66315 31.896 3.66316 32.3594 3.37719 32.6451C3.23464 32.7877 3.04731 32.8593 2.85998 32.8593Z" fill="#F4F9FF"/>
<path d="M14.0458 14.7754C13.8587 14.7754 13.6712 14.704 13.5284 14.561L8.78858 9.82124C8.57919 9.61207 8.51667 9.29734 8.63002 9.02392C8.74315 8.75029 9.01008 8.57227 9.30599 8.57227H12.316C12.72 8.57227 13.0478 8.89976 13.0478 9.30404C13.0478 9.70833 12.7202 10.0358 12.316 10.0358H11.0724L14.563 13.5266C14.8488 13.8124 14.8488 14.2757 14.563 14.5613C14.4205 14.704 14.2331 14.7754 14.0458 14.7754Z" fill="#F4F9FF"/>
<path d="M9.306 13.0456C8.90193 13.0456 8.57422 12.7181 8.57422 12.3138V9.30404C8.57422 8.89997 8.90171 8.57227 9.306 8.57227C9.71029 8.57227 10.0378 8.89976 10.0378 9.30404V12.3138C10.0378 12.7181 9.71029 13.0456 9.306 13.0456Z" fill="#F4F9FF"/>
</svg>
