<svg width="32" height="32" viewBox="0 0 32 32" fill="none" xmlns="http://www.w3.org/2000/svg">
<g clip-path="url(#clip0_2853_40431)">
<path d="M12.1554 -0.000107504C11.9767 0.026456 11.8061 0.0920063 11.6557 0.191893C11.6557 0.191893 10.0987 1.17158 8.42489 2.23128C6.75105 3.28974 4.88889 4.45651 4.46305 4.69282L4.38551 4.72974C2.83966 5.68359 2.51843 7.24174 2.46305 8.11559C2.45936 8.1562 2.46305 8.18943 2.46305 8.23251C2.44951 8.55989 2.46305 8.77035 2.46305 8.77035V24.8479C2.46305 27.1839 5.18674 28.3076 7.77136 28.3076C8.63289 28.3076 9.49443 28.1685 10.2329 27.9224C10.7252 27.6762 11.0784 27.1839 11.0784 26.6916V13.7685C11.0784 10.9377 11.6938 9.60851 13.54 8.50082C14.0323 8.25466 19.1941 4.69159 19.1941 4.69159C19.4403 4.44543 19.6938 3.94574 19.6938 3.57651V3.46082C19.6938 2.96851 19.4477 2.59189 19.0784 2.34574C18.7092 2.09958 18.2169 2.09958 17.8477 2.34574C17.7246 2.46882 10.2169 7.52359 8.61689 8.38512C7.01689 9.36974 5.52397 9.60728 5.15474 9.11497C5.04028 9.00051 4.94059 8.64974 4.92459 8.30758V8.23005C4.92582 7.89528 5.01197 7.26512 5.69382 6.84543C6.38551 6.4602 8.10243 5.36358 9.77136 4.30759C10.4766 3.86082 10.564 3.81282 11.1166 3.46082C11.1893 3.76149 11.3726 4.02374 11.63 4.19536C11.8874 4.36699 12.1999 4.4354 12.5055 4.38699C12.811 4.33858 13.0871 4.17688 13.2788 3.9341C13.4705 3.69132 13.5637 3.38525 13.54 3.07682V1.23066C13.5413 1.05523 13.5052 0.881539 13.434 0.721221C13.3627 0.560903 13.258 0.417667 13.1269 0.301115C12.9958 0.184564 12.8413 0.0973902 12.6737 0.0454386C12.5061 -0.006513 12.3294 -0.0220421 12.1554 -0.000107504ZM22.0015 4.30759C21.8058 4.34014 21.6208 4.41952 21.4624 4.53897C21.4624 4.53897 15.2667 8.70759 14.1935 9.42266L14.1554 9.46205C13.2643 10.1304 12.7363 10.9254 12.5012 11.6528C12.3702 12.0633 12.3054 12.4921 12.3092 12.923V13.3082C12.3074 13.3463 12.3074 13.3845 12.3092 13.4227V28.3076C12.3092 30.646 15.0021 31.9999 17.4637 31.9999C18.5714 31.9999 19.5707 31.7611 20.3092 31.2688C21.7861 30.4073 28.9246 24.8467 28.9246 24.8467C29.2938 24.6005 29.54 24.2534 29.54 23.8842V7.8842C29.54 7.26882 29.3012 6.89959 28.8089 6.65343C28.4397 6.40728 27.8329 6.52297 27.4637 6.76912C25.4944 8.24605 20.1935 12.4159 18.9627 13.1544C17.2397 14.139 15.6163 14.3851 15.0009 13.7697C14.7547 13.5236 14.7707 13.2922 14.7707 12.923C14.7773 12.7096 14.8032 12.5299 14.8483 12.3839C14.9172 12.1697 15.0575 11.9064 15.5781 11.5002C15.6027 11.4805 15.5904 11.4817 15.6163 11.462C16.5061 10.8676 19.2274 9.01282 21.0021 7.80666C21.1027 8.07641 21.2946 8.30237 21.5445 8.44525C21.7944 8.58814 22.0865 8.63889 22.37 8.5887C22.6535 8.5385 22.9104 8.39053 23.096 8.17052C23.2817 7.95051 23.3843 7.67238 23.3861 7.38451V5.53835C23.3875 5.36293 23.3514 5.18923 23.2801 5.02891C23.2089 4.8686 23.1042 4.72536 22.9731 4.60881C22.842 4.49226 22.6874 4.40508 22.5199 4.35313C22.3523 4.30118 22.1756 4.28565 22.0015 4.30759ZM27.0784 13.3082V15.7697L20.9246 20.5377V18.0762L27.0784 13.3082Z" fill="#00B9FE"/>
</g>
<defs>
<clipPath id="clip0_2853_40431">
<rect width="32" height="32" fill="white"/>
</clipPath>
</defs>
</svg>
