<svg width="32" height="32" viewBox="0 0 32 32" fill="none" xmlns="http://www.w3.org/2000/svg">
<path d="M29.0413 9.03936C29.181 8.89951 29.2761 8.7214 29.3146 8.52754C29.3531 8.33367 29.3333 8.13274 29.2577 7.95012C29.1821 7.76751 29.054 7.61139 28.8897 7.5015C28.7255 7.39161 28.5323 7.33286 28.3346 7.33269H24.668V3.66602C24.6678 3.46837 24.6091 3.2752 24.4992 3.11091C24.3893 2.94662 24.2332 2.81859 24.0505 2.74297C23.8679 2.66736 23.667 2.64756 23.4731 2.68607C23.2793 2.72458 23.1012 2.81968 22.9613 2.95935L19.628 6.29269C19.4404 6.48004 19.3349 6.73423 19.3346 6.99936V10.7807L16.692 13.4234C16.2969 13.3182 15.8829 13.3052 15.482 13.3853C15.0811 13.4654 14.7039 13.6365 14.3796 13.8854C14.0552 14.1343 13.7923 14.4543 13.6111 14.8208C13.43 15.1873 13.3354 15.5905 13.3346 15.9994C13.3348 16.3789 13.416 16.754 13.5727 17.0996C13.7295 17.4452 13.9582 17.7534 14.2436 18.0035C14.529 18.2537 14.8645 18.44 15.2277 18.5501C15.5908 18.6602 15.9733 18.6915 16.3496 18.642C16.7259 18.5924 17.0872 18.4631 17.4095 18.2627C17.7317 18.0623 18.0075 17.7954 18.2184 17.4799C18.4293 17.1644 18.5704 16.8075 18.6323 16.433C18.6942 16.0586 18.6754 15.6753 18.5773 15.3087L21.22 12.666H25.0013C25.2664 12.6658 25.5206 12.5603 25.708 12.3727L29.0413 9.03936ZM16.0013 2.66602C17.5582 2.66454 19.1033 2.93575 20.5666 3.46736L18.684 5.35002C18.6004 5.43358 18.5244 5.52247 18.456 5.61669C16.1973 5.08324 13.8262 5.30102 11.7025 6.23698C9.57878 7.17293 7.81825 8.776 6.68799 10.803C5.55773 12.83 5.1194 15.1703 5.43951 17.469C5.75961 19.7676 6.82068 21.8992 8.46175 23.5402C10.1028 25.1813 12.2344 26.2424 14.533 26.5625C16.8316 26.8826 19.172 26.4443 21.199 25.314C23.226 24.1837 24.8291 22.4232 25.765 20.2995C26.701 18.1758 26.9187 15.8047 26.3853 13.546C26.4786 13.4767 26.5675 13.4002 26.652 13.3167L28.532 11.434C29.064 12.8973 29.3357 14.4424 29.3346 15.9994C29.3346 23.3634 23.3653 29.3327 16.0013 29.3327C8.6373 29.3327 2.66797 23.3634 2.66797 15.9994C2.66797 8.63536 8.6373 2.66602 16.0013 2.66602ZM16.0013 7.99935C16.6937 8.00113 17.3604 8.08558 18.0013 8.25269V10.2287L17.4493 10.7807L17.384 10.8474C16.5937 10.6366 15.7655 10.6102 14.9634 10.7702C14.1613 10.9302 13.4067 11.2723 12.7577 11.7701C12.1088 12.2679 11.5828 12.9082 11.2205 13.6415C10.8582 14.3747 10.6691 15.1814 10.668 15.9994C10.6685 16.7583 10.831 17.5084 11.1446 18.1995C11.4583 18.8906 11.9158 19.5069 12.4866 20.007C13.0575 20.5072 13.7285 20.8797 14.4548 21.0998C15.1812 21.3198 15.9461 21.3824 16.6986 21.2831C17.451 21.1839 18.1736 20.9252 18.8181 20.5244C19.4625 20.1236 20.014 19.5898 20.4357 18.9588C20.8574 18.3278 21.1395 17.614 21.2633 16.8652C21.387 16.1164 21.3495 15.3498 21.1533 14.6167L21.22 14.5514L21.772 13.9994H23.7493C24.1664 15.6147 24.068 17.3201 23.468 18.8768C22.8679 20.4335 21.7962 21.7636 20.4027 22.6811C19.0093 23.5985 17.3639 24.0574 15.6968 23.9935C14.0297 23.9295 12.4242 23.346 11.1052 22.3245C9.78609 21.3031 8.81937 19.8947 8.34028 18.2967C7.86119 16.6986 7.89371 14.9907 8.43328 13.412C8.97285 11.8333 9.99248 10.4628 11.3495 9.49231C12.7065 8.52178 14.333 7.99978 16.0013 7.99935Z" fill="#FFDD55"/>
</svg>
