<svg width="32" height="32" viewBox="0 0 32 32" fill="none" xmlns="http://www.w3.org/2000/svg">
<g clip-path="url(#clip0_2853_40447)">
<path d="M31.3219 24.7313L24.0031 17.4125C22.5594 15.9688 20.4031 15.6875 18.6656 16.5438L12.0031 9.88125V6L4.00313 0L0.00312495 4L6.00313 12H9.88438L16.5469 18.6625C15.6969 20.4 15.9719 22.5562 17.4156 24L24.7344 31.3188C25.6469 32.2313 27.1219 32.2313 28.0281 31.3188L31.3219 28.025C32.2281 27.1125 32.2281 25.6375 31.3219 24.7313ZM20.7344 14.0625C22.5031 14.0625 24.1656 14.75 25.4156 16L26.6281 17.2125C27.6156 16.7812 28.5531 16.1812 29.3656 15.3687C31.6844 13.05 32.4719 9.7875 31.7344 6.825C31.5969 6.2625 30.8906 6.06875 30.4781 6.48125L25.8281 11.1313L21.5844 10.425L20.8781 6.18125L25.5281 1.53125C25.9406 1.11875 25.7406 0.4125 25.1719 0.26875C22.2094 -0.4625 18.9469 0.325 16.6344 2.6375C14.8531 4.41875 14.0156 6.76875 14.0594 9.1125L19.1906 14.2437C19.6969 14.125 20.2219 14.0625 20.7344 14.0625ZM14.2406 19.1875L10.6969 15.6438L1.17188 25.175C-0.390625 26.7375 -0.390625 29.2687 1.17188 30.8312C2.73438 32.3937 5.26562 32.3937 6.82812 30.8312L14.5531 23.1063C14.0781 21.8625 13.9344 20.5063 14.2406 19.1875ZM4.00313 29.5C3.17813 29.5 2.50312 28.825 2.50312 28C2.50312 27.1688 3.17188 26.5 4.00313 26.5C4.83438 26.5 5.50313 27.1688 5.50313 28C5.50313 28.825 4.83438 29.5 4.00313 29.5Z" fill="#BC90FF"/>
</g>
<defs>
<clipPath id="clip0_2853_40447">
<rect width="32" height="32" fill="white"/>
</clipPath>
</defs>
</svg>
