<svg width="32" height="32" viewBox="0 0 32 32" fill="none" xmlns="http://www.w3.org/2000/svg">
<g clip-path="url(#clip0_2853_40457)">
<path fill-rule="evenodd" clip-rule="evenodd" d="M9.67407 5.87467C8.66753 6.91448 8.69436 8.56118 8.74783 11.8547L8.89926 21.1701C8.9528 24.4637 8.97957 26.1103 10.0194 27.1169C11.0592 28.1234 12.7059 28.0967 15.9994 28.0431L17.1639 28.0242C20.4573 27.9706 22.1041 27.9439 23.1106 26.9041C24.1171 25.8643 24.0903 24.2175 24.0368 20.9241L23.8854 11.6087C23.8318 8.31512 23.8051 6.66843 22.7653 5.66186C21.7255 4.65534 20.0788 4.68211 16.7853 4.73565L15.6208 4.75458C12.3273 4.80812 10.6806 4.83489 9.67407 5.87467ZM19.1853 9.10198C19.6881 9.09381 20.0891 8.67958 20.0809 8.17678C20.0727 7.67398 19.6585 7.273 19.1557 7.28118L13.3336 7.37581C12.8308 7.38399 12.4298 7.79822 12.438 8.30101C12.4461 8.80383 12.8604 9.2048 13.3632 9.19662L19.1853 9.10198ZM16.5242 24.541C17.4889 24.5252 18.2581 23.7306 18.2425 22.7659C18.2268 21.8013 17.4321 21.032 16.4675 21.0476C15.5028 21.0634 14.7336 21.8581 14.7492 22.8228C14.7648 23.7874 15.5596 24.5567 16.5242 24.541Z" fill="#FFA000"/>
<path fill-rule="evenodd" clip-rule="evenodd" d="M26.9259 8.45944C27.5069 8.03309 28.3235 8.15833 28.7499 8.73935C32.0909 13.2914 31.714 19.7455 27.6254 23.9693C27.2897 24.3161 26.7898 24.4493 26.3261 24.3155C25.8623 24.1816 25.5102 23.8026 25.411 23.3302L24.763 20.2476C24.6147 19.5424 25.0662 18.8505 25.7715 18.7023C26.4766 18.5539 27.1685 19.0055 27.3167 19.7107L27.3597 19.9153C28.9489 16.8304 28.6986 13.08 26.646 10.2834C26.2197 9.7025 26.345 8.8859 26.9259 8.45944Z" fill="#FFA000"/>
<path fill-rule="evenodd" clip-rule="evenodd" d="M5.12399 24.1134C4.54297 24.5398 3.72637 24.4145 3.30003 23.8335C-0.0409766 19.2814 0.335928 12.8272 4.42453 8.60351C4.7602 8.25675 5.26001 8.12361 5.72387 8.25737C6.18762 8.39126 6.53961 8.77025 6.63891 9.24266L7.28698 12.3252C7.43521 13.0305 6.98374 13.7223 6.27848 13.8706C5.57333 14.0188 4.88137 13.5674 4.73314 12.8621L4.6901 12.6575C3.10101 15.7424 3.35135 19.4928 5.4039 22.2893C5.83025 22.8703 5.70489 23.687 5.12399 24.1134Z" fill="#FFA000"/>
</g>
<defs>
<clipPath id="clip0_2853_40457">
<rect width="32" height="32" fill="white"/>
</clipPath>
</defs>
</svg>
