<svg width="32" height="32" viewBox="0 0 32 32" fill="none" xmlns="http://www.w3.org/2000/svg">
<path d="M10.7984 14.4C12.1776 14.4 13.5002 13.8521 14.4754 12.877C15.4506 11.9018 15.9984 10.5791 15.9984 9.2C15.9984 7.82087 15.4506 6.49823 14.4754 5.52304C13.5002 4.54786 12.1776 4 10.7984 4C9.41931 4 8.09667 4.54786 7.12148 5.52304C6.14629 6.49823 5.59844 7.82087 5.59844 9.2C5.59844 10.5791 6.14629 11.9018 7.12148 12.877C8.09667 13.8521 9.41931 14.4 10.7984 14.4ZM27.1984 10.4C27.1984 11.4609 26.777 12.4783 26.0269 13.2284C25.2767 13.9786 24.2593 14.4 23.1984 14.4C22.1376 14.4 21.1202 13.9786 20.37 13.2284C19.6199 12.4783 19.1984 11.4609 19.1984 10.4C19.1984 9.33913 19.6199 8.32172 20.37 7.57157C21.1202 6.82143 22.1376 6.4 23.1984 6.4C24.2593 6.4 25.2767 6.82143 26.0269 7.57157C26.777 8.32172 27.1984 9.33913 27.1984 10.4ZM14.3984 23.2C14.3984 20.4736 15.6384 18.0352 17.5872 16.4208C17.1033 16.1446 16.5556 15.9995 15.9984 16H5.59844C4.74974 16 3.93581 16.3371 3.3357 16.9373C2.73558 17.5374 2.39844 18.3513 2.39844 19.2C2.39844 19.2 2.39844 25.6 10.7984 25.6C12.3232 25.6 13.5712 25.3888 14.592 25.0448C14.4627 24.4384 14.3978 23.82 14.3984 23.2ZM30.3984 23.2C30.3984 25.1096 29.6399 26.9409 28.2896 28.2912C26.9393 29.6414 25.108 30.4 23.1984 30.4C21.2889 30.4 19.4575 29.6414 18.1073 28.2912C16.757 26.9409 15.9984 25.1096 15.9984 23.2C15.9984 21.2904 16.757 19.4591 18.1073 18.1088C19.4575 16.7586 21.2889 16 23.1984 16C25.108 16 26.9393 16.7586 28.2896 18.1088C29.6399 19.4591 30.3984 21.2904 30.3984 23.2ZM26.9648 20.2336C26.8905 20.1591 26.8022 20.1 26.7051 20.0597C26.6079 20.0193 26.5037 19.9986 26.3984 19.9986C26.2932 19.9986 26.189 20.0193 26.0918 20.0597C25.9946 20.1 25.9064 20.1591 25.832 20.2336L21.5984 24.4688L20.5648 23.4336C20.4146 23.2834 20.2109 23.199 19.9984 23.199C19.786 23.199 19.5823 23.2834 19.432 23.4336C19.2818 23.5838 19.1974 23.7876 19.1974 24C19.1974 24.2124 19.2818 24.4162 19.432 24.5664L21.032 26.1664C21.1063 26.2409 21.1946 26.3 21.2918 26.3403C21.389 26.3807 21.4932 26.4014 21.5984 26.4014C21.7037 26.4014 21.8079 26.3807 21.9051 26.3403C22.0022 26.3 22.0905 26.2409 22.1648 26.1664L26.9648 21.3664C27.0393 21.2921 27.0984 21.2038 27.1388 21.1066C27.1791 21.0094 27.1999 20.9052 27.1999 20.8C27.1999 20.6948 27.1791 20.5906 27.1388 20.4934C27.0984 20.3962 27.0393 20.3079 26.9648 20.2336Z" fill="#00E52E"/>
</svg>
