<svg width="32" height="32" viewBox="0 0 32 32" fill="none" xmlns="http://www.w3.org/2000/svg">
<path d="M8.88638 30.3549H23.1092C25.8818 30.3549 27.2612 28.9486 27.2612 26.1629V14.0023H17.5647C15.8504 14.0023 15.0469 13.1852 15.0469 11.4709V1.64062H8.88638C6.12752 1.64062 4.73438 3.06005 4.73438 5.84634V26.1629C4.73438 28.9618 6.12752 30.3549 8.88638 30.3549ZM17.6052 12.1675H27.1138C27.0201 11.6183 26.6315 11.0823 26.0024 10.4263L18.6092 2.9132C17.9932 2.27034 17.4309 1.88177 16.8681 1.78748V11.4446C16.8681 11.9263 17.1229 12.1675 17.6052 12.1675ZM10.8418 19.8018C10.2927 19.8018 9.90409 19.4132 9.90409 18.8909C9.90409 18.3681 10.2927 17.9801 10.8412 17.9801H21.1669C21.7029 17.9801 22.1184 18.3686 22.1184 18.8903C22.1184 19.4132 21.7029 19.8012 21.1675 19.8012L10.8418 19.8018ZM10.8418 24.9041C10.2927 24.9041 9.90409 24.5155 9.90409 23.9932C9.90409 23.4709 10.2927 23.0823 10.8412 23.0823H21.1669C21.7029 23.0823 22.1184 23.4709 22.1184 23.9932C22.1184 24.5155 21.7029 24.9041 21.1675 24.9041H10.8418Z" fill="white"/>
</svg>
