<svg width="32" height="32" viewBox="0 0 32 32" fill="none" xmlns="http://www.w3.org/2000/svg">
<path d="M28.1636 12.0324C29.0539 14.7674 28.9969 17.7227 28.0019 20.4214C27.0068 23.12 25.1317 25.4049 22.679 26.9073C20.2262 28.4098 17.3389 29.0422 14.4827 28.7026C11.6266 28.363 8.96802 27.0712 6.93595 25.0356C4.90388 23 3.61676 20.3392 3.2822 17.4824C2.94764 14.6256 3.58515 11.7394 5.09189 9.28932C6.59863 6.83925 8.88676 4.96815 11.5872 3.97783C14.2876 2.98751 17.243 2.9357 19.9764 3.83078L18.3012 5.50598C18.2095 5.59771 18.1252 5.69638 18.0484 5.80198C15.8598 5.36022 13.5871 5.63457 11.5664 6.58445C9.54573 7.53434 7.88442 9.10932 6.82815 11.0765C5.77188 13.0436 5.37675 15.2985 5.70119 17.5076C6.02563 19.7167 7.05241 21.7627 8.62968 23.3431C10.207 24.9235 12.251 25.9543 14.4594 26.283C16.6679 26.6118 18.9235 26.2211 20.8927 25.1687C22.862 24.1163 24.4402 22.4581 25.394 20.4393C26.3479 18.4205 26.6267 16.1483 26.1892 13.9588C26.2987 13.8811 26.4015 13.7944 26.4965 13.6996L28.1636 12.0324ZM23.8356 14.402C23.9423 14.9204 23.9956 15.4537 23.9956 16.002C23.9952 17.6529 23.4839 19.2633 22.5321 20.6122C21.5802 21.9611 20.2343 22.9825 18.6789 23.5363C17.1236 24.09 15.4351 24.149 13.8449 23.7052C12.2547 23.2613 10.8408 22.3364 9.79712 21.0572C8.75341 19.778 8.13102 18.2072 8.01532 16.5603C7.89962 14.9134 8.29627 13.2711 9.15088 11.8585C10.0055 10.446 11.2762 9.33243 12.7887 8.67061C14.3012 8.0088 15.9814 7.83113 17.5988 8.16198V10.6356C16.4047 10.2791 15.1258 10.3311 13.9645 10.7834C12.8033 11.2357 11.8261 12.0625 11.1876 13.1327C10.5492 14.203 10.286 15.4556 10.4397 16.6923C10.5935 17.929 11.1553 19.0791 12.0363 19.9605C12.9174 20.8419 14.0672 21.4043 15.3038 21.5585C16.5405 21.7128 17.7932 21.4501 18.8638 20.8121C19.9343 20.1741 20.7615 19.1973 21.2143 18.0362C21.6671 16.8752 21.7196 15.5963 21.3636 14.402H23.8356ZM15.9956 18.402C16.3637 18.4022 16.7269 18.3177 17.0571 18.1551C17.3873 17.9925 17.6757 17.7562 17.8999 17.4643C18.1242 17.1725 18.2783 16.8329 18.3504 16.472C18.4225 16.1111 18.4106 15.7384 18.3156 15.3828L20.8468 12.85L20.8948 12.802H24.7988C24.904 12.8022 25.0081 12.7816 25.1053 12.7415C25.2025 12.7015 25.2908 12.6426 25.3652 12.5684L28.5652 9.36838C28.6774 9.25649 28.7538 9.11382 28.7848 8.95844C28.8158 8.80307 28.8 8.64199 28.7393 8.49564C28.6786 8.34928 28.5759 8.22423 28.4441 8.13634C28.3122 8.04846 28.1573 8.00169 27.9988 8.00198H23.9988V4.00198C23.9988 3.84387 23.9519 3.68932 23.8641 3.55784C23.7763 3.42637 23.6515 3.32385 23.5055 3.26325C23.3595 3.20265 23.1988 3.18667 23.0437 3.21734C22.8886 3.24801 22.746 3.32396 22.634 3.43558L19.434 6.63558C19.3595 6.70988 19.3004 6.79815 19.26 6.89534C19.2197 6.99254 19.1989 7.09674 19.1988 7.20198V11.106L19.1508 11.154L16.6196 13.6836C16.2637 13.5877 15.8905 13.5752 15.529 13.6468C15.1674 13.7185 14.8272 13.8725 14.5348 14.0969C14.2423 14.3212 14.0055 14.6099 13.8426 14.9406C13.6798 15.2713 13.5953 15.635 13.5956 16.0036C13.5956 16.6401 13.8485 17.2505 14.2986 17.7006C14.7487 18.1507 15.3591 18.4036 15.9956 18.4036" fill="white"/>
</svg>
