<svg width="32" height="32" viewBox="0 0 32 32" fill="none" xmlns="http://www.w3.org/2000/svg">
<path d="M13.3385 8V6.66667H18.6719V8H21.3385V6.66667C21.3385 5.95942 21.0576 5.28115 20.5575 4.78105C20.0574 4.28095 19.3791 4 18.6719 4H13.3385C12.6313 4 11.953 4.28095 11.4529 4.78105C10.9528 5.28115 10.6719 5.95942 10.6719 6.66667V8H13.3385Z" fill="white"/>
<path opacity="0.25" d="M12.0052 20.0013C11.6516 20.0013 11.3124 19.8608 11.0624 19.6108C10.8124 19.3607 10.6719 19.0216 10.6719 18.668V16.0013C10.6719 15.6477 10.8124 15.3085 11.0624 15.0585C11.3124 14.8084 11.6516 14.668 12.0052 14.668C12.3588 14.668 12.698 14.8084 12.948 15.0585C13.1981 15.3085 13.3385 15.6477 13.3385 16.0013V18.668C13.3385 19.0216 13.1981 19.3607 12.948 19.6108C12.698 19.8608 12.3588 20.0013 12.0052 20.0013ZM20.0052 20.0013C19.6516 20.0013 19.3124 19.8608 19.0624 19.6108C18.8124 19.3607 18.6719 19.0216 18.6719 18.668V16.0013C18.6719 15.6477 18.8124 15.3085 19.0624 15.0585C19.3124 14.8084 19.6516 14.668 20.0052 14.668C20.3588 14.668 20.698 14.8084 20.948 15.0585C21.1981 15.3085 21.3385 15.6477 21.3385 16.0013V18.668C21.3385 19.0216 21.1981 19.3607 20.948 19.6108C20.698 19.8608 20.3588 20.0013 20.0052 20.0013Z" fill="white"/>
<path opacity="0.5" d="M26.6719 8H5.33854C4.6313 8 3.95302 8.28095 3.45292 8.78105C2.95283 9.28115 2.67188 9.95942 2.67188 10.6667V14.6667C2.67188 15.3739 2.95283 16.0522 3.45292 16.5523C3.95302 17.0524 4.6313 17.3333 5.33854 17.3333H10.6719V16C10.6719 15.6464 10.8124 15.3072 11.0624 15.0572C11.3124 14.8071 11.6516 14.6667 12.0052 14.6667C12.3588 14.6667 12.698 14.8071 12.948 15.0572C13.1981 15.3072 13.3385 15.6464 13.3385 16V17.3333H18.6719V16C18.6719 15.6464 18.8124 15.3072 19.0624 15.0572C19.3124 14.8071 19.6516 14.6667 20.0052 14.6667C20.3588 14.6667 20.698 14.8071 20.948 15.0572C21.1981 15.3072 21.3385 15.6464 21.3385 16V17.3333H26.6719C27.3791 17.3333 28.0574 17.0524 28.5575 16.5523C29.0576 16.0522 29.3385 15.3739 29.3385 14.6667V10.6667C29.3385 9.95942 29.0576 9.28115 28.5575 8.78105C28.0574 8.28095 27.3791 8 26.6719 8Z" fill="white"/>
<path d="M26.6719 17.3346H21.3385V18.668C21.3385 19.0216 21.1981 19.3607 20.948 19.6108C20.698 19.8608 20.3588 20.0013 20.0052 20.0013C19.6516 20.0013 19.3124 19.8608 19.0624 19.6108C18.8124 19.3607 18.6719 19.0216 18.6719 18.668V17.3346H13.3385V18.668C13.3385 19.0216 13.1981 19.3607 12.948 19.6108C12.698 19.8608 12.3588 20.0013 12.0052 20.0013C11.6516 20.0013 11.3124 19.8608 11.0624 19.6108C10.8124 19.3607 10.6719 19.0216 10.6719 18.668V17.3346H5.33854C4.6313 17.3346 3.95302 17.0537 3.45292 16.5536C2.95283 16.0535 2.67188 15.3752 2.67188 14.668V25.3346C2.67188 26.0419 2.95283 26.7202 3.45292 27.2203C3.95302 27.7204 4.6313 28.0013 5.33854 28.0013H26.6719C27.3791 28.0013 28.0574 27.7204 28.5575 27.2203C29.0576 26.7202 29.3385 26.0419 29.3385 25.3346V14.668C29.3385 15.3752 29.0576 16.0535 28.5575 16.5536C28.0574 17.0537 27.3791 17.3346 26.6719 17.3346Z" fill="white"/>
</svg>
