<svg width="32" height="32" viewBox="0 0 32 32" fill="none" xmlns="http://www.w3.org/2000/svg">
<path d="M12.0121 10.1903C12.1048 8.38752 12.7182 6.65028 13.7782 5.18905C14.8381 3.72783 16.299 2.60534 17.984 1.95756C19.6689 1.30979 21.5056 1.16454 23.2714 1.5394C25.0372 1.91427 26.6564 2.79316 27.9328 4.06961C29.2093 5.34606 30.0882 6.96528 30.4631 8.73109C30.8379 10.4969 30.6927 12.3335 30.0449 14.0185C29.3971 15.7034 28.2746 17.1644 26.8134 18.2243C25.3522 19.2842 23.6149 19.8977 21.8121 19.9903L9.51348 29.6996C9.46523 29.742 9.41399 29.7807 9.36015 29.8156C9.23558 29.9009 9.10399 29.9754 8.96682 30.0383C8.54826 30.2293 8.09211 30.3236 7.63215 30.3143C6.49748 30.301 5.18415 29.737 3.72548 28.2783C2.26682 26.8196 1.69882 25.5063 1.68815 24.3716C1.67867 23.9112 1.77301 23.4546 1.96415 23.0356C2.05457 22.8404 2.16829 22.6569 2.30282 22.489L12.0121 10.1903ZM12.5455 13.8196L4.38282 24.1583C4.36262 24.218 4.35314 24.2807 4.35482 24.3436C4.35615 24.557 4.45748 25.2423 5.60815 26.393C6.76148 27.5436 7.44815 27.6463 7.66148 27.6476C7.72346 27.6494 7.78527 27.6404 7.84415 27.621L18.1828 19.457C16.8861 18.9903 15.7084 18.243 14.7339 17.2685C13.7595 16.294 13.0122 15.1164 12.5455 13.8196ZM13.8855 20.0023L10.6668 23.221L8.78148 21.3356L12.0001 18.117L13.8855 20.0023Z" fill="white"/>
</svg>
