<svg width="47" height="49" viewBox="0 0 47 49" fill="none" xmlns="http://www.w3.org/2000/svg">
<path d="M40.9282 3.25544C42.2503 3.11081 43.3746 4.16146 43.0771 6.37695L39.9422 37.5862C39.7272 39.8044 38.4737 40.4697 36.5542 39.6586L19.8708 29.9469C19.8063 29.9105 19.7513 29.8592 19.7105 29.7974C19.6697 29.7355 19.6442 29.6648 19.6361 29.5911C19.6281 29.5174 19.6377 29.4429 19.6641 29.3737C19.6906 29.3045 19.7332 29.2425 19.7884 29.193L35.8528 11.1458C36.586 10.338 35.5621 10.0979 34.5662 10.864L13.7386 27.4254C13.6756 27.4771 13.6016 27.5137 13.5224 27.5326C13.4431 27.5514 13.3606 27.552 13.281 27.5342L3.45413 25.5694C1.27615 25.1857 1.11756 23.736 3.59089 22.4209L39.9923 3.60428C40.2784 3.42783 40.5964 3.30931 40.9282 3.25544ZM16.525 37.641C16.8749 37.2051 17.1355 36.7045 17.2919 36.1679C17.4483 35.6313 17.4975 35.0691 17.4367 34.5135C17.3758 33.9579 17.2062 33.4196 16.9373 32.9296C16.6685 32.4395 16.3058 32.0072 15.8698 31.6573C15.4339 31.3075 14.9334 31.0469 14.3968 30.8905C13.8601 30.734 13.298 30.6848 12.7423 30.7457C12.1867 30.8065 11.6485 30.9762 11.1584 31.245C10.6684 31.5139 10.2361 31.8766 9.88619 32.3125C7.11716 35.7631 5.40612 38.8418 5.40612 38.8418L9.20308 38.084L4.47269 45.9191L10.9754 40.0813L11.683 43.9397C11.683 43.9397 13.6494 41.2229 16.525 37.641Z" stroke="#7A7A7A" stroke-width="2" strokeLinecap="round" strokeLinejoin="round"/>
</svg>
