<svg width="32" height="32" viewBox="0 0 32 32" fill="none" xmlns="http://www.w3.org/2000/svg">
<path d="M5.33706 14.668C5.6769 14.6683 6.00377 14.7985 6.25089 15.0318C6.498 15.2651 6.64671 15.5839 6.66663 15.9232C6.68654 16.2624 6.57617 16.5965 6.35804 16.8571C6.13992 17.1177 5.83053 17.2852 5.49306 17.3253L5.33706 17.3346H4.00373C3.66389 17.3343 3.33702 17.2041 3.08991 16.9708C2.84279 16.7375 2.69408 16.4187 2.67417 16.0794C2.65425 15.7402 2.76463 15.4061 2.98275 15.1455C3.20087 14.8849 3.51027 14.7174 3.84773 14.6773L4.00373 14.668H5.33706ZM16.0037 2.66797C16.3303 2.66801 16.6455 2.78791 16.8896 3.00492C17.1336 3.22193 17.2895 3.52097 17.3277 3.8453L17.3371 4.0013V5.33464C17.3367 5.67447 17.2066 6.00135 16.9733 6.24846C16.74 6.49557 16.4211 6.64428 16.0819 6.6642C15.7426 6.68411 15.4086 6.57374 15.148 6.35562C14.8874 6.1375 14.7199 5.8281 14.6797 5.49064L14.6704 5.33464V4.0013C14.6704 3.64768 14.8109 3.30854 15.0609 3.05849C15.311 2.80844 15.6501 2.66797 16.0037 2.66797ZM28.0037 14.668C28.3436 14.6683 28.6704 14.7985 28.9176 15.0318C29.1647 15.2651 29.3134 15.5839 29.3333 15.9232C29.3532 16.2624 29.2428 16.5965 29.0247 16.8571C28.8066 17.1177 28.4972 17.2852 28.1597 17.3253L28.0037 17.3346H26.6704C26.3306 17.3343 26.0037 17.2041 25.7566 16.9708C25.5095 16.7375 25.3608 16.4187 25.3408 16.0794C25.3209 15.7402 25.4313 15.4061 25.6494 15.1455C25.8675 14.8849 26.1769 14.7174 26.5144 14.6773L26.6704 14.668H28.0037ZM6.52773 6.5253C6.75732 6.29573 7.06279 6.15782 7.38682 6.13745C7.71086 6.11708 8.03119 6.21563 8.28773 6.41464L8.41306 6.5253L9.3464 7.45864C9.58553 7.69858 9.72436 8.02055 9.7347 8.35915C9.74504 8.69775 9.62611 9.02759 9.40207 9.28167C9.17802 9.53576 8.86566 9.69504 8.52843 9.72717C8.1912 9.75929 7.85439 9.66185 7.5864 9.45464L7.46106 9.34397L6.52773 8.41064C6.27777 8.1606 6.13735 7.82152 6.13735 7.46797C6.13735 7.11442 6.27777 6.77534 6.52773 6.5253ZM23.5944 6.5253C23.8343 6.28617 24.1563 6.14734 24.4949 6.137C24.8335 6.12666 25.1633 6.24559 25.4174 6.46963C25.6715 6.69368 25.8308 7.00604 25.8629 7.34327C25.8951 7.6805 25.7976 8.01731 25.5904 8.2853L25.4797 8.41064L24.5464 9.34397C24.3065 9.5831 23.9845 9.72193 23.6459 9.73227C23.3073 9.74261 22.9774 9.62368 22.7234 9.39964C22.4693 9.17559 22.31 8.86323 22.2779 8.526C22.2457 8.18877 22.3432 7.85196 22.5504 7.58397L22.6611 7.45864L23.5944 6.5253ZM18.6704 24.0013C19.024 24.0013 19.3632 24.1418 19.6132 24.3918C19.8633 24.6419 20.0037 24.981 20.0037 25.3346C20.0037 26.3955 19.5823 27.4129 18.8322 28.1631C18.082 28.9132 17.0646 29.3346 16.0037 29.3346C14.9429 29.3346 13.9254 28.9132 13.1753 28.1631C12.4252 27.4129 12.0037 26.3955 12.0037 25.3346C12.0038 25.0081 12.1237 24.6929 12.3407 24.4488C12.5577 24.2048 12.8567 24.0488 13.1811 24.0106L13.3371 24.0013H18.6704ZM16.0037 8.0013C17.6828 8.0013 19.3193 8.5296 20.6814 9.51136C22.0435 10.4931 23.0622 11.8786 23.5932 13.4715C24.1242 15.0644 24.1405 16.784 23.6398 18.3866C23.1392 19.9893 22.147 21.3939 20.8037 22.4013C20.62 22.5393 20.4036 22.6275 20.1757 22.6573L20.0037 22.668H12.0037C11.7152 22.668 11.4345 22.5744 11.2037 22.4013C9.86048 21.3939 8.86826 19.9893 8.36762 18.3866C7.86698 16.784 7.8833 15.0644 8.41427 13.4715C8.94523 11.8786 9.96392 10.4931 11.326 9.51136C12.6882 8.5296 14.3247 8.0013 16.0037 8.0013Z" fill="white"/>
</svg>
