<svg width="63" height="60" viewBox="0 0 63 60" fill="none" xmlns="http://www.w3.org/2000/svg">
<path d="M49.3125 14.1102C47.4011 5.86595 40.0939 0 31.5051 0C22.9123 0 15.6025 5.86595 13.6911 14.1102C4.68998 16.2072 0.128906 21.0915 0.128906 28.6401C0.128906 37.9737 7.1348 43.7718 18.4131 43.7718H23.5389V40.2968H18.4131C14.9388 40.2968 3.60325 39.4562 3.60325 28.6394C3.60325 22.5015 7.38686 18.8894 15.5114 17.2713L16.6899 17.0365L16.8861 15.85C18.0693 8.67922 24.2166 3.47435 31.5038 3.47435C38.787 3.47435 44.9323 8.67922 46.1155 15.85L46.3116 17.0365L47.4908 17.2706C55.6147 18.8874 59.3983 22.5001 59.3983 28.6388C59.3983 39.4555 48.0575 40.2962 44.5825 40.2962H39.6483V43.7712H44.5825C55.8648 43.7712 62.8733 37.9731 62.8733 28.6394C62.8747 21.0902 58.3136 16.2059 49.3125 14.1102Z" fill="#00A7FF"/>
<path d="M35.2785 33.2934C35.2785 31.2456 33.6032 29.5703 31.5547 29.5703C29.507 29.5703 27.8317 31.245 27.8317 33.2934V48.2941H23.5413H22.7897C20.5783 48.2941 20.1992 50.0406 21.6571 51.4872L23.5413 53.3573L27.6288 57.4143L28.8958 58.6713C30.6595 60.4204 32.3741 60.4743 34.229 58.6374L35.1661 57.7096L39.6513 53.2696L41.4524 51.4872C42.71 50.2428 42.5531 48.2941 39.9646 48.2941H39.6513H35.2778V33.2934H35.2785Z" fill="white"/>
<path d="M31.5015 11.1723C34.2563 11.1723 36.5807 13.1402 37.0283 15.8524L40.4561 15.2858C39.7298 10.889 35.9635 7.69727 31.5008 7.69727C27.0362 7.69727 23.2692 10.8883 22.543 15.2858L25.9708 15.8524C26.4197 13.1402 28.7448 11.1723 31.5015 11.1723Z" fill="#00A7FF"/>
</svg>
