<svg width="24" height="24" viewBox="0 0 24 24" fill="none" xmlns="http://www.w3.org/2000/svg">
<g clip-path="url(#clip0_2845_20683)">
<path d="M22.0917 0.000167795H1.76398C1.53547 -0.00300571 1.30858 0.0388643 1.09626 0.123387C0.883944 0.207909 0.690354 0.333428 0.52655 0.492775C0.362745 0.652123 0.231935 0.842177 0.141588 1.05208C0.0512422 1.26199 0.00313003 1.48764 0 1.71614V22.2839C0.00313003 22.5124 0.0512422 22.738 0.141588 22.9479C0.231935 23.1578 0.362745 23.3479 0.52655 23.5072C0.690354 23.6666 0.883944 23.7921 1.09626 23.8766C1.30858 23.9611 1.53547 24.003 1.76398 23.9998H22.0917C22.3202 24.003 22.5471 23.9611 22.7594 23.8766C22.9717 23.7921 23.1653 23.6666 23.3291 23.5072C23.4929 23.3479 23.6237 23.1578 23.7141 22.9479C23.8044 22.738 23.8525 22.5124 23.8557 22.2839V1.71614C23.8525 1.48764 23.8044 1.26199 23.7141 1.05208C23.6237 0.842177 23.4929 0.652123 23.3291 0.492775C23.1653 0.333428 22.9717 0.207909 22.7594 0.123387C22.5471 0.0388643 22.3202 -0.00300571 22.0917 0.000167795ZM7.2359 20.0879H3.63595V9.28804H7.2359V20.0879ZM5.43592 7.77606C4.93945 7.77606 4.4633 7.57883 4.11224 7.22777C3.76118 6.87671 3.56395 6.40056 3.56395 5.90408C3.56395 5.40761 3.76118 4.93146 4.11224 4.5804C4.4633 4.22934 4.93945 4.03211 5.43592 4.03211C5.69956 4.00221 5.96653 4.02834 6.21936 4.10877C6.4722 4.1892 6.70519 4.32213 6.90309 4.49886C7.10099 4.67558 7.25933 4.89211 7.36774 5.13427C7.47616 5.37643 7.5322 5.63876 7.5322 5.90408C7.5322 6.16941 7.47616 6.43173 7.36774 6.67389C7.25933 6.91606 7.10099 7.13259 6.90309 7.30931C6.70519 7.48603 6.4722 7.61897 6.21936 7.6994C5.96653 7.77983 5.69956 7.80596 5.43592 7.77606ZM20.2197 20.0879H16.6198V14.292C16.6198 12.84 16.1038 11.892 14.7958 11.892C14.391 11.895 13.9968 12.0219 13.6664 12.2558C13.336 12.4897 13.0852 12.8192 12.9478 13.2C12.8539 13.482 12.8132 13.7791 12.8278 14.076V20.0759H9.22787V9.27604H12.8278V10.8C13.1549 10.2326 13.6305 9.76505 14.2035 9.44788C14.7766 9.1307 15.4253 8.97586 16.0798 9.00004C18.4797 9.00004 20.2197 10.548 20.2197 13.872V20.0879Z" fill="white"/>
</g>
<defs>
<clipPath id="clip0_2845_20683">
<rect width="24" height="24" fill="white"/>
</clipPath>
</defs>
</svg>
