<svg width="24" height="24" viewBox="0 0 24 24" fill="none" xmlns="http://www.w3.org/2000/svg">
<path fill-rule="evenodd" clip-rule="evenodd" d="M12.3404 1.24659C12.2327 1.19988 12.1166 1.17578 11.9992 1.17578C11.8819 1.17578 11.7658 1.19988 11.6581 1.24659L0.51524 6.07574C0.36214 6.14233 0.231822 6.25219 0.140291 6.39183C0.0487596 6.53146 0 6.69478 0 6.86174C0 7.02869 0.0487596 7.19202 0.140291 7.33165C0.231822 7.47128 0.36214 7.58114 0.51524 7.64774L2.0461 8.31117V17.8957C1.60027 18.0929 1.23574 18.4373 1.01361 18.8712C0.791481 19.3051 0.725242 19.8022 0.825994 20.2792C0.926746 20.7561 1.18837 21.184 1.56702 21.491C1.94567 21.798 2.41833 21.9656 2.90581 21.9656C3.39329 21.9656 3.86596 21.798 4.24461 21.491C4.62325 21.184 4.88488 20.7561 4.98563 20.2792C5.08638 19.8022 5.02014 19.3051 4.79801 18.8712C4.57588 18.4373 4.21136 18.0929 3.76553 17.8957V9.05517L11.6564 12.4752C11.7641 12.5219 11.8802 12.546 11.9975 12.546C12.1149 12.546 12.231 12.5219 12.3387 12.4752L23.4815 7.64774C23.6346 7.58114 23.7649 7.47128 23.8565 7.33165C23.948 7.19202 23.9968 7.02869 23.9968 6.86174C23.9968 6.69478 23.948 6.53146 23.8565 6.39183C23.7649 6.25219 23.6346 6.14233 23.4815 6.07574L12.3404 1.24659ZM5.06667 16.0323L5.0581 11.9523L10.8061 14.4415C11.1825 14.6045 11.5882 14.6886 11.9984 14.6886C12.4085 14.6886 12.8143 14.6045 13.1907 14.4415L18.9404 11.9506V16.0306C18.941 16.218 18.8802 16.4005 18.7672 16.55L18.0832 16.0306L18.7655 16.55V16.5534L18.7604 16.5569L18.7518 16.5689L18.7261 16.6015L18.6387 16.7043C18.5373 16.8181 18.4309 16.9274 18.3198 17.0317C17.94 17.3898 17.5241 17.7075 17.0787 17.9797C15.9644 18.662 14.2895 19.3237 11.9992 19.3237C9.70895 19.3237 8.0341 18.662 6.92495 17.978C6.47892 17.7074 6.06287 17.3902 5.68381 17.0317C5.54077 16.8956 5.40569 16.7514 5.27924 16.5997L5.25353 16.5654L5.24495 16.5552L5.24153 16.5517C5.23981 16.55 5.23981 16.5483 5.92381 16.0306L5.2381 16.5483C5.12682 16.3999 5.06667 16.2178 5.06667 16.0323Z" fill="#20B0C6"/>
</svg>
