<svg width="23" height="23" viewBox="0 0 23 23" fill="none" xmlns="http://www.w3.org/2000/svg">
<g clip-path="url(#clip0_4892_395)">
<path d="M20.7729 9.68649H20.0136V9.64737H11.5289V13.4183H16.8568C16.0795 15.6135 13.9909 17.1893 11.5289 17.1893C8.40518 17.1893 5.87251 14.6566 5.87251 11.5328C5.87251 8.40908 8.40518 5.87642 11.5289 5.87642C12.9709 5.87642 14.2827 6.42038 15.2815 7.30891L17.948 4.64238C16.2643 3.07319 14.0121 2.10547 11.5289 2.10547C6.32267 2.10547 2.10156 6.32658 2.10156 11.5328C2.10156 16.7391 6.32267 20.9602 11.5289 20.9602C16.7352 20.9602 20.9563 16.7391 20.9563 11.5328C20.9563 10.9007 20.8913 10.2837 20.7729 9.68649Z" fill="#FFC107"/>
<path d="M3.1875 7.14487L6.28486 9.4164C7.12296 7.34143 9.15267 5.87642 11.5279 5.87642C12.9698 5.87642 14.2816 6.42038 15.2805 7.30891L17.947 4.64238C16.2633 3.07319 14.0111 2.10547 11.5279 2.10547C7.90684 2.10547 4.76659 4.14979 3.1875 7.14487Z" fill="#FF3D00"/>
<path d="M11.5294 20.9598C13.9645 20.9598 16.1771 20.0279 17.85 18.5125L14.9322 16.0434C13.9541 16.7877 12.7586 17.1902 11.5294 17.1889C9.07738 17.1889 6.99534 15.6253 6.21099 13.4434L3.13672 15.812C4.69695 18.865 7.86549 20.9598 11.5294 20.9598Z" fill="#4CAF50"/>
<path d="M20.7753 9.68561H20.0159V9.64648H11.5312V13.4174H16.8591C16.4873 14.4622 15.8176 15.3751 14.9326 16.0434L14.9341 16.0425L17.8518 18.5115C17.6454 18.6991 20.9586 16.2456 20.9586 11.532C20.9586 10.8999 20.8936 10.2828 20.7753 9.68561Z" fill="#1976D2"/>
</g>
<defs>
<clipPath id="clip0_4892_395">
<rect width="22.6257" height="22.6257" fill="white" transform="translate(0.21875 0.21875)"/>
</clipPath>
</defs>
</svg>
