<svg width="20" height="20" viewBox="0 0 20 20" fill="none" xmlns="http://www.w3.org/2000/svg">
<g clip-path="url(#clip0_4892_403)">
<path d="M18.0319 1.24811H2.71244C2.36485 1.24458 2.03006 1.37907 1.78152 1.62209C1.53298 1.86511 1.39099 2.1968 1.38672 2.54438V17.9257C1.39177 18.2728 1.53409 18.6037 1.78255 18.8461C2.031 19.0885 2.36536 19.2226 2.71244 19.219H18.0319C18.3795 19.2218 18.7141 19.0869 18.9625 18.8437C19.2109 18.6005 19.353 18.2689 19.3577 17.9213V2.53996C19.3515 2.1934 19.2087 1.86329 18.9605 1.62139C18.7122 1.37949 18.3785 1.24534 18.0319 1.24811Z" fill="#0076B2"/>
<path d="M4.04805 7.98272H6.71571V16.566H4.04805V7.98272ZM5.38262 3.71094C5.68858 3.71094 5.98768 3.80169 6.24206 3.9717C6.49644 4.14172 6.69468 4.38336 6.8117 4.66607C6.92872 4.94877 6.95927 5.25983 6.89947 5.5599C6.83967 5.85997 6.69222 6.13556 6.47576 6.3518C6.25931 6.56805 5.98358 6.71524 5.68345 6.77476C5.38333 6.83427 5.0723 6.80343 4.78971 6.68614C4.50711 6.56885 4.26566 6.37038 4.09588 6.11583C3.92611 5.86129 3.83565 5.56211 3.83594 5.25614C3.83633 4.84619 3.99945 4.45317 4.28947 4.16343C4.57949 3.87369 4.97267 3.71094 5.38262 3.71094ZM8.38907 7.98272H10.9462V9.16114H10.9816C11.3381 8.48649 12.2072 7.77502 13.5049 7.77502C16.2064 7.76913 16.7073 9.54707 16.7073 11.8524V16.566H14.0396V12.39C14.0396 11.3957 14.0219 10.1157 12.6535 10.1157C11.285 10.1157 11.0523 11.1998 11.0523 12.3252V16.566H8.38907V7.98272Z" fill="white"/>
</g>
<defs>
<clipPath id="clip0_4892_403">
<rect width="18.8547" height="18.8547" fill="white" transform="translate(0.945312 0.806641)"/>
</clipPath>
</defs>
</svg>
