<svg width="22" height="22" viewBox="0 0 22 22" fill="none" xmlns="http://www.w3.org/2000/svg">
<path d="M19.8901 12.2017V16.2212C19.8901 16.9285 19.6091 17.6068 19.109 18.1069C18.6089 18.607 17.9307 18.8879 17.2234 18.8879H4.77897C4.07173 18.8879 3.39345 18.607 2.89335 18.1069C2.39326 17.6068 2.1123 16.9285 2.1123 16.2212V12.2017L2.60386 12.4479C5.20913 13.7601 8.08567 14.4435 11.0027 14.4432C13.9198 14.4428 16.7962 13.7589 19.4012 12.4461L19.8901 12.2017ZM12.779 1.99902C13.4862 1.99902 14.1645 2.27998 14.6646 2.78007C15.1647 3.28017 15.4456 3.95845 15.4456 4.66569V5.55458H17.2234C17.9307 5.55458 18.6089 5.83553 19.109 6.33563C19.6091 6.83572 19.8901 7.514 19.8901 8.22125V10.2141L18.6039 10.8577C16.3026 12.0178 13.7663 12.6358 11.1893 12.6645C8.61224 12.6931 6.06284 12.1317 3.7363 11.023L3.16119 10.7386L2.1123 10.2141V8.22125C2.1123 7.514 2.39326 6.83572 2.89335 6.33563C3.39345 5.83553 4.07173 5.55458 4.77897 5.55458H6.55675V4.66569C6.55675 3.95845 6.8377 3.28017 7.3378 2.78007C7.8379 2.27998 8.51617 1.99902 9.22342 1.99902H12.779ZM11.0012 9.11013C10.7654 9.11013 10.5394 9.20379 10.3727 9.37048C10.206 9.53718 10.1123 9.76328 10.1123 9.99902C10.1117 10.1158 10.1341 10.2315 10.1783 10.3395C10.2224 10.4476 10.2874 10.5459 10.3695 10.6289C10.4516 10.7118 10.5493 10.7778 10.6569 10.823C10.7645 10.8682 10.88 10.8918 10.9967 10.8924C11.1135 10.8929 11.2292 10.8705 11.3373 10.8264C11.4453 10.7823 11.5436 10.7173 11.6266 10.6351C11.7095 10.553 11.7755 10.4554 11.8207 10.3477C11.8659 10.2401 11.8895 10.1246 11.8901 10.0079C11.8901 9.50836 11.4919 9.11013 11.0012 9.11013ZM12.779 3.7768H9.22342C8.98767 3.7768 8.76158 3.87045 8.59488 4.03715C8.42818 4.20385 8.33453 4.42994 8.33453 4.66569V5.55458H13.6679V4.66569C13.6679 4.42994 13.5742 4.20385 13.4075 4.03715C13.2408 3.87045 13.0147 3.7768 12.779 3.7768Z" fill="white"/>
</svg>
