<svg width="22" height="22" viewBox="0 0 22 22" fill="none" xmlns="http://www.w3.org/2000/svg">
<path d="M4.33464 2.88794H17.668C19.1386 2.88794 20.3346 4.08394 20.3346 5.55461V13.5546C20.3346 15.0253 19.1386 16.2213 17.668 16.2213H9.1613C9.73708 15.7256 10.1994 15.1119 10.5169 14.4217C10.8344 13.7315 10.9996 12.981 11.0013 12.2213C10.9996 11.4615 10.8344 10.7111 10.5169 10.0209C10.1994 9.33068 9.73708 8.71691 9.1613 8.22127H15.668C15.8448 8.22127 16.0143 8.15103 16.1394 8.02601C16.2644 7.90099 16.3346 7.73142 16.3346 7.55461C16.3346 7.3778 16.2644 7.20823 16.1394 7.0832C16.0143 6.95818 15.8448 6.88794 15.668 6.88794H5.66797C4.90825 6.88962 4.15779 7.05482 3.46758 7.37232C2.77738 7.68981 2.16361 8.15216 1.66797 8.72794V5.55461C1.66797 4.08394 2.86397 2.88794 4.33464 2.88794ZM13.0013 12.2213H15.668C15.8448 12.2213 16.0143 12.151 16.1394 12.026C16.2644 11.901 16.3346 11.7314 16.3346 11.5546C16.3346 11.3778 16.2644 11.2082 16.1394 11.0832C16.0143 10.9582 15.8448 10.8879 15.668 10.8879H13.0013C12.8245 10.8879 12.6549 10.9582 12.5299 11.0832C12.4049 11.2082 12.3346 11.3778 12.3346 11.5546C12.3346 11.7314 12.4049 11.901 12.5299 12.026C12.6549 12.151 12.8245 12.2213 13.0013 12.2213ZM5.66797 16.2213C6.72883 16.2213 7.74625 15.7998 8.4964 15.0497C9.24654 14.2996 9.66797 13.2821 9.66797 12.2213C9.66797 11.1604 9.24654 10.143 8.4964 9.39285C7.74625 8.6427 6.72883 8.22127 5.66797 8.22127C4.6071 8.22127 3.58969 8.6427 2.83954 9.39285C2.0894 10.143 1.66797 11.1604 1.66797 12.2213C1.66797 13.2821 2.0894 14.2996 2.83954 15.0497C3.58969 15.7998 4.6071 16.2213 5.66797 16.2213ZM3.0013 19.5546V16.8119C3.80846 17.2918 4.72897 17.5477 5.66797 17.5533C6.64397 17.5533 7.54664 17.2706 8.33463 16.8119V19.5533C8.33468 19.674 8.30197 19.7924 8.23997 19.896C8.17798 19.9995 8.08904 20.0843 7.98264 20.1413C7.87639 20.1983 7.75666 20.2254 7.63621 20.2198C7.51576 20.2142 7.39909 20.176 7.29864 20.1093L5.66797 19.0213L4.0373 20.1079C3.93731 20.1761 3.82055 20.2156 3.6997 20.2222C3.57884 20.2287 3.45851 20.202 3.35175 20.145C3.24499 20.088 3.15589 20.0028 3.09411 19.8987C3.03233 19.7946 3.00023 19.6756 3.0013 19.5546Z" fill="white"/>
</svg>
