<svg width="22" height="22" viewBox="0 0 22 22" fill="none" xmlns="http://www.w3.org/2000/svg">
<path fill-rule="evenodd" clip-rule="evenodd" d="M15.4 3.77789C15.5619 3.61025 15.6515 3.38571 15.6495 3.15265C15.6475 2.91959 15.554 2.69664 15.3892 2.53183C15.2244 2.36703 15.0014 2.27354 14.7684 2.27152C14.5353 2.26949 14.3108 2.35909 14.1431 2.52101L10.6853 5.97789C10.602 6.06122 10.489 6.10802 10.3711 6.10802C10.2533 6.10802 10.1402 6.06122 10.0569 5.97789L7.85689 3.77789C7.77489 3.693 7.67681 3.62528 7.56836 3.57869C7.45991 3.53211 7.34327 3.50759 7.22525 3.50656C7.10722 3.50554 6.99017 3.52803 6.88093 3.57272C6.77169 3.61741 6.67244 3.68342 6.58898 3.76688C6.50552 3.85034 6.43952 3.94958 6.39482 4.05882C6.35013 4.16807 6.32764 4.28511 6.32867 4.40314C6.32969 4.52117 6.35421 4.63781 6.4008 4.74625C6.44738 4.8547 6.5151 4.95279 6.6 5.03478L8.00978 6.44456H4.77778C4.30628 6.44456 3.8541 6.63186 3.5207 6.96526C3.1873 7.29866 3 7.75084 3 8.22234V17.1112C3 17.5827 3.1873 18.0349 3.5207 18.3683C3.8541 18.7017 4.30628 18.889 4.77778 18.889H17.2222C17.6937 18.889 18.1459 18.7017 18.4793 18.3683C18.8127 18.0349 19 17.5827 19 17.1112V8.22234C19 7.75084 18.8127 7.29866 18.4793 6.96526C18.1459 6.63186 17.6937 6.44456 17.2222 6.44456H12.7333L15.4 3.77789ZM8.74489 10.8179C8.76094 10.6731 8.81082 10.5341 8.89051 10.4122C8.97019 10.2902 9.07743 10.1887 9.20358 10.1159C9.32973 10.043 9.47125 10.0009 9.6167 9.9928C9.76215 9.98473 9.90746 10.011 10.0409 10.0695C10.3564 10.2063 10.9547 10.4846 11.7013 10.9157C12.448 11.3468 12.9893 11.7263 13.2658 11.9308C13.383 12.0171 13.4783 12.1298 13.544 12.2597C13.6097 12.3896 13.6439 12.5332 13.6439 12.6788C13.6439 12.8244 13.6097 12.9679 13.544 13.0979C13.4783 13.2278 13.383 13.3405 13.2658 13.4268C12.9902 13.6303 12.4533 14.0063 11.7013 14.4401C10.9484 14.8757 10.3547 15.1512 10.0409 15.2881C9.90746 15.3466 9.76215 15.3728 9.6167 15.3648C9.47125 15.3567 9.32973 15.3145 9.20358 15.2417C9.07743 15.1688 8.97019 15.0673 8.89051 14.9454C8.81082 14.8234 8.76094 14.6845 8.74489 14.5397C8.67836 13.9215 8.64601 13.3001 8.648 12.6783C8.648 11.8197 8.70667 11.1601 8.74578 10.8188" fill="white"/>
</svg>
