<svg width="25" height="30" viewBox="0 0 25 30" fill="none" xmlns="http://www.w3.org/2000/svg">
<path d="M23.224 15.11C23.224 9.22114 18.4462 4.44336 12.5573 4.44336C6.6684 4.44336 1.89062 9.22114 1.89062 15.11C1.89062 20.9989 6.6684 25.7767 12.5573 25.7767C18.4462 25.7767 23.224 20.9989 23.224 15.11Z" stroke="white" stroke-width="1.11111" stroke-miterlimit="10"/>
<path d="M10.352 19.4667L16.7103 15.6256C16.799 15.5716 16.8722 15.4957 16.923 15.4052C16.9739 15.3148 17.0006 15.2127 17.0006 15.1089C17.0006 15.0052 16.9739 14.9031 16.923 14.8126C16.8722 14.7222 16.799 14.6463 16.7103 14.5923L10.352 10.7512C10.2609 10.6966 10.1568 10.6672 10.0506 10.666C9.94436 10.6649 9.83973 10.6921 9.74745 10.7447C9.65516 10.7974 9.57855 10.8736 9.52545 10.9656C9.47236 11.0576 9.44471 11.1621 9.44532 11.2684V18.9495C9.44471 19.0557 9.47236 19.1602 9.52545 19.2523C9.57855 19.3443 9.65516 19.4205 9.74745 19.4732C9.83973 19.5258 9.94436 19.553 10.0506 19.5518C10.1568 19.5507 10.2609 19.5213 10.352 19.4667Z" fill="white"/>
</svg>
