<svg width="27" height="22" viewBox="0 0 27 22" fill="none" xmlns="http://www.w3.org/2000/svg">
<g clip-path="url(#clip0_2775_9048)">
<path d="M16.334 4.22135V13.5547H3.00065V4.22135H16.334ZM3.00065 1.55469C1.52982 1.55469 0.333984 2.75052 0.333984 4.22135V13.5547C0.333984 15.0255 1.52982 16.2214 3.00065 16.2214H7.88815L7.44232 17.5547H4.33398C3.59648 17.5547 3.00065 18.1505 3.00065 18.888C3.00065 19.6255 3.59648 20.2214 4.33398 20.2214H15.0007C15.7382 20.2214 16.334 19.6255 16.334 18.888C16.334 18.1505 15.7382 17.5547 15.0007 17.5547H11.8882L11.4423 16.2214H16.334C17.8048 16.2214 19.0007 15.0255 19.0007 13.5547V4.22135C19.0007 2.75052 17.8048 1.55469 16.334 1.55469H3.00065ZM22.334 1.55469C21.2298 1.55469 20.334 2.45052 20.334 3.55469V18.2214C20.334 19.3255 21.2298 20.2214 22.334 20.2214H25.0007C26.1048 20.2214 27.0006 19.3255 27.0006 18.2214V3.55469C27.0006 2.45052 26.1048 1.55469 25.0007 1.55469H22.334ZM23.0007 4.22135H24.334C24.7006 4.22135 25.0007 4.52135 25.0007 4.88802C25.0007 5.25469 24.7006 5.55469 24.334 5.55469H23.0007C22.634 5.55469 22.334 5.25469 22.334 4.88802C22.334 4.52135 22.634 4.22135 23.0007 4.22135ZM22.334 7.55469C22.334 7.18802 22.634 6.88802 23.0007 6.88802H24.334C24.7006 6.88802 25.0007 7.18802 25.0007 7.55469C25.0007 7.92135 24.7006 8.22135 24.334 8.22135H23.0007C22.634 8.22135 22.334 7.92135 22.334 7.55469ZM23.6673 14.2214C24.0209 14.2214 24.3601 14.3618 24.6101 14.6119C24.8602 14.8619 25.0007 15.2011 25.0007 15.5547C25.0007 15.9083 24.8602 16.2474 24.6101 16.4975C24.3601 16.7475 24.0209 16.888 23.6673 16.888C23.3137 16.888 22.9746 16.7475 22.7245 16.4975C22.4745 16.2474 22.334 15.9083 22.334 15.5547C22.334 15.2011 22.4745 14.8619 22.7245 14.6119C22.9746 14.3618 23.3137 14.2214 23.6673 14.2214Z" fill="white"/>
</g>
<defs>
<clipPath id="clip0_2775_9048">
<rect width="26.6667" height="21.3333" fill="white" transform="translate(0.333008 0.222168)"/>
</clipPath>
</defs>
</svg>
