<svg width="22" height="22" viewBox="0 0 22 22" fill="none" xmlns="http://www.w3.org/2000/svg">
<g clip-path="url(#clip0_2775_9018)">
<path d="M5.9451 13.8323L8.05621 15.9434L7.33398 16.6656H6.55621V15.3323H5.22287V14.5545L5.9451 13.8323ZM11.6951 8.41564C11.8247 8.53601 11.8108 8.6749 11.6534 8.8323L7.61176 12.874C7.45435 13.0314 7.31547 13.0453 7.1951 12.9156C7.06547 12.7953 7.07935 12.6564 7.23676 12.499L11.2784 8.4573C11.4358 8.2999 11.5747 8.28601 11.6951 8.41564ZM7.88954 17.999L15.4451 10.4434L11.4451 6.44341L3.88954 13.999V17.999H7.88954ZM16.334 9.55452L17.6118 8.27675C17.871 8.01749 18.0007 7.70267 18.0007 7.3323C18.0007 6.96193 17.871 6.64712 17.6118 6.38786L15.5007 4.27675C15.2414 4.01749 14.9266 3.88786 14.5562 3.88786C14.1858 3.88786 13.871 4.01749 13.6118 4.27675L12.334 5.55452L16.334 9.55452ZM21.6673 4.22119V17.5545C21.6673 18.6564 21.2761 19.5985 20.4937 20.3809C19.7113 21.1633 18.7692 21.5545 17.6673 21.5545H4.33398C3.23213 21.5545 2.29 21.1633 1.5076 20.3809C0.725188 19.5985 0.333984 18.6564 0.333984 17.5545V4.22119C0.333984 3.11934 0.725188 2.17721 1.5076 1.3948C2.29 0.612395 3.23213 0.221191 4.33398 0.221191H17.6673C18.7692 0.221191 19.7113 0.612395 20.4937 1.3948C21.2761 2.17721 21.6673 3.11934 21.6673 4.22119Z" fill="white"/>
</g>
<defs>
<clipPath id="clip0_2775_9018">
<rect width="21.3333" height="21.3333" fill="white" transform="translate(0.333008 0.222168)"/>
</clipPath>
</defs>
</svg>
