<svg width="22" height="22" viewBox="0 0 22 22" fill="none" xmlns="http://www.w3.org/2000/svg">
<path d="M19.0012 18.5324C18.8827 18.5324 18.7716 18.5101 18.6679 18.4657C18.5642 18.4212 18.4679 18.3546 18.379 18.2657L16.3345 16.2212H7.44564C6.95675 16.2212 6.53838 16.0473 6.19053 15.6995C5.84268 15.3516 5.66845 14.9329 5.66786 14.4435V13.5546H15.4456C15.9345 13.5546 16.3532 13.3807 16.7016 13.0328C17.0501 12.6849 17.224 12.2663 17.2234 11.7768V5.55458H18.1123C18.6012 5.55458 19.0199 5.7288 19.3683 6.07725C19.7168 6.42569 19.8907 6.84406 19.8901 7.33236V17.6212C19.8901 17.8879 19.8012 18.1066 19.6234 18.2772C19.4456 18.4479 19.2382 18.5329 19.0012 18.5324ZM3.00119 14.0879C2.76416 14.0879 2.55675 14.0029 2.37897 13.8328C2.20119 13.6627 2.1123 13.4441 2.1123 13.1768V3.7768C2.1123 3.28791 2.28653 2.86954 2.63497 2.52169C2.98342 2.17384 3.40179 1.99962 3.89008 1.99902H13.6679C14.1567 1.99902 14.5754 2.17325 14.9239 2.52169C15.2723 2.87013 15.4462 3.2885 15.4456 3.7768V9.99902C15.4456 10.4879 15.2717 10.9066 14.9239 11.255C14.576 11.6035 14.1573 11.7774 13.6679 11.7768H5.66786L3.62342 13.8212C3.53453 13.9101 3.43823 13.9768 3.33453 14.0212C3.23082 14.0657 3.11971 14.0879 3.00119 14.0879Z" fill="white"/>
</svg>
