<svg width="22" height="22" viewBox="0 0 22 22" fill="none" xmlns="http://www.w3.org/2000/svg">
<path d="M10.1154 15.7767C10.1137 14.674 10.429 13.5941 11.0238 12.6656H5.00603C4.47622 12.666 3.96824 12.8767 3.5936 13.2513C3.21896 13.626 3.00828 14.134 3.00781 14.6638V15.4816C3.00781 15.99 3.16603 16.486 3.46115 16.9002C4.83181 18.8238 7.07537 19.7767 10.1154 19.7767C10.6487 19.7767 11.1574 19.7473 11.6416 19.6887C10.6587 18.6232 10.1137 17.2263 10.1154 15.7767ZM10.1154 2.00244C11.2941 2.00244 12.4246 2.47069 13.2581 3.30419C14.0916 4.13768 14.5598 5.26815 14.5598 6.44689C14.5598 7.62563 14.0916 8.75609 13.2581 9.58958C12.4246 10.4231 11.2941 10.8913 10.1154 10.8913C8.93663 10.8913 7.80617 10.4231 6.97267 9.58958C6.13918 8.75609 5.67092 7.62563 5.67092 6.44689C5.67092 5.26815 6.13918 4.13768 6.97267 3.30419C7.80617 2.47069 8.93663 2.00244 10.1154 2.00244ZM20.782 15.7767C20.782 17.0733 20.267 18.3168 19.3501 19.2336C18.4333 20.1505 17.1898 20.6656 15.8931 20.6656C14.5965 20.6656 13.353 20.1505 12.4362 19.2336C11.5193 18.3168 11.0043 17.0733 11.0043 15.7767C11.0043 14.48 11.5193 13.2365 12.4362 12.3197C13.353 11.4029 14.5965 10.8878 15.8931 10.8878C17.1898 10.8878 18.4333 11.4029 19.3501 12.3197C20.267 13.2365 20.782 14.48 20.782 15.7767ZM16.3865 13.0389C16.356 12.9316 16.2913 12.8371 16.2023 12.7699C16.1132 12.7027 16.0047 12.6663 15.8931 12.6663C15.7816 12.6663 15.6731 12.7027 15.584 12.7699C15.495 12.8371 15.4303 12.9316 15.3998 13.0389L14.9047 14.6282H13.302C12.7989 14.6282 12.5909 15.2984 12.9971 15.606L14.2931 16.5882L13.798 18.1767C13.6425 18.6753 14.19 19.0904 14.5971 18.782L15.8931 17.8007L17.1891 18.782C17.5963 19.0904 18.1438 18.6753 17.9883 18.1776L17.4931 16.5882L18.7891 15.6069C19.1963 15.2984 18.9874 14.6282 18.4843 14.6282H16.8816L16.3865 13.0389Z" fill="white"/>
</svg>
