<svg width="40" height="40" viewBox="0 0 40 40" fill="none" xmlns="http://www.w3.org/2000/svg">
<circle cx="20" cy="20" r="20" fill="white"/>
<path d="M19.9993 2.66602C10.4487 2.66602 2.66602 10.4487 2.66602 19.9993C2.66602 29.55 10.4487 37.3327 19.9993 37.3327C29.55 37.3327 37.3327 29.55 37.3327 19.9993C37.3327 10.4487 29.55 2.66602 19.9993 2.66602ZM28.2847 16.0127L18.4567 25.8407C18.214 26.0833 17.8847 26.222 17.538 26.222C17.1913 26.222 16.862 26.0833 16.6193 25.8407L11.714 20.9353C11.2113 20.4327 11.2113 19.6007 11.714 19.098C12.2167 18.5953 13.0487 18.5953 13.5513 19.098L17.538 23.0847L26.4473 14.1753C26.95 13.6727 27.782 13.6727 28.2847 14.1753C28.7873 14.678 28.7873 15.4927 28.2847 16.0127Z" fill="#009035"/>
</svg>
