<svg width="16" height="17" viewBox="0 0 16 17" fill="none" xmlns="http://www.w3.org/2000/svg">
<path fill-rule="evenodd" clip-rule="evenodd" d="M2.99333 5.66846C3.25015 5.60423 3.51267 5.57189 3.776 5.57205C5.86133 5.57205 7.55133 7.57089 7.55133 10.0356C7.55133 12.501 5.86133 14.4999 3.776 14.4999C1.69067 14.4999 0 12.5018 0 10.0356C0 9.96346 0.00133333 9.8906 0.00466667 9.81848H0C0 6.09825 2.56 3.07129 5.70667 3.07129V4.56968C4.686 4.56968 3.74467 4.98034 2.99333 5.66846ZM11.4427 5.66846C11.6947 5.60517 11.956 5.57205 12.224 5.57205C14.3093 5.57205 16 7.57089 16 10.0356C16 12.501 14.3093 14.4999 12.224 14.4999C10.1387 14.4999 8.44867 12.5018 8.44867 10.0356C8.44867 9.96346 8.45 9.8906 8.45333 9.81848H8.44867C8.44867 6.09825 11.0087 3.07129 14.1553 3.07129V4.56968C13.134 4.56968 12.194 4.98034 11.4427 5.66846Z" fill="url(#paint0_linear_8188_61182)" fill-opacity="0.4"/>
<defs>
<linearGradient id="paint0_linear_8188_61182" x1="0" y1="8.78557" x2="16" y2="8.78557" gradientUnits="userSpaceOnUse">
<stop stop-color="#D9D9D9"/>
<stop offset="1" stop-color="white"/>
</linearGradient>
</defs>
</svg>
