<svg width="24" height="24" viewBox="0 0 24 24" fill="none" xmlns="http://www.w3.org/2000/svg">
<circle cx="12" cy="12" r="12" fill="white"/>
<path d="M12.0001 1.59863C6.2697 1.59863 1.6001 6.26823 1.6001 11.9986C1.6001 17.729 6.2697 22.3986 12.0001 22.3986C17.7305 22.3986 22.4001 17.729 22.4001 11.9986C22.4001 6.26823 17.7305 1.59863 12.0001 1.59863ZM16.9713 9.60663L11.0745 15.5034C10.9289 15.649 10.7313 15.7322 10.5233 15.7322C10.3153 15.7322 10.1177 15.649 9.9721 15.5034L7.0289 12.5602C6.7273 12.2586 6.7273 11.7594 7.0289 11.4578C7.3305 11.1562 7.8297 11.1562 8.1313 11.4578L10.5233 13.8498L15.8689 8.50423C16.1705 8.20263 16.6697 8.20263 16.9713 8.50423C17.2729 8.80583 17.2729 9.29463 16.9713 9.60663Z" fill="#009035"/>
</svg>
