<svg width="629" height="574" viewBox="0 0 629 574" fill="none" xmlns="http://www.w3.org/2000/svg">
<ellipse cx="242" cy="302" rx="387" ry="391" fill="url(#paint0_linear_2845_21641)" fill-opacity="0.05"/>
<ellipse cx="241.889" cy="302" rx="309.6" ry="391" fill="url(#paint1_linear_2845_21641)" fill-opacity="0.05"/>
<ellipse cx="242.059" cy="302" rx="232.2" ry="391" fill="url(#paint2_linear_2845_21641)" fill-opacity="0.05"/>
<ellipse cx="241.941" cy="302" rx="154.8" ry="391" fill="url(#paint3_linear_2845_21641)" fill-opacity="0.05"/>
<ellipse cx="242.111" cy="302" rx="77.4001" ry="391" fill="url(#paint4_linear_2845_21641)" fill-opacity="0.05"/>
<ellipse cx="242" cy="302" rx="391" ry="387" transform="rotate(-90 242 302)" fill="url(#paint5_linear_2845_21641)" fill-opacity="0.05"/>
<ellipse cx="242" cy="301.977" rx="312.8" ry="387" transform="rotate(-90 242 301.977)" fill="url(#paint6_linear_2845_21641)" fill-opacity="0.05"/>
<ellipse cx="242" cy="302.01" rx="234.6" ry="387" transform="rotate(-90 242 302.01)" fill="url(#paint7_linear_2845_21641)" fill-opacity="0.05"/>
<ellipse cx="242" cy="301.99" rx="156.4" ry="387" transform="rotate(-90 242 301.99)" fill="url(#paint8_linear_2845_21641)" fill-opacity="0.05"/>
<ellipse cx="242" cy="302.023" rx="78.2001" ry="387" transform="rotate(-90 242 302.023)" fill="url(#paint9_linear_2845_21641)" fill-opacity="0.05"/>
<defs>
<linearGradient id="paint0_linear_2845_21641" x1="242" y1="-89" x2="242" y2="693" gradientUnits="userSpaceOnUse">
<stop stop-color="#00FF6B"/>
<stop offset="1" stop-color="#42AD6F"/>
</linearGradient>
<linearGradient id="paint1_linear_2845_21641" x1="241.889" y1="-89" x2="241.889" y2="693" gradientUnits="userSpaceOnUse">
<stop stop-color="#00FF6B"/>
<stop offset="1" stop-color="#42AD6F"/>
</linearGradient>
<linearGradient id="paint2_linear_2845_21641" x1="242.059" y1="-89" x2="242.059" y2="693" gradientUnits="userSpaceOnUse">
<stop stop-color="#00FF6B"/>
<stop offset="1" stop-color="#42AD6F"/>
</linearGradient>
<linearGradient id="paint3_linear_2845_21641" x1="241.941" y1="-89" x2="241.941" y2="693" gradientUnits="userSpaceOnUse">
<stop stop-color="#00FF6B"/>
<stop offset="1" stop-color="#42AD6F"/>
</linearGradient>
<linearGradient id="paint4_linear_2845_21641" x1="242.111" y1="-89" x2="242.111" y2="693" gradientUnits="userSpaceOnUse">
<stop stop-color="#00FF6B"/>
<stop offset="1" stop-color="#42AD6F"/>
</linearGradient>
<linearGradient id="paint5_linear_2845_21641" x1="242" y1="-85" x2="242" y2="689" gradientUnits="userSpaceOnUse">
<stop stop-color="#00FF6B"/>
<stop offset="1" stop-color="#42AD6F"/>
</linearGradient>
<linearGradient id="paint6_linear_2845_21641" x1="242" y1="-85.0229" x2="242" y2="688.977" gradientUnits="userSpaceOnUse">
<stop stop-color="#00FF6B"/>
<stop offset="1" stop-color="#42AD6F"/>
</linearGradient>
<linearGradient id="paint7_linear_2845_21641" x1="242" y1="-84.9905" x2="242" y2="689.01" gradientUnits="userSpaceOnUse">
<stop stop-color="#00FF6B"/>
<stop offset="1" stop-color="#42AD6F"/>
</linearGradient>
<linearGradient id="paint8_linear_2845_21641" x1="242" y1="-85.0095" x2="242" y2="688.99" gradientUnits="userSpaceOnUse">
<stop stop-color="#00FF6B"/>
<stop offset="1" stop-color="#42AD6F"/>
</linearGradient>
<linearGradient id="paint9_linear_2845_21641" x1="242" y1="-84.9774" x2="242" y2="689.023" gradientUnits="userSpaceOnUse">
<stop stop-color="#00FF6B"/>
<stop offset="1" stop-color="#42AD6F"/>
</linearGradient>
</defs>
</svg>
