<svg width="49" height="48" viewBox="0 0 49 48" fill="none" xmlns="http://www.w3.org/2000/svg">
<path d="M19.46 6.93784C16.0728 5.32066 11.3384 4.52847 5.00001 4.50034C4.40223 4.49222 3.81618 4.66653 3.32 5.00003C2.91274 5.27531 2.57937 5.64644 2.34919 6.08079C2.11902 6.51514 1.99911 6.9994 2 7.49097V34.3128C2 36.126 3.29 37.4938 5.00001 37.4938C11.6628 37.4938 18.3463 38.1163 22.3494 41.9C22.4041 41.952 22.473 41.9868 22.5473 42C22.6217 42.0132 22.6983 42.0043 22.7676 41.9743C22.8369 41.9443 22.8959 41.8947 22.9372 41.8315C22.9785 41.7682 23.0004 41.6943 23 41.6188V10.0147C23.0001 9.8015 22.9545 9.59074 22.8662 9.39666C22.7779 9.20259 22.6489 9.02972 22.4881 8.88972C21.5712 8.10581 20.5526 7.44926 19.46 6.93784ZM45.68 4.99722C45.1836 4.66455 44.5975 4.49121 44 4.50034C37.6616 4.52847 32.9272 5.31691 29.54 6.93784C28.4475 7.44832 27.4286 8.10359 26.5109 8.88597C26.3504 9.02617 26.2218 9.19911 26.1337 9.39315C26.0455 9.58719 26 9.79785 26 10.011V41.6169C26 41.6895 26.0213 41.7604 26.0615 41.8209C26.1016 41.8813 26.1587 41.9286 26.2256 41.9567C26.2925 41.9849 26.3662 41.9926 26.4375 41.979C26.5087 41.9655 26.5744 41.9311 26.6263 41.8803C29.0328 39.4897 33.2563 37.491 44.0038 37.4919C44.7994 37.4919 45.5625 37.1758 46.1251 36.6132C46.6877 36.0506 47.0038 35.2876 47.0038 34.4919V7.49191C47.0049 6.99937 46.8847 6.51413 46.6538 6.07905C46.4229 5.64397 46.0885 5.27242 45.68 4.99722Z" fill="white"/>
</svg>
