<svg width="12" height="24" viewBox="0 0 12 24" fill="none" xmlns="http://www.w3.org/2000/svg">
<path d="M2.27529 6.40313L2.09835 6.57991L2.27521 6.75677L7.52345 12.005L2.27619 17.2532L2.09945 17.43L2.27621 17.6068L3.33621 18.6668L3.513 18.8436L3.68978 18.6668L9.4682 12.8873C9.46831 12.8872 9.46842 12.8871 9.46853 12.887C9.58491 12.7713 9.67728 12.6337 9.74034 12.4821C9.80345 12.3304 9.83594 12.1678 9.83594 12.0035C9.83594 11.8392 9.80345 11.6765 9.74034 11.5248C9.67728 11.3733 9.58489 11.2357 9.46848 11.1199C9.46839 11.1198 9.4683 11.1197 9.4682 11.1197L3.68973 5.34318L3.51304 5.16655L3.33629 5.34313L2.27529 6.40313Z" fill="#00CC55" stroke="#00CC55" stroke-width="0.5"/>
</svg>
