<svg width="49" height="48" viewBox="0 0 49 48" fill="none" xmlns="http://www.w3.org/2000/svg">
<path d="M41.2992 13.1992C41.2992 11.6079 40.6671 10.0818 39.5419 8.95658C38.4166 7.83136 36.8905 7.19922 35.2992 7.19922H13.6992C12.1079 7.19922 10.5818 7.83136 9.45658 8.95658C8.33136 10.0818 7.69922 11.6079 7.69922 13.1992V14.3992H41.2992V13.1992ZM41.2992 23.0392V16.7992H7.69922V34.7992C7.69922 36.3905 8.33136 37.9166 9.45658 39.0419C10.5818 40.1671 12.1079 40.7992 13.6992 40.7992H23.5392C22.27 38.3147 21.8207 35.4919 22.2556 32.7361C22.6906 29.9803 23.9876 27.4332 25.9604 25.4604C27.9332 23.4876 30.4803 22.1906 33.2361 21.7556C35.9919 21.3207 38.8147 21.77 41.2992 23.0392ZM46.0992 34.7992C46.0992 37.6636 44.9614 40.4106 42.936 42.436C40.9106 44.4614 38.1636 45.5992 35.2992 45.5992C32.4349 45.5992 29.6879 44.4614 27.6625 42.436C25.6371 40.4106 24.4992 37.6636 24.4992 34.7992C24.4992 31.9349 25.6371 29.1879 27.6625 27.1625C29.6879 25.1371 32.4349 23.9992 35.2992 23.9992C38.1636 23.9992 40.9106 25.1371 42.936 27.1625C44.9614 29.1879 46.0992 31.9349 46.0992 34.7992ZM40.6104 33.7504L33.4824 29.7904C33.2998 29.6888 33.0937 29.6367 32.8847 29.6393C32.6757 29.6418 32.471 29.6989 32.2909 29.8048C32.1107 29.9108 31.9613 30.062 31.8576 30.2434C31.7538 30.4248 31.6992 30.6302 31.6992 30.8392V38.7592C31.6992 38.9682 31.7538 39.1736 31.8576 39.3551C31.9613 39.5365 32.1107 39.6877 32.2909 39.7936C32.471 39.8996 32.6757 39.9567 32.8847 39.9592C33.0937 39.9617 33.2998 39.9096 33.4824 39.808L40.6104 35.848C40.7974 35.7441 40.9532 35.592 41.0617 35.4076C41.1701 35.2232 41.2273 35.0132 41.2273 34.7992C41.2273 34.5853 41.1701 34.3752 41.0617 34.1908C40.9532 34.0064 40.7974 33.8544 40.6104 33.7504Z" fill="white"/>
</svg>
