<svg width="13" height="13" viewBox="0 0 13 13" fill="none" xmlns="http://www.w3.org/2000/svg">
<path d="M11.6605 4.33002C11.5896 4.28627 11.5088 4.26133 11.4256 4.25757C11.3425 4.2538 11.2597 4.27134 11.1852 4.30851L9.93695 4.93289V4.74611C9.93695 3.93741 9.27884 3.2793 8.47013 3.2793H3.09181C2.28311 3.2793 1.625 3.93741 1.625 4.74611V8.65762C1.625 9.46632 2.28311 10.1244 3.09181 10.1244H8.47013C9.27884 10.1244 9.93695 9.46632 9.93695 8.65762V8.47084L11.1852 9.09473C11.2595 9.13243 11.3423 9.15031 11.4256 9.14663C11.5089 9.14294 11.5897 9.11782 11.6605 9.0737C11.8047 8.98423 11.8927 8.82728 11.8927 8.65762V4.74611C11.8927 4.57645 11.8047 4.4195 11.6605 4.33002ZM4.06969 7.43527C3.97182 7.43783 3.87442 7.42077 3.78325 7.38509C3.69208 7.34941 3.60897 7.29584 3.53883 7.22753C3.46869 7.15923 3.41293 7.07757 3.37485 6.98737C3.33677 6.89717 3.31714 6.80026 3.31711 6.70236C3.31707 6.60445 3.33664 6.50753 3.37466 6.41731C3.41268 6.32709 3.46838 6.24539 3.53848 6.17704C3.60857 6.10868 3.69164 6.05506 3.78279 6.01932C3.87394 5.98358 3.97133 5.96645 4.0692 5.96895C4.26037 5.97382 4.44208 6.05317 4.57559 6.19008C4.7091 6.32699 4.78386 6.51064 4.78392 6.70187C4.78398 6.8931 4.70935 7.0768 4.57593 7.2138C4.44251 7.3508 4.26086 7.43027 4.06969 7.43527Z" fill="white"/>
</svg>
