<svg width="49" height="48" viewBox="0 0 49 48" fill="none" xmlns="http://www.w3.org/2000/svg">
<path d="M14.38 4C15.212 4 15.886 4.648 15.886 5.448V8.368C17.222 8.344 18.72 8.344 20.406 8.344H28.436C30.12 8.344 31.618 8.344 32.954 8.37V5.45C32.954 4.65 33.628 4 34.46 4C35.292 4 35.966 4.648 35.966 5.448V8.5C38.856 8.722 40.754 9.268 42.146 10.61C43.542 11.95 44.11 13.774 44.34 16.554L44.5 18H4.5V16.552C4.732 13.772 5.3 11.948 6.694 10.608C8.088 9.268 9.984 8.72 12.874 8.498V5.448C12.874 4.648 13.548 4 14.38 4Z" fill="white"/>
<path opacity="0.5" d="M44.5006 28V24C44.5006 22.322 44.4926 19.33 44.4666 18H4.5206C4.4946 19.33 4.5006 22.322 4.5006 24V28C4.5006 35.542 4.5006 39.314 6.8446 41.656C9.1886 43.998 12.9566 44 20.5006 44H28.5006C36.0406 44 39.8126 44 42.1566 41.656C44.5006 39.312 44.5006 35.544 44.5006 28Z" fill="white"/>
<path d="M36.5 34C36.5 34.5304 36.2893 35.0391 35.9142 35.4142C35.5391 35.7893 35.0304 36 34.5 36C33.9696 36 33.4609 35.7893 33.0858 35.4142C32.7107 35.0391 32.5 34.5304 32.5 34C32.5 33.4696 32.7107 32.9609 33.0858 32.5858C33.4609 32.2107 33.9696 32 34.5 32C35.0304 32 35.5391 32.2107 35.9142 32.5858C36.2893 32.9609 36.5 33.4696 36.5 34ZM36.5 26C36.5 26.5304 36.2893 27.0391 35.9142 27.4142C35.5391 27.7893 35.0304 28 34.5 28C33.9696 28 33.4609 27.7893 33.0858 27.4142C32.7107 27.0391 32.5 26.5304 32.5 26C32.5 25.4696 32.7107 24.9609 33.0858 24.5858C33.4609 24.2107 33.9696 24 34.5 24C35.0304 24 35.5391 24.2107 35.9142 24.5858C36.2893 24.9609 36.5 25.4696 36.5 26ZM26.5 34C26.5 34.5304 26.2893 35.0391 25.9142 35.4142C25.5391 35.7893 25.0304 36 24.5 36C23.9696 36 23.4609 35.7893 23.0858 35.4142C22.7107 35.0391 22.5 34.5304 22.5 34C22.5 33.4696 22.7107 32.9609 23.0858 32.5858C23.4609 32.2107 23.9696 32 24.5 32C25.0304 32 25.5391 32.2107 25.9142 32.5858C26.2893 32.9609 26.5 33.4696 26.5 34ZM26.5 26C26.5 26.5304 26.2893 27.0391 25.9142 27.4142C25.5391 27.7893 25.0304 28 24.5 28C23.9696 28 23.4609 27.7893 23.0858 27.4142C22.7107 27.0391 22.5 26.5304 22.5 26C22.5 25.4696 22.7107 24.9609 23.0858 24.5858C23.4609 24.2107 23.9696 24 24.5 24C25.0304 24 25.5391 24.2107 25.9142 24.5858C26.2893 24.9609 26.5 25.4696 26.5 26ZM16.5 34C16.5 34.5304 16.2893 35.0391 15.9142 35.4142C15.5391 35.7893 15.0304 36 14.5 36C13.9696 36 13.4609 35.7893 13.0858 35.4142C12.7107 35.0391 12.5 34.5304 12.5 34C12.5 33.4696 12.7107 32.9609 13.0858 32.5858C13.4609 32.2107 13.9696 32 14.5 32C15.0304 32 15.5391 32.2107 15.9142 32.5858C16.2893 32.9609 16.5 33.4696 16.5 34ZM16.5 26C16.5 26.5304 16.2893 27.0391 15.9142 27.4142C15.5391 27.7893 15.0304 28 14.5 28C13.9696 28 13.4609 27.7893 13.0858 27.4142C12.7107 27.0391 12.5 26.5304 12.5 26C12.5 25.4696 12.7107 24.9609 13.0858 24.5858C13.4609 24.2107 13.9696 24 14.5 24C15.0304 24 15.5391 24.2107 15.9142 24.5858C16.2893 24.9609 16.5 25.4696 16.5 26Z" fill="white"/>
</svg>
