<svg width="21" height="20" viewBox="0 0 21 20" fill="none" xmlns="http://www.w3.org/2000/svg">
<path d="M6.83819 19.4239C5.33673 20.3773 3.43096 19.0434 3.8127 17.3063L4.56462 13.8846C4.718 13.1866 4.48729 12.4598 3.95941 11.978L1.34912 9.59589C0.0651267 8.42411 0.78422 6.28507 2.51531 6.12689L5.7818 5.82842C6.52954 5.76009 7.17602 5.27871 7.45579 4.58191L8.64401 1.62252C9.31577 -0.0505517 11.6842 -0.0505517 12.356 1.62252L13.5442 4.58191C13.824 5.2787 14.4705 5.76009 15.2182 5.82842L18.4847 6.12689C20.2158 6.28507 20.9349 8.42411 19.6509 9.59589L17.0406 11.978C16.5127 12.4598 16.282 13.1866 16.4354 13.8846L17.1873 17.3063C17.569 19.0434 15.6633 20.3773 14.1618 19.4239L11.5721 17.7795C10.9178 17.364 10.0822 17.364 9.4279 17.7795L6.83819 19.4239Z" fill="#F8BD00"/>
</svg>
