<svg width="32" height="32" viewBox="0 0 32 32" fill="none" xmlns="http://www.w3.org/2000/svg">
<path d="M24.0013 2.66699V6.66699H29.3346C29.2982 9.88533 28.7925 12.155 27.8177 13.4759L27.668 13.667C26.8842 14.6075 25.5464 15.276 23.6545 15.6725C22.7802 18.5357 20.3432 20.7172 17.3375 21.2226C17.335 21.2586 17.3346 21.2961 17.3346 21.3336C17.3346 24.2792 19.7224 26.667 22.668 26.667V29.3336H9.33459V26.667C12.2801 26.667 14.668 24.2792 14.668 21.3336L14.6651 21.2226C11.6593 20.7172 9.22241 18.5357 8.34847 15.6722C6.45622 15.276 5.11826 14.6075 4.33459 13.667C3.26176 12.3795 2.70622 10.0462 2.66797 6.66699H8.00128V2.66699H24.0013ZM16.0013 5.33362L14.46 8.99762L10.668 9.4083L13.5106 12.075L12.7053 16.0003L16.0013 13.9843L19.2973 16.0003L18.492 12.0803L21.3346 9.41362L17.5426 9.00299L16.0013 5.33362ZM8.00128 9.33362H5.51859L5.54753 9.52562C5.71853 10.6201 5.98091 11.3967 6.29597 11.8456L6.38322 11.9598C6.62922 12.2551 7.09166 12.5331 7.77678 12.7667L8.00128 12.8376V9.33362ZM26.484 9.33362H24.0013V12.8376L24.2258 12.7667C24.9109 12.5331 25.3733 12.2551 25.6193 11.9598L25.7065 11.8456C26.0217 11.3967 26.284 10.6201 26.455 9.52562L26.484 9.33362Z" fill="#DFDFDF"/>
</svg>
