<svg width="49" height="48" viewBox="0 0 49 48" fill="none" xmlns="http://www.w3.org/2000/svg">
<path fill-rule="evenodd" clip-rule="evenodd" d="M16.5 14C16.5 11.8783 17.3429 9.84344 18.8431 8.34315C20.3434 6.84285 22.3783 6 24.5 6C26.6217 6 28.6566 6.84285 30.1569 8.34315C31.6571 9.84344 32.5 11.8783 32.5 14C32.5 16.1217 31.6571 18.1566 30.1569 19.6569C28.6566 21.1571 26.6217 22 24.5 22C22.3783 22 20.3434 21.1571 18.8431 19.6569C17.3429 18.1566 16.5 16.1217 16.5 14ZM16.5 26C13.8478 26 11.3043 27.0536 9.42893 28.9289C7.55357 30.8043 6.5 33.3478 6.5 36C6.5 37.5913 7.13214 39.1174 8.25736 40.2426C9.38258 41.3679 10.9087 42 12.5 42H36.5C38.0913 42 39.6174 41.3679 40.7426 40.2426C41.8679 39.1174 42.5 37.5913 42.5 36C42.5 33.3478 41.4464 30.8043 39.5711 28.9289C37.6957 27.0536 35.1522 26 32.5 26H16.5Z" fill="white"/>
</svg>
