<svg width="16" height="16" viewBox="0 0 16 16" fill="none" xmlns="http://www.w3.org/2000/svg">
<g clip-path="url(#clip0_4396_17708)">
<path d="M0.996094 10.6197V5.17697C0.996094 4.79204 1.14901 4.42287 1.42119 4.15069C1.69338 3.8785 2.06255 3.72559 2.44748 3.72559H8.61586C9.00079 3.72559 9.36995 3.8785 9.64214 4.15069C9.91432 4.42287 10.0672 4.79204 10.0672 5.17697V10.6197C10.0672 11.0046 9.91432 11.3738 9.64214 11.6459C9.36995 11.9181 9.00079 12.071 8.61586 12.071H2.44748C2.06255 12.071 1.69338 11.9181 1.42119 11.6459C1.14901 11.3738 0.996094 11.0046 0.996094 10.6197ZM13.4548 4.26332L10.552 6.84896C10.5137 6.88294 10.4831 6.92462 10.4621 6.97127C10.4411 7.01792 10.4302 7.06848 10.4301 7.11965V8.40993C10.4302 8.46109 10.4411 8.51166 10.4621 8.55831C10.4831 8.60496 10.5137 8.64664 10.552 8.68061L13.4548 11.2662C13.5071 11.3127 13.5717 11.343 13.6408 11.3536C13.7099 11.3642 13.7807 11.3546 13.8445 11.3259C13.9083 11.2972 13.9624 11.2507 14.0004 11.192C14.0384 11.1332 14.0586 11.0648 14.0585 10.9948V4.53473C14.0586 4.46479 14.0384 4.39633 14.0004 4.3376C13.9624 4.27887 13.9083 4.23237 13.8445 4.20369C13.7807 4.17501 13.7099 4.16538 13.6408 4.17596C13.5717 4.18654 13.5071 4.21688 13.4548 4.26332Z" stroke="#009035" stroke-width="0.927273" strokeLinecap="round" strokeLinejoin="round"/>
</g>
<defs>
<clipPath id="clip0_4396_17708">
<rect width="15" height="15" fill="white" transform="translate(0.363281 0.381836)"/>
</clipPath>
</defs>
</svg>
