<svg width="16" height="16" viewBox="0 0 16 16" fill="none" xmlns="http://www.w3.org/2000/svg">
<path fill-rule="evenodd" clip-rule="evenodd" d="M7.97391 11.8921C8.04876 11.9378 8.13495 11.9616 8.22266 11.9608C8.31038 11.9616 8.39656 11.9378 8.47141 11.8921L9.18079 11.4664C9.86708 11.0542 10.6395 10.8064 11.4375 10.7424C12.2356 10.6784 13.0376 10.8 13.7808 11.0977C14.337 11.3202 14.9414 10.9102 14.9414 10.3121V3.02581C14.9414 2.66456 14.7214 2.34018 14.3858 2.20581C13.4284 1.82284 12.3954 1.66645 11.3676 1.74885C10.3398 1.83125 9.34492 2.15021 8.46079 2.68081L8.22266 2.82206L7.98391 2.67893C7.09978 2.14834 6.10492 1.82937 5.07709 1.74697C4.04925 1.66457 3.01629 1.82097 2.05891 2.20393C1.89461 2.26941 1.75381 2.38281 1.65483 2.52939C1.55585 2.67597 1.50326 2.84894 1.50391 3.02581V10.3133C1.50391 10.9114 2.10829 11.3208 2.66454 11.0983C3.40774 10.8006 4.20976 10.679 5.0078 10.743C5.80584 10.807 6.57824 11.0548 7.26454 11.4671L7.97391 11.8921ZM2.44141 3.06206V10.1789C3.30511 9.85481 4.23087 9.72997 5.14958 9.81373C6.06828 9.8975 6.9562 10.1877 7.74704 10.6627L7.75391 10.6664V3.63518L7.50204 3.48393C6.74711 3.03086 5.89822 2.75721 5.02082 2.68406C4.14342 2.61092 3.26094 2.74024 2.44141 3.06206ZM8.69829 10.6621L8.69141 10.6664V3.63518L8.94329 3.48393C9.69821 3.03086 10.5471 2.75721 11.4245 2.68406C12.3019 2.61092 13.1844 2.74024 14.0039 3.06206V10.1789C13.1402 9.85481 12.2145 9.72997 11.2957 9.81373C10.377 9.8975 9.48913 10.1877 8.69829 10.6627" fill="#E77C40"/>
<path d="M6.51965 12.15C5.89837 11.7876 5.19202 11.5967 4.47278 11.5967C3.75353 11.5967 3.04718 11.7876 2.4259 12.15L2.36153 12.1875C2.30834 12.2185 2.26179 12.2597 2.22452 12.3088C2.18726 12.3578 2.16001 12.4137 2.14434 12.4732C2.12867 12.5327 2.12489 12.5948 2.1332 12.6558C2.14151 12.7168 2.16175 12.7756 2.19278 12.8288C2.2238 12.882 2.265 12.9285 2.31401 12.9658C2.36303 13.003 2.41891 13.0303 2.47845 13.046C2.538 13.0616 2.60005 13.0654 2.66106 13.0571C2.72207 13.0488 2.78084 13.0285 2.83403 12.9975L2.8984 12.96C3.37627 12.6813 3.91957 12.5345 4.47278 12.5345C5.02598 12.5345 5.56928 12.6813 6.04715 12.96L6.72715 13.3563C7.18112 13.621 7.69724 13.7605 8.22278 13.7605C8.74831 13.7605 9.26443 13.621 9.7184 13.3563L10.3984 12.96C10.8763 12.6813 11.4196 12.5345 11.9728 12.5345C12.526 12.5345 13.0693 12.6813 13.5472 12.96L13.6115 12.9975C13.7189 13.0602 13.8468 13.0776 13.9671 13.046C14.0874 13.0143 14.1901 12.9362 14.2528 12.8288C14.3154 12.7214 14.3329 12.5935 14.3012 12.4732C14.2696 12.3529 14.1914 12.2502 14.084 12.1875L14.0197 12.15C13.3984 11.7876 12.692 11.5967 11.9728 11.5967C11.2535 11.5967 10.5472 11.7876 9.9259 12.15L9.24653 12.5463C8.93581 12.7276 8.58252 12.8231 8.22278 12.8231C7.86303 12.8231 7.50974 12.7276 7.19903 12.5463L6.51965 12.15Z" fill="#E77C40"/>
</svg>
