<svg width="39" height="39" viewBox="0 0 39 39" fill="none" xmlns="http://www.w3.org/2000/svg">
<rect x="0.808594" y="0.273438" width="38" height="38" rx="19" fill="white"/>
<path fill-rule="evenodd" clip-rule="evenodd" d="M15.8867 18.821C15.8867 17.8988 16.2531 17.0143 16.9052 16.3622C17.5573 15.7101 18.4418 15.3438 19.364 15.3438C20.2862 15.3438 21.1707 15.7101 21.8228 16.3622C22.4749 17.0143 22.8413 17.8988 22.8413 18.821C22.8413 19.7433 22.4749 20.6277 21.8228 21.2798C21.1707 21.9319 20.2862 22.2983 19.364 22.2983C18.4418 22.2983 17.5573 21.9319 16.9052 21.2798C16.2531 20.6277 15.8867 19.7433 15.8867 18.821ZM19.364 16.7347C18.8107 16.7347 18.28 16.9545 17.8887 17.3457C17.4974 17.737 17.2776 18.2677 17.2776 18.821C17.2776 19.3744 17.4974 19.905 17.8887 20.2963C18.28 20.6876 18.8107 20.9074 19.364 20.9074C19.9173 20.9074 20.448 20.6876 20.8393 20.2963C21.2305 19.905 21.4504 19.3744 21.4504 18.821C21.4504 18.2677 21.2305 17.737 20.8393 17.3457C20.448 16.9545 19.9173 16.7347 19.364 16.7347Z" fill="black"/>
<path fill-rule="evenodd" clip-rule="evenodd" d="M12.2465 17.5661C11.8579 18.1261 11.7151 18.5647 11.7151 18.8216C11.7151 19.0784 11.8579 19.517 12.2465 20.0771C12.6229 20.6177 13.1811 21.2047 13.8877 21.7471C15.3037 22.8339 17.2445 23.6898 19.3651 23.6898C21.4858 23.6898 23.4266 22.8339 24.8425 21.7471C25.5491 21.2047 26.1073 20.6177 26.4838 20.0771C26.8723 19.517 27.0151 19.0784 27.0151 18.8216C27.0151 18.5647 26.8723 18.1261 26.4838 17.5661C26.1073 17.0255 25.5491 16.4385 24.8425 15.896C23.4266 14.8093 21.4858 13.9534 19.3651 13.9534C17.2445 13.9534 15.3037 14.8093 13.8877 15.896C13.1811 16.4385 12.6229 17.0255 12.2465 17.5661ZM13.0402 14.7926C14.6453 13.5612 16.8763 12.5625 19.3651 12.5625C21.8539 12.5625 24.0849 13.5612 25.6891 14.7926C26.4931 15.4092 27.157 16.0973 27.6262 16.7732C28.0824 17.4307 28.406 18.1512 28.406 18.8216C28.406 19.492 28.0815 20.2125 27.6262 20.8699C27.157 21.5459 26.4931 22.233 25.6901 22.8506C24.0859 24.082 21.8539 25.0807 19.3651 25.0807C16.8763 25.0807 14.6453 24.082 13.0411 22.8506C12.2372 22.234 11.5733 21.5459 11.1041 20.8699C10.6488 20.2125 10.3242 19.492 10.3242 18.8216C10.3242 18.1512 10.6488 17.4307 11.1041 16.7732C11.5733 16.0973 12.2372 15.4102 13.0402 14.7926Z" fill="black"/>
</svg>
