<svg width="15" height="16" viewBox="0 0 15 16" fill="none" xmlns="http://www.w3.org/2000/svg">
<path d="M7.49719 14.1296C4.40761 14.0889 1.91291 11.5942 1.87219 8.50465C1.91291 5.41507 4.40761 2.92037 7.49719 2.87965C10.5868 2.92037 13.0815 5.41507 13.1222 8.50465C13.0815 11.5942 10.5868 14.0889 7.49719 14.1296ZM7.49719 4.12965C5.09417 4.16128 3.15382 6.10163 3.12219 8.50465C3.15382 10.9077 5.09417 12.848 7.49719 12.8796C9.90021 12.848 11.8406 10.9077 11.8722 8.50465C11.8406 6.10163 9.90021 4.16128 7.49719 4.12965ZM10.6222 9.12965H6.87219V5.37965H8.12219V7.87965H10.6222V9.12965ZM12.6797 4.57215L10.7991 2.69715L11.6797 1.81152L13.5609 3.68652L12.6797 4.57152V4.57215ZM2.31406 4.57215L1.42969 3.68652L3.29906 1.81152L4.18344 2.69715L2.31531 4.57215H2.31406Z" fill="#23A6F0"/>
</svg>
