<svg width="39" height="39" viewBox="0 0 39 39" fill="none" xmlns="http://www.w3.org/2000/svg">
<rect x="0.535156" y="0.273438" width="38" height="38" rx="19" fill="white"/>
<path d="M13.9814 24.0615C14.3795 24.0615 14.7631 24.2001 15.0684 24.4502L15.1943 24.5635C15.5159 24.8851 15.6971 25.3216 15.6973 25.7764C15.6973 26.1745 15.5588 26.559 15.3086 26.8643L15.1943 26.9902C14.8727 27.3117 14.4363 27.4922 13.9814 27.4922C13.5834 27.4922 13.1998 27.3536 12.8945 27.1035L12.7686 26.9902C12.4468 26.6685 12.2666 26.2313 12.2666 25.7764C12.2669 24.8242 13.0292 24.0616 13.9814 24.0615ZM23.2539 24.0615C23.6521 24.0615 24.0365 24.1999 24.3418 24.4502L24.4678 24.5635C24.7893 24.8851 24.9696 25.3216 24.9697 25.7764C24.9697 26.1746 24.8313 26.559 24.5811 26.8643L24.4678 26.9902C24.1461 27.3119 23.7089 27.4922 23.2539 27.4922C22.7991 27.4921 22.3626 27.3118 22.041 26.9902C21.7193 26.6685 21.5391 26.2313 21.5391 25.7764C21.5393 24.8243 22.3018 24.0618 23.2539 24.0615ZM11.3613 9.22461L12.1963 11L12.2334 11.0791H26.0361C26.2191 11.0791 26.3959 11.1428 26.5361 11.2578L26.5938 11.3105C26.7414 11.4583 26.8242 11.6592 26.8242 11.8682C26.8241 11.9978 26.7851 12.1334 26.7256 12.2705L23.4111 18.2627C23.1194 18.7862 22.5528 19.1463 21.9102 19.1465H14.9199L14.8799 19.2188L14.0449 20.7305L14.0361 20.7461L14.0322 20.7637L14.0039 20.875L14 20.8916V20.9082C14 20.9819 14.0222 21.0538 14.0625 21.1143L14.1084 21.1709C14.178 21.2405 14.2727 21.2793 14.3711 21.2793H24.9697V22.8555H13.9814C13.5835 22.8554 13.1997 22.7177 12.8945 22.4678L12.7686 22.3535C12.4469 22.0318 12.2666 21.5955 12.2666 21.1406C12.2666 20.8399 12.344 20.5566 12.4727 20.3164L12.4717 20.3154L13.7324 18.0459L13.7666 17.9834L13.7363 17.9189L10.3984 10.8809L10.3604 10.8018H8.55664V9.22461H11.3613ZM13.0586 12.8545L15.2471 17.4912L15.2842 17.5703H22.4092L22.4482 17.499L25.0264 12.8623L25.1416 12.6562H12.9648L13.0586 12.8545Z" fill="black" stroke="white" stroke-width="0.278182"/>
</svg>
