<svg width="15" height="14" viewBox="0 0 15 14" fill="none" xmlns="http://www.w3.org/2000/svg">
<path d="M7.50435 1.17188C8.00135 1.17188 8.47735 1.37021 8.82677 1.72138L9.23393 2.12854C9.36494 2.25879 9.54212 2.33196 9.72685 2.33213H10.3102C10.8053 2.33213 11.28 2.52879 11.6301 2.87886C11.9802 3.22893 12.1769 3.70372 12.1769 4.19879V4.78213C12.1769 4.96646 12.2503 5.14379 12.3793 5.27388L12.7864 5.68104C12.9608 5.85441 13.0991 6.06052 13.1936 6.28752C13.288 6.51451 13.3367 6.75794 13.3368 7.0038C13.3369 7.24967 13.2885 7.49313 13.1942 7.72021C13.1 7.94729 12.9618 8.15352 12.7876 8.32704L12.3804 8.73421C12.2502 8.86522 12.177 9.04239 12.1769 9.22713V9.81046C12.1769 10.3055 11.9802 10.7803 11.6301 11.1304C11.28 11.4805 10.8053 11.6771 10.3102 11.6771H9.72685C9.54269 11.6773 9.36601 11.75 9.2351 11.8795L8.82793 12.2867C8.65456 12.461 8.44846 12.5994 8.22146 12.6939C7.99446 12.7883 7.75104 12.837 7.50518 12.8371C7.25931 12.8372 7.01585 12.7887 6.78876 12.6945C6.56168 12.6002 6.35546 12.4621 6.18193 12.2879L5.77477 11.8807C5.64376 11.7505 5.46658 11.6773 5.28185 11.6771H4.69852C4.20345 11.6771 3.72865 11.4805 3.37858 11.1304C3.02852 10.7803 2.83185 10.3055 2.83185 9.81046V9.22713C2.83169 9.04296 2.75897 8.86628 2.62943 8.73538L2.22227 8.32821C2.04793 8.15484 1.90957 7.94874 1.81511 7.72174C1.72066 7.49474 1.67198 7.25132 1.67188 7.00545C1.67177 6.75959 1.72023 6.51612 1.81448 6.28904C1.90874 6.06196 2.04692 5.85573 2.2211 5.68221L2.62827 5.27504C2.75851 5.14404 2.83169 4.96686 2.83185 4.78213V4.19879L2.83477 4.09263C2.86188 3.61669 3.07006 3.16916 3.4166 2.84181C3.76315 2.51446 4.22181 2.3321 4.69852 2.33213H5.28185C5.46601 2.33197 5.64269 2.25924 5.7736 2.12971L6.18077 1.72254C6.35421 1.54806 6.56044 1.40959 6.78759 1.31508C7.01474 1.22058 7.25833 1.17191 7.50435 1.17188ZM8.95685 7.58213C8.72479 7.58213 8.50223 7.67431 8.33813 7.83841C8.17404 8.0025 8.08185 8.22506 8.08185 8.45713C8.08185 8.68919 8.17404 8.91175 8.33813 9.07585C8.50223 9.23994 8.72479 9.33213 8.95685 9.33213C9.18891 9.33213 9.41147 9.23994 9.57557 9.07585C9.73966 8.91175 9.83185 8.68919 9.83185 8.45713C9.83185 8.22506 9.73966 8.0025 9.57557 7.83841C9.41147 7.67431 9.18891 7.58213 8.95685 7.58213ZM9.66093 4.83638C9.55154 4.72702 9.4032 4.66558 9.24852 4.66558C9.09384 4.66558 8.94549 4.72702 8.8361 4.83638L5.3361 8.33638C5.22984 8.44639 5.17104 8.59375 5.17237 8.74669C5.1737 8.89964 5.23505 9.04595 5.34321 9.1541C5.45136 9.26226 5.59767 9.32361 5.75062 9.32494C5.90356 9.32627 6.05092 9.26747 6.16093 9.16121L9.66093 5.66121C9.77029 5.55182 9.83173 5.40347 9.83173 5.24879C9.83173 5.09411 9.77029 4.94577 9.66093 4.83638ZM6.04018 4.66546C5.80812 4.66546 5.58556 4.75765 5.42146 4.92174C5.25737 5.08583 5.16518 5.30839 5.16518 5.54046C5.16518 5.77252 5.25737 5.99508 5.42146 6.15918C5.58556 6.32327 5.80812 6.41546 6.04018 6.41546C6.27225 6.41546 6.49481 6.32327 6.6589 6.15918C6.823 5.99508 6.91518 5.77252 6.91518 5.54046C6.91518 5.30839 6.823 5.08583 6.6589 4.92174C6.49481 4.75765 6.27225 4.66546 6.04018 4.66546Z" fill="white"/>
</svg>
