<svg width="48" height="48" viewBox="0 0 48 48" fill="none" xmlns="http://www.w3.org/2000/svg">
<g clip-path="url(#clip0_2845_20689)">
<path fill-rule="evenodd" clip-rule="evenodd" d="M19.5274 2.13943L17.4964 3.63043C17.1386 3.91589 16.7595 4.17364 16.3624 4.40143C16.095 4.54357 15.8148 4.66009 15.5254 4.74943C15.1984 4.84843 14.8594 4.89943 14.1784 5.00443L11.6884 5.38543C9.72343 5.68543 8.73943 5.83843 7.96843 6.29743C7.27843 6.70243 6.70543 7.27843 6.29743 7.96843C5.83843 8.74843 5.68843 9.73243 5.38543 11.6884L5.00443 14.1784C4.89943 14.8594 4.84843 15.2014 4.74943 15.5284C4.65943 15.8184 4.54343 16.0964 4.40143 16.3624C4.23943 16.6624 4.03843 16.9414 3.63043 17.4964L2.13943 19.5274C0.963429 21.1294 0.375429 21.9304 0.147429 22.7974C-0.0491429 23.5722 -0.0491429 24.3837 0.147429 25.1584C0.372429 26.0344 0.963429 26.8384 2.13943 28.4284L3.63043 30.4594C4.03843 31.0144 4.24243 31.2934 4.40143 31.5934C4.54143 31.8614 4.65743 32.1414 4.74943 32.4334C4.84843 32.7574 4.89943 33.0964 5.00443 33.7774L5.38543 36.2674C5.68543 38.2324 5.83843 39.2134 6.29743 39.9874C6.70243 40.6774 7.27843 41.2504 7.96843 41.6584C8.74843 42.1174 9.73243 42.2674 11.6884 42.5704L14.1784 42.9514C14.8594 43.0564 15.2014 43.1104 15.5254 43.2094C15.8154 43.2974 16.0944 43.4134 16.3624 43.5574C16.6624 43.7164 16.9414 43.9174 17.4964 44.3284L19.5274 45.8194C21.1294 46.9954 21.9304 47.5834 22.7974 47.8114C23.5714 48.0124 24.3844 48.0124 25.1584 47.8114C26.0344 47.5834 26.8384 46.9954 28.4284 45.8194L30.4594 44.3284C31.0144 43.9204 31.2934 43.7164 31.5934 43.5574C31.8614 43.4134 32.1404 43.2974 32.4304 43.2094C32.7574 43.1104 33.0964 43.0594 33.7774 42.9514L36.2674 42.5704C38.2324 42.2704 39.2134 42.1204 39.9874 41.6584C40.6774 41.2534 41.2534 40.6774 41.6584 39.9874C42.1174 39.2074 42.2674 38.2234 42.5704 36.2674L42.9514 33.7774C43.0564 33.0964 43.1074 32.7574 43.2064 32.4304C43.2964 32.1404 43.4124 31.8614 43.5544 31.5934C43.7164 31.2934 43.9174 31.0144 44.3254 30.4594L45.8164 28.4284C46.9924 26.8264 47.5804 26.0284 47.8084 25.1584C48.005 24.3837 48.005 23.5722 47.8084 22.7974C47.5834 21.9214 46.9924 21.1174 45.8164 19.5274L44.3254 17.4964C44.04 17.1386 43.7822 16.7595 43.5544 16.3624C43.4123 16.095 43.2958 15.8148 43.2064 15.5254C43.0873 15.0836 43.0021 14.6333 42.9514 14.1784L42.5704 11.6884C42.2704 9.72343 42.1174 8.73943 41.6584 7.96843C41.2494 7.28088 40.675 6.70647 39.9874 6.29743C39.2074 5.83843 38.2234 5.68843 36.2674 5.38543L33.7774 5.00443C33.3226 4.9538 32.8723 4.86855 32.4304 4.74943C32.1404 4.6619 31.86 4.54531 31.5934 4.40143C31.1964 4.17364 30.8173 3.91589 30.4594 3.63043L28.4284 2.13943C26.8264 0.963429 26.0254 0.375429 25.1584 0.147429C24.3837 -0.0491429 23.5722 -0.0491429 22.7974 0.147429C21.9214 0.375429 21.1174 0.963429 19.5274 2.13943ZM35.5174 18.3694C35.691 18.1576 35.8204 17.9132 35.898 17.6505C35.9755 17.3879 35.9996 17.1124 35.9689 16.8402C35.9381 16.5681 35.8531 16.3049 35.7189 16.0662C35.5847 15.8275 35.4039 15.6181 35.1874 15.4504C34.747 15.1059 34.1895 14.9469 33.6336 15.0074C33.0777 15.068 32.5674 15.3432 32.2114 15.7744L22.2814 27.9544L16.9714 23.8744C16.5377 23.5214 15.9832 23.3518 15.4261 23.4016C14.8691 23.4515 14.3536 23.717 13.9894 24.1414C13.8115 24.3496 13.6772 24.5913 13.5943 24.8523C13.5114 25.1133 13.4816 25.3883 13.5068 25.6609C13.532 25.9336 13.6115 26.1985 13.7408 26.4399C13.8701 26.6813 14.0464 26.8943 14.2594 27.0664L21.2194 32.4964C21.6589 32.8539 22.222 33.023 22.7858 32.9668C23.3495 32.9106 23.8682 32.6337 24.2284 32.1964L35.5084 18.3364L35.5174 18.3694Z" fill="white"/>
</g>
<defs>
<clipPath id="clip0_2845_20689">
<rect width="48" height="48" fill="white"/>
</clipPath>
</defs>
</svg>
