<svg width="48" height="48" viewBox="0 0 48 48" fill="none" xmlns="http://www.w3.org/2000/svg">
<path d="M21.34 26.04C20.9 26.02 20.46 26 20 26C15.16 26 10.64 27.34 6.78 29.64C5.02 30.68 4 32.64 4 34.7V40H22.52C21.1068 37.9851 20.2531 35.6316 20.0458 33.1793C19.8385 30.7269 20.2851 28.2635 21.34 26.04Z" fill="white"/>
<path d="M20 24C24.4183 24 28 20.4183 28 16C28 11.5817 24.4183 8 20 8C15.5817 8 12 11.5817 12 16C12 20.4183 15.5817 24 20 24Z" fill="white"/>
<path d="M41.5037 32C41.5037 31.56 41.4438 31.16 41.3838 30.74L43.6637 28.72L41.6637 25.26L38.7637 26.24C38.1237 25.7 37.4037 25.28 36.6037 24.98L36.0037 22H32.0037L31.4037 24.98C30.6037 25.28 29.8837 25.7 29.2437 26.24L26.3438 25.26L24.3438 28.72L26.6238 30.74C26.5638 31.16 26.5037 31.56 26.5037 32C26.5037 32.44 26.5638 32.84 26.6238 33.26L24.3438 35.28L26.3438 38.74L29.2437 37.76C29.8837 38.3 30.6037 38.72 31.4037 39.02L32.0037 42H36.0037L36.6037 39.02C37.4037 38.72 38.1237 38.3 38.7637 37.76L41.6637 38.74L43.6637 35.28L41.3838 33.26C41.4438 32.84 41.5037 32.44 41.5037 32ZM34.0037 36C31.8038 36 30.0037 34.2 30.0037 32C30.0037 29.8 31.8038 28 34.0037 28C36.2037 28 38.0037 29.8 38.0037 32C38.0037 34.2 36.2037 36 34.0037 36Z" fill="white"/>
</svg>
