<svg width="48" height="48" viewBox="0 0 48 48" fill="none" xmlns="http://www.w3.org/2000/svg">
<g clip-path="url(#clip0_2845_20701)">
<path d="M45.27 38.37C45.6512 38.0732 45.9551 37.6886 46.1558 37.2491C46.3565 36.8097 46.448 36.3282 46.4227 35.8457C46.3974 35.3632 46.2559 34.894 46.0103 34.4779C45.7647 34.0619 45.4222 33.7113 45.012 33.456L45 15.99L42 18V33.45C41.594 33.7047 41.2549 34.053 41.0111 34.4658C40.7674 34.8785 40.626 35.3436 40.599 35.8222C40.572 36.3007 40.66 36.7788 40.8558 37.2164C41.0515 37.6539 41.3492 38.0382 41.724 38.337L40.59 39.843C39.5815 41.1261 39.0228 42.7052 39 44.337V48.003H41.445C42.0324 48.0029 42.6029 47.807 43.0664 47.4462C43.5299 47.0854 43.8598 46.5804 44.004 46.011L44.997 42.003V48.003H47.997V44.373C47.971 42.7333 47.4082 41.1474 46.395 39.858L45.27 38.37ZM24 0L0 12L24 27L48 12L24 0Z" fill="white"/>
<path d="M24 30.0017L9 20.0117V25.1417C9 27.8717 17.82 36.0017 24 36.0017C30.18 36.0017 39 27.8717 39 25.1417V20.0117L24 30.0017Z" fill="white"/>
</g>
<defs>
<clipPath id="clip0_2845_20701">
<rect width="48" height="48" fill="white"/>
</clipPath>
</defs>
</svg>
