<svg width="29" height="29" viewBox="0 0 29 29" fill="none" xmlns="http://www.w3.org/2000/svg">
<g clip-path="url(#clip0_2845_24477)">
<path fill-rule="evenodd" clip-rule="evenodd" d="M20.7097 0.455678C20.9272 0.237573 21.2046 0.0890264 21.5067 0.0289079C21.8087 -0.0312106 22.1218 -0.000188073 22.4062 0.118035L26.8122 1.94503C27.1921 2.10192 27.4944 2.40301 27.6528 2.78233C27.8112 3.16166 27.8129 3.58831 27.6573 3.96882L25.8572 8.37475C25.741 8.65926 25.5429 8.90287 25.2881 9.07478C25.0333 9.24669 24.7333 9.33915 24.4259 9.34048C24.1185 9.34181 23.8177 9.25195 23.5614 9.08225C23.3052 8.91256 23.105 8.67067 22.9862 8.38718L22.2757 6.68861L4.38275 14.3342C4.19505 14.4145 3.99338 14.457 3.78927 14.4593C3.58515 14.4616 3.38257 14.4237 3.19311 14.3477C3.00364 14.2717 2.831 14.1592 2.68503 14.0165C2.53907 13.8738 2.42264 13.7037 2.34239 13.516C2.26214 13.3283 2.21965 13.1267 2.21734 12.9226C2.21503 12.7184 2.25295 12.5159 2.32892 12.3264C2.4049 12.1369 2.51745 11.9643 2.66015 11.8183C2.80285 11.6724 2.97291 11.5559 3.1606 11.4757L21.0764 3.82175L20.3783 2.15425C20.2589 1.87018 20.2266 1.557 20.2856 1.25454C20.3446 0.952083 20.4923 0.674008 20.7097 0.455678ZM26.4124 11.3514C26.9618 11.3514 27.4886 11.5696 27.8771 11.9581C28.2656 12.3466 28.4838 12.8734 28.4838 13.4228V27.9228C28.4838 28.1975 28.3747 28.4609 28.1805 28.6552C27.9862 28.8494 27.7228 28.9585 27.4481 28.9585H22.2695C21.9948 28.9585 21.7314 28.8494 21.5372 28.6552C21.3429 28.4609 21.2338 28.1975 21.2338 27.9228V13.4228C21.2338 12.8734 21.4521 12.3466 21.8405 11.9581C22.229 11.5696 22.7559 11.3514 23.3052 11.3514H26.4124ZM17.5197 15.0634C17.131 14.6757 16.6043 14.4581 16.0552 14.4585H12.9481C12.3987 14.4585 11.8719 14.6768 11.4834 15.0652C11.0949 15.4537 10.8767 15.9806 10.8767 16.53V27.9228C10.8767 28.1975 10.9858 28.4609 11.18 28.6552C11.3743 28.8494 11.6377 28.9585 11.9124 28.9585H17.091C17.3656 28.9585 17.6291 28.8494 17.8233 28.6552C18.0176 28.4609 18.1267 28.1975 18.1267 27.9228V16.53C18.1269 16.2576 18.0734 15.9879 17.9692 15.7362C17.8651 15.4846 17.7124 15.2559 17.5197 15.0634ZM5.6981 17.5657C6.24748 17.5657 6.77436 17.7839 7.16282 18.1724C7.55129 18.5609 7.76953 19.0877 7.76953 19.6371V27.9228C7.76953 28.1975 7.66041 28.4609 7.46618 28.6552C7.27194 28.8494 7.00851 28.9585 6.73382 28.9585H1.55525C1.28056 28.9585 1.01712 28.8494 0.822885 28.6552C0.628651 28.4609 0.519531 28.1975 0.519531 27.9228V19.6371C0.519531 19.0877 0.73777 18.5609 1.12624 18.1724C1.51471 17.7839 2.04158 17.5657 2.59096 17.5657H5.6981Z" fill="#20B0C6"/>
</g>
<defs>
<clipPath id="clip0_2845_24477">
<rect width="29" height="29" fill="white"/>
</clipPath>
</defs>
</svg>
