<svg width="61" height="61" viewBox="0 0 61 61" fill="none" xmlns="http://www.w3.org/2000/svg">
<path d="M60.4887 30.9452C60.4907 30.7968 60.4999 30.6495 60.4999 30.5001C60.4999 22.4639 57.3337 15.1704 52.1881 9.78516L32.1016 29.8712L60.4887 30.9452Z" fill="#FCDD13"/>
<path d="M51.2162 8.81159C45.8308 3.66612 38.5372 0.5 30.5007 0.5C13.931 0.5 0.5 13.9317 0.5 30.5C0.5 47.0683 13.932 60.5 30.5007 60.5C32.2119 60.5 33.8864 60.3496 35.5193 60.0743L29.7549 30.2714L51.2162 8.81159Z" fill="#F97255"/>
<path d="M36.8716 59.8154C49.8036 57.0171 59.6274 45.8859 60.4403 32.3211L31.3398 31.2207L36.8716 59.8154Z" fill="#01C0CA"/>
</svg>
