<svg width="75" height="61" viewBox="0 0 75 61" fill="none" xmlns="http://www.w3.org/2000/svg">
<path d="M61.0277 41.375C57.3269 41.375 54.2305 43.9561 53.4364 47.414C52.8314 47.2357 52.1933 47.1374 51.5331 47.1374C47.8427 47.1374 44.8516 50.1291 44.8516 53.8194C44.8516 57.507 47.8428 60.4998 51.5331 60.4998H51.5446H69.2565V60.4993C72.1325 60.4765 74.4547 58.1384 74.4547 55.2587C74.4547 52.3647 72.1105 50.0198 69.2158 50.0198C69.0669 50.0198 68.9197 50.0279 68.7726 50.0399C68.8028 49.754 68.8237 49.4643 68.8237 49.17C68.8237 44.8639 65.3323 41.375 61.0277 41.375Z" fill="#1BCD9A"/>
<path d="M51.5326 44.9224C51.6716 44.9224 51.8135 44.9271 51.9543 44.9335C53.565 41.4532 57.0518 39.16 61.0272 39.16C66.1573 39.16 70.398 43.0377 70.9721 48.0148C71.3002 48.0926 71.6137 48.211 71.9261 48.3342C72.2606 47.0329 72.4601 45.6768 72.4601 44.2712C72.4601 35.3091 65.1934 28.0447 56.2311 28.0447C54.6227 28.0447 53.0723 28.2812 51.6082 28.716C49.6723 20.3121 42.1519 14.043 33.1622 14.043C22.7055 14.043 14.2299 22.52 14.2299 32.9758C14.2299 33.6913 14.2718 34.3969 14.3503 35.0926C13.9949 35.0636 13.6359 35.0438 13.2741 35.0438C6.24474 35.044 0.546875 40.7417 0.546875 47.7717C0.546875 54.7682 6.19124 60.4443 13.1746 60.4986V60.5006H45.6764C43.8179 58.8686 42.6353 56.4816 42.6353 53.8202C42.6353 48.9141 46.6264 44.9224 51.5326 44.9224Z" fill="white"/>
<path d="M45.2464 8.51585L45.0276 8.48438C44.6083 8.48438 44.2656 8.82589 44.2656 9.24527V12.0269C44.2656 12.3393 44.4657 12.6208 44.7601 12.7281C49.1759 14.3095 52.7214 17.7119 54.4945 22.0625C54.6102 22.3435 54.8802 22.5241 55.1815 22.5241H58.0167C58.261 22.5241 58.492 22.4039 58.635 22.2053C58.7775 22.0043 58.8148 21.7501 58.7351 21.5191C56.5827 15.3046 51.5388 10.443 45.2464 8.51585Z" fill="#1BCD9A"/>
<path d="M46.137 0.515432L45.9723 0.5C45.5524 0.5 45.2109 0.838878 45.2109 1.25856V3.99871C45.2109 4.33952 45.4436 4.63657 45.7781 4.72124C53.8773 6.73795 60.3092 12.987 62.5668 21.0346C62.6558 21.3557 62.9501 21.5814 63.2823 21.5814H66.0303C66.2658 21.5814 66.484 21.4726 66.6288 21.2864C66.7731 21.1014 66.8237 20.8623 66.7673 20.6373C64.2666 10.6487 56.1681 2.75122 46.137 0.515432Z" fill="white"/>
</svg>
