<svg width="61" height="60" viewBox="0 0 61 60" fill="none" xmlns="http://www.w3.org/2000/svg">
<g clip-path="url(#clip0_2845_18718)">
<path d="M59.0616 19.1727L31.0616 0.172573C30.7226 -0.0574658 30.2776 -0.057583 29.9386 0.172573L1.93852 19.1727C1.6643 19.3586 1.5 19.6685 1.5 20V59C1.5 59.5523 1.94777 60 2.49996 60H58.5C59.0523 60 59.5 59.5522 59.5 59V20C59.5001 19.6685 59.3359 19.3586 59.0616 19.1727Z" fill="#F07B52"/>
<path d="M4.50012 59.0001V20.0001C4.50012 19.6686 4.66441 19.3587 4.93863 19.1727L32 0.809487L31.0615 0.172573C30.7225 -0.0574658 30.2775 -0.057583 29.9385 0.172573L1.93852 19.1727C1.6643 19.3587 1.5 19.6687 1.5 20.0001V59.0001C1.5 59.5524 1.94777 60.0001 2.49996 60.0001H5.49996C4.94777 60.0001 4.50012 59.5525 4.50012 59.0001Z" fill="#E5563C"/>
<path d="M48.5 24H12.5C11.9477 24 11.5 24.4478 11.5 25V58.9999C11.5 59.5522 11.9478 59.9999 12.5 59.9999H48.5C49.0523 59.9999 49.4999 59.5521 49.4999 58.9999V25.0001C49.5 24.4478 49.0523 24 48.5 24Z" fill="#74757B"/>
<path d="M12.5 24C11.9477 24 11.5 24.4478 11.5 25V58.9999C11.5 59.5522 11.9478 59.9999 12.5 59.9999H14.5V24H12.5Z" fill="#606268"/>
<path d="M50.4999 20H10.5C9.94766 20 9.5 20.4478 9.5 21V24.9999C9.5 25.5522 9.94777 25.9999 10.5 25.9999H50.4999C51.0522 25.9999 51.4999 25.5521 51.4999 24.9999V21C51.4999 20.4478 51.0521 20 50.4999 20Z" fill="#C3C4C6"/>
<path d="M50.4999 24H10.5C9.94766 24 9.5 23.5522 9.5 23V25C9.5 25.5523 9.94777 26 10.5 26H50.4999C51.0522 26 51.4999 25.5522 51.4999 25V23C51.4999 23.5524 51.0521 24 50.4999 24Z" fill="#AFB0B4"/>
<path d="M34.5 8.99992H26.5C25.9477 8.99992 25.5 8.55215 25.5 7.99996C25.5 7.44766 25.9478 7 26.5 7H34.5C35.0523 7 35.5 7.44777 35.5 7.99996C35.5 8.55227 35.0522 8.99992 34.5 8.99992Z" fill="#E5563C"/>
<path d="M34.5 12.9999H26.5C25.9477 12.9999 25.5 12.5521 25.5 12C25.5 11.4478 25.9478 11 26.5 11H34.5C35.0523 11 35.5 11.4478 35.5 12C35.5 12.5521 35.0522 12.9999 34.5 12.9999Z" fill="#E5563C"/>
<path d="M34.5 16.9999H26.5C25.9477 16.9999 25.5 16.5521 25.5 16C25.5 15.4477 25.9478 15 26.5 15H34.5C35.0523 15 35.5 15.4478 35.5 16C35.5 16.5521 35.0522 16.9999 34.5 16.9999Z" fill="#E5563C"/>
<path d="M24.5 32H12.5C11.9477 32 11.5 32.4478 11.5 33V45C11.5 45.5523 11.9478 45.9999 12.5 45.9999L18.5 46.9999L24.5 45.9999C25.0523 45.9999 25.4999 45.5521 25.4999 45V33C25.5 32.4478 25.0524 32 24.5 32Z" fill="#FDDD85"/>
<path d="M24.5 46H12.5C11.9477 46 11.5 46.4478 11.5 47V59C11.5 59.5523 11.9478 59.9999 12.5 59.9999H24.5C25.0523 59.9999 25.4999 59.5521 25.4999 59V47C25.5 46.4478 25.0524 46 24.5 46Z" fill="#FDDD85"/>
<path d="M13.5 59V47C13.5 46.4477 13.9478 46 14.5 46H12.5C11.9477 46 11.5 46.4478 11.5 47V59C11.5 59.5523 11.9478 59.9999 12.5 59.9999H14.5C13.9477 59.9999 13.5 59.5524 13.5 59Z" fill="#FDD042"/>
<path d="M20.5 46H16.5V50.9999C16.5 51.5522 16.9478 51.9999 17.5 51.9999H19.5C20.0523 51.9999 20.5 51.5521 20.5 50.9999V46Z" fill="#F2C127"/>
<path d="M20.4999 57.9999H16.5C15.9477 57.9999 15.5 57.5521 15.5 57C15.5 56.4478 15.9478 56 16.5 56H20.4999C21.0522 56 21.4999 56.4478 21.4999 57C21.4999 57.5521 21.0522 57.9999 20.4999 57.9999Z" fill="#74757B"/>
<path d="M13.5 45V33C13.5 32.4477 13.9478 32 14.5 32H12.5C11.9477 32 11.5 32.4478 11.5 33V45C11.5 45.5523 11.9478 45.9999 12.5 45.9999H14.5C13.9477 46 13.5 45.5524 13.5 45Z" fill="#FDD042"/>
<path d="M20.5 32H16.5V37C16.5 37.5523 16.9478 38 17.5 38H19.5C20.0523 38 20.5 37.5522 20.5 37V32Z" fill="#F2C127"/>
<path d="M20.4999 43.9999H16.5C15.9477 43.9999 15.5 43.5521 15.5 43C15.5 42.4478 15.9478 42 16.5 42H20.4999C21.0522 42 21.4999 42.4478 21.4999 43C21.4999 43.5521 21.0522 43.9999 20.4999 43.9999Z" fill="#74757B"/>
<path d="M38.5 46H26.5C25.9477 46 25.5 46.4478 25.5 47V59C25.5 59.5523 25.9478 59.9999 26.5 59.9999H38.5C39.0523 59.9999 39.4999 59.5521 39.4999 59V47C39.4999 46.4478 39.0523 46 38.5 46Z" fill="#FDDD85"/>
<path d="M27.5 59V47C27.5 46.4477 27.9478 46 28.5 46H26.5C25.9477 46 25.5 46.4478 25.5 47V59C25.5 59.5523 25.9478 59.9999 26.5 59.9999H28.5C27.9478 59.9999 27.5 59.5524 27.5 59Z" fill="#FDD042"/>
<path d="M34.5001 46H30.5V50.9999C30.5 51.5522 30.9478 51.9999 31.5 51.9999H33.5C34.0523 51.9999 34.5 51.5521 34.5 50.9999V46H34.5001Z" fill="#F2C127"/>
<path d="M34.5 57.9999H30.5C29.9477 57.9999 29.5 57.5521 29.5 57C29.5 56.4478 29.9478 56 30.5 56H34.4999C35.0522 56 35.4999 56.4478 35.4999 57C35.4999 57.5521 35.0522 57.9999 34.5 57.9999Z" fill="#74757B"/>
</g>
<defs>
<clipPath id="clip0_2845_18718">
<rect width="60" height="60" fill="white" transform="translate(0.5)"/>
</clipPath>
</defs>
</svg>
