<svg width="61" height="60" viewBox="0 0 61 60" fill="none" xmlns="http://www.w3.org/2000/svg">
<g clip-path="url(#clip0_2845_18903)">
<path d="M51.125 43.9688C51.125 55.3125 41.9375 55.3125 30.5 55.3125C19.0625 55.3125 9.875 55.3125 9.875 43.9688C9.875 32.625 19.1562 14.0625 30.5 14.0625C41.8438 14.0625 51.125 32.5313 51.125 43.9688Z" fill="#DBB471"/>
<path opacity="0.5" d="M51.125 43.9688C51.125 40.125 50.0938 35.4375 48.2188 30.9375C48.5938 33.8438 47.8438 39 38.9375 40.9688C26.2813 43.6875 32.8438 47.25 27.875 47.7188C23.6563 48.0938 12.4063 46.4063 10.1563 40.0313C9.96875 41.4375 9.78125 42.75 9.78125 44.0625C9.875 55.3125 19.1563 55.3125 30.5 55.3125C41.8438 55.3125 51.125 55.3125 51.125 43.9688Z" fill="#89664C"/>
<path d="M36.0319 38.5312C35.6569 36.6562 34.0632 36.0938 32.3757 36V33.375C32.8444 33.5625 33.4069 33.8438 33.7819 34.125C34.5319 34.5938 35.2819 33.375 34.5319 32.9062C33.8757 32.5312 33.1257 32.1562 32.3757 31.875V28.7813C32.3757 27.8437 30.9694 27.8437 30.9694 28.7813V31.5C30.2194 31.4062 29.4694 31.4062 28.7194 31.5C28.6257 30.8437 28.4382 30.1875 28.2507 29.5312C28.0632 28.5937 26.6569 28.9687 26.9382 29.9062C27.1257 30.5625 27.2194 31.2187 27.4069 31.875C27.3132 31.875 27.3132 31.875 27.2194 31.9687C25.3444 32.7187 24.1257 34.5937 25.5319 36.375C26.1882 37.2187 27.0319 37.5 27.9694 37.6875C28.0632 38.9063 28.0632 40.125 28.0632 41.3437C27.4069 40.9687 26.8444 40.4062 26.3757 39.9375C25.7194 39.2812 24.7819 40.3125 25.3444 40.9688C26.1882 41.9063 27.1257 42.5625 28.0632 43.0313C28.0632 44.0625 28.1569 45.0938 28.2507 46.125C28.3444 47.0625 29.7507 47.0625 29.6569 46.125C29.5632 45.1875 29.4694 44.3438 29.4694 43.4062C30.0319 43.5 30.5944 43.5 31.1569 43.5C31.2507 44.4375 31.3444 45.375 31.4382 46.4062C31.5319 47.3438 32.9382 47.3438 32.8444 46.4062C32.7507 45.375 32.6569 44.3437 32.5632 43.2187C34.6257 42.4687 36.5007 40.875 36.0319 38.5312ZM30.9694 32.9062V36C30.5007 36 30.1257 36.0938 29.7507 36.0938H29.2819L29.0007 32.7188C29.6569 32.7188 30.3132 32.8125 30.9694 32.9062ZM27.5944 35.9062C27.2194 35.8125 26.8444 35.5312 26.4694 35.25C25.6257 34.4062 26.8444 33.6562 27.5944 33.2812C27.6882 34.2187 27.7819 35.0625 27.8757 36C27.7819 36 27.6882 36 27.5944 35.9062ZM30.6882 41.9063C30.2194 42 29.8444 41.9062 29.4694 41.8125C29.3757 40.4062 29.3757 39 29.3757 37.5C29.9382 37.5 30.5007 37.4063 31.0632 37.4063C31.0632 38.9063 31.1569 40.3125 31.1569 41.8125C30.9694 41.9062 30.8757 41.9063 30.6882 41.9063ZM33.7819 40.875C33.4069 41.1562 32.9382 41.3437 32.5632 41.5312C32.4694 40.125 32.4694 38.8125 32.4694 37.4063H32.9382C34.7194 37.7813 35.1882 39.75 33.7819 40.875Z" fill="#89664C"/>
<path d="M32.375 51.5625H30.2188V55.3125L38.9375 60L58.625 53.9062V50.625L51.4062 46.4062L32.375 51.5625Z" fill="#699635"/>
<path d="M30.5 49.4063C30.5 49.4063 32.75 53.0625 39.125 56.25C39.125 56.25 49.0625 55.7813 58.625 49.4063C58.625 49.4063 53.0938 46.6875 51.5 43.125C51.5 43.125 47.75 48.375 30.5 49.4063Z" fill="#83BF4F"/>
<path d="M26.2812 51.4688L28.3438 51.375L28.625 54.8438L20.4687 60L0.875 55.7813L0.59375 52.6875L7.25 48.0938L26.2812 51.4688Z" fill="#699635"/>
<path d="M27.875 49.3125C27.875 49.3125 25.9062 52.9688 20 56.4375C20 56.4375 10.3438 56.7188 0.5 51.5625C0.5 51.5625 5.75 48.5625 6.96875 45C6.96875 45 11.0938 49.6875 27.875 49.3125Z" fill="#83BF4F"/>
<path d="M23.1875 50.3457C23.1875 50.3457 22.9063 51.0957 24.2188 51.1894L20.75 54.0957C20.75 54.0957 18.6875 53.9082 18.2187 55.3144C18.2187 55.3144 9.78125 54.3769 4.34375 51.9394C4.34375 51.9394 5.46875 51.0957 4.0625 50.5332C4.0625 50.5332 5.65625 49.4082 6.03125 48.3769C6.03125 48.3769 7.53125 48.5644 8 47.4394C8.1875 47.3457 13.8125 50.7207 23.1875 50.3457Z" stroke="#699635" stroke-width="0.9375" stroke-miterlimit="10"/>
<path d="M8.75 51.6562C9.73376 51.6562 10.5312 51.1106 10.5312 50.4375C10.5312 49.7644 9.73376 49.2188 8.75 49.2188C7.76624 49.2188 6.96875 49.7644 6.96875 50.4375C6.96875 51.1106 7.76624 51.6562 8.75 51.6562Z" fill="#699635"/>
<path d="M18.3125 48.9375C18.3125 48.9375 16.1562 51.75 11.4687 55.5938L11.75 58.125L8.46875 57.375L8.28125 54.6562C8.28125 54.6562 13.0625 50.25 14.0938 48.0938C14 48.0938 15.6875 48.6563 18.3125 48.9375Z" fill="#F9F3D9"/>
<path d="M39.9688 48.2812C39.9688 48.2812 40.8125 50.5312 47.1875 54.6562V57.375L50.8438 56.25V53.4375C50.8438 53.4375 46.4375 50.3438 43.8125 47.25L39.9688 48.2812Z" fill="#F9F3D9"/>
<path d="M34.625 45.2813L32.5625 45.1875L32.375 49.0313L40.7188 54.375L60.3125 49.0313L60.4063 45.6563L53.5625 40.875L34.625 45.2813Z" fill="#699635"/>
<path d="M32.9375 42.9375C32.9375 42.9375 35 46.875 41.0938 50.4375C41.0938 50.4375 50.8438 50.4375 60.5 44.4375C60.5 44.4375 55.1563 41.3437 53.8438 37.5C53.8438 37.5 49.8125 42.75 32.9375 42.9375Z" fill="#83BF4F"/>
<path d="M37.1562 43.9688C37.1562 43.9688 37.625 44.7188 36.125 45L40.0625 48.0938C40.0625 48.0938 42.3125 47.5313 43.0625 48.8438C43.0625 48.8438 52.4375 47.1563 56.75 44.9063C56.75 44.9063 55.3438 44.25 56.75 43.4063C56.75 43.4063 55.0625 42 54.4062 41.0625C54.4062 41.0625 52.8125 41.5313 51.9688 40.4062C51.9688 40.5 48.5937 43.5 37.1562 43.9688Z" stroke="#699635" stroke-width="0.9375" stroke-miterlimit="10"/>
<path d="M44.3783 46.3118C44.0033 46.7806 42.7845 46.9681 41.7533 46.6868C40.722 46.4056 40.2533 45.7493 40.6283 45.2806C41.0033 44.8118 42.222 44.6243 43.2533 44.9056C44.2845 45.1868 44.7533 45.7493 44.3783 46.3118Z" fill="#699635"/>
<path d="M42.5 42.1875C42.5 42.1875 44.75 45.1875 49.5312 49.2187L49.4375 52.0312L52.7188 51.0937L52.8125 48.0937C52.8125 48.0937 47.9375 43.4062 46.7188 41.1562C46.8125 41.1562 45.2188 41.8125 42.5 42.1875Z" fill="#F9F3D9"/>
<path d="M43.625 1.875C43.625 7.59375 36.2188 16.875 30.5 16.875C24.7812 16.875 17.375 8.53125 17.375 2.8125C17.375 -2.90625 18.2188 2.8125 23.9375 2.8125C24.7812 2.8125 28.7188 0 30.5 0C31.7188 0 35.1875 2.8125 37.0625 2.8125C42.0312 2.8125 43.625 -2.4375 43.625 1.875Z" fill="#DBB471"/>
<path d="M28.8157 12.4704C28.2532 12.8454 25.5344 12.5641 24.6907 13.2204C23.5657 14.0641 25.1594 16.0329 24.0344 17.2516C21.7844 19.5016 20.0032 22.0329 20.5657 23.4391C21.5032 25.8766 23.2844 18.9391 24.8782 21.5641C26.4719 24.1891 26.1907 19.7829 28.6282 22.0329C31.0657 24.2829 29.0032 18.0016 31.3469 20.7204C33.6907 23.4391 33.7844 26.5329 35.4719 26.5329C37.4407 26.5329 33.4094 19.1266 36.0344 20.9079C38.6594 22.6891 41.5657 22.0329 38.9407 19.3141C38.0969 18.4704 36.9719 16.9704 35.6594 15.6579C35.1907 15.1891 35.5657 12.7516 35.0969 12.3766C34.5344 11.9079 33.1282 13.4079 32.5657 13.1266C31.4407 12.5641 31.8157 13.5954 30.1282 13.8766C29.0032 14.2516 29.9407 11.7204 28.8157 12.4704Z" fill="#89664C"/>
<path d="M18.0348 17.9984C21.6911 14.5297 28.3473 16.4984 32.2848 18.1859C36.1286 19.8734 38.4723 14.5297 36.0348 11.8109C34.6286 10.2172 32.3786 12.0922 31.5348 13.2172C30.5973 14.3422 29.8473 15.5609 28.8161 16.6859C27.3161 18.3734 23.6598 16.9672 24.7848 14.6234C26.0036 12.1859 31.1598 14.9984 32.8473 15.4672C36.1286 16.4047 39.5973 16.7797 42.8786 15.5609C44.0036 15.1859 43.5348 13.3109 42.4098 13.7797C38.7536 15.0922 35.0973 14.2484 31.6286 13.1234C29.8473 12.5609 27.0348 11.0609 25.1598 11.9047C19.8161 14.4359 24.7848 21.6547 29.2848 18.8422C30.3161 18.1859 30.9723 17.1547 31.7223 16.2172C32.1911 15.6547 34.5348 12.0922 35.0973 13.8734C35.3786 14.8109 35.0973 16.4984 34.0661 16.7797C33.4098 17.0609 32.0973 16.1234 31.4411 15.9359C30.2223 15.4672 29.0036 15.0922 27.6911 14.8109C24.2223 14.0609 19.5348 14.2484 16.8161 16.7797C15.8786 17.5297 17.1911 18.8422 18.0348 17.9984Z" fill="#E8E8E8"/>
<path d="M42.5 0.46875C41.5625 1.21875 39.875 2.8125 37.0625 2.8125C35.1875 2.8125 31.7188 0 30.5 0C28.7188 0 24.7812 2.8125 23.9375 2.8125C20.8438 2.8125 19.1562 1.21875 18.3125 0.5625C18.3125 0.5625 19.3437 4.78125 22.5312 6.9375C24.875 8.4375 24.5938 6.65625 25.8125 4.96875C27.0312 3.28125 27.875 2.4375 30.0312 6.65625C31.1562 9 33.3125 0.28125 35 3.09375C38.0938 8.25 39.2188 5.4375 42.5 0.46875Z" fill="#89664C"/>
<path d="M49.625 49.125L49.5312 51.9375L52.8125 51L52.9063 48C52.9063 48.0938 50.9375 48.8438 49.625 49.125Z" fill="#DBB471"/>
<path d="M47.1875 54.7485V57.4673L50.8438 56.3423V53.5298C50.75 53.436 49.8125 53.9985 47.1875 54.7485Z" fill="#DBB471"/>
<path d="M11.4657 55.5L11.7469 58.125L8.46565 57.375L8.27815 54.6562C8.1844 54.6562 9.4969 55.125 11.4657 55.5Z" fill="#DBB471"/>
</g>
<defs>
<clipPath id="clip0_2845_18903">
<rect width="60" height="60" fill="white" transform="translate(0.5)"/>
</clipPath>
</defs>
</svg>
