<svg width="61" height="61" viewBox="0 0 61 61" fill="none" xmlns="http://www.w3.org/2000/svg">
<path d="M34.25 14.25C34.25 14.5815 34.1183 14.8995 33.8839 15.1339C33.6495 15.3683 33.3315 15.5 33 15.5C32.6685 15.5 32.3505 15.3683 32.1161 15.1339C31.8817 14.8995 31.75 14.5815 31.75 14.25H30.5V21.75H35.5V14.25H34.25Z" fill="#FF9800"/>
<path d="M8.62438 33C8.29798 32.9999 7.97726 32.9146 7.69395 32.7525C7.41063 32.5904 7.17453 32.3572 7.009 32.0759C6.84347 31.7946 6.75425 31.4749 6.75015 31.1486C6.74605 30.8222 6.82722 30.5004 6.98563 30.215L12.9806 21.165C13.9969 19.9688 15.3894 18.4038 16.2906 18.9063C17.1969 19.4088 17.7581 20.845 17.2556 21.75L10.2644 32.0363C10.1018 32.3286 9.86404 32.5721 9.57567 32.7415C9.2873 32.911 8.95886 33.0002 8.62438 33ZM27.3744 28C26.8919 28 26.4119 27.815 26.0481 27.4513L21.0481 22.4513C20.8691 22.2783 20.7262 22.0714 20.6279 21.8426C20.5297 21.6139 20.478 21.3678 20.4758 21.1189C20.4736 20.8699 20.5211 20.623 20.6153 20.3926C20.7096 20.1622 20.8488 19.9528 21.0249 19.7768C21.2009 19.6007 21.4103 19.4615 21.6407 19.3672C21.8711 19.2729 22.118 19.2255 22.367 19.2277C22.616 19.2298 22.862 19.2815 23.0908 19.3798C23.3195 19.4781 23.5264 19.6209 23.6994 19.8L27.5494 23.65L31.2494 20.875C32.0806 20.2575 33.2544 20.4213 33.8756 21.25C34.4969 22.0788 34.3281 23.255 33.5006 23.8763L28.5006 27.6263C28.1644 27.8763 27.7681 28 27.3744 28ZM19.8744 15.5C17.4594 15.5 15.4994 13.5375 15.4994 11.125C15.4994 8.7125 17.4594 6.75 19.8744 6.75C22.2894 6.75 24.2494 8.7125 24.2494 11.125C24.2494 13.5375 22.2894 15.5 19.8744 15.5ZM46.1244 15.5C43.7094 15.5 41.7494 13.5375 41.7494 11.125C41.7494 8.7125 43.7094 6.75 46.1244 6.75C48.5394 6.75 50.4994 8.7125 50.4994 11.125C50.4994 13.5375 48.5394 15.5 46.1244 15.5Z" fill="#FFB74D"/>
<path d="M36.75 53H8V33H36.75V53Z" fill="#FFA000"/>
<path d="M46.7508 18.0538V18.0287C46.5683 18.0175 46.3883 18 46.2045 18C46.1733 18 46.1433 18.005 46.112 18.005C46.0895 18.005 46.072 18 46.0483 18C45.8645 18 45.6833 18.0175 45.5008 18.0287V18.0375C43.9073 18.1872 42.3973 18.819 41.172 19.8488C40.9399 19.9827 40.7398 20.1657 40.5858 20.385C40.1595 20.8104 39.7795 21.2796 39.452 21.785L36.0083 26.0075L30.1608 29.5175C29.9496 29.6441 29.7654 29.8111 29.6188 30.009C29.4721 30.2068 29.3659 30.4315 29.3061 30.6704C29.1854 31.1529 29.2612 31.6635 29.517 32.09C29.7728 32.5165 30.1875 32.8239 30.6699 32.9447C31.1524 33.0654 31.663 32.9895 32.0895 32.7338L38.3395 28.9838C38.6034 28.8249 38.8244 28.6039 38.9833 28.34L40.5408 26.3938L41.7508 53H49.2508L50.3583 39.7063C50.5933 39.8125 50.852 39.875 51.1258 39.875C51.623 39.875 52.0999 39.6775 52.4516 39.3258C52.8032 38.9742 53.0008 38.4973 53.0008 38V25.5C53.0008 20.9338 50.8133 18.33 46.7508 18.0538Z" fill="#607D8B"/>
<path d="M50.3591 39.7062C50.0292 39.5593 49.749 39.3199 49.5523 39.0171C49.3555 38.7144 49.2507 38.3611 49.2503 38V24.25C49.2503 24.25 46.7503 34.25 46.7503 38C46.7385 38.9926 47.07 39.9587 47.6886 40.735C48.3073 41.5113 49.1751 42.05 50.1453 42.26L50.3591 39.7062Z" fill="#455A64"/>
<path d="M27.5512 23.6511L24.5238 19.9161C23.9125 19.1786 22.3187 18.0273 19.875 18.0273C15.6175 18.0273 14.11 19.4311 13.4425 20.4448L10.875 24.3461L14.145 26.3623C13.605 29.2348 12.9725 32.6511 12.4437 35.5011H26.3662L24.96 26.3611L27.5512 23.6511Z" fill="#E91E63"/>
<path d="M6.75 33H38V38H6.75V33Z" fill="#EF6C00"/>
</svg>
