<svg width="61" height="61" viewBox="0 0 61 61" fill="none" xmlns="http://www.w3.org/2000/svg">
<g clip-path="url(#clip0_2845_18753)">
<path d="M36.2302 5.58594C33.0306 5.58594 29.9634 6.86379 27.7102 9.13557L1.76061 35.2992C0.75688 36.3029 0.75688 37.931 1.76061 38.9358L22.5735 59.7486C23.5772 60.7524 25.2054 60.7524 26.2101 59.7486L51.5031 33.7718C53.6846 31.5312 54.9054 28.5276 54.9054 25.4004V17.5859C54.9054 10.9585 49.5328 5.58594 42.9053 5.58594H36.2302ZM44.7359 19.8232C42.4894 19.8232 40.6681 18.0019 40.6681 15.7554C40.6681 13.509 42.4894 11.6876 44.7359 11.6876C46.9823 11.6876 48.8037 13.509 48.8037 15.7554C48.8037 18.0019 46.9823 19.8232 44.7359 19.8232Z" fill="#46B29D"/>
<path d="M17.4481 35.6255L19.8059 33.0551L24.0506 36.9487C25.5127 38.2899 26.8393 38.9423 28.0306 38.906C29.2376 38.8841 30.2448 38.433 31.0524 37.5526C32.0763 36.4365 32.5301 35.2316 32.4139 33.9381C32.3279 32.6433 31.5387 31.326 30.0465 29.9862L24.6228 25.011L26.137 23.3603L41.1584 37.1394L39.6442 38.7901L33.7017 33.339L35.351 33.2452C35.9861 34.6673 36.1416 35.9969 35.8175 37.2339C35.5078 38.4551 34.9059 39.5531 34.0118 40.5278C32.9446 41.6912 31.7387 42.4378 30.3941 42.7675C29.0638 43.0816 27.678 42.9828 26.2366 42.4713C24.7952 41.9597 23.3435 41.0333 21.8815 39.6922L17.4481 35.6255ZM20.8286 48.8876L22.5699 38.3262L25.8478 41.333L24.13 51.9159L20.8286 48.8876ZM21.616 28.2888L23.1302 26.6381L38.1517 40.4172L36.6375 42.0679L21.616 28.2888Z" fill="white"/>
<path d="M44.736 16.7714C44.4756 16.7714 44.2153 16.6718 44.017 16.4735C43.6193 16.0758 43.6193 15.4331 44.017 15.0355L58.2543 0.79822C58.6519 0.400593 59.2946 0.400593 59.6922 0.79822C60.0899 1.19585 60.0899 1.83856 59.6922 2.23619L45.4549 16.4735C45.2566 16.6718 44.9963 16.7714 44.736 16.7714Z" fill="#FDD7AD"/>
</g>
<defs>
<clipPath id="clip0_2845_18753">
<rect width="60" height="60" fill="white" transform="translate(0.5 0.5)"/>
</clipPath>
</defs>
</svg>
