<svg width="32" height="32" viewBox="0 0 32 32" fill="none" xmlns="http://www.w3.org/2000/svg">
<g clip-path="url(#clip0_3657_10229)">
<path fill-rule="evenodd" clip-rule="evenodd" d="M15.993 0.0208404C14.441 -0.000839908 12.9002 0.286112 11.4601 0.865024C10.02 1.44394 8.70932 2.30327 7.60417 3.39308C6.49902 4.4829 5.62147 5.78147 5.0225 7.21335C4.42353 8.64524 4.11508 10.1819 4.11508 11.734C4.11508 13.2861 4.42353 14.8227 5.0225 16.2546C5.62147 17.6865 6.49902 18.9851 7.60417 20.0749C8.70932 21.1647 10.02 22.024 11.4601 22.6029C12.9002 23.1819 14.441 23.4688 15.993 23.4471C19.0998 23.4471 22.0794 22.2129 24.2762 20.0161C26.4731 17.8192 27.7073 14.8397 27.7073 11.7328C27.7073 8.62602 26.4731 5.64644 24.2762 3.44959C22.0794 1.25273 19.0998 0.0208404 15.993 0.0208404ZM16.457 5.55913L18.0181 8.6997C18.052 8.77949 18.1069 8.84861 18.1769 8.89972C18.247 8.95083 18.3295 8.98202 18.4159 8.98998L21.881 9.5157C21.9802 9.52838 22.0738 9.56912 22.1507 9.63311C22.2275 9.69711 22.2846 9.78171 22.3151 9.87699C22.3455 9.97227 22.3482 10.0743 22.3227 10.171C22.2973 10.2677 22.2447 10.3552 22.1713 10.4231L19.6159 12.8551C19.5774 12.9277 19.5573 13.0085 19.5573 13.0906C19.5573 13.1726 19.5774 13.2535 19.6159 13.326L20.105 16.7728C20.1256 16.8721 20.117 16.9752 20.0804 17.0697C20.0437 17.1642 19.9805 17.2461 19.8984 17.3055C19.8163 17.3649 19.7187 17.3993 19.6175 17.4046C19.5163 17.4098 19.4157 17.3857 19.3279 17.3351L16.2421 15.7031C16.1621 15.6668 16.0752 15.648 15.9873 15.648C15.8994 15.648 15.8125 15.6668 15.7324 15.7031L12.6467 17.3351C12.5589 17.3857 12.4583 17.4098 12.3571 17.4046C12.2558 17.3993 12.1583 17.3649 12.0762 17.3055C11.994 17.2461 11.9309 17.1642 11.8942 17.0697C11.8575 16.9752 11.849 16.8721 11.8696 16.7728L12.4479 13.326C12.473 13.2461 12.4779 13.1612 12.4619 13.079C12.4459 12.9967 12.4097 12.9198 12.3564 12.8551L9.79871 10.4048C9.73001 10.3362 9.68165 10.25 9.65898 10.1556C9.63631 10.0612 9.64023 9.96235 9.67029 9.87004C9.70035 9.77773 9.75538 9.69555 9.82928 9.6326C9.90319 9.56966 9.99308 9.5284 10.089 9.51341L13.5564 9.00827C13.6428 9.00031 13.7253 8.96912 13.7953 8.91801C13.8654 8.8669 13.9202 8.79778 13.9541 8.71798L15.5153 5.57741C15.5568 5.48827 15.6226 5.41258 15.705 5.35893C15.7874 5.30528 15.8832 5.27583 15.9816 5.27393C16.0799 5.27202 16.1768 5.29774 16.2613 5.34816C16.3457 5.39857 16.4143 5.47166 16.4593 5.55913H16.457ZM28.1141 19.8174C26.1419 22.7672 23.1647 24.8996 19.737 25.8174L22.9644 31.4083C23.0773 31.6041 23.2458 31.762 23.4484 31.862C23.651 31.9621 23.8788 31.9999 24.1029 31.9705C24.327 31.9412 24.5374 31.846 24.7074 31.6971C24.8774 31.5482 24.9995 31.3522 25.0581 31.134L26.2239 26.7934L30.5621 27.9568C30.7804 28.0151 31.0111 28.0074 31.225 27.9346C31.4388 27.8618 31.6263 27.7273 31.7638 27.548C31.9013 27.3687 31.9825 27.1527 31.9973 26.9273C32.012 26.7018 31.9596 26.4771 31.8467 26.2814L28.1141 19.8174ZM12.2604 25.8197C8.83067 24.9091 5.85065 22.7791 3.87871 19.8288L0.152996 26.2814C0.0400765 26.4771 -0.0123148 26.7018 0.00244077 26.9273C0.0171964 27.1527 0.0984368 27.3687 0.235899 27.548C0.373361 27.7273 0.560877 27.8618 0.774758 27.9346C0.988639 28.0074 1.21929 28.0151 1.43757 27.9568L5.77814 26.7934L6.94157 31.134C7.00023 31.3522 7.12229 31.5482 7.29232 31.6971C7.46235 31.846 7.67271 31.9412 7.8968 31.9705C8.1209 31.9999 8.34866 31.9621 8.55131 31.862C8.75395 31.762 8.92238 31.6041 9.03528 31.4083L12.2604 25.8197Z" fill="#023A4E"/>
</g>
<defs>
<clipPath id="clip0_3657_10229">
<rect width="32" height="32" fill="white"/>
</clipPath>
</defs>
</svg>
