<svg width="24" height="23" viewBox="0 0 24 23" fill="none" xmlns="http://www.w3.org/2000/svg">
<g clip-path="url(#clip0_4892_6894)">
<path d="M16.9905 15.9356L19.0551 22.2915L12.0666 17.212L16.9905 15.9356ZM23.3757 8.997H14.7355L12.0676 0.775391L9.39019 8.99889L0.75 8.98758L7.747 14.0755L5.06962 22.2905L12.0666 17.212L16.3872 14.0755L23.3757 8.997Z" fill="black"/>
<path d="M16.9905 15.9356L19.0551 22.2915L12.0666 17.212L16.9905 15.9356ZM23.3757 8.997H14.7355L12.0676 0.775391L9.39019 8.99889L0.75 8.98758L7.747 14.0755L5.06962 22.2905L12.0666 17.212L16.3872 14.0755L23.3757 8.997Z" fill="#4CAF50"/>
</g>
<defs>
<clipPath id="clip0_4892_6894">
<rect width="22.6257" height="22.6257" fill="white" transform="translate(0.75 0.21875)"/>
</clipPath>
</defs>
</svg>
