<svg width="21" height="22" viewBox="0 0 21 22" fill="none" xmlns="http://www.w3.org/2000/svg">
<path d="M10.5 2.25C15.3326 2.25 19.25 6.16738 19.25 11C19.25 15.8326 15.3326 19.75 10.5 19.75C8.95367 19.7527 7.43452 19.3434 6.09876 18.5644L1.75351 19.75L2.93651 15.403C2.15685 14.0668 1.7473 12.547 1.75001 11C1.75001 6.16738 5.66739 2.25 10.5 2.25ZM7.51801 6.8875L7.34301 6.8945C7.22987 6.9023 7.11932 6.93201 7.01751 6.982C6.92264 7.03582 6.83601 7.10301 6.76026 7.1815C6.65526 7.28038 6.59576 7.36613 6.53189 7.44925C6.20824 7.87004 6.03399 8.38665 6.03664 8.9175C6.03839 9.34625 6.15039 9.76363 6.32539 10.1539C6.68326 10.9431 7.27214 11.7787 8.04914 12.5531C8.23639 12.7395 8.42014 12.9268 8.61789 13.1009C9.58339 13.9509 10.7339 14.5638 11.9779 14.8911L12.4749 14.9673C12.6368 14.976 12.7986 14.9637 12.9614 14.9559C13.2162 14.9424 13.4649 14.8735 13.6903 14.7538C13.8048 14.6946 13.9166 14.6303 14.0254 14.5612C14.0254 14.5612 14.0624 14.5362 14.1348 14.4825C14.2529 14.395 14.3255 14.3329 14.4235 14.2305C14.497 14.1547 14.5583 14.0666 14.6073 13.9663C14.6755 13.8236 14.7438 13.5515 14.7718 13.3249C14.7928 13.1516 14.7866 13.0571 14.784 12.9985C14.7805 12.9049 14.7026 12.8077 14.6178 12.7666L14.1085 12.5382C14.1085 12.5382 13.3473 12.2066 12.8818 11.9949C12.833 11.9737 12.7809 11.9615 12.7278 11.959C12.6679 11.9527 12.6074 11.9594 12.5503 11.9786C12.4932 11.9978 12.441 12.029 12.397 12.0701C12.3926 12.0684 12.334 12.1182 11.7014 12.8848C11.6651 12.9335 11.6151 12.9704 11.5577 12.9907C11.5004 13.0109 11.4383 13.0137 11.3794 12.9985C11.3224 12.9833 11.2665 12.964 11.2123 12.9408C11.1038 12.8953 11.0661 12.8777 10.9918 12.8462C10.4894 12.6274 10.0244 12.3313 9.61364 11.9686C9.50339 11.8724 9.40101 11.7674 9.29601 11.6659C8.9518 11.3362 8.6518 10.9632 8.40351 10.5564L8.35189 10.4732C8.31537 10.4171 8.28542 10.3569 8.26264 10.2939C8.22939 10.1652 8.31601 10.062 8.31601 10.062C8.31601 10.062 8.52864 9.82925 8.62751 9.70325C8.72376 9.58075 8.80514 9.46175 8.85764 9.37688C8.96089 9.21063 8.99326 9.04 8.93901 8.90788C8.69401 8.30938 8.44085 7.71408 8.17951 7.122C8.12789 7.00475 7.97476 6.92075 7.83564 6.90412C7.78839 6.89829 7.74114 6.89362 7.69389 6.89012C7.5764 6.88339 7.45859 6.88456 7.34126 6.89363L7.51801 6.8875Z" fill="white"/>
</svg>
