<svg width="35" height="35" viewBox="0 0 35 35" fill="none" xmlns="http://www.w3.org/2000/svg">
<path d="M17.6859 8.15949L12.3922 12.4474C11.5117 13.1584 11.3422 14.4382 12.0094 15.3516C12.7148 16.3251 14.0875 16.5165 15.0336 15.7782L20.4641 11.5559C20.8469 11.2606 21.3938 11.3262 21.6945 11.709C21.9953 12.0919 21.9242 12.6388 21.5414 12.9396L20.3984 13.8257L28 20.8263V10.5003H27.9617L27.7484 10.3636L23.7781 7.82039C22.9414 7.2844 21.9625 7 20.9672 7C19.775 7 18.6156 7.4102 17.6859 8.15949ZM18.9328 14.9633L16.1055 17.1619C14.3828 18.5074 11.8836 18.1573 10.593 16.3853C9.37891 14.7171 9.68516 12.3872 11.2875 11.091L15.8375 7.4102C15.2031 7.1422 14.5195 7.00547 13.825 7.00547C12.7969 7 11.7961 7.30628 10.9375 7.87508L7 10.5003V22.7515H8.54219L13.5406 27.3129C14.6125 28.2919 16.2695 28.2153 17.2484 27.1433C17.5492 26.8097 17.7516 26.4214 17.8555 26.0167L18.7852 26.8699C19.8516 27.8489 21.5141 27.7778 22.493 26.7113C22.7391 26.4433 22.9195 26.1315 23.0344 25.8088C24.0953 26.5198 25.5391 26.3722 26.4305 25.3986C27.4094 24.3321 27.3383 22.6695 26.2719 21.6905L18.9328 14.9633ZM0.875 10.5003C0.39375 10.5003 0 10.8941 0 11.3754V22.7515C0 23.7196 0.782031 24.5017 1.75 24.5017H3.5C4.46797 24.5017 5.25 23.7196 5.25 22.7515V10.5003H0.875ZM2.625 21.0013C2.85706 21.0013 3.07962 21.0935 3.24372 21.2577C3.40781 21.4218 3.5 21.6443 3.5 21.8764C3.5 22.1085 3.40781 22.3311 3.24372 22.4952C3.07962 22.6593 2.85706 22.7515 2.625 22.7515C2.39294 22.7515 2.17038 22.6593 2.00628 22.4952C1.84219 22.3311 1.75 22.1085 1.75 21.8764C1.75 21.6443 1.84219 21.4218 2.00628 21.2577C2.17038 21.0935 2.39294 21.0013 2.625 21.0013ZM29.75 10.5003V22.7515C29.75 23.7196 30.532 24.5017 31.5 24.5017H33.25C34.218 24.5017 35 23.7196 35 22.7515V11.3754C35 10.8941 34.6063 10.5003 34.125 10.5003H29.75ZM31.5 21.8764C31.5 21.6443 31.5922 21.4218 31.7563 21.2577C31.9204 21.0935 32.1429 21.0013 32.375 21.0013C32.6071 21.0013 32.8296 21.0935 32.9937 21.2577C33.1578 21.4218 33.25 21.6443 33.25 21.8764C33.25 22.1085 33.1578 22.3311 32.9937 22.4952C32.8296 22.6593 32.6071 22.7515 32.375 22.7515C32.1429 22.7515 31.9204 22.6593 31.7563 22.4952C31.5922 22.3311 31.5 22.1085 31.5 21.8764Z" fill="white"/>
</svg>
