<svg width="35" height="35" viewBox="0 0 35 35" fill="none" xmlns="http://www.w3.org/2000/svg">
<path d="M27.7083 26.2498H13.125C12.3515 26.2498 11.6096 25.9425 11.0626 25.3956C10.5156 24.8486 10.2083 24.1067 10.2083 23.3332V5.83317C10.2083 5.05962 10.5156 4.31776 11.0626 3.77078C11.6096 3.22379 12.3515 2.9165 13.125 2.9165H14.5833V10.2082L17.5 8.02067L20.4167 10.2082V2.9165H27.7083C28.4819 2.9165 29.2237 3.22379 29.7707 3.77078C30.3177 4.31776 30.625 5.05962 30.625 5.83317V23.3332C30.625 24.1067 30.3177 24.8486 29.7707 25.3956C29.2237 25.9425 28.4819 26.2498 27.7083 26.2498ZM24.7917 29.1665V32.0832H7.29167C6.51812 32.0832 5.77625 31.7759 5.22927 31.2289C4.68229 30.6819 4.375 29.9401 4.375 29.1665V8.74984H7.29167V29.1665H24.7917Z" fill="#FFFEFC"/>
</svg>
