<svg width="35" height="35" viewBox="0 0 35 35" fill="none" xmlns="http://www.w3.org/2000/svg">
<path d="M12.0312 3.82812V6.5625H22.9688V3.82812C22.9688 3.52734 22.7227 3.28125 22.4219 3.28125H12.5781C12.2773 3.28125 12.0312 3.52734 12.0312 3.82812ZM8.75 6.5625V3.82812C8.75 1.71582 10.4658 0 12.5781 0H22.4219C24.5342 0 26.25 1.71582 26.25 3.82812V32.8125H8.75V6.5625ZM4.375 6.5625H6.5625V32.8125H4.375C1.96191 32.8125 0 30.8506 0 28.4375V10.9375C0 8.52441 1.96191 6.5625 4.375 6.5625ZM30.625 32.8125H28.4375V6.5625H30.625C33.0381 6.5625 35 8.52441 35 10.9375V28.4375C35 30.8506 33.0381 32.8125 30.625 32.8125Z" fill="white"/>
</svg>
