<svg width="35" height="35" viewBox="0 0 35 35" fill="none" xmlns="http://www.w3.org/2000/svg">
<path d="M24.0632 25.1561L28.234 27.6207L27.1402 29.3998L21.8757 26.2498V18.9582H24.0632V25.1561ZM33.5423 24.7915C33.5423 30.4353 28.9777 34.9998 23.334 34.9998C20.5486 34.9998 18.0402 33.8915 16.2027 32.0832H8.75065C7.1319 32.0832 5.83398 30.7853 5.83398 29.1665V5.83317C5.83398 5.05962 6.14128 4.31776 6.68826 3.77078C7.23524 3.22379 7.9771 2.9165 8.75065 2.9165H10.209V13.1248L13.8548 10.9373L17.5007 13.1248V2.9165H26.2507C27.0242 2.9165 27.7661 3.22379 28.313 3.77078C28.86 4.31776 29.1673 5.05962 29.1673 5.83317V16.4207C31.8069 18.2728 33.5423 21.3207 33.5423 24.7915ZM30.6257 24.7915C30.6257 20.7665 27.359 17.4998 23.334 17.4998C19.309 17.4998 16.0423 20.7665 16.0423 24.7915C16.0423 28.8165 19.309 32.0832 23.334 32.0832C27.359 32.0832 30.6257 28.8165 30.6257 24.7915Z" fill="white"/>
</svg>
