<svg width="35" height="35" viewBox="0 0 35 35" fill="none" xmlns="http://www.w3.org/2000/svg">
<path d="M12.3769 21.7102C12.9456 21.7102 13.4065 22.1681 13.4065 22.731C13.4059 22.8657 13.3788 22.9989 13.3267 23.123C13.2747 23.2472 13.1987 23.3599 13.1031 23.4547C13.0075 23.5495 12.8941 23.6245 12.7695 23.6755C12.6449 23.7265 12.5115 23.7525 12.3769 23.7519H8.21333C8.07858 23.7526 7.94499 23.7268 7.82022 23.6759C7.69545 23.625 7.58194 23.55 7.48617 23.4552C7.39041 23.3604 7.31429 23.2476 7.26214 23.1234C7.21 22.9991 7.18287 22.8658 7.18229 22.731C7.18229 22.1681 7.64458 21.7102 8.21333 21.7102H12.3769ZM13.3831 17.9287C13.9519 17.9287 14.4127 18.3881 14.4127 18.9496C14.4121 19.0843 14.385 19.2177 14.3329 19.3419C14.2807 19.4662 14.2046 19.5789 14.1088 19.6738C14.0131 19.7686 13.8996 19.8436 13.7748 19.8945C13.65 19.9454 13.5164 19.9712 13.3817 19.9704H8.23667C8.10203 19.971 7.96861 19.945 7.844 19.8941C7.7194 19.8431 7.60606 19.768 7.51045 19.6732C7.41485 19.5784 7.33885 19.4657 7.28679 19.3416C7.23474 19.2174 7.20766 19.0842 7.20708 18.9496C7.20708 18.3867 7.66792 17.9287 8.23667 17.9287H13.3831ZM19.0181 12.8829C19.0224 12.0676 19.35 11.2873 19.9292 10.7133C20.5083 10.1394 21.2915 9.81877 22.1069 9.82188C22.9225 9.81877 23.7059 10.1396 24.2851 10.7138C24.8643 11.2881 25.1918 12.0688 25.1956 12.8844C25.191 13.7001 24.8634 14.4808 24.2845 15.0556C23.7056 15.6304 22.9226 15.9524 22.1069 15.9512C21.291 15.952 20.508 15.6297 19.9291 15.0547C19.3503 14.4796 19.0228 13.6988 19.0181 12.8829ZM28.1458 22.4481C28.2917 23.3508 27.5946 24.169 26.6802 24.166H17.5335C17.3187 24.1665 17.1064 24.1202 16.9113 24.0304C16.7161 23.9406 16.5429 23.8094 16.4034 23.646C16.264 23.4826 16.1618 23.2908 16.1039 23.084C16.0459 22.8771 16.0337 22.6602 16.0679 22.4481C16.5273 19.616 18.0965 17.3308 20.1454 16.4252C20.7454 16.7585 21.4205 16.9334 22.1069 16.9334C22.7932 16.9334 23.4683 16.7585 24.0683 16.4252C26.1173 17.3308 27.6879 19.619 28.1458 22.4481ZM15.4408 16.1919C3.22 16.1919 15.2265 16.189 8.23521 16.189C8.10045 16.1897 7.96687 16.1639 7.8421 16.113C7.71732 16.0621 7.60381 15.9871 7.50805 15.8923C7.41229 15.7975 7.33616 15.6847 7.28402 15.5605C7.23187 15.4362 7.20474 15.3029 7.20417 15.1681C7.20417 14.6052 7.66646 14.1473 8.23521 14.1473L15.4408 14.1487C16.0096 14.1487 16.4719 14.6067 16.4704 15.171C16.4704 15.3058 16.4437 15.4393 16.3919 15.5637C16.34 15.6882 16.2641 15.8011 16.1683 15.896C16.0726 15.9909 15.959 16.0659 15.8342 16.1167C15.7093 16.1675 15.5756 16.193 15.4408 16.1919ZM8.23667 12.409C8.10175 12.4103 7.96791 12.3849 7.84288 12.3342C7.71784 12.2835 7.6041 12.2085 7.50822 12.1136C7.41234 12.0187 7.33624 11.9057 7.2843 11.7812C7.23236 11.6566 7.20562 11.523 7.20563 11.3881C7.20563 10.8252 7.66792 10.3673 8.23667 10.3673H15.4408C16.0081 10.3673 16.469 10.8237 16.469 11.3881C16.4674 11.6598 16.3581 11.9197 16.1651 12.1108C15.972 12.302 15.711 12.4087 15.4394 12.4075L8.23667 12.409ZM19.6248 27.1629C19.8786 27.1629 20.1221 27.0627 20.3023 26.8841C20.4826 26.7055 20.585 26.4629 20.5873 26.2092H30.8831V7.83417H4.11833V26.2077H14.4127C14.4127 26.7342 14.8429 27.1615 15.3752 27.1615L19.6248 27.1629ZM35 26.2092V27.6048C35 28.4871 34.2767 29.2031 33.3871 29.2031H1.61292C0.723333 29.2031 0 28.4885 0 27.6048V26.2092H2.06063V7.81229C2.06063 6.69958 2.96917 5.79688 4.09354 5.79688H30.9079C32.0308 5.79688 32.9408 6.69958 32.9408 7.81229V26.2092H35Z" fill="white"/>
</svg>
