<svg width="35" height="35" viewBox="0 0 35 35" fill="none" xmlns="http://www.w3.org/2000/svg">
<path d="M8.01302 2.92041H24.7839C25.7508 2.92041 26.6781 3.30452 27.3619 3.98825C28.0456 4.67198 28.4297 5.59931 28.4297 6.56624V16.5019C26.7679 15.9635 24.9897 15.8947 23.2913 16.3032C21.5929 16.7117 20.0404 17.5816 18.8052 18.8167C17.57 20.0519 16.7001 21.6044 16.2916 23.3028C15.8831 25.0012 15.9519 26.7795 16.4903 28.4412H6.55469C6.55469 28.828 6.70833 29.199 6.98182 29.4724C7.25531 29.7459 7.62625 29.8996 8.01302 29.8996H17.1014C17.5186 30.6999 18.0479 31.4365 18.6734 32.0871H8.01302C7.04609 32.0871 6.11875 31.703 5.43503 31.0192C4.7513 30.3355 4.36719 29.4082 4.36719 28.4412V6.56624C4.36719 5.59931 4.7513 4.67198 5.43503 3.98825C6.11875 3.30452 7.04609 2.92041 8.01302 2.92041ZM10.2005 7.29541C9.81375 7.29541 9.44281 7.44906 9.16932 7.72255C8.89583 7.99604 8.74219 8.36697 8.74219 8.75374V10.2121C8.74219 10.5989 8.89583 10.9698 9.16932 11.2433C9.44281 11.5168 9.81375 11.6704 10.2005 11.6704H21.8672C22.254 11.6704 22.6249 11.5168 22.8984 11.2433C23.1719 10.9698 23.3255 10.5989 23.3255 10.2121V8.75374C23.3255 8.36697 23.1719 7.99604 22.8984 7.72255C22.6249 7.44906 22.254 7.29541 21.8672 7.29541H10.2005ZM33.5339 25.5246C33.5339 23.3973 32.6888 21.3572 31.1846 19.853C29.6804 18.3488 27.6403 17.5037 25.513 17.5037C23.3858 17.5037 21.3456 18.3488 19.8414 19.853C18.3372 21.3572 17.4922 23.3973 17.4922 25.5246C17.4922 27.6518 18.3372 29.692 19.8414 31.1962C21.3456 32.7004 23.3858 33.5454 25.513 33.5454C27.6403 33.5454 29.6804 32.7004 31.1846 31.1962C32.6888 29.692 33.5339 27.6518 33.5339 25.5246ZM24.6584 22.0202L28.7505 24.7035C28.8779 24.7852 28.9775 24.8936 29.0495 25.0287C29.1224 25.161 29.1589 25.3058 29.1589 25.4633C29.159 25.6145 29.123 25.7635 29.0539 25.8979C28.9871 26.0305 28.8878 26.1439 28.7651 26.2275L24.6716 29.0202C24.6007 29.0687 24.523 29.1066 24.4411 29.1325C24.2516 29.1932 24.0463 29.1812 23.8651 29.099C23.7608 29.0497 23.6657 28.9831 23.5836 28.9021C23.5042 28.8164 23.4401 28.7178 23.3941 28.6104C23.348 28.501 23.3247 28.3835 23.3255 28.2648V22.7844C23.3244 22.6088 23.3744 22.4367 23.4695 22.2891C23.5645 22.1415 23.7005 22.0248 23.8607 21.9531C23.9878 21.8933 24.1284 21.8678 24.2684 21.8793C24.4084 21.8908 24.5429 21.9389 24.6584 22.0187" fill="white"/>
</svg>
