<svg width="24" height="24" viewBox="0 0 24 24" fill="none" xmlns="http://www.w3.org/2000/svg">
<g clip-path="url(#clip0_2845_19035)">
<path fill-rule="evenodd" clip-rule="evenodd" d="M8.57143 0.0351562C7.77578 0.0351563 7.01272 0.351227 6.45011 0.913836C5.8875 1.47645 5.57143 2.23951 5.57143 3.03516V5.14373H2.57143C1.88944 5.14373 1.23539 5.41465 0.753154 5.89688C0.270918 6.37912 0 7.03317 0 7.71516L0 21.4294C0 22.1114 0.270918 22.7655 0.753154 23.2477C1.23539 23.73 1.88944 24.0009 2.57143 24.0009H21.4286C22.1106 24.0009 22.7646 23.73 23.2468 23.2477C23.7291 22.7655 24 22.1114 24 21.4294V7.71516C24 7.03317 23.7291 6.37912 23.2468 5.89688C22.7646 5.41465 22.1106 5.14373 21.4286 5.14373H18.4286V3.03516C18.4286 2.23951 18.1125 1.47645 17.5499 0.913836C16.9873 0.351227 16.2242 0.0351563 15.4286 0.0351562H8.57143ZM15.8571 5.14373V3.03516C15.8571 2.92149 15.812 2.81248 15.7316 2.73211C15.6512 2.65174 15.5422 2.60658 15.4286 2.60658H8.57143C8.45776 2.60658 8.34875 2.65174 8.26838 2.73211C8.18801 2.81248 8.14286 2.92149 8.14286 3.03516V5.14373H15.8571Z" fill="#20B0C6"/>
</g>
<defs>
<clipPath id="clip0_2845_19035">
<rect width="24" height="24" fill="white"/>
</clipPath>
</defs>
</svg>
