<svg width="32" height="32" viewBox="0 0 32 32" fill="none" xmlns="http://www.w3.org/2000/svg">
<path d="M3.99996 8.00002C3.26663 8.00002 2.66663 8.60002 2.66663 9.33335V26.6667C2.66663 28.1334 3.86663 29.3334 5.33329 29.3334H22.6666C23.4 29.3334 24 28.7334 24 28C24 27.2667 23.4 26.6667 22.6666 26.6667H6.66663C5.93329 26.6667 5.33329 26.0667 5.33329 25.3334V9.33335C5.33329 8.60002 4.73329 8.00002 3.99996 8.00002ZM26.6666 2.66669H10.6666C9.19996 2.66669 7.99996 3.86669 7.99996 5.33335V21.3334C7.99996 22.8 9.19996 24 10.6666 24H26.6666C28.1333 24 29.3333 22.8 29.3333 21.3334V5.33335C29.3333 3.86669 28.1333 2.66669 26.6666 2.66669ZM24 14.6667H13.3333C12.6 14.6667 12 14.0667 12 13.3334C12 12.6 12.6 12 13.3333 12H24C24.7333 12 25.3333 12.6 25.3333 13.3334C25.3333 14.0667 24.7333 14.6667 24 14.6667ZM18.6666 20H13.3333C12.6 20 12 19.4 12 18.6667C12 17.9334 12.6 17.3334 13.3333 17.3334H18.6666C19.4 17.3334 20 17.9334 20 18.6667C20 19.4 19.4 20 18.6666 20ZM24 9.33335H13.3333C12.6 9.33335 12 8.73335 12 8.00002C12 7.26669 12.6 6.66669 13.3333 6.66669H24C24.7333 6.66669 25.3333 7.26669 25.3333 8.00002C25.3333 8.73335 24.7333 9.33335 24 9.33335Z" fill="#008FDB"/>
</svg>
