<svg width="32" height="32" viewBox="0 0 32 32" fill="none" xmlns="http://www.w3.org/2000/svg">
<path d="M28.537 9.86C28.064 9.6 27.41 9.607 26.927 9.336C25.985 8.802 25.742 8.02 25.702 6.861C23.642 4.647 20.564 2.686 16.278 2.748C15.116 2.765 14.022 2.713 13.12 3.183C12.862 3.537 13.116 3.699 13.408 3.783C13.118 3.92 12.716 3.929 12.782 4.479C15.502 4.096 20.257 5.103 19.898 7.445C19.818 7.965 19.163 8.521 18.718 9.008C17.456 10.39 16.12 11.458 14.958 12.675L15.294 13.011C16.036 12.491 16.74 12.226 17.398 12.226C18.105 12.226 18.518 12.523 18.674 12.659C19.249 12.041 19.84 11.415 20.514 10.806C21.001 10.362 21.56 9.706 22.079 9.628L23.027 9.528C24.183 9.574 24.964 9.818 25.497 10.758C25.767 11.24 25.76 11.898 26.019 12.372C26.194 12.697 26.956 13.592 27.335 13.602C27.629 13.61 27.938 13.402 28.235 13.112L29.267 12.077C29.557 11.783 29.767 11.477 29.759 11.181C29.753 10.801 28.859 10.036 28.536 9.861L28.537 9.86ZM13.02 15.352L12.28 14.612C9.14 17.254 5.76 20.35 2.75 23.2C2.276 23.644 1.297 24.222 1.243 24.74C1.16 25.52 2.193 26.205 2.749 26.74C3.304 27.273 3.959 28.342 4.742 28.25C5.252 28.207 5.837 27.22 6.286 26.748C8.62972 24.2904 10.9245 21.7866 13.169 19.238C12.857 18.868 12.671 18.643 12.671 18.643C12.534 18.451 11.778 17.273 13.021 15.353L13.02 15.352ZM20.64 15.642C20.274 15.324 19.174 15.785 18.863 15.52C18.552 15.255 19.033 14.262 18.803 14.066L18.033 13.42C18.033 13.42 17.17 12.59 15.22 14.348L7.44 6.568C7.045 6.173 7.203 4.746 7.203 4.746L3.517 2.646L2.623 3.541L4.723 7.228C4.723 7.228 6.151 7.07 6.547 7.465L14.339 15.258C12.789 17.088 13.443 18.01 13.443 18.01C13.443 18.01 13.681 18.297 14.089 18.78C14.285 19.01 15.277 18.53 15.544 18.84C15.808 19.153 15.348 20.25 15.664 20.618C18.33 23.682 22.59 28.354 23.789 28.354C24.681 28.354 25.809 27.63 26.737 26.714C27.662 25.797 28.377 24.659 28.377 23.767C28.377 22.567 23.703 18.309 20.639 15.643L20.64 15.642Z" fill="#F06FFF"/>
</svg>
