<svg width="274" height="196" viewBox="0 0 274 196" fill="none" xmlns="http://www.w3.org/2000/svg">
<path d="M-17.818 11.818L-21 0L-24.182 11.818L-36 15L-24.182 18.182L-21 30L-17.818 18.182L-6 15L-17.818 11.818Z" fill="white" fill-opacity="0.5"/>
<path d="M22.182 11.818L19 0L15.818 11.818L4 15L15.818 18.182L19 30L22.182 18.182L34 15L22.182 11.818Z" fill="white" fill-opacity="0.5"/>
<path d="M59 0L62.182 11.818L74 15L62.182 18.182L59 30L55.818 18.182L44 15L55.818 11.818L59 0Z" fill="white" fill-opacity="0.5"/>
<path d="M102.182 11.818L99 0L95.818 11.818L84 15L95.818 18.182L99 30L102.182 18.182L114 15L102.182 11.818Z" fill="white" fill-opacity="0.5"/>
<path d="M139 0L142.182 11.818L154 15L142.182 18.182L139 30L135.818 18.182L124 15L135.818 11.818L139 0Z" fill="white" fill-opacity="0.5"/>
<path d="M182.182 11.818L179 0L175.818 11.818L164 15L175.818 18.182L179 30L182.182 18.182L194 15L182.182 11.818Z" fill="white" fill-opacity="0.5"/>
<path d="M219 0L222.182 11.818L234 15L222.182 18.182L219 30L215.818 18.182L204 15L215.818 11.818L219 0Z" fill="white" fill-opacity="0.5"/>
<path d="M262.182 11.818L259 0L255.818 11.818L244 15L255.818 18.182L259 30L262.182 18.182L274 15L262.182 11.818Z" fill="white" fill-opacity="0.5"/>
<path d="M-21 40L-17.818 51.818L-6 55L-17.818 58.182L-21 70L-24.182 58.182L-36 55L-24.182 51.818L-21 40Z" fill="white" fill-opacity="0.5"/>
<path d="M22.182 51.818L19 40L15.818 51.818L4 55L15.818 58.182L19 70L22.182 58.182L34 55L22.182 51.818Z" fill="white" fill-opacity="0.5"/>
<path d="M59 40L62.182 51.818L74 55L62.182 58.182L59 70L55.818 58.182L44 55L55.818 51.818L59 40Z" fill="white" fill-opacity="0.5"/>
<path d="M102.182 51.818L99 40L95.818 51.818L84 55L95.818 58.182L99 70L102.182 58.182L114 55L102.182 51.818Z" fill="white" fill-opacity="0.5"/>
<path d="M139 40L142.182 51.818L154 55L142.182 58.182L139 70L135.818 58.182L124 55L135.818 51.818L139 40Z" fill="white" fill-opacity="0.5"/>
<path d="M182.182 51.818L179 40L175.818 51.818L164 55L175.818 58.182L179 70L182.182 58.182L194 55L182.182 51.818Z" fill="white" fill-opacity="0.5"/>
<path d="M219 40L222.182 51.818L234 55L222.182 58.182L219 70L215.818 58.182L204 55L215.818 51.818L219 40Z" fill="white" fill-opacity="0.5"/>
<path d="M262.182 51.818L259 40L255.818 51.818L244 55L255.818 58.182L259 70L262.182 58.182L274 55L262.182 51.818Z" fill="white" fill-opacity="0.5"/>
<path d="M-21 80L-17.818 91.818L-6 95L-17.818 98.182L-21 110L-24.182 98.182L-36 95L-24.182 91.818L-21 80Z" fill="white" fill-opacity="0.5"/>
<path d="M22.182 91.818L19 80L15.818 91.818L4 95L15.818 98.182L19 110L22.182 98.182L34 95L22.182 91.818Z" fill="white" fill-opacity="0.5"/>
<path d="M59 80L62.182 91.818L74 95L62.182 98.182L59 110L55.818 98.182L44 95L55.818 91.818L59 80Z" fill="white" fill-opacity="0.5"/>
<path d="M102.182 91.818L99 80L95.818 91.818L84 95L95.818 98.182L99 110L102.182 98.182L114 95L102.182 91.818Z" fill="white" fill-opacity="0.5"/>
<path d="M139 80L142.182 91.818L154 95L142.182 98.182L139 110L135.818 98.182L124 95L135.818 91.818L139 80Z" fill="white" fill-opacity="0.5"/>
<path d="M182.182 91.818L179 80L175.818 91.818L164 95L175.818 98.182L179 110L182.182 98.182L194 95L182.182 91.818Z" fill="white" fill-opacity="0.5"/>
<path d="M219 80L222.182 91.818L234 95L222.182 98.182L219 110L215.818 98.182L204 95L215.818 91.818L219 80Z" fill="white" fill-opacity="0.5"/>
<path d="M262.182 91.818L259 80L255.818 91.818L244 95L255.818 98.182L259 110L262.182 98.182L274 95L262.182 91.818Z" fill="white" fill-opacity="0.5"/>
<path d="M-21 120L-17.818 131.818L-6 135L-17.818 138.182L-21 150L-24.182 138.182L-36 135L-24.182 131.818L-21 120Z" fill="white" fill-opacity="0.5"/>
<path d="M22.182 131.818L19 120L15.818 131.818L4 135L15.818 138.182L19 150L22.182 138.182L34 135L22.182 131.818Z" fill="white" fill-opacity="0.5"/>
<path d="M59 120L62.182 131.818L74 135L62.182 138.182L59 150L55.818 138.182L44 135L55.818 131.818L59 120Z" fill="white" fill-opacity="0.5"/>
<path d="M102.182 131.818L99 120L95.818 131.818L84 135L95.818 138.182L99 150L102.182 138.182L114 135L102.182 131.818Z" fill="white" fill-opacity="0.5"/>
<path d="M139 120L142.182 131.818L154 135L142.182 138.182L139 150L135.818 138.182L124 135L135.818 131.818L139 120Z" fill="white" fill-opacity="0.5"/>
<path d="M182.182 131.818L179 120L175.818 131.818L164 135L175.818 138.182L179 150L182.182 138.182L194 135L182.182 131.818Z" fill="white" fill-opacity="0.5"/>
<path d="M219 120L222.182 131.818L234 135L222.182 138.182L219 150L215.818 138.182L204 135L215.818 131.818L219 120Z" fill="white" fill-opacity="0.5"/>
<path d="M262.182 131.818L259 120L255.818 131.818L244 135L255.818 138.182L259 150L262.182 138.182L274 135L262.182 131.818Z" fill="white" fill-opacity="0.5"/>
<path d="M-21 160L-17.818 171.818L-6 175L-17.818 178.182L-21 190L-24.182 178.182L-36 175L-24.182 171.818L-21 160Z" fill="white" fill-opacity="0.5"/>
<path d="M22.182 171.818L19 160L15.818 171.818L4 175L15.818 178.182L19 190L22.182 178.182L34 175L22.182 171.818Z" fill="white" fill-opacity="0.5"/>
<path d="M59 160L62.182 171.818L74 175L62.182 178.182L59 190L55.818 178.182L44 175L55.818 171.818L59 160Z" fill="white" fill-opacity="0.5"/>
<path d="M102.182 171.818L99 160L95.818 171.818L84 175L95.818 178.182L99 190L102.182 178.182L114 175L102.182 171.818Z" fill="white" fill-opacity="0.5"/>
<path d="M139 160L142.182 171.818L154 175L142.182 178.182L139 190L135.818 178.182L124 175L135.818 171.818L139 160Z" fill="white" fill-opacity="0.5"/>
<path d="M182.182 171.818L179 160L175.818 171.818L164 175L175.818 178.182L179 190L182.182 178.182L194 175L182.182 171.818Z" fill="white" fill-opacity="0.5"/>
<path d="M219 160L222.182 171.818L234 175L222.182 178.182L219 190L215.818 178.182L204 175L215.818 171.818L219 160Z" fill="white" fill-opacity="0.5"/>
<path d="M262.182 171.818L259 160L255.818 171.818L244 175L255.818 178.182L259 190L262.182 178.182L274 175L262.182 171.818Z" fill="white" fill-opacity="0.5"/>
<path d="M-21 200L-17.818 211.818L-6 215L-17.818 218.182L-21 230L-24.182 218.182L-36 215L-24.182 211.818L-21 200Z" fill="white" fill-opacity="0.5"/>
<path d="M22.182 211.818L19 200L15.818 211.818L4 215L15.818 218.182L19 230L22.182 218.182L34 215L22.182 211.818Z" fill="white" fill-opacity="0.5"/>
<path d="M59 200L62.182 211.818L74 215L62.182 218.182L59 230L55.818 218.182L44 215L55.818 211.818L59 200Z" fill="white" fill-opacity="0.5"/>
<path d="M102.182 211.818L99 200L95.818 211.818L84 215L95.818 218.182L99 230L102.182 218.182L114 215L102.182 211.818Z" fill="white" fill-opacity="0.5"/>
<path d="M139 200L142.182 211.818L154 215L142.182 218.182L139 230L135.818 218.182L124 215L135.818 211.818L139 200Z" fill="white" fill-opacity="0.5"/>
<path d="M182.182 211.818L179 200L175.818 211.818L164 215L175.818 218.182L179 230L182.182 218.182L194 215L182.182 211.818Z" fill="white" fill-opacity="0.5"/>
<path d="M219 200L222.182 211.818L234 215L222.182 218.182L219 230L215.818 218.182L204 215L215.818 211.818L219 200Z" fill="white" fill-opacity="0.5"/>
<path d="M262.182 211.818L259 200L255.818 211.818L244 215L255.818 218.182L259 230L262.182 218.182L274 215L262.182 211.818Z" fill="white" fill-opacity="0.5"/>
</svg>
