<svg width="26" height="26" viewBox="0 0 26 26" fill="none" xmlns="http://www.w3.org/2000/svg">
<g clip-path="url(#clip0_3079_4055)">
<path d="M16.1423 6.26885C15.9281 6.07522 15.6491 5.96726 15.3589 5.96719C15.0489 5.96711 14.7515 6.09019 14.5323 6.30935C14.313 6.52851 14.1898 6.82579 14.1897 7.1358C14.1896 7.44579 14.3127 7.74312 14.5319 7.96238C14.5319 7.96239 14.5319 7.9624 14.5319 7.9624L17.7945 11.2261L18.4984 11.9302H17.5028H5.34297C5.033 11.9302 4.73572 12.0534 4.51654 12.2725C4.29735 12.4917 4.17422 12.789 4.17422 13.099C4.17422 13.4089 4.29735 13.7062 4.51654 13.9254C4.73572 14.1446 5.033 14.2677 5.34297 14.2677H17.5028H18.4986L17.7945 14.9719L14.5308 18.2356C14.3115 18.4549 14.1883 18.7523 14.1883 19.0624C14.1883 19.3725 14.3115 19.6699 14.5308 19.8892C14.75 20.1085 15.0474 20.2316 15.3576 20.2316C15.6676 20.2316 15.965 20.1085 16.1843 19.8892C16.1843 19.8892 16.1843 19.8892 16.1843 19.8892L22.1465 13.9249C22.3654 13.7057 22.4883 13.4087 22.4883 13.099C22.4883 12.7893 22.3655 12.4924 22.1467 12.2732L16.1423 6.26885ZM16.1423 6.26885L16.1833 6.30981L22.1465 12.273L16.1423 6.26885Z" fill="white" stroke="#032B38" stroke-width="0.825"/>
</g>
<defs>
<clipPath id="clip0_3079_4055">
<rect width="25.3" height="25.3" fill="white" transform="translate(0.599609 0.449219)"/>
</clipPath>
</defs>
</svg>
