<svg width="38" height="38" viewBox="0 0 38 38" fill="none" xmlns="http://www.w3.org/2000/svg">
<rect x="0.444824" y="0.273438" width="37.0909" height="37.0909" rx="18.5455" fill="white"/>
<path d="M12.1056 10.9996L12.1431 11.0796H12.2315H25.9458C26.1549 11.0796 26.3553 11.1626 26.5031 11.3104C26.651 11.4582 26.734 11.6587 26.734 11.8678C26.734 11.9972 26.6962 12.1329 26.6369 12.2698L23.3207 18.2631C23.3207 18.2632 23.3207 18.2632 23.3206 18.2632C23.0288 18.7867 22.4622 19.1468 21.8195 19.1468H14.9113H14.8292L14.7895 19.2187L13.955 20.7302L13.9462 20.7461L13.9418 20.7637L13.914 20.8749L13.9098 20.8915V20.9087C13.9098 21.007 13.9489 21.1014 14.0185 21.1709C14.088 21.2405 14.1824 21.2796 14.2807 21.2796H24.8795V22.8559H13.8913C13.4363 22.8559 13 22.6752 12.6783 22.3535C12.3566 22.0318 12.1758 21.5955 12.1758 21.1405C12.1758 20.8401 12.253 20.5569 12.3814 20.3169L13.642 18.046L13.6767 17.9835L13.646 17.9189L10.3079 10.8809L10.2702 10.8014H10.1822H8.46673V9.22503H11.2715L12.1056 10.9996ZM22.2367 17.5705H22.3185L22.3583 17.499L24.9361 12.8626L25.051 12.6559H24.8145H13.0938H12.8744L12.968 12.8544L15.1564 17.4908L15.194 17.5705H15.2822H22.2367ZM23.164 24.0614C23.619 24.0614 24.0553 24.2421 24.377 24.5638C24.6987 24.8855 24.8795 25.3219 24.8795 25.7768C24.8795 26.2318 24.6987 26.6681 24.377 26.9899C24.0553 27.3116 23.619 27.4923 23.164 27.4923C22.709 27.4923 22.2727 27.3116 21.951 26.9899C21.6293 26.6681 21.4485 26.2318 21.4485 25.7768C21.4485 24.8244 22.2115 24.0614 23.164 24.0614ZM13.8913 24.0614C14.3462 24.0614 14.7826 24.2421 15.1043 24.5638C15.426 24.8855 15.6067 25.3219 15.6067 25.7768C15.6067 26.2318 15.426 26.6681 15.1043 26.9899C14.7826 27.3116 14.3462 27.4923 13.8913 27.4923C13.4363 27.4923 13 27.3116 12.6783 26.9899C12.3566 26.6681 12.1758 26.2318 12.1758 25.7768C12.1758 24.8244 12.9388 24.0614 13.8913 24.0614Z" fill="black" stroke="white" stroke-width="0.278182"/>
</svg>
