<svg width="22" height="22" viewBox="0 0 22 22" fill="none" xmlns="http://www.w3.org/2000/svg">
<path d="M10.9967 3.4375C10.0851 3.4375 9.21072 3.79966 8.56606 4.44432C7.92141 5.08898 7.55924 5.96332 7.55924 6.875C7.55924 7.78668 7.92141 8.66102 8.56606 9.30568C9.21072 9.95034 10.0851 10.3125 10.9967 10.3125C11.9084 10.3125 12.7828 9.95034 13.4274 9.30568C14.0721 8.66102 14.4342 7.78668 14.4342 6.875C14.4342 5.96332 14.0721 5.08898 13.4274 4.44432C12.7828 3.79966 11.9084 3.4375 10.9967 3.4375ZM7.33008 12.1458C6.4184 12.1458 5.54405 12.508 4.8994 13.1527C4.25474 13.7973 3.89258 14.6717 3.89258 15.5833V16.6723C3.89258 17.3635 4.39308 17.952 5.07508 18.0629C8.99658 18.7037 12.9969 18.7037 16.9184 18.0629C17.2482 18.0087 17.5481 17.8391 17.7647 17.5845C17.9812 17.3298 18.1004 17.0066 18.1009 16.6723V15.5833C18.1009 14.6717 17.7387 13.7973 17.0941 13.1527C16.4494 12.508 15.5751 12.1458 14.6634 12.1458H14.3517C14.1806 12.1464 14.0144 12.1727 13.8531 12.2247L13.0592 12.4841C11.719 12.9216 10.2744 12.9216 8.93424 12.4841L8.14041 12.2247C7.97951 12.1731 7.81164 12.1465 7.64266 12.1458H7.33008Z" fill="#C8C8C8"/>
</svg>
