<svg width="38" height="38" viewBox="0 0 38 38" fill="none" xmlns="http://www.w3.org/2000/svg">
<rect x="0.808105" y="0.273438" width="37.0909" height="37.0909" rx="18.5455" fill="white"/>
<path fill-rule="evenodd" clip-rule="evenodd" d="M15.8862 18.821C15.8862 17.8988 16.2526 17.0143 16.9047 16.3622C17.5568 15.7101 18.4413 15.3438 19.3635 15.3438C20.2857 15.3438 21.1702 15.7101 21.8223 16.3622C22.4744 17.0143 22.8408 17.8988 22.8408 18.821C22.8408 19.7433 22.4744 20.6277 21.8223 21.2798C21.1702 21.9319 20.2857 22.2983 19.3635 22.2983C18.4413 22.2983 17.5568 21.9319 16.9047 21.2798C16.2526 20.6277 15.8862 19.7433 15.8862 18.821ZM19.3635 16.7347C18.8102 16.7347 18.2795 16.9545 17.8882 17.3457C17.497 17.737 17.2771 18.2677 17.2771 18.821C17.2771 19.3744 17.497 19.905 17.8882 20.2963C18.2795 20.6876 18.8102 20.9074 19.3635 20.9074C19.9168 20.9074 20.4475 20.6876 20.8388 20.2963C21.2301 19.905 21.4499 19.3744 21.4499 18.821C21.4499 18.2677 21.2301 17.737 20.8388 17.3457C20.4475 16.9545 19.9168 16.7347 19.3635 16.7347Z" fill="black"/>
<path fill-rule="evenodd" clip-rule="evenodd" d="M12.246 17.5661C11.8574 18.1261 11.7146 18.5647 11.7146 18.8216C11.7146 19.0784 11.8574 19.517 12.246 20.0771C12.6224 20.6177 13.1807 21.2047 13.8872 21.7471C15.3032 22.8339 17.244 23.6898 19.3646 23.6898C21.4853 23.6898 23.4261 22.8339 24.842 21.7471C25.5486 21.2047 26.1068 20.6177 26.4833 20.0771C26.8718 19.517 27.0146 19.0784 27.0146 18.8216C27.0146 18.5647 26.8718 18.1261 26.4833 17.5661C26.1068 17.0255 25.5486 16.4385 24.842 15.896C23.4261 14.8093 21.4853 13.9534 19.3646 13.9534C17.244 13.9534 15.3032 14.8093 13.8872 15.896C13.1807 16.4385 12.6224 17.0255 12.246 17.5661ZM13.0397 14.7926C14.6448 13.5612 16.8758 12.5625 19.3646 12.5625C21.8534 12.5625 24.0845 13.5612 25.6886 14.7926C26.4926 15.4092 27.1565 16.0973 27.6257 16.7732C28.0819 17.4307 28.4055 18.1512 28.4055 18.8216C28.4055 19.492 28.081 20.2125 27.6257 20.8699C27.1565 21.5459 26.4926 22.233 25.6896 22.8506C24.0854 24.082 21.8534 25.0807 19.3646 25.0807C16.8758 25.0807 14.6448 24.082 13.0406 22.8506C12.2367 22.234 11.5728 21.5459 11.1036 20.8699C10.6483 20.2125 10.3237 19.492 10.3237 18.8216C10.3237 18.1512 10.6483 17.4307 11.1036 16.7732C11.5728 16.0973 12.2367 15.4102 13.0397 14.7926Z" fill="black"/>
</svg>
