<svg width="39" height="39" viewBox="0 0 39 39" fill="none" xmlns="http://www.w3.org/2000/svg">
<rect x="0.171875" y="0.273438" width="38" height="38" rx="19" fill="white"/>
<path fill-rule="evenodd" clip-rule="evenodd" d="M25.6766 19.5918C26.3247 18.9335 26.6848 18.0446 26.6776 17.1208C26.6703 16.1969 26.2964 15.3138 25.6381 14.6656C25.3121 14.3447 24.9261 14.0911 24.5021 13.9194C24.0781 13.7476 23.6245 13.6611 23.167 13.6646C22.2432 13.6719 21.3601 14.0458 20.7119 14.7041C20.5359 14.8801 20.3122 15.0962 20.0409 15.3522L19.2865 16.0626L18.5321 15.3522C18.2601 15.0956 18.0362 14.8795 17.8602 14.7041C17.2069 14.0509 16.3209 13.6839 15.3971 13.6839C14.4732 13.6839 13.5872 14.0509 12.934 14.7041C11.5883 16.0507 11.5727 18.2278 12.8845 19.5808L19.2865 25.9828L25.6766 19.5918ZM12.1557 13.9268C12.5814 13.5011 13.0867 13.1634 13.6428 12.933C14.199 12.7025 14.7951 12.584 15.3971 12.584C15.9991 12.584 16.5952 12.7025 17.1513 12.933C17.7075 13.1634 18.2128 13.5011 18.6384 13.9268C18.8052 14.0943 19.0213 14.3026 19.2865 14.552C19.5505 14.3026 19.7665 14.0939 19.9346 13.9259C20.7875 13.0598 21.9496 12.568 23.1652 12.5587C24.3808 12.5494 25.5502 13.0234 26.4163 13.8764C27.2824 14.7294 27.7742 15.8915 27.7835 17.107C27.7928 18.3226 27.3188 19.492 26.4658 20.3581L19.9346 26.8903C19.7627 27.0622 19.5296 27.1587 19.2865 27.1587C19.0434 27.1587 18.8103 27.0622 18.6384 26.8903L12.1053 20.3572C11.2675 19.4932 10.8032 18.3343 10.8126 17.1308C10.8221 15.9273 11.3045 14.7758 12.1557 13.925V13.9268Z" fill="black"/>
</svg>
