<svg width="16" height="16" viewBox="0 0 16 16" fill="none" xmlns="http://www.w3.org/2000/svg">
<g clip-path="url(#clip0_3079_2849)">
<path d="M14.3332 2.66602H12.8888V3.5549H14.2221V13.3327H1.77767V3.5549H3.11101V2.66602H1.66656C1.56267 2.66775 1.46013 2.68994 1.36482 2.73131C1.2695 2.77268 1.18326 2.83242 1.11104 2.90712C1.03881 2.98183 0.982007 3.07002 0.943873 3.16668C0.905739 3.26334 0.88702 3.36657 0.888786 3.47046V13.4171C0.88702 13.521 0.905739 13.6242 0.943873 13.7209C0.982007 13.8176 1.03881 13.9058 1.11104 13.9805C1.18326 14.0552 1.2695 14.1149 1.36482 14.1563C1.46013 14.1976 1.56267 14.2198 1.66656 14.2216H14.3332C14.4371 14.2198 14.5397 14.1976 14.635 14.1563C14.7303 14.1149 14.8165 14.0552 14.8888 13.9805C14.961 13.9058 15.0178 13.8176 15.0559 13.7209C15.0941 13.6242 15.1128 13.521 15.111 13.4171V3.47046C15.1128 3.36657 15.0941 3.26334 15.0559 3.16668C15.0178 3.07002 14.961 2.98183 14.8888 2.90712C14.8165 2.83242 14.7303 2.77268 14.635 2.73131C14.5397 2.68994 14.4371 2.66775 14.3332 2.66602Z" fill="white"/>
<path d="M3.55566 6.22266H4.44455V7.11155H3.55566V6.22266Z" fill="white"/>
<path d="M6.22266 6.22266H7.11155V7.11155H6.22266V6.22266Z" fill="white"/>
<path d="M8.88867 6.22266H9.77756V7.11155H8.88867V6.22266Z" fill="white"/>
<path d="M11.5557 6.22266H12.4446V7.11155H11.5557V6.22266Z" fill="white"/>
<path d="M3.55566 8.44531H4.44455V9.3342H3.55566V8.44531Z" fill="white"/>
<path d="M6.22266 8.44531H7.11155V9.3342H6.22266V8.44531Z" fill="white"/>
<path d="M8.88867 8.44531H9.77756V9.3342H8.88867V8.44531Z" fill="white"/>
<path d="M11.5557 8.44531H12.4446V9.3342H11.5557V8.44531Z" fill="white"/>
<path d="M3.55566 10.666H4.44455V11.5549H3.55566V10.666Z" fill="white"/>
<path d="M6.22266 10.666H7.11155V11.5549H6.22266V10.666Z" fill="white"/>
<path d="M8.88867 10.666H9.77756V11.5549H8.88867V10.666Z" fill="white"/>
<path d="M11.5557 10.666H12.4446V11.5549H11.5557V10.666Z" fill="white"/>
<path d="M4.44444 4.44423C4.56232 4.44423 4.67536 4.3974 4.75871 4.31405C4.84206 4.2307 4.88889 4.11766 4.88889 3.99978V1.33312C4.88889 1.21524 4.84206 1.1022 4.75871 1.01885C4.67536 0.935497 4.56232 0.888672 4.44444 0.888672C4.32657 0.888672 4.21352 0.935497 4.13017 1.01885C4.04683 1.1022 4 1.21524 4 1.33312V3.99978C4 4.11766 4.04683 4.2307 4.13017 4.31405C4.21352 4.3974 4.32657 4.44423 4.44444 4.44423Z" fill="white"/>
<path d="M11.5558 4.44423C11.6736 4.44423 11.7867 4.3974 11.87 4.31405C11.9534 4.2307 12.0002 4.11766 12.0002 3.99978V1.33312C12.0002 1.21524 11.9534 1.1022 11.87 1.01885C11.7867 0.935497 11.6736 0.888672 11.5558 0.888672C11.4379 0.888672 11.3249 0.935497 11.2415 1.01885C11.1582 1.1022 11.1113 1.21524 11.1113 1.33312V3.99978C11.1113 4.11766 11.1582 4.2307 11.2415 4.31405C11.3249 4.3974 11.4379 4.44423 11.5558 4.44423Z" fill="white"/>
<path d="M5.77734 2.66602H10.2218V3.5549H5.77734V2.66602Z" fill="white"/>
</g>
<defs>
<clipPath id="clip0_3079_2849">
<rect width="16" height="16" fill="white"/>
</clipPath>
</defs>
</svg>
