<svg width="20" height="20" viewBox="0 0 20 20" fill="none" xmlns="http://www.w3.org/2000/svg">
<path d="M2.5 13.1257V6.87565C2.5 6.43362 2.67559 6.0097 2.98816 5.69714C3.30072 5.38458 3.72464 5.20898 4.16667 5.20898H11.25C11.692 5.20898 12.116 5.38458 12.4285 5.69714C12.7411 6.0097 12.9167 6.43362 12.9167 6.87565V13.1257C12.9167 13.5677 12.7411 13.9916 12.4285 14.3042C12.116 14.6167 11.692 14.7923 11.25 14.7923H4.16667C3.72464 14.7923 3.30072 14.6167 2.98816 14.3042C2.67559 13.9916 2.5 13.5677 2.5 13.1257ZM16.8067 5.82648L13.4733 8.79565C13.4294 8.83466 13.3942 8.88252 13.3701 8.93609C13.346 8.98966 13.3334 9.04773 13.3333 9.10648V10.5882C13.3334 10.6469 13.346 10.705 13.3701 10.7585C13.3942 10.8121 13.4294 10.86 13.4733 10.899L16.8067 13.8682C16.8667 13.9215 16.9409 13.9563 17.0203 13.9685C17.0997 13.9806 17.1809 13.9696 17.2542 13.9366C17.3274 13.9037 17.3896 13.8503 17.4332 13.7829C17.4768 13.7154 17.5 13.6368 17.5 13.5565V6.13815C17.5 6.05783 17.4768 5.97922 17.4332 5.91178C17.3896 5.84433 17.3274 5.79093 17.2542 5.758C17.1809 5.72507 17.0997 5.71402 17.0203 5.72617C16.9409 5.73832 16.8667 5.77315 16.8067 5.82648Z" stroke="#00FF6B" stroke-width="1.5" strokeLinecap="round" strokeLinejoin="round"/>
</svg>
